%TF.GenerationSoftware,KiCad,Pcbnew,8.0.7*%
%TF.CreationDate,2025-01-22T16:06:57-05:00*%
%TF.ProjectId,vaudeo,76617564-656f-42e6-9b69-6361645f7063,rev?*%
%TF.SameCoordinates,Original*%
%TF.FileFunction,Copper,L1,Top*%
%TF.FilePolarity,Positive*%
%FSLAX46Y46*%
G04 Gerber Fmt 4.6, Leading zero omitted, Abs format (unit mm)*
G04 Created by KiCad (PCBNEW 8.0.7) date 2025-01-22 16:06:57*
%MOMM*%
%LPD*%
G01*
G04 APERTURE LIST*
G04 Aperture macros list*
%AMRoundRect*
0 Rectangle with rounded corners*
0 $1 Rounding radius*
0 $2 $3 $4 $5 $6 $7 $8 $9 X,Y pos of 4 corners*
0 Add a 4 corners polygon primitive as box body*
4,1,4,$2,$3,$4,$5,$6,$7,$8,$9,$2,$3,0*
0 Add four circle primitives for the rounded corners*
1,1,$1+$1,$2,$3*
1,1,$1+$1,$4,$5*
1,1,$1+$1,$6,$7*
1,1,$1+$1,$8,$9*
0 Add four rect primitives between the rounded corners*
20,1,$1+$1,$2,$3,$4,$5,0*
20,1,$1+$1,$4,$5,$6,$7,0*
20,1,$1+$1,$6,$7,$8,$9,0*
20,1,$1+$1,$8,$9,$2,$3,0*%
G04 Aperture macros list end*
%TA.AperFunction,SMDPad,CuDef*%
%ADD10RoundRect,0.250000X0.350000X0.450000X-0.350000X0.450000X-0.350000X-0.450000X0.350000X-0.450000X0*%
%TD*%
%TA.AperFunction,SMDPad,CuDef*%
%ADD11RoundRect,0.250000X0.574524X0.097227X0.097227X0.574524X-0.574524X-0.097227X-0.097227X-0.574524X0*%
%TD*%
%TA.AperFunction,SMDPad,CuDef*%
%ADD12RoundRect,0.250000X0.450000X-0.350000X0.450000X0.350000X-0.450000X0.350000X-0.450000X-0.350000X0*%
%TD*%
%TA.AperFunction,SMDPad,CuDef*%
%ADD13RoundRect,0.250000X0.070711X-0.565685X0.565685X-0.070711X-0.070711X0.565685X-0.565685X0.070711X0*%
%TD*%
%TA.AperFunction,SMDPad,CuDef*%
%ADD14RoundRect,0.250000X-0.475000X0.337500X-0.475000X-0.337500X0.475000X-0.337500X0.475000X0.337500X0*%
%TD*%
%TA.AperFunction,SMDPad,CuDef*%
%ADD15RoundRect,0.243750X-0.243750X-0.456250X0.243750X-0.456250X0.243750X0.456250X-0.243750X0.456250X0*%
%TD*%
%TA.AperFunction,ComponentPad*%
%ADD16R,1.700000X1.700000*%
%TD*%
%TA.AperFunction,ComponentPad*%
%ADD17O,1.700000X1.700000*%
%TD*%
%TA.AperFunction,ComponentPad*%
%ADD18C,0.800000*%
%TD*%
%TA.AperFunction,ComponentPad*%
%ADD19C,6.400000*%
%TD*%
%TA.AperFunction,SMDPad,CuDef*%
%ADD20RoundRect,0.250000X-0.450000X0.350000X-0.450000X-0.350000X0.450000X-0.350000X0.450000X0.350000X0*%
%TD*%
%TA.AperFunction,SMDPad,CuDef*%
%ADD21RoundRect,0.250000X-0.350000X-0.450000X0.350000X-0.450000X0.350000X0.450000X-0.350000X0.450000X0*%
%TD*%
%TA.AperFunction,SMDPad,CuDef*%
%ADD22RoundRect,0.250000X-0.097227X0.574524X-0.574524X0.097227X0.097227X-0.574524X0.574524X-0.097227X0*%
%TD*%
%TA.AperFunction,SMDPad,CuDef*%
%ADD23RoundRect,0.250000X0.475000X-0.337500X0.475000X0.337500X-0.475000X0.337500X-0.475000X-0.337500X0*%
%TD*%
%TA.AperFunction,SMDPad,CuDef*%
%ADD24R,1.510000X0.458000*%
%TD*%
%TA.AperFunction,SMDPad,CuDef*%
%ADD25RoundRect,0.250000X-0.574524X-0.097227X-0.097227X-0.574524X0.574524X0.097227X0.097227X0.574524X0*%
%TD*%
%TA.AperFunction,SMDPad,CuDef*%
%ADD26RoundRect,0.150000X-0.825000X-0.150000X0.825000X-0.150000X0.825000X0.150000X-0.825000X0.150000X0*%
%TD*%
%TA.AperFunction,SMDPad,CuDef*%
%ADD27RoundRect,0.150000X-0.512500X-0.150000X0.512500X-0.150000X0.512500X0.150000X-0.512500X0.150000X0*%
%TD*%
%TA.AperFunction,SMDPad,CuDef*%
%ADD28RoundRect,0.250000X0.097227X-0.574524X0.574524X-0.097227X-0.097227X0.574524X-0.574524X0.097227X0*%
%TD*%
%TA.AperFunction,SMDPad,CuDef*%
%ADD29RoundRect,0.250000X-0.337500X-0.475000X0.337500X-0.475000X0.337500X0.475000X-0.337500X0.475000X0*%
%TD*%
%TA.AperFunction,ComponentPad*%
%ADD30C,4.000000*%
%TD*%
%TA.AperFunction,ComponentPad*%
%ADD31R,1.600000X1.600000*%
%TD*%
%TA.AperFunction,ComponentPad*%
%ADD32C,1.600000*%
%TD*%
%TA.AperFunction,SMDPad,CuDef*%
%ADD33RoundRect,0.250000X0.337500X0.475000X-0.337500X0.475000X-0.337500X-0.475000X0.337500X-0.475000X0*%
%TD*%
%TA.AperFunction,SMDPad,CuDef*%
%ADD34R,1.100000X0.900000*%
%TD*%
%TA.AperFunction,SMDPad,CuDef*%
%ADD35RoundRect,0.075000X-0.415425X-0.521491X0.521491X0.415425X0.415425X0.521491X-0.521491X-0.415425X0*%
%TD*%
%TA.AperFunction,SMDPad,CuDef*%
%ADD36RoundRect,0.075000X0.415425X-0.521491X0.521491X-0.415425X-0.415425X0.521491X-0.521491X0.415425X0*%
%TD*%
%TA.AperFunction,SMDPad,CuDef*%
%ADD37R,2.800000X2.200000*%
%TD*%
%TA.AperFunction,SMDPad,CuDef*%
%ADD38R,2.800000X2.800000*%
%TD*%
%TA.AperFunction,ViaPad*%
%ADD39C,0.762000*%
%TD*%
%TA.AperFunction,Conductor*%
%ADD40C,0.254000*%
%TD*%
%TA.AperFunction,Conductor*%
%ADD41C,0.635000*%
%TD*%
%TA.AperFunction,Conductor*%
%ADD42C,0.203200*%
%TD*%
%TA.AperFunction,Conductor*%
%ADD43C,0.304800*%
%TD*%
%TA.AperFunction,Conductor*%
%ADD44C,0.250000*%
%TD*%
G04 APERTURE END LIST*
D10*
%TO.P,R18,1*%
%TO.N,FPGA_AUDIO_L*%
X163560000Y-72771000D03*
%TO.P,R18,2*%
%TO.N,/Audio/AUDIO_L_MID*%
X161560000Y-72771000D03*
%TD*%
D11*
%TO.P,C13,1*%
%TO.N,+3V3*%
X171167623Y-81124623D03*
%TO.P,C13,2*%
%TO.N,GND*%
X169700377Y-79657377D03*
%TD*%
%TO.P,C12,1*%
%TO.N,+3V3*%
X165579623Y-87220623D03*
%TO.P,C12,2*%
%TO.N,GND*%
X164112377Y-85753377D03*
%TD*%
D12*
%TO.P,R30,1*%
%TO.N,FPGA_VSYNC*%
X184166334Y-66548000D03*
%TO.P,R30,2*%
%TO.N,/Video/VGA_VSYNC*%
X184166334Y-64548000D03*
%TD*%
D13*
%TO.P,R9,1*%
%TO.N,+1V2*%
X190300893Y-107387107D03*
%TO.P,R9,2*%
%TO.N,/Power & Programming/VCCPLL0*%
X191715107Y-105972893D03*
%TD*%
D14*
%TO.P,C29,1*%
%TO.N,+3V3*%
X156591000Y-106531500D03*
%TO.P,C29,2*%
%TO.N,GND*%
X156591000Y-108606500D03*
%TD*%
D12*
%TO.P,R21,1*%
%TO.N,FPGA_RED3*%
X194123665Y-80391000D03*
%TO.P,R21,2*%
%TO.N,/Video/VGA_RED*%
X194123665Y-78391000D03*
%TD*%
D15*
%TO.P,D3,1,K*%
%TO.N,/LED2_R*%
X212152500Y-89027000D03*
%TO.P,D3,2,A*%
%TO.N,+3V3*%
X214027500Y-89027000D03*
%TD*%
D10*
%TO.P,R12,1*%
%TO.N,+3V3*%
X224393000Y-111887000D03*
%TO.P,R12,2*%
%TO.N,CDONE*%
X222393000Y-111887000D03*
%TD*%
D16*
%TO.P,J6,1,Pin_1*%
%TO.N,Net-(J6-Pin_1)*%
X206756000Y-122174000D03*
D17*
%TO.P,J6,2,Pin_2*%
%TO.N,Net-(J6-Pin_2)*%
X206756000Y-119634000D03*
%TO.P,J6,3,Pin_3*%
%TO.N,CBSEL0*%
X209296000Y-122174000D03*
%TO.P,J6,4,Pin_4*%
%TO.N,CBSEL1*%
X209296000Y-119634000D03*
%TO.P,J6,5,Pin_5*%
%TO.N,GND*%
X211836000Y-122174000D03*
%TO.P,J6,6,Pin_6*%
X211836000Y-119634000D03*
%TD*%
D18*
%TO.P,H1,1,1*%
%TO.N,GND*%
X131458000Y-66675000D03*
X132160944Y-64977944D03*
X132160944Y-68372056D03*
X133858000Y-64275000D03*
D19*
X133858000Y-66675000D03*
D18*
X133858000Y-69075000D03*
X135555056Y-64977944D03*
X135555056Y-68372056D03*
X136258000Y-66675000D03*
%TD*%
D20*
%TO.P,R37,1*%
%TO.N,SCK*%
X205359000Y-101489000D03*
%TO.P,R37,2*%
%TO.N,+3V3*%
X205359000Y-103489000D03*
%TD*%
D21*
%TO.P,R17,1*%
%TO.N,GND*%
X166624000Y-64643000D03*
%TO.P,R17,2*%
%TO.N,/Audio/AUDIO_R*%
X168624000Y-64643000D03*
%TD*%
D22*
%TO.P,C10,1*%
%TO.N,+3V3*%
X164309623Y-98961377D03*
%TO.P,C10,2*%
%TO.N,GND*%
X162842377Y-100428623D03*
%TD*%
D13*
%TO.P,R10,1*%
%TO.N,+1V2*%
X164773893Y-81987107D03*
%TO.P,R10,2*%
%TO.N,/Power & Programming/VCCPLL1*%
X166188107Y-80572893D03*
%TD*%
D22*
%TO.P,C20,1*%
%TO.N,/Power & Programming/VCCPLL1*%
X169135623Y-83467377D03*
%TO.P,C20,2*%
%TO.N,/Power & Programming/GNDPLL1*%
X167668377Y-84934623D03*
%TD*%
D21*
%TO.P,R5,1*%
%TO.N,/LED3*%
X208272000Y-92710000D03*
%TO.P,R5,2*%
%TO.N,/LED3_R*%
X210272000Y-92710000D03*
%TD*%
%TO.P,R2,1*%
%TO.N,/LED0*%
X199560250Y-89027000D03*
%TO.P,R2,2*%
%TO.N,/LED0_R*%
X201560250Y-89027000D03*
%TD*%
D22*
%TO.P,C23,1*%
%TO.N,/Power & Programming/VCCPLL0*%
X188887058Y-103141677D03*
%TO.P,C23,2*%
%TO.N,/Power & Programming/GNDPLL0*%
X187419812Y-104608923D03*
%TD*%
D23*
%TO.P,C5,1*%
%TO.N,+3V3*%
X215662000Y-103221500D03*
%TO.P,C5,2*%
%TO.N,GND*%
X215662000Y-101146500D03*
%TD*%
D14*
%TO.P,C16,1*%
%TO.N,+1V2*%
X141605000Y-86063000D03*
%TO.P,C16,2*%
%TO.N,GND*%
X141605000Y-88138000D03*
%TD*%
D12*
%TO.P,R32,1*%
%TO.N,FPGA_BLU2*%
X213427665Y-80391000D03*
%TO.P,R32,2*%
%TO.N,/Video/VGA_BLU*%
X213427665Y-78391000D03*
%TD*%
D24*
%TO.P,U5,1,VDD*%
%TO.N,+3V3*%
X142459000Y-97931000D03*
%TO.P,U5,2,DQ0*%
%TO.N,SDRAM_DQ0*%
X142459000Y-98731000D03*
%TO.P,U5,3,VDDQ*%
%TO.N,+3V3*%
X142459000Y-99531000D03*
%TO.P,U5,4,DQ1*%
%TO.N,SDRAM_DQ1*%
X142459000Y-100331000D03*
%TO.P,U5,5,DQ2*%
%TO.N,SDRAM_DQ2*%
X142459000Y-101131000D03*
%TO.P,U5,6,GNDQ*%
%TO.N,GND*%
X142459000Y-101931000D03*
%TO.P,U5,7,DQ3*%
%TO.N,SDRAM_DQ3*%
X142459000Y-102731000D03*
%TO.P,U5,8,DQ4*%
%TO.N,SDRAM_DQ4*%
X142459000Y-103531000D03*
%TO.P,U5,9,VDDQ*%
%TO.N,+3V3*%
X142459000Y-104331000D03*
%TO.P,U5,10,DQ5*%
%TO.N,SDRAM_DQ5*%
X142459000Y-105131000D03*
%TO.P,U5,11,DQ6*%
%TO.N,SDRAM_DQ6*%
X142459000Y-105931000D03*
%TO.P,U5,12,GNDQ*%
%TO.N,GND*%
X142459000Y-106731000D03*
%TO.P,U5,13,DQ7*%
%TO.N,SDRAM_DQ7*%
X142459000Y-107531000D03*
%TO.P,U5,14,VDD*%
%TO.N,+3V3*%
X142459000Y-108331000D03*
%TO.P,U5,15,LDQM*%
%TO.N,SDRAM_LDQM*%
X142459000Y-109131000D03*
%TO.P,U5,16,~{WE}*%
%TO.N,~{SDRAM_WE}*%
X142459000Y-109931000D03*
%TO.P,U5,17,~{CAS}*%
%TO.N,~{SDRAM_CAS}*%
X142459000Y-110731000D03*
%TO.P,U5,18,~{RAS}*%
%TO.N,~{SDRAM_RAS}*%
X142459000Y-111531000D03*
%TO.P,U5,19,~{CS}*%
%TO.N,~{SDRAM_CS}*%
X142459000Y-112331000D03*
%TO.P,U5,20,BA0*%
%TO.N,SDRAM_BA0*%
X142459000Y-113131000D03*
%TO.P,U5,21,BA1*%
%TO.N,SDRAM_BA1*%
X142459000Y-113931000D03*
%TO.P,U5,22,A10*%
%TO.N,SDRAM_A10*%
X142459000Y-114731000D03*
%TO.P,U5,23,A0*%
%TO.N,SDRAM_A0*%
X142459000Y-115531000D03*
%TO.P,U5,24,A1*%
%TO.N,SDRAM_A1*%
X142459000Y-116331000D03*
%TO.P,U5,25,A2*%
%TO.N,SDRAM_A2*%
X142459000Y-117131000D03*
%TO.P,U5,26,A3*%
%TO.N,SDRAM_A3*%
X142459000Y-117931000D03*
%TO.P,U5,27,VDD*%
%TO.N,+3V3*%
X142459000Y-118731000D03*
%TO.P,U5,28,GND*%
%TO.N,GND*%
X153959000Y-118731000D03*
%TO.P,U5,29,A4*%
%TO.N,SDRAM_A4*%
X153959000Y-117931000D03*
%TO.P,U5,30,A5*%
%TO.N,SDRAM_A5*%
X153959000Y-117131000D03*
%TO.P,U5,31,A6*%
%TO.N,SDRAM_A6*%
X153959000Y-116331000D03*
%TO.P,U5,32,A7*%
%TO.N,SDRAM_A7*%
X153959000Y-115531000D03*
%TO.P,U5,33,A8*%
%TO.N,SDRAM_A8*%
X153959000Y-114731000D03*
%TO.P,U5,34,A9*%
%TO.N,SDRAM_A9*%
X153959000Y-113931000D03*
%TO.P,U5,35,A11*%
%TO.N,SDRAM_A11*%
X153959000Y-113131000D03*
%TO.P,U5,36,NC*%
%TO.N,unconnected-(U5-NC-Pad36)*%
X153959000Y-112331000D03*
%TO.P,U5,37,CKE*%
%TO.N,SDRAM_CKE*%
X153959000Y-111531000D03*
%TO.P,U5,38,CLK*%
%TO.N,/SDRAM/SDRAM_CLK_POST_RESISTOR*%
X153959000Y-110731000D03*
%TO.P,U5,39,UDQM*%
%TO.N,SDRAM_UDQM*%
X153959000Y-109931000D03*
%TO.P,U5,40,NC*%
%TO.N,unconnected-(U5-NC-Pad40)*%
X153959000Y-109131000D03*
%TO.P,U5,41,GND*%
%TO.N,GND*%
X153959000Y-108331000D03*
%TO.P,U5,42,DQ8*%
%TO.N,SDRAM_DQ8*%
X153959000Y-107531000D03*
%TO.P,U5,43,VDDQ*%
%TO.N,+3V3*%
X153959000Y-106731000D03*
%TO.P,U5,44,DQ9*%
%TO.N,SDRAM_DQ9*%
X153959000Y-105931000D03*
%TO.P,U5,45,DQ10*%
%TO.N,SDRAM_DQ10*%
X153959000Y-105131000D03*
%TO.P,U5,46,GNDQ*%
%TO.N,GND*%
X153959000Y-104331000D03*
%TO.P,U5,47,DQ11*%
%TO.N,SDRAM_DQ11*%
X153959000Y-103531000D03*
%TO.P,U5,48,DQ12*%
%TO.N,SDRAM_DQ12*%
X153959000Y-102731000D03*
%TO.P,U5,49,VDDQ*%
%TO.N,+3V3*%
X153959000Y-101931000D03*
%TO.P,U5,50,DQ13*%
%TO.N,SDRAM_DQ13*%
X153959000Y-101131000D03*
%TO.P,U5,51,DQ14*%
%TO.N,SDRAM_DQ14*%
X153959000Y-100331000D03*
%TO.P,U5,52,GNDQ*%
%TO.N,GND*%
X153959000Y-99531000D03*
%TO.P,U5,53,DQ15*%
%TO.N,SDRAM_DQ15*%
X153959000Y-98731000D03*
%TO.P,U5,54,GND*%
%TO.N,GND*%
X153959000Y-97931000D03*
%TD*%
D25*
%TO.P,C3,1*%
%TO.N,+1V2*%
X182400377Y-109756377D03*
%TO.P,C3,2*%
%TO.N,GND*%
X183867623Y-111223623D03*
%TD*%
D26*
%TO.P,U2,1,SI*%
%TO.N,SDI*%
X207710000Y-100203000D03*
%TO.P,U2,2,SCK*%
%TO.N,SCK*%
X207710000Y-101473000D03*
%TO.P,U2,3,~{RESET}*%
%TO.N,~{FLASH_RESET}*%
X207710000Y-102743000D03*
%TO.P,U2,4,~{CS}*%
%TO.N,~{FLASH_SEL}*%
X207710000Y-104013000D03*
%TO.P,U2,5,~{WP}*%
%TO.N,+3V3*%
X212660000Y-104013000D03*
%TO.P,U2,6,VCC*%
X212660000Y-102743000D03*
%TO.P,U2,7,GND*%
%TO.N,GND*%
X212660000Y-101473000D03*
%TO.P,U2,8,SO*%
%TO.N,SDO*%
X212660000Y-100203000D03*
%TD*%
D18*
%TO.P,H4,1,1*%
%TO.N,GND*%
X131422269Y-121823926D03*
X132125213Y-120126870D03*
X132125213Y-123520982D03*
X133822269Y-119423926D03*
D19*
X133822269Y-121823926D03*
D18*
X133822269Y-124223926D03*
X135519325Y-120126870D03*
X135519325Y-123520982D03*
X136222269Y-121823926D03*
%TD*%
D12*
%TO.P,R22,1*%
%TO.N,FPGA_RED2*%
X196155665Y-80391000D03*
%TO.P,R22,2*%
%TO.N,/Video/VGA_RED*%
X196155665Y-78391000D03*
%TD*%
D27*
%TO.P,U4,1,VIN*%
%TO.N,+5V*%
X137044000Y-74681000D03*
%TO.P,U4,2,GND*%
%TO.N,GND*%
X137044000Y-75631000D03*
%TO.P,U4,3,EN*%
%TO.N,/Power & Programming/EN3V3*%
X137044000Y-76581000D03*
%TO.P,U4,4,NC*%
%TO.N,unconnected-(U4-NC-Pad4)*%
X139319000Y-76581000D03*
%TO.P,U4,5,VOUT*%
%TO.N,+3V3*%
X139319000Y-74681000D03*
%TD*%
D15*
%TO.P,D2,1,K*%
%TO.N,/LED1_R*%
X203432750Y-92710000D03*
%TO.P,D2,2,A*%
%TO.N,+3V3*%
X205307750Y-92710000D03*
%TD*%
D10*
%TO.P,R13,1*%
%TO.N,+3V3*%
X224393000Y-108585000D03*
%TO.P,R13,2*%
%TO.N,~{CRESET}*%
X222393000Y-108585000D03*
%TD*%
D12*
%TO.P,R23,1*%
%TO.N,FPGA_RED1*%
X198187665Y-80391000D03*
%TO.P,R23,2*%
%TO.N,/Video/VGA_RED*%
X198187665Y-78391000D03*
%TD*%
D28*
%TO.P,C15,1*%
%TO.N,+3V3*%
X184968754Y-81223246D03*
%TO.P,C15,2*%
%TO.N,GND*%
X186436000Y-79756000D03*
%TD*%
D29*
%TO.P,C33,1*%
%TO.N,/Audio/AUDIO_L_MID*%
X161501000Y-66675000D03*
%TO.P,C33,2*%
%TO.N,/Audio/AUDIO_L*%
X163576000Y-66675000D03*
%TD*%
D12*
%TO.P,R27,1*%
%TO.N,FPGA_GRN1*%
X206823665Y-80391000D03*
%TO.P,R27,2*%
%TO.N,/Video/VGA_GRN*%
X206823665Y-78391000D03*
%TD*%
D15*
%TO.P,D1,1,K*%
%TO.N,/LED0_R*%
X203432750Y-89027000D03*
%TO.P,D1,2,A*%
%TO.N,+3V3*%
X205307750Y-89027000D03*
%TD*%
D10*
%TO.P,R14,1*%
%TO.N,SDRAM_CLK*%
X158226000Y-94615000D03*
%TO.P,R14,2*%
%TO.N,/SDRAM/SDRAM_CLK_POST_RESISTOR*%
X156226000Y-94615000D03*
%TD*%
%TO.P,R20,1*%
%TO.N,GND*%
X163560000Y-64643000D03*
%TO.P,R20,2*%
%TO.N,/Audio/AUDIO_L*%
X161560000Y-64643000D03*
%TD*%
D21*
%TO.P,R15,1*%
%TO.N,FPGA_AUDIO_R*%
X166624000Y-72771000D03*
%TO.P,R15,2*%
%TO.N,/Audio/AUDIO_R_MID*%
X168624000Y-72771000D03*
%TD*%
D25*
%TO.P,C11,1*%
%TO.N,+3V3*%
X190175754Y-101656754D03*
%TO.P,C11,2*%
%TO.N,GND*%
X191643000Y-103124000D03*
%TD*%
D28*
%TO.P,C14,1*%
%TO.N,+3V3*%
X181031754Y-78048246D03*
%TO.P,C14,2*%
%TO.N,GND*%
X182499000Y-76581000D03*
%TD*%
D29*
%TO.P,C34,1*%
%TO.N,/Audio/AUDIO_L_MID*%
X161522500Y-70739000D03*
%TO.P,C34,2*%
%TO.N,GND*%
X163597500Y-70739000D03*
%TD*%
D10*
%TO.P,R6,1*%
%TO.N,+3V3*%
X209329000Y-105918000D03*
%TO.P,R6,2*%
%TO.N,~{FLASH_SEL}*%
X207329000Y-105918000D03*
%TD*%
D12*
%TO.P,R24,1*%
%TO.N,FPGA_RED0*%
X200219665Y-80375000D03*
%TO.P,R24,2*%
%TO.N,/Video/VGA_RED*%
X200219665Y-78375000D03*
%TD*%
D25*
%TO.P,C8,1*%
%TO.N,+3V3*%
X185222754Y-106990754D03*
%TO.P,C8,2*%
%TO.N,GND*%
X186690000Y-108458000D03*
%TD*%
D16*
%TO.P,J3,1,Pin_1*%
%TO.N,SDI*%
X226441000Y-85359000D03*
D17*
%TO.P,J3,2,Pin_2*%
%TO.N,SDO*%
X226441000Y-87899000D03*
%TO.P,J3,3,Pin_3*%
%TO.N,SCK*%
X226441000Y-90439000D03*
%TO.P,J3,4,Pin_4*%
%TO.N,~{FLASH_SEL}*%
X226441000Y-92979000D03*
%TO.P,J3,5,Pin_5*%
%TO.N,~{FLASH_RESET}*%
X226441000Y-95519000D03*
%TO.P,J3,6,Pin_6*%
%TO.N,~{CRESET}*%
X226441000Y-98059000D03*
%TO.P,J3,7,Pin_7*%
%TO.N,CDONE*%
X226441000Y-100599000D03*
%TO.P,J3,8,Pin_8*%
%TO.N,GND*%
X226441000Y-103139000D03*
%TD*%
D10*
%TO.P,R19,1*%
%TO.N,GND*%
X163560000Y-68707000D03*
%TO.P,R19,2*%
%TO.N,/Audio/AUDIO_L_MID*%
X161560000Y-68707000D03*
%TD*%
D22*
%TO.P,C2,1*%
%TO.N,+1V2*%
X172282246Y-106609754D03*
%TO.P,C2,2*%
%TO.N,GND*%
X170815000Y-108077000D03*
%TD*%
D21*
%TO.P,R36,1*%
%TO.N,+3V3*%
X201708000Y-119634000D03*
%TO.P,R36,2*%
%TO.N,Net-(J6-Pin_2)*%
X203708000Y-119634000D03*
%TD*%
D12*
%TO.P,R34,1*%
%TO.N,FPGA_BLU0*%
X217491665Y-80391000D03*
%TO.P,R34,2*%
%TO.N,/Video/VGA_BLU*%
X217491665Y-78391000D03*
%TD*%
D15*
%TO.P,D4,1,K*%
%TO.N,/LED3_R*%
X212152500Y-92710000D03*
%TO.P,D4,2,A*%
%TO.N,+3V3*%
X214027500Y-92710000D03*
%TD*%
D27*
%TO.P,U3,1,VIN*%
%TO.N,+5V*%
X137033000Y-85979000D03*
%TO.P,U3,2,GND*%
%TO.N,GND*%
X137033000Y-86929000D03*
%TO.P,U3,3,EN*%
%TO.N,/Power & Programming/EN1V2*%
X137033000Y-87879000D03*
%TO.P,U3,4,NC*%
%TO.N,unconnected-(U3-NC-Pad4)*%
X139308000Y-87879000D03*
%TO.P,U3,5,VOUT*%
%TO.N,+1V2*%
X139308000Y-85979000D03*
%TD*%
D12*
%TO.P,R33,1*%
%TO.N,FPGA_BLU1*%
X215459665Y-80391000D03*
%TO.P,R33,2*%
%TO.N,/Video/VGA_BLU*%
X215459665Y-78391000D03*
%TD*%
D23*
%TO.P,C30,1*%
%TO.N,+3V3*%
X156591000Y-101748500D03*
%TO.P,C30,2*%
%TO.N,GND*%
X156591000Y-99673500D03*
%TD*%
D12*
%TO.P,R28,1*%
%TO.N,FPGA_GRN0*%
X208855665Y-80391000D03*
%TO.P,R28,2*%
%TO.N,/Video/VGA_GRN*%
X208855665Y-78391000D03*
%TD*%
D22*
%TO.P,C21,1*%
%TO.N,/Power & Programming/VCCPLL1*%
X167616840Y-81998459D03*
%TO.P,C21,2*%
%TO.N,/Power & Programming/GNDPLL1*%
X166149594Y-83465705D03*
%TD*%
D28*
%TO.P,C4,1*%
%TO.N,+1V2*%
X188623377Y-84172623D03*
%TO.P,C4,2*%
%TO.N,GND*%
X190090623Y-82705377D03*
%TD*%
D30*
%TO.P,J2,0*%
%TO.N,GND*%
X216021665Y-72579331D03*
X191021665Y-72579331D03*
D31*
%TO.P,J2,1*%
%TO.N,/Video/VGA_RED*%
X199206665Y-73999331D03*
D32*
%TO.P,J2,2*%
%TO.N,/Video/VGA_GRN*%
X201496665Y-73999331D03*
%TO.P,J2,3*%
%TO.N,/Video/VGA_BLU*%
X203786665Y-73999331D03*
%TO.P,J2,4*%
%TO.N,unconnected-(J2-Pad4)*%
X206076665Y-73999331D03*
%TO.P,J2,5*%
%TO.N,GND*%
X208366665Y-73999331D03*
%TO.P,J2,6*%
X198061665Y-72019331D03*
%TO.P,J2,7*%
X200351665Y-72019331D03*
%TO.P,J2,8*%
X202641665Y-72019331D03*
%TO.P,J2,9*%
%TO.N,unconnected-(J2-Pad9)*%
X204931665Y-72019331D03*
%TO.P,J2,10*%
%TO.N,GND*%
X207221665Y-72019331D03*
%TO.P,J2,11*%
%TO.N,unconnected-(J2-Pad11)*%
X199206665Y-70039331D03*
%TO.P,J2,12*%
%TO.N,unconnected-(J2-Pad12)*%
X201496665Y-70039331D03*
%TO.P,J2,13*%
%TO.N,/Video/VGA_HSYNC*%
X203786665Y-70039331D03*
%TO.P,J2,14*%
%TO.N,/Video/VGA_VSYNC*%
X206076665Y-70039331D03*
%TO.P,J2,15*%
%TO.N,unconnected-(J2-Pad15)*%
X208366665Y-70039331D03*
%TD*%
D12*
%TO.P,R25,1*%
%TO.N,FPGA_GRN3*%
X202759665Y-80375000D03*
%TO.P,R25,2*%
%TO.N,/Video/VGA_GRN*%
X202759665Y-78375000D03*
%TD*%
D14*
%TO.P,C24,1*%
%TO.N,+3V3*%
X139827000Y-118723500D03*
%TO.P,C24,2*%
%TO.N,GND*%
X139827000Y-120798500D03*
%TD*%
D11*
%TO.P,C1,1*%
%TO.N,+1V2*%
X176530000Y-77089000D03*
%TO.P,C1,2*%
%TO.N,GND*%
X175062754Y-75621754D03*
%TD*%
D18*
%TO.P,H3,1,1*%
%TO.N,GND*%
X221120000Y-121793000D03*
X221822944Y-120095944D03*
X221822944Y-123490056D03*
X223520000Y-119393000D03*
D19*
X223520000Y-121793000D03*
D18*
X223520000Y-124193000D03*
X225217056Y-120095944D03*
X225217056Y-123490056D03*
X225920000Y-121793000D03*
%TD*%
D16*
%TO.P,J4,1,Pin_1*%
%TO.N,+5V*%
X130937000Y-85359000D03*
D17*
%TO.P,J4,2,Pin_2*%
X130937000Y-87899000D03*
%TO.P,J4,3,Pin_3*%
X130937000Y-90439000D03*
%TO.P,J4,4,Pin_4*%
X130937000Y-92979000D03*
%TO.P,J4,5,Pin_5*%
%TO.N,GND*%
X130937000Y-95519000D03*
%TO.P,J4,6,Pin_6*%
X130937000Y-98059000D03*
%TO.P,J4,7,Pin_7*%
X130937000Y-100599000D03*
%TO.P,J4,8,Pin_8*%
X130937000Y-103139000D03*
%TD*%
D33*
%TO.P,C31,1*%
%TO.N,/Audio/AUDIO_R_MID*%
X168661500Y-66675000D03*
%TO.P,C31,2*%
%TO.N,/Audio/AUDIO_R*%
X166586500Y-66675000D03*
%TD*%
D28*
%TO.P,C6,1*%
%TO.N,+3V3*%
X190274377Y-86331623D03*
%TO.P,C6,2*%
%TO.N,GND*%
X191741623Y-84864377D03*
%TD*%
D14*
%TO.P,C17,1*%
%TO.N,+3V3*%
X141605000Y-74654500D03*
%TO.P,C17,2*%
%TO.N,GND*%
X141605000Y-76729500D03*
%TD*%
D15*
%TO.P,D5,1,K*%
%TO.N,/Power & Programming/LED_PWR*%
X130350500Y-74594500D03*
%TO.P,D5,2,A*%
%TO.N,+3V3*%
X132225500Y-74594500D03*
%TD*%
D10*
%TO.P,R11,1*%
%TO.N,GND*%
X132318000Y-76835000D03*
%TO.P,R11,2*%
%TO.N,/Power & Programming/LED_PWR*%
X130318000Y-76835000D03*
%TD*%
D23*
%TO.P,C25,1*%
%TO.N,+3V3*%
X139827000Y-108606500D03*
%TO.P,C25,2*%
%TO.N,GND*%
X139827000Y-106531500D03*
%TD*%
D33*
%TO.P,C28,1*%
%TO.N,+3V3*%
X139975500Y-97663000D03*
%TO.P,C28,2*%
%TO.N,GND*%
X137900500Y-97663000D03*
%TD*%
D29*
%TO.P,C18,1*%
%TO.N,/Power & Programming/EN3V3*%
X137138500Y-78486000D03*
%TO.P,C18,2*%
%TO.N,GND*%
X139213500Y-78486000D03*
%TD*%
D10*
%TO.P,R35,1*%
%TO.N,Net-(J6-Pin_1)*%
X203692000Y-122174000D03*
%TO.P,R35,2*%
%TO.N,+3V3*%
X201692000Y-122174000D03*
%TD*%
D34*
%TO.P,X1,1,~{ST}*%
%TO.N,+3V3*%
X207518000Y-94966000D03*
%TO.P,X1,2,GND*%
%TO.N,GND*%
X205818000Y-94966000D03*
%TO.P,X1,3,OUT*%
%TO.N,/40MHz CLK*%
X205818000Y-96266000D03*
%TO.P,X1,4,Vcc*%
%TO.N,+3V3*%
X207518000Y-96266000D03*
%TD*%
D22*
%TO.P,C9,1*%
%TO.N,+3V3*%
X173679246Y-108006754D03*
%TO.P,C9,2*%
%TO.N,GND*%
X172212000Y-109474000D03*
%TD*%
D18*
%TO.P,H2,1,1*%
%TO.N,GND*%
X221120000Y-66675000D03*
X221822944Y-64977944D03*
X221822944Y-68372056D03*
X223520000Y-64275000D03*
D19*
X223520000Y-66675000D03*
D18*
X223520000Y-69075000D03*
X225217056Y-64977944D03*
X225217056Y-68372056D03*
X225920000Y-66675000D03*
%TD*%
D14*
%TO.P,C19,1*%
%TO.N,+5V*%
X133858000Y-93211500D03*
%TO.P,C19,2*%
%TO.N,GND*%
X133858000Y-95286500D03*
%TD*%
D33*
%TO.P,C27,1*%
%TO.N,+3V3*%
X139975500Y-99695000D03*
%TO.P,C27,2*%
%TO.N,GND*%
X137900500Y-99695000D03*
%TD*%
D21*
%TO.P,R16,1*%
%TO.N,GND*%
X166624000Y-68707000D03*
%TO.P,R16,2*%
%TO.N,/Audio/AUDIO_R_MID*%
X168624000Y-68707000D03*
%TD*%
D12*
%TO.P,R31,1*%
%TO.N,FPGA_BLU3*%
X211395665Y-80391000D03*
%TO.P,R31,2*%
%TO.N,/Video/VGA_BLU*%
X211395665Y-78391000D03*
%TD*%
%TO.P,R29,1*%
%TO.N,FPGA_HSYNC*%
X186198334Y-66548000D03*
%TO.P,R29,2*%
%TO.N,/Video/VGA_HSYNC*%
X186198334Y-64548000D03*
%TD*%
D10*
%TO.P,R8,1*%
%TO.N,+5V*%
X139176000Y-80772000D03*
%TO.P,R8,2*%
%TO.N,/Power & Programming/EN3V3*%
X137176000Y-80772000D03*
%TD*%
D22*
%TO.P,C22,1*%
%TO.N,/Power & Programming/VCCPLL0*%
X190344623Y-104549377D03*
%TO.P,C22,2*%
%TO.N,/Power & Programming/GNDPLL0*%
X188877377Y-106016623D03*
%TD*%
D16*
%TO.P,J5,1,Pin_1*%
%TO.N,DATA0*%
X160909000Y-124714000D03*
D17*
%TO.P,J5,2,Pin_2*%
%TO.N,CLK*%
X160909000Y-122174000D03*
%TO.P,J5,3,Pin_3*%
%TO.N,DATA1*%
X163449000Y-124714000D03*
%TO.P,J5,4,Pin_4*%
%TO.N,~{ENABLE}*%
X163449000Y-122174000D03*
%TO.P,J5,5,Pin_5*%
%TO.N,DATA2*%
X165989000Y-124714000D03*
%TO.P,J5,6,Pin_6*%
%TO.N,~{BYTE}{slash}WORD*%
X165989000Y-122174000D03*
%TO.P,J5,7,Pin_7*%
%TO.N,DATA3*%
X168529000Y-124714000D03*
%TO.P,J5,8,Pin_8*%
%TO.N,~{WRITE}{slash}READ*%
X168529000Y-122174000D03*
%TO.P,J5,9,Pin_9*%
%TO.N,GND*%
X171069000Y-124714000D03*
%TO.P,J5,10,Pin_10*%
X171069000Y-122174000D03*
%TO.P,J5,11,Pin_11*%
%TO.N,DATA4*%
X173609000Y-124714000D03*
%TO.P,J5,12,Pin_12*%
%TO.N,ADDR0*%
X173609000Y-122174000D03*
%TO.P,J5,13,Pin_13*%
%TO.N,DATA5*%
X176149000Y-124714000D03*
%TO.P,J5,14,Pin_14*%
%TO.N,ADDR1*%
X176149000Y-122174000D03*
%TO.P,J5,15,Pin_15*%
%TO.N,DATA6*%
X178689000Y-124714000D03*
%TO.P,J5,16,Pin_16*%
%TO.N,ADDR2*%
X178689000Y-122174000D03*
%TO.P,J5,17,Pin_17*%
%TO.N,DATA7*%
X181229000Y-124714000D03*
%TO.P,J5,18,Pin_18*%
%TO.N,ADDR3*%
X181229000Y-122174000D03*
%TO.P,J5,19,Pin_19*%
%TO.N,GND*%
X183769000Y-124714000D03*
%TO.P,J5,20,Pin_20*%
X183769000Y-122174000D03*
%TO.P,J5,21,Pin_21*%
%TO.N,DATA8*%
X186309000Y-124714000D03*
%TO.P,J5,22,Pin_22*%
%TO.N,ADDR4*%
X186309000Y-122174000D03*
%TO.P,J5,23,Pin_23*%
%TO.N,DATA9*%
X188849000Y-124714000D03*
%TO.P,J5,24,Pin_24*%
%TO.N,ADDR5*%
X188849000Y-122174000D03*
%TO.P,J5,25,Pin_25*%
%TO.N,DATA10*%
X191389000Y-124714000D03*
%TO.P,J5,26,Pin_26*%
%TO.N,DATA15*%
X191389000Y-122174000D03*
%TO.P,J5,27,Pin_27*%
%TO.N,DATA11*%
X193929000Y-124714000D03*
%TO.P,J5,28,Pin_28*%
%TO.N,DATA14*%
X193929000Y-122174000D03*
%TO.P,J5,29,Pin_29*%
%TO.N,DATA12*%
X196469000Y-124714000D03*
%TO.P,J5,30,Pin_30*%
%TO.N,DATA13*%
X196469000Y-122174000D03*
%TD*%
D33*
%TO.P,C32,1*%
%TO.N,/Audio/AUDIO_R_MID*%
X168661500Y-70739000D03*
%TO.P,C32,2*%
%TO.N,GND*%
X166586500Y-70739000D03*
%TD*%
D10*
%TO.P,R7,1*%
%TO.N,+5V*%
X139176000Y-89916000D03*
%TO.P,R7,2*%
%TO.N,/Power & Programming/EN1V2*%
X137176000Y-89916000D03*
%TD*%
D21*
%TO.P,R3,1*%
%TO.N,/LED1*%
X199560250Y-92710000D03*
%TO.P,R3,2*%
%TO.N,/LED1_R*%
X201560250Y-92710000D03*
%TD*%
D25*
%TO.P,C7,1*%
%TO.N,+3V3*%
X194592377Y-96802377D03*
%TO.P,C7,2*%
%TO.N,GND*%
X196059623Y-98269623D03*
%TD*%
D12*
%TO.P,R26,1*%
%TO.N,FPGA_GRN2*%
X204791665Y-80391000D03*
%TO.P,R26,2*%
%TO.N,/Video/VGA_GRN*%
X204791665Y-78391000D03*
%TD*%
D23*
%TO.P,C26,1*%
%TO.N,+3V3*%
X139827000Y-104183000D03*
%TO.P,C26,2*%
%TO.N,GND*%
X139827000Y-102108000D03*
%TD*%
D10*
%TO.P,R1,1*%
%TO.N,/40MHz CLK*%
X202692000Y-96012000D03*
%TO.P,R1,2*%
%TO.N,FPGA_VGA_CLK*%
X200692000Y-96012000D03*
%TD*%
D35*
%TO.P,U1,1,IOL_2A*%
%TO.N,SDRAM_DQ12*%
X164962290Y-95586340D03*
%TO.P,U1,2,IOL_2B*%
%TO.N,SDRAM_DQ11*%
X165315844Y-95939894D03*
%TO.P,U1,3,IOL_3A*%
%TO.N,SDRAM_DQ10*%
X165669397Y-96293447D03*
%TO.P,U1,4,IOL_3B*%
%TO.N,SDRAM_DQ9*%
X166022950Y-96647000D03*
%TO.P,U1,5,GND*%
%TO.N,GND*%
X166376504Y-97000554D03*
%TO.P,U1,6,VCCIO_3*%
%TO.N,+3V3*%
X166730057Y-97354107D03*
%TO.P,U1,7,IOL_4A*%
%TO.N,SDRAM_UDQM*%
X167083610Y-97707661D03*
%TO.P,U1,8,IOL_4B*%
%TO.N,SDRAM_CKE*%
X167437164Y-98061214D03*
%TO.P,U1,9,IOL_5A*%
%TO.N,SDRAM_A11*%
X167790717Y-98414767D03*
%TO.P,U1,10,IOL_5B*%
%TO.N,SDRAM_A9*%
X168144271Y-98768321D03*
%TO.P,U1,11,IOL_8A*%
%TO.N,SDRAM_A8*%
X168497824Y-99121874D03*
%TO.P,U1,12,IOL_8B*%
%TO.N,SDRAM_A7*%
X168851377Y-99475428D03*
%TO.P,U1,13,GND*%
%TO.N,GND*%
X169204931Y-99828981D03*
%TO.P,U1,14,GND*%
X169558484Y-100182534D03*
%TO.P,U1,15,IOL_10A*%
%TO.N,SDRAM_A6*%
X169912038Y-100536088D03*
%TO.P,U1,16,IOL_10B*%
%TO.N,SDRAM_A5*%
X170265591Y-100889641D03*
%TO.P,U1,17,IOL_12A*%
%TO.N,SDRAM_A4*%
X170619144Y-101243194D03*
%TO.P,U1,18,IOL_12B*%
%TO.N,DATA0*%
X170972698Y-101596748D03*
%TO.P,U1,19,IOL_13A*%
%TO.N,DATA1*%
X171326251Y-101950302D03*
%TO.P,U1,20,IOL_13B_GBIN7*%
%TO.N,CLK*%
X171679805Y-102303856D03*
%TO.P,U1,21,IOL_14A_GBIN6*%
%TO.N,~{ENABLE}*%
X172033358Y-102657409D03*
%TO.P,U1,22,IOL_14B*%
%TO.N,DATA2*%
X172386911Y-103010962D03*
%TO.P,U1,23,IOL_17A*%
%TO.N,~{BYTE}{slash}WORD*%
X172740465Y-103364516D03*
%TO.P,U1,24,IOL_17B*%
%TO.N,DATA3*%
X173094018Y-103718069D03*
%TO.P,U1,25,IOL_18A*%
%TO.N,~{WRITE}{slash}READ*%
X173447571Y-104071623D03*
%TO.P,U1,26,IOL_18B*%
%TO.N,DATA4*%
X173801125Y-104425176D03*
%TO.P,U1,27,VCC*%
%TO.N,+1V2*%
X174154678Y-104778729D03*
%TO.P,U1,28,IOL_23A*%
%TO.N,DATA7*%
X174508232Y-105132283D03*
%TO.P,U1,29,IOL_23B*%
%TO.N,ADDR2*%
X174861785Y-105485836D03*
%TO.P,U1,30,VCCIO_3*%
%TO.N,+3V3*%
X175215338Y-105839390D03*
%TO.P,U1,31,IOL_24A*%
%TO.N,ADDR0*%
X175568892Y-106192943D03*
%TO.P,U1,32,IOL_24B*%
%TO.N,DATA5*%
X175922445Y-106546496D03*
%TO.P,U1,33,IOL_25A*%
%TO.N,ADDR1*%
X176275999Y-106900050D03*
%TO.P,U1,34,IOL_25B*%
%TO.N,DATA6*%
X176629552Y-107253603D03*
%TO.P,U1,35,NC*%
%TO.N,unconnected-(U1E-NC-Pad35)*%
X176983105Y-107607156D03*
%TO.P,U1,36,NC*%
%TO.N,unconnected-(U1E-NC-Pad36)*%
X177336659Y-107960710D03*
D36*
%TO.P,U1,37,IOB_56*%
%TO.N,ADDR3*%
X180041340Y-107960710D03*
%TO.P,U1,38,IOB_57*%
%TO.N,DATA8*%
X180394894Y-107607156D03*
%TO.P,U1,39,IOB_61*%
%TO.N,ADDR4*%
X180748447Y-107253603D03*
%TO.P,U1,40,VCC*%
%TO.N,+1V2*%
X181102000Y-106900050D03*
%TO.P,U1,41,IOB_63*%
%TO.N,DATA9*%
X181455554Y-106546496D03*
%TO.P,U1,42,IOB_64*%
%TO.N,ADDR5*%
X181809107Y-106192943D03*
%TO.P,U1,43,IOB_71*%
%TO.N,DATA10*%
X182162661Y-105839390D03*
%TO.P,U1,44,IOB_72*%
%TO.N,DATA15*%
X182516214Y-105485836D03*
%TO.P,U1,45,IOB_73*%
%TO.N,DATA11*%
X182869767Y-105132283D03*
%TO.P,U1,46,VCCIO_2*%
%TO.N,+3V3*%
X183223321Y-104778729D03*
%TO.P,U1,47,IOB_79*%
%TO.N,DATA14*%
X183576874Y-104425176D03*
%TO.P,U1,48,IOB_80*%
%TO.N,DATA12*%
X183930428Y-104071623D03*
%TO.P,U1,49,IOB_81_GBIN5*%
%TO.N,DATA13*%
X184283981Y-103718069D03*
%TO.P,U1,50,NC*%
%TO.N,unconnected-(U1E-NC-Pad50)*%
X184637534Y-103364516D03*
%TO.P,U1,51,NC*%
%TO.N,unconnected-(U1E-NC-Pad51)*%
X184991088Y-103010962D03*
%TO.P,U1,52,IOB_82_GBIN4*%
%TO.N,unconnected-(U1C-IOB_82_GBIN4-Pad52)*%
X185344641Y-102657409D03*
%TO.P,U1,53,GNDPLL0*%
%TO.N,/Power & Programming/GNDPLL0*%
X185698194Y-102303856D03*
%TO.P,U1,54,VCCPLL0*%
%TO.N,/Power & Programming/VCCPLL0*%
X186051748Y-101950302D03*
%TO.P,U1,55,IOB_91*%
%TO.N,unconnected-(U1C-IOB_91-Pad55)*%
X186405302Y-101596749D03*
%TO.P,U1,56,IOB_94*%
%TO.N,unconnected-(U1C-IOB_94-Pad56)*%
X186758856Y-101243195D03*
%TO.P,U1,57,VCCIO_2*%
%TO.N,+3V3*%
X187112409Y-100889642D03*
%TO.P,U1,58,NC*%
%TO.N,unconnected-(U1E-NC-Pad58)*%
X187465962Y-100536089D03*
%TO.P,U1,59,GND*%
%TO.N,GND*%
X187819516Y-100182535D03*
%TO.P,U1,60,IOB_95*%
%TO.N,unconnected-(U1C-IOB_95-Pad60)*%
X188173069Y-99828982D03*
%TO.P,U1,61,IOB_96*%
%TO.N,unconnected-(U1C-IOB_96-Pad61)*%
X188526623Y-99475429D03*
%TO.P,U1,62,IOB_102*%
%TO.N,unconnected-(U1C-IOB_102-Pad62)*%
X188880176Y-99121875D03*
%TO.P,U1,63,IOB_103_CBSEL0*%
%TO.N,CBSEL0*%
X189233729Y-98768322D03*
%TO.P,U1,64,IOB_104_CBSEL1*%
%TO.N,CBSEL1*%
X189587283Y-98414768D03*
%TO.P,U1,65,CDONE*%
%TO.N,CDONE*%
X189940836Y-98061215D03*
%TO.P,U1,66,~{CRESET}*%
%TO.N,~{CRESET}*%
X190294390Y-97707662D03*
%TO.P,U1,67,IOB_105_SDO*%
%TO.N,SDI*%
X190647943Y-97354108D03*
%TO.P,U1,68,IOB_106_SDI*%
%TO.N,SDO*%
X191001496Y-97000555D03*
%TO.P,U1,69,GND*%
%TO.N,GND*%
X191355050Y-96647001D03*
%TO.P,U1,70,IOB_107_SCK*%
%TO.N,SCK*%
X191708603Y-96293448D03*
%TO.P,U1,71,IOB_108_SS*%
%TO.N,~{FLASH_SEL}*%
X192062156Y-95939895D03*
%TO.P,U1,72,VCC_SPI*%
%TO.N,+3V3*%
X192415710Y-95586341D03*
D35*
%TO.P,U1,73,IOR_109*%
%TO.N,/LED1*%
X192415710Y-92881660D03*
%TO.P,U1,74,IOR_110*%
%TO.N,/LED3*%
X192062156Y-92528106D03*
%TO.P,U1,75,IOR_111*%
%TO.N,/LED2*%
X191708603Y-92174553D03*
%TO.P,U1,76,IOR_112*%
%TO.N,/LED0*%
X191355050Y-91821000D03*
%TO.P,U1,77,NC*%
%TO.N,unconnected-(U1E-NC-Pad77)*%
X191001496Y-91467446D03*
%TO.P,U1,78,IOR_114*%
%TO.N,FPGA_BLU0*%
X190647943Y-91113893D03*
%TO.P,U1,79,IOR_115*%
%TO.N,FPGA_BLU1*%
X190294390Y-90760339D03*
%TO.P,U1,80,IOR_116*%
%TO.N,FPGA_BLU2*%
X189940836Y-90406786D03*
%TO.P,U1,81,IOR_117*%
%TO.N,FPGA_BLU3*%
X189587283Y-90053233D03*
%TO.P,U1,82,IOR_118*%
%TO.N,FPGA_GRN0*%
X189233729Y-89699679D03*
%TO.P,U1,83,IOR_119*%
%TO.N,FPGA_GRN1*%
X188880176Y-89346126D03*
%TO.P,U1,84,IOR_120*%
%TO.N,FPGA_GRN2*%
X188526623Y-88992572D03*
%TO.P,U1,85,IOR_128*%
%TO.N,FPGA_GRN3*%
X188173069Y-88639019D03*
%TO.P,U1,86,GND*%
%TO.N,GND*%
X187819516Y-88285466D03*
%TO.P,U1,87,IOR_136*%
%TO.N,unconnected-(U1B-IOR_136-Pad87)*%
X187465962Y-87931912D03*
%TO.P,U1,88,IOR_137*%
%TO.N,unconnected-(U1B-IOR_137-Pad88)*%
X187112409Y-87578359D03*
%TO.P,U1,89,VCCIO_1*%
%TO.N,+3V3*%
X186758856Y-87224806D03*
%TO.P,U1,90,IOR_138*%
%TO.N,FPGA_RED0*%
X186405302Y-86871252D03*
%TO.P,U1,91,IOR_139*%
%TO.N,FPGA_RED1*%
X186051749Y-86517698D03*
%TO.P,U1,92,VCC*%
%TO.N,+1V2*%
X185698195Y-86164144D03*
%TO.P,U1,93,IOR_140_GBIN3*%
%TO.N,FPGA_VGA_CLK*%
X185344642Y-85810591D03*
%TO.P,U1,94,IOR_141_GBIN2*%
%TO.N,FPGA_RED2*%
X184991089Y-85457038D03*
%TO.P,U1,95,IOR_144*%
%TO.N,FPGA_RED3*%
X184637535Y-85103484D03*
%TO.P,U1,96,IOR_146*%
%TO.N,unconnected-(U1B-IOR_146-Pad96)*%
X184283982Y-84749931D03*
%TO.P,U1,97,IOR_147*%
%TO.N,unconnected-(U1B-IOR_147-Pad97)*%
X183930429Y-84396377D03*
%TO.P,U1,98,IOR_148*%
%TO.N,unconnected-(U1B-IOR_148-Pad98)*%
X183576875Y-84042824D03*
%TO.P,U1,99,IOR_152*%
%TO.N,unconnected-(U1B-IOR_152-Pad99)*%
X183223322Y-83689271D03*
%TO.P,U1,100,VCCIO_1*%
%TO.N,+3V3*%
X182869768Y-83335717D03*
%TO.P,U1,101,IOR_160*%
%TO.N,unconnected-(U1B-IOR_160-Pad101)*%
X182516215Y-82982164D03*
%TO.P,U1,102,IOR_161*%
%TO.N,unconnected-(U1B-IOR_161-Pad102)*%
X182162662Y-82628610D03*
%TO.P,U1,103,GND*%
%TO.N,GND*%
X181809108Y-82275057D03*
%TO.P,U1,104,IOR_164*%
%TO.N,FPGA_HSYNC*%
X181455555Y-81921504D03*
%TO.P,U1,105,IOR_165*%
%TO.N,FPGA_VSYNC*%
X181102001Y-81567950D03*
%TO.P,U1,106,IOR_166*%
%TO.N,FPGA_AUDIO_R*%
X180748448Y-81214397D03*
%TO.P,U1,107,IOR_167*%
%TO.N,FPGA_AUDIO_L*%
X180394895Y-80860844D03*
%TO.P,U1,108,VPP_2V5*%
%TO.N,+3V3*%
X180041341Y-80507290D03*
D36*
%TO.P,U1,109,VPP_FAST*%
%TO.N,unconnected-(U1E-VPP_FAST-Pad109)*%
X177336660Y-80507290D03*
%TO.P,U1,110,IOT_168*%
%TO.N,SDRAM_DQ0*%
X176983106Y-80860844D03*
%TO.P,U1,111,VCC*%
%TO.N,+1V2*%
X176629553Y-81214397D03*
%TO.P,U1,112,IOT_169*%
%TO.N,SDRAM_DQ1*%
X176276000Y-81567950D03*
%TO.P,U1,113,IOT_170*%
%TO.N,SDRAM_DQ2*%
X175922446Y-81921504D03*
%TO.P,U1,114,IOT_171*%
%TO.N,SDRAM_DQ3*%
X175568893Y-82275057D03*
%TO.P,U1,115,IOT_172*%
%TO.N,SDRAM_DQ4*%
X175215339Y-82628610D03*
%TO.P,U1,116,IOT_173*%
%TO.N,SDRAM_DQ5*%
X174861786Y-82982164D03*
%TO.P,U1,117,IOT_174*%
%TO.N,SDRAM_DQ6*%
X174508233Y-83335717D03*
%TO.P,U1,118,IOT_177*%
%TO.N,SDRAM_DQ7*%
X174154679Y-83689271D03*
%TO.P,U1,119,IOT_178*%
%TO.N,SDRAM_LDQM*%
X173801126Y-84042824D03*
%TO.P,U1,120,IOT_179*%
%TO.N,~{SDRAM_WE}*%
X173447572Y-84396377D03*
%TO.P,U1,121,IOT_181*%
%TO.N,unconnected-(U1A-IOT_181-Pad121)*%
X173094019Y-84749931D03*
%TO.P,U1,122,IOT_190*%
%TO.N,unconnected-(U1A-IOT_190-Pad122)*%
X172740466Y-85103484D03*
%TO.P,U1,123,VCCIO_0*%
%TO.N,+3V3*%
X172386912Y-85457038D03*
%TO.P,U1,124,IOT_191*%
%TO.N,~{SDRAM_CAS}*%
X172033359Y-85810591D03*
%TO.P,U1,125,IOT_192*%
%TO.N,~{SDRAM_RAS}*%
X171679806Y-86164144D03*
%TO.P,U1,126,VCCPLL1*%
%TO.N,/Power & Programming/VCCPLL1*%
X171326252Y-86517698D03*
%TO.P,U1,127,GNDPLL1*%
%TO.N,/Power & Programming/GNDPLL1*%
X170972698Y-86871251D03*
%TO.P,U1,128,IOT_197_GBIN1*%
%TO.N,~{SDRAM_CS}*%
X170619144Y-87224805D03*
%TO.P,U1,129,IOT_198_GBIN0*%
%TO.N,SDRAM_CLK*%
X170265591Y-87578358D03*
%TO.P,U1,130,IOT_206*%
%TO.N,SDRAM_BA0*%
X169912038Y-87931911D03*
%TO.P,U1,131,VCCIO_0*%
%TO.N,+3V3*%
X169558484Y-88285465D03*
%TO.P,U1,132,GND*%
%TO.N,GND*%
X169204931Y-88639018D03*
%TO.P,U1,133,NC*%
%TO.N,unconnected-(U1E-NC-Pad133)*%
X168851377Y-88992571D03*
%TO.P,U1,134,IOT_212*%
%TO.N,SDRAM_BA1*%
X168497824Y-89346125D03*
%TO.P,U1,135,IOT_213*%
%TO.N,SDRAM_A10*%
X168144271Y-89699678D03*
%TO.P,U1,136,IOT_214*%
%TO.N,SDRAM_A0*%
X167790717Y-90053232D03*
%TO.P,U1,137,IOT_215*%
%TO.N,SDRAM_A1*%
X167437164Y-90406785D03*
%TO.P,U1,138,IOT_216*%
%TO.N,SDRAM_A2*%
X167083610Y-90760338D03*
%TO.P,U1,139,IOT_217*%
%TO.N,SDRAM_DQ15*%
X166730057Y-91113892D03*
%TO.P,U1,140,GND*%
%TO.N,GND*%
X166376504Y-91467445D03*
%TO.P,U1,141,IOT_219*%
%TO.N,SDRAM_A3*%
X166022950Y-91820999D03*
%TO.P,U1,142,IOT_220*%
%TO.N,SDRAM_DQ8*%
X165669397Y-92174552D03*
%TO.P,U1,143,IOT_221*%
%TO.N,SDRAM_DQ13*%
X165315844Y-92528105D03*
%TO.P,U1,144,IOT_222*%
%TO.N,SDRAM_DQ14*%
X164962290Y-92881659D03*
%TD*%
D37*
%TO.P,J1,R*%
%TO.N,/Audio/AUDIO_R*%
X154957000Y-68758000D03*
%TO.P,J1,S*%
%TO.N,GND*%
X147557000Y-66758000D03*
D38*
%TO.P,J1,T*%
%TO.N,/Audio/AUDIO_L*%
X147557000Y-76158000D03*
%TD*%
D21*
%TO.P,R4,1*%
%TO.N,/LED2*%
X208280000Y-89027000D03*
%TO.P,R4,2*%
%TO.N,/LED2_R*%
X210280000Y-89027000D03*
%TD*%
D39*
%TO.N,GND*%
X180721000Y-83312000D03*
X141605000Y-78105000D03*
X191163377Y-81632623D03*
X170815000Y-99314000D03*
X204216000Y-94996000D03*
X155448000Y-118999000D03*
X197104000Y-99314000D03*
X136779000Y-96393000D03*
X171196000Y-110490000D03*
X174018377Y-74577377D03*
X156591000Y-109601000D03*
X143002000Y-88138000D03*
X217948000Y-100660000D03*
X192687377Y-104168377D03*
X145288000Y-66802000D03*
X168402000Y-78994000D03*
X170180000Y-89662000D03*
X136779000Y-100838000D03*
X133731000Y-76835000D03*
X184883623Y-112239623D03*
X187452000Y-78740000D03*
X167064098Y-92637319D03*
X183515000Y-75565000D03*
X135575000Y-75631000D03*
X135509000Y-86918800D03*
X155462000Y-97931000D03*
X167386000Y-96012000D03*
X170053000Y-98679000D03*
X162052000Y-101219000D03*
X192687377Y-83918623D03*
X136906000Y-101981000D03*
X141224000Y-120777000D03*
X169799000Y-109093000D03*
X155575000Y-104267000D03*
X163068000Y-84709000D03*
X165100000Y-64643000D03*
X165100000Y-70739000D03*
X190246000Y-95377000D03*
X186690000Y-99060000D03*
X157988000Y-99673500D03*
X136906000Y-106426000D03*
X140462000Y-78486000D03*
X187734377Y-109502377D03*
X186690000Y-89408000D03*
X165100000Y-68707000D03*
%TO.N,+1V2*%
X177701377Y-75974377D03*
X184531000Y-87249000D03*
X141097000Y-84328000D03*
X181356000Y-110871000D03*
X139954000Y-84328000D03*
X191389000Y-108458000D03*
X175260000Y-103632000D03*
X142240000Y-84328000D03*
X143383000Y-84328000D03*
X163703000Y-80899000D03*
%TO.N,+3V3*%
X207518000Y-97536000D03*
X157988000Y-100965000D03*
X225806000Y-111887000D03*
X173609000Y-86614000D03*
X164719000Y-100711000D03*
X217948000Y-103581000D03*
X188976000Y-86995000D03*
X182118000Y-103632000D03*
X202565000Y-103505000D03*
X164465000Y-88265000D03*
X133477000Y-74549000D03*
X215376000Y-89027000D03*
X215376000Y-92710000D03*
X157988000Y-106531500D03*
X174244000Y-109347000D03*
X139954000Y-96139000D03*
X138049000Y-101209500D03*
X137033000Y-108712000D03*
X137033000Y-104394000D03*
X191163377Y-100612377D03*
X139954000Y-72898000D03*
X142240000Y-72898000D03*
X141097000Y-72898000D03*
X179832000Y-77089000D03*
X224409000Y-107061000D03*
X184277000Y-80264000D03*
X200152000Y-120904000D03*
X206656250Y-89027000D03*
X206656250Y-92710000D03*
X137414000Y-118110000D03*
X195707000Y-95631000D03*
X143383000Y-72898000D03*
%TO.N,SCK*%
X200279000Y-100711000D03*
X203962000Y-101473000D03*
%TO.N,~{FLASH_SEL}*%
X199517000Y-103124000D03*
X198882000Y-99822000D03*
%TO.N,~{FLASH_RESET}*%
X219456000Y-107061000D03*
X209550000Y-102743000D03*
%TO.N,SDI*%
X209423000Y-100203000D03*
%TO.N,SDRAM_CLK*%
X159639000Y-94615000D03*
X171323000Y-88646000D03*
%TD*%
D40*
%TO.N,GND*%
X170053000Y-98980912D02*
X170053000Y-98679000D01*
X169204931Y-88639018D02*
X170180000Y-89614087D01*
D41*
X141202500Y-120798500D02*
X141224000Y-120777000D01*
X190090623Y-82705377D02*
X191163377Y-81632623D01*
X140026500Y-106731000D02*
X139827000Y-106531500D01*
X186436000Y-79756000D02*
X187452000Y-78740000D01*
X186690000Y-108458000D02*
X187734377Y-109502377D01*
X141605000Y-78105000D02*
X141605000Y-76729500D01*
X169037000Y-78994000D02*
X168402000Y-78994000D01*
X147513000Y-66802000D02*
X147557000Y-66758000D01*
X153959000Y-118731000D02*
X155180000Y-118731000D01*
X198061665Y-72019331D02*
X202641665Y-72019331D01*
X139827000Y-106531500D02*
X137011500Y-106531500D01*
X131169500Y-95286500D02*
X130937000Y-95519000D01*
X132318000Y-76835000D02*
X133731000Y-76835000D01*
X191741623Y-84864377D02*
X192687377Y-83918623D01*
D40*
X187812534Y-88285466D02*
X186690000Y-89408000D01*
X187819516Y-100182535D02*
X187812535Y-100182535D01*
D41*
X215662000Y-101146500D02*
X217461500Y-101146500D01*
X153959000Y-104331000D02*
X155511000Y-104331000D01*
X137011500Y-106531500D02*
X136906000Y-106426000D01*
X183867623Y-111223623D02*
X184883623Y-112239623D01*
D40*
X187812535Y-100182535D02*
X186690000Y-99060000D01*
D41*
X182499000Y-76581000D02*
X183515000Y-75565000D01*
X215335500Y-101473000D02*
X215662000Y-101146500D01*
D40*
X169204931Y-99828981D02*
X170053000Y-98980912D01*
D41*
X175062754Y-75621754D02*
X174018377Y-74577377D01*
X142459000Y-106731000D02*
X140026500Y-106731000D01*
X137900500Y-99695000D02*
X137900500Y-99716500D01*
X137900500Y-97663000D02*
X137900500Y-97514500D01*
D40*
X170180000Y-89614087D02*
X170180000Y-89662000D01*
D41*
X208366665Y-73999331D02*
X208366665Y-73164331D01*
X135575000Y-75631000D02*
X137044000Y-75631000D01*
D40*
X181809108Y-82275057D02*
X180772165Y-83312000D01*
X180772165Y-83312000D02*
X180721000Y-83312000D01*
D41*
X156315500Y-108331000D02*
X156591000Y-108606500D01*
X196059623Y-98269623D02*
X197104000Y-99314000D01*
X166624000Y-68707000D02*
X165100000Y-68707000D01*
D40*
X167064098Y-92155039D02*
X166376504Y-91467445D01*
D41*
X155462000Y-97931000D02*
X153959000Y-97931000D01*
X172212000Y-109474000D02*
X171196000Y-110490000D01*
X212660000Y-101473000D02*
X215335500Y-101473000D01*
X137900500Y-99716500D02*
X136779000Y-100838000D01*
D40*
X167064098Y-92637319D02*
X167064098Y-92155039D01*
D41*
X169700377Y-79657377D02*
X169037000Y-78994000D01*
X153959000Y-108331000D02*
X156315500Y-108331000D01*
X204246000Y-94966000D02*
X204216000Y-94996000D01*
D40*
X170427018Y-99314000D02*
X170815000Y-99314000D01*
D41*
X140004000Y-101931000D02*
X139827000Y-102108000D01*
X163560000Y-64643000D02*
X165100000Y-64643000D01*
X156591000Y-109601000D02*
X156591000Y-108606500D01*
D40*
X169558484Y-100182534D02*
X170427018Y-99314000D01*
D41*
X140462000Y-78486000D02*
X139213500Y-78486000D01*
X139827000Y-120798500D02*
X141202500Y-120798500D01*
X145288000Y-66802000D02*
X147513000Y-66802000D01*
X163560000Y-68707000D02*
X165100000Y-68707000D01*
X142459000Y-101931000D02*
X140004000Y-101931000D01*
X191643000Y-103124000D02*
X192687377Y-104168377D01*
D40*
X167365058Y-96012000D02*
X167386000Y-96012000D01*
D41*
X205818000Y-94966000D02*
X204246000Y-94966000D01*
X163597500Y-70739000D02*
X165100000Y-70739000D01*
D40*
X190246000Y-95537951D02*
X190246000Y-95377000D01*
D41*
X170815000Y-108077000D02*
X169799000Y-109093000D01*
D40*
X191355050Y-96647001D02*
X190246000Y-95537951D01*
D41*
X165100000Y-64643000D02*
X165100000Y-68707000D01*
X133858000Y-95286500D02*
X131169500Y-95286500D01*
X166624000Y-64643000D02*
X165100000Y-64643000D01*
X164112377Y-85753377D02*
X163068000Y-84709000D01*
X208366665Y-73164331D02*
X207221665Y-72019331D01*
X137900500Y-97514500D02*
X136779000Y-96393000D01*
D40*
X166376504Y-97000554D02*
X167365058Y-96012000D01*
D41*
X153959000Y-99531000D02*
X156448500Y-99531000D01*
X135509000Y-86918800D02*
X135519200Y-86929000D01*
X157988000Y-99673500D02*
X156591000Y-99673500D01*
X137033000Y-102108000D02*
X136906000Y-101981000D01*
D40*
X187819516Y-88285466D02*
X187812534Y-88285466D01*
D41*
X166586500Y-70739000D02*
X165100000Y-70739000D01*
X217461500Y-101146500D02*
X217948000Y-100660000D01*
X139827000Y-102108000D02*
X137033000Y-102108000D01*
X156448500Y-99531000D02*
X156591000Y-99673500D01*
X135519200Y-86929000D02*
X137033000Y-86929000D01*
X141605000Y-88138000D02*
X143002000Y-88138000D01*
X155511000Y-104331000D02*
X155575000Y-104267000D01*
X165100000Y-68707000D02*
X165100000Y-70739000D01*
X162842377Y-100428623D02*
X162052000Y-101219000D01*
X155180000Y-118731000D02*
X155448000Y-118999000D01*
D42*
%TO.N,+1V2*%
X176629553Y-81214397D02*
X177175561Y-81760405D01*
D40*
X174154678Y-104778729D02*
X172323653Y-106609754D01*
X184613339Y-87249000D02*
X184531000Y-87249000D01*
D41*
X176586754Y-77089000D02*
X177701377Y-75974377D01*
X164773893Y-81969893D02*
X163703000Y-80899000D01*
D42*
X190300893Y-107387107D02*
X190318107Y-107387107D01*
D40*
X181981600Y-109337600D02*
X182400377Y-109756377D01*
X185698195Y-86164144D02*
X184613339Y-87249000D01*
D42*
X178081595Y-81760405D02*
X178689000Y-81153000D01*
D41*
X139308000Y-85979000D02*
X141521000Y-85979000D01*
D42*
X172282246Y-106609754D02*
X172268754Y-106609754D01*
D40*
X185698195Y-86164144D02*
X185730723Y-86164144D01*
X182400377Y-109756377D02*
X182400377Y-109826623D01*
X181981600Y-107779650D02*
X181981600Y-109337600D01*
D42*
X178689000Y-79248000D02*
X176530000Y-77089000D01*
D40*
X187722244Y-84172623D02*
X188623377Y-84172623D01*
X174154678Y-104778729D02*
X175260000Y-103673407D01*
D41*
X141521000Y-85979000D02*
X141605000Y-86063000D01*
D40*
X172323653Y-106609754D02*
X172282246Y-106609754D01*
D41*
X190318107Y-107387107D02*
X191389000Y-108458000D01*
D42*
X177175561Y-81760405D02*
X178081595Y-81760405D01*
D40*
X175260000Y-103673407D02*
X175260000Y-103632000D01*
D42*
X178689000Y-81153000D02*
X178689000Y-79248000D01*
D41*
X182400377Y-109826623D02*
X181356000Y-110871000D01*
D40*
X185730723Y-86164144D02*
X187722244Y-84172623D01*
X181102000Y-106900050D02*
X181981600Y-107779650D01*
D41*
%TO.N,+3V3*%
X215183500Y-102743000D02*
X215662000Y-103221500D01*
D40*
X180112972Y-80435659D02*
X181031754Y-79516877D01*
D41*
X140243500Y-97931000D02*
X139975500Y-97663000D01*
X201692000Y-122174000D02*
X201692000Y-120904000D01*
X190175754Y-101600000D02*
X191163377Y-100612377D01*
D40*
X175215338Y-105839390D02*
X173679246Y-107375482D01*
X173543874Y-86614000D02*
X173609000Y-86614000D01*
D41*
X139975500Y-96160500D02*
X139954000Y-96139000D01*
D40*
X181031754Y-79516877D02*
X181031754Y-78048246D01*
D41*
X215662000Y-103221500D02*
X217588500Y-103221500D01*
D40*
X187112409Y-100889642D02*
X187879521Y-101656754D01*
X165862000Y-87503000D02*
X165579623Y-87220623D01*
D41*
X212660000Y-104013000D02*
X212660000Y-102743000D01*
D40*
X172386912Y-85457038D02*
X171421623Y-84491749D01*
X187879521Y-101656754D02*
X190175754Y-101656754D01*
D41*
X156408500Y-101931000D02*
X156591000Y-101748500D01*
X224393000Y-111887000D02*
X225806000Y-111887000D01*
X214027500Y-92710000D02*
X215376000Y-92710000D01*
D42*
X164662246Y-99370754D02*
X164648754Y-99370754D01*
D41*
X139827000Y-104183000D02*
X137244000Y-104183000D01*
D40*
X182869768Y-83322232D02*
X184968754Y-81223246D01*
D41*
X174244000Y-108585000D02*
X174244000Y-109347000D01*
X205307750Y-92710000D02*
X206656250Y-92710000D01*
X157988000Y-106531500D02*
X156591000Y-106531500D01*
X202581000Y-103489000D02*
X202565000Y-103505000D01*
D42*
X180041341Y-80507290D02*
X180041341Y-80435659D01*
D41*
X140139500Y-99531000D02*
X139975500Y-99695000D01*
X201692000Y-119650000D02*
X201708000Y-119634000D01*
D42*
X182869768Y-83335717D02*
X182869768Y-83322232D01*
D40*
X190274377Y-86331623D02*
X190344623Y-86331623D01*
D41*
X165509377Y-87220623D02*
X164465000Y-88265000D01*
X157204500Y-101748500D02*
X156591000Y-101748500D01*
D40*
X171421623Y-84491749D02*
X171421623Y-81251623D01*
D41*
X139827000Y-118723500D02*
X138027500Y-118723500D01*
X205359000Y-103489000D02*
X202581000Y-103489000D01*
X184277000Y-80264000D02*
X184277000Y-80391000D01*
D40*
X183223321Y-104778729D02*
X182118000Y-103673408D01*
D41*
X137138500Y-108606500D02*
X137033000Y-108712000D01*
X210755000Y-105918000D02*
X212660000Y-104013000D01*
X142459000Y-104331000D02*
X139975000Y-104331000D01*
X139975500Y-97663000D02*
X139975500Y-96160500D01*
X156391500Y-106731000D02*
X156591000Y-106531500D01*
X138027500Y-118723500D02*
X137414000Y-118110000D01*
X194592377Y-96745623D02*
X195707000Y-95631000D01*
D40*
X187652039Y-86331623D02*
X190274377Y-86331623D01*
D42*
X169558484Y-88285465D02*
X169558484Y-88278484D01*
D41*
X164309623Y-98961377D02*
X164309623Y-100301623D01*
X214027500Y-89027000D02*
X215376000Y-89027000D01*
X153959000Y-101931000D02*
X156408500Y-101931000D01*
D40*
X182118000Y-103673408D02*
X182118000Y-103632000D01*
D41*
X141578500Y-74681000D02*
X141605000Y-74654500D01*
X142459000Y-99531000D02*
X140139500Y-99531000D01*
D40*
X168776019Y-87503000D02*
X168148000Y-87503000D01*
D41*
X139827000Y-108606500D02*
X137138500Y-108606500D01*
D40*
X168148000Y-87503000D02*
X165862000Y-87503000D01*
D41*
X142459000Y-118731000D02*
X139834500Y-118731000D01*
X224393000Y-108585000D02*
X224393000Y-107077000D01*
D40*
X166730057Y-97354107D02*
X165122787Y-98961377D01*
D42*
X192415710Y-95586341D02*
X192487341Y-95586341D01*
D40*
X186758856Y-87224806D02*
X187652039Y-86331623D01*
X192487341Y-95657972D02*
X193631746Y-96802377D01*
D41*
X180791246Y-78048246D02*
X181031754Y-78048246D01*
X142459000Y-97931000D02*
X140243500Y-97931000D01*
X212660000Y-102743000D02*
X215183500Y-102743000D01*
X205307750Y-89027000D02*
X206656250Y-89027000D01*
D40*
X169558484Y-88285465D02*
X168776019Y-87503000D01*
D41*
X209329000Y-105918000D02*
X210755000Y-105918000D01*
X224393000Y-107077000D02*
X224409000Y-107061000D01*
X207518000Y-94966000D02*
X207518000Y-96266000D01*
D40*
X183223321Y-104778729D02*
X185222754Y-106778162D01*
D41*
X138461000Y-101209500D02*
X138049000Y-101209500D01*
D40*
X185222754Y-106778162D02*
X185222754Y-106990754D01*
X165122787Y-98961377D02*
X164309623Y-98961377D01*
D41*
X133431500Y-74594500D02*
X133477000Y-74549000D01*
X190344623Y-86331623D02*
X189681246Y-86995000D01*
X132225500Y-74594500D02*
X133431500Y-74594500D01*
X153959000Y-106731000D02*
X156391500Y-106731000D01*
X139834500Y-118731000D02*
X139827000Y-118723500D01*
D42*
X173679246Y-108006754D02*
X173679246Y-108020246D01*
D41*
X139975000Y-104331000D02*
X139827000Y-104183000D01*
X157988000Y-100965000D02*
X157204500Y-101748500D01*
D42*
X184968754Y-81223246D02*
X184474246Y-81223246D01*
D40*
X194592377Y-96802377D02*
X194592377Y-96745623D01*
X172386912Y-85457038D02*
X173543874Y-86614000D01*
D41*
X142459000Y-108331000D02*
X140102500Y-108331000D01*
X201692000Y-120904000D02*
X201422000Y-120904000D01*
X184277000Y-80391000D02*
X184968754Y-81082754D01*
X173679246Y-108020246D02*
X174244000Y-108585000D01*
X207518000Y-96266000D02*
X207518000Y-97536000D01*
X201422000Y-120904000D02*
X200152000Y-120904000D01*
X179832000Y-77089000D02*
X180791246Y-78048246D01*
X201692000Y-120904000D02*
X201692000Y-119650000D01*
D42*
X173679246Y-107375482D02*
X173679246Y-108006754D01*
D40*
X193631746Y-96802377D02*
X194592377Y-96802377D01*
D42*
X184968754Y-81223246D02*
X184968754Y-81082754D01*
D41*
X140102500Y-108331000D02*
X139827000Y-108606500D01*
X164309623Y-100301623D02*
X164719000Y-100711000D01*
X217588500Y-103221500D02*
X217948000Y-103581000D01*
X139319000Y-74681000D02*
X141578500Y-74681000D01*
X189681246Y-86995000D02*
X188976000Y-86995000D01*
X137244000Y-104183000D02*
X137033000Y-104394000D01*
X139975500Y-99695000D02*
X138461000Y-101209500D01*
%TO.N,/Power & Programming/EN3V3*%
X137176000Y-80772000D02*
X137176000Y-78523500D01*
X137176000Y-78523500D02*
X137138500Y-78486000D01*
X137138500Y-78486000D02*
X137138500Y-76675500D01*
X137138500Y-76675500D02*
X137044000Y-76581000D01*
D40*
%TO.N,/Power & Programming/GNDPLL1*%
X169036070Y-84934623D02*
X167668377Y-84934623D01*
D41*
X166149594Y-83465705D02*
X167618512Y-84934623D01*
D40*
X170972698Y-86871251D02*
X169036070Y-84934623D01*
%TO.N,/Power & Programming/VCCPLL1*%
X169135623Y-84327069D02*
X169135623Y-83467377D01*
X171326252Y-86517698D02*
X169135623Y-84327069D01*
D41*
X167616840Y-81998459D02*
X169085758Y-83467377D01*
X167613673Y-81998459D02*
X166188107Y-80572893D01*
D42*
%TO.N,/Power & Programming/VCCPLL0*%
X190344623Y-104549377D02*
X190344623Y-104602409D01*
D40*
X186051748Y-101950302D02*
X187243123Y-103141677D01*
X187243123Y-103141677D02*
X188887058Y-103141677D01*
D41*
X188887058Y-103141677D02*
X190294758Y-104549377D01*
X190344623Y-104602409D02*
X191715107Y-105972893D01*
D42*
X190294758Y-104549377D02*
X190344623Y-104549377D01*
%TO.N,/Power & Programming/GNDPLL0*%
X187419812Y-104025474D02*
X187419812Y-104608923D01*
D41*
X187419812Y-104608923D02*
X188827512Y-106016623D01*
D40*
X185698194Y-102303856D02*
X187419812Y-104025474D01*
D42*
X188827512Y-106016623D02*
X188877377Y-106016623D01*
D43*
%TO.N,/Audio/AUDIO_R*%
X166586500Y-66675000D02*
X166592000Y-66675000D01*
X160850000Y-62865000D02*
X154957000Y-68758000D01*
X166846000Y-62865000D02*
X160850000Y-62865000D01*
X166592000Y-66675000D02*
X168624000Y-64643000D01*
X168624000Y-64643000D02*
X166846000Y-62865000D01*
%TO.N,/Audio/AUDIO_R_MID*%
X168624000Y-72771000D02*
X168624000Y-66712500D01*
X168624000Y-66712500D02*
X168661500Y-66675000D01*
%TO.N,/Audio/AUDIO_L_MID*%
X161560000Y-66734000D02*
X161501000Y-66675000D01*
X161560000Y-72771000D02*
X161560000Y-66734000D01*
%TO.N,/Audio/AUDIO_L*%
X163576000Y-66675000D02*
X163576000Y-66659000D01*
X158496000Y-72263000D02*
X154559000Y-76200000D01*
X154559000Y-76200000D02*
X154517000Y-76158000D01*
X161560000Y-64643000D02*
X158496000Y-67707000D01*
X163576000Y-66659000D02*
X161560000Y-64643000D01*
X154517000Y-76158000D02*
X147557000Y-76158000D01*
X158496000Y-67707000D02*
X158496000Y-72263000D01*
%TO.N,/LED0_R*%
X201560250Y-89027000D02*
X203432750Y-89027000D01*
%TO.N,/LED1_R*%
X201560250Y-92710000D02*
X203432750Y-92710000D01*
%TO.N,/LED2_R*%
X210280000Y-89027000D02*
X212152500Y-89027000D01*
%TO.N,/LED3_R*%
X210272000Y-92710000D02*
X212152500Y-92710000D01*
%TO.N,/Power & Programming/LED_PWR*%
X130350500Y-76802500D02*
X130318000Y-76835000D01*
X130350500Y-74594500D02*
X130350500Y-76802500D01*
%TO.N,/Video/VGA_GRN*%
X201496665Y-76984000D02*
X201496665Y-73999331D01*
X208855665Y-78391000D02*
X202775665Y-78391000D01*
X202775665Y-78391000D02*
X202759665Y-78375000D01*
X202759665Y-78375000D02*
X202759665Y-78247000D01*
X202759665Y-78247000D02*
X201496665Y-76984000D01*
%TO.N,/Video/VGA_BLU*%
X217491665Y-78391000D02*
X211395665Y-78391000D01*
X209204665Y-76200000D02*
X205987334Y-76200000D01*
X205987334Y-76200000D02*
X203786665Y-73999331D01*
X211395665Y-78391000D02*
X209204665Y-76200000D01*
%TO.N,/Video/VGA_VSYNC*%
X198521334Y-62484000D02*
X206076665Y-70039331D01*
X184166334Y-64548000D02*
X184166334Y-63500000D01*
X184166334Y-63500000D02*
X185182334Y-62484000D01*
X185182334Y-62484000D02*
X198521334Y-62484000D01*
%TO.N,/Video/VGA_HSYNC*%
X203786665Y-70039331D02*
X198295334Y-64548000D01*
X198295334Y-64548000D02*
X186198334Y-64548000D01*
%TO.N,/Video/VGA_RED*%
X200219665Y-75012331D02*
X199206665Y-73999331D01*
X194123665Y-78391000D02*
X200203665Y-78391000D01*
X200219665Y-78375000D02*
X200219665Y-75012331D01*
X200203665Y-78391000D02*
X200219665Y-78375000D01*
%TO.N,~{CRESET}*%
X222393000Y-102107000D02*
X226441000Y-98059000D01*
D42*
X202289524Y-108585000D02*
X222393000Y-108585000D01*
X190294390Y-97707662D02*
X190939690Y-98352962D01*
X190939690Y-98352962D02*
X192057486Y-98352962D01*
X192057486Y-98352962D02*
X202289524Y-108585000D01*
D43*
X222393000Y-108585000D02*
X222393000Y-102107000D01*
%TO.N,CDONE*%
X224044000Y-110236000D02*
X225679000Y-110236000D01*
X225933000Y-109982000D02*
X225933000Y-107188000D01*
X224663000Y-105918000D02*
X224663000Y-102377000D01*
D42*
X190635783Y-98756162D02*
X191890476Y-98756162D01*
D43*
X224663000Y-102377000D02*
X226441000Y-100599000D01*
X225933000Y-107188000D02*
X224663000Y-105918000D01*
X225679000Y-110236000D02*
X225933000Y-109982000D01*
D42*
X205021314Y-111887000D02*
X222393000Y-111887000D01*
X189940836Y-98061215D02*
X190635783Y-98756162D01*
X191890476Y-98756162D02*
X205021314Y-111887000D01*
D43*
X222393000Y-111887000D02*
X224044000Y-110236000D01*
D42*
%TO.N,SCK*%
X196126155Y-100711000D02*
X200279000Y-100711000D01*
D43*
X203962000Y-101473000D02*
X207710000Y-101473000D01*
D42*
X191708603Y-96293448D02*
X194729155Y-99314000D01*
D43*
X210931100Y-100853900D02*
X213852100Y-100853900D01*
X210312000Y-101473000D02*
X210931100Y-100853900D01*
X224267000Y-90439000D02*
X226441000Y-90439000D01*
X207710000Y-101473000D02*
X210312000Y-101473000D01*
X213852100Y-100853900D02*
X224267000Y-90439000D01*
D42*
X194729155Y-99314000D02*
X196126155Y-100711000D01*
D43*
%TO.N,SDO*%
X212660000Y-100203000D02*
X224964000Y-87899000D01*
D42*
X210693000Y-100203000D02*
X212660000Y-100203000D01*
X196317945Y-101473000D02*
X201295000Y-101473000D01*
D43*
X224964000Y-87899000D02*
X226441000Y-87899000D01*
D42*
X201295000Y-101473000D02*
X203581000Y-99187000D01*
X203581000Y-99187000D02*
X209677000Y-99187000D01*
X192150999Y-97536000D02*
X192380945Y-97536000D01*
X192380945Y-97536000D02*
X196317945Y-101473000D01*
X191547503Y-97546562D02*
X192140437Y-97546562D01*
X191001496Y-97000555D02*
X191547503Y-97546562D01*
X192140437Y-97546562D02*
X192150999Y-97536000D01*
X209677000Y-99187000D02*
X210693000Y-100203000D01*
D43*
%TO.N,~{FLASH_SEL}*%
X207329000Y-105918000D02*
X207329000Y-104775000D01*
D42*
X198707400Y-99996600D02*
X198882000Y-99822000D01*
D43*
X220218000Y-99202000D02*
X226441000Y-92979000D01*
D42*
X196135600Y-99996600D02*
X198707400Y-99996600D01*
D43*
X207329000Y-104394000D02*
X207710000Y-104013000D01*
D42*
X201168000Y-104775000D02*
X207329000Y-104775000D01*
X199517000Y-103124000D02*
X201168000Y-104775000D01*
D43*
X207329000Y-106110000D02*
X208534000Y-107315000D01*
D42*
X192078895Y-95939895D02*
X195326000Y-99187000D01*
D43*
X207329000Y-105918000D02*
X207329000Y-106110000D01*
X208534000Y-107315000D02*
X217170000Y-107315000D01*
X217170000Y-107315000D02*
X220218000Y-104267000D01*
D42*
X192062156Y-95939895D02*
X192078895Y-95939895D01*
D43*
X207329000Y-104775000D02*
X207329000Y-104394000D01*
X220218000Y-104267000D02*
X220218000Y-99202000D01*
D42*
X195326000Y-99187000D02*
X196135600Y-99996600D01*
D43*
%TO.N,~{FLASH_RESET}*%
X207710000Y-102743000D02*
X209550000Y-102743000D01*
X221234000Y-105283000D02*
X221234000Y-100726000D01*
X221234000Y-100726000D02*
X226441000Y-95519000D01*
X219456000Y-107061000D02*
X221234000Y-105283000D01*
D42*
%TO.N,SDI*%
X192224497Y-97949762D02*
X196509734Y-102235000D01*
X203962000Y-100203000D02*
X207710000Y-100203000D01*
D43*
X207710000Y-100203000D02*
X209423000Y-100203000D01*
D42*
X191243597Y-97949762D02*
X192224497Y-97949762D01*
X196509734Y-102235000D02*
X201930000Y-102235000D01*
X201930000Y-102235000D02*
X203962000Y-100203000D01*
X190647943Y-97354108D02*
X191243597Y-97949762D01*
%TO.N,DATA14*%
X183576874Y-104425176D02*
X184352098Y-105200400D01*
X184352098Y-105200400D02*
X185466980Y-105200400D01*
X185466980Y-105200400D02*
X193929000Y-113662420D01*
X193929000Y-113662420D02*
X193929000Y-122174000D01*
%TO.N,DATA13*%
X184959912Y-104394000D02*
X185801000Y-104394000D01*
X196469000Y-115062000D02*
X196469000Y-122174000D01*
X184283981Y-103718069D02*
X184959912Y-104394000D01*
X185801000Y-104394000D02*
X196469000Y-115062000D01*
%TO.N,DATA10*%
X190119000Y-114678420D02*
X190119000Y-123444000D01*
X183216600Y-106889600D02*
X183216600Y-107776020D01*
X182162661Y-105839390D02*
X182166390Y-105839390D01*
X190119000Y-123444000D02*
X191389000Y-124714000D01*
X182166390Y-105839390D02*
X183216600Y-106889600D01*
X183216600Y-107776020D02*
X190119000Y-114678420D01*
%TO.N,DATA6*%
X178236220Y-108529780D02*
X177419000Y-109347000D01*
X177419000Y-109347000D02*
X177419000Y-123444000D01*
X177175560Y-106707595D02*
X177573595Y-106707595D01*
X178236220Y-107370220D02*
X178236220Y-108529780D01*
X177419000Y-123444000D02*
X178689000Y-124714000D01*
X176629552Y-107253603D02*
X177175560Y-106707595D01*
X177573595Y-106707595D02*
X178236220Y-107370220D01*
%TO.N,ADDR2*%
X178639420Y-109142580D02*
X177927000Y-109855000D01*
X177927000Y-109855000D02*
X177927000Y-121412000D01*
X174861785Y-105485836D02*
X175407792Y-104939829D01*
X176376039Y-104939829D02*
X178639420Y-107203209D01*
X177927000Y-121412000D02*
X178689000Y-122174000D01*
X178639420Y-107203209D02*
X178639420Y-109142580D01*
X175407792Y-104939829D02*
X176376039Y-104939829D01*
%TO.N,DATA7*%
X179070000Y-107063580D02*
X179070000Y-109474000D01*
X179959000Y-123444000D02*
X181229000Y-124714000D01*
X175103886Y-104536629D02*
X176543049Y-104536629D01*
X176543049Y-104536629D02*
X179070000Y-107063580D01*
X179070000Y-109474000D02*
X178435000Y-110109000D01*
X178435000Y-117856000D02*
X179959000Y-119380000D01*
X178435000Y-110109000D02*
X178435000Y-117856000D01*
X179959000Y-119380000D02*
X179959000Y-123444000D01*
X174508232Y-105132283D02*
X175103886Y-104536629D01*
%TO.N,DATA2*%
X166243000Y-119126000D02*
X164719000Y-120650000D01*
X164719000Y-123444000D02*
X165989000Y-124714000D01*
X172386911Y-103010962D02*
X171775273Y-103622600D01*
X171775273Y-103622600D02*
X171464560Y-103622600D01*
X166243000Y-108844160D02*
X166243000Y-119126000D01*
X164719000Y-120650000D02*
X164719000Y-123444000D01*
X171464560Y-103622600D02*
X166243000Y-108844160D01*
%TO.N,CLK*%
X168783000Y-105163740D02*
X164973000Y-108973740D01*
X164973000Y-118110000D02*
X160909000Y-122174000D01*
X171679805Y-102303856D02*
X171635144Y-102303856D01*
X168783000Y-105156000D02*
X168783000Y-105163740D01*
X171635144Y-102303856D02*
X168783000Y-105156000D01*
X164973000Y-108973740D02*
X164973000Y-118110000D01*
%TO.N,ADDR3*%
X180594000Y-108968580D02*
X180591420Y-108968580D01*
X180213000Y-109347000D02*
X180213000Y-109349580D01*
X180591420Y-108968580D02*
X180213000Y-109347000D01*
X179070000Y-116840000D02*
X181229000Y-118999000D01*
X179070000Y-110492580D02*
X179070000Y-116840000D01*
X181229000Y-118999000D02*
X181229000Y-122174000D01*
X180213000Y-109349580D02*
X179070000Y-110492580D01*
X180594000Y-108458000D02*
X180594000Y-108968580D01*
X180041340Y-107960710D02*
X180096710Y-107960710D01*
X180096710Y-107960710D02*
X180594000Y-108458000D01*
%TO.N,DATA8*%
X179959000Y-110173790D02*
X179959000Y-115570000D01*
X185039000Y-123444000D02*
X186309000Y-124714000D01*
X181149800Y-108982990D02*
X179959000Y-110173790D01*
X185039000Y-120650000D02*
X185039000Y-123444000D01*
X179959000Y-115570000D02*
X185039000Y-120650000D01*
X180394894Y-107607156D02*
X181149800Y-108362062D01*
X181149800Y-108362062D02*
X181149800Y-108982990D01*
%TO.N,ADDR5*%
X181809107Y-106192943D02*
X182813400Y-107197236D01*
X182813400Y-107943031D02*
X188849000Y-113978631D01*
X182813400Y-107197236D02*
X182813400Y-107943031D01*
X188849000Y-113978631D02*
X188849000Y-122174000D01*
%TO.N,ADDR4*%
X180748447Y-107253603D02*
X181553000Y-108058156D01*
X181553000Y-109150000D02*
X180594000Y-110109000D01*
X180594000Y-110109000D02*
X180594000Y-112776000D01*
X180594000Y-112776000D02*
X186309000Y-118491000D01*
X186309000Y-118491000D02*
X186309000Y-122174000D01*
X181553000Y-108058156D02*
X181553000Y-109150000D01*
%TO.N,~{WRITE}{slash}READ*%
X171965590Y-104832200D02*
X168529000Y-108268789D01*
X168529000Y-108268789D02*
X168529000Y-122174000D01*
X173447571Y-104071623D02*
X172686994Y-104832200D01*
X172686994Y-104832200D02*
X171965590Y-104832200D01*
%TO.N,ADDR0*%
X175568892Y-106192943D02*
X174879000Y-106882835D01*
X175260000Y-112776000D02*
X173609000Y-114427000D01*
X175260000Y-108635657D02*
X175260000Y-112776000D01*
X174879000Y-106882835D02*
X174879000Y-108254657D01*
X174879000Y-108254657D02*
X175260000Y-108635657D01*
X173609000Y-114427000D02*
X173609000Y-122174000D01*
%TO.N,DATA4*%
X169037000Y-108331000D02*
X169037000Y-109982000D01*
X172339000Y-123444000D02*
X173609000Y-124714000D01*
X169037000Y-109982000D02*
X172339000Y-113284000D01*
X173801125Y-104425176D02*
X172990901Y-105235400D01*
X172339000Y-113284000D02*
X172339000Y-123444000D01*
X172990901Y-105235400D02*
X172132600Y-105235400D01*
X172132600Y-105235400D02*
X169037000Y-108331000D01*
%TO.N,DATA3*%
X173094018Y-103718069D02*
X172383087Y-104429000D01*
X167259000Y-123444000D02*
X168529000Y-124714000D01*
X167767000Y-108460580D02*
X167767000Y-119507000D01*
X167767000Y-119507000D02*
X167259000Y-120015000D01*
X172383087Y-104429000D02*
X171798580Y-104429000D01*
X167259000Y-120015000D02*
X167259000Y-123444000D01*
X171798580Y-104429000D02*
X167767000Y-108460580D01*
%TO.N,DATA0*%
X163703000Y-108839000D02*
X163703000Y-116459000D01*
X159004000Y-123317000D02*
X160401000Y-124714000D01*
X159004000Y-121158000D02*
X159004000Y-123317000D01*
X163703000Y-116459000D02*
X159004000Y-121158000D01*
X170972698Y-101596748D02*
X170945252Y-101596748D01*
X160401000Y-124714000D02*
X160909000Y-124714000D01*
X170945252Y-101596748D02*
X163703000Y-108839000D01*
%TO.N,DATA5*%
X174879000Y-123444000D02*
X176149000Y-124714000D01*
X174879000Y-119126000D02*
X174879000Y-123444000D01*
X175922445Y-106546496D02*
X175282200Y-107186741D01*
X175282200Y-107186741D02*
X175282200Y-108087647D01*
X175663200Y-108468646D02*
X175663200Y-118341800D01*
X175663200Y-118341800D02*
X174879000Y-119126000D01*
X175282200Y-108087647D02*
X175663200Y-108468646D01*
%TO.N,~{ENABLE}*%
X165608000Y-118650395D02*
X163449000Y-120809395D01*
X172033358Y-102667642D02*
X171481600Y-103219400D01*
X171481600Y-103219400D02*
X171297550Y-103219400D01*
X163449000Y-120809395D02*
X163449000Y-122174000D01*
X171297550Y-103219400D02*
X165608000Y-108908950D01*
X172033358Y-102657409D02*
X172033358Y-102667642D01*
X165608000Y-108908950D02*
X165608000Y-118650395D01*
%TO.N,DATA9*%
X187579000Y-113278841D02*
X187579000Y-123444000D01*
X181455554Y-106546496D02*
X181476496Y-106546496D01*
X182410200Y-107480200D02*
X182410200Y-108110041D01*
X187579000Y-123444000D02*
X188849000Y-124714000D01*
X181476496Y-106546496D02*
X182410200Y-107480200D01*
X182410200Y-108110041D02*
X187579000Y-113278841D01*
%TO.N,~{BYTE}{slash}WORD*%
X167005000Y-119698789D02*
X165989000Y-120714789D01*
X167005000Y-108652370D02*
X167005000Y-119698789D01*
X165989000Y-120714789D02*
X165989000Y-122174000D01*
X172740465Y-103364516D02*
X172079181Y-104025800D01*
X172079181Y-104025800D02*
X171631570Y-104025800D01*
X171631570Y-104025800D02*
X167005000Y-108652370D01*
%TO.N,DATA12*%
X185633990Y-104797200D02*
X195199000Y-114362210D01*
X195199000Y-123444000D02*
X196469000Y-124714000D01*
X195199000Y-114362210D02*
X195199000Y-123444000D01*
X183930428Y-104071623D02*
X184656005Y-104797200D01*
X184656005Y-104797200D02*
X185633990Y-104797200D01*
%TO.N,ADDR1*%
X175729991Y-107965228D02*
X176149000Y-108384237D01*
X175729991Y-107446058D02*
X175729991Y-107965228D01*
X176149000Y-108384237D02*
X176149000Y-122174000D01*
X176275999Y-106900050D02*
X175729991Y-107446058D01*
%TO.N,DATA1*%
X171326251Y-101977749D02*
X164338000Y-108966000D01*
X164338000Y-116713000D02*
X159661200Y-121389800D01*
X164338000Y-108966000D02*
X164338000Y-116713000D01*
X162179000Y-123444000D02*
X163449000Y-124714000D01*
X160274000Y-123444000D02*
X162179000Y-123444000D01*
X159661200Y-121389800D02*
X159661200Y-122831200D01*
X159661200Y-122831200D02*
X160274000Y-123444000D01*
X171326251Y-101950302D02*
X171326251Y-101977749D01*
%TO.N,DATA11*%
X184023000Y-106285516D02*
X184023000Y-107442000D01*
X184023000Y-107442000D02*
X192659000Y-116078000D01*
X182869767Y-105132283D02*
X184023000Y-106285516D01*
X192659000Y-123444000D02*
X193929000Y-124714000D01*
X192659000Y-116078000D02*
X192659000Y-123444000D01*
%TO.N,DATA15*%
X191389000Y-115378210D02*
X191389000Y-122174000D01*
X183619800Y-106589422D02*
X183619800Y-107609010D01*
X182516214Y-105485836D02*
X183619800Y-106589422D01*
X183619800Y-107609010D02*
X191389000Y-115378210D01*
D44*
%TO.N,Net-(J6-Pin_2)*%
X206756000Y-119634000D02*
X203708000Y-119634000D01*
D42*
%TO.N,CBSEL0*%
X201295000Y-125222000D02*
X206248000Y-125222000D01*
X199009000Y-122936000D02*
X201295000Y-125222000D01*
X199009000Y-107061000D02*
X199009000Y-122936000D01*
X191516000Y-99568000D02*
X199009000Y-107061000D01*
X190033407Y-99568000D02*
X191516000Y-99568000D01*
X206248000Y-125222000D02*
X209296000Y-122174000D01*
X189233729Y-98768322D02*
X190033407Y-99568000D01*
%TO.N,CBSEL1*%
X200406000Y-110744000D02*
X209296000Y-119634000D01*
X200406000Y-107887790D02*
X200406000Y-110744000D01*
X191677572Y-99159362D02*
X200406000Y-107887790D01*
X190331877Y-99159362D02*
X191677572Y-99159362D01*
X189587283Y-98414768D02*
X190331877Y-99159362D01*
D44*
%TO.N,Net-(J6-Pin_1)*%
X203819000Y-122174000D02*
X203692000Y-122301000D01*
X206756000Y-122174000D02*
X203819000Y-122174000D01*
D43*
%TO.N,/40MHz CLK*%
X202946000Y-96266000D02*
X202692000Y-96012000D01*
X205818000Y-96266000D02*
X202946000Y-96266000D01*
D40*
%TO.N,FPGA_VGA_CLK*%
X184668233Y-86487000D02*
X183896000Y-86487000D01*
X183261000Y-87122000D02*
X183261000Y-89154000D01*
X185344642Y-85810591D02*
X184668233Y-86487000D01*
D43*
X188341000Y-94234000D02*
X196342000Y-94234000D01*
X183261000Y-89154000D02*
X188341000Y-94234000D01*
D40*
X183896000Y-86487000D02*
X183261000Y-87122000D01*
D42*
X185344642Y-85810591D02*
X185344642Y-85800358D01*
D43*
X198120000Y-96012000D02*
X200692000Y-96012000D01*
X196342000Y-94234000D02*
X198120000Y-96012000D01*
D42*
%TO.N,/LED0*%
X191355050Y-91821000D02*
X194149050Y-89027000D01*
X199433250Y-89027000D02*
X199560250Y-89154000D01*
X194149050Y-89027000D02*
X199433250Y-89027000D01*
%TO.N,/LED1*%
X199306250Y-92329000D02*
X199560250Y-92583000D01*
X192415710Y-92881660D02*
X192968370Y-92329000D01*
X192968370Y-92329000D02*
X199306250Y-92329000D01*
%TO.N,/LED2*%
X193459156Y-90424000D02*
X207010000Y-90424000D01*
X207010000Y-90424000D02*
X208280000Y-89154000D01*
X191708603Y-92174553D02*
X193459156Y-90424000D01*
%TO.N,/LED3*%
X207645000Y-91948000D02*
X207645000Y-91956000D01*
X193277262Y-91313000D02*
X207010000Y-91313000D01*
X207645000Y-91956000D02*
X208272000Y-92583000D01*
X192062156Y-92528106D02*
X193277262Y-91313000D01*
X207010000Y-91313000D02*
X207645000Y-91948000D01*
D41*
%TO.N,/Power & Programming/EN1V2*%
X137176000Y-88022000D02*
X137033000Y-87879000D01*
X137176000Y-89916000D02*
X137176000Y-88022000D01*
D42*
%TO.N,SDRAM_CLK*%
X170265591Y-87588591D02*
X171323000Y-88646000D01*
D43*
X158226000Y-94615000D02*
X159639000Y-94615000D01*
D42*
X170265591Y-87578358D02*
X170265591Y-87588591D01*
%TO.N,/SDRAM/SDRAM_CLK_POST_RESISTOR*%
X156226000Y-94615000D02*
X153543000Y-94615000D01*
X153543000Y-94615000D02*
X151638000Y-96520000D01*
X151638000Y-109368200D02*
X153000800Y-110731000D01*
X151638000Y-96520000D02*
X151638000Y-109368200D01*
X153000800Y-110731000D02*
X153959000Y-110731000D01*
%TO.N,FPGA_AUDIO_R*%
X181864000Y-80098845D02*
X181864000Y-79310210D01*
X167625600Y-73772600D02*
X166624000Y-72771000D01*
X185188200Y-73428200D02*
X184150000Y-72390000D01*
X169686400Y-73772600D02*
X167625600Y-73772600D01*
X180748448Y-81214397D02*
X181864000Y-80098845D01*
X185188200Y-75986010D02*
X185188200Y-73428200D01*
X171069000Y-72390000D02*
X169686400Y-73772600D01*
X184150000Y-72390000D02*
X171069000Y-72390000D01*
X181864000Y-79310210D02*
X185188200Y-75986010D01*
%TO.N,FPGA_AUDIO_L*%
X171315200Y-74175800D02*
X164964800Y-74175800D01*
X181460354Y-79795385D02*
X181460354Y-79143646D01*
X181460354Y-79143646D02*
X184785000Y-75819000D01*
X164964800Y-74175800D02*
X163560000Y-72771000D01*
X180394895Y-80860844D02*
X181460354Y-79795385D01*
X171958000Y-73533000D02*
X171315200Y-74175800D01*
X183261000Y-73533000D02*
X171958000Y-73533000D01*
X184785000Y-75819000D02*
X184785000Y-75057000D01*
X184785000Y-75057000D02*
X183261000Y-73533000D01*
%TO.N,FPGA_RED3*%
X184637535Y-85103484D02*
X190239019Y-79502000D01*
X194120790Y-80391000D02*
X194123665Y-80391000D01*
X193234665Y-79502000D02*
X194123665Y-80391000D01*
X190239019Y-79502000D02*
X193234665Y-79502000D01*
%TO.N,FPGA_RED2*%
X189930127Y-80518000D02*
X191516000Y-80518000D01*
X184991089Y-85457038D02*
X185052962Y-85457038D01*
X191516000Y-80518000D02*
X192659000Y-81661000D01*
X194885665Y-81661000D02*
X196155665Y-80391000D01*
X184991089Y-85457038D02*
X189930127Y-80518000D01*
X192659000Y-81661000D02*
X194885665Y-81661000D01*
%TO.N,FPGA_RED1*%
X195901665Y-82677000D02*
X198187665Y-80391000D01*
X189116990Y-85394800D02*
X191834790Y-82677000D01*
X187174647Y-85394800D02*
X189116990Y-85394800D01*
X191834790Y-82677000D02*
X195901665Y-82677000D01*
X186051749Y-86517698D02*
X187174647Y-85394800D01*
%TO.N,FPGA_RED0*%
X191897000Y-83185000D02*
X197409665Y-83185000D01*
X197409665Y-83185000D02*
X200219665Y-80375000D01*
X189284000Y-85798000D02*
X191897000Y-83185000D01*
X186405302Y-86871252D02*
X187478554Y-85798000D01*
X187478554Y-85798000D02*
X189284000Y-85798000D01*
%TO.N,FPGA_GRN3*%
X194564000Y-83820000D02*
X199314665Y-83820000D01*
X189202935Y-87677600D02*
X190706400Y-87677600D01*
X190706400Y-87677600D02*
X194564000Y-83820000D01*
X188241516Y-88639019D02*
X189202935Y-87677600D01*
X199314665Y-83820000D02*
X202759665Y-80375000D01*
X188173069Y-88639019D02*
X188241516Y-88639019D01*
%TO.N,FPGA_GRN2*%
X194626210Y-84328000D02*
X200854665Y-84328000D01*
X190873410Y-88080800D02*
X194626210Y-84328000D01*
X189438395Y-88080800D02*
X190873410Y-88080800D01*
X200854665Y-84328000D02*
X204791665Y-80391000D01*
X188526623Y-88992572D02*
X189438395Y-88080800D01*
%TO.N,FPGA_GRN1*%
X191040420Y-88484000D02*
X194688420Y-84836000D01*
X188880176Y-89346126D02*
X189742302Y-88484000D01*
X189742302Y-88484000D02*
X191040420Y-88484000D01*
X194688420Y-84836000D02*
X202378665Y-84836000D01*
X202378665Y-84836000D02*
X206823665Y-80391000D01*
%TO.N,FPGA_HSYNC*%
X181455555Y-81921504D02*
X186563000Y-76814059D01*
X186563000Y-76814059D02*
X186563000Y-66912666D01*
X186563000Y-66912666D02*
X186198334Y-66548000D01*
%TO.N,FPGA_GRN0*%
X203902665Y-85344000D02*
X208855665Y-80391000D01*
X194750630Y-85344000D02*
X203902665Y-85344000D01*
X190046208Y-88887200D02*
X191207430Y-88887200D01*
X189233729Y-89699679D02*
X190046208Y-88887200D01*
X191207430Y-88887200D02*
X194750630Y-85344000D01*
%TO.N,FPGA_VSYNC*%
X184166334Y-70247334D02*
X184166334Y-66548000D01*
X185801000Y-76868951D02*
X185801000Y-71882000D01*
X185801000Y-71882000D02*
X184166334Y-70247334D01*
X181102001Y-81567950D02*
X185801000Y-76868951D01*
%TO.N,FPGA_BLU3*%
X205934665Y-85852000D02*
X211395665Y-80391000D01*
X191374440Y-89290400D02*
X194812840Y-85852000D01*
X189587283Y-90053233D02*
X190350116Y-89290400D01*
X194812840Y-85852000D02*
X205934665Y-85852000D01*
X190350116Y-89290400D02*
X191374440Y-89290400D01*
%TO.N,FPGA_BLU2*%
X191541450Y-89693600D02*
X194875050Y-86360000D01*
X194875050Y-86360000D02*
X207458665Y-86360000D01*
X189940836Y-90406786D02*
X190654022Y-89693600D01*
X207458665Y-86360000D02*
X213427665Y-80391000D01*
X190654022Y-89693600D02*
X191541450Y-89693600D01*
%TO.N,FPGA_BLU1*%
X190957929Y-90096800D02*
X191716200Y-90096800D01*
X194945000Y-86868000D02*
X208982665Y-86868000D01*
X208982665Y-86868000D02*
X215459665Y-80391000D01*
X190294390Y-90760339D02*
X190957929Y-90096800D01*
X191716200Y-90096800D02*
X194945000Y-86868000D01*
%TO.N,FPGA_BLU0*%
X210506665Y-87376000D02*
X217491665Y-80391000D01*
X195007210Y-87376000D02*
X210506665Y-87376000D01*
X191261836Y-90500000D02*
X191883210Y-90500000D01*
X191883210Y-90500000D02*
X195007210Y-87376000D01*
X190647943Y-91113893D02*
X191261836Y-90500000D01*
%TO.N,SDRAM_CKE*%
X167437164Y-98061214D02*
X165989000Y-99509378D01*
X165989000Y-101219000D02*
X158623000Y-108585000D01*
X157582000Y-111531000D02*
X153959000Y-111531000D01*
X158623000Y-110490000D02*
X157582000Y-111531000D01*
X158623000Y-108585000D02*
X158623000Y-110490000D01*
X167437164Y-98061214D02*
X167368786Y-98061214D01*
X165989000Y-99509378D02*
X165989000Y-101219000D01*
%TO.N,SDRAM_DQ9*%
X166022950Y-96647000D02*
X165133950Y-97536000D01*
X161143777Y-100349223D02*
X161143777Y-101238223D01*
X163957000Y-97536000D02*
X161143777Y-100349223D01*
X165133950Y-97536000D02*
X163957000Y-97536000D01*
X155435000Y-105931000D02*
X153959000Y-105931000D01*
X156845000Y-105537000D02*
X155829000Y-105537000D01*
X161143777Y-101238223D02*
X156845000Y-105537000D01*
X155829000Y-105537000D02*
X155435000Y-105931000D01*
%TO.N,SDRAM_A7*%
X168851377Y-99475428D02*
X168851377Y-99499623D01*
X157646000Y-115531000D02*
X153959000Y-115531000D01*
X168851377Y-99475428D02*
X167894000Y-100432805D01*
X161163000Y-112014000D02*
X157646000Y-115531000D01*
X167894000Y-100432805D02*
X167894000Y-101854000D01*
X161163000Y-108585000D02*
X161163000Y-112014000D01*
X167894000Y-101854000D02*
X161163000Y-108585000D01*
%TO.N,SDRAM_DQ0*%
X167511000Y-74581000D02*
X167513000Y-74579000D01*
X142459000Y-98731000D02*
X143246200Y-98731000D01*
X175967800Y-79214076D02*
X175731611Y-78977887D01*
X167513000Y-74579000D02*
X167416000Y-74579000D01*
X143246200Y-98731000D02*
X143515600Y-98461600D01*
X171347122Y-74593400D02*
X171332722Y-74579000D01*
X168275000Y-74579000D02*
X166753000Y-74579000D01*
X160941789Y-74581000D02*
X166751000Y-74581000D01*
X175967800Y-79845538D02*
X175967800Y-79447800D01*
X143515600Y-98461600D02*
X143515600Y-92007190D01*
X143515600Y-92007190D02*
X160941789Y-74581000D01*
X166751000Y-74581000D02*
X167511000Y-74581000D01*
X168275000Y-74579000D02*
X167513000Y-74579000D01*
X172646361Y-75892639D02*
X171347122Y-74593400D01*
X171332722Y-74579000D02*
X168275000Y-74579000D01*
X175967800Y-79447800D02*
X175967800Y-79214076D01*
X175731609Y-78977887D02*
X172646361Y-75892639D01*
X166753000Y-74579000D02*
X166751000Y-74581000D01*
X176983106Y-80860844D02*
X175967800Y-79845538D01*
X175731611Y-78977887D02*
X175731609Y-78977887D01*
%TO.N,SDRAM_DQ11*%
X157327000Y-103531000D02*
X153959000Y-103531000D01*
X163493400Y-96729600D02*
X160147000Y-100076000D01*
X160147000Y-100076000D02*
X160147000Y-100711000D01*
X164526138Y-96729600D02*
X163493400Y-96729600D01*
X160147000Y-100711000D02*
X157327000Y-103531000D01*
X165315844Y-95939894D02*
X164526138Y-96729600D01*
%TO.N,SDRAM_DQ4*%
X145128400Y-101819800D02*
X145128400Y-92745180D01*
X170666682Y-76193800D02*
X174355000Y-79882118D01*
X174355000Y-79882118D02*
X174355000Y-81768271D01*
X161679780Y-76193800D02*
X170666682Y-76193800D01*
X143417200Y-103531000D02*
X145128400Y-101819800D01*
X142459000Y-103531000D02*
X143417200Y-103531000D01*
X145128400Y-92745180D02*
X161679780Y-76193800D01*
X174355000Y-81768271D02*
X175215339Y-82628610D01*
%TO.N,SDRAM_A0*%
X153676970Y-92135400D02*
X158054600Y-92135400D01*
X164881564Y-89954200D02*
X165510363Y-89325400D01*
X167062885Y-89325400D02*
X167790717Y-90053232D01*
X149966800Y-108981400D02*
X149966800Y-95845570D01*
X160235800Y-89954200D02*
X164881564Y-89954200D01*
X165510363Y-89325400D02*
X167062885Y-89325400D01*
X142459000Y-115531000D02*
X143417200Y-115531000D01*
X149966800Y-95845570D02*
X153676970Y-92135400D01*
X158054600Y-92135400D02*
X160235800Y-89954200D01*
X143417200Y-115531000D02*
X149966800Y-108981400D01*
%TO.N,SDRAM_DQ5*%
X145531600Y-98552000D02*
X145531600Y-97409000D01*
X145531600Y-97409000D02*
X145531600Y-98171000D01*
X173951800Y-80049128D02*
X170499672Y-76597000D01*
X173951800Y-82072178D02*
X173951800Y-80049128D01*
X174861786Y-82982164D02*
X173951800Y-82072178D01*
X145531600Y-92912190D02*
X145531600Y-97409000D01*
X145531600Y-98552000D02*
X145531600Y-98171000D01*
X143417200Y-105131000D02*
X145531600Y-103016600D01*
X142459000Y-105131000D02*
X143417200Y-105131000D01*
X170499672Y-76597000D02*
X161846789Y-76597000D01*
X161846789Y-76597000D02*
X145531600Y-92912190D01*
X145531600Y-103016600D02*
X145531600Y-98552000D01*
%TO.N,SDRAM_A2*%
X167083610Y-90760338D02*
X166493272Y-90170000D01*
X159534200Y-92941800D02*
X154010990Y-92941800D01*
X161715400Y-90760600D02*
X159534200Y-92941800D01*
X150773200Y-109830800D02*
X143473000Y-117131000D01*
X143473000Y-117131000D02*
X142459000Y-117131000D01*
X166116000Y-90170000D02*
X165525400Y-90760600D01*
X150773200Y-96179590D02*
X150773200Y-109830800D01*
X154010990Y-92941800D02*
X150773200Y-96179590D01*
X166493272Y-90170000D02*
X166116000Y-90170000D01*
X165525400Y-90760600D02*
X161715400Y-90760600D01*
%TO.N,SDRAM_A11*%
X167790717Y-98414767D02*
X167777233Y-98414767D01*
X167790717Y-98414767D02*
X166497000Y-99708484D01*
X166497000Y-101346000D02*
X159258000Y-108585000D01*
X159258000Y-108585000D02*
X159258000Y-111633000D01*
X157760000Y-113131000D02*
X153959000Y-113131000D01*
X159258000Y-111633000D02*
X157760000Y-113131000D01*
X166497000Y-99708484D02*
X166497000Y-101346000D01*
%TO.N,~{SDRAM_CS}*%
X162306000Y-83439000D02*
X155575000Y-90170000D01*
X143417200Y-112331000D02*
X142459000Y-112331000D01*
X148354000Y-107394200D02*
X143417200Y-112331000D01*
X155575000Y-90170000D02*
X152781000Y-90170000D01*
X152781000Y-90170000D02*
X148354000Y-94597000D01*
X169459984Y-86065645D02*
X167132000Y-86065645D01*
X167091645Y-86065645D02*
X164465000Y-83439000D01*
X148354000Y-94597000D02*
X148354000Y-107394200D01*
X170619144Y-87224805D02*
X169459984Y-86065645D01*
X164465000Y-83439000D02*
X162306000Y-83439000D01*
%TO.N,SDRAM_A10*%
X159496000Y-89551000D02*
X157353000Y-91694000D01*
X168144271Y-89658271D02*
X167408200Y-88922200D01*
X149563600Y-95546400D02*
X149563600Y-108354810D01*
X149563600Y-108354810D02*
X143187410Y-114731000D01*
X157353000Y-91694000D02*
X153416000Y-91694000D01*
X168144271Y-89699678D02*
X168144271Y-89658271D01*
X165343353Y-88922200D02*
X164714553Y-89551000D01*
X143187410Y-114731000D02*
X142459000Y-114731000D01*
X167408200Y-88922200D02*
X165343353Y-88922200D01*
X153416000Y-91694000D02*
X149563600Y-95546400D01*
X164714553Y-89551000D02*
X159496000Y-89551000D01*
%TO.N,SDRAM_A9*%
X159893000Y-108585000D02*
X159893000Y-111760000D01*
X168144271Y-98768321D02*
X168144271Y-98809729D01*
X167005000Y-99907592D02*
X167005000Y-101473000D01*
X168144271Y-98768321D02*
X167005000Y-99907592D01*
X167005000Y-101473000D02*
X159893000Y-108585000D01*
X159893000Y-111760000D02*
X157722000Y-113931000D01*
X157722000Y-113931000D02*
X153959000Y-113931000D01*
%TO.N,~{SDRAM_WE}*%
X147144400Y-106203800D02*
X143417200Y-109931000D01*
X143417200Y-109931000D02*
X142459000Y-109931000D01*
X162519989Y-78209800D02*
X147144400Y-93585389D01*
X173447572Y-84396377D02*
X172339000Y-83287805D01*
X172339000Y-80717168D02*
X169831632Y-78209800D01*
X147144400Y-93585389D02*
X147144400Y-106203800D01*
X169831632Y-78209800D02*
X162519989Y-78209800D01*
X172339000Y-83287805D02*
X172339000Y-80717168D01*
%TO.N,SDRAM_DQ7*%
X143417200Y-107531000D02*
X142459000Y-107531000D01*
X173145400Y-80383148D02*
X170165652Y-77403400D01*
X174154679Y-83689271D02*
X173145400Y-82679992D01*
X170165652Y-77403400D02*
X162185969Y-77403400D01*
X146338000Y-104610200D02*
X143417200Y-107531000D01*
X173145400Y-82679992D02*
X173145400Y-80383148D01*
X162185969Y-77403400D02*
X146338000Y-93251369D01*
X146338000Y-93251369D02*
X146338000Y-104610200D01*
%TO.N,SDRAM_DQ3*%
X160655000Y-76581000D02*
X144725200Y-92510800D01*
X142459000Y-102731000D02*
X143417200Y-102731000D01*
X143417200Y-102731000D02*
X144725200Y-101423000D01*
X175568893Y-82275057D02*
X174758200Y-81464364D01*
X174758200Y-79715108D02*
X170833692Y-75790600D01*
X170833692Y-75790600D02*
X168148000Y-75790600D01*
X174758200Y-81464364D02*
X174758200Y-79715108D01*
X166370000Y-75790600D02*
X161445400Y-75790600D01*
X168148000Y-75790600D02*
X166370000Y-75790600D01*
X144725200Y-101423000D02*
X144725200Y-97911400D01*
X167132000Y-75790600D02*
X166370000Y-75790600D01*
X161445400Y-75790600D02*
X160655000Y-76581000D01*
X168148000Y-75790600D02*
X167132000Y-75790600D01*
X144725200Y-92510800D02*
X144725200Y-98171000D01*
%TO.N,SDRAM_A5*%
X170265591Y-100889641D02*
X170255359Y-100889641D01*
X162433000Y-108712000D02*
X162433000Y-112268000D01*
X170255359Y-100889641D02*
X162433000Y-108712000D01*
X162433000Y-112268000D02*
X157570000Y-117131000D01*
X157570000Y-117131000D02*
X153959000Y-117131000D01*
%TO.N,SDRAM_DQ10*%
X153959000Y-105131000D02*
X156489000Y-105131000D01*
X163725200Y-97132800D02*
X164830044Y-97132800D01*
X160655000Y-100965000D02*
X160655000Y-100203000D01*
X160655000Y-100203000D02*
X163725200Y-97132800D01*
X164830044Y-97132800D02*
X165669397Y-96293447D01*
X156489000Y-105131000D02*
X160655000Y-100965000D01*
%TO.N,~{SDRAM_RAS}*%
X164338000Y-79121000D02*
X153692200Y-89766800D01*
X143417200Y-111531000D02*
X142459000Y-111531000D01*
X171679806Y-86164144D02*
X170307000Y-84791338D01*
X147950800Y-94111200D02*
X147950800Y-106997400D01*
X166370000Y-79121000D02*
X164338000Y-79121000D01*
X170307000Y-83058000D02*
X166370000Y-79121000D01*
X147950800Y-106997400D02*
X143417200Y-111531000D01*
X152295200Y-89766800D02*
X147950800Y-94111200D01*
X153692200Y-89766800D02*
X152295200Y-89766800D01*
X170307000Y-84791338D02*
X170307000Y-83058000D01*
%TO.N,SDRAM_DQ6*%
X142459000Y-105931000D02*
X143187410Y-105931000D01*
X143187410Y-105931000D02*
X145934800Y-103183610D01*
X145934800Y-93079200D02*
X162013800Y-77000200D01*
X173548600Y-80216138D02*
X173548600Y-82376084D01*
X145934800Y-103183610D02*
X145934800Y-93079200D01*
X162013800Y-77000200D02*
X170332662Y-77000200D01*
X173548600Y-82376084D02*
X174508233Y-83335717D01*
X170332662Y-77000200D02*
X173548600Y-80216138D01*
%TO.N,SDRAM_BA0*%
X148757200Y-94828800D02*
X152908000Y-90678000D01*
X168852172Y-86872045D02*
X169912038Y-87931911D01*
X142459000Y-113131000D02*
X143417200Y-113131000D01*
X152908000Y-90678000D02*
X155956000Y-90678000D01*
X162687000Y-83947000D02*
X164211000Y-83947000D01*
X155956000Y-90678000D02*
X162687000Y-83947000D01*
X148757200Y-107791000D02*
X148757200Y-94828800D01*
X164211000Y-83947000D02*
X167136045Y-86872045D01*
X143417200Y-113131000D02*
X148757200Y-107791000D01*
X167136045Y-86872045D02*
X168852172Y-86872045D01*
%TO.N,SDRAM_DQ15*%
X167746698Y-93238302D02*
X166497000Y-94488000D01*
X166497000Y-94488000D02*
X163322000Y-94488000D01*
X166730057Y-91113892D02*
X167746698Y-92130533D01*
X159079000Y-98731000D02*
X153959000Y-98731000D01*
X163322000Y-94488000D02*
X159079000Y-98731000D01*
X167746698Y-92130533D02*
X167746698Y-93238302D01*
%TO.N,SDRAM_DQ13*%
X164049902Y-91982098D02*
X159639000Y-96393000D01*
X152444400Y-100574600D02*
X153000800Y-101131000D01*
X165315844Y-92528105D02*
X164769837Y-91982098D01*
X153000800Y-101131000D02*
X153959000Y-101131000D01*
X153035000Y-96393000D02*
X152444400Y-96983600D01*
X164769837Y-91982098D02*
X164049902Y-91982098D01*
X152444400Y-96983600D02*
X152444400Y-100574600D01*
X159639000Y-96393000D02*
X153035000Y-96393000D01*
%TO.N,SDRAM_BA1*%
X164820671Y-88874671D02*
X164668343Y-89027000D01*
X149160400Y-95187600D02*
X149160400Y-108187800D01*
X149160400Y-108187800D02*
X143417200Y-113931000D01*
X165354000Y-88519000D02*
X165176343Y-88519000D01*
X156718000Y-91186000D02*
X153162000Y-91186000D01*
X164820671Y-88874671D02*
X164747743Y-88947600D01*
X167670699Y-88519000D02*
X165354000Y-88519000D01*
X153162000Y-91186000D02*
X149160400Y-95187600D01*
X164668343Y-89027000D02*
X158877000Y-89027000D01*
X168497824Y-89346125D02*
X167670699Y-88519000D01*
X165176343Y-88519000D02*
X164820671Y-88874671D01*
X158877000Y-89027000D02*
X156718000Y-91186000D01*
X143417200Y-113931000D02*
X142459000Y-113931000D01*
%TO.N,SDRAM_A4*%
X157532000Y-117931000D02*
X153959000Y-117931000D01*
X170619144Y-101287856D02*
X163068000Y-108839000D01*
X170619144Y-101243194D02*
X170619144Y-101287856D01*
X163068000Y-112395000D02*
X157532000Y-117931000D01*
X163068000Y-108839000D02*
X163068000Y-112395000D01*
%TO.N,SDRAM_A1*%
X158794400Y-92538600D02*
X153843980Y-92538600D01*
X153843980Y-92538600D02*
X150370000Y-96012580D01*
X165048575Y-90357400D02*
X160975600Y-90357400D01*
X150370000Y-96012580D02*
X150370000Y-109378200D01*
X166758979Y-89728600D02*
X165677374Y-89728600D01*
X167437164Y-90406785D02*
X166758979Y-89728600D01*
X150370000Y-109378200D02*
X143417200Y-116331000D01*
X160975600Y-90357400D02*
X158794400Y-92538600D01*
X143417200Y-116331000D02*
X142459000Y-116331000D01*
X165677374Y-89728600D02*
X165048575Y-90357400D01*
%TO.N,SDRAM_A8*%
X167490800Y-100128898D02*
X167490800Y-101622200D01*
X168497824Y-99121874D02*
X167490800Y-100128898D01*
X160528000Y-108585000D02*
X160528000Y-111887000D01*
X168497824Y-99121874D02*
X168467126Y-99121874D01*
X160528000Y-111887000D02*
X157684000Y-114731000D01*
X167490800Y-101622200D02*
X160528000Y-108585000D01*
X157684000Y-114731000D02*
X153959000Y-114731000D01*
%TO.N,SDRAM_DQ12*%
X164962290Y-95586340D02*
X164890660Y-95586340D01*
X163449000Y-96139000D02*
X159639000Y-99949000D01*
X159639000Y-99949000D02*
X159639000Y-100457000D01*
X164409630Y-96139000D02*
X163449000Y-96139000D01*
X159639000Y-100457000D02*
X157365000Y-102731000D01*
X157365000Y-102731000D02*
X153959000Y-102731000D01*
X164962290Y-95586340D02*
X164409630Y-96139000D01*
%TO.N,SDRAM_DQ1*%
X171167712Y-74984200D02*
X161108800Y-74984200D01*
X143417200Y-100331000D02*
X142459000Y-100331000D01*
X143918800Y-99829400D02*
X143417200Y-100331000D01*
X143918800Y-92174200D02*
X143918800Y-99829400D01*
X161108800Y-74984200D02*
X143918800Y-92174200D01*
X176276000Y-81567950D02*
X175564600Y-80856550D01*
X175564600Y-79381088D02*
X171167712Y-74984200D01*
X175564600Y-80856550D02*
X175564600Y-79381088D01*
%TO.N,SDRAM_A3*%
X154178000Y-93345000D02*
X151176400Y-96346600D01*
X165365751Y-91163800D02*
X162455200Y-91163800D01*
X162455200Y-91163800D02*
X160274000Y-93345000D01*
X166022950Y-91820999D02*
X165365751Y-91163800D01*
X143417200Y-117931000D02*
X142459000Y-117931000D01*
X151176400Y-96346600D02*
X151176400Y-110171800D01*
X160274000Y-93345000D02*
X154178000Y-93345000D01*
X151176400Y-110171800D02*
X143417200Y-117931000D01*
%TO.N,SDRAM_DQ2*%
X161278390Y-75387400D02*
X171000702Y-75387400D01*
X143417200Y-101131000D02*
X144322000Y-100226200D01*
X171000702Y-75387400D02*
X175161400Y-79548098D01*
X175161400Y-81160458D02*
X175922446Y-81921504D01*
X144322000Y-100226200D02*
X144322000Y-92343790D01*
X142459000Y-101131000D02*
X143417200Y-101131000D01*
X144322000Y-92343790D02*
X161278390Y-75387400D01*
X175161400Y-79548098D02*
X175161400Y-81160458D01*
%TO.N,SDRAM_A6*%
X169846912Y-100536088D02*
X161798000Y-108585000D01*
X161798000Y-112141000D02*
X157608000Y-116331000D01*
X169912038Y-100536088D02*
X169846912Y-100536088D01*
X157608000Y-116331000D02*
X153959000Y-116331000D01*
X161798000Y-108585000D02*
X161798000Y-112141000D01*
%TO.N,SDRAM_DQ14*%
X164962290Y-92881659D02*
X164536631Y-92456000D01*
X164536631Y-92456000D02*
X164465000Y-92456000D01*
X164663631Y-92583000D02*
X164962290Y-92881659D01*
X153162000Y-96901000D02*
X159766000Y-96901000D01*
X164084000Y-92583000D02*
X164663631Y-92583000D01*
X153959000Y-100331000D02*
X153171800Y-100331000D01*
X153171800Y-100331000D02*
X152847600Y-100006800D01*
X152847600Y-100006800D02*
X152847600Y-97215400D01*
X152847600Y-97215400D02*
X153162000Y-96901000D01*
X159766000Y-96901000D02*
X164084000Y-92583000D01*
%TO.N,SDRAM_DQ8*%
X152041200Y-96751800D02*
X152041200Y-106400400D01*
X165061845Y-91567000D02*
X163830000Y-91567000D01*
X152908000Y-95885000D02*
X152041200Y-96751800D01*
X152041200Y-106400400D02*
X153171800Y-107531000D01*
X159512000Y-95885000D02*
X152908000Y-95885000D01*
X153171800Y-107531000D02*
X153959000Y-107531000D01*
X163830000Y-91567000D02*
X159512000Y-95885000D01*
X165669397Y-92174552D02*
X165061845Y-91567000D01*
%TO.N,SDRAM_UDQM*%
X157353000Y-110363000D02*
X155349200Y-110363000D01*
X154917200Y-109931000D02*
X153959000Y-109931000D01*
X167083610Y-97707661D02*
X165481000Y-99310271D01*
X157988000Y-108585000D02*
X157988000Y-109728000D01*
X165481000Y-101092000D02*
X157988000Y-108585000D01*
X165481000Y-99310271D02*
X165481000Y-101092000D01*
X157988000Y-109728000D02*
X157353000Y-110363000D01*
X167083610Y-97707661D02*
X167083610Y-97711390D01*
X155349200Y-110363000D02*
X154917200Y-109931000D01*
%TO.N,~{SDRAM_CAS}*%
X166751000Y-78613000D02*
X164084000Y-78613000D01*
X170942000Y-84719232D02*
X170942000Y-82804000D01*
X170942000Y-82804000D02*
X166751000Y-78613000D01*
X153543000Y-89154000D02*
X152146000Y-89154000D01*
X147547600Y-93752400D02*
X147547600Y-106600600D01*
X164084000Y-78613000D02*
X153543000Y-89154000D01*
X152146000Y-89154000D02*
X147547600Y-93752400D01*
X172033359Y-85810591D02*
X170942000Y-84719232D01*
X143417200Y-110731000D02*
X142459000Y-110731000D01*
X147547600Y-106600600D02*
X143417200Y-110731000D01*
%TO.N,SDRAM_LDQM*%
X172742200Y-80550158D02*
X169998642Y-77806600D01*
X146741200Y-105807000D02*
X143417200Y-109131000D01*
X169998642Y-77806600D02*
X162352979Y-77806600D01*
X143417200Y-109131000D02*
X142459000Y-109131000D01*
X146741200Y-93418379D02*
X146741200Y-105807000D01*
X172742200Y-82983898D02*
X172742200Y-80550158D01*
X173801126Y-84042824D02*
X172742200Y-82983898D01*
X162352979Y-77806600D02*
X146741200Y-93418379D01*
%TO.N,unconnected-(U1B-IOR_148-Pad98)*%
X183576875Y-84042824D02*
X183576875Y-84012125D01*
%TD*%
%TA.AperFunction,Conductor*%
%TO.N,+1V2*%
G36*
X140006267Y-83954708D02*
G01*
X140058086Y-83965722D01*
X140082742Y-83973733D01*
X140131130Y-83995278D01*
X140153582Y-84008242D01*
X140155480Y-84009621D01*
X140179344Y-84025939D01*
X140191252Y-84033591D01*
X140215939Y-84048478D01*
X140215943Y-84048479D01*
X140215949Y-84048483D01*
X140350025Y-84100685D01*
X140418079Y-84116511D01*
X140561430Y-84128825D01*
X140561430Y-84128824D01*
X140561431Y-84128825D01*
X140561432Y-84128824D01*
X140702445Y-84100253D01*
X140765313Y-84077822D01*
X140767222Y-84077196D01*
X140768256Y-84076773D01*
X140768256Y-84076772D01*
X140768262Y-84076771D01*
X140895514Y-84009626D01*
X140897411Y-84008247D01*
X140919873Y-83995275D01*
X140968258Y-83973733D01*
X140992909Y-83965723D01*
X141009624Y-83962171D01*
X141044735Y-83954709D01*
X141070513Y-83952000D01*
X141123489Y-83952000D01*
X141149267Y-83954708D01*
X141201086Y-83965722D01*
X141225742Y-83973733D01*
X141274130Y-83995278D01*
X141296582Y-84008242D01*
X141298480Y-84009621D01*
X141322344Y-84025939D01*
X141334252Y-84033591D01*
X141358939Y-84048478D01*
X141358943Y-84048479D01*
X141358949Y-84048483D01*
X141493025Y-84100685D01*
X141561079Y-84116511D01*
X141704430Y-84128825D01*
X141704430Y-84128824D01*
X141704431Y-84128825D01*
X141704432Y-84128824D01*
X141845445Y-84100253D01*
X141908313Y-84077822D01*
X141910222Y-84077196D01*
X141911256Y-84076773D01*
X141911256Y-84076772D01*
X141911262Y-84076771D01*
X142038514Y-84009626D01*
X142040411Y-84008247D01*
X142062873Y-83995275D01*
X142111258Y-83973733D01*
X142135909Y-83965723D01*
X142152624Y-83962171D01*
X142187735Y-83954709D01*
X142213513Y-83952000D01*
X142266489Y-83952000D01*
X142292267Y-83954708D01*
X142344086Y-83965722D01*
X142368742Y-83973733D01*
X142417130Y-83995278D01*
X142439582Y-84008242D01*
X142441480Y-84009621D01*
X142465344Y-84025939D01*
X142477252Y-84033591D01*
X142501939Y-84048478D01*
X142501943Y-84048479D01*
X142501949Y-84048483D01*
X142636025Y-84100685D01*
X142704079Y-84116511D01*
X142847430Y-84128825D01*
X142847430Y-84128824D01*
X142847431Y-84128825D01*
X142847432Y-84128824D01*
X142988445Y-84100253D01*
X143051313Y-84077822D01*
X143053222Y-84077196D01*
X143054256Y-84076773D01*
X143054256Y-84076772D01*
X143054262Y-84076771D01*
X143181514Y-84009626D01*
X143183411Y-84008247D01*
X143205873Y-83995275D01*
X143254258Y-83973733D01*
X143278909Y-83965723D01*
X143295624Y-83962171D01*
X143330735Y-83954709D01*
X143356513Y-83952000D01*
X143409489Y-83952000D01*
X143435267Y-83954709D01*
X143453985Y-83958687D01*
X143487089Y-83965722D01*
X143511738Y-83973731D01*
X143560130Y-83995277D01*
X143582571Y-84008234D01*
X143625438Y-84039379D01*
X143644699Y-84056722D01*
X143675849Y-84091318D01*
X143680138Y-84096081D01*
X143695379Y-84117057D01*
X143721870Y-84162941D01*
X143732414Y-84186623D01*
X143748781Y-84236995D01*
X143754171Y-84262353D01*
X143759708Y-84315039D01*
X143759708Y-84340959D01*
X143754171Y-84393645D01*
X143748781Y-84419003D01*
X143732414Y-84469375D01*
X143721870Y-84493057D01*
X143695379Y-84538941D01*
X143680142Y-84559914D01*
X143644700Y-84599276D01*
X143625436Y-84616621D01*
X143582577Y-84647760D01*
X143560129Y-84660720D01*
X143549735Y-84665348D01*
X143549730Y-84665351D01*
X143511732Y-84682268D01*
X143487082Y-84690277D01*
X143468300Y-84694269D01*
X143435268Y-84701290D01*
X143409490Y-84704000D01*
X143356511Y-84704000D01*
X143330731Y-84701290D01*
X143302182Y-84695222D01*
X143278910Y-84690275D01*
X143254258Y-84682265D01*
X143236557Y-84674384D01*
X143205874Y-84660723D01*
X143183426Y-84647762D01*
X143181533Y-84646387D01*
X143181513Y-84646373D01*
X143157661Y-84630064D01*
X143156492Y-84629313D01*
X143145752Y-84622410D01*
X143121051Y-84607516D01*
X142986978Y-84555314D01*
X142986975Y-84555313D01*
X142918927Y-84539488D01*
X142918915Y-84539486D01*
X142775567Y-84527174D01*
X142775558Y-84527174D01*
X142634555Y-84555745D01*
X142634543Y-84555749D01*
X142568741Y-84579227D01*
X142441487Y-84646372D01*
X142441485Y-84646373D01*
X142402931Y-84674384D01*
X142402925Y-84674389D01*
X142315999Y-84754659D01*
X142278521Y-84798448D01*
X142212634Y-84896725D01*
X142209050Y-84903951D01*
X142206569Y-84902720D01*
X142173978Y-84948758D01*
X142109185Y-84974905D01*
X142097057Y-84975500D01*
X141855000Y-84975500D01*
X141855000Y-85939000D01*
X141835315Y-86006039D01*
X141782511Y-86051794D01*
X141731000Y-86063000D01*
X141605000Y-86063000D01*
X141605000Y-86189000D01*
X141585315Y-86256039D01*
X141532511Y-86301794D01*
X141481000Y-86313000D01*
X140581982Y-86313000D01*
X140564336Y-86311738D01*
X140423575Y-86291500D01*
X140423573Y-86291500D01*
X140363862Y-86291500D01*
X140296823Y-86271815D01*
X140276181Y-86255181D01*
X140250000Y-86229000D01*
X139432000Y-86229000D01*
X139364961Y-86209315D01*
X139319206Y-86156511D01*
X139308000Y-86105000D01*
X139308000Y-85853000D01*
X139327685Y-85785961D01*
X139380489Y-85740206D01*
X139432000Y-85729000D01*
X140476500Y-85729000D01*
X140543539Y-85748685D01*
X140589294Y-85801489D01*
X140589378Y-85801878D01*
X140600500Y-85813000D01*
X141355000Y-85813000D01*
X141355000Y-84975500D01*
X141080029Y-84975500D01*
X141080012Y-84975501D01*
X140977302Y-84985994D01*
X140810880Y-85041141D01*
X140810875Y-85041143D01*
X140661654Y-85133184D01*
X140537683Y-85257155D01*
X140537680Y-85257159D01*
X140478938Y-85352395D01*
X140426990Y-85399120D01*
X140358028Y-85410341D01*
X140293946Y-85382498D01*
X140285719Y-85374979D01*
X140222061Y-85311321D01*
X140222052Y-85311314D01*
X140080696Y-85227717D01*
X140080693Y-85227716D01*
X139952639Y-85190513D01*
X139893753Y-85152907D01*
X139864547Y-85089435D01*
X139863257Y-85073808D01*
X139860626Y-84935572D01*
X139846241Y-84889820D01*
X139817473Y-84798323D01*
X139817466Y-84798306D01*
X139788025Y-84736956D01*
X139787419Y-84735644D01*
X139787242Y-84735325D01*
X139787238Y-84735316D01*
X139711601Y-84622410D01*
X139707160Y-84615781D01*
X139706032Y-84614528D01*
X139698090Y-84605708D01*
X139656852Y-84559908D01*
X139641620Y-84538943D01*
X139615128Y-84493057D01*
X139604588Y-84469384D01*
X139588216Y-84418998D01*
X139582826Y-84393638D01*
X139577290Y-84340958D01*
X139577290Y-84315040D01*
X139577813Y-84310059D01*
X139582827Y-84262353D01*
X139588217Y-84236998D01*
X139604589Y-84186613D01*
X139615128Y-84162941D01*
X139641623Y-84117050D01*
X139656845Y-84096098D01*
X139692304Y-84056716D01*
X139711558Y-84039381D01*
X139719537Y-84033584D01*
X139754426Y-84008234D01*
X139776866Y-83995278D01*
X139825260Y-83973732D01*
X139849909Y-83965724D01*
X139901734Y-83954709D01*
X139927513Y-83952000D01*
X139980489Y-83952000D01*
X140006267Y-83954708D01*
G37*
%TD.AperFunction*%
%TD*%
%TA.AperFunction,Conductor*%
%TO.N,+3V3*%
G36*
X140006267Y-72524708D02*
G01*
X140058086Y-72535722D01*
X140082742Y-72543733D01*
X140131130Y-72565278D01*
X140153582Y-72578242D01*
X140155480Y-72579621D01*
X140179344Y-72595939D01*
X140191252Y-72603591D01*
X140215939Y-72618478D01*
X140215943Y-72618479D01*
X140215949Y-72618483D01*
X140350025Y-72670685D01*
X140418079Y-72686511D01*
X140561430Y-72698825D01*
X140561430Y-72698824D01*
X140561431Y-72698825D01*
X140561432Y-72698824D01*
X140702445Y-72670253D01*
X140765313Y-72647822D01*
X140767222Y-72647196D01*
X140768256Y-72646773D01*
X140768256Y-72646772D01*
X140768262Y-72646771D01*
X140895514Y-72579626D01*
X140897411Y-72578247D01*
X140919873Y-72565275D01*
X140968258Y-72543733D01*
X140992909Y-72535723D01*
X141009624Y-72532171D01*
X141044735Y-72524709D01*
X141070513Y-72522000D01*
X141123489Y-72522000D01*
X141149267Y-72524708D01*
X141201086Y-72535722D01*
X141225742Y-72543733D01*
X141274130Y-72565278D01*
X141296582Y-72578242D01*
X141298480Y-72579621D01*
X141322344Y-72595939D01*
X141334252Y-72603591D01*
X141358939Y-72618478D01*
X141358943Y-72618479D01*
X141358949Y-72618483D01*
X141493025Y-72670685D01*
X141561079Y-72686511D01*
X141704430Y-72698825D01*
X141704430Y-72698824D01*
X141704431Y-72698825D01*
X141704432Y-72698824D01*
X141845445Y-72670253D01*
X141908313Y-72647822D01*
X141910222Y-72647196D01*
X141911256Y-72646773D01*
X141911256Y-72646772D01*
X141911262Y-72646771D01*
X142038514Y-72579626D01*
X142040411Y-72578247D01*
X142062873Y-72565275D01*
X142111258Y-72543733D01*
X142135909Y-72535723D01*
X142152624Y-72532171D01*
X142187735Y-72524709D01*
X142213513Y-72522000D01*
X142266489Y-72522000D01*
X142292267Y-72524708D01*
X142344086Y-72535722D01*
X142368742Y-72543733D01*
X142417130Y-72565278D01*
X142439582Y-72578242D01*
X142441480Y-72579621D01*
X142465344Y-72595939D01*
X142477252Y-72603591D01*
X142501939Y-72618478D01*
X142501943Y-72618479D01*
X142501949Y-72618483D01*
X142636025Y-72670685D01*
X142704079Y-72686511D01*
X142847430Y-72698825D01*
X142847430Y-72698824D01*
X142847431Y-72698825D01*
X142847432Y-72698824D01*
X142988445Y-72670253D01*
X143051313Y-72647822D01*
X143053222Y-72647196D01*
X143054256Y-72646773D01*
X143054256Y-72646772D01*
X143054262Y-72646771D01*
X143181514Y-72579626D01*
X143183411Y-72578247D01*
X143205873Y-72565275D01*
X143254258Y-72543733D01*
X143278909Y-72535723D01*
X143295624Y-72532171D01*
X143330735Y-72524709D01*
X143356513Y-72522000D01*
X143409489Y-72522000D01*
X143435267Y-72524709D01*
X143453985Y-72528687D01*
X143487089Y-72535722D01*
X143511738Y-72543731D01*
X143560130Y-72565277D01*
X143582571Y-72578234D01*
X143625438Y-72609379D01*
X143644699Y-72626722D01*
X143675849Y-72661318D01*
X143680138Y-72666081D01*
X143695379Y-72687057D01*
X143721870Y-72732941D01*
X143732414Y-72756623D01*
X143748781Y-72806995D01*
X143754171Y-72832353D01*
X143759708Y-72885039D01*
X143759708Y-72910959D01*
X143754171Y-72963645D01*
X143748781Y-72989003D01*
X143732414Y-73039375D01*
X143721870Y-73063057D01*
X143695379Y-73108941D01*
X143680141Y-73129914D01*
X143644698Y-73169277D01*
X143625434Y-73186622D01*
X143582579Y-73217758D01*
X143560130Y-73230719D01*
X143511738Y-73252265D01*
X143487084Y-73260276D01*
X143435270Y-73271290D01*
X143409488Y-73274000D01*
X143356511Y-73274000D01*
X143330731Y-73271290D01*
X143302182Y-73265222D01*
X143278910Y-73260275D01*
X143254258Y-73252265D01*
X143248936Y-73249895D01*
X143205869Y-73230720D01*
X143183427Y-73217763D01*
X143181513Y-73216373D01*
X143157669Y-73200069D01*
X143157663Y-73200065D01*
X143145744Y-73192405D01*
X143121061Y-73177522D01*
X143121058Y-73177520D01*
X142986983Y-73125316D01*
X142924567Y-73110801D01*
X142922622Y-73110252D01*
X142918921Y-73109487D01*
X142775569Y-73097173D01*
X142775566Y-73097174D01*
X142634568Y-73125743D01*
X142634550Y-73125747D01*
X142568745Y-73149226D01*
X142441510Y-73216357D01*
X142432912Y-73222603D01*
X142432892Y-73222616D01*
X142432893Y-73222617D01*
X142431477Y-73223646D01*
X142431463Y-73223655D01*
X142391496Y-73252692D01*
X142388257Y-73255066D01*
X142388096Y-73255184D01*
X142388070Y-73255204D01*
X142386830Y-73256118D01*
X142384391Y-73257932D01*
X142384380Y-73257942D01*
X142282641Y-73359677D01*
X142282635Y-73359684D01*
X142240832Y-73415526D01*
X142240773Y-73415605D01*
X142240760Y-73415621D01*
X142240754Y-73415631D01*
X142193363Y-73502425D01*
X142143958Y-73551831D01*
X142084530Y-73567000D01*
X141855000Y-73567000D01*
X141855000Y-74530500D01*
X141835315Y-74597539D01*
X141782511Y-74643294D01*
X141731000Y-74654500D01*
X141605000Y-74654500D01*
X141605000Y-74780500D01*
X141585315Y-74847539D01*
X141532511Y-74893294D01*
X141481000Y-74904500D01*
X140603337Y-74904500D01*
X140559996Y-74928166D01*
X140533638Y-74931000D01*
X139443000Y-74931000D01*
X139375961Y-74911315D01*
X139330206Y-74858511D01*
X139319000Y-74807000D01*
X139319000Y-74555000D01*
X139338685Y-74487961D01*
X139391489Y-74442206D01*
X139443000Y-74431000D01*
X140258163Y-74431000D01*
X140301504Y-74407334D01*
X140327862Y-74404500D01*
X141355000Y-74404500D01*
X141355000Y-73567000D01*
X141080029Y-73567000D01*
X141080012Y-73567001D01*
X140977302Y-73577494D01*
X140810880Y-73632641D01*
X140810875Y-73632643D01*
X140661654Y-73724684D01*
X140537684Y-73848654D01*
X140441851Y-74004025D01*
X140439464Y-74002553D01*
X140401772Y-74045343D01*
X140334574Y-74064480D01*
X140267698Y-74044249D01*
X140247905Y-74028165D01*
X140233061Y-74013321D01*
X140233052Y-74013314D01*
X140084983Y-73925747D01*
X140086217Y-73923659D01*
X140041742Y-73886650D01*
X140020723Y-73820017D01*
X140020899Y-73810496D01*
X140026053Y-73720369D01*
X140020074Y-73650755D01*
X139987487Y-73510617D01*
X139916737Y-73385333D01*
X139874576Y-73330656D01*
X139874125Y-73330063D01*
X139874066Y-73329996D01*
X139816447Y-73274000D01*
X139770888Y-73229724D01*
X139770879Y-73229717D01*
X139770874Y-73229713D01*
X139711561Y-73186619D01*
X139692297Y-73169274D01*
X139674245Y-73149225D01*
X139656853Y-73129908D01*
X139641623Y-73108947D01*
X139615126Y-73063053D01*
X139604589Y-73039387D01*
X139588214Y-72988992D01*
X139582827Y-72963645D01*
X139577290Y-72910958D01*
X139577290Y-72885040D01*
X139577813Y-72880059D01*
X139582827Y-72832353D01*
X139588217Y-72806998D01*
X139604589Y-72756613D01*
X139615128Y-72732941D01*
X139641623Y-72687050D01*
X139656845Y-72666098D01*
X139692304Y-72626716D01*
X139711558Y-72609381D01*
X139719537Y-72603584D01*
X139754426Y-72578234D01*
X139776866Y-72565278D01*
X139825260Y-72543732D01*
X139849909Y-72535724D01*
X139901734Y-72524709D01*
X139927513Y-72522000D01*
X139980489Y-72522000D01*
X140006267Y-72524708D01*
G37*
%TD.AperFunction*%
%TD*%
%TA.AperFunction,Conductor*%
%TO.N,+5V*%
G36*
X132847308Y-70235225D02*
G01*
X133087567Y-70299602D01*
X133470662Y-70360278D01*
X133836576Y-70379455D01*
X133857999Y-70380578D01*
X133858000Y-70380578D01*
X133858001Y-70380578D01*
X133878301Y-70379514D01*
X134245338Y-70360278D01*
X134628433Y-70299602D01*
X134868692Y-70235225D01*
X134900785Y-70231000D01*
X145418000Y-70231000D01*
X145485039Y-70250685D01*
X145530794Y-70303489D01*
X145542000Y-70355000D01*
X145542000Y-89077929D01*
X145522315Y-89144968D01*
X145505681Y-89165610D01*
X143145902Y-91525390D01*
X143033801Y-91637490D01*
X143033799Y-91637493D01*
X142954533Y-91774787D01*
X142913500Y-91927923D01*
X142913500Y-94110000D01*
X142893815Y-94177039D01*
X142841011Y-94222794D01*
X142789500Y-94234000D01*
X135008023Y-94234000D01*
X134940984Y-94214315D01*
X134895229Y-94161511D01*
X134885285Y-94092353D01*
X134914310Y-94028797D01*
X134920342Y-94022319D01*
X134925315Y-94017345D01*
X135017356Y-93868124D01*
X135017358Y-93868119D01*
X135072505Y-93701697D01*
X135072506Y-93701690D01*
X135082999Y-93598986D01*
X135083000Y-93598973D01*
X135083000Y-93461500D01*
X132633001Y-93461500D01*
X132633001Y-93598986D01*
X132643494Y-93701697D01*
X132698641Y-93868119D01*
X132698643Y-93868124D01*
X132790684Y-94017345D01*
X132795658Y-94022319D01*
X132829143Y-94083642D01*
X132824159Y-94153334D01*
X132782287Y-94209267D01*
X132716823Y-94233684D01*
X132707977Y-94234000D01*
X131890285Y-94234000D01*
X131823246Y-94214315D01*
X131777491Y-94161511D01*
X131767547Y-94092353D01*
X131796572Y-94028797D01*
X131804402Y-94021090D01*
X131804250Y-94020938D01*
X131975105Y-93850082D01*
X132110600Y-93656578D01*
X132210429Y-93442492D01*
X132210432Y-93442486D01*
X132267636Y-93229000D01*
X131370012Y-93229000D01*
X131402925Y-93171993D01*
X131437000Y-93044826D01*
X131437000Y-92913174D01*
X131413109Y-92824013D01*
X132633000Y-92824013D01*
X132633000Y-92961500D01*
X133608000Y-92961500D01*
X134108000Y-92961500D01*
X135082999Y-92961500D01*
X135082999Y-92824028D01*
X135082998Y-92824013D01*
X135072505Y-92721302D01*
X135017358Y-92554880D01*
X135017356Y-92554875D01*
X134925315Y-92405654D01*
X134801345Y-92281684D01*
X134652124Y-92189643D01*
X134652119Y-92189641D01*
X134485697Y-92134494D01*
X134485690Y-92134493D01*
X134382986Y-92124000D01*
X134108000Y-92124000D01*
X134108000Y-92961500D01*
X133608000Y-92961500D01*
X133608000Y-92124000D01*
X133333029Y-92124000D01*
X133333012Y-92124001D01*
X133230302Y-92134494D01*
X133063880Y-92189641D01*
X133063875Y-92189643D01*
X132914654Y-92281684D01*
X132790684Y-92405654D01*
X132698643Y-92554875D01*
X132698641Y-92554880D01*
X132643494Y-92721302D01*
X132643493Y-92721309D01*
X132633000Y-92824013D01*
X131413109Y-92824013D01*
X131402925Y-92786007D01*
X131370012Y-92729000D01*
X132267636Y-92729000D01*
X132267635Y-92728999D01*
X132210432Y-92515513D01*
X132210429Y-92515507D01*
X132110600Y-92301422D01*
X132110599Y-92301420D01*
X131975113Y-92107926D01*
X131975108Y-92107920D01*
X131808082Y-91940894D01*
X131621968Y-91810575D01*
X131578344Y-91755998D01*
X131571151Y-91686499D01*
X131602673Y-91624145D01*
X131621968Y-91607425D01*
X131808082Y-91477105D01*
X131975105Y-91310082D01*
X132110600Y-91116578D01*
X132210429Y-90902492D01*
X132210432Y-90902486D01*
X132267636Y-90689000D01*
X131370012Y-90689000D01*
X131402925Y-90631993D01*
X131437000Y-90504826D01*
X131437000Y-90373174D01*
X131402925Y-90246007D01*
X131370012Y-90189000D01*
X132267636Y-90189000D01*
X132267635Y-90188999D01*
X132210432Y-89975513D01*
X132210429Y-89975507D01*
X132110600Y-89761422D01*
X132110599Y-89761420D01*
X131975113Y-89567926D01*
X131975108Y-89567920D01*
X131808082Y-89400894D01*
X131621968Y-89270575D01*
X131578344Y-89215998D01*
X131571151Y-89146499D01*
X131602673Y-89084145D01*
X131621968Y-89067425D01*
X131808082Y-88937105D01*
X131975105Y-88770082D01*
X132110600Y-88576578D01*
X132210429Y-88362492D01*
X132210432Y-88362486D01*
X132267636Y-88149000D01*
X131370012Y-88149000D01*
X131402925Y-88091993D01*
X131437000Y-87964826D01*
X131437000Y-87833174D01*
X131402925Y-87706007D01*
X131370012Y-87649000D01*
X132267636Y-87649000D01*
X132267635Y-87648999D01*
X132210432Y-87435513D01*
X132210429Y-87435507D01*
X132110600Y-87221422D01*
X132110599Y-87221420D01*
X131975113Y-87027926D01*
X131975108Y-87027920D01*
X131865988Y-86918800D01*
X134622644Y-86918800D01*
X134642013Y-87103086D01*
X134642014Y-87103088D01*
X134699274Y-87279314D01*
X134753107Y-87372556D01*
X134791923Y-87439787D01*
X134817868Y-87468602D01*
X134915906Y-87577486D01*
X134915909Y-87577488D01*
X134915912Y-87577491D01*
X135014336Y-87649000D01*
X135065822Y-87686407D01*
X135235095Y-87761773D01*
X135235098Y-87761773D01*
X135235101Y-87761775D01*
X135416351Y-87800300D01*
X135601648Y-87800300D01*
X135601649Y-87800300D01*
X135720221Y-87775097D01*
X135789886Y-87780413D01*
X135845620Y-87822550D01*
X135869725Y-87888130D01*
X135870000Y-87896387D01*
X135870000Y-88094701D01*
X135872901Y-88131567D01*
X135872902Y-88131573D01*
X135918754Y-88289393D01*
X135918755Y-88289396D01*
X136002232Y-88430550D01*
X136002418Y-88430864D01*
X136002423Y-88430870D01*
X136118629Y-88547076D01*
X136118633Y-88547079D01*
X136118635Y-88547081D01*
X136260102Y-88630744D01*
X136268592Y-88633210D01*
X136327477Y-88670813D01*
X136356686Y-88734284D01*
X136358000Y-88752287D01*
X136358000Y-88821270D01*
X136338315Y-88888309D01*
X136321681Y-88908951D01*
X136233289Y-88997342D01*
X136141187Y-89146663D01*
X136141185Y-89146668D01*
X136126329Y-89191501D01*
X136086001Y-89313203D01*
X136086001Y-89313204D01*
X136086000Y-89313204D01*
X136075500Y-89415983D01*
X136075500Y-90416001D01*
X136075501Y-90416019D01*
X136086000Y-90518796D01*
X136086001Y-90518799D01*
X136141115Y-90685119D01*
X136141186Y-90685334D01*
X136233288Y-90834656D01*
X136357344Y-90958712D01*
X136506666Y-91050814D01*
X136673203Y-91105999D01*
X136775991Y-91116500D01*
X137576008Y-91116499D01*
X137576016Y-91116498D01*
X137576019Y-91116498D01*
X137632302Y-91110748D01*
X137678797Y-91105999D01*
X137845334Y-91050814D01*
X137994656Y-90958712D01*
X138088675Y-90864692D01*
X138149994Y-90831210D01*
X138219686Y-90836194D01*
X138264034Y-90864695D01*
X138357654Y-90958315D01*
X138506875Y-91050356D01*
X138506880Y-91050358D01*
X138673302Y-91105505D01*
X138673309Y-91105506D01*
X138776019Y-91115999D01*
X138925999Y-91115999D01*
X139426000Y-91115999D01*
X139575972Y-91115999D01*
X139575986Y-91115998D01*
X139678697Y-91105505D01*
X139845119Y-91050358D01*
X139845124Y-91050356D01*
X139994345Y-90958315D01*
X140118315Y-90834345D01*
X140210356Y-90685124D01*
X140210358Y-90685119D01*
X140265505Y-90518697D01*
X140265506Y-90518690D01*
X140275999Y-90415986D01*
X140276000Y-90415973D01*
X140276000Y-90166000D01*
X139426000Y-90166000D01*
X139426000Y-91115999D01*
X138925999Y-91115999D01*
X138926000Y-91115998D01*
X138926000Y-90040000D01*
X138945685Y-89972961D01*
X138998489Y-89927206D01*
X139050000Y-89916000D01*
X139176000Y-89916000D01*
X139176000Y-89790000D01*
X139195685Y-89722961D01*
X139248489Y-89677206D01*
X139300000Y-89666000D01*
X140275999Y-89666000D01*
X140275999Y-89416028D01*
X140275998Y-89416013D01*
X140265505Y-89313302D01*
X140210358Y-89146880D01*
X140210356Y-89146875D01*
X140118315Y-88997654D01*
X139994343Y-88873682D01*
X139992097Y-88872297D01*
X139990879Y-88870943D01*
X139988677Y-88869202D01*
X139988974Y-88868825D01*
X139945372Y-88820350D01*
X139934149Y-88751387D01*
X139961992Y-88687305D01*
X140020061Y-88648448D01*
X140022548Y-88647696D01*
X140080898Y-88630744D01*
X140207598Y-88555813D01*
X140275322Y-88538631D01*
X140341585Y-88560791D01*
X140385348Y-88615257D01*
X140388425Y-88623542D01*
X140445185Y-88794831D01*
X140445187Y-88794836D01*
X140446331Y-88796691D01*
X140537288Y-88944156D01*
X140661344Y-89068212D01*
X140810666Y-89160314D01*
X140977203Y-89215499D01*
X141079991Y-89226000D01*
X142130008Y-89225999D01*
X142130016Y-89225998D01*
X142130019Y-89225998D01*
X142186302Y-89220248D01*
X142232797Y-89215499D01*
X142399334Y-89160314D01*
X142548656Y-89068212D01*
X142604777Y-89012090D01*
X142666096Y-88978608D01*
X142721372Y-88981372D01*
X142721744Y-88979624D01*
X142758413Y-88987418D01*
X142909351Y-89019500D01*
X143094649Y-89019500D01*
X143275899Y-88980975D01*
X143275902Y-88980973D01*
X143275904Y-88980973D01*
X143358593Y-88944157D01*
X143445178Y-88905607D01*
X143595088Y-88796691D01*
X143596759Y-88794836D01*
X143651279Y-88734284D01*
X143719077Y-88658987D01*
X143811726Y-88498513D01*
X143868987Y-88322284D01*
X143888356Y-88138000D01*
X143868987Y-87953716D01*
X143811726Y-87777487D01*
X143719077Y-87617013D01*
X143624691Y-87512186D01*
X143595093Y-87479313D01*
X143595090Y-87479311D01*
X143595089Y-87479310D01*
X143595088Y-87479309D01*
X143445178Y-87370393D01*
X143445177Y-87370392D01*
X143275904Y-87295026D01*
X143275896Y-87295024D01*
X143094649Y-87256500D01*
X142909351Y-87256500D01*
X142721744Y-87296376D01*
X142721331Y-87294433D01*
X142660897Y-87296142D01*
X142604774Y-87263906D01*
X142548658Y-87207790D01*
X142548656Y-87207788D01*
X142545819Y-87206038D01*
X142544283Y-87204330D01*
X142542989Y-87203307D01*
X142543163Y-87203085D01*
X142499096Y-87154094D01*
X142487872Y-87085132D01*
X142515713Y-87021049D01*
X142545817Y-86994962D01*
X142548656Y-86993212D01*
X142672712Y-86869156D01*
X142764814Y-86719834D01*
X142819999Y-86553297D01*
X142830500Y-86450509D01*
X142830499Y-85675492D01*
X142819999Y-85572703D01*
X142764814Y-85406166D01*
X142672712Y-85256844D01*
X142672710Y-85256842D01*
X142668920Y-85250697D01*
X142671129Y-85249334D01*
X142649526Y-85195789D01*
X142662564Y-85127146D01*
X142700047Y-85083351D01*
X142738615Y-85055330D01*
X142804422Y-85031850D01*
X142872475Y-85047676D01*
X142884386Y-85055330D01*
X142939822Y-85095607D01*
X143109095Y-85170973D01*
X143109098Y-85170973D01*
X143109101Y-85170975D01*
X143290351Y-85209500D01*
X143475649Y-85209500D01*
X143656899Y-85170975D01*
X143656902Y-85170973D01*
X143656904Y-85170973D01*
X143755340Y-85127146D01*
X143826178Y-85095607D01*
X143976088Y-84986691D01*
X144100077Y-84848987D01*
X144192726Y-84688513D01*
X144249987Y-84512284D01*
X144269356Y-84328000D01*
X144249987Y-84143716D01*
X144192726Y-83967487D01*
X144100077Y-83807013D01*
X144051514Y-83753078D01*
X143976093Y-83669313D01*
X143976090Y-83669311D01*
X143976089Y-83669310D01*
X143976088Y-83669309D01*
X143826178Y-83560393D01*
X143826177Y-83560392D01*
X143656904Y-83485026D01*
X143656896Y-83485024D01*
X143475649Y-83446500D01*
X143290351Y-83446500D01*
X143109103Y-83485024D01*
X143109095Y-83485026D01*
X142939822Y-83560392D01*
X142884385Y-83600670D01*
X142818578Y-83624149D01*
X142750524Y-83608323D01*
X142738615Y-83600670D01*
X142683177Y-83560392D01*
X142513904Y-83485026D01*
X142513896Y-83485024D01*
X142332649Y-83446500D01*
X142147351Y-83446500D01*
X141966103Y-83485024D01*
X141966095Y-83485026D01*
X141796822Y-83560392D01*
X141741385Y-83600670D01*
X141675578Y-83624149D01*
X141607524Y-83608323D01*
X141595615Y-83600670D01*
X141540177Y-83560392D01*
X141370904Y-83485026D01*
X141370896Y-83485024D01*
X141189649Y-83446500D01*
X141004351Y-83446500D01*
X140823103Y-83485024D01*
X140823095Y-83485026D01*
X140653822Y-83560392D01*
X140598385Y-83600670D01*
X140532578Y-83624149D01*
X140464524Y-83608323D01*
X140452615Y-83600670D01*
X140397177Y-83560392D01*
X140227904Y-83485026D01*
X140227896Y-83485024D01*
X140046649Y-83446500D01*
X139861351Y-83446500D01*
X139680103Y-83485024D01*
X139680095Y-83485026D01*
X139510822Y-83560392D01*
X139360909Y-83669311D01*
X139360906Y-83669313D01*
X139236922Y-83807014D01*
X139144274Y-83967485D01*
X139087014Y-84143711D01*
X139087013Y-84143713D01*
X139067644Y-84328000D01*
X139087013Y-84512286D01*
X139087014Y-84512288D01*
X139144274Y-84688514D01*
X139236920Y-84848982D01*
X139236923Y-84848987D01*
X139322433Y-84943956D01*
X139331502Y-84954028D01*
X139361731Y-85017020D01*
X139353105Y-85086355D01*
X139308364Y-85140021D01*
X139241711Y-85160978D01*
X139239351Y-85161000D01*
X139227433Y-85161000D01*
X139202262Y-85166007D01*
X139151434Y-85176117D01*
X139127244Y-85178500D01*
X138729798Y-85178500D01*
X138692932Y-85181401D01*
X138692926Y-85181402D01*
X138535106Y-85227254D01*
X138535103Y-85227255D01*
X138393637Y-85310917D01*
X138393629Y-85310923D01*
X138277423Y-85427129D01*
X138277413Y-85427142D01*
X138276934Y-85427953D01*
X138276393Y-85428457D01*
X138272639Y-85433298D01*
X138271857Y-85432691D01*
X138225860Y-85475631D01*
X138157117Y-85488127D01*
X138092530Y-85461474D01*
X138068216Y-85433410D01*
X138067963Y-85433607D01*
X138064341Y-85428937D01*
X138063476Y-85427939D01*
X138063185Y-85427447D01*
X138063178Y-85427438D01*
X137947061Y-85311321D01*
X137947052Y-85311314D01*
X137805696Y-85227717D01*
X137805693Y-85227716D01*
X137647995Y-85181900D01*
X137647989Y-85181899D01*
X137611149Y-85179000D01*
X137283000Y-85179000D01*
X137283000Y-85855000D01*
X137263315Y-85922039D01*
X137210511Y-85967794D01*
X137159000Y-85979000D01*
X137033000Y-85979000D01*
X137033000Y-85987000D01*
X137013315Y-86054039D01*
X136960511Y-86099794D01*
X136909000Y-86111000D01*
X135888261Y-86111000D01*
X135837826Y-86100280D01*
X135782900Y-86075825D01*
X135782896Y-86075824D01*
X135601649Y-86037300D01*
X135416351Y-86037300D01*
X135235103Y-86075824D01*
X135235095Y-86075826D01*
X135065822Y-86151192D01*
X134915909Y-86260111D01*
X134915906Y-86260113D01*
X134791922Y-86397814D01*
X134699274Y-86558285D01*
X134642014Y-86734511D01*
X134642013Y-86734513D01*
X134622644Y-86918800D01*
X131865988Y-86918800D01*
X131852665Y-86905477D01*
X131819180Y-86844154D01*
X131824164Y-86774462D01*
X131866036Y-86718529D01*
X131897013Y-86701614D01*
X132029086Y-86652354D01*
X132029093Y-86652350D01*
X132144187Y-86566190D01*
X132144190Y-86566187D01*
X132230350Y-86451093D01*
X132230354Y-86451086D01*
X132280596Y-86316379D01*
X132280598Y-86316372D01*
X132286999Y-86256844D01*
X132287000Y-86256827D01*
X132287000Y-85728998D01*
X135873204Y-85728998D01*
X135873205Y-85729000D01*
X136783000Y-85729000D01*
X136783000Y-85179000D01*
X136454850Y-85179000D01*
X136418010Y-85181899D01*
X136418004Y-85181900D01*
X136260306Y-85227716D01*
X136260303Y-85227717D01*
X136118947Y-85311314D01*
X136118938Y-85311321D01*
X136002821Y-85427438D01*
X136002814Y-85427447D01*
X135919218Y-85568801D01*
X135873399Y-85726513D01*
X135873204Y-85728998D01*
X132287000Y-85728998D01*
X132287000Y-85609000D01*
X131370012Y-85609000D01*
X131402925Y-85551993D01*
X131437000Y-85424826D01*
X131437000Y-85293174D01*
X131402925Y-85166007D01*
X131370012Y-85109000D01*
X132287000Y-85109000D01*
X132287000Y-84461172D01*
X132286999Y-84461155D01*
X132280598Y-84401627D01*
X132280596Y-84401620D01*
X132230354Y-84266913D01*
X132230350Y-84266906D01*
X132144190Y-84151812D01*
X132144187Y-84151809D01*
X132029093Y-84065649D01*
X132029086Y-84065645D01*
X131894379Y-84015403D01*
X131894372Y-84015401D01*
X131834844Y-84009000D01*
X131187000Y-84009000D01*
X131187000Y-84925988D01*
X131129993Y-84893075D01*
X131002826Y-84859000D01*
X130871174Y-84859000D01*
X130744007Y-84893075D01*
X130687000Y-84925988D01*
X130687000Y-84009000D01*
X130039155Y-84009000D01*
X129979627Y-84015401D01*
X129979620Y-84015403D01*
X129844913Y-84065645D01*
X129844906Y-84065649D01*
X129729812Y-84151809D01*
X129729809Y-84151812D01*
X129643649Y-84266906D01*
X129643645Y-84266913D01*
X129593403Y-84401620D01*
X129593401Y-84401627D01*
X129587000Y-84461155D01*
X129587000Y-85109000D01*
X130503988Y-85109000D01*
X130471075Y-85166007D01*
X130437000Y-85293174D01*
X130437000Y-85424826D01*
X130471075Y-85551993D01*
X130503988Y-85609000D01*
X129587000Y-85609000D01*
X129587000Y-86256844D01*
X129593401Y-86316372D01*
X129593403Y-86316379D01*
X129643645Y-86451086D01*
X129643649Y-86451093D01*
X129729809Y-86566187D01*
X129729812Y-86566190D01*
X129844906Y-86652350D01*
X129844913Y-86652354D01*
X129976986Y-86701614D01*
X130032920Y-86743485D01*
X130057337Y-86808949D01*
X130042486Y-86877222D01*
X130021335Y-86905477D01*
X129898886Y-87027926D01*
X129763400Y-87221420D01*
X129763399Y-87221422D01*
X129663570Y-87435507D01*
X129663567Y-87435513D01*
X129606364Y-87648999D01*
X129606364Y-87649000D01*
X130503988Y-87649000D01*
X130471075Y-87706007D01*
X130437000Y-87833174D01*
X130437000Y-87964826D01*
X130471075Y-88091993D01*
X130503988Y-88149000D01*
X129606364Y-88149000D01*
X129663567Y-88362486D01*
X129663570Y-88362492D01*
X129763399Y-88576578D01*
X129898894Y-88770082D01*
X130065917Y-88937105D01*
X130252031Y-89067425D01*
X130295656Y-89122003D01*
X130302848Y-89191501D01*
X130271326Y-89253856D01*
X130252031Y-89270575D01*
X130065922Y-89400890D01*
X130065920Y-89400891D01*
X129898891Y-89567920D01*
X129898886Y-89567926D01*
X129763400Y-89761420D01*
X129763399Y-89761422D01*
X129663570Y-89975507D01*
X129663567Y-89975513D01*
X129606364Y-90188999D01*
X129606364Y-90189000D01*
X130503988Y-90189000D01*
X130471075Y-90246007D01*
X130437000Y-90373174D01*
X130437000Y-90504826D01*
X130471075Y-90631993D01*
X130503988Y-90689000D01*
X129606364Y-90689000D01*
X129663567Y-90902486D01*
X129663570Y-90902492D01*
X129763399Y-91116578D01*
X129898894Y-91310082D01*
X130065917Y-91477105D01*
X130252031Y-91607425D01*
X130295656Y-91662003D01*
X130302848Y-91731501D01*
X130271326Y-91793856D01*
X130252031Y-91810575D01*
X130065922Y-91940890D01*
X130065920Y-91940891D01*
X129898891Y-92107920D01*
X129898886Y-92107926D01*
X129763400Y-92301420D01*
X129763399Y-92301422D01*
X129663570Y-92515507D01*
X129663567Y-92515513D01*
X129606364Y-92728999D01*
X129606364Y-92729000D01*
X130503988Y-92729000D01*
X130471075Y-92786007D01*
X130437000Y-92913174D01*
X130437000Y-93044826D01*
X130471075Y-93171993D01*
X130503988Y-93229000D01*
X129606364Y-93229000D01*
X129663567Y-93442486D01*
X129663570Y-93442492D01*
X129763399Y-93656578D01*
X129898894Y-93850082D01*
X130069750Y-94020938D01*
X130068316Y-94022371D01*
X130102121Y-94073175D01*
X130103233Y-94143036D01*
X130066400Y-94202408D01*
X130003314Y-94232441D01*
X129983715Y-94234000D01*
X129283000Y-94234000D01*
X129215961Y-94214315D01*
X129170206Y-94161511D01*
X129159000Y-94110000D01*
X129159000Y-77836730D01*
X129178685Y-77769691D01*
X129231489Y-77723936D01*
X129300647Y-77713992D01*
X129364203Y-77743017D01*
X129370681Y-77749049D01*
X129375288Y-77753656D01*
X129499344Y-77877712D01*
X129648666Y-77969814D01*
X129815203Y-78024999D01*
X129917991Y-78035500D01*
X130718008Y-78035499D01*
X130718016Y-78035498D01*
X130718019Y-78035498D01*
X130774302Y-78029748D01*
X130820797Y-78024999D01*
X130987334Y-77969814D01*
X131136656Y-77877712D01*
X131230319Y-77784049D01*
X131291642Y-77750564D01*
X131361334Y-77755548D01*
X131405681Y-77784049D01*
X131499344Y-77877712D01*
X131648666Y-77969814D01*
X131815203Y-78024999D01*
X131917991Y-78035500D01*
X132718008Y-78035499D01*
X132718016Y-78035498D01*
X132718019Y-78035498D01*
X132774302Y-78029748D01*
X132820797Y-78024999D01*
X132987334Y-77969814D01*
X133136656Y-77877712D01*
X133260712Y-77753656D01*
X133282726Y-77717964D01*
X133334671Y-77671241D01*
X133403634Y-77660018D01*
X133438698Y-77669782D01*
X133451565Y-77675510D01*
X133457101Y-77677975D01*
X133638351Y-77716500D01*
X133823649Y-77716500D01*
X134004899Y-77677975D01*
X134004902Y-77677973D01*
X134004904Y-77677973D01*
X134138715Y-77618396D01*
X134174178Y-77602607D01*
X134324088Y-77493691D01*
X134448077Y-77355987D01*
X134540726Y-77195513D01*
X134597987Y-77019284D01*
X134617356Y-76835000D01*
X134597987Y-76650716D01*
X134540726Y-76474487D01*
X134540430Y-76473975D01*
X134496917Y-76398607D01*
X134448077Y-76314013D01*
X134380718Y-76239203D01*
X134324093Y-76176313D01*
X134324090Y-76176311D01*
X134324089Y-76176310D01*
X134324088Y-76176309D01*
X134224148Y-76103698D01*
X134174177Y-76067392D01*
X134004904Y-75992026D01*
X134004896Y-75992024D01*
X133823649Y-75953500D01*
X133638351Y-75953500D01*
X133457104Y-75992024D01*
X133457097Y-75992026D01*
X133438694Y-76000219D01*
X133369443Y-76009500D01*
X133306168Y-75979869D01*
X133282725Y-75952033D01*
X133260712Y-75916344D01*
X133136656Y-75792288D01*
X133136652Y-75792285D01*
X133049687Y-75738644D01*
X133002962Y-75686696D01*
X132993900Y-75631000D01*
X134688644Y-75631000D01*
X134708013Y-75815286D01*
X134708014Y-75815288D01*
X134765274Y-75991514D01*
X134838343Y-76118074D01*
X134857923Y-76151987D01*
X134883680Y-76180593D01*
X134981906Y-76289686D01*
X134981909Y-76289688D01*
X134981912Y-76289691D01*
X135085014Y-76364599D01*
X135131822Y-76398607D01*
X135301095Y-76473973D01*
X135301098Y-76473973D01*
X135301101Y-76473975D01*
X135482351Y-76512500D01*
X135667649Y-76512500D01*
X135724123Y-76500496D01*
X135731220Y-76498988D01*
X135800887Y-76504304D01*
X135856620Y-76546442D01*
X135880725Y-76612022D01*
X135881000Y-76620278D01*
X135881000Y-76796701D01*
X135883901Y-76833567D01*
X135883902Y-76833573D01*
X135929754Y-76991393D01*
X135929755Y-76991396D01*
X136013232Y-77132550D01*
X136013418Y-77132864D01*
X136013423Y-77132870D01*
X136129629Y-77249076D01*
X136129635Y-77249081D01*
X136225742Y-77305918D01*
X136273424Y-77356985D01*
X136285928Y-77425727D01*
X136259283Y-77490316D01*
X136250302Y-77500329D01*
X136208289Y-77542342D01*
X136116187Y-77691663D01*
X136116185Y-77691668D01*
X136091709Y-77765532D01*
X136061001Y-77858203D01*
X136061001Y-77858204D01*
X136061000Y-77858204D01*
X136050500Y-77960983D01*
X136050500Y-79011001D01*
X136050501Y-79011019D01*
X136061000Y-79113796D01*
X136061001Y-79113799D01*
X136116185Y-79280331D01*
X136116186Y-79280334D01*
X136169949Y-79367499D01*
X136208289Y-79429657D01*
X136321681Y-79543049D01*
X136355166Y-79604372D01*
X136358000Y-79630730D01*
X136358000Y-79677270D01*
X136338315Y-79744309D01*
X136321681Y-79764951D01*
X136233289Y-79853342D01*
X136141187Y-80002663D01*
X136141185Y-80002668D01*
X136141115Y-80002880D01*
X136086001Y-80169203D01*
X136086001Y-80169204D01*
X136086000Y-80169204D01*
X136075500Y-80271983D01*
X136075500Y-81272001D01*
X136075501Y-81272019D01*
X136086000Y-81374796D01*
X136086001Y-81374799D01*
X136141115Y-81541119D01*
X136141186Y-81541334D01*
X136233288Y-81690656D01*
X136357344Y-81814712D01*
X136506666Y-81906814D01*
X136673203Y-81961999D01*
X136775991Y-81972500D01*
X137576008Y-81972499D01*
X137576016Y-81972498D01*
X137576019Y-81972498D01*
X137632302Y-81966748D01*
X137678797Y-81961999D01*
X137845334Y-81906814D01*
X137994656Y-81814712D01*
X138088675Y-81720692D01*
X138149994Y-81687210D01*
X138219686Y-81692194D01*
X138264034Y-81720695D01*
X138357654Y-81814315D01*
X138506875Y-81906356D01*
X138506880Y-81906358D01*
X138673302Y-81961505D01*
X138673309Y-81961506D01*
X138776019Y-81971999D01*
X138925999Y-81971999D01*
X139426000Y-81971999D01*
X139575972Y-81971999D01*
X139575986Y-81971998D01*
X139678697Y-81961505D01*
X139845119Y-81906358D01*
X139845124Y-81906356D01*
X139994345Y-81814315D01*
X140118315Y-81690345D01*
X140210356Y-81541124D01*
X140210358Y-81541119D01*
X140265505Y-81374697D01*
X140265506Y-81374690D01*
X140275999Y-81271986D01*
X140276000Y-81271973D01*
X140276000Y-81022000D01*
X139426000Y-81022000D01*
X139426000Y-81971999D01*
X138925999Y-81971999D01*
X138926000Y-81971998D01*
X138926000Y-80896000D01*
X138945685Y-80828961D01*
X138998489Y-80783206D01*
X139050000Y-80772000D01*
X139176000Y-80772000D01*
X139176000Y-80646000D01*
X139195685Y-80578961D01*
X139248489Y-80533206D01*
X139300000Y-80522000D01*
X140275999Y-80522000D01*
X140275999Y-80272028D01*
X140275998Y-80272013D01*
X140265505Y-80169302D01*
X140210358Y-80002880D01*
X140210356Y-80002875D01*
X140118315Y-79853654D01*
X140005777Y-79741116D01*
X139972292Y-79679793D01*
X139977276Y-79610101D01*
X140014590Y-79558860D01*
X140014549Y-79558819D01*
X140014814Y-79558553D01*
X140016556Y-79556162D01*
X140019646Y-79553717D01*
X140019656Y-79553712D01*
X140143712Y-79429656D01*
X140157896Y-79406658D01*
X140209838Y-79359937D01*
X140278800Y-79348712D01*
X140289198Y-79350463D01*
X140369351Y-79367500D01*
X140369352Y-79367500D01*
X140554649Y-79367500D01*
X140735899Y-79328975D01*
X140735902Y-79328973D01*
X140735904Y-79328973D01*
X140792922Y-79303586D01*
X140905178Y-79253607D01*
X141055088Y-79144691D01*
X141082904Y-79113799D01*
X141179072Y-79006993D01*
X141179072Y-79006991D01*
X141179077Y-79006987D01*
X141181569Y-79002669D01*
X141232129Y-78954453D01*
X141300735Y-78941223D01*
X141327279Y-78946733D01*
X141331095Y-78947972D01*
X141331101Y-78947975D01*
X141512351Y-78986500D01*
X141697649Y-78986500D01*
X141878899Y-78947975D01*
X141878902Y-78947973D01*
X141878904Y-78947973D01*
X141935922Y-78922586D01*
X142048178Y-78872607D01*
X142198088Y-78763691D01*
X142322077Y-78625987D01*
X142414726Y-78465513D01*
X142471987Y-78289284D01*
X142491356Y-78105000D01*
X142471987Y-77920716D01*
X142444256Y-77835372D01*
X142442262Y-77765532D01*
X142478342Y-77705699D01*
X142497087Y-77691519D01*
X142548656Y-77659712D01*
X142672712Y-77535656D01*
X142764814Y-77386334D01*
X142819999Y-77219797D01*
X142830500Y-77117009D01*
X142830499Y-76341992D01*
X142825156Y-76289691D01*
X142819999Y-76239203D01*
X142819998Y-76239200D01*
X142816055Y-76227302D01*
X142764814Y-76072666D01*
X142672712Y-75923344D01*
X142548656Y-75799288D01*
X142545819Y-75797538D01*
X142544283Y-75795830D01*
X142542989Y-75794807D01*
X142543163Y-75794585D01*
X142499096Y-75745594D01*
X142487872Y-75676632D01*
X142515713Y-75612549D01*
X142545817Y-75586462D01*
X142548656Y-75584712D01*
X142672712Y-75460656D01*
X142764814Y-75311334D01*
X142819999Y-75144797D01*
X142830500Y-75042009D01*
X142830499Y-74266992D01*
X142819999Y-74164203D01*
X142764814Y-73997666D01*
X142672712Y-73848344D01*
X142672709Y-73848341D01*
X142668234Y-73842681D01*
X142669590Y-73841608D01*
X142640452Y-73788246D01*
X142645436Y-73718554D01*
X142687308Y-73662621D01*
X142688617Y-73661654D01*
X142728584Y-73632617D01*
X142738616Y-73625329D01*
X142804423Y-73601850D01*
X142872477Y-73617677D01*
X142884386Y-73625330D01*
X142939822Y-73665607D01*
X143109095Y-73740973D01*
X143109098Y-73740973D01*
X143109101Y-73740975D01*
X143290351Y-73779500D01*
X143475649Y-73779500D01*
X143656899Y-73740975D01*
X143656902Y-73740973D01*
X143656904Y-73740973D01*
X143713922Y-73715586D01*
X143826178Y-73665607D01*
X143976088Y-73556691D01*
X144100077Y-73418987D01*
X144192726Y-73258513D01*
X144249987Y-73082284D01*
X144269356Y-72898000D01*
X144249987Y-72713716D01*
X144192726Y-72537487D01*
X144100077Y-72377013D01*
X144051514Y-72323078D01*
X143976093Y-72239313D01*
X143976090Y-72239311D01*
X143976089Y-72239310D01*
X143976088Y-72239309D01*
X143826178Y-72130393D01*
X143826177Y-72130392D01*
X143656904Y-72055026D01*
X143656896Y-72055024D01*
X143475649Y-72016500D01*
X143290351Y-72016500D01*
X143109103Y-72055024D01*
X143109095Y-72055026D01*
X142939822Y-72130392D01*
X142884385Y-72170670D01*
X142818578Y-72194149D01*
X142750524Y-72178323D01*
X142738615Y-72170670D01*
X142683177Y-72130392D01*
X142513904Y-72055026D01*
X142513896Y-72055024D01*
X142332649Y-72016500D01*
X142147351Y-72016500D01*
X141966103Y-72055024D01*
X141966095Y-72055026D01*
X141796822Y-72130392D01*
X141741385Y-72170670D01*
X141675578Y-72194149D01*
X141607524Y-72178323D01*
X141595615Y-72170670D01*
X141540177Y-72130392D01*
X141370904Y-72055026D01*
X141370896Y-72055024D01*
X141189649Y-72016500D01*
X141004351Y-72016500D01*
X140823103Y-72055024D01*
X140823095Y-72055026D01*
X140653822Y-72130392D01*
X140598385Y-72170670D01*
X140532578Y-72194149D01*
X140464524Y-72178323D01*
X140452615Y-72170670D01*
X140397177Y-72130392D01*
X140227904Y-72055026D01*
X140227896Y-72055024D01*
X140046649Y-72016500D01*
X139861351Y-72016500D01*
X139680103Y-72055024D01*
X139680095Y-72055026D01*
X139510822Y-72130392D01*
X139360909Y-72239311D01*
X139360906Y-72239313D01*
X139236922Y-72377014D01*
X139144274Y-72537485D01*
X139087014Y-72713711D01*
X139087013Y-72713713D01*
X139067644Y-72898000D01*
X139087013Y-73082286D01*
X139087014Y-73082288D01*
X139144274Y-73258514D01*
X139217343Y-73385074D01*
X139236923Y-73418987D01*
X139273074Y-73459137D01*
X139360906Y-73556686D01*
X139360909Y-73556688D01*
X139360912Y-73556691D01*
X139473763Y-73638682D01*
X139516428Y-73694012D01*
X139522407Y-73763626D01*
X139489801Y-73825421D01*
X139428962Y-73859778D01*
X139400877Y-73863000D01*
X139238433Y-73863000D01*
X139195590Y-73871521D01*
X139162434Y-73878117D01*
X139138244Y-73880500D01*
X138740798Y-73880500D01*
X138703932Y-73883401D01*
X138703926Y-73883402D01*
X138546106Y-73929254D01*
X138546103Y-73929255D01*
X138404637Y-74012917D01*
X138404629Y-74012923D01*
X138288423Y-74129129D01*
X138288413Y-74129142D01*
X138287934Y-74129953D01*
X138287393Y-74130457D01*
X138283639Y-74135298D01*
X138282857Y-74134691D01*
X138236860Y-74177631D01*
X138168117Y-74190127D01*
X138103530Y-74163474D01*
X138079216Y-74135410D01*
X138078963Y-74135607D01*
X138075341Y-74130937D01*
X138074476Y-74129939D01*
X138074185Y-74129447D01*
X138074178Y-74129438D01*
X137958061Y-74013321D01*
X137958052Y-74013314D01*
X137816696Y-73929717D01*
X137816693Y-73929716D01*
X137658995Y-73883900D01*
X137658989Y-73883899D01*
X137622149Y-73881000D01*
X137294000Y-73881000D01*
X137294000Y-74557000D01*
X137274315Y-74624039D01*
X137221511Y-74669794D01*
X137170000Y-74681000D01*
X137044000Y-74681000D01*
X137044000Y-74689000D01*
X137024315Y-74756039D01*
X136971511Y-74801794D01*
X136920000Y-74813000D01*
X135931351Y-74813000D01*
X135880916Y-74802280D01*
X135848899Y-74788025D01*
X135848897Y-74788024D01*
X135848896Y-74788024D01*
X135667649Y-74749500D01*
X135482351Y-74749500D01*
X135301103Y-74788024D01*
X135301095Y-74788026D01*
X135131822Y-74863392D01*
X134981909Y-74972311D01*
X134981906Y-74972313D01*
X134857922Y-75110014D01*
X134765274Y-75270485D01*
X134708014Y-75446711D01*
X134708013Y-75446713D01*
X134688644Y-75631000D01*
X132993900Y-75631000D01*
X132991741Y-75617734D01*
X133019584Y-75553652D01*
X133027093Y-75545435D01*
X133057026Y-75515503D01*
X133067206Y-75498999D01*
X133084228Y-75471403D01*
X133136176Y-75424678D01*
X133189766Y-75412500D01*
X133286635Y-75412500D01*
X133312415Y-75415210D01*
X133312867Y-75415306D01*
X133384351Y-75430500D01*
X133569649Y-75430500D01*
X133750899Y-75391975D01*
X133750902Y-75391973D01*
X133750904Y-75391973D01*
X133856159Y-75345110D01*
X133920178Y-75316607D01*
X134070088Y-75207691D01*
X134074840Y-75202414D01*
X134117532Y-75154999D01*
X134194077Y-75069987D01*
X134286726Y-74909513D01*
X134343987Y-74733284D01*
X134363356Y-74549000D01*
X134350954Y-74430998D01*
X135884204Y-74430998D01*
X135884205Y-74431000D01*
X136794000Y-74431000D01*
X136794000Y-73881000D01*
X136465850Y-73881000D01*
X136429010Y-73883899D01*
X136429004Y-73883900D01*
X136271306Y-73929716D01*
X136271303Y-73929717D01*
X136129947Y-74013314D01*
X136129938Y-74013321D01*
X136013821Y-74129438D01*
X136013814Y-74129447D01*
X135930218Y-74270801D01*
X135884399Y-74428513D01*
X135884204Y-74430998D01*
X134350954Y-74430998D01*
X134343987Y-74364716D01*
X134286726Y-74188487D01*
X134194077Y-74028013D01*
X134145514Y-73974078D01*
X134070093Y-73890313D01*
X134070090Y-73890311D01*
X134070089Y-73890310D01*
X134070088Y-73890309D01*
X133970148Y-73817698D01*
X133920177Y-73781392D01*
X133750904Y-73706026D01*
X133750896Y-73706024D01*
X133569649Y-73667500D01*
X133384351Y-73667500D01*
X133203104Y-73706024D01*
X133203096Y-73706026D01*
X133202042Y-73706496D01*
X133201378Y-73706584D01*
X133196918Y-73708034D01*
X133196652Y-73707217D01*
X133132791Y-73715771D01*
X133069518Y-73686133D01*
X133062264Y-73678472D01*
X133062133Y-73678604D01*
X132934003Y-73550474D01*
X132933999Y-73550471D01*
X132785933Y-73459142D01*
X132785927Y-73459139D01*
X132785925Y-73459138D01*
X132664751Y-73418985D01*
X132620776Y-73404413D01*
X132518855Y-73394000D01*
X132518848Y-73394000D01*
X131932152Y-73394000D01*
X131932144Y-73394000D01*
X131830223Y-73404413D01*
X131665077Y-73459137D01*
X131665066Y-73459142D01*
X131517000Y-73550471D01*
X131516996Y-73550474D01*
X131393974Y-73673496D01*
X131393971Y-73673500D01*
X131393538Y-73674203D01*
X131393114Y-73674583D01*
X131389493Y-73679164D01*
X131388710Y-73678545D01*
X131341590Y-73720928D01*
X131272628Y-73732149D01*
X131208546Y-73704306D01*
X131186657Y-73679044D01*
X131186507Y-73679164D01*
X131183859Y-73675815D01*
X131182462Y-73674203D01*
X131182028Y-73673500D01*
X131182025Y-73673496D01*
X131059003Y-73550474D01*
X131058999Y-73550471D01*
X130910933Y-73459142D01*
X130910927Y-73459139D01*
X130910925Y-73459138D01*
X130789751Y-73418985D01*
X130745776Y-73404413D01*
X130643855Y-73394000D01*
X130643848Y-73394000D01*
X130057152Y-73394000D01*
X130057144Y-73394000D01*
X129955223Y-73404413D01*
X129790077Y-73459137D01*
X129790066Y-73459142D01*
X129642000Y-73550471D01*
X129641996Y-73550474D01*
X129518974Y-73673496D01*
X129518971Y-73673500D01*
X129427642Y-73821566D01*
X129427637Y-73821577D01*
X129400706Y-73902851D01*
X129360933Y-73960296D01*
X129296417Y-73987119D01*
X129227641Y-73974804D01*
X129176442Y-73927261D01*
X129159000Y-73863847D01*
X129159000Y-70355000D01*
X129178685Y-70287961D01*
X129231489Y-70242206D01*
X129283000Y-70231000D01*
X132815215Y-70231000D01*
X132847308Y-70235225D01*
G37*
%TD.AperFunction*%
%TA.AperFunction,Conductor*%
G36*
X131187000Y-92545988D02*
G01*
X131129993Y-92513075D01*
X131002826Y-92479000D01*
X130871174Y-92479000D01*
X130744007Y-92513075D01*
X130687000Y-92545988D01*
X130687000Y-90872012D01*
X130744007Y-90904925D01*
X130871174Y-90939000D01*
X131002826Y-90939000D01*
X131129993Y-90904925D01*
X131187000Y-90872012D01*
X131187000Y-92545988D01*
G37*
%TD.AperFunction*%
%TA.AperFunction,Conductor*%
G36*
X131187000Y-90005988D02*
G01*
X131129993Y-89973075D01*
X131002826Y-89939000D01*
X130871174Y-89939000D01*
X130744007Y-89973075D01*
X130687000Y-90005988D01*
X130687000Y-88332012D01*
X130744007Y-88364925D01*
X130871174Y-88399000D01*
X131002826Y-88399000D01*
X131129993Y-88364925D01*
X131187000Y-88332012D01*
X131187000Y-90005988D01*
G37*
%TD.AperFunction*%
%TA.AperFunction,Conductor*%
G36*
X131187000Y-87465988D02*
G01*
X131129993Y-87433075D01*
X131002826Y-87399000D01*
X130871174Y-87399000D01*
X130744007Y-87433075D01*
X130687000Y-87465988D01*
X130687000Y-85792012D01*
X130744007Y-85824925D01*
X130871174Y-85859000D01*
X131002826Y-85859000D01*
X131129993Y-85824925D01*
X131187000Y-85792012D01*
X131187000Y-87465988D01*
G37*
%TD.AperFunction*%
%TD*%
M02*
