%TF.GenerationSoftware,KiCad,Pcbnew,8.0.7*%
%TF.CreationDate,2025-01-22T16:06:57-05:00*%
%TF.ProjectId,vaudeo,76617564-656f-42e6-9b69-6361645f7063,rev?*%
%TF.SameCoordinates,Original*%
%TF.FileFunction,Copper,L2,Inr*%
%TF.FilePolarity,Positive*%
%FSLAX46Y46*%
G04 Gerber Fmt 4.6, Leading zero omitted, Abs format (unit mm)*
G04 Created by KiCad (PCBNEW 8.0.7) date 2025-01-22 16:06:57*
%MOMM*%
%LPD*%
G01*
G04 APERTURE LIST*
%TA.AperFunction,ComponentPad*%
%ADD10R,1.700000X1.700000*%
%TD*%
%TA.AperFunction,ComponentPad*%
%ADD11O,1.700000X1.700000*%
%TD*%
%TA.AperFunction,ComponentPad*%
%ADD12C,0.800000*%
%TD*%
%TA.AperFunction,ComponentPad*%
%ADD13C,6.400000*%
%TD*%
%TA.AperFunction,ComponentPad*%
%ADD14C,4.000000*%
%TD*%
%TA.AperFunction,ComponentPad*%
%ADD15R,1.600000X1.600000*%
%TD*%
%TA.AperFunction,ComponentPad*%
%ADD16C,1.600000*%
%TD*%
%TA.AperFunction,ViaPad*%
%ADD17C,0.762000*%
%TD*%
G04 APERTURE END LIST*
D10*
%TO.N,Net-(J6-Pin_1)*%
%TO.C,J6*%
X206756000Y-122174000D03*
D11*
%TO.N,Net-(J6-Pin_2)*%
X206756000Y-119634000D03*
%TO.N,CBSEL0*%
X209296000Y-122174000D03*
%TO.N,CBSEL1*%
X209296000Y-119634000D03*
%TO.N,GND*%
X211836000Y-122174000D03*
X211836000Y-119634000D03*
%TD*%
D12*
%TO.N,GND*%
%TO.C,H1*%
X131458000Y-66675000D03*
X132160944Y-64977944D03*
X132160944Y-68372056D03*
X133858000Y-64275000D03*
D13*
X133858000Y-66675000D03*
D12*
X133858000Y-69075000D03*
X135555056Y-64977944D03*
X135555056Y-68372056D03*
X136258000Y-66675000D03*
%TD*%
%TO.N,GND*%
%TO.C,H4*%
X131422269Y-121823926D03*
X132125213Y-120126870D03*
X132125213Y-123520982D03*
X133822269Y-119423926D03*
D13*
X133822269Y-121823926D03*
D12*
X133822269Y-124223926D03*
X135519325Y-120126870D03*
X135519325Y-123520982D03*
X136222269Y-121823926D03*
%TD*%
D10*
%TO.N,SDI*%
%TO.C,J3*%
X226441000Y-85359000D03*
D11*
%TO.N,SDO*%
X226441000Y-87899000D03*
%TO.N,SCK*%
X226441000Y-90439000D03*
%TO.N,~{FLASH_SEL}*%
X226441000Y-92979000D03*
%TO.N,~{FLASH_RESET}*%
X226441000Y-95519000D03*
%TO.N,~{CRESET}*%
X226441000Y-98059000D03*
%TO.N,CDONE*%
X226441000Y-100599000D03*
%TO.N,GND*%
X226441000Y-103139000D03*
%TD*%
D14*
%TO.N,GND*%
%TO.C,J2*%
X216021665Y-72579331D03*
X191021665Y-72579331D03*
D15*
%TO.N,/Video/VGA_RED*%
X199206665Y-73999331D03*
D16*
%TO.N,/Video/VGA_GRN*%
X201496665Y-73999331D03*
%TO.N,/Video/VGA_BLU*%
X203786665Y-73999331D03*
%TO.N,unconnected-(J2-Pad4)*%
X206076665Y-73999331D03*
%TO.N,GND*%
X208366665Y-73999331D03*
X198061665Y-72019331D03*
X200351665Y-72019331D03*
X202641665Y-72019331D03*
%TO.N,unconnected-(J2-Pad9)*%
X204931665Y-72019331D03*
%TO.N,GND*%
X207221665Y-72019331D03*
%TO.N,unconnected-(J2-Pad11)*%
X199206665Y-70039331D03*
%TO.N,unconnected-(J2-Pad12)*%
X201496665Y-70039331D03*
%TO.N,/Video/VGA_HSYNC*%
X203786665Y-70039331D03*
%TO.N,/Video/VGA_VSYNC*%
X206076665Y-70039331D03*
%TO.N,unconnected-(J2-Pad15)*%
X208366665Y-70039331D03*
%TD*%
D12*
%TO.N,GND*%
%TO.C,H3*%
X221120000Y-121793000D03*
X221822944Y-120095944D03*
X221822944Y-123490056D03*
X223520000Y-119393000D03*
D13*
X223520000Y-121793000D03*
D12*
X223520000Y-124193000D03*
X225217056Y-120095944D03*
X225217056Y-123490056D03*
X225920000Y-121793000D03*
%TD*%
D10*
%TO.N,+5V*%
%TO.C,J4*%
X130937000Y-85359000D03*
D11*
X130937000Y-87899000D03*
X130937000Y-90439000D03*
X130937000Y-92979000D03*
%TO.N,GND*%
X130937000Y-95519000D03*
X130937000Y-98059000D03*
X130937000Y-100599000D03*
X130937000Y-103139000D03*
%TD*%
D12*
%TO.N,GND*%
%TO.C,H2*%
X221120000Y-66675000D03*
X221822944Y-64977944D03*
X221822944Y-68372056D03*
X223520000Y-64275000D03*
D13*
X223520000Y-66675000D03*
D12*
X223520000Y-69075000D03*
X225217056Y-64977944D03*
X225217056Y-68372056D03*
X225920000Y-66675000D03*
%TD*%
D10*
%TO.N,DATA0*%
%TO.C,J5*%
X160909000Y-124714000D03*
D11*
%TO.N,CLK*%
X160909000Y-122174000D03*
%TO.N,DATA1*%
X163449000Y-124714000D03*
%TO.N,~{ENABLE}*%
X163449000Y-122174000D03*
%TO.N,DATA2*%
X165989000Y-124714000D03*
%TO.N,~{BYTE}{slash}WORD*%
X165989000Y-122174000D03*
%TO.N,DATA3*%
X168529000Y-124714000D03*
%TO.N,~{WRITE}{slash}READ*%
X168529000Y-122174000D03*
%TO.N,GND*%
X171069000Y-124714000D03*
X171069000Y-122174000D03*
%TO.N,DATA4*%
X173609000Y-124714000D03*
%TO.N,ADDR0*%
X173609000Y-122174000D03*
%TO.N,DATA5*%
X176149000Y-124714000D03*
%TO.N,ADDR1*%
X176149000Y-122174000D03*
%TO.N,DATA6*%
X178689000Y-124714000D03*
%TO.N,ADDR2*%
X178689000Y-122174000D03*
%TO.N,DATA7*%
X181229000Y-124714000D03*
%TO.N,ADDR3*%
X181229000Y-122174000D03*
%TO.N,GND*%
X183769000Y-124714000D03*
X183769000Y-122174000D03*
%TO.N,DATA8*%
X186309000Y-124714000D03*
%TO.N,ADDR4*%
X186309000Y-122174000D03*
%TO.N,DATA9*%
X188849000Y-124714000D03*
%TO.N,ADDR5*%
X188849000Y-122174000D03*
%TO.N,DATA10*%
X191389000Y-124714000D03*
%TO.N,DATA15*%
X191389000Y-122174000D03*
%TO.N,DATA11*%
X193929000Y-124714000D03*
%TO.N,DATA14*%
X193929000Y-122174000D03*
%TO.N,DATA12*%
X196469000Y-124714000D03*
%TO.N,DATA13*%
X196469000Y-122174000D03*
%TD*%
D17*
%TO.N,GND*%
X180721000Y-83312000D03*
X141605000Y-78105000D03*
X191163377Y-81632623D03*
X170815000Y-99314000D03*
X204216000Y-94996000D03*
X155448000Y-118999000D03*
X197104000Y-99314000D03*
X136779000Y-96393000D03*
X171196000Y-110490000D03*
X174018377Y-74577377D03*
X156591000Y-109601000D03*
X143002000Y-88138000D03*
X217948000Y-100660000D03*
X192687377Y-104168377D03*
X145288000Y-66802000D03*
X168402000Y-78994000D03*
X170180000Y-89662000D03*
X136779000Y-100838000D03*
X133731000Y-76835000D03*
X184883623Y-112239623D03*
X187452000Y-78740000D03*
X167064098Y-92637319D03*
X183515000Y-75565000D03*
X135575000Y-75631000D03*
X135509000Y-86918800D03*
X155462000Y-97931000D03*
X167386000Y-96012000D03*
X170053000Y-98679000D03*
X162052000Y-101219000D03*
X192687377Y-83918623D03*
X136906000Y-101981000D03*
X141224000Y-120777000D03*
X169799000Y-109093000D03*
X155575000Y-104267000D03*
X163068000Y-84709000D03*
X165100000Y-64643000D03*
X165100000Y-70739000D03*
X190246000Y-95377000D03*
X186690000Y-99060000D03*
X157988000Y-99673500D03*
X136906000Y-106426000D03*
X140462000Y-78486000D03*
X187734377Y-109502377D03*
X186690000Y-89408000D03*
X165100000Y-68707000D03*
%TO.N,+1V2*%
X177701377Y-75974377D03*
X184531000Y-87249000D03*
X141097000Y-84328000D03*
X181356000Y-110871000D03*
X139954000Y-84328000D03*
X191389000Y-108458000D03*
X175260000Y-103632000D03*
X142240000Y-84328000D03*
X143383000Y-84328000D03*
X163703000Y-80899000D03*
%TO.N,+3V3*%
X207518000Y-97536000D03*
X157988000Y-100965000D03*
X225806000Y-111887000D03*
X173609000Y-86614000D03*
X164719000Y-100711000D03*
X217948000Y-103581000D03*
X188976000Y-86995000D03*
X182118000Y-103632000D03*
X202565000Y-103505000D03*
X164465000Y-88265000D03*
X133477000Y-74549000D03*
X215376000Y-89027000D03*
X215376000Y-92710000D03*
X157988000Y-106531500D03*
X174244000Y-109347000D03*
X139954000Y-96139000D03*
X138049000Y-101209500D03*
X137033000Y-108712000D03*
X137033000Y-104394000D03*
X191163377Y-100612377D03*
X139954000Y-72898000D03*
X142240000Y-72898000D03*
X141097000Y-72898000D03*
X179832000Y-77089000D03*
X224409000Y-107061000D03*
X184277000Y-80264000D03*
X200152000Y-120904000D03*
X206656250Y-89027000D03*
X206656250Y-92710000D03*
X137414000Y-118110000D03*
X195707000Y-95631000D03*
X143383000Y-72898000D03*
%TO.N,SCK*%
X200279000Y-100711000D03*
X203962000Y-101473000D03*
%TO.N,~{FLASH_SEL}*%
X199517000Y-103124000D03*
X198882000Y-99822000D03*
%TO.N,~{FLASH_RESET}*%
X219456000Y-107061000D03*
X209550000Y-102743000D03*
%TO.N,SDI*%
X209423000Y-100203000D03*
%TO.N,SDRAM_CLK*%
X159639000Y-94615000D03*
X171323000Y-88646000D03*
%TD*%
%TA.AperFunction,Conductor*%
%TO.N,GND*%
G36*
X171319000Y-124280988D02*
G01*
X171261993Y-124248075D01*
X171134826Y-124214000D01*
X171003174Y-124214000D01*
X170876007Y-124248075D01*
X170819000Y-124280988D01*
X170819000Y-122607012D01*
X170876007Y-122639925D01*
X171003174Y-122674000D01*
X171134826Y-122674000D01*
X171261993Y-122639925D01*
X171319000Y-122607012D01*
X171319000Y-124280988D01*
G37*
%TD.AperFunction*%
%TA.AperFunction,Conductor*%
G36*
X184019000Y-124280988D02*
G01*
X183961993Y-124248075D01*
X183834826Y-124214000D01*
X183703174Y-124214000D01*
X183576007Y-124248075D01*
X183519000Y-124280988D01*
X183519000Y-122607012D01*
X183576007Y-122639925D01*
X183703174Y-122674000D01*
X183834826Y-122674000D01*
X183961993Y-122639925D01*
X184019000Y-122607012D01*
X184019000Y-124280988D01*
G37*
%TD.AperFunction*%
%TA.AperFunction,Conductor*%
G36*
X212086000Y-121740988D02*
G01*
X212028993Y-121708075D01*
X211901826Y-121674000D01*
X211770174Y-121674000D01*
X211643007Y-121708075D01*
X211586000Y-121740988D01*
X211586000Y-120067012D01*
X211643007Y-120099925D01*
X211770174Y-120134000D01*
X211901826Y-120134000D01*
X212028993Y-120099925D01*
X212086000Y-120067012D01*
X212086000Y-121740988D01*
G37*
%TD.AperFunction*%
%TA.AperFunction,Conductor*%
G36*
X131187000Y-102705988D02*
G01*
X131129993Y-102673075D01*
X131002826Y-102639000D01*
X130871174Y-102639000D01*
X130744007Y-102673075D01*
X130687000Y-102705988D01*
X130687000Y-101032012D01*
X130744007Y-101064925D01*
X130871174Y-101099000D01*
X131002826Y-101099000D01*
X131129993Y-101064925D01*
X131187000Y-101032012D01*
X131187000Y-102705988D01*
G37*
%TD.AperFunction*%
%TA.AperFunction,Conductor*%
G36*
X131187000Y-100165988D02*
G01*
X131129993Y-100133075D01*
X131002826Y-100099000D01*
X130871174Y-100099000D01*
X130744007Y-100133075D01*
X130687000Y-100165988D01*
X130687000Y-98492012D01*
X130744007Y-98524925D01*
X130871174Y-98559000D01*
X131002826Y-98559000D01*
X131129993Y-98524925D01*
X131187000Y-98492012D01*
X131187000Y-100165988D01*
G37*
%TD.AperFunction*%
%TA.AperFunction,Conductor*%
G36*
X131187000Y-97625988D02*
G01*
X131129993Y-97593075D01*
X131002826Y-97559000D01*
X130871174Y-97559000D01*
X130744007Y-97593075D01*
X130687000Y-97625988D01*
X130687000Y-95952012D01*
X130744007Y-95984925D01*
X130871174Y-96019000D01*
X131002826Y-96019000D01*
X131129993Y-95984925D01*
X131187000Y-95952012D01*
X131187000Y-97625988D01*
G37*
%TD.AperFunction*%
%TA.AperFunction,Conductor*%
G36*
X223522702Y-61895618D02*
G01*
X223536499Y-61896220D01*
X223931173Y-61913451D01*
X223941910Y-61914391D01*
X224344584Y-61967404D01*
X224355222Y-61969279D01*
X224751749Y-62057188D01*
X224762189Y-62059986D01*
X225149530Y-62182113D01*
X225159676Y-62185806D01*
X225534911Y-62341234D01*
X225544702Y-62345800D01*
X225904942Y-62533329D01*
X225914310Y-62538737D01*
X226256840Y-62756952D01*
X226265699Y-62763155D01*
X226587909Y-63010396D01*
X226596195Y-63017350D01*
X226895624Y-63291726D01*
X226903273Y-63299375D01*
X227177649Y-63598804D01*
X227184603Y-63607090D01*
X227431842Y-63929297D01*
X227438047Y-63938159D01*
X227656262Y-64280689D01*
X227661670Y-64290057D01*
X227849196Y-64650290D01*
X227853768Y-64660094D01*
X228009189Y-65035313D01*
X228012889Y-65045479D01*
X228135012Y-65432806D01*
X228137812Y-65443254D01*
X228225718Y-65839769D01*
X228227596Y-65850423D01*
X228280606Y-66253069D01*
X228281549Y-66263845D01*
X228299382Y-66672297D01*
X228299500Y-66677706D01*
X228299500Y-121790293D01*
X228299382Y-121795702D01*
X228281549Y-122204154D01*
X228280606Y-122214930D01*
X228227596Y-122617576D01*
X228225718Y-122628230D01*
X228137812Y-123024745D01*
X228135012Y-123035193D01*
X228012889Y-123422520D01*
X228009189Y-123432686D01*
X227853768Y-123807905D01*
X227849196Y-123817709D01*
X227661670Y-124177942D01*
X227656262Y-124187310D01*
X227438047Y-124529840D01*
X227431842Y-124538702D01*
X227184603Y-124860909D01*
X227177649Y-124869195D01*
X226903273Y-125168624D01*
X226895624Y-125176273D01*
X226596195Y-125450649D01*
X226587909Y-125457603D01*
X226265702Y-125704842D01*
X226256840Y-125711047D01*
X225914310Y-125929262D01*
X225904942Y-125934670D01*
X225544709Y-126122196D01*
X225534905Y-126126768D01*
X225159686Y-126282189D01*
X225149520Y-126285889D01*
X224762193Y-126408012D01*
X224751745Y-126410812D01*
X224355230Y-126498718D01*
X224344576Y-126500596D01*
X223941930Y-126553606D01*
X223931154Y-126554549D01*
X223522703Y-126572382D01*
X223517294Y-126572500D01*
X133860706Y-126572500D01*
X133855297Y-126572382D01*
X133446845Y-126554549D01*
X133436069Y-126553606D01*
X133033423Y-126500596D01*
X133022769Y-126498718D01*
X132626254Y-126410812D01*
X132615806Y-126408012D01*
X132228479Y-126285889D01*
X132218313Y-126282189D01*
X131843094Y-126126768D01*
X131833290Y-126122196D01*
X131473057Y-125934670D01*
X131463689Y-125929262D01*
X131121159Y-125711047D01*
X131112297Y-125704842D01*
X130790090Y-125457603D01*
X130781804Y-125450649D01*
X130482375Y-125176273D01*
X130474726Y-125168624D01*
X130200350Y-124869195D01*
X130193396Y-124860909D01*
X129946157Y-124538702D01*
X129939952Y-124529840D01*
X129760448Y-124248075D01*
X129721736Y-124187309D01*
X129716329Y-124177942D01*
X129706009Y-124158118D01*
X129528800Y-123817702D01*
X129524231Y-123807905D01*
X129519892Y-123797430D01*
X129368806Y-123432676D01*
X129365110Y-123422520D01*
X129364788Y-123421500D01*
X129242986Y-123035189D01*
X129240187Y-123024745D01*
X129152279Y-122628222D01*
X129150403Y-122617576D01*
X129144679Y-122574099D01*
X129097391Y-122214910D01*
X129096451Y-122204173D01*
X129095134Y-122173999D01*
X159553341Y-122173999D01*
X159553341Y-122174000D01*
X159573936Y-122409403D01*
X159573938Y-122409413D01*
X159635094Y-122637655D01*
X159635096Y-122637659D01*
X159635097Y-122637663D01*
X159714801Y-122808588D01*
X159734965Y-122851830D01*
X159734967Y-122851834D01*
X159767367Y-122898105D01*
X159870504Y-123045400D01*
X159870506Y-123045402D01*
X159992430Y-123167326D01*
X160025915Y-123228649D01*
X160020931Y-123298341D01*
X159979059Y-123354274D01*
X159948083Y-123371189D01*
X159816669Y-123420203D01*
X159816664Y-123420206D01*
X159701455Y-123506452D01*
X159701452Y-123506455D01*
X159615206Y-123621664D01*
X159615202Y-123621671D01*
X159564908Y-123756517D01*
X159558501Y-123816116D01*
X159558500Y-123816135D01*
X159558500Y-125611870D01*
X159558501Y-125611876D01*
X159564908Y-125671483D01*
X159615202Y-125806328D01*
X159615206Y-125806335D01*
X159701452Y-125921544D01*
X159701455Y-125921547D01*
X159816664Y-126007793D01*
X159816671Y-126007797D01*
X159951517Y-126058091D01*
X159951516Y-126058091D01*
X159958444Y-126058835D01*
X160011127Y-126064500D01*
X161806872Y-126064499D01*
X161866483Y-126058091D01*
X162001331Y-126007796D01*
X162116546Y-125921546D01*
X162202796Y-125806331D01*
X162251810Y-125674916D01*
X162293681Y-125618984D01*
X162359145Y-125594566D01*
X162427418Y-125609417D01*
X162455673Y-125630569D01*
X162577599Y-125752495D01*
X162674384Y-125820265D01*
X162771165Y-125888032D01*
X162771167Y-125888033D01*
X162771170Y-125888035D01*
X162985337Y-125987903D01*
X163213592Y-126049063D01*
X163390034Y-126064500D01*
X163448999Y-126069659D01*
X163449000Y-126069659D01*
X163449001Y-126069659D01*
X163507966Y-126064500D01*
X163684408Y-126049063D01*
X163912663Y-125987903D01*
X164126830Y-125888035D01*
X164320401Y-125752495D01*
X164487495Y-125585401D01*
X164617425Y-125399842D01*
X164672002Y-125356217D01*
X164741500Y-125349023D01*
X164803855Y-125380546D01*
X164820575Y-125399842D01*
X164950500Y-125585395D01*
X164950505Y-125585401D01*
X165117599Y-125752495D01*
X165214384Y-125820265D01*
X165311165Y-125888032D01*
X165311167Y-125888033D01*
X165311170Y-125888035D01*
X165525337Y-125987903D01*
X165753592Y-126049063D01*
X165930034Y-126064500D01*
X165988999Y-126069659D01*
X165989000Y-126069659D01*
X165989001Y-126069659D01*
X166047966Y-126064500D01*
X166224408Y-126049063D01*
X166452663Y-125987903D01*
X166666830Y-125888035D01*
X166860401Y-125752495D01*
X167027495Y-125585401D01*
X167157425Y-125399842D01*
X167212002Y-125356217D01*
X167281500Y-125349023D01*
X167343855Y-125380546D01*
X167360575Y-125399842D01*
X167490500Y-125585395D01*
X167490505Y-125585401D01*
X167657599Y-125752495D01*
X167754384Y-125820265D01*
X167851165Y-125888032D01*
X167851167Y-125888033D01*
X167851170Y-125888035D01*
X168065337Y-125987903D01*
X168293592Y-126049063D01*
X168470034Y-126064500D01*
X168528999Y-126069659D01*
X168529000Y-126069659D01*
X168529001Y-126069659D01*
X168587966Y-126064500D01*
X168764408Y-126049063D01*
X168992663Y-125987903D01*
X169206830Y-125888035D01*
X169400401Y-125752495D01*
X169567495Y-125585401D01*
X169697730Y-125399405D01*
X169752307Y-125355781D01*
X169821805Y-125348587D01*
X169884160Y-125380110D01*
X169900879Y-125399405D01*
X170030890Y-125585078D01*
X170197917Y-125752105D01*
X170391421Y-125887600D01*
X170605507Y-125987429D01*
X170605516Y-125987433D01*
X170819000Y-126044634D01*
X170819000Y-125147012D01*
X170876007Y-125179925D01*
X171003174Y-125214000D01*
X171134826Y-125214000D01*
X171261993Y-125179925D01*
X171319000Y-125147012D01*
X171319000Y-126044634D01*
X171532483Y-125987433D01*
X171532492Y-125987429D01*
X171746578Y-125887600D01*
X171940082Y-125752105D01*
X172107105Y-125585082D01*
X172237119Y-125399405D01*
X172291696Y-125355781D01*
X172361195Y-125348588D01*
X172423549Y-125380110D01*
X172440269Y-125399405D01*
X172570505Y-125585401D01*
X172737599Y-125752495D01*
X172834384Y-125820265D01*
X172931165Y-125888032D01*
X172931167Y-125888033D01*
X172931170Y-125888035D01*
X173145337Y-125987903D01*
X173373592Y-126049063D01*
X173550034Y-126064500D01*
X173608999Y-126069659D01*
X173609000Y-126069659D01*
X173609001Y-126069659D01*
X173667966Y-126064500D01*
X173844408Y-126049063D01*
X174072663Y-125987903D01*
X174286830Y-125888035D01*
X174480401Y-125752495D01*
X174647495Y-125585401D01*
X174777425Y-125399842D01*
X174832002Y-125356217D01*
X174901500Y-125349023D01*
X174963855Y-125380546D01*
X174980575Y-125399842D01*
X175110500Y-125585395D01*
X175110505Y-125585401D01*
X175277599Y-125752495D01*
X175374384Y-125820265D01*
X175471165Y-125888032D01*
X175471167Y-125888033D01*
X175471170Y-125888035D01*
X175685337Y-125987903D01*
X175913592Y-126049063D01*
X176090034Y-126064500D01*
X176148999Y-126069659D01*
X176149000Y-126069659D01*
X176149001Y-126069659D01*
X176207966Y-126064500D01*
X176384408Y-126049063D01*
X176612663Y-125987903D01*
X176826830Y-125888035D01*
X177020401Y-125752495D01*
X177187495Y-125585401D01*
X177317425Y-125399842D01*
X177372002Y-125356217D01*
X177441500Y-125349023D01*
X177503855Y-125380546D01*
X177520575Y-125399842D01*
X177650500Y-125585395D01*
X177650505Y-125585401D01*
X177817599Y-125752495D01*
X177914384Y-125820265D01*
X178011165Y-125888032D01*
X178011167Y-125888033D01*
X178011170Y-125888035D01*
X178225337Y-125987903D01*
X178453592Y-126049063D01*
X178630034Y-126064500D01*
X178688999Y-126069659D01*
X178689000Y-126069659D01*
X178689001Y-126069659D01*
X178747966Y-126064500D01*
X178924408Y-126049063D01*
X179152663Y-125987903D01*
X179366830Y-125888035D01*
X179560401Y-125752495D01*
X179727495Y-125585401D01*
X179857425Y-125399842D01*
X179912002Y-125356217D01*
X179981500Y-125349023D01*
X180043855Y-125380546D01*
X180060575Y-125399842D01*
X180190500Y-125585395D01*
X180190505Y-125585401D01*
X180357599Y-125752495D01*
X180454384Y-125820265D01*
X180551165Y-125888032D01*
X180551167Y-125888033D01*
X180551170Y-125888035D01*
X180765337Y-125987903D01*
X180993592Y-126049063D01*
X181170034Y-126064500D01*
X181228999Y-126069659D01*
X181229000Y-126069659D01*
X181229001Y-126069659D01*
X181287966Y-126064500D01*
X181464408Y-126049063D01*
X181692663Y-125987903D01*
X181906830Y-125888035D01*
X182100401Y-125752495D01*
X182267495Y-125585401D01*
X182397730Y-125399405D01*
X182452307Y-125355781D01*
X182521805Y-125348587D01*
X182584160Y-125380110D01*
X182600879Y-125399405D01*
X182730890Y-125585078D01*
X182897917Y-125752105D01*
X183091421Y-125887600D01*
X183305507Y-125987429D01*
X183305516Y-125987433D01*
X183519000Y-126044634D01*
X183519000Y-125147012D01*
X183576007Y-125179925D01*
X183703174Y-125214000D01*
X183834826Y-125214000D01*
X183961993Y-125179925D01*
X184019000Y-125147012D01*
X184019000Y-126044634D01*
X184232483Y-125987433D01*
X184232492Y-125987429D01*
X184446578Y-125887600D01*
X184640082Y-125752105D01*
X184807105Y-125585082D01*
X184937119Y-125399405D01*
X184991696Y-125355781D01*
X185061195Y-125348588D01*
X185123549Y-125380110D01*
X185140269Y-125399405D01*
X185270505Y-125585401D01*
X185437599Y-125752495D01*
X185534384Y-125820265D01*
X185631165Y-125888032D01*
X185631167Y-125888033D01*
X185631170Y-125888035D01*
X185845337Y-125987903D01*
X186073592Y-126049063D01*
X186250034Y-126064500D01*
X186308999Y-126069659D01*
X186309000Y-126069659D01*
X186309001Y-126069659D01*
X186367966Y-126064500D01*
X186544408Y-126049063D01*
X186772663Y-125987903D01*
X186986830Y-125888035D01*
X187180401Y-125752495D01*
X187347495Y-125585401D01*
X187477425Y-125399842D01*
X187532002Y-125356217D01*
X187601500Y-125349023D01*
X187663855Y-125380546D01*
X187680575Y-125399842D01*
X187810500Y-125585395D01*
X187810505Y-125585401D01*
X187977599Y-125752495D01*
X188074384Y-125820265D01*
X188171165Y-125888032D01*
X188171167Y-125888033D01*
X188171170Y-125888035D01*
X188385337Y-125987903D01*
X188613592Y-126049063D01*
X188790034Y-126064500D01*
X188848999Y-126069659D01*
X188849000Y-126069659D01*
X188849001Y-126069659D01*
X188907966Y-126064500D01*
X189084408Y-126049063D01*
X189312663Y-125987903D01*
X189526830Y-125888035D01*
X189720401Y-125752495D01*
X189887495Y-125585401D01*
X190017425Y-125399842D01*
X190072002Y-125356217D01*
X190141500Y-125349023D01*
X190203855Y-125380546D01*
X190220575Y-125399842D01*
X190350500Y-125585395D01*
X190350505Y-125585401D01*
X190517599Y-125752495D01*
X190614384Y-125820265D01*
X190711165Y-125888032D01*
X190711167Y-125888033D01*
X190711170Y-125888035D01*
X190925337Y-125987903D01*
X191153592Y-126049063D01*
X191330034Y-126064500D01*
X191388999Y-126069659D01*
X191389000Y-126069659D01*
X191389001Y-126069659D01*
X191447966Y-126064500D01*
X191624408Y-126049063D01*
X191852663Y-125987903D01*
X192066830Y-125888035D01*
X192260401Y-125752495D01*
X192427495Y-125585401D01*
X192557425Y-125399842D01*
X192612002Y-125356217D01*
X192681500Y-125349023D01*
X192743855Y-125380546D01*
X192760575Y-125399842D01*
X192890500Y-125585395D01*
X192890505Y-125585401D01*
X193057599Y-125752495D01*
X193154384Y-125820265D01*
X193251165Y-125888032D01*
X193251167Y-125888033D01*
X193251170Y-125888035D01*
X193465337Y-125987903D01*
X193693592Y-126049063D01*
X193870034Y-126064500D01*
X193928999Y-126069659D01*
X193929000Y-126069659D01*
X193929001Y-126069659D01*
X193987966Y-126064500D01*
X194164408Y-126049063D01*
X194392663Y-125987903D01*
X194606830Y-125888035D01*
X194800401Y-125752495D01*
X194967495Y-125585401D01*
X195097425Y-125399842D01*
X195152002Y-125356217D01*
X195221500Y-125349023D01*
X195283855Y-125380546D01*
X195300575Y-125399842D01*
X195430500Y-125585395D01*
X195430505Y-125585401D01*
X195597599Y-125752495D01*
X195694384Y-125820265D01*
X195791165Y-125888032D01*
X195791167Y-125888033D01*
X195791170Y-125888035D01*
X196005337Y-125987903D01*
X196233592Y-126049063D01*
X196410034Y-126064500D01*
X196468999Y-126069659D01*
X196469000Y-126069659D01*
X196469001Y-126069659D01*
X196527966Y-126064500D01*
X196704408Y-126049063D01*
X196932663Y-125987903D01*
X197146830Y-125888035D01*
X197340401Y-125752495D01*
X197507495Y-125585401D01*
X197643035Y-125391830D01*
X197742903Y-125177663D01*
X197804063Y-124949408D01*
X197824659Y-124714000D01*
X197804063Y-124478592D01*
X197742903Y-124250337D01*
X197643035Y-124036171D01*
X197637731Y-124028595D01*
X197507494Y-123842597D01*
X197340402Y-123675506D01*
X197340396Y-123675501D01*
X197154842Y-123545575D01*
X197111217Y-123490998D01*
X197104023Y-123421500D01*
X197135546Y-123359145D01*
X197154842Y-123342425D01*
X197217800Y-123298341D01*
X197340401Y-123212495D01*
X197507495Y-123045401D01*
X197643035Y-122851830D01*
X197742903Y-122637663D01*
X197804063Y-122409408D01*
X197824659Y-122174000D01*
X197804063Y-121938592D01*
X197752720Y-121746975D01*
X197742905Y-121710344D01*
X197742904Y-121710343D01*
X197742903Y-121710337D01*
X197643035Y-121496171D01*
X197637731Y-121488595D01*
X197507494Y-121302597D01*
X197340402Y-121135506D01*
X197340395Y-121135501D01*
X197146834Y-120999967D01*
X197146830Y-120999965D01*
X197123007Y-120988856D01*
X196941033Y-120904000D01*
X199265644Y-120904000D01*
X199285013Y-121088286D01*
X199285014Y-121088288D01*
X199342274Y-121264514D01*
X199415343Y-121391074D01*
X199434923Y-121424987D01*
X199478112Y-121472954D01*
X199558906Y-121562686D01*
X199558909Y-121562688D01*
X199558912Y-121562691D01*
X199708822Y-121671607D01*
X199878095Y-121746973D01*
X199878098Y-121746973D01*
X199878101Y-121746975D01*
X200059351Y-121785500D01*
X200244649Y-121785500D01*
X200425899Y-121746975D01*
X200425902Y-121746973D01*
X200425904Y-121746973D01*
X200508189Y-121710337D01*
X200595178Y-121671607D01*
X200745088Y-121562691D01*
X200766049Y-121539412D01*
X200794431Y-121507890D01*
X200869077Y-121424987D01*
X200961726Y-121264513D01*
X201018987Y-121088284D01*
X201038356Y-120904000D01*
X201018987Y-120719716D01*
X200961726Y-120543487D01*
X200869077Y-120383013D01*
X200811804Y-120319405D01*
X200745093Y-120245313D01*
X200745090Y-120245311D01*
X200745089Y-120245310D01*
X200745088Y-120245309D01*
X200595178Y-120136393D01*
X200595177Y-120136392D01*
X200425904Y-120061026D01*
X200425896Y-120061024D01*
X200244649Y-120022500D01*
X200059351Y-120022500D01*
X199878103Y-120061024D01*
X199878095Y-120061026D01*
X199708822Y-120136392D01*
X199558909Y-120245311D01*
X199558906Y-120245313D01*
X199434922Y-120383014D01*
X199342274Y-120543485D01*
X199285014Y-120719711D01*
X199285013Y-120719713D01*
X199265644Y-120904000D01*
X196941033Y-120904000D01*
X196932663Y-120900097D01*
X196932659Y-120900096D01*
X196932655Y-120900094D01*
X196704413Y-120838938D01*
X196704403Y-120838936D01*
X196469001Y-120818341D01*
X196468999Y-120818341D01*
X196233596Y-120838936D01*
X196233586Y-120838938D01*
X196005344Y-120900094D01*
X196005335Y-120900098D01*
X195791171Y-120999964D01*
X195791169Y-120999965D01*
X195597597Y-121135505D01*
X195430505Y-121302597D01*
X195300575Y-121488158D01*
X195245998Y-121531783D01*
X195176500Y-121538977D01*
X195114145Y-121507454D01*
X195097425Y-121488158D01*
X194967494Y-121302597D01*
X194800402Y-121135506D01*
X194800395Y-121135501D01*
X194606834Y-120999967D01*
X194606830Y-120999965D01*
X194583007Y-120988856D01*
X194392663Y-120900097D01*
X194392659Y-120900096D01*
X194392655Y-120900094D01*
X194164413Y-120838938D01*
X194164403Y-120838936D01*
X193929001Y-120818341D01*
X193928999Y-120818341D01*
X193693596Y-120838936D01*
X193693586Y-120838938D01*
X193465344Y-120900094D01*
X193465335Y-120900098D01*
X193251171Y-120999964D01*
X193251169Y-120999965D01*
X193057597Y-121135505D01*
X192890505Y-121302597D01*
X192760575Y-121488158D01*
X192705998Y-121531783D01*
X192636500Y-121538977D01*
X192574145Y-121507454D01*
X192557425Y-121488158D01*
X192427494Y-121302597D01*
X192260402Y-121135506D01*
X192260395Y-121135501D01*
X192066834Y-120999967D01*
X192066830Y-120999965D01*
X192043007Y-120988856D01*
X191852663Y-120900097D01*
X191852659Y-120900096D01*
X191852655Y-120900094D01*
X191624413Y-120838938D01*
X191624403Y-120838936D01*
X191389001Y-120818341D01*
X191388999Y-120818341D01*
X191153596Y-120838936D01*
X191153586Y-120838938D01*
X190925344Y-120900094D01*
X190925335Y-120900098D01*
X190711171Y-120999964D01*
X190711169Y-120999965D01*
X190517597Y-121135505D01*
X190350505Y-121302597D01*
X190220575Y-121488158D01*
X190165998Y-121531783D01*
X190096500Y-121538977D01*
X190034145Y-121507454D01*
X190017425Y-121488158D01*
X189887494Y-121302597D01*
X189720402Y-121135506D01*
X189720395Y-121135501D01*
X189526834Y-120999967D01*
X189526830Y-120999965D01*
X189503007Y-120988856D01*
X189312663Y-120900097D01*
X189312659Y-120900096D01*
X189312655Y-120900094D01*
X189084413Y-120838938D01*
X189084403Y-120838936D01*
X188849001Y-120818341D01*
X188848999Y-120818341D01*
X188613596Y-120838936D01*
X188613586Y-120838938D01*
X188385344Y-120900094D01*
X188385335Y-120900098D01*
X188171171Y-120999964D01*
X188171169Y-120999965D01*
X187977597Y-121135505D01*
X187810505Y-121302597D01*
X187680575Y-121488158D01*
X187625998Y-121531783D01*
X187556500Y-121538977D01*
X187494145Y-121507454D01*
X187477425Y-121488158D01*
X187347494Y-121302597D01*
X187180402Y-121135506D01*
X187180395Y-121135501D01*
X186986834Y-120999967D01*
X186986830Y-120999965D01*
X186963007Y-120988856D01*
X186772663Y-120900097D01*
X186772659Y-120900096D01*
X186772655Y-120900094D01*
X186544413Y-120838938D01*
X186544403Y-120838936D01*
X186309001Y-120818341D01*
X186308999Y-120818341D01*
X186073596Y-120838936D01*
X186073586Y-120838938D01*
X185845344Y-120900094D01*
X185845335Y-120900098D01*
X185631171Y-120999964D01*
X185631169Y-120999965D01*
X185437597Y-121135505D01*
X185270508Y-121302594D01*
X185140269Y-121488595D01*
X185085692Y-121532219D01*
X185016193Y-121539412D01*
X184953839Y-121507890D01*
X184937119Y-121488594D01*
X184807113Y-121302926D01*
X184807108Y-121302920D01*
X184640082Y-121135894D01*
X184446578Y-121000399D01*
X184232492Y-120900570D01*
X184232486Y-120900567D01*
X184019000Y-120843364D01*
X184019000Y-121740988D01*
X183961993Y-121708075D01*
X183834826Y-121674000D01*
X183703174Y-121674000D01*
X183576007Y-121708075D01*
X183519000Y-121740988D01*
X183519000Y-120843364D01*
X183518999Y-120843364D01*
X183305513Y-120900567D01*
X183305507Y-120900570D01*
X183091422Y-121000399D01*
X183091420Y-121000400D01*
X182897926Y-121135886D01*
X182897920Y-121135891D01*
X182730891Y-121302920D01*
X182730890Y-121302922D01*
X182600880Y-121488595D01*
X182546303Y-121532219D01*
X182476804Y-121539412D01*
X182414450Y-121507890D01*
X182397730Y-121488594D01*
X182267494Y-121302597D01*
X182100402Y-121135506D01*
X182100395Y-121135501D01*
X181906834Y-120999967D01*
X181906830Y-120999965D01*
X181883007Y-120988856D01*
X181692663Y-120900097D01*
X181692659Y-120900096D01*
X181692655Y-120900094D01*
X181464413Y-120838938D01*
X181464403Y-120838936D01*
X181229001Y-120818341D01*
X181228999Y-120818341D01*
X180993596Y-120838936D01*
X180993586Y-120838938D01*
X180765344Y-120900094D01*
X180765335Y-120900098D01*
X180551171Y-120999964D01*
X180551169Y-120999965D01*
X180357597Y-121135505D01*
X180190505Y-121302597D01*
X180060575Y-121488158D01*
X180005998Y-121531783D01*
X179936500Y-121538977D01*
X179874145Y-121507454D01*
X179857425Y-121488158D01*
X179727494Y-121302597D01*
X179560402Y-121135506D01*
X179560395Y-121135501D01*
X179366834Y-120999967D01*
X179366830Y-120999965D01*
X179343007Y-120988856D01*
X179152663Y-120900097D01*
X179152659Y-120900096D01*
X179152655Y-120900094D01*
X178924413Y-120838938D01*
X178924403Y-120838936D01*
X178689001Y-120818341D01*
X178688999Y-120818341D01*
X178453596Y-120838936D01*
X178453586Y-120838938D01*
X178225344Y-120900094D01*
X178225335Y-120900098D01*
X178011171Y-120999964D01*
X178011169Y-120999965D01*
X177817597Y-121135505D01*
X177650505Y-121302597D01*
X177520575Y-121488158D01*
X177465998Y-121531783D01*
X177396500Y-121538977D01*
X177334145Y-121507454D01*
X177317425Y-121488158D01*
X177187494Y-121302597D01*
X177020402Y-121135506D01*
X177020395Y-121135501D01*
X176826834Y-120999967D01*
X176826830Y-120999965D01*
X176803007Y-120988856D01*
X176612663Y-120900097D01*
X176612659Y-120900096D01*
X176612655Y-120900094D01*
X176384413Y-120838938D01*
X176384403Y-120838936D01*
X176149001Y-120818341D01*
X176148999Y-120818341D01*
X175913596Y-120838936D01*
X175913586Y-120838938D01*
X175685344Y-120900094D01*
X175685335Y-120900098D01*
X175471171Y-120999964D01*
X175471169Y-120999965D01*
X175277597Y-121135505D01*
X175110505Y-121302597D01*
X174980575Y-121488158D01*
X174925998Y-121531783D01*
X174856500Y-121538977D01*
X174794145Y-121507454D01*
X174777425Y-121488158D01*
X174647494Y-121302597D01*
X174480402Y-121135506D01*
X174480395Y-121135501D01*
X174286834Y-120999967D01*
X174286830Y-120999965D01*
X174263007Y-120988856D01*
X174072663Y-120900097D01*
X174072659Y-120900096D01*
X174072655Y-120900094D01*
X173844413Y-120838938D01*
X173844403Y-120838936D01*
X173609001Y-120818341D01*
X173608999Y-120818341D01*
X173373596Y-120838936D01*
X173373586Y-120838938D01*
X173145344Y-120900094D01*
X173145335Y-120900098D01*
X172931171Y-120999964D01*
X172931169Y-120999965D01*
X172737597Y-121135505D01*
X172570508Y-121302594D01*
X172440269Y-121488595D01*
X172385692Y-121532219D01*
X172316193Y-121539412D01*
X172253839Y-121507890D01*
X172237119Y-121488594D01*
X172107113Y-121302926D01*
X172107108Y-121302920D01*
X171940082Y-121135894D01*
X171746578Y-121000399D01*
X171532492Y-120900570D01*
X171532486Y-120900567D01*
X171319000Y-120843364D01*
X171319000Y-121740988D01*
X171261993Y-121708075D01*
X171134826Y-121674000D01*
X171003174Y-121674000D01*
X170876007Y-121708075D01*
X170819000Y-121740988D01*
X170819000Y-120843364D01*
X170818999Y-120843364D01*
X170605513Y-120900567D01*
X170605507Y-120900570D01*
X170391422Y-121000399D01*
X170391420Y-121000400D01*
X170197926Y-121135886D01*
X170197920Y-121135891D01*
X170030891Y-121302920D01*
X170030890Y-121302922D01*
X169900880Y-121488595D01*
X169846303Y-121532219D01*
X169776804Y-121539412D01*
X169714450Y-121507890D01*
X169697730Y-121488594D01*
X169567494Y-121302597D01*
X169400402Y-121135506D01*
X169400395Y-121135501D01*
X169206834Y-120999967D01*
X169206830Y-120999965D01*
X169183007Y-120988856D01*
X168992663Y-120900097D01*
X168992659Y-120900096D01*
X168992655Y-120900094D01*
X168764413Y-120838938D01*
X168764403Y-120838936D01*
X168529001Y-120818341D01*
X168528999Y-120818341D01*
X168293596Y-120838936D01*
X168293586Y-120838938D01*
X168065344Y-120900094D01*
X168065335Y-120900098D01*
X167851171Y-120999964D01*
X167851169Y-120999965D01*
X167657597Y-121135505D01*
X167490505Y-121302597D01*
X167360575Y-121488158D01*
X167305998Y-121531783D01*
X167236500Y-121538977D01*
X167174145Y-121507454D01*
X167157425Y-121488158D01*
X167027494Y-121302597D01*
X166860402Y-121135506D01*
X166860395Y-121135501D01*
X166666834Y-120999967D01*
X166666830Y-120999965D01*
X166643007Y-120988856D01*
X166452663Y-120900097D01*
X166452659Y-120900096D01*
X166452655Y-120900094D01*
X166224413Y-120838938D01*
X166224403Y-120838936D01*
X165989001Y-120818341D01*
X165988999Y-120818341D01*
X165753596Y-120838936D01*
X165753586Y-120838938D01*
X165525344Y-120900094D01*
X165525335Y-120900098D01*
X165311171Y-120999964D01*
X165311169Y-120999965D01*
X165117597Y-121135505D01*
X164950505Y-121302597D01*
X164820575Y-121488158D01*
X164765998Y-121531783D01*
X164696500Y-121538977D01*
X164634145Y-121507454D01*
X164617425Y-121488158D01*
X164487494Y-121302597D01*
X164320402Y-121135506D01*
X164320395Y-121135501D01*
X164126834Y-120999967D01*
X164126830Y-120999965D01*
X164103007Y-120988856D01*
X163912663Y-120900097D01*
X163912659Y-120900096D01*
X163912655Y-120900094D01*
X163684413Y-120838938D01*
X163684403Y-120838936D01*
X163449001Y-120818341D01*
X163448999Y-120818341D01*
X163213596Y-120838936D01*
X163213586Y-120838938D01*
X162985344Y-120900094D01*
X162985335Y-120900098D01*
X162771171Y-120999964D01*
X162771169Y-120999965D01*
X162577597Y-121135505D01*
X162410505Y-121302597D01*
X162280575Y-121488158D01*
X162225998Y-121531783D01*
X162156500Y-121538977D01*
X162094145Y-121507454D01*
X162077425Y-121488158D01*
X161947494Y-121302597D01*
X161780402Y-121135506D01*
X161780395Y-121135501D01*
X161586834Y-120999967D01*
X161586830Y-120999965D01*
X161563007Y-120988856D01*
X161372663Y-120900097D01*
X161372659Y-120900096D01*
X161372655Y-120900094D01*
X161144413Y-120838938D01*
X161144403Y-120838936D01*
X160909001Y-120818341D01*
X160908999Y-120818341D01*
X160673596Y-120838936D01*
X160673586Y-120838938D01*
X160445344Y-120900094D01*
X160445335Y-120900098D01*
X160231171Y-120999964D01*
X160231169Y-120999965D01*
X160037597Y-121135505D01*
X159870505Y-121302597D01*
X159734965Y-121496169D01*
X159734964Y-121496171D01*
X159635098Y-121710335D01*
X159635094Y-121710344D01*
X159573938Y-121938586D01*
X159573936Y-121938596D01*
X159553341Y-122173999D01*
X129095134Y-122173999D01*
X129078618Y-121795701D01*
X129078500Y-121790293D01*
X129078500Y-119633999D01*
X205400341Y-119633999D01*
X205400341Y-119634000D01*
X205420936Y-119869403D01*
X205420938Y-119869413D01*
X205482094Y-120097655D01*
X205482096Y-120097659D01*
X205482097Y-120097663D01*
X205562004Y-120269023D01*
X205581965Y-120311830D01*
X205581967Y-120311834D01*
X205690281Y-120466521D01*
X205717501Y-120505396D01*
X205717506Y-120505402D01*
X205839430Y-120627326D01*
X205872915Y-120688649D01*
X205867931Y-120758341D01*
X205826059Y-120814274D01*
X205795083Y-120831189D01*
X205663669Y-120880203D01*
X205663664Y-120880206D01*
X205548455Y-120966452D01*
X205548452Y-120966455D01*
X205462206Y-121081664D01*
X205462202Y-121081671D01*
X205411908Y-121216517D01*
X205405501Y-121276116D01*
X205405500Y-121276135D01*
X205405500Y-123071870D01*
X205405501Y-123071876D01*
X205411908Y-123131483D01*
X205462202Y-123266328D01*
X205462206Y-123266335D01*
X205548452Y-123381544D01*
X205548455Y-123381547D01*
X205663664Y-123467793D01*
X205663671Y-123467797D01*
X205798517Y-123518091D01*
X205798516Y-123518091D01*
X205805444Y-123518835D01*
X205858127Y-123524500D01*
X207653872Y-123524499D01*
X207713483Y-123518091D01*
X207848331Y-123467796D01*
X207963546Y-123381546D01*
X208049796Y-123266331D01*
X208098810Y-123134916D01*
X208140681Y-123078984D01*
X208206145Y-123054566D01*
X208274418Y-123069417D01*
X208302673Y-123090569D01*
X208424599Y-123212495D01*
X208521384Y-123280265D01*
X208618165Y-123348032D01*
X208618167Y-123348033D01*
X208618170Y-123348035D01*
X208832337Y-123447903D01*
X209060592Y-123509063D01*
X209237034Y-123524500D01*
X209295999Y-123529659D01*
X209296000Y-123529659D01*
X209296001Y-123529659D01*
X209354966Y-123524500D01*
X209531408Y-123509063D01*
X209759663Y-123447903D01*
X209973830Y-123348035D01*
X210167401Y-123212495D01*
X210334495Y-123045401D01*
X210464730Y-122859405D01*
X210519307Y-122815781D01*
X210588805Y-122808587D01*
X210651160Y-122840110D01*
X210667879Y-122859405D01*
X210797890Y-123045078D01*
X210964917Y-123212105D01*
X211158421Y-123347600D01*
X211372507Y-123447429D01*
X211372516Y-123447433D01*
X211586000Y-123504634D01*
X211586000Y-122607012D01*
X211643007Y-122639925D01*
X211770174Y-122674000D01*
X211901826Y-122674000D01*
X212028993Y-122639925D01*
X212086000Y-122607012D01*
X212086000Y-123504633D01*
X212299483Y-123447433D01*
X212299492Y-123447429D01*
X212513578Y-123347600D01*
X212707082Y-123212105D01*
X212874105Y-123045082D01*
X213009600Y-122851578D01*
X213109429Y-122637492D01*
X213109432Y-122637486D01*
X213166636Y-122424000D01*
X212269012Y-122424000D01*
X212301925Y-122366993D01*
X212336000Y-122239826D01*
X212336000Y-122108174D01*
X212301925Y-121981007D01*
X212269012Y-121924000D01*
X213166636Y-121924000D01*
X213166635Y-121923999D01*
X213109432Y-121710513D01*
X213109429Y-121710507D01*
X213009600Y-121496422D01*
X213009599Y-121496420D01*
X212874113Y-121302926D01*
X212874108Y-121302920D01*
X212707082Y-121135894D01*
X212520968Y-121005575D01*
X212477344Y-120950998D01*
X212470151Y-120881499D01*
X212501673Y-120819145D01*
X212520968Y-120802425D01*
X212707082Y-120672105D01*
X212874105Y-120505082D01*
X213009600Y-120311578D01*
X213109429Y-120097492D01*
X213109432Y-120097486D01*
X213166636Y-119884000D01*
X212269012Y-119884000D01*
X212301925Y-119826993D01*
X212336000Y-119699826D01*
X212336000Y-119568174D01*
X212301925Y-119441007D01*
X212269012Y-119384000D01*
X213166636Y-119384000D01*
X213166635Y-119383999D01*
X213109432Y-119170513D01*
X213109429Y-119170507D01*
X213009600Y-118956422D01*
X213009599Y-118956420D01*
X212874113Y-118762926D01*
X212874108Y-118762920D01*
X212707082Y-118595894D01*
X212513578Y-118460399D01*
X212299492Y-118360570D01*
X212299486Y-118360567D01*
X212086000Y-118303364D01*
X212086000Y-119200988D01*
X212028993Y-119168075D01*
X211901826Y-119134000D01*
X211770174Y-119134000D01*
X211643007Y-119168075D01*
X211586000Y-119200988D01*
X211586000Y-118303364D01*
X211585999Y-118303364D01*
X211372513Y-118360567D01*
X211372507Y-118360570D01*
X211158422Y-118460399D01*
X211158420Y-118460400D01*
X210964926Y-118595886D01*
X210964920Y-118595891D01*
X210797891Y-118762920D01*
X210797890Y-118762922D01*
X210667880Y-118948595D01*
X210613303Y-118992219D01*
X210543804Y-118999412D01*
X210481450Y-118967890D01*
X210464730Y-118948594D01*
X210334494Y-118762597D01*
X210167402Y-118595506D01*
X210167395Y-118595501D01*
X209973834Y-118459967D01*
X209973830Y-118459965D01*
X209973828Y-118459964D01*
X209759663Y-118360097D01*
X209759659Y-118360096D01*
X209759655Y-118360094D01*
X209531413Y-118298938D01*
X209531403Y-118298936D01*
X209296001Y-118278341D01*
X209295999Y-118278341D01*
X209060596Y-118298936D01*
X209060586Y-118298938D01*
X208832344Y-118360094D01*
X208832335Y-118360098D01*
X208618171Y-118459964D01*
X208618169Y-118459965D01*
X208424597Y-118595505D01*
X208257505Y-118762597D01*
X208127575Y-118948158D01*
X208072998Y-118991783D01*
X208003500Y-118998977D01*
X207941145Y-118967454D01*
X207924425Y-118948158D01*
X207794494Y-118762597D01*
X207627402Y-118595506D01*
X207627395Y-118595501D01*
X207433834Y-118459967D01*
X207433830Y-118459965D01*
X207433828Y-118459964D01*
X207219663Y-118360097D01*
X207219659Y-118360096D01*
X207219655Y-118360094D01*
X206991413Y-118298938D01*
X206991403Y-118298936D01*
X206756001Y-118278341D01*
X206755999Y-118278341D01*
X206520596Y-118298936D01*
X206520586Y-118298938D01*
X206292344Y-118360094D01*
X206292335Y-118360098D01*
X206078171Y-118459964D01*
X206078169Y-118459965D01*
X205884597Y-118595505D01*
X205717505Y-118762597D01*
X205581965Y-118956169D01*
X205581964Y-118956171D01*
X205482098Y-119170335D01*
X205482094Y-119170344D01*
X205420938Y-119398586D01*
X205420936Y-119398596D01*
X205400341Y-119633999D01*
X129078500Y-119633999D01*
X129078500Y-118110000D01*
X136527644Y-118110000D01*
X136547013Y-118294286D01*
X136547014Y-118294288D01*
X136604274Y-118470514D01*
X136676435Y-118595501D01*
X136696923Y-118630987D01*
X136740112Y-118678954D01*
X136820906Y-118768686D01*
X136820909Y-118768688D01*
X136820912Y-118768691D01*
X136970822Y-118877607D01*
X137140095Y-118952973D01*
X137140098Y-118952973D01*
X137140101Y-118952975D01*
X137321351Y-118991500D01*
X137506649Y-118991500D01*
X137687899Y-118952975D01*
X137687902Y-118952973D01*
X137687904Y-118952973D01*
X137744922Y-118927586D01*
X137857178Y-118877607D01*
X138007088Y-118768691D01*
X138012283Y-118762922D01*
X138033951Y-118738855D01*
X138131077Y-118630987D01*
X138223726Y-118470513D01*
X138280987Y-118294284D01*
X138300356Y-118110000D01*
X138280987Y-117925716D01*
X138223726Y-117749487D01*
X138131077Y-117589013D01*
X138082514Y-117535078D01*
X138007093Y-117451313D01*
X138007090Y-117451311D01*
X138007089Y-117451310D01*
X138007088Y-117451309D01*
X137857178Y-117342393D01*
X137857177Y-117342392D01*
X137687904Y-117267026D01*
X137687896Y-117267024D01*
X137506649Y-117228500D01*
X137321351Y-117228500D01*
X137140103Y-117267024D01*
X137140095Y-117267026D01*
X136970822Y-117342392D01*
X136820909Y-117451311D01*
X136820906Y-117451313D01*
X136696922Y-117589014D01*
X136604274Y-117749485D01*
X136547014Y-117925711D01*
X136547013Y-117925713D01*
X136527644Y-118110000D01*
X129078500Y-118110000D01*
X129078500Y-111887000D01*
X224919644Y-111887000D01*
X224939013Y-112071286D01*
X224939014Y-112071288D01*
X224996274Y-112247514D01*
X225069343Y-112374074D01*
X225088923Y-112407987D01*
X225132112Y-112455954D01*
X225212906Y-112545686D01*
X225212909Y-112545688D01*
X225212912Y-112545691D01*
X225362822Y-112654607D01*
X225532095Y-112729973D01*
X225532098Y-112729973D01*
X225532101Y-112729975D01*
X225713351Y-112768500D01*
X225898649Y-112768500D01*
X226079899Y-112729975D01*
X226079902Y-112729973D01*
X226079904Y-112729973D01*
X226136922Y-112704586D01*
X226249178Y-112654607D01*
X226399088Y-112545691D01*
X226523077Y-112407987D01*
X226615726Y-112247513D01*
X226672987Y-112071284D01*
X226692356Y-111887000D01*
X226672987Y-111702716D01*
X226615726Y-111526487D01*
X226523077Y-111366013D01*
X226474514Y-111312078D01*
X226399093Y-111228313D01*
X226399090Y-111228311D01*
X226399089Y-111228310D01*
X226399088Y-111228309D01*
X226249178Y-111119393D01*
X226249177Y-111119392D01*
X226079904Y-111044026D01*
X226079896Y-111044024D01*
X225898649Y-111005500D01*
X225713351Y-111005500D01*
X225532103Y-111044024D01*
X225532095Y-111044026D01*
X225362822Y-111119392D01*
X225212909Y-111228311D01*
X225212906Y-111228313D01*
X225088922Y-111366014D01*
X224996274Y-111526485D01*
X224939014Y-111702711D01*
X224939013Y-111702713D01*
X224919644Y-111887000D01*
X129078500Y-111887000D01*
X129078500Y-110871000D01*
X180469644Y-110871000D01*
X180489013Y-111055286D01*
X180489014Y-111055288D01*
X180546274Y-111231514D01*
X180619343Y-111358074D01*
X180638923Y-111391987D01*
X180682112Y-111439954D01*
X180762906Y-111529686D01*
X180762909Y-111529688D01*
X180762912Y-111529691D01*
X180912822Y-111638607D01*
X181082095Y-111713973D01*
X181082098Y-111713973D01*
X181082101Y-111713975D01*
X181263351Y-111752500D01*
X181448649Y-111752500D01*
X181629899Y-111713975D01*
X181629902Y-111713973D01*
X181629904Y-111713973D01*
X181686922Y-111688586D01*
X181799178Y-111638607D01*
X181949088Y-111529691D01*
X182073077Y-111391987D01*
X182165726Y-111231513D01*
X182222987Y-111055284D01*
X182242356Y-110871000D01*
X182222987Y-110686716D01*
X182165726Y-110510487D01*
X182073077Y-110350013D01*
X182024514Y-110296078D01*
X181949093Y-110212313D01*
X181949090Y-110212311D01*
X181949089Y-110212310D01*
X181949088Y-110212309D01*
X181799178Y-110103393D01*
X181799177Y-110103392D01*
X181629904Y-110028026D01*
X181629896Y-110028024D01*
X181448649Y-109989500D01*
X181263351Y-109989500D01*
X181082103Y-110028024D01*
X181082095Y-110028026D01*
X180912822Y-110103392D01*
X180762909Y-110212311D01*
X180762906Y-110212313D01*
X180638922Y-110350014D01*
X180546274Y-110510485D01*
X180489014Y-110686711D01*
X180489013Y-110686713D01*
X180469644Y-110871000D01*
X129078500Y-110871000D01*
X129078500Y-108712000D01*
X136146644Y-108712000D01*
X136166013Y-108896286D01*
X136166014Y-108896288D01*
X136223274Y-109072514D01*
X136275352Y-109162716D01*
X136315923Y-109232987D01*
X136359112Y-109280954D01*
X136439906Y-109370686D01*
X136439909Y-109370688D01*
X136439912Y-109370691D01*
X136589822Y-109479607D01*
X136759095Y-109554973D01*
X136759098Y-109554973D01*
X136759101Y-109554975D01*
X136940351Y-109593500D01*
X137125649Y-109593500D01*
X137306899Y-109554975D01*
X137306902Y-109554973D01*
X137306904Y-109554973D01*
X137363922Y-109529586D01*
X137476178Y-109479607D01*
X137626088Y-109370691D01*
X137647420Y-109347000D01*
X173357644Y-109347000D01*
X173377013Y-109531286D01*
X173377014Y-109531288D01*
X173434274Y-109707514D01*
X173507343Y-109834074D01*
X173526923Y-109867987D01*
X173570112Y-109915954D01*
X173650906Y-110005686D01*
X173650909Y-110005688D01*
X173650912Y-110005691D01*
X173785386Y-110103392D01*
X173800822Y-110114607D01*
X173970095Y-110189973D01*
X173970098Y-110189973D01*
X173970101Y-110189975D01*
X174151351Y-110228500D01*
X174336649Y-110228500D01*
X174517899Y-110189975D01*
X174517902Y-110189973D01*
X174517904Y-110189973D01*
X174574922Y-110164586D01*
X174687178Y-110114607D01*
X174837088Y-110005691D01*
X174851667Y-109989500D01*
X174863951Y-109975855D01*
X174961077Y-109867987D01*
X175053726Y-109707513D01*
X175110987Y-109531284D01*
X175130356Y-109347000D01*
X175110987Y-109162716D01*
X175053726Y-108986487D01*
X174961077Y-108826013D01*
X174912514Y-108772078D01*
X174837093Y-108688313D01*
X174837090Y-108688311D01*
X174837089Y-108688310D01*
X174837088Y-108688309D01*
X174687178Y-108579393D01*
X174687177Y-108579392D01*
X174517904Y-108504026D01*
X174517896Y-108504024D01*
X174336649Y-108465500D01*
X174151351Y-108465500D01*
X173970103Y-108504024D01*
X173970095Y-108504026D01*
X173800822Y-108579392D01*
X173650909Y-108688311D01*
X173650906Y-108688313D01*
X173526922Y-108826014D01*
X173434274Y-108986485D01*
X173377014Y-109162711D01*
X173377013Y-109162713D01*
X173357644Y-109347000D01*
X137647420Y-109347000D01*
X137688862Y-109300973D01*
X137750077Y-109232987D01*
X137842726Y-109072513D01*
X137899987Y-108896284D01*
X137919356Y-108712000D01*
X137899987Y-108527716D01*
X137877335Y-108458000D01*
X190502644Y-108458000D01*
X190522013Y-108642286D01*
X190522014Y-108642288D01*
X190579274Y-108818514D01*
X190624175Y-108896284D01*
X190671923Y-108978987D01*
X190715112Y-109026954D01*
X190795906Y-109116686D01*
X190795909Y-109116688D01*
X190795912Y-109116691D01*
X190945822Y-109225607D01*
X191115095Y-109300973D01*
X191115098Y-109300973D01*
X191115101Y-109300975D01*
X191296351Y-109339500D01*
X191481649Y-109339500D01*
X191662899Y-109300975D01*
X191662902Y-109300973D01*
X191662904Y-109300973D01*
X191719922Y-109275586D01*
X191832178Y-109225607D01*
X191982088Y-109116691D01*
X192106077Y-108978987D01*
X192198726Y-108818513D01*
X192255987Y-108642284D01*
X192275356Y-108458000D01*
X192255987Y-108273716D01*
X192198726Y-108097487D01*
X192106077Y-107937013D01*
X192057514Y-107883078D01*
X191982093Y-107799313D01*
X191982090Y-107799311D01*
X191982089Y-107799310D01*
X191982088Y-107799309D01*
X191832178Y-107690393D01*
X191832177Y-107690392D01*
X191662904Y-107615026D01*
X191662896Y-107615024D01*
X191481649Y-107576500D01*
X191296351Y-107576500D01*
X191115103Y-107615024D01*
X191115095Y-107615026D01*
X190945822Y-107690392D01*
X190795909Y-107799311D01*
X190795906Y-107799313D01*
X190671922Y-107937014D01*
X190579274Y-108097485D01*
X190522014Y-108273711D01*
X190522013Y-108273713D01*
X190502644Y-108458000D01*
X137877335Y-108458000D01*
X137842726Y-108351487D01*
X137750077Y-108191013D01*
X137701514Y-108137078D01*
X137626093Y-108053313D01*
X137626090Y-108053311D01*
X137626089Y-108053310D01*
X137626088Y-108053309D01*
X137476178Y-107944393D01*
X137476177Y-107944392D01*
X137306904Y-107869026D01*
X137306896Y-107869024D01*
X137125649Y-107830500D01*
X136940351Y-107830500D01*
X136759103Y-107869024D01*
X136759095Y-107869026D01*
X136589822Y-107944392D01*
X136439909Y-108053311D01*
X136439906Y-108053313D01*
X136315922Y-108191014D01*
X136223274Y-108351485D01*
X136166014Y-108527711D01*
X136166013Y-108527713D01*
X136146644Y-108712000D01*
X129078500Y-108712000D01*
X129078500Y-106531500D01*
X157101644Y-106531500D01*
X157121013Y-106715786D01*
X157121014Y-106715788D01*
X157178274Y-106892014D01*
X157251343Y-107018574D01*
X157270923Y-107052487D01*
X157314112Y-107100454D01*
X157394906Y-107190186D01*
X157394909Y-107190188D01*
X157394912Y-107190191D01*
X157470744Y-107245286D01*
X157544822Y-107299107D01*
X157714095Y-107374473D01*
X157714098Y-107374473D01*
X157714101Y-107374475D01*
X157895351Y-107413000D01*
X158080649Y-107413000D01*
X158261899Y-107374475D01*
X158261902Y-107374473D01*
X158261904Y-107374473D01*
X158318922Y-107349086D01*
X158431178Y-107299107D01*
X158581088Y-107190191D01*
X158697412Y-107061000D01*
X218569644Y-107061000D01*
X218589013Y-107245286D01*
X218589014Y-107245288D01*
X218646274Y-107421514D01*
X218719343Y-107548074D01*
X218738923Y-107581987D01*
X218782112Y-107629954D01*
X218862906Y-107719686D01*
X218862909Y-107719688D01*
X218862912Y-107719691D01*
X219012822Y-107828607D01*
X219182095Y-107903973D01*
X219182098Y-107903973D01*
X219182101Y-107903975D01*
X219363351Y-107942500D01*
X219548649Y-107942500D01*
X219729899Y-107903975D01*
X219729902Y-107903973D01*
X219729904Y-107903973D01*
X219786922Y-107878586D01*
X219899178Y-107828607D01*
X220049088Y-107719691D01*
X220173077Y-107581987D01*
X220265726Y-107421513D01*
X220322987Y-107245284D01*
X220342356Y-107061000D01*
X223522644Y-107061000D01*
X223542013Y-107245286D01*
X223542014Y-107245288D01*
X223599274Y-107421514D01*
X223672343Y-107548074D01*
X223691923Y-107581987D01*
X223735112Y-107629954D01*
X223815906Y-107719686D01*
X223815909Y-107719688D01*
X223815912Y-107719691D01*
X223965822Y-107828607D01*
X224135095Y-107903973D01*
X224135098Y-107903973D01*
X224135101Y-107903975D01*
X224316351Y-107942500D01*
X224501649Y-107942500D01*
X224682899Y-107903975D01*
X224682902Y-107903973D01*
X224682904Y-107903973D01*
X224739922Y-107878586D01*
X224852178Y-107828607D01*
X225002088Y-107719691D01*
X225126077Y-107581987D01*
X225218726Y-107421513D01*
X225275987Y-107245284D01*
X225295356Y-107061000D01*
X225275987Y-106876716D01*
X225218726Y-106700487D01*
X225126077Y-106540013D01*
X225077514Y-106486078D01*
X225002093Y-106402313D01*
X225002090Y-106402311D01*
X225002089Y-106402310D01*
X225002088Y-106402309D01*
X224852178Y-106293393D01*
X224852177Y-106293392D01*
X224682904Y-106218026D01*
X224682896Y-106218024D01*
X224501649Y-106179500D01*
X224316351Y-106179500D01*
X224135103Y-106218024D01*
X224135095Y-106218026D01*
X223965822Y-106293392D01*
X223815909Y-106402311D01*
X223815906Y-106402313D01*
X223691922Y-106540014D01*
X223599274Y-106700485D01*
X223542014Y-106876711D01*
X223542013Y-106876713D01*
X223522644Y-107061000D01*
X220342356Y-107061000D01*
X220322987Y-106876716D01*
X220265726Y-106700487D01*
X220173077Y-106540013D01*
X220124514Y-106486078D01*
X220049093Y-106402313D01*
X220049090Y-106402311D01*
X220049089Y-106402310D01*
X220049088Y-106402309D01*
X219899178Y-106293393D01*
X219899177Y-106293392D01*
X219729904Y-106218026D01*
X219729896Y-106218024D01*
X219548649Y-106179500D01*
X219363351Y-106179500D01*
X219182103Y-106218024D01*
X219182095Y-106218026D01*
X219012822Y-106293392D01*
X218862909Y-106402311D01*
X218862906Y-106402313D01*
X218738922Y-106540014D01*
X218646274Y-106700485D01*
X218589014Y-106876711D01*
X218589013Y-106876713D01*
X218569644Y-107061000D01*
X158697412Y-107061000D01*
X158705077Y-107052487D01*
X158797726Y-106892013D01*
X158854987Y-106715784D01*
X158874356Y-106531500D01*
X158854987Y-106347216D01*
X158797726Y-106170987D01*
X158705077Y-106010513D01*
X158656514Y-105956578D01*
X158581093Y-105872813D01*
X158581090Y-105872811D01*
X158581089Y-105872810D01*
X158581088Y-105872809D01*
X158431178Y-105763893D01*
X158431177Y-105763892D01*
X158261904Y-105688526D01*
X158261896Y-105688524D01*
X158080649Y-105650000D01*
X157895351Y-105650000D01*
X157714103Y-105688524D01*
X157714095Y-105688526D01*
X157544822Y-105763892D01*
X157394909Y-105872811D01*
X157394906Y-105872813D01*
X157270922Y-106010514D01*
X157178274Y-106170985D01*
X157121014Y-106347211D01*
X157121013Y-106347213D01*
X157101644Y-106531500D01*
X129078500Y-106531500D01*
X129078500Y-87898999D01*
X129581341Y-87898999D01*
X129581341Y-87899000D01*
X129601936Y-88134403D01*
X129601938Y-88134413D01*
X129663094Y-88362655D01*
X129663096Y-88362659D01*
X129663097Y-88362663D01*
X129729943Y-88506014D01*
X129762965Y-88576830D01*
X129762967Y-88576834D01*
X129898501Y-88770395D01*
X129898506Y-88770402D01*
X130065597Y-88937493D01*
X130065603Y-88937498D01*
X130251158Y-89067425D01*
X130294783Y-89122002D01*
X130301977Y-89191500D01*
X130270454Y-89253855D01*
X130251158Y-89270575D01*
X130065597Y-89400505D01*
X129898505Y-89567597D01*
X129762965Y-89761169D01*
X129762964Y-89761171D01*
X129663098Y-89975335D01*
X129663094Y-89975344D01*
X129601938Y-90203586D01*
X129601936Y-90203596D01*
X129581341Y-90438999D01*
X129581341Y-90439000D01*
X129601936Y-90674403D01*
X129601938Y-90674413D01*
X129663094Y-90902655D01*
X129663096Y-90902659D01*
X129663097Y-90902663D01*
X129762965Y-91116830D01*
X129762967Y-91116834D01*
X129898501Y-91310395D01*
X129898506Y-91310402D01*
X130065597Y-91477493D01*
X130065603Y-91477498D01*
X130251158Y-91607425D01*
X130294783Y-91662002D01*
X130301977Y-91731500D01*
X130270454Y-91793855D01*
X130251158Y-91810575D01*
X130065597Y-91940505D01*
X129898505Y-92107597D01*
X129762965Y-92301169D01*
X129762964Y-92301171D01*
X129663098Y-92515335D01*
X129663094Y-92515344D01*
X129601938Y-92743586D01*
X129601936Y-92743596D01*
X129581341Y-92978999D01*
X129581341Y-92979000D01*
X129601936Y-93214403D01*
X129601938Y-93214413D01*
X129663094Y-93442655D01*
X129663096Y-93442659D01*
X129663097Y-93442663D01*
X129732501Y-93591499D01*
X129762965Y-93656830D01*
X129762967Y-93656834D01*
X129898501Y-93850395D01*
X129898506Y-93850402D01*
X130065597Y-94017493D01*
X130065603Y-94017498D01*
X130251594Y-94147730D01*
X130295219Y-94202307D01*
X130302413Y-94271805D01*
X130270890Y-94334160D01*
X130251595Y-94350880D01*
X130065922Y-94480890D01*
X130065920Y-94480891D01*
X129898891Y-94647920D01*
X129898886Y-94647926D01*
X129763400Y-94841420D01*
X129763399Y-94841422D01*
X129663570Y-95055507D01*
X129663567Y-95055513D01*
X129606364Y-95268999D01*
X129606364Y-95269000D01*
X130503988Y-95269000D01*
X130471075Y-95326007D01*
X130437000Y-95453174D01*
X130437000Y-95584826D01*
X130471075Y-95711993D01*
X130503988Y-95769000D01*
X129606364Y-95769000D01*
X129663567Y-95982486D01*
X129663570Y-95982492D01*
X129763399Y-96196578D01*
X129898894Y-96390082D01*
X130065917Y-96557105D01*
X130252031Y-96687425D01*
X130295656Y-96742003D01*
X130302848Y-96811501D01*
X130271326Y-96873856D01*
X130252031Y-96890575D01*
X130065922Y-97020890D01*
X130065920Y-97020891D01*
X129898891Y-97187920D01*
X129898886Y-97187926D01*
X129763400Y-97381420D01*
X129763399Y-97381422D01*
X129663570Y-97595507D01*
X129663567Y-97595513D01*
X129606364Y-97808999D01*
X129606364Y-97809000D01*
X130503988Y-97809000D01*
X130471075Y-97866007D01*
X130437000Y-97993174D01*
X130437000Y-98124826D01*
X130471075Y-98251993D01*
X130503988Y-98309000D01*
X129606364Y-98309000D01*
X129663567Y-98522486D01*
X129663570Y-98522492D01*
X129763399Y-98736578D01*
X129898894Y-98930082D01*
X130065917Y-99097105D01*
X130252031Y-99227425D01*
X130295656Y-99282003D01*
X130302848Y-99351501D01*
X130271326Y-99413856D01*
X130252031Y-99430575D01*
X130065922Y-99560890D01*
X130065920Y-99560891D01*
X129898891Y-99727920D01*
X129898886Y-99727926D01*
X129763400Y-99921420D01*
X129763399Y-99921422D01*
X129663570Y-100135507D01*
X129663567Y-100135513D01*
X129606364Y-100348999D01*
X129606364Y-100349000D01*
X130503988Y-100349000D01*
X130471075Y-100406007D01*
X130437000Y-100533174D01*
X130437000Y-100664826D01*
X130471075Y-100791993D01*
X130503988Y-100849000D01*
X129606364Y-100849000D01*
X129663567Y-101062486D01*
X129663570Y-101062492D01*
X129763399Y-101276578D01*
X129898894Y-101470082D01*
X130065917Y-101637105D01*
X130252031Y-101767425D01*
X130295656Y-101822003D01*
X130302848Y-101891501D01*
X130271326Y-101953856D01*
X130252031Y-101970575D01*
X130065922Y-102100890D01*
X130065920Y-102100891D01*
X129898891Y-102267920D01*
X129898886Y-102267926D01*
X129763400Y-102461420D01*
X129763399Y-102461422D01*
X129663570Y-102675507D01*
X129663567Y-102675513D01*
X129606364Y-102888999D01*
X129606364Y-102889000D01*
X130503988Y-102889000D01*
X130471075Y-102946007D01*
X130437000Y-103073174D01*
X130437000Y-103204826D01*
X130471075Y-103331993D01*
X130503988Y-103389000D01*
X129606364Y-103389000D01*
X129663567Y-103602486D01*
X129663570Y-103602492D01*
X129763399Y-103816578D01*
X129898894Y-104010082D01*
X130065917Y-104177105D01*
X130259421Y-104312600D01*
X130473507Y-104412429D01*
X130473516Y-104412433D01*
X130687000Y-104469634D01*
X130687000Y-103572012D01*
X130744007Y-103604925D01*
X130871174Y-103639000D01*
X131002826Y-103639000D01*
X131129993Y-103604925D01*
X131187000Y-103572012D01*
X131187000Y-104469633D01*
X131400483Y-104412433D01*
X131400492Y-104412429D01*
X131440013Y-104394000D01*
X136146644Y-104394000D01*
X136166013Y-104578286D01*
X136166014Y-104578288D01*
X136223274Y-104754514D01*
X136296343Y-104881074D01*
X136315923Y-104914987D01*
X136359112Y-104962954D01*
X136439906Y-105052686D01*
X136439909Y-105052688D01*
X136439912Y-105052691D01*
X136589822Y-105161607D01*
X136759095Y-105236973D01*
X136759098Y-105236973D01*
X136759101Y-105236975D01*
X136940351Y-105275500D01*
X137125649Y-105275500D01*
X137306899Y-105236975D01*
X137306902Y-105236973D01*
X137306904Y-105236973D01*
X137363922Y-105211586D01*
X137476178Y-105161607D01*
X137626088Y-105052691D01*
X137750077Y-104914987D01*
X137842726Y-104754513D01*
X137899987Y-104578284D01*
X137919356Y-104394000D01*
X137899987Y-104209716D01*
X137842726Y-104033487D01*
X137750077Y-103873013D01*
X137668751Y-103782691D01*
X137626093Y-103735313D01*
X137626090Y-103735311D01*
X137626089Y-103735310D01*
X137626088Y-103735309D01*
X137526148Y-103662698D01*
X137483896Y-103632000D01*
X174373644Y-103632000D01*
X174393013Y-103816286D01*
X174393014Y-103816288D01*
X174450274Y-103992514D01*
X174469600Y-104025987D01*
X174542923Y-104152987D01*
X174564639Y-104177105D01*
X174666906Y-104290686D01*
X174666909Y-104290688D01*
X174666912Y-104290691D01*
X174798782Y-104386500D01*
X174816822Y-104399607D01*
X174986095Y-104474973D01*
X174986098Y-104474973D01*
X174986101Y-104474975D01*
X175167351Y-104513500D01*
X175352649Y-104513500D01*
X175533899Y-104474975D01*
X175533902Y-104474973D01*
X175533904Y-104474973D01*
X175590922Y-104449586D01*
X175703178Y-104399607D01*
X175853088Y-104290691D01*
X175977077Y-104152987D01*
X176069726Y-103992513D01*
X176126987Y-103816284D01*
X176146356Y-103632000D01*
X181231644Y-103632000D01*
X181251013Y-103816286D01*
X181251014Y-103816288D01*
X181308274Y-103992514D01*
X181327600Y-104025987D01*
X181400923Y-104152987D01*
X181422639Y-104177105D01*
X181524906Y-104290686D01*
X181524909Y-104290688D01*
X181524912Y-104290691D01*
X181656782Y-104386500D01*
X181674822Y-104399607D01*
X181844095Y-104474973D01*
X181844098Y-104474973D01*
X181844101Y-104474975D01*
X182025351Y-104513500D01*
X182210649Y-104513500D01*
X182391899Y-104474975D01*
X182391902Y-104474973D01*
X182391904Y-104474973D01*
X182448922Y-104449586D01*
X182561178Y-104399607D01*
X182711088Y-104290691D01*
X182835077Y-104152987D01*
X182927726Y-103992513D01*
X182984987Y-103816284D01*
X183004356Y-103632000D01*
X182984987Y-103447716D01*
X182927726Y-103271487D01*
X182842575Y-103124000D01*
X198630644Y-103124000D01*
X198650013Y-103308286D01*
X198650014Y-103308288D01*
X198707274Y-103484514D01*
X198765853Y-103585975D01*
X198799923Y-103644987D01*
X198839808Y-103689284D01*
X198923906Y-103782686D01*
X198923909Y-103782688D01*
X198923912Y-103782691D01*
X199037907Y-103865513D01*
X199073822Y-103891607D01*
X199243095Y-103966973D01*
X199243098Y-103966973D01*
X199243101Y-103966975D01*
X199424351Y-104005500D01*
X199609649Y-104005500D01*
X199790899Y-103966975D01*
X199790902Y-103966973D01*
X199790904Y-103966973D01*
X199848087Y-103941513D01*
X199960178Y-103891607D01*
X200110088Y-103782691D01*
X200125762Y-103765284D01*
X200152751Y-103735309D01*
X200234077Y-103644987D01*
X200314898Y-103505000D01*
X201678644Y-103505000D01*
X201698013Y-103689286D01*
X201698014Y-103689288D01*
X201755274Y-103865514D01*
X201813853Y-103966975D01*
X201847923Y-104025987D01*
X201891112Y-104073954D01*
X201971906Y-104163686D01*
X201971909Y-104163688D01*
X201971912Y-104163691D01*
X202076510Y-104239686D01*
X202121822Y-104272607D01*
X202291095Y-104347973D01*
X202291098Y-104347973D01*
X202291101Y-104347975D01*
X202472351Y-104386500D01*
X202657649Y-104386500D01*
X202838899Y-104347975D01*
X202838902Y-104347973D01*
X202838904Y-104347973D01*
X202918352Y-104312600D01*
X203008178Y-104272607D01*
X203158088Y-104163691D01*
X203282077Y-104025987D01*
X203374726Y-103865513D01*
X203431987Y-103689284D01*
X203451356Y-103505000D01*
X203431987Y-103320716D01*
X203374726Y-103144487D01*
X203282077Y-102984013D01*
X203226522Y-102922313D01*
X203158093Y-102846313D01*
X203158090Y-102846311D01*
X203158089Y-102846310D01*
X203158088Y-102846309D01*
X203026218Y-102750500D01*
X203015895Y-102743000D01*
X208663644Y-102743000D01*
X208683013Y-102927286D01*
X208683014Y-102927288D01*
X208740274Y-103103514D01*
X208752102Y-103124000D01*
X208832923Y-103263987D01*
X208872808Y-103308284D01*
X208956906Y-103401686D01*
X208956909Y-103401688D01*
X208956912Y-103401691D01*
X209070907Y-103484513D01*
X209106822Y-103510607D01*
X209276095Y-103585973D01*
X209276098Y-103585973D01*
X209276101Y-103585975D01*
X209457351Y-103624500D01*
X209642649Y-103624500D01*
X209823899Y-103585975D01*
X209823902Y-103585973D01*
X209823904Y-103585973D01*
X209835073Y-103581000D01*
X217061644Y-103581000D01*
X217081013Y-103765286D01*
X217081014Y-103765288D01*
X217138274Y-103941514D01*
X217191375Y-104033487D01*
X217230923Y-104101987D01*
X217274112Y-104149954D01*
X217354906Y-104239686D01*
X217354909Y-104239688D01*
X217354912Y-104239691D01*
X217455263Y-104312600D01*
X217504822Y-104348607D01*
X217674095Y-104423973D01*
X217674098Y-104423973D01*
X217674101Y-104423975D01*
X217855351Y-104462500D01*
X218040649Y-104462500D01*
X218221899Y-104423975D01*
X218221902Y-104423973D01*
X218221904Y-104423973D01*
X218306071Y-104386499D01*
X218391178Y-104348607D01*
X218541088Y-104239691D01*
X218665077Y-104101987D01*
X218757726Y-103941513D01*
X218814987Y-103765284D01*
X218834356Y-103581000D01*
X218814987Y-103396716D01*
X218757726Y-103220487D01*
X218665077Y-103060013D01*
X218616514Y-103006078D01*
X218541093Y-102922313D01*
X218541090Y-102922311D01*
X218541089Y-102922310D01*
X218541088Y-102922309D01*
X218441148Y-102849698D01*
X218391177Y-102813392D01*
X218221904Y-102738026D01*
X218221896Y-102738024D01*
X218040649Y-102699500D01*
X217855351Y-102699500D01*
X217674103Y-102738024D01*
X217674095Y-102738026D01*
X217504822Y-102813392D01*
X217354909Y-102922311D01*
X217354906Y-102922313D01*
X217230922Y-103060014D01*
X217138274Y-103220485D01*
X217081014Y-103396711D01*
X217081013Y-103396713D01*
X217061644Y-103581000D01*
X209835073Y-103581000D01*
X209880922Y-103560586D01*
X209993178Y-103510607D01*
X210143088Y-103401691D01*
X210147571Y-103396713D01*
X210205844Y-103331993D01*
X210267077Y-103263987D01*
X210359726Y-103103513D01*
X210416987Y-102927284D01*
X210436356Y-102743000D01*
X210416987Y-102558716D01*
X210359726Y-102382487D01*
X210267077Y-102222013D01*
X210185751Y-102131691D01*
X210143093Y-102084313D01*
X210143090Y-102084311D01*
X210143089Y-102084310D01*
X210143088Y-102084309D01*
X210043148Y-102011698D01*
X209993177Y-101975392D01*
X209823904Y-101900026D01*
X209823896Y-101900024D01*
X209642649Y-101861500D01*
X209457351Y-101861500D01*
X209276103Y-101900024D01*
X209276095Y-101900026D01*
X209106822Y-101975392D01*
X208956909Y-102084311D01*
X208956906Y-102084313D01*
X208832922Y-102222014D01*
X208740274Y-102382485D01*
X208683014Y-102558711D01*
X208683013Y-102558713D01*
X208663644Y-102743000D01*
X203015895Y-102743000D01*
X203008177Y-102737392D01*
X202838904Y-102662026D01*
X202838896Y-102662024D01*
X202657649Y-102623500D01*
X202472351Y-102623500D01*
X202291103Y-102662024D01*
X202291095Y-102662026D01*
X202121822Y-102737392D01*
X201971909Y-102846311D01*
X201971906Y-102846313D01*
X201847922Y-102984014D01*
X201755274Y-103144485D01*
X201698014Y-103320711D01*
X201698013Y-103320713D01*
X201678644Y-103505000D01*
X200314898Y-103505000D01*
X200326726Y-103484513D01*
X200383987Y-103308284D01*
X200403356Y-103124000D01*
X200383987Y-102939716D01*
X200326726Y-102763487D01*
X200234077Y-102603013D01*
X200185514Y-102549078D01*
X200110093Y-102465313D01*
X200110090Y-102465311D01*
X200110089Y-102465310D01*
X200110088Y-102465309D01*
X199960178Y-102356393D01*
X199960177Y-102356392D01*
X199790904Y-102281026D01*
X199790896Y-102281024D01*
X199609649Y-102242500D01*
X199424351Y-102242500D01*
X199243103Y-102281024D01*
X199243095Y-102281026D01*
X199073822Y-102356392D01*
X198923909Y-102465311D01*
X198923906Y-102465313D01*
X198799922Y-102603014D01*
X198707274Y-102763485D01*
X198650014Y-102939711D01*
X198650013Y-102939713D01*
X198630644Y-103124000D01*
X182842575Y-103124000D01*
X182835077Y-103111013D01*
X182786514Y-103057078D01*
X182711093Y-102973313D01*
X182711090Y-102973311D01*
X182711089Y-102973310D01*
X182711088Y-102973309D01*
X182561178Y-102864393D01*
X182561177Y-102864392D01*
X182391904Y-102789026D01*
X182391896Y-102789024D01*
X182210649Y-102750500D01*
X182025351Y-102750500D01*
X181844103Y-102789024D01*
X181844095Y-102789026D01*
X181674822Y-102864392D01*
X181524909Y-102973311D01*
X181524906Y-102973313D01*
X181400922Y-103111014D01*
X181308274Y-103271485D01*
X181251014Y-103447711D01*
X181251013Y-103447713D01*
X181231644Y-103632000D01*
X176146356Y-103632000D01*
X176126987Y-103447716D01*
X176069726Y-103271487D01*
X175977077Y-103111013D01*
X175928514Y-103057078D01*
X175853093Y-102973313D01*
X175853090Y-102973311D01*
X175853089Y-102973310D01*
X175853088Y-102973309D01*
X175703178Y-102864393D01*
X175703177Y-102864392D01*
X175533904Y-102789026D01*
X175533896Y-102789024D01*
X175352649Y-102750500D01*
X175167351Y-102750500D01*
X174986103Y-102789024D01*
X174986095Y-102789026D01*
X174816822Y-102864392D01*
X174666909Y-102973311D01*
X174666906Y-102973313D01*
X174542922Y-103111014D01*
X174450274Y-103271485D01*
X174393014Y-103447711D01*
X174393013Y-103447713D01*
X174373644Y-103632000D01*
X137483896Y-103632000D01*
X137476177Y-103626392D01*
X137306904Y-103551026D01*
X137306896Y-103551024D01*
X137125649Y-103512500D01*
X136940351Y-103512500D01*
X136759103Y-103551024D01*
X136759095Y-103551026D01*
X136589822Y-103626392D01*
X136439909Y-103735311D01*
X136439906Y-103735313D01*
X136315922Y-103873014D01*
X136223274Y-104033485D01*
X136166014Y-104209711D01*
X136166013Y-104209713D01*
X136146644Y-104394000D01*
X131440013Y-104394000D01*
X131614578Y-104312600D01*
X131808082Y-104177105D01*
X131975105Y-104010082D01*
X132110600Y-103816578D01*
X132210429Y-103602492D01*
X132210432Y-103602486D01*
X132267636Y-103389000D01*
X131370012Y-103389000D01*
X131402925Y-103331993D01*
X131437000Y-103204826D01*
X131437000Y-103073174D01*
X131402925Y-102946007D01*
X131370012Y-102889000D01*
X132267636Y-102889000D01*
X132267635Y-102888999D01*
X132210432Y-102675513D01*
X132210429Y-102675507D01*
X132110600Y-102461422D01*
X132110599Y-102461420D01*
X131975113Y-102267926D01*
X131975108Y-102267920D01*
X131808082Y-102100894D01*
X131621968Y-101970575D01*
X131578344Y-101915998D01*
X131571151Y-101846499D01*
X131602673Y-101784145D01*
X131621968Y-101767425D01*
X131808082Y-101637105D01*
X131975105Y-101470082D01*
X132110600Y-101276578D01*
X132141879Y-101209500D01*
X137162644Y-101209500D01*
X137182013Y-101393786D01*
X137182014Y-101393788D01*
X137239274Y-101570014D01*
X137289661Y-101657286D01*
X137331923Y-101730487D01*
X137365182Y-101767425D01*
X137455906Y-101868186D01*
X137455909Y-101868188D01*
X137455912Y-101868191D01*
X137597250Y-101970879D01*
X137605822Y-101977107D01*
X137775095Y-102052473D01*
X137775098Y-102052473D01*
X137775101Y-102052475D01*
X137956351Y-102091000D01*
X138141649Y-102091000D01*
X138322899Y-102052475D01*
X138322902Y-102052473D01*
X138322904Y-102052473D01*
X138379922Y-102027086D01*
X138492178Y-101977107D01*
X138642088Y-101868191D01*
X138766077Y-101730487D01*
X138858726Y-101570013D01*
X138915987Y-101393784D01*
X138935356Y-101209500D01*
X138915987Y-101025216D01*
X138896421Y-100965000D01*
X157101644Y-100965000D01*
X157121013Y-101149286D01*
X157121014Y-101149288D01*
X157178274Y-101325514D01*
X157217690Y-101393784D01*
X157270923Y-101485987D01*
X157314112Y-101533954D01*
X157394906Y-101623686D01*
X157394909Y-101623688D01*
X157394912Y-101623691D01*
X157541901Y-101730485D01*
X157544822Y-101732607D01*
X157714095Y-101807973D01*
X157714098Y-101807973D01*
X157714101Y-101807975D01*
X157895351Y-101846500D01*
X158080649Y-101846500D01*
X158261899Y-101807975D01*
X158261902Y-101807973D01*
X158261904Y-101807973D01*
X158340375Y-101773035D01*
X158431178Y-101732607D01*
X158581088Y-101623691D01*
X158705077Y-101485987D01*
X158797726Y-101325513D01*
X158854987Y-101149284D01*
X158874356Y-100965000D01*
X158854987Y-100780716D01*
X158832335Y-100711000D01*
X163832644Y-100711000D01*
X163852013Y-100895286D01*
X163852014Y-100895288D01*
X163909274Y-101071514D01*
X163932929Y-101112485D01*
X164001923Y-101231987D01*
X164037107Y-101271063D01*
X164125906Y-101369686D01*
X164125909Y-101369688D01*
X164125912Y-101369691D01*
X164243814Y-101455352D01*
X164275822Y-101478607D01*
X164445095Y-101553973D01*
X164445098Y-101553973D01*
X164445101Y-101553975D01*
X164626351Y-101592500D01*
X164811649Y-101592500D01*
X164992899Y-101553975D01*
X164992902Y-101553973D01*
X164992904Y-101553973D01*
X165049922Y-101528586D01*
X165162178Y-101478607D01*
X165312088Y-101369691D01*
X165436077Y-101231987D01*
X165528726Y-101071513D01*
X165585987Y-100895284D01*
X165605356Y-100711000D01*
X165594990Y-100612377D01*
X190277021Y-100612377D01*
X190296390Y-100796663D01*
X190296391Y-100796665D01*
X190353651Y-100972891D01*
X190410591Y-101071514D01*
X190446300Y-101133364D01*
X190489489Y-101181331D01*
X190570283Y-101271063D01*
X190570286Y-101271065D01*
X190570289Y-101271068D01*
X190706025Y-101369686D01*
X190720199Y-101379984D01*
X190889472Y-101455350D01*
X190889475Y-101455350D01*
X190889478Y-101455352D01*
X191070728Y-101493877D01*
X191256026Y-101493877D01*
X191437276Y-101455352D01*
X191437279Y-101455350D01*
X191437281Y-101455350D01*
X191494299Y-101429963D01*
X191606555Y-101379984D01*
X191756465Y-101271068D01*
X191880454Y-101133364D01*
X191973103Y-100972890D01*
X192030364Y-100796661D01*
X192049733Y-100612377D01*
X192030364Y-100428093D01*
X191973103Y-100251864D01*
X191880454Y-100091390D01*
X191815018Y-100018716D01*
X191756470Y-99953690D01*
X191756467Y-99953688D01*
X191756466Y-99953687D01*
X191756465Y-99953686D01*
X191638563Y-99868025D01*
X191606554Y-99844769D01*
X191555415Y-99822000D01*
X197995644Y-99822000D01*
X198015013Y-100006286D01*
X198015014Y-100006288D01*
X198072274Y-100182514D01*
X198135482Y-100291993D01*
X198164923Y-100342987D01*
X198186116Y-100366524D01*
X198288906Y-100480686D01*
X198288909Y-100480688D01*
X198288912Y-100480691D01*
X198385424Y-100550811D01*
X198438822Y-100589607D01*
X198608095Y-100664973D01*
X198608098Y-100664973D01*
X198608101Y-100664975D01*
X198789351Y-100703500D01*
X198974649Y-100703500D01*
X199155899Y-100664975D01*
X199221524Y-100635756D01*
X199290771Y-100626471D01*
X199354048Y-100656099D01*
X199391262Y-100715233D01*
X199395279Y-100736074D01*
X199412013Y-100895285D01*
X199412014Y-100895288D01*
X199469274Y-101071514D01*
X199492929Y-101112485D01*
X199561923Y-101231987D01*
X199597107Y-101271063D01*
X199685906Y-101369686D01*
X199685909Y-101369688D01*
X199685912Y-101369691D01*
X199803814Y-101455352D01*
X199835822Y-101478607D01*
X200005095Y-101553973D01*
X200005098Y-101553973D01*
X200005101Y-101553975D01*
X200186351Y-101592500D01*
X200371649Y-101592500D01*
X200552899Y-101553975D01*
X200552902Y-101553973D01*
X200552904Y-101553973D01*
X200609922Y-101528586D01*
X200722178Y-101478607D01*
X200729895Y-101473000D01*
X203075644Y-101473000D01*
X203095013Y-101657286D01*
X203095014Y-101657288D01*
X203152274Y-101833514D01*
X203190674Y-101900024D01*
X203244923Y-101993987D01*
X203288112Y-102041954D01*
X203368906Y-102131686D01*
X203368909Y-102131688D01*
X203368912Y-102131691D01*
X203493230Y-102222013D01*
X203518822Y-102240607D01*
X203688095Y-102315973D01*
X203688098Y-102315973D01*
X203688101Y-102315975D01*
X203869351Y-102354500D01*
X204054649Y-102354500D01*
X204235899Y-102315975D01*
X204235902Y-102315973D01*
X204235904Y-102315973D01*
X204292922Y-102290586D01*
X204405178Y-102240607D01*
X204555088Y-102131691D01*
X204679077Y-101993987D01*
X204771726Y-101833513D01*
X204828987Y-101657284D01*
X204848356Y-101473000D01*
X204828987Y-101288716D01*
X204771726Y-101112487D01*
X204679077Y-100952013D01*
X204597751Y-100861691D01*
X204555093Y-100814313D01*
X204555090Y-100814311D01*
X204555089Y-100814310D01*
X204555088Y-100814309D01*
X204447407Y-100736074D01*
X204405177Y-100705392D01*
X204235904Y-100630026D01*
X204235896Y-100630024D01*
X204054649Y-100591500D01*
X203869351Y-100591500D01*
X203688103Y-100630024D01*
X203688095Y-100630026D01*
X203518822Y-100705392D01*
X203368909Y-100814311D01*
X203368906Y-100814313D01*
X203244922Y-100952014D01*
X203152274Y-101112485D01*
X203095014Y-101288711D01*
X203095013Y-101288713D01*
X203075644Y-101473000D01*
X200729895Y-101473000D01*
X200872088Y-101369691D01*
X200996077Y-101231987D01*
X201088726Y-101071513D01*
X201145987Y-100895284D01*
X201165356Y-100711000D01*
X201145987Y-100526716D01*
X201088726Y-100350487D01*
X201087867Y-100349000D01*
X201031785Y-100251862D01*
X201003575Y-100203000D01*
X208536644Y-100203000D01*
X208556013Y-100387286D01*
X208556014Y-100387288D01*
X208613274Y-100563514D01*
X208671852Y-100664974D01*
X208705923Y-100723987D01*
X208749112Y-100771954D01*
X208829906Y-100861686D01*
X208829909Y-100861688D01*
X208829912Y-100861691D01*
X208890908Y-100906007D01*
X208979822Y-100970607D01*
X209149095Y-101045973D01*
X209149098Y-101045973D01*
X209149101Y-101045975D01*
X209330351Y-101084500D01*
X209515649Y-101084500D01*
X209696899Y-101045975D01*
X209696902Y-101045973D01*
X209696904Y-101045973D01*
X209802184Y-100999099D01*
X209866178Y-100970607D01*
X210016088Y-100861691D01*
X210140077Y-100723987D01*
X210232726Y-100563513D01*
X210289987Y-100387284D01*
X210309356Y-100203000D01*
X210289987Y-100018716D01*
X210232726Y-99842487D01*
X210140077Y-99682013D01*
X210091514Y-99628078D01*
X210016093Y-99544313D01*
X210016090Y-99544311D01*
X210016089Y-99544310D01*
X210016088Y-99544309D01*
X209866178Y-99435393D01*
X209866177Y-99435392D01*
X209696904Y-99360026D01*
X209696896Y-99360024D01*
X209515649Y-99321500D01*
X209330351Y-99321500D01*
X209149103Y-99360024D01*
X209149095Y-99360026D01*
X208979822Y-99435392D01*
X208829909Y-99544311D01*
X208829906Y-99544313D01*
X208705922Y-99682014D01*
X208613274Y-99842485D01*
X208556014Y-100018711D01*
X208556013Y-100018713D01*
X208536644Y-100203000D01*
X201003575Y-100203000D01*
X200996077Y-100190013D01*
X200944810Y-100133075D01*
X200872093Y-100052313D01*
X200872090Y-100052311D01*
X200872089Y-100052310D01*
X200872088Y-100052309D01*
X200722178Y-99943393D01*
X200722177Y-99943392D01*
X200552904Y-99868026D01*
X200552896Y-99868024D01*
X200371649Y-99829500D01*
X200186351Y-99829500D01*
X200005103Y-99868024D01*
X200005095Y-99868026D01*
X199939475Y-99897242D01*
X199870225Y-99906526D01*
X199806949Y-99876897D01*
X199769736Y-99817761D01*
X199765720Y-99796924D01*
X199748987Y-99637716D01*
X199691726Y-99461487D01*
X199599077Y-99301013D01*
X199547873Y-99244145D01*
X199475093Y-99163313D01*
X199475090Y-99163311D01*
X199475089Y-99163310D01*
X199475088Y-99163309D01*
X199325178Y-99054393D01*
X199325177Y-99054392D01*
X199155904Y-98979026D01*
X199155896Y-98979024D01*
X198974649Y-98940500D01*
X198789351Y-98940500D01*
X198608103Y-98979024D01*
X198608095Y-98979026D01*
X198438822Y-99054392D01*
X198288909Y-99163311D01*
X198288906Y-99163313D01*
X198164922Y-99301014D01*
X198072274Y-99461485D01*
X198015014Y-99637711D01*
X198015013Y-99637713D01*
X197995644Y-99822000D01*
X191555415Y-99822000D01*
X191437281Y-99769403D01*
X191437273Y-99769401D01*
X191256026Y-99730877D01*
X191070728Y-99730877D01*
X190889480Y-99769401D01*
X190889472Y-99769403D01*
X190720199Y-99844769D01*
X190570286Y-99953688D01*
X190570283Y-99953690D01*
X190446299Y-100091391D01*
X190353651Y-100251862D01*
X190296391Y-100428088D01*
X190296390Y-100428090D01*
X190277021Y-100612377D01*
X165594990Y-100612377D01*
X165585987Y-100526716D01*
X165528726Y-100350487D01*
X165527867Y-100349000D01*
X165471785Y-100251862D01*
X165436077Y-100190013D01*
X165384810Y-100133075D01*
X165312093Y-100052313D01*
X165312090Y-100052311D01*
X165312089Y-100052310D01*
X165312088Y-100052309D01*
X165162178Y-99943393D01*
X165162177Y-99943392D01*
X164992904Y-99868026D01*
X164992896Y-99868024D01*
X164811649Y-99829500D01*
X164626351Y-99829500D01*
X164445103Y-99868024D01*
X164445095Y-99868026D01*
X164275822Y-99943392D01*
X164125909Y-100052311D01*
X164125906Y-100052313D01*
X164001922Y-100190014D01*
X163909274Y-100350485D01*
X163852014Y-100526711D01*
X163852013Y-100526713D01*
X163832644Y-100711000D01*
X158832335Y-100711000D01*
X158797726Y-100604487D01*
X158705077Y-100444013D01*
X158635306Y-100366524D01*
X158581093Y-100306313D01*
X158581090Y-100306311D01*
X158581089Y-100306310D01*
X158581088Y-100306309D01*
X158481148Y-100233698D01*
X158431177Y-100197392D01*
X158261904Y-100122026D01*
X158261896Y-100122024D01*
X158080649Y-100083500D01*
X157895351Y-100083500D01*
X157714103Y-100122024D01*
X157714095Y-100122026D01*
X157544822Y-100197392D01*
X157394909Y-100306311D01*
X157394906Y-100306313D01*
X157270922Y-100444014D01*
X157178274Y-100604485D01*
X157121014Y-100780711D01*
X157121013Y-100780713D01*
X157101644Y-100965000D01*
X138896421Y-100965000D01*
X138858726Y-100848987D01*
X138766077Y-100688513D01*
X138690418Y-100604485D01*
X138642093Y-100550813D01*
X138642090Y-100550811D01*
X138642089Y-100550810D01*
X138642088Y-100550809D01*
X138542148Y-100478198D01*
X138492177Y-100441892D01*
X138322904Y-100366526D01*
X138322896Y-100366524D01*
X138141649Y-100328000D01*
X137956351Y-100328000D01*
X137775103Y-100366524D01*
X137775095Y-100366526D01*
X137605822Y-100441892D01*
X137455909Y-100550811D01*
X137455906Y-100550813D01*
X137331922Y-100688514D01*
X137239274Y-100848985D01*
X137182014Y-101025211D01*
X137182013Y-101025213D01*
X137162644Y-101209500D01*
X132141879Y-101209500D01*
X132210429Y-101062492D01*
X132210432Y-101062486D01*
X132267636Y-100849000D01*
X131370012Y-100849000D01*
X131402925Y-100791993D01*
X131437000Y-100664826D01*
X131437000Y-100533174D01*
X131402925Y-100406007D01*
X131370012Y-100349000D01*
X132267636Y-100349000D01*
X132267635Y-100348999D01*
X132210432Y-100135513D01*
X132210429Y-100135507D01*
X132110600Y-99921422D01*
X132110599Y-99921420D01*
X131975113Y-99727926D01*
X131975108Y-99727920D01*
X131808082Y-99560894D01*
X131621968Y-99430575D01*
X131578344Y-99375998D01*
X131571151Y-99306499D01*
X131602673Y-99244145D01*
X131621968Y-99227425D01*
X131808082Y-99097105D01*
X131975105Y-98930082D01*
X132110600Y-98736578D01*
X132210429Y-98522492D01*
X132210432Y-98522486D01*
X132267636Y-98309000D01*
X131370012Y-98309000D01*
X131402925Y-98251993D01*
X131437000Y-98124826D01*
X131437000Y-97993174D01*
X131402925Y-97866007D01*
X131370012Y-97809000D01*
X132267636Y-97809000D01*
X132267635Y-97808999D01*
X132210432Y-97595513D01*
X132210429Y-97595507D01*
X132182681Y-97536000D01*
X206631644Y-97536000D01*
X206651013Y-97720286D01*
X206651014Y-97720288D01*
X206708274Y-97896514D01*
X206764081Y-97993174D01*
X206800923Y-98056987D01*
X206802735Y-98058999D01*
X206924906Y-98194686D01*
X206924909Y-98194688D01*
X206924912Y-98194691D01*
X207062154Y-98294403D01*
X207074822Y-98303607D01*
X207244095Y-98378973D01*
X207244098Y-98378973D01*
X207244101Y-98378975D01*
X207425351Y-98417500D01*
X207610649Y-98417500D01*
X207791899Y-98378975D01*
X207791902Y-98378973D01*
X207791904Y-98378973D01*
X207848922Y-98353586D01*
X207961178Y-98303607D01*
X208111088Y-98194691D01*
X208235077Y-98056987D01*
X208327726Y-97896513D01*
X208384987Y-97720284D01*
X208404356Y-97536000D01*
X208384987Y-97351716D01*
X208327726Y-97175487D01*
X208235077Y-97015013D01*
X208186514Y-96961078D01*
X208111093Y-96877313D01*
X208111090Y-96877311D01*
X208111089Y-96877310D01*
X208111088Y-96877309D01*
X207961178Y-96768393D01*
X207961177Y-96768392D01*
X207791904Y-96693026D01*
X207791896Y-96693024D01*
X207610649Y-96654500D01*
X207425351Y-96654500D01*
X207244103Y-96693024D01*
X207244095Y-96693026D01*
X207074822Y-96768392D01*
X206924909Y-96877311D01*
X206924906Y-96877313D01*
X206800922Y-97015014D01*
X206708274Y-97175485D01*
X206651014Y-97351711D01*
X206651013Y-97351713D01*
X206631644Y-97536000D01*
X132182681Y-97536000D01*
X132110600Y-97381422D01*
X132110599Y-97381420D01*
X131975113Y-97187926D01*
X131975108Y-97187920D01*
X131808082Y-97020894D01*
X131621968Y-96890575D01*
X131578344Y-96835998D01*
X131571151Y-96766499D01*
X131602673Y-96704145D01*
X131621968Y-96687425D01*
X131808082Y-96557105D01*
X131975105Y-96390082D01*
X132110600Y-96196578D01*
X132137449Y-96139000D01*
X139067644Y-96139000D01*
X139087013Y-96323286D01*
X139087014Y-96323288D01*
X139144274Y-96499514D01*
X139177751Y-96557498D01*
X139236923Y-96659987D01*
X139276683Y-96704145D01*
X139360906Y-96797686D01*
X139360909Y-96797688D01*
X139360912Y-96797691D01*
X139488756Y-96890575D01*
X139510822Y-96906607D01*
X139680095Y-96981973D01*
X139680098Y-96981973D01*
X139680101Y-96981975D01*
X139861351Y-97020500D01*
X140046649Y-97020500D01*
X140227899Y-96981975D01*
X140227902Y-96981973D01*
X140227904Y-96981973D01*
X140284922Y-96956586D01*
X140397178Y-96906607D01*
X140547088Y-96797691D01*
X140554914Y-96789000D01*
X140575173Y-96766499D01*
X140671077Y-96659987D01*
X140763726Y-96499513D01*
X140820987Y-96323284D01*
X140840356Y-96139000D01*
X140820987Y-95954716D01*
X140763726Y-95778487D01*
X140678575Y-95631000D01*
X194820644Y-95631000D01*
X194840013Y-95815286D01*
X194840014Y-95815288D01*
X194897274Y-95991514D01*
X194970343Y-96118074D01*
X194989923Y-96151987D01*
X195030073Y-96196578D01*
X195113906Y-96289686D01*
X195113909Y-96289688D01*
X195113912Y-96289691D01*
X195252088Y-96390082D01*
X195263822Y-96398607D01*
X195433095Y-96473973D01*
X195433098Y-96473973D01*
X195433101Y-96473975D01*
X195614351Y-96512500D01*
X195799649Y-96512500D01*
X195980899Y-96473975D01*
X195980902Y-96473973D01*
X195980904Y-96473973D01*
X196037922Y-96448586D01*
X196150178Y-96398607D01*
X196300088Y-96289691D01*
X196424077Y-96151987D01*
X196516726Y-95991513D01*
X196573987Y-95815284D01*
X196593356Y-95631000D01*
X196573987Y-95446716D01*
X196516726Y-95270487D01*
X196515867Y-95269000D01*
X196439073Y-95135987D01*
X196424077Y-95110013D01*
X196342129Y-95019000D01*
X196300093Y-94972313D01*
X196300090Y-94972311D01*
X196300089Y-94972310D01*
X196300088Y-94972309D01*
X196150178Y-94863393D01*
X196150177Y-94863392D01*
X195980904Y-94788026D01*
X195980896Y-94788024D01*
X195799649Y-94749500D01*
X195614351Y-94749500D01*
X195433103Y-94788024D01*
X195433095Y-94788026D01*
X195263822Y-94863392D01*
X195113909Y-94972311D01*
X195113906Y-94972313D01*
X194989922Y-95110014D01*
X194897274Y-95270485D01*
X194840014Y-95446711D01*
X194840013Y-95446713D01*
X194820644Y-95631000D01*
X140678575Y-95631000D01*
X140671077Y-95618013D01*
X140622514Y-95564078D01*
X140547093Y-95480313D01*
X140547090Y-95480311D01*
X140547089Y-95480310D01*
X140547088Y-95480309D01*
X140397178Y-95371393D01*
X140397177Y-95371392D01*
X140227904Y-95296026D01*
X140227896Y-95296024D01*
X140046649Y-95257500D01*
X139861351Y-95257500D01*
X139680103Y-95296024D01*
X139680095Y-95296026D01*
X139510822Y-95371392D01*
X139360909Y-95480311D01*
X139360906Y-95480313D01*
X139236922Y-95618014D01*
X139144274Y-95778485D01*
X139087014Y-95954711D01*
X139087013Y-95954713D01*
X139067644Y-96139000D01*
X132137449Y-96139000D01*
X132210429Y-95982492D01*
X132210432Y-95982486D01*
X132267636Y-95769000D01*
X131370012Y-95769000D01*
X131402925Y-95711993D01*
X131437000Y-95584826D01*
X131437000Y-95453174D01*
X131402925Y-95326007D01*
X131370012Y-95269000D01*
X132267636Y-95269000D01*
X132267635Y-95268999D01*
X132210432Y-95055513D01*
X132210429Y-95055507D01*
X132110600Y-94841422D01*
X132110599Y-94841420D01*
X131975113Y-94647926D01*
X131975108Y-94647920D01*
X131942188Y-94615000D01*
X158752644Y-94615000D01*
X158772013Y-94799286D01*
X158772014Y-94799288D01*
X158829274Y-94975514D01*
X158902343Y-95102074D01*
X158921923Y-95135987D01*
X158965112Y-95183954D01*
X159045906Y-95273686D01*
X159045909Y-95273688D01*
X159045912Y-95273691D01*
X159117919Y-95326007D01*
X159195822Y-95382607D01*
X159365095Y-95457973D01*
X159365098Y-95457973D01*
X159365101Y-95457975D01*
X159546351Y-95496500D01*
X159731649Y-95496500D01*
X159912899Y-95457975D01*
X159912902Y-95457973D01*
X159912904Y-95457973D01*
X159969922Y-95432586D01*
X160082178Y-95382607D01*
X160232088Y-95273691D01*
X160246667Y-95257500D01*
X160258951Y-95243855D01*
X160356077Y-95135987D01*
X160448726Y-94975513D01*
X160505987Y-94799284D01*
X160525356Y-94615000D01*
X160505987Y-94430716D01*
X160448726Y-94254487D01*
X160447811Y-94252903D01*
X160386914Y-94147425D01*
X160356077Y-94094013D01*
X160287180Y-94017495D01*
X160232093Y-93956313D01*
X160232090Y-93956311D01*
X160232089Y-93956310D01*
X160232088Y-93956309D01*
X160086320Y-93850402D01*
X160082177Y-93847392D01*
X159912904Y-93772026D01*
X159912896Y-93772024D01*
X159731649Y-93733500D01*
X159546351Y-93733500D01*
X159365103Y-93772024D01*
X159365095Y-93772026D01*
X159195822Y-93847392D01*
X159045909Y-93956311D01*
X159045906Y-93956313D01*
X158921922Y-94094014D01*
X158829274Y-94254485D01*
X158772014Y-94430711D01*
X158772013Y-94430713D01*
X158752644Y-94615000D01*
X131942188Y-94615000D01*
X131808078Y-94480890D01*
X131622405Y-94350879D01*
X131578780Y-94296302D01*
X131571588Y-94226804D01*
X131603110Y-94164449D01*
X131622406Y-94147730D01*
X131622842Y-94147425D01*
X131808401Y-94017495D01*
X131975495Y-93850401D01*
X132111035Y-93656830D01*
X132210903Y-93442663D01*
X132272063Y-93214408D01*
X132292659Y-92979000D01*
X132272063Y-92743592D01*
X132263062Y-92710000D01*
X205769894Y-92710000D01*
X205789263Y-92894286D01*
X205789264Y-92894288D01*
X205846524Y-93070514D01*
X205919593Y-93197074D01*
X205939173Y-93230987D01*
X205982362Y-93278954D01*
X206063156Y-93368686D01*
X206063159Y-93368688D01*
X206063162Y-93368691D01*
X206164965Y-93442655D01*
X206213072Y-93477607D01*
X206382345Y-93552973D01*
X206382348Y-93552973D01*
X206382351Y-93552975D01*
X206563601Y-93591500D01*
X206748899Y-93591500D01*
X206930149Y-93552975D01*
X206930152Y-93552973D01*
X206930154Y-93552973D01*
X206987172Y-93527586D01*
X207099428Y-93477607D01*
X207249338Y-93368691D01*
X207373327Y-93230987D01*
X207465976Y-93070513D01*
X207523237Y-92894284D01*
X207542606Y-92710000D01*
X214489644Y-92710000D01*
X214509013Y-92894286D01*
X214509014Y-92894288D01*
X214566274Y-93070514D01*
X214639343Y-93197074D01*
X214658923Y-93230987D01*
X214702112Y-93278954D01*
X214782906Y-93368686D01*
X214782909Y-93368688D01*
X214782912Y-93368691D01*
X214884715Y-93442655D01*
X214932822Y-93477607D01*
X215102095Y-93552973D01*
X215102098Y-93552973D01*
X215102101Y-93552975D01*
X215283351Y-93591500D01*
X215468649Y-93591500D01*
X215649899Y-93552975D01*
X215649902Y-93552973D01*
X215649904Y-93552973D01*
X215706922Y-93527586D01*
X215819178Y-93477607D01*
X215969088Y-93368691D01*
X216093077Y-93230987D01*
X216185726Y-93070513D01*
X216242987Y-92894284D01*
X216262356Y-92710000D01*
X216242987Y-92525716D01*
X216185726Y-92349487D01*
X216093077Y-92189013D01*
X216019770Y-92107597D01*
X215969093Y-92051313D01*
X215969090Y-92051311D01*
X215969089Y-92051310D01*
X215969088Y-92051309D01*
X215819178Y-91942393D01*
X215819177Y-91942392D01*
X215649904Y-91867026D01*
X215649896Y-91867024D01*
X215468649Y-91828500D01*
X215283351Y-91828500D01*
X215102103Y-91867024D01*
X215102095Y-91867026D01*
X214932822Y-91942392D01*
X214782909Y-92051311D01*
X214782906Y-92051313D01*
X214658922Y-92189014D01*
X214566274Y-92349485D01*
X214509014Y-92525711D01*
X214509013Y-92525713D01*
X214489644Y-92710000D01*
X207542606Y-92710000D01*
X207523237Y-92525716D01*
X207465976Y-92349487D01*
X207373327Y-92189013D01*
X207300020Y-92107597D01*
X207249343Y-92051313D01*
X207249340Y-92051311D01*
X207249339Y-92051310D01*
X207249338Y-92051309D01*
X207099428Y-91942393D01*
X207099427Y-91942392D01*
X206930154Y-91867026D01*
X206930146Y-91867024D01*
X206748899Y-91828500D01*
X206563601Y-91828500D01*
X206382353Y-91867024D01*
X206382345Y-91867026D01*
X206213072Y-91942392D01*
X206063159Y-92051311D01*
X206063156Y-92051313D01*
X205939172Y-92189014D01*
X205846524Y-92349485D01*
X205789264Y-92525711D01*
X205789263Y-92525713D01*
X205769894Y-92710000D01*
X132263062Y-92710000D01*
X132210903Y-92515337D01*
X132111035Y-92301171D01*
X132032503Y-92189014D01*
X131975494Y-92107597D01*
X131808402Y-91940506D01*
X131808396Y-91940501D01*
X131622842Y-91810575D01*
X131579217Y-91755998D01*
X131572023Y-91686500D01*
X131603546Y-91624145D01*
X131622842Y-91607425D01*
X131645026Y-91591891D01*
X131808401Y-91477495D01*
X131975495Y-91310401D01*
X132111035Y-91116830D01*
X132210903Y-90902663D01*
X132272063Y-90674408D01*
X132292659Y-90439000D01*
X132272063Y-90203592D01*
X132210903Y-89975337D01*
X132111035Y-89761171D01*
X132058182Y-89685688D01*
X131975494Y-89567597D01*
X131808402Y-89400506D01*
X131808396Y-89400501D01*
X131622842Y-89270575D01*
X131579217Y-89215998D01*
X131572023Y-89146500D01*
X131603546Y-89084145D01*
X131622842Y-89067425D01*
X131680575Y-89027000D01*
X131808401Y-88937495D01*
X131975495Y-88770401D01*
X132111035Y-88576830D01*
X132210903Y-88362663D01*
X132237071Y-88265000D01*
X163578644Y-88265000D01*
X163598013Y-88449286D01*
X163598014Y-88449288D01*
X163655274Y-88625514D01*
X163667102Y-88646000D01*
X163747923Y-88785987D01*
X163787808Y-88830284D01*
X163871906Y-88923686D01*
X163871909Y-88923688D01*
X163871912Y-88923691D01*
X163985907Y-89006513D01*
X164021822Y-89032607D01*
X164191095Y-89107973D01*
X164191098Y-89107973D01*
X164191101Y-89107975D01*
X164372351Y-89146500D01*
X164557649Y-89146500D01*
X164738899Y-89107975D01*
X164738902Y-89107973D01*
X164738904Y-89107973D01*
X164817375Y-89073035D01*
X164908178Y-89032607D01*
X165058088Y-88923691D01*
X165182077Y-88785987D01*
X165262898Y-88646000D01*
X170436644Y-88646000D01*
X170456013Y-88830286D01*
X170456014Y-88830288D01*
X170513274Y-89006514D01*
X170571853Y-89107975D01*
X170605923Y-89166987D01*
X170607736Y-89169000D01*
X170729906Y-89304686D01*
X170729909Y-89304688D01*
X170729912Y-89304691D01*
X170843907Y-89387513D01*
X170879822Y-89413607D01*
X171049095Y-89488973D01*
X171049098Y-89488973D01*
X171049101Y-89488975D01*
X171230351Y-89527500D01*
X171415649Y-89527500D01*
X171596899Y-89488975D01*
X171596902Y-89488973D01*
X171596904Y-89488973D01*
X171653922Y-89463586D01*
X171766178Y-89413607D01*
X171916088Y-89304691D01*
X172040077Y-89166987D01*
X172120898Y-89027000D01*
X205769894Y-89027000D01*
X205789263Y-89211286D01*
X205789264Y-89211288D01*
X205846524Y-89387514D01*
X205905103Y-89488975D01*
X205939173Y-89547987D01*
X205956830Y-89567597D01*
X206063156Y-89685686D01*
X206063159Y-89685688D01*
X206063162Y-89685691D01*
X206213072Y-89794607D01*
X206382345Y-89869973D01*
X206382348Y-89869973D01*
X206382351Y-89869975D01*
X206563601Y-89908500D01*
X206748899Y-89908500D01*
X206930149Y-89869975D01*
X206930152Y-89869973D01*
X206930154Y-89869973D01*
X206987172Y-89844586D01*
X207099428Y-89794607D01*
X207249338Y-89685691D01*
X207373327Y-89547987D01*
X207465976Y-89387513D01*
X207523237Y-89211284D01*
X207542606Y-89027000D01*
X214489644Y-89027000D01*
X214509013Y-89211286D01*
X214509014Y-89211288D01*
X214566274Y-89387514D01*
X214624853Y-89488975D01*
X214658923Y-89547987D01*
X214676580Y-89567597D01*
X214782906Y-89685686D01*
X214782909Y-89685688D01*
X214782912Y-89685691D01*
X214932822Y-89794607D01*
X215102095Y-89869973D01*
X215102098Y-89869973D01*
X215102101Y-89869975D01*
X215283351Y-89908500D01*
X215468649Y-89908500D01*
X215649899Y-89869975D01*
X215649902Y-89869973D01*
X215649904Y-89869973D01*
X215706922Y-89844586D01*
X215819178Y-89794607D01*
X215969088Y-89685691D01*
X216093077Y-89547987D01*
X216185726Y-89387513D01*
X216242987Y-89211284D01*
X216262356Y-89027000D01*
X216242987Y-88842716D01*
X216185726Y-88666487D01*
X216093077Y-88506013D01*
X216041998Y-88449284D01*
X215969093Y-88368313D01*
X215969090Y-88368311D01*
X215969089Y-88368310D01*
X215969088Y-88368309D01*
X215855091Y-88285485D01*
X215819177Y-88259392D01*
X215649904Y-88184026D01*
X215649896Y-88184024D01*
X215468649Y-88145500D01*
X215283351Y-88145500D01*
X215102103Y-88184024D01*
X215102095Y-88184026D01*
X214932822Y-88259392D01*
X214782909Y-88368311D01*
X214782906Y-88368313D01*
X214658922Y-88506014D01*
X214566274Y-88666485D01*
X214509014Y-88842711D01*
X214509013Y-88842713D01*
X214489644Y-89027000D01*
X207542606Y-89027000D01*
X207523237Y-88842716D01*
X207465976Y-88666487D01*
X207373327Y-88506013D01*
X207322248Y-88449284D01*
X207249343Y-88368313D01*
X207249340Y-88368311D01*
X207249339Y-88368310D01*
X207249338Y-88368309D01*
X207135341Y-88285485D01*
X207099427Y-88259392D01*
X206930154Y-88184026D01*
X206930146Y-88184024D01*
X206748899Y-88145500D01*
X206563601Y-88145500D01*
X206382353Y-88184024D01*
X206382345Y-88184026D01*
X206213072Y-88259392D01*
X206063159Y-88368311D01*
X206063156Y-88368313D01*
X205939172Y-88506014D01*
X205846524Y-88666485D01*
X205789264Y-88842711D01*
X205789263Y-88842713D01*
X205769894Y-89027000D01*
X172120898Y-89027000D01*
X172132726Y-89006513D01*
X172189987Y-88830284D01*
X172209356Y-88646000D01*
X172189987Y-88461716D01*
X172132726Y-88285487D01*
X172040077Y-88125013D01*
X171991514Y-88071078D01*
X171916093Y-87987313D01*
X171916090Y-87987311D01*
X171916089Y-87987310D01*
X171916088Y-87987309D01*
X171766178Y-87878393D01*
X171766177Y-87878392D01*
X171596904Y-87803026D01*
X171596896Y-87803024D01*
X171415649Y-87764500D01*
X171230351Y-87764500D01*
X171049103Y-87803024D01*
X171049095Y-87803026D01*
X170879822Y-87878392D01*
X170729909Y-87987311D01*
X170729906Y-87987313D01*
X170605922Y-88125014D01*
X170513274Y-88285485D01*
X170456014Y-88461711D01*
X170456013Y-88461713D01*
X170436644Y-88646000D01*
X165262898Y-88646000D01*
X165274726Y-88625513D01*
X165331987Y-88449284D01*
X165351356Y-88265000D01*
X165331987Y-88080716D01*
X165274726Y-87904487D01*
X165182077Y-87744013D01*
X165133514Y-87690078D01*
X165058093Y-87606313D01*
X165058090Y-87606311D01*
X165058089Y-87606310D01*
X165058088Y-87606309D01*
X164958148Y-87533698D01*
X164908177Y-87497392D01*
X164738904Y-87422026D01*
X164738896Y-87422024D01*
X164557649Y-87383500D01*
X164372351Y-87383500D01*
X164191103Y-87422024D01*
X164191095Y-87422026D01*
X164021822Y-87497392D01*
X163871909Y-87606311D01*
X163871906Y-87606313D01*
X163747922Y-87744014D01*
X163655274Y-87904485D01*
X163598014Y-88080711D01*
X163598013Y-88080713D01*
X163578644Y-88265000D01*
X132237071Y-88265000D01*
X132272063Y-88134408D01*
X132292659Y-87899000D01*
X132290690Y-87876500D01*
X132284262Y-87803024D01*
X132272063Y-87663592D01*
X132210903Y-87435337D01*
X132111035Y-87221171D01*
X132081708Y-87179288D01*
X131975496Y-87027600D01*
X131922409Y-86974513D01*
X131853567Y-86905671D01*
X131820084Y-86844351D01*
X131825068Y-86774659D01*
X131866939Y-86718725D01*
X131897915Y-86701810D01*
X132029331Y-86652796D01*
X132081156Y-86614000D01*
X172722644Y-86614000D01*
X172742013Y-86798286D01*
X172742014Y-86798288D01*
X172799274Y-86974514D01*
X172851352Y-87064716D01*
X172891923Y-87134987D01*
X172931808Y-87179284D01*
X173015906Y-87272686D01*
X173015909Y-87272688D01*
X173015912Y-87272691D01*
X173129907Y-87355513D01*
X173165822Y-87381607D01*
X173335095Y-87456973D01*
X173335098Y-87456973D01*
X173335101Y-87456975D01*
X173516351Y-87495500D01*
X173701649Y-87495500D01*
X173882899Y-87456975D01*
X173882902Y-87456973D01*
X173882904Y-87456973D01*
X173939922Y-87431586D01*
X174052178Y-87381607D01*
X174202088Y-87272691D01*
X174223420Y-87249000D01*
X183644644Y-87249000D01*
X183664013Y-87433286D01*
X183664014Y-87433288D01*
X183721274Y-87609514D01*
X183794343Y-87736074D01*
X183813923Y-87769987D01*
X183857112Y-87817954D01*
X183937906Y-87907686D01*
X183937909Y-87907688D01*
X183937912Y-87907691D01*
X184087822Y-88016607D01*
X184257095Y-88091973D01*
X184257098Y-88091973D01*
X184257101Y-88091975D01*
X184438351Y-88130500D01*
X184623649Y-88130500D01*
X184804899Y-88091975D01*
X184804902Y-88091973D01*
X184804904Y-88091973D01*
X184861922Y-88066586D01*
X184974178Y-88016607D01*
X185124088Y-87907691D01*
X185131914Y-87899000D01*
X185131915Y-87898999D01*
X225085341Y-87898999D01*
X225085341Y-87899000D01*
X225105936Y-88134403D01*
X225105938Y-88134413D01*
X225167094Y-88362655D01*
X225167096Y-88362659D01*
X225167097Y-88362663D01*
X225233943Y-88506014D01*
X225266965Y-88576830D01*
X225266967Y-88576834D01*
X225402501Y-88770395D01*
X225402506Y-88770402D01*
X225569597Y-88937493D01*
X225569603Y-88937498D01*
X225755158Y-89067425D01*
X225798783Y-89122002D01*
X225805977Y-89191500D01*
X225774454Y-89253855D01*
X225755158Y-89270575D01*
X225569597Y-89400505D01*
X225402505Y-89567597D01*
X225266965Y-89761169D01*
X225266964Y-89761171D01*
X225167098Y-89975335D01*
X225167094Y-89975344D01*
X225105938Y-90203586D01*
X225105936Y-90203596D01*
X225085341Y-90438999D01*
X225085341Y-90439000D01*
X225105936Y-90674403D01*
X225105938Y-90674413D01*
X225167094Y-90902655D01*
X225167096Y-90902659D01*
X225167097Y-90902663D01*
X225266965Y-91116830D01*
X225266967Y-91116834D01*
X225402501Y-91310395D01*
X225402506Y-91310402D01*
X225569597Y-91477493D01*
X225569603Y-91477498D01*
X225755158Y-91607425D01*
X225798783Y-91662002D01*
X225805977Y-91731500D01*
X225774454Y-91793855D01*
X225755158Y-91810575D01*
X225569597Y-91940505D01*
X225402505Y-92107597D01*
X225266965Y-92301169D01*
X225266964Y-92301171D01*
X225167098Y-92515335D01*
X225167094Y-92515344D01*
X225105938Y-92743586D01*
X225105936Y-92743596D01*
X225085341Y-92978999D01*
X225085341Y-92979000D01*
X225105936Y-93214403D01*
X225105938Y-93214413D01*
X225167094Y-93442655D01*
X225167096Y-93442659D01*
X225167097Y-93442663D01*
X225236501Y-93591499D01*
X225266965Y-93656830D01*
X225266967Y-93656834D01*
X225402501Y-93850395D01*
X225402506Y-93850402D01*
X225569597Y-94017493D01*
X225569603Y-94017498D01*
X225755158Y-94147425D01*
X225798783Y-94202002D01*
X225805977Y-94271500D01*
X225774454Y-94333855D01*
X225755158Y-94350575D01*
X225569597Y-94480505D01*
X225402505Y-94647597D01*
X225266965Y-94841169D01*
X225266964Y-94841171D01*
X225167098Y-95055335D01*
X225167094Y-95055344D01*
X225105938Y-95283586D01*
X225105936Y-95283596D01*
X225085341Y-95518999D01*
X225085341Y-95519000D01*
X225105936Y-95754403D01*
X225105938Y-95754413D01*
X225167094Y-95982655D01*
X225167096Y-95982659D01*
X225167097Y-95982663D01*
X225239998Y-96139000D01*
X225266965Y-96196830D01*
X225266967Y-96196834D01*
X225402501Y-96390395D01*
X225402506Y-96390402D01*
X225569597Y-96557493D01*
X225569603Y-96557498D01*
X225755158Y-96687425D01*
X225798783Y-96742002D01*
X225805977Y-96811500D01*
X225774454Y-96873855D01*
X225755158Y-96890575D01*
X225569597Y-97020505D01*
X225402505Y-97187597D01*
X225266965Y-97381169D01*
X225266964Y-97381171D01*
X225167098Y-97595335D01*
X225167094Y-97595344D01*
X225105938Y-97823586D01*
X225105936Y-97823596D01*
X225085341Y-98058999D01*
X225085341Y-98059000D01*
X225105936Y-98294403D01*
X225105938Y-98294413D01*
X225167094Y-98522655D01*
X225167096Y-98522659D01*
X225167097Y-98522663D01*
X225266847Y-98736578D01*
X225266965Y-98736830D01*
X225266967Y-98736834D01*
X225402501Y-98930395D01*
X225402506Y-98930402D01*
X225569597Y-99097493D01*
X225569603Y-99097498D01*
X225755158Y-99227425D01*
X225798783Y-99282002D01*
X225805977Y-99351500D01*
X225774454Y-99413855D01*
X225755158Y-99430575D01*
X225569597Y-99560505D01*
X225402505Y-99727597D01*
X225266965Y-99921169D01*
X225266964Y-99921171D01*
X225167098Y-100135335D01*
X225167094Y-100135344D01*
X225105938Y-100363586D01*
X225105936Y-100363596D01*
X225085341Y-100598999D01*
X225085341Y-100599000D01*
X225105936Y-100834403D01*
X225105938Y-100834413D01*
X225167094Y-101062655D01*
X225167096Y-101062659D01*
X225167097Y-101062663D01*
X225246053Y-101231985D01*
X225266965Y-101276830D01*
X225266967Y-101276834D01*
X225402501Y-101470395D01*
X225402506Y-101470402D01*
X225569597Y-101637493D01*
X225569603Y-101637498D01*
X225597863Y-101657286D01*
X225702402Y-101730485D01*
X225755594Y-101767730D01*
X225799219Y-101822307D01*
X225806413Y-101891805D01*
X225774890Y-101954160D01*
X225755595Y-101970880D01*
X225569922Y-102100890D01*
X225569920Y-102100891D01*
X225402891Y-102267920D01*
X225402886Y-102267926D01*
X225267400Y-102461420D01*
X225267399Y-102461422D01*
X225167570Y-102675507D01*
X225167567Y-102675513D01*
X225110364Y-102888999D01*
X225110364Y-102889000D01*
X226007988Y-102889000D01*
X225975075Y-102946007D01*
X225941000Y-103073174D01*
X225941000Y-103204826D01*
X225975075Y-103331993D01*
X226007988Y-103389000D01*
X225110364Y-103389000D01*
X225167567Y-103602486D01*
X225167570Y-103602492D01*
X225267399Y-103816578D01*
X225402894Y-104010082D01*
X225569917Y-104177105D01*
X225763421Y-104312600D01*
X225977507Y-104412429D01*
X225977516Y-104412433D01*
X226191000Y-104469634D01*
X226191000Y-103572012D01*
X226248007Y-103604925D01*
X226375174Y-103639000D01*
X226506826Y-103639000D01*
X226633993Y-103604925D01*
X226691000Y-103572012D01*
X226691000Y-104469633D01*
X226904483Y-104412433D01*
X226904492Y-104412429D01*
X227118578Y-104312600D01*
X227312082Y-104177105D01*
X227479105Y-104010082D01*
X227614600Y-103816578D01*
X227714429Y-103602492D01*
X227714432Y-103602486D01*
X227771636Y-103389000D01*
X226874012Y-103389000D01*
X226906925Y-103331993D01*
X226941000Y-103204826D01*
X226941000Y-103073174D01*
X226906925Y-102946007D01*
X226874012Y-102889000D01*
X227771636Y-102889000D01*
X227771635Y-102888999D01*
X227714432Y-102675513D01*
X227714429Y-102675507D01*
X227614600Y-102461422D01*
X227614599Y-102461420D01*
X227479113Y-102267926D01*
X227479108Y-102267920D01*
X227312078Y-102100890D01*
X227126405Y-101970879D01*
X227082780Y-101916302D01*
X227075588Y-101846804D01*
X227107110Y-101784449D01*
X227126406Y-101767730D01*
X227176567Y-101732607D01*
X227312401Y-101637495D01*
X227479495Y-101470401D01*
X227615035Y-101276830D01*
X227714903Y-101062663D01*
X227776063Y-100834408D01*
X227796659Y-100599000D01*
X227776063Y-100363592D01*
X227714903Y-100135337D01*
X227615035Y-99921171D01*
X227584035Y-99876897D01*
X227479494Y-99727597D01*
X227312402Y-99560506D01*
X227312396Y-99560501D01*
X227126842Y-99430575D01*
X227083217Y-99375998D01*
X227076023Y-99306500D01*
X227107546Y-99244145D01*
X227126842Y-99227425D01*
X227218409Y-99163309D01*
X227312401Y-99097495D01*
X227479495Y-98930401D01*
X227615035Y-98736830D01*
X227714903Y-98522663D01*
X227776063Y-98294408D01*
X227796659Y-98059000D01*
X227776063Y-97823592D01*
X227714903Y-97595337D01*
X227615035Y-97381171D01*
X227594411Y-97351716D01*
X227479494Y-97187597D01*
X227312402Y-97020506D01*
X227312396Y-97020501D01*
X227126842Y-96890575D01*
X227083217Y-96835998D01*
X227076023Y-96766500D01*
X227107546Y-96704145D01*
X227126842Y-96687425D01*
X227173864Y-96654500D01*
X227312401Y-96557495D01*
X227479495Y-96390401D01*
X227615035Y-96196830D01*
X227714903Y-95982663D01*
X227776063Y-95754408D01*
X227796659Y-95519000D01*
X227794690Y-95496500D01*
X227783745Y-95371393D01*
X227776063Y-95283592D01*
X227714903Y-95055337D01*
X227615035Y-94841171D01*
X227585709Y-94799288D01*
X227479494Y-94647597D01*
X227312402Y-94480506D01*
X227312396Y-94480501D01*
X227126842Y-94350575D01*
X227083217Y-94295998D01*
X227076023Y-94226500D01*
X227107546Y-94164145D01*
X227126842Y-94147425D01*
X227149026Y-94131891D01*
X227312401Y-94017495D01*
X227479495Y-93850401D01*
X227615035Y-93656830D01*
X227714903Y-93442663D01*
X227776063Y-93214408D01*
X227796659Y-92979000D01*
X227776063Y-92743592D01*
X227714903Y-92515337D01*
X227615035Y-92301171D01*
X227536503Y-92189014D01*
X227479494Y-92107597D01*
X227312402Y-91940506D01*
X227312396Y-91940501D01*
X227126842Y-91810575D01*
X227083217Y-91755998D01*
X227076023Y-91686500D01*
X227107546Y-91624145D01*
X227126842Y-91607425D01*
X227149026Y-91591891D01*
X227312401Y-91477495D01*
X227479495Y-91310401D01*
X227615035Y-91116830D01*
X227714903Y-90902663D01*
X227776063Y-90674408D01*
X227796659Y-90439000D01*
X227776063Y-90203592D01*
X227714903Y-89975337D01*
X227615035Y-89761171D01*
X227562182Y-89685688D01*
X227479494Y-89567597D01*
X227312402Y-89400506D01*
X227312396Y-89400501D01*
X227126842Y-89270575D01*
X227083217Y-89215998D01*
X227076023Y-89146500D01*
X227107546Y-89084145D01*
X227126842Y-89067425D01*
X227184575Y-89027000D01*
X227312401Y-88937495D01*
X227479495Y-88770401D01*
X227615035Y-88576830D01*
X227714903Y-88362663D01*
X227776063Y-88134408D01*
X227796659Y-87899000D01*
X227794690Y-87876500D01*
X227788262Y-87803024D01*
X227776063Y-87663592D01*
X227714903Y-87435337D01*
X227615035Y-87221171D01*
X227585708Y-87179288D01*
X227479496Y-87027600D01*
X227426409Y-86974513D01*
X227357567Y-86905671D01*
X227324084Y-86844351D01*
X227329068Y-86774659D01*
X227370939Y-86718725D01*
X227401915Y-86701810D01*
X227533331Y-86652796D01*
X227648546Y-86566546D01*
X227734796Y-86451331D01*
X227785091Y-86316483D01*
X227791500Y-86256873D01*
X227791499Y-84461128D01*
X227785091Y-84401517D01*
X227734796Y-84266669D01*
X227734795Y-84266668D01*
X227734793Y-84266664D01*
X227648547Y-84151455D01*
X227648544Y-84151452D01*
X227533335Y-84065206D01*
X227533328Y-84065202D01*
X227398482Y-84014908D01*
X227398483Y-84014908D01*
X227338883Y-84008501D01*
X227338881Y-84008500D01*
X227338873Y-84008500D01*
X227338864Y-84008500D01*
X225543129Y-84008500D01*
X225543123Y-84008501D01*
X225483516Y-84014908D01*
X225348671Y-84065202D01*
X225348664Y-84065206D01*
X225233455Y-84151452D01*
X225233452Y-84151455D01*
X225147206Y-84266664D01*
X225147202Y-84266671D01*
X225096908Y-84401517D01*
X225090501Y-84461116D01*
X225090501Y-84461123D01*
X225090500Y-84461135D01*
X225090500Y-86256870D01*
X225090501Y-86256876D01*
X225096908Y-86316483D01*
X225147202Y-86451328D01*
X225147206Y-86451335D01*
X225233452Y-86566544D01*
X225233455Y-86566547D01*
X225348664Y-86652793D01*
X225348671Y-86652797D01*
X225480081Y-86701810D01*
X225536015Y-86743681D01*
X225560432Y-86809145D01*
X225545580Y-86877418D01*
X225524430Y-86905673D01*
X225402503Y-87027600D01*
X225266965Y-87221169D01*
X225266964Y-87221171D01*
X225204319Y-87355514D01*
X225168053Y-87433288D01*
X225167098Y-87435335D01*
X225167094Y-87435344D01*
X225105938Y-87663586D01*
X225105936Y-87663596D01*
X225085341Y-87898999D01*
X185131915Y-87898999D01*
X185186862Y-87837973D01*
X185248077Y-87769987D01*
X185340726Y-87609513D01*
X185397987Y-87433284D01*
X185417356Y-87249000D01*
X185397987Y-87064716D01*
X185375335Y-86995000D01*
X188089644Y-86995000D01*
X188109013Y-87179286D01*
X188109014Y-87179288D01*
X188166274Y-87355514D01*
X188224853Y-87456975D01*
X188258923Y-87515987D01*
X188302112Y-87563954D01*
X188382906Y-87653686D01*
X188382909Y-87653688D01*
X188382912Y-87653691D01*
X188507230Y-87744013D01*
X188532822Y-87762607D01*
X188702095Y-87837973D01*
X188702098Y-87837973D01*
X188702101Y-87837975D01*
X188883351Y-87876500D01*
X189068649Y-87876500D01*
X189249899Y-87837975D01*
X189249902Y-87837973D01*
X189249904Y-87837973D01*
X189306922Y-87812586D01*
X189419178Y-87762607D01*
X189569088Y-87653691D01*
X189693077Y-87515987D01*
X189785726Y-87355513D01*
X189842987Y-87179284D01*
X189862356Y-86995000D01*
X189842987Y-86810716D01*
X189785726Y-86634487D01*
X189693077Y-86474013D01*
X189644514Y-86420078D01*
X189569093Y-86336313D01*
X189569090Y-86336311D01*
X189569089Y-86336310D01*
X189569088Y-86336309D01*
X189469148Y-86263698D01*
X189419177Y-86227392D01*
X189249904Y-86152026D01*
X189249896Y-86152024D01*
X189068649Y-86113500D01*
X188883351Y-86113500D01*
X188702103Y-86152024D01*
X188702095Y-86152026D01*
X188532822Y-86227392D01*
X188382909Y-86336311D01*
X188382906Y-86336313D01*
X188258922Y-86474014D01*
X188166274Y-86634485D01*
X188109014Y-86810711D01*
X188109013Y-86810713D01*
X188089644Y-86995000D01*
X185375335Y-86995000D01*
X185340726Y-86888487D01*
X185248077Y-86728013D01*
X185199514Y-86674078D01*
X185124093Y-86590313D01*
X185124090Y-86590311D01*
X185124089Y-86590310D01*
X185124088Y-86590309D01*
X184974178Y-86481393D01*
X184974177Y-86481392D01*
X184804904Y-86406026D01*
X184804896Y-86406024D01*
X184623649Y-86367500D01*
X184438351Y-86367500D01*
X184257103Y-86406024D01*
X184257095Y-86406026D01*
X184087822Y-86481392D01*
X183937909Y-86590311D01*
X183937906Y-86590313D01*
X183813922Y-86728014D01*
X183721274Y-86888485D01*
X183664014Y-87064711D01*
X183664013Y-87064713D01*
X183644644Y-87249000D01*
X174223420Y-87249000D01*
X174228951Y-87242855D01*
X174326077Y-87134987D01*
X174418726Y-86974513D01*
X174475987Y-86798284D01*
X174495356Y-86614000D01*
X174475987Y-86429716D01*
X174418726Y-86253487D01*
X174326077Y-86093013D01*
X174277514Y-86039078D01*
X174202093Y-85955313D01*
X174202090Y-85955311D01*
X174202089Y-85955310D01*
X174202088Y-85955309D01*
X174052178Y-85846393D01*
X174052177Y-85846392D01*
X173882904Y-85771026D01*
X173882896Y-85771024D01*
X173701649Y-85732500D01*
X173516351Y-85732500D01*
X173335103Y-85771024D01*
X173335095Y-85771026D01*
X173165822Y-85846392D01*
X173015909Y-85955311D01*
X173015906Y-85955313D01*
X172891922Y-86093014D01*
X172799274Y-86253485D01*
X172742014Y-86429711D01*
X172742013Y-86429713D01*
X172722644Y-86614000D01*
X132081156Y-86614000D01*
X132144546Y-86566546D01*
X132230796Y-86451331D01*
X132281091Y-86316483D01*
X132287500Y-86256873D01*
X132287499Y-84461128D01*
X132281091Y-84401517D01*
X132253671Y-84328000D01*
X139067644Y-84328000D01*
X139087013Y-84512286D01*
X139087014Y-84512288D01*
X139144274Y-84688514D01*
X139217343Y-84815074D01*
X139236923Y-84848987D01*
X139280112Y-84896954D01*
X139360906Y-84986686D01*
X139360909Y-84986688D01*
X139360912Y-84986691D01*
X139510822Y-85095607D01*
X139680095Y-85170973D01*
X139680098Y-85170973D01*
X139680101Y-85170975D01*
X139861351Y-85209500D01*
X140046649Y-85209500D01*
X140227899Y-85170975D01*
X140227902Y-85170973D01*
X140227904Y-85170973D01*
X140284922Y-85145586D01*
X140397178Y-85095607D01*
X140452614Y-85055329D01*
X140518421Y-85031850D01*
X140586475Y-85047675D01*
X140598386Y-85055330D01*
X140653822Y-85095607D01*
X140823095Y-85170973D01*
X140823098Y-85170973D01*
X140823101Y-85170975D01*
X141004351Y-85209500D01*
X141189649Y-85209500D01*
X141370899Y-85170975D01*
X141370902Y-85170973D01*
X141370904Y-85170973D01*
X141427922Y-85145586D01*
X141540178Y-85095607D01*
X141595614Y-85055329D01*
X141661421Y-85031850D01*
X141729475Y-85047675D01*
X141741386Y-85055330D01*
X141796822Y-85095607D01*
X141966095Y-85170973D01*
X141966098Y-85170973D01*
X141966101Y-85170975D01*
X142147351Y-85209500D01*
X142332649Y-85209500D01*
X142513899Y-85170975D01*
X142513902Y-85170973D01*
X142513904Y-85170973D01*
X142570922Y-85145586D01*
X142683178Y-85095607D01*
X142738614Y-85055329D01*
X142804421Y-85031850D01*
X142872475Y-85047675D01*
X142884386Y-85055330D01*
X142939822Y-85095607D01*
X143109095Y-85170973D01*
X143109098Y-85170973D01*
X143109101Y-85170975D01*
X143290351Y-85209500D01*
X143475649Y-85209500D01*
X143656899Y-85170975D01*
X143656902Y-85170973D01*
X143656904Y-85170973D01*
X143713922Y-85145586D01*
X143826178Y-85095607D01*
X143976088Y-84986691D01*
X144100077Y-84848987D01*
X144192726Y-84688513D01*
X144249987Y-84512284D01*
X144269356Y-84328000D01*
X144249987Y-84143716D01*
X144192726Y-83967487D01*
X144100077Y-83807013D01*
X144051514Y-83753078D01*
X143976093Y-83669313D01*
X143976090Y-83669311D01*
X143976089Y-83669310D01*
X143976088Y-83669309D01*
X143826178Y-83560393D01*
X143826177Y-83560392D01*
X143656904Y-83485026D01*
X143656896Y-83485024D01*
X143475649Y-83446500D01*
X143290351Y-83446500D01*
X143109103Y-83485024D01*
X143109095Y-83485026D01*
X142939822Y-83560392D01*
X142884385Y-83600670D01*
X142818578Y-83624149D01*
X142750524Y-83608323D01*
X142738615Y-83600670D01*
X142683177Y-83560392D01*
X142513904Y-83485026D01*
X142513896Y-83485024D01*
X142332649Y-83446500D01*
X142147351Y-83446500D01*
X141966103Y-83485024D01*
X141966095Y-83485026D01*
X141796822Y-83560392D01*
X141741385Y-83600670D01*
X141675578Y-83624149D01*
X141607524Y-83608323D01*
X141595615Y-83600670D01*
X141540177Y-83560392D01*
X141370904Y-83485026D01*
X141370896Y-83485024D01*
X141189649Y-83446500D01*
X141004351Y-83446500D01*
X140823103Y-83485024D01*
X140823095Y-83485026D01*
X140653822Y-83560392D01*
X140598385Y-83600670D01*
X140532578Y-83624149D01*
X140464524Y-83608323D01*
X140452615Y-83600670D01*
X140397177Y-83560392D01*
X140227904Y-83485026D01*
X140227896Y-83485024D01*
X140046649Y-83446500D01*
X139861351Y-83446500D01*
X139680103Y-83485024D01*
X139680095Y-83485026D01*
X139510822Y-83560392D01*
X139360909Y-83669311D01*
X139360906Y-83669313D01*
X139236922Y-83807014D01*
X139144274Y-83967485D01*
X139087014Y-84143711D01*
X139087013Y-84143713D01*
X139067644Y-84328000D01*
X132253671Y-84328000D01*
X132230796Y-84266669D01*
X132230795Y-84266668D01*
X132230793Y-84266664D01*
X132144547Y-84151455D01*
X132144544Y-84151452D01*
X132029335Y-84065206D01*
X132029328Y-84065202D01*
X131894482Y-84014908D01*
X131894483Y-84014908D01*
X131834883Y-84008501D01*
X131834881Y-84008500D01*
X131834873Y-84008500D01*
X131834864Y-84008500D01*
X130039129Y-84008500D01*
X130039123Y-84008501D01*
X129979516Y-84014908D01*
X129844671Y-84065202D01*
X129844664Y-84065206D01*
X129729455Y-84151452D01*
X129729452Y-84151455D01*
X129643206Y-84266664D01*
X129643202Y-84266671D01*
X129592908Y-84401517D01*
X129586501Y-84461116D01*
X129586501Y-84461123D01*
X129586500Y-84461135D01*
X129586500Y-86256870D01*
X129586501Y-86256876D01*
X129592908Y-86316483D01*
X129643202Y-86451328D01*
X129643206Y-86451335D01*
X129729452Y-86566544D01*
X129729455Y-86566547D01*
X129844664Y-86652793D01*
X129844671Y-86652797D01*
X129976081Y-86701810D01*
X130032015Y-86743681D01*
X130056432Y-86809145D01*
X130041580Y-86877418D01*
X130020430Y-86905673D01*
X129898503Y-87027600D01*
X129762965Y-87221169D01*
X129762964Y-87221171D01*
X129700319Y-87355514D01*
X129664053Y-87433288D01*
X129663098Y-87435335D01*
X129663094Y-87435344D01*
X129601938Y-87663586D01*
X129601936Y-87663596D01*
X129581341Y-87898999D01*
X129078500Y-87898999D01*
X129078500Y-80899000D01*
X162816644Y-80899000D01*
X162836013Y-81083286D01*
X162836014Y-81083288D01*
X162893274Y-81259514D01*
X162966343Y-81386074D01*
X162985923Y-81419987D01*
X163029112Y-81467954D01*
X163109906Y-81557686D01*
X163109909Y-81557688D01*
X163109912Y-81557691D01*
X163259822Y-81666607D01*
X163429095Y-81741973D01*
X163429098Y-81741973D01*
X163429101Y-81741975D01*
X163610351Y-81780500D01*
X163795649Y-81780500D01*
X163976899Y-81741975D01*
X163976902Y-81741973D01*
X163976904Y-81741973D01*
X164033922Y-81716586D01*
X164146178Y-81666607D01*
X164296088Y-81557691D01*
X164420077Y-81419987D01*
X164512726Y-81259513D01*
X164569987Y-81083284D01*
X164589356Y-80899000D01*
X164569987Y-80714716D01*
X164512726Y-80538487D01*
X164420077Y-80378013D01*
X164371514Y-80324078D01*
X164317420Y-80264000D01*
X183390644Y-80264000D01*
X183410013Y-80448286D01*
X183410014Y-80448288D01*
X183467274Y-80624514D01*
X183519352Y-80714716D01*
X183559923Y-80784987D01*
X183603112Y-80832954D01*
X183683906Y-80922686D01*
X183683909Y-80922688D01*
X183683912Y-80922691D01*
X183833822Y-81031607D01*
X184003095Y-81106973D01*
X184003098Y-81106973D01*
X184003101Y-81106975D01*
X184184351Y-81145500D01*
X184369649Y-81145500D01*
X184550899Y-81106975D01*
X184550902Y-81106973D01*
X184550904Y-81106973D01*
X184607922Y-81081586D01*
X184720178Y-81031607D01*
X184870088Y-80922691D01*
X184891420Y-80899000D01*
X184896951Y-80892855D01*
X184994077Y-80784987D01*
X185086726Y-80624513D01*
X185143987Y-80448284D01*
X185163356Y-80264000D01*
X185143987Y-80079716D01*
X185086726Y-79903487D01*
X184994077Y-79743013D01*
X184945514Y-79689078D01*
X184870093Y-79605313D01*
X184870090Y-79605311D01*
X184870089Y-79605310D01*
X184870088Y-79605309D01*
X184720178Y-79496393D01*
X184720177Y-79496392D01*
X184550904Y-79421026D01*
X184550896Y-79421024D01*
X184369649Y-79382500D01*
X184184351Y-79382500D01*
X184003103Y-79421024D01*
X184003095Y-79421026D01*
X183833822Y-79496392D01*
X183683909Y-79605311D01*
X183683906Y-79605313D01*
X183559922Y-79743014D01*
X183467274Y-79903485D01*
X183410014Y-80079711D01*
X183410013Y-80079713D01*
X183390644Y-80264000D01*
X164317420Y-80264000D01*
X164296093Y-80240313D01*
X164296090Y-80240311D01*
X164296089Y-80240310D01*
X164296088Y-80240309D01*
X164146178Y-80131393D01*
X164146177Y-80131392D01*
X163976904Y-80056026D01*
X163976896Y-80056024D01*
X163795649Y-80017500D01*
X163610351Y-80017500D01*
X163429103Y-80056024D01*
X163429095Y-80056026D01*
X163259822Y-80131392D01*
X163109909Y-80240311D01*
X163109906Y-80240313D01*
X162985922Y-80378014D01*
X162893274Y-80538485D01*
X162836014Y-80714711D01*
X162836013Y-80714713D01*
X162816644Y-80899000D01*
X129078500Y-80899000D01*
X129078500Y-77089000D01*
X178945644Y-77089000D01*
X178965013Y-77273286D01*
X178965014Y-77273288D01*
X179022274Y-77449514D01*
X179095343Y-77576074D01*
X179114923Y-77609987D01*
X179158112Y-77657954D01*
X179238906Y-77747686D01*
X179238909Y-77747688D01*
X179238912Y-77747691D01*
X179388822Y-77856607D01*
X179558095Y-77931973D01*
X179558098Y-77931973D01*
X179558101Y-77931975D01*
X179739351Y-77970500D01*
X179924649Y-77970500D01*
X180105899Y-77931975D01*
X180105902Y-77931973D01*
X180105904Y-77931973D01*
X180162922Y-77906586D01*
X180275178Y-77856607D01*
X180425088Y-77747691D01*
X180549077Y-77609987D01*
X180641726Y-77449513D01*
X180698987Y-77273284D01*
X180718356Y-77089000D01*
X180698987Y-76904716D01*
X180641726Y-76728487D01*
X180549077Y-76568013D01*
X180483662Y-76495362D01*
X180425093Y-76430313D01*
X180425090Y-76430311D01*
X180425089Y-76430310D01*
X180425088Y-76430309D01*
X180325148Y-76357698D01*
X180275177Y-76321392D01*
X180105904Y-76246026D01*
X180105896Y-76246024D01*
X179924649Y-76207500D01*
X179739351Y-76207500D01*
X179558103Y-76246024D01*
X179558095Y-76246026D01*
X179388822Y-76321392D01*
X179238909Y-76430311D01*
X179238906Y-76430313D01*
X179114922Y-76568014D01*
X179022274Y-76728485D01*
X178965014Y-76904711D01*
X178965013Y-76904713D01*
X178945644Y-77089000D01*
X129078500Y-77089000D01*
X129078500Y-75974377D01*
X176815021Y-75974377D01*
X176834390Y-76158663D01*
X176834391Y-76158665D01*
X176891651Y-76334891D01*
X176946741Y-76430309D01*
X176984300Y-76495364D01*
X177027489Y-76543331D01*
X177108283Y-76633063D01*
X177108286Y-76633065D01*
X177108289Y-76633068D01*
X177239619Y-76728485D01*
X177258199Y-76741984D01*
X177427472Y-76817350D01*
X177427475Y-76817350D01*
X177427478Y-76817352D01*
X177608728Y-76855877D01*
X177794026Y-76855877D01*
X177975276Y-76817352D01*
X177975279Y-76817350D01*
X177975281Y-76817350D01*
X178032299Y-76791963D01*
X178144555Y-76741984D01*
X178294465Y-76633068D01*
X178418454Y-76495364D01*
X178511103Y-76334890D01*
X178568364Y-76158661D01*
X178587733Y-75974377D01*
X178568364Y-75790093D01*
X178511103Y-75613864D01*
X178418454Y-75453390D01*
X178363154Y-75391973D01*
X178294470Y-75315690D01*
X178294467Y-75315688D01*
X178294466Y-75315687D01*
X178294465Y-75315686D01*
X178170472Y-75225600D01*
X178144554Y-75206769D01*
X177975281Y-75131403D01*
X177975273Y-75131401D01*
X177794026Y-75092877D01*
X177608728Y-75092877D01*
X177427480Y-75131401D01*
X177427472Y-75131403D01*
X177258199Y-75206769D01*
X177108286Y-75315688D01*
X177108283Y-75315690D01*
X176984299Y-75453391D01*
X176891651Y-75613862D01*
X176834391Y-75790088D01*
X176834390Y-75790090D01*
X176815021Y-75974377D01*
X129078500Y-75974377D01*
X129078500Y-74549000D01*
X132590644Y-74549000D01*
X132610013Y-74733286D01*
X132610014Y-74733288D01*
X132667274Y-74909514D01*
X132719156Y-74999376D01*
X132759923Y-75069987D01*
X132801080Y-75115697D01*
X132883906Y-75207686D01*
X132883909Y-75207688D01*
X132883912Y-75207691D01*
X133010732Y-75299831D01*
X133033822Y-75316607D01*
X133203095Y-75391973D01*
X133203098Y-75391973D01*
X133203101Y-75391975D01*
X133384351Y-75430500D01*
X133569649Y-75430500D01*
X133750899Y-75391975D01*
X133750902Y-75391973D01*
X133750904Y-75391973D01*
X133807922Y-75366586D01*
X133920178Y-75316607D01*
X134070088Y-75207691D01*
X134070918Y-75206770D01*
X134115841Y-75156877D01*
X134194077Y-75069987D01*
X134286726Y-74909513D01*
X134331606Y-74771389D01*
X150156500Y-74771389D01*
X150156500Y-74944611D01*
X150164677Y-74996239D01*
X150177837Y-75079331D01*
X150183598Y-75115701D01*
X150237127Y-75280445D01*
X150315768Y-75434788D01*
X150417586Y-75574928D01*
X150540072Y-75697414D01*
X150680212Y-75799232D01*
X150834555Y-75877873D01*
X150999299Y-75931402D01*
X151170389Y-75958500D01*
X151170390Y-75958500D01*
X151343610Y-75958500D01*
X151343611Y-75958500D01*
X151514701Y-75931402D01*
X151679445Y-75877873D01*
X151833788Y-75799232D01*
X151973928Y-75697414D01*
X152096414Y-75574928D01*
X152198232Y-75434788D01*
X152276873Y-75280445D01*
X152330402Y-75115701D01*
X152357500Y-74944611D01*
X152357500Y-74771389D01*
X152330402Y-74600299D01*
X152276873Y-74435555D01*
X152198232Y-74281212D01*
X152096414Y-74141072D01*
X151973928Y-74018586D01*
X151833788Y-73916768D01*
X151679445Y-73838127D01*
X151514701Y-73784598D01*
X151514699Y-73784597D01*
X151514698Y-73784597D01*
X151383271Y-73763781D01*
X151343611Y-73757500D01*
X151170389Y-73757500D01*
X151130728Y-73763781D01*
X150999302Y-73784597D01*
X150834552Y-73838128D01*
X150680211Y-73916768D01*
X150637536Y-73947774D01*
X150540072Y-74018586D01*
X150540070Y-74018588D01*
X150540069Y-74018588D01*
X150417588Y-74141069D01*
X150417588Y-74141070D01*
X150417586Y-74141072D01*
X150402752Y-74161489D01*
X150315768Y-74281211D01*
X150237128Y-74435552D01*
X150183597Y-74600302D01*
X150158744Y-74757222D01*
X150156500Y-74771389D01*
X134331606Y-74771389D01*
X134343987Y-74733284D01*
X134363356Y-74549000D01*
X134343987Y-74364716D01*
X134286726Y-74188487D01*
X134194077Y-74028013D01*
X134108982Y-73933505D01*
X134070093Y-73890313D01*
X134070090Y-73890311D01*
X134070089Y-73890310D01*
X134070088Y-73890309D01*
X133926646Y-73786092D01*
X133920177Y-73781392D01*
X133750904Y-73706026D01*
X133750896Y-73706024D01*
X133569649Y-73667500D01*
X133384351Y-73667500D01*
X133203103Y-73706024D01*
X133203095Y-73706026D01*
X133033822Y-73781392D01*
X132883909Y-73890311D01*
X132883906Y-73890313D01*
X132759922Y-74028014D01*
X132667274Y-74188485D01*
X132610014Y-74364711D01*
X132610013Y-74364713D01*
X132590644Y-74549000D01*
X129078500Y-74549000D01*
X129078500Y-72898000D01*
X139067644Y-72898000D01*
X139087013Y-73082286D01*
X139087014Y-73082288D01*
X139144274Y-73258514D01*
X139195276Y-73346852D01*
X139236923Y-73418987D01*
X139280112Y-73466954D01*
X139360906Y-73556686D01*
X139360909Y-73556688D01*
X139360912Y-73556691D01*
X139510822Y-73665607D01*
X139680095Y-73740973D01*
X139680098Y-73740973D01*
X139680101Y-73740975D01*
X139861351Y-73779500D01*
X140046649Y-73779500D01*
X140227899Y-73740975D01*
X140227902Y-73740973D01*
X140227904Y-73740973D01*
X140284922Y-73715586D01*
X140397178Y-73665607D01*
X140452614Y-73625329D01*
X140518421Y-73601850D01*
X140586475Y-73617675D01*
X140598386Y-73625330D01*
X140653822Y-73665607D01*
X140823095Y-73740973D01*
X140823098Y-73740973D01*
X140823101Y-73740975D01*
X141004351Y-73779500D01*
X141189649Y-73779500D01*
X141370899Y-73740975D01*
X141370902Y-73740973D01*
X141370904Y-73740973D01*
X141427922Y-73715586D01*
X141540178Y-73665607D01*
X141595614Y-73625329D01*
X141661421Y-73601850D01*
X141729475Y-73617675D01*
X141741386Y-73625330D01*
X141796822Y-73665607D01*
X141966095Y-73740973D01*
X141966098Y-73740973D01*
X141966101Y-73740975D01*
X142147351Y-73779500D01*
X142332649Y-73779500D01*
X142513899Y-73740975D01*
X142513902Y-73740973D01*
X142513904Y-73740973D01*
X142570922Y-73715586D01*
X142683178Y-73665607D01*
X142738614Y-73625329D01*
X142804421Y-73601850D01*
X142872475Y-73617675D01*
X142884386Y-73625330D01*
X142939822Y-73665607D01*
X143109095Y-73740973D01*
X143109098Y-73740973D01*
X143109101Y-73740975D01*
X143290351Y-73779500D01*
X143475649Y-73779500D01*
X143656899Y-73740975D01*
X143656902Y-73740973D01*
X143656904Y-73740973D01*
X143713922Y-73715586D01*
X143826178Y-73665607D01*
X143976088Y-73556691D01*
X143979413Y-73552999D01*
X144002951Y-73526855D01*
X144100077Y-73418987D01*
X144192726Y-73258513D01*
X144249987Y-73082284D01*
X144269356Y-72898000D01*
X144249987Y-72713716D01*
X144206320Y-72579325D01*
X188516722Y-72579325D01*
X188516722Y-72579336D01*
X188536472Y-72893273D01*
X188536473Y-72893280D01*
X188595420Y-73202289D01*
X188692628Y-73501463D01*
X188692630Y-73501468D01*
X188826565Y-73786092D01*
X188826568Y-73786098D01*
X188995117Y-74051690D01*
X189085951Y-74161489D01*
X189727412Y-73520028D01*
X189801253Y-73621661D01*
X189979335Y-73799743D01*
X190080965Y-73873582D01*
X189436637Y-74517910D01*
X189679445Y-74694321D01*
X189679455Y-74694327D01*
X189955112Y-74845871D01*
X189955120Y-74845875D01*
X190247591Y-74961671D01*
X190552285Y-75039904D01*
X190552294Y-75039906D01*
X190864366Y-75079330D01*
X190864380Y-75079331D01*
X191178950Y-75079331D01*
X191178963Y-75079330D01*
X191491035Y-75039906D01*
X191491044Y-75039904D01*
X191795738Y-74961671D01*
X192088209Y-74845875D01*
X192088217Y-74845871D01*
X192363868Y-74694331D01*
X192363879Y-74694324D01*
X192606690Y-74517910D01*
X192606691Y-74517910D01*
X191962363Y-73873582D01*
X192063995Y-73799743D01*
X192242077Y-73621661D01*
X192315917Y-73520029D01*
X192957377Y-74161489D01*
X193048209Y-74051695D01*
X193216761Y-73786098D01*
X193216764Y-73786092D01*
X193350699Y-73501468D01*
X193350701Y-73501463D01*
X193447909Y-73202289D01*
X193506856Y-72893280D01*
X193506857Y-72893273D01*
X193526608Y-72579336D01*
X193526608Y-72579325D01*
X193506857Y-72265388D01*
X193506856Y-72265381D01*
X193459919Y-72019328D01*
X196756699Y-72019328D01*
X196756699Y-72019333D01*
X196776523Y-72245930D01*
X196776525Y-72245941D01*
X196835395Y-72465648D01*
X196835400Y-72465662D01*
X196931528Y-72671809D01*
X196982639Y-72744803D01*
X197578702Y-72148740D01*
X197595740Y-72212324D01*
X197661566Y-72326338D01*
X197754658Y-72419430D01*
X197868672Y-72485256D01*
X197932254Y-72502293D01*
X197336191Y-73098356D01*
X197409178Y-73149463D01*
X197409186Y-73149467D01*
X197615333Y-73245595D01*
X197615347Y-73245600D01*
X197814258Y-73298898D01*
X197873919Y-73335263D01*
X197904448Y-73398110D01*
X197906165Y-73418673D01*
X197906165Y-74847201D01*
X197906166Y-74847207D01*
X197912573Y-74906814D01*
X197962867Y-75041659D01*
X197962871Y-75041666D01*
X198049117Y-75156875D01*
X198049120Y-75156878D01*
X198164329Y-75243124D01*
X198164336Y-75243128D01*
X198299182Y-75293422D01*
X198299181Y-75293422D01*
X198306109Y-75294166D01*
X198358792Y-75299831D01*
X200054537Y-75299830D01*
X200114148Y-75293422D01*
X200248996Y-75243127D01*
X200364211Y-75156877D01*
X200450461Y-75041662D01*
X200450769Y-75040837D01*
X200451295Y-75040133D01*
X200454712Y-75033877D01*
X200455611Y-75034368D01*
X200492639Y-74984902D01*
X200558102Y-74960483D01*
X200626376Y-74975333D01*
X200654633Y-74996486D01*
X200657523Y-74999376D01*
X200657526Y-74999378D01*
X200843931Y-75129899D01*
X201050169Y-75226070D01*
X201269973Y-75284966D01*
X201431895Y-75299132D01*
X201496663Y-75304799D01*
X201496665Y-75304799D01*
X201496667Y-75304799D01*
X201553472Y-75299829D01*
X201723357Y-75284966D01*
X201943161Y-75226070D01*
X202149399Y-75129899D01*
X202335804Y-74999378D01*
X202496712Y-74838470D01*
X202540090Y-74776519D01*
X202594666Y-74732894D01*
X202664164Y-74725700D01*
X202726519Y-74757222D01*
X202743241Y-74776520D01*
X202786620Y-74838473D01*
X202947523Y-74999376D01*
X202947526Y-74999378D01*
X203133931Y-75129899D01*
X203340169Y-75226070D01*
X203559973Y-75284966D01*
X203721895Y-75299132D01*
X203786663Y-75304799D01*
X203786665Y-75304799D01*
X203786667Y-75304799D01*
X203843472Y-75299829D01*
X204013357Y-75284966D01*
X204233161Y-75226070D01*
X204439399Y-75129899D01*
X204625804Y-74999378D01*
X204786712Y-74838470D01*
X204830090Y-74776519D01*
X204884666Y-74732894D01*
X204954164Y-74725700D01*
X205016519Y-74757222D01*
X205033241Y-74776520D01*
X205076620Y-74838473D01*
X205237523Y-74999376D01*
X205237526Y-74999378D01*
X205423931Y-75129899D01*
X205630169Y-75226070D01*
X205849973Y-75284966D01*
X206011895Y-75299132D01*
X206076663Y-75304799D01*
X206076665Y-75304799D01*
X206076667Y-75304799D01*
X206133472Y-75299829D01*
X206303357Y-75284966D01*
X206523161Y-75226070D01*
X206729399Y-75129899D01*
X206915804Y-74999378D01*
X207076712Y-74838470D01*
X207122820Y-74772620D01*
X207177396Y-74728995D01*
X207235203Y-74720215D01*
X207287639Y-74724803D01*
X207883702Y-74128739D01*
X207900740Y-74192324D01*
X207966566Y-74306338D01*
X208059658Y-74399430D01*
X208173672Y-74465256D01*
X208237255Y-74482293D01*
X207641191Y-75078356D01*
X207714178Y-75129463D01*
X207714186Y-75129467D01*
X207920333Y-75225595D01*
X207920347Y-75225600D01*
X208140054Y-75284470D01*
X208140065Y-75284472D01*
X208366663Y-75304297D01*
X208366667Y-75304297D01*
X208593264Y-75284472D01*
X208593275Y-75284470D01*
X208812982Y-75225600D01*
X208812996Y-75225595D01*
X209019143Y-75129467D01*
X209092136Y-75078355D01*
X208496074Y-74482293D01*
X208559658Y-74465256D01*
X208673672Y-74399430D01*
X208766764Y-74306338D01*
X208832590Y-74192324D01*
X208849627Y-74128740D01*
X209445689Y-74724802D01*
X209496801Y-74651809D01*
X209592929Y-74445662D01*
X209592934Y-74445648D01*
X209651804Y-74225941D01*
X209651806Y-74225930D01*
X209671631Y-73999333D01*
X209671631Y-73999328D01*
X209651806Y-73772731D01*
X209651804Y-73772720D01*
X209592934Y-73553013D01*
X209592929Y-73552999D01*
X209496801Y-73346852D01*
X209496797Y-73346844D01*
X209445690Y-73273857D01*
X208849627Y-73869920D01*
X208832590Y-73806338D01*
X208766764Y-73692324D01*
X208673672Y-73599232D01*
X208559658Y-73533406D01*
X208496073Y-73516368D01*
X209092137Y-72920305D01*
X209019143Y-72869194D01*
X208812996Y-72773066D01*
X208812982Y-72773061D01*
X208593275Y-72714191D01*
X208593265Y-72714189D01*
X208518693Y-72707665D01*
X208453624Y-72682212D01*
X208412646Y-72625621D01*
X208410072Y-72579325D01*
X213516722Y-72579325D01*
X213516722Y-72579336D01*
X213536472Y-72893273D01*
X213536473Y-72893280D01*
X213595420Y-73202289D01*
X213692628Y-73501463D01*
X213692630Y-73501468D01*
X213826565Y-73786092D01*
X213826568Y-73786098D01*
X213995117Y-74051690D01*
X214085951Y-74161489D01*
X214727412Y-73520028D01*
X214801253Y-73621661D01*
X214979335Y-73799743D01*
X215080965Y-73873582D01*
X214436637Y-74517910D01*
X214679445Y-74694321D01*
X214679455Y-74694327D01*
X214955112Y-74845871D01*
X214955120Y-74845875D01*
X215247591Y-74961671D01*
X215552285Y-75039904D01*
X215552294Y-75039906D01*
X215864366Y-75079330D01*
X215864380Y-75079331D01*
X216178950Y-75079331D01*
X216178963Y-75079330D01*
X216491035Y-75039906D01*
X216491044Y-75039904D01*
X216795738Y-74961671D01*
X217088209Y-74845875D01*
X217088217Y-74845871D01*
X217363868Y-74694331D01*
X217363879Y-74694324D01*
X217606690Y-74517910D01*
X217606691Y-74517910D01*
X216962363Y-73873582D01*
X217063995Y-73799743D01*
X217242077Y-73621661D01*
X217315917Y-73520029D01*
X217957377Y-74161489D01*
X218048209Y-74051695D01*
X218216761Y-73786098D01*
X218216764Y-73786092D01*
X218350699Y-73501468D01*
X218350701Y-73501463D01*
X218447909Y-73202289D01*
X218506856Y-72893280D01*
X218506857Y-72893273D01*
X218526608Y-72579336D01*
X218526608Y-72579325D01*
X218506857Y-72265388D01*
X218506856Y-72265381D01*
X218447909Y-71956372D01*
X218350701Y-71657198D01*
X218350699Y-71657193D01*
X218216764Y-71372569D01*
X218216761Y-71372563D01*
X218048209Y-71106966D01*
X217957377Y-70997170D01*
X217315916Y-71638631D01*
X217242077Y-71537001D01*
X217063995Y-71358919D01*
X216962362Y-71285078D01*
X217606691Y-70640750D01*
X217363884Y-70464340D01*
X217363874Y-70464334D01*
X217088217Y-70312790D01*
X217088209Y-70312786D01*
X216795738Y-70196990D01*
X216491044Y-70118757D01*
X216491035Y-70118755D01*
X216178963Y-70079331D01*
X215864366Y-70079331D01*
X215552294Y-70118755D01*
X215552285Y-70118757D01*
X215247591Y-70196990D01*
X214955120Y-70312786D01*
X214955112Y-70312790D01*
X214679455Y-70464334D01*
X214679437Y-70464345D01*
X214436638Y-70640748D01*
X214436637Y-70640750D01*
X215080966Y-71285079D01*
X214979335Y-71358919D01*
X214801253Y-71537001D01*
X214727413Y-71638632D01*
X214085951Y-70997170D01*
X213995125Y-71106959D01*
X213995122Y-71106963D01*
X213826568Y-71372563D01*
X213826565Y-71372569D01*
X213692630Y-71657193D01*
X213692628Y-71657198D01*
X213595420Y-71956372D01*
X213536473Y-72265381D01*
X213536472Y-72265388D01*
X213516722Y-72579325D01*
X208410072Y-72579325D01*
X208408768Y-72555859D01*
X208417119Y-72531731D01*
X208447932Y-72465652D01*
X208447934Y-72465648D01*
X208506804Y-72245941D01*
X208506806Y-72245930D01*
X208526631Y-72019333D01*
X208526631Y-72019328D01*
X208506806Y-71792731D01*
X208506804Y-71792720D01*
X208447934Y-71573013D01*
X208447931Y-71573004D01*
X208417344Y-71507411D01*
X208406852Y-71438334D01*
X208435371Y-71374550D01*
X208493848Y-71336310D01*
X208518914Y-71331478D01*
X208593357Y-71324966D01*
X208813161Y-71266070D01*
X209019399Y-71169899D01*
X209205804Y-71039378D01*
X209366712Y-70878470D01*
X209497233Y-70692065D01*
X209593404Y-70485827D01*
X209652300Y-70266023D01*
X209672133Y-70039331D01*
X209652300Y-69812639D01*
X209593404Y-69592835D01*
X209497233Y-69386597D01*
X209366712Y-69200192D01*
X209366710Y-69200189D01*
X209205806Y-69039285D01*
X209019399Y-68908763D01*
X209019397Y-68908762D01*
X208813162Y-68812592D01*
X208813153Y-68812589D01*
X208593362Y-68753697D01*
X208593358Y-68753696D01*
X208593357Y-68753696D01*
X208593356Y-68753695D01*
X208593351Y-68753695D01*
X208366667Y-68733863D01*
X208366663Y-68733863D01*
X208139978Y-68753695D01*
X208139967Y-68753697D01*
X207920176Y-68812589D01*
X207920167Y-68812592D01*
X207713932Y-68908762D01*
X207713930Y-68908763D01*
X207527523Y-69039285D01*
X207366618Y-69200190D01*
X207323240Y-69262142D01*
X207268663Y-69305767D01*
X207199165Y-69312961D01*
X207136810Y-69281438D01*
X207120090Y-69262142D01*
X207076711Y-69200190D01*
X206915806Y-69039285D01*
X206729399Y-68908763D01*
X206729397Y-68908762D01*
X206523162Y-68812592D01*
X206523153Y-68812589D01*
X206303362Y-68753697D01*
X206303358Y-68753696D01*
X206303357Y-68753696D01*
X206303356Y-68753695D01*
X206303351Y-68753695D01*
X206076667Y-68733863D01*
X206076663Y-68733863D01*
X205849978Y-68753695D01*
X205849967Y-68753697D01*
X205630176Y-68812589D01*
X205630167Y-68812592D01*
X205423932Y-68908762D01*
X205423930Y-68908763D01*
X205237523Y-69039285D01*
X205076618Y-69200190D01*
X205033240Y-69262142D01*
X204978663Y-69305767D01*
X204909165Y-69312961D01*
X204846810Y-69281438D01*
X204830090Y-69262142D01*
X204786711Y-69200190D01*
X204625806Y-69039285D01*
X204439399Y-68908763D01*
X204439397Y-68908762D01*
X204233162Y-68812592D01*
X204233153Y-68812589D01*
X204013362Y-68753697D01*
X204013358Y-68753696D01*
X204013357Y-68753696D01*
X204013356Y-68753695D01*
X204013351Y-68753695D01*
X203786667Y-68733863D01*
X203786663Y-68733863D01*
X203559978Y-68753695D01*
X203559967Y-68753697D01*
X203340176Y-68812589D01*
X203340167Y-68812592D01*
X203133932Y-68908762D01*
X203133930Y-68908763D01*
X202947523Y-69039285D01*
X202786618Y-69200190D01*
X202743240Y-69262142D01*
X202688663Y-69305767D01*
X202619165Y-69312961D01*
X202556810Y-69281438D01*
X202540090Y-69262142D01*
X202496711Y-69200190D01*
X202335806Y-69039285D01*
X202149399Y-68908763D01*
X202149397Y-68908762D01*
X201943162Y-68812592D01*
X201943153Y-68812589D01*
X201723362Y-68753697D01*
X201723358Y-68753696D01*
X201723357Y-68753696D01*
X201723356Y-68753695D01*
X201723351Y-68753695D01*
X201496667Y-68733863D01*
X201496663Y-68733863D01*
X201269978Y-68753695D01*
X201269967Y-68753697D01*
X201050176Y-68812589D01*
X201050167Y-68812592D01*
X200843932Y-68908762D01*
X200843930Y-68908763D01*
X200657523Y-69039285D01*
X200496618Y-69200190D01*
X200453240Y-69262142D01*
X200398663Y-69305767D01*
X200329165Y-69312961D01*
X200266810Y-69281438D01*
X200250090Y-69262142D01*
X200206711Y-69200190D01*
X200045806Y-69039285D01*
X199859399Y-68908763D01*
X199859397Y-68908762D01*
X199653162Y-68812592D01*
X199653153Y-68812589D01*
X199433362Y-68753697D01*
X199433358Y-68753696D01*
X199433357Y-68753696D01*
X199433356Y-68753695D01*
X199433351Y-68753695D01*
X199206667Y-68733863D01*
X199206663Y-68733863D01*
X198979978Y-68753695D01*
X198979967Y-68753697D01*
X198760176Y-68812589D01*
X198760167Y-68812592D01*
X198553932Y-68908762D01*
X198553930Y-68908763D01*
X198367523Y-69039285D01*
X198206619Y-69200189D01*
X198076097Y-69386596D01*
X198076096Y-69386598D01*
X197979926Y-69592833D01*
X197979923Y-69592842D01*
X197921031Y-69812633D01*
X197921029Y-69812644D01*
X197901197Y-70039329D01*
X197901197Y-70039332D01*
X197921029Y-70266017D01*
X197921031Y-70266028D01*
X197979923Y-70485819D01*
X197979926Y-70485828D01*
X198010680Y-70551778D01*
X198021172Y-70620855D01*
X197992653Y-70684639D01*
X197934176Y-70722879D01*
X197909107Y-70727711D01*
X197835064Y-70734189D01*
X197835054Y-70734191D01*
X197615347Y-70793061D01*
X197615338Y-70793065D01*
X197409181Y-70889197D01*
X197409177Y-70889199D01*
X197336191Y-70940304D01*
X197336191Y-70940305D01*
X197932255Y-71536368D01*
X197868672Y-71553406D01*
X197754658Y-71619232D01*
X197661566Y-71712324D01*
X197595740Y-71826338D01*
X197578702Y-71889921D01*
X196982639Y-71293857D01*
X196982638Y-71293857D01*
X196931533Y-71366843D01*
X196931531Y-71366847D01*
X196835399Y-71573004D01*
X196835395Y-71573013D01*
X196776525Y-71792720D01*
X196776523Y-71792731D01*
X196756699Y-72019328D01*
X193459919Y-72019328D01*
X193447909Y-71956372D01*
X193350701Y-71657198D01*
X193350699Y-71657193D01*
X193216764Y-71372569D01*
X193216761Y-71372563D01*
X193048209Y-71106966D01*
X192957377Y-70997170D01*
X192315916Y-71638631D01*
X192242077Y-71537001D01*
X192063995Y-71358919D01*
X191962362Y-71285078D01*
X192606691Y-70640750D01*
X192363884Y-70464340D01*
X192363874Y-70464334D01*
X192088217Y-70312790D01*
X192088209Y-70312786D01*
X191795738Y-70196990D01*
X191491044Y-70118757D01*
X191491035Y-70118755D01*
X191178963Y-70079331D01*
X190864366Y-70079331D01*
X190552294Y-70118755D01*
X190552285Y-70118757D01*
X190247591Y-70196990D01*
X189955120Y-70312786D01*
X189955112Y-70312790D01*
X189679455Y-70464334D01*
X189679437Y-70464345D01*
X189436638Y-70640748D01*
X189436637Y-70640750D01*
X190080966Y-71285079D01*
X189979335Y-71358919D01*
X189801253Y-71537001D01*
X189727413Y-71638632D01*
X189085951Y-70997170D01*
X188995125Y-71106959D01*
X188995122Y-71106963D01*
X188826568Y-71372563D01*
X188826565Y-71372569D01*
X188692630Y-71657193D01*
X188692628Y-71657198D01*
X188595420Y-71956372D01*
X188536473Y-72265381D01*
X188536472Y-72265388D01*
X188516722Y-72579325D01*
X144206320Y-72579325D01*
X144192726Y-72537487D01*
X144100077Y-72377013D01*
X144051514Y-72323078D01*
X143976093Y-72239313D01*
X143976090Y-72239311D01*
X143976089Y-72239310D01*
X143976088Y-72239309D01*
X143826178Y-72130393D01*
X143826177Y-72130392D01*
X143656904Y-72055026D01*
X143656896Y-72055024D01*
X143475649Y-72016500D01*
X143290351Y-72016500D01*
X143109103Y-72055024D01*
X143109095Y-72055026D01*
X142939822Y-72130392D01*
X142884385Y-72170670D01*
X142818578Y-72194149D01*
X142750524Y-72178323D01*
X142738615Y-72170670D01*
X142683177Y-72130392D01*
X142513904Y-72055026D01*
X142513896Y-72055024D01*
X142332649Y-72016500D01*
X142147351Y-72016500D01*
X141966103Y-72055024D01*
X141966095Y-72055026D01*
X141796822Y-72130392D01*
X141741385Y-72170670D01*
X141675578Y-72194149D01*
X141607524Y-72178323D01*
X141595615Y-72170670D01*
X141540177Y-72130392D01*
X141370904Y-72055026D01*
X141370896Y-72055024D01*
X141189649Y-72016500D01*
X141004351Y-72016500D01*
X140823103Y-72055024D01*
X140823095Y-72055026D01*
X140653822Y-72130392D01*
X140598385Y-72170670D01*
X140532578Y-72194149D01*
X140464524Y-72178323D01*
X140452615Y-72170670D01*
X140397177Y-72130392D01*
X140227904Y-72055026D01*
X140227896Y-72055024D01*
X140046649Y-72016500D01*
X139861351Y-72016500D01*
X139680103Y-72055024D01*
X139680095Y-72055026D01*
X139510822Y-72130392D01*
X139360909Y-72239311D01*
X139360906Y-72239313D01*
X139236922Y-72377014D01*
X139144274Y-72537485D01*
X139087014Y-72713711D01*
X139087013Y-72713713D01*
X139067644Y-72898000D01*
X129078500Y-72898000D01*
X129078500Y-67771389D01*
X150156500Y-67771389D01*
X150156500Y-67944611D01*
X150183598Y-68115701D01*
X150237127Y-68280445D01*
X150315768Y-68434788D01*
X150417586Y-68574928D01*
X150540072Y-68697414D01*
X150680212Y-68799232D01*
X150834555Y-68877873D01*
X150999299Y-68931402D01*
X151170389Y-68958500D01*
X151170390Y-68958500D01*
X151343610Y-68958500D01*
X151343611Y-68958500D01*
X151514701Y-68931402D01*
X151679445Y-68877873D01*
X151833788Y-68799232D01*
X151973928Y-68697414D01*
X152096414Y-68574928D01*
X152198232Y-68434788D01*
X152276873Y-68280445D01*
X152330402Y-68115701D01*
X152357500Y-67944611D01*
X152357500Y-67771389D01*
X152330402Y-67600299D01*
X152276873Y-67435555D01*
X152198232Y-67281212D01*
X152096414Y-67141072D01*
X151973928Y-67018586D01*
X151833788Y-66916768D01*
X151679445Y-66838127D01*
X151514701Y-66784598D01*
X151514699Y-66784597D01*
X151514698Y-66784597D01*
X151383271Y-66763781D01*
X151343611Y-66757500D01*
X151170389Y-66757500D01*
X151130728Y-66763781D01*
X150999302Y-66784597D01*
X150834552Y-66838128D01*
X150680211Y-66916768D01*
X150600256Y-66974859D01*
X150540072Y-67018586D01*
X150540070Y-67018588D01*
X150540069Y-67018588D01*
X150417588Y-67141069D01*
X150417588Y-67141070D01*
X150417586Y-67141072D01*
X150373859Y-67201256D01*
X150315768Y-67281211D01*
X150237128Y-67435552D01*
X150183597Y-67600302D01*
X150156500Y-67771389D01*
X129078500Y-67771389D01*
X129078500Y-66677706D01*
X129078618Y-66672298D01*
X129088216Y-66452461D01*
X129096451Y-66263824D01*
X129097391Y-66253091D01*
X129150404Y-65850411D01*
X129152278Y-65839781D01*
X129240189Y-65443244D01*
X129242987Y-65432806D01*
X129365116Y-65045462D01*
X129368803Y-65035330D01*
X129524237Y-64660079D01*
X129528795Y-64650305D01*
X129716335Y-64290045D01*
X129721730Y-64280700D01*
X129939961Y-63938145D01*
X129946147Y-63929310D01*
X130193405Y-63607078D01*
X130200350Y-63598804D01*
X130474726Y-63299375D01*
X130482375Y-63291726D01*
X130781804Y-63017350D01*
X130790078Y-63010405D01*
X131112310Y-62763147D01*
X131121145Y-62756961D01*
X131463700Y-62538730D01*
X131473045Y-62533335D01*
X131833305Y-62345795D01*
X131843079Y-62341237D01*
X132218330Y-62185803D01*
X132228462Y-62182116D01*
X132615815Y-62059984D01*
X132626244Y-62057189D01*
X133022781Y-61969278D01*
X133033411Y-61967404D01*
X133436091Y-61914391D01*
X133446824Y-61913451D01*
X133842126Y-61896193D01*
X133855298Y-61895618D01*
X133860706Y-61895500D01*
X133905595Y-61895500D01*
X223472405Y-61895500D01*
X223517294Y-61895500D01*
X223522702Y-61895618D01*
G37*
%TD.AperFunction*%
%TD*%
M02*
