%TF.GenerationSoftware,KiCad,Pcbnew,8.0.7*%
%TF.CreationDate,2025-01-22T16:06:57-05:00*%
%TF.ProjectId,vaudeo,76617564-656f-42e6-9b69-6361645f7063,rev?*%
%TF.SameCoordinates,Original*%
%TF.FileFunction,Soldermask,Bot*%
%TF.FilePolarity,Negative*%
%FSLAX46Y46*%
G04 Gerber Fmt 4.6, Leading zero omitted, Abs format (unit mm)*
G04 Created by KiCad (PCBNEW 8.0.7) date 2025-01-22 16:06:57*
%MOMM*%
%LPD*%
G01*
G04 APERTURE LIST*
%ADD10R,1.700000X1.700000*%
%ADD11O,1.700000X1.700000*%
%ADD12C,0.800000*%
%ADD13C,6.400000*%
%ADD14C,4.000000*%
%ADD15R,1.600000X1.600000*%
%ADD16C,1.600000*%
%ADD17C,1.700000*%
G04 APERTURE END LIST*
D10*
%TO.C,J6*%
X206756000Y-122174000D03*
D11*
X206756000Y-119634000D03*
X209296000Y-122174000D03*
X209296000Y-119634000D03*
X211836000Y-122174000D03*
X211836000Y-119634000D03*
%TD*%
D12*
%TO.C,H1*%
X131458000Y-66675000D03*
X132160944Y-64977944D03*
X132160944Y-68372056D03*
X133858000Y-64275000D03*
D13*
X133858000Y-66675000D03*
D12*
X133858000Y-69075000D03*
X135555056Y-64977944D03*
X135555056Y-68372056D03*
X136258000Y-66675000D03*
%TD*%
%TO.C,H4*%
X131422269Y-121823926D03*
X132125213Y-120126870D03*
X132125213Y-123520982D03*
X133822269Y-119423926D03*
D13*
X133822269Y-121823926D03*
D12*
X133822269Y-124223926D03*
X135519325Y-120126870D03*
X135519325Y-123520982D03*
X136222269Y-121823926D03*
%TD*%
D10*
%TO.C,J3*%
X226441000Y-85359000D03*
D11*
X226441000Y-87899000D03*
X226441000Y-90439000D03*
X226441000Y-92979000D03*
X226441000Y-95519000D03*
X226441000Y-98059000D03*
X226441000Y-100599000D03*
X226441000Y-103139000D03*
%TD*%
D14*
%TO.C,J2*%
X216021665Y-72579331D03*
X191021665Y-72579331D03*
D15*
X199206665Y-73999331D03*
D16*
X201496665Y-73999331D03*
X203786665Y-73999331D03*
X206076665Y-73999331D03*
X208366665Y-73999331D03*
X198061665Y-72019331D03*
X200351665Y-72019331D03*
X202641665Y-72019331D03*
X204931665Y-72019331D03*
X207221665Y-72019331D03*
X199206665Y-70039331D03*
X201496665Y-70039331D03*
X203786665Y-70039331D03*
X206076665Y-70039331D03*
X208366665Y-70039331D03*
%TD*%
D12*
%TO.C,H3*%
X221120000Y-121793000D03*
X221822944Y-120095944D03*
X221822944Y-123490056D03*
X223520000Y-119393000D03*
D13*
X223520000Y-121793000D03*
D12*
X223520000Y-124193000D03*
X225217056Y-120095944D03*
X225217056Y-123490056D03*
X225920000Y-121793000D03*
%TD*%
D10*
%TO.C,J4*%
X130937000Y-85359000D03*
D11*
X130937000Y-87899000D03*
X130937000Y-90439000D03*
X130937000Y-92979000D03*
X130937000Y-95519000D03*
X130937000Y-98059000D03*
X130937000Y-100599000D03*
X130937000Y-103139000D03*
%TD*%
D12*
%TO.C,H2*%
X221120000Y-66675000D03*
X221822944Y-64977944D03*
X221822944Y-68372056D03*
X223520000Y-64275000D03*
D13*
X223520000Y-66675000D03*
D12*
X223520000Y-69075000D03*
X225217056Y-64977944D03*
X225217056Y-68372056D03*
X225920000Y-66675000D03*
%TD*%
D10*
%TO.C,J5*%
X160909000Y-124714000D03*
D11*
X160909000Y-122174000D03*
X163449000Y-124714000D03*
X163449000Y-122174000D03*
X165989000Y-124714000D03*
X165989000Y-122174000D03*
X168529000Y-124714000D03*
X168529000Y-122174000D03*
X171069000Y-124714000D03*
X171069000Y-122174000D03*
X173609000Y-124714000D03*
X173609000Y-122174000D03*
X176149000Y-124714000D03*
X176149000Y-122174000D03*
X178689000Y-124714000D03*
X178689000Y-122174000D03*
X181229000Y-124714000D03*
X181229000Y-122174000D03*
X183769000Y-124714000D03*
X183769000Y-122174000D03*
X186309000Y-124714000D03*
X186309000Y-122174000D03*
X188849000Y-124714000D03*
X188849000Y-122174000D03*
X191389000Y-124714000D03*
X191389000Y-122174000D03*
X193929000Y-124714000D03*
X193929000Y-122174000D03*
X196469000Y-124714000D03*
X196469000Y-122174000D03*
%TD*%
D17*
%TO.C,J1*%
X151257000Y-67858000D03*
X151257000Y-74858000D03*
%TD*%
M02*
