M48
; DRILL file {KiCad 8.0.1} date 2024-03-31T16:49:28-0400
; FORMAT={-:-/ absolute / inch / decimal}
; #@! TF.CreationDate,2024-03-31T16:49:28-04:00
; #@! TF.GenerationSoftware,Kicad,Pcbnew,8.0.1
; #@! TF.FileFunction,MixedPlating,1,4
FMAT,2
INCH
; #@! TA.AperFunction,Plated,PTH,ViaDrill
T1C0.0150
; #@! TA.AperFunction,Plated,PTH,ViaDrill
T2C0.0157
; #@! TA.AperFunction,Plated,PTH,ComponentDrill
T3C0.0197
; #@! TA.AperFunction,Plated,PTH,ComponentDrill
T4C0.0394
; #@! TA.AperFunction,Plated,PTH,ComponentDrill
T5C0.1260
; #@! TA.AperFunction,NonPlated,NPTH,ComponentDrill
T6C0.0669
%
G90
G05
T1
X5.255Y-2.935
X5.265Y-3.025
X5.335Y-3.422
X5.3376Y-2.9776
X5.385Y-3.795
X5.385Y-3.97
X5.39Y-4.015
X5.39Y-4.19
X5.395Y-4.11
X5.395Y-4.28
X5.41Y-4.65
X5.435Y-3.9846
X5.51Y-3.785
X5.53Y-3.09
X5.56Y-4.755
X5.575Y-3.075
X5.63Y-3.47
X5.72Y-2.63
X6.12Y-4.685
X6.1206Y-3.8556
X6.125Y-4.105
X6.165Y-4.315
X6.22Y-3.9242
X6.22Y-3.975
X6.22Y-4.1942
X6.285Y-3.725
X6.38Y-3.985
X6.42Y-3.335
X6.445Y-3.185
X6.475Y-3.475
X6.485Y-3.965
X6.5Y-2.545
X6.5Y-2.705
X6.5Y-2.785
X6.63Y-3.11
X6.685Y-4.295
X6.74Y-4.35
X6.745Y-3.49
X6.835Y-3.41
X6.8511Y-2.9361
X6.86Y-4.305
X6.9Y-4.08
X6.9961Y-2.9911
X7.08Y-3.035
X7.225Y-2.975
X7.255Y-3.16
X7.2789Y-4.4189
X7.38Y-3.1
X7.3911Y-4.3111
X7.5261Y-3.2139
X7.5261Y-3.9611
X7.535Y-4.27
X7.5861Y-3.3039
X7.5861Y-4.1011
X7.705Y-3.765
X7.76Y-3.91
X7.83Y-3.93
X7.855Y-4.06
X7.88Y-4.76
X7.885Y-3.965
X7.975Y-4.075
X8.03Y-3.995
X8.04Y-3.74
X8.1361Y-3.505
X8.1361Y-3.65
X8.17Y-3.84
X8.245Y-3.945
X8.25Y-4.045
X8.4794Y-3.505
X8.4794Y-3.65
X8.5806Y-3.963
X8.5806Y-4.078
X8.64Y-4.215
X8.835Y-4.215
X8.89Y-4.405
T2
X5.51Y-2.87
X5.51Y-3.32
X5.555Y-2.87
X5.555Y-3.32
X5.6Y-2.87
X5.6Y-3.32
X5.645Y-2.87
X5.645Y-3.32
X6.5773Y-3.6471
X6.59Y-3.78
X6.695Y-3.885
X6.7Y-3.53
X6.725Y-3.91
X7.115Y-3.28
X7.14Y-4.365
X7.17Y-4.08
X7.265Y-3.435
X7.35Y-3.52
X7.35Y-3.9
X7.44Y-3.425
X7.49Y-3.755
T3
X5.1741Y-4.7962
X5.1755Y-2.625
X5.2018Y-4.7294
X5.2018Y-4.863
X5.2032Y-2.5582
X5.2032Y-2.6918
X5.2686Y-4.7017
X5.2686Y-4.8907
X5.27Y-2.5305
X5.27Y-2.7195
X5.3354Y-4.7294
X5.3354Y-4.863
X5.3368Y-2.5582
X5.3368Y-2.6918
X5.3631Y-4.7962
X5.3645Y-2.625
X8.7055Y-2.625
X8.7055Y-4.795
X8.7332Y-2.5582
X8.7332Y-2.6918
X8.7332Y-4.7282
X8.7332Y-4.8618
X8.8Y-2.5305
X8.8Y-2.7195
X8.8Y-4.7005
X8.8Y-4.8895
X8.8668Y-2.5582
X8.8668Y-2.6918
X8.8668Y-4.7282
X8.8668Y-4.8618
X8.8945Y-2.625
X8.8945Y-4.795
T4
X5.155Y-3.3606
X5.155Y-3.4606
X5.155Y-3.5606
X5.155Y-3.6606
X5.155Y-3.7606
X5.155Y-3.8606
X5.155Y-3.9606
X5.155Y-4.0606
X6.335Y-4.81
X6.335Y-4.91
X6.435Y-4.81
X6.435Y-4.91
X6.535Y-4.81
X6.535Y-4.91
X6.635Y-4.81
X6.635Y-4.91
X6.735Y-4.81
X6.735Y-4.91
X6.835Y-4.81
X6.835Y-4.91
X6.935Y-4.81
X6.935Y-4.91
X7.035Y-4.81
X7.035Y-4.91
X7.135Y-4.81
X7.135Y-4.91
X7.235Y-4.81
X7.235Y-4.91
X7.335Y-4.81
X7.335Y-4.91
X7.435Y-4.81
X7.435Y-4.91
X7.535Y-4.81
X7.535Y-4.91
X7.635Y-4.81
X7.635Y-4.91
X7.735Y-4.81
X7.735Y-4.91
X7.7977Y-2.8354
X7.8428Y-2.7575
X7.8428Y-2.9134
X7.8879Y-2.8354
X7.9329Y-2.7575
X7.9329Y-2.9134
X7.978Y-2.8354
X8.0231Y-2.7575
X8.0231Y-2.9134
X8.0682Y-2.8354
X8.1133Y-2.7575
X8.1133Y-2.9134
X8.14Y-4.71
X8.14Y-4.81
X8.1583Y-2.8354
X8.2034Y-2.7575
X8.2034Y-2.9134
X8.24Y-4.71
X8.24Y-4.81
X8.34Y-4.71
X8.34Y-4.81
X8.915Y-3.3606
X8.915Y-3.4606
X8.915Y-3.5606
X8.915Y-3.6606
X8.915Y-3.7606
X8.915Y-3.8606
X8.915Y-3.9606
X8.915Y-4.0606
T5
X5.2686Y-4.7962
X5.27Y-2.625
X7.5205Y-2.8575
X8.5048Y-2.8575
X8.8Y-2.625
X8.8Y-4.795
T6
X5.955Y-2.6716
X5.955Y-2.9472
M30
