%TF.GenerationSoftware,KiCad,Pcbnew,8.0.7*%
%TF.CreationDate,2025-01-22T16:06:57-05:00*%
%TF.ProjectId,vaudeo,76617564-656f-42e6-9b69-6361645f7063,rev?*%
%TF.SameCoordinates,Original*%
%TF.FileFunction,Paste,Top*%
%TF.FilePolarity,Positive*%
%FSLAX46Y46*%
G04 Gerber Fmt 4.6, Leading zero omitted, Abs format (unit mm)*
G04 Created by KiCad (PCBNEW 8.0.7) date 2025-01-22 16:06:57*
%MOMM*%
%LPD*%
G01*
G04 APERTURE LIST*
G04 Aperture macros list*
%AMRoundRect*
0 Rectangle with rounded corners*
0 $1 Rounding radius*
0 $2 $3 $4 $5 $6 $7 $8 $9 X,Y pos of 4 corners*
0 Add a 4 corners polygon primitive as box body*
4,1,4,$2,$3,$4,$5,$6,$7,$8,$9,$2,$3,0*
0 Add four circle primitives for the rounded corners*
1,1,$1+$1,$2,$3*
1,1,$1+$1,$4,$5*
1,1,$1+$1,$6,$7*
1,1,$1+$1,$8,$9*
0 Add four rect primitives between the rounded corners*
20,1,$1+$1,$2,$3,$4,$5,0*
20,1,$1+$1,$4,$5,$6,$7,0*
20,1,$1+$1,$6,$7,$8,$9,0*
20,1,$1+$1,$8,$9,$2,$3,0*%
G04 Aperture macros list end*
%ADD10RoundRect,0.250000X0.350000X0.450000X-0.350000X0.450000X-0.350000X-0.450000X0.350000X-0.450000X0*%
%ADD11RoundRect,0.250000X0.574524X0.097227X0.097227X0.574524X-0.574524X-0.097227X-0.097227X-0.574524X0*%
%ADD12RoundRect,0.250000X0.450000X-0.350000X0.450000X0.350000X-0.450000X0.350000X-0.450000X-0.350000X0*%
%ADD13RoundRect,0.250000X0.070711X-0.565685X0.565685X-0.070711X-0.070711X0.565685X-0.565685X0.070711X0*%
%ADD14RoundRect,0.250000X-0.475000X0.337500X-0.475000X-0.337500X0.475000X-0.337500X0.475000X0.337500X0*%
%ADD15RoundRect,0.243750X-0.243750X-0.456250X0.243750X-0.456250X0.243750X0.456250X-0.243750X0.456250X0*%
%ADD16RoundRect,0.250000X-0.450000X0.350000X-0.450000X-0.350000X0.450000X-0.350000X0.450000X0.350000X0*%
%ADD17RoundRect,0.250000X-0.350000X-0.450000X0.350000X-0.450000X0.350000X0.450000X-0.350000X0.450000X0*%
%ADD18RoundRect,0.250000X-0.097227X0.574524X-0.574524X0.097227X0.097227X-0.574524X0.574524X-0.097227X0*%
%ADD19RoundRect,0.250000X0.475000X-0.337500X0.475000X0.337500X-0.475000X0.337500X-0.475000X-0.337500X0*%
%ADD20R,1.510000X0.458000*%
%ADD21RoundRect,0.250000X-0.574524X-0.097227X-0.097227X-0.574524X0.574524X0.097227X0.097227X0.574524X0*%
%ADD22RoundRect,0.150000X-0.825000X-0.150000X0.825000X-0.150000X0.825000X0.150000X-0.825000X0.150000X0*%
%ADD23RoundRect,0.150000X-0.512500X-0.150000X0.512500X-0.150000X0.512500X0.150000X-0.512500X0.150000X0*%
%ADD24RoundRect,0.250000X0.097227X-0.574524X0.574524X-0.097227X-0.097227X0.574524X-0.574524X0.097227X0*%
%ADD25RoundRect,0.250000X-0.337500X-0.475000X0.337500X-0.475000X0.337500X0.475000X-0.337500X0.475000X0*%
%ADD26RoundRect,0.250000X0.337500X0.475000X-0.337500X0.475000X-0.337500X-0.475000X0.337500X-0.475000X0*%
%ADD27R,1.100000X0.900000*%
%ADD28RoundRect,0.075000X-0.415425X-0.521491X0.521491X0.415425X0.415425X0.521491X-0.521491X-0.415425X0*%
%ADD29RoundRect,0.075000X0.415425X-0.521491X0.521491X-0.415425X-0.415425X0.521491X-0.521491X0.415425X0*%
%ADD30R,2.800000X2.200000*%
%ADD31R,2.800000X2.800000*%
G04 APERTURE END LIST*
D10*
%TO.C,R18*%
X163560000Y-72771000D03*
X161560000Y-72771000D03*
%TD*%
D11*
%TO.C,C13*%
X171167623Y-81124623D03*
X169700377Y-79657377D03*
%TD*%
%TO.C,C12*%
X165579623Y-87220623D03*
X164112377Y-85753377D03*
%TD*%
D12*
%TO.C,R30*%
X184166334Y-66548000D03*
X184166334Y-64548000D03*
%TD*%
D13*
%TO.C,R9*%
X190300893Y-107387107D03*
X191715107Y-105972893D03*
%TD*%
D14*
%TO.C,C29*%
X156591000Y-106531500D03*
X156591000Y-108606500D03*
%TD*%
D12*
%TO.C,R21*%
X194123665Y-80391000D03*
X194123665Y-78391000D03*
%TD*%
D15*
%TO.C,D3*%
X212152500Y-89027000D03*
X214027500Y-89027000D03*
%TD*%
D10*
%TO.C,R12*%
X224393000Y-111887000D03*
X222393000Y-111887000D03*
%TD*%
D16*
%TO.C,R37*%
X205359000Y-101489000D03*
X205359000Y-103489000D03*
%TD*%
D17*
%TO.C,R17*%
X166624000Y-64643000D03*
X168624000Y-64643000D03*
%TD*%
D18*
%TO.C,C10*%
X164309623Y-98961377D03*
X162842377Y-100428623D03*
%TD*%
D13*
%TO.C,R10*%
X164773893Y-81987107D03*
X166188107Y-80572893D03*
%TD*%
D18*
%TO.C,C20*%
X169135623Y-83467377D03*
X167668377Y-84934623D03*
%TD*%
D17*
%TO.C,R5*%
X208272000Y-92710000D03*
X210272000Y-92710000D03*
%TD*%
%TO.C,R2*%
X199560250Y-89027000D03*
X201560250Y-89027000D03*
%TD*%
D18*
%TO.C,C23*%
X188887058Y-103141677D03*
X187419812Y-104608923D03*
%TD*%
D19*
%TO.C,C5*%
X215662000Y-103221500D03*
X215662000Y-101146500D03*
%TD*%
D14*
%TO.C,C16*%
X141605000Y-86063000D03*
X141605000Y-88138000D03*
%TD*%
D12*
%TO.C,R32*%
X213427665Y-80391000D03*
X213427665Y-78391000D03*
%TD*%
D20*
%TO.C,U5*%
X142459000Y-97931000D03*
X142459000Y-98731000D03*
X142459000Y-99531000D03*
X142459000Y-100331000D03*
X142459000Y-101131000D03*
X142459000Y-101931000D03*
X142459000Y-102731000D03*
X142459000Y-103531000D03*
X142459000Y-104331000D03*
X142459000Y-105131000D03*
X142459000Y-105931000D03*
X142459000Y-106731000D03*
X142459000Y-107531000D03*
X142459000Y-108331000D03*
X142459000Y-109131000D03*
X142459000Y-109931000D03*
X142459000Y-110731000D03*
X142459000Y-111531000D03*
X142459000Y-112331000D03*
X142459000Y-113131000D03*
X142459000Y-113931000D03*
X142459000Y-114731000D03*
X142459000Y-115531000D03*
X142459000Y-116331000D03*
X142459000Y-117131000D03*
X142459000Y-117931000D03*
X142459000Y-118731000D03*
X153959000Y-118731000D03*
X153959000Y-117931000D03*
X153959000Y-117131000D03*
X153959000Y-116331000D03*
X153959000Y-115531000D03*
X153959000Y-114731000D03*
X153959000Y-113931000D03*
X153959000Y-113131000D03*
X153959000Y-112331000D03*
X153959000Y-111531000D03*
X153959000Y-110731000D03*
X153959000Y-109931000D03*
X153959000Y-109131000D03*
X153959000Y-108331000D03*
X153959000Y-107531000D03*
X153959000Y-106731000D03*
X153959000Y-105931000D03*
X153959000Y-105131000D03*
X153959000Y-104331000D03*
X153959000Y-103531000D03*
X153959000Y-102731000D03*
X153959000Y-101931000D03*
X153959000Y-101131000D03*
X153959000Y-100331000D03*
X153959000Y-99531000D03*
X153959000Y-98731000D03*
X153959000Y-97931000D03*
%TD*%
D21*
%TO.C,C3*%
X182400377Y-109756377D03*
X183867623Y-111223623D03*
%TD*%
D22*
%TO.C,U2*%
X207710000Y-100203000D03*
X207710000Y-101473000D03*
X207710000Y-102743000D03*
X207710000Y-104013000D03*
X212660000Y-104013000D03*
X212660000Y-102743000D03*
X212660000Y-101473000D03*
X212660000Y-100203000D03*
%TD*%
D12*
%TO.C,R22*%
X196155665Y-80391000D03*
X196155665Y-78391000D03*
%TD*%
D23*
%TO.C,U4*%
X137044000Y-74681000D03*
X137044000Y-75631000D03*
X137044000Y-76581000D03*
X139319000Y-76581000D03*
X139319000Y-74681000D03*
%TD*%
D15*
%TO.C,D2*%
X203432750Y-92710000D03*
X205307750Y-92710000D03*
%TD*%
D10*
%TO.C,R13*%
X224393000Y-108585000D03*
X222393000Y-108585000D03*
%TD*%
D12*
%TO.C,R23*%
X198187665Y-80391000D03*
X198187665Y-78391000D03*
%TD*%
D24*
%TO.C,C15*%
X184968754Y-81223246D03*
X186436000Y-79756000D03*
%TD*%
D25*
%TO.C,C33*%
X161501000Y-66675000D03*
X163576000Y-66675000D03*
%TD*%
D12*
%TO.C,R27*%
X206823665Y-80391000D03*
X206823665Y-78391000D03*
%TD*%
D15*
%TO.C,D1*%
X203432750Y-89027000D03*
X205307750Y-89027000D03*
%TD*%
D10*
%TO.C,R14*%
X158226000Y-94615000D03*
X156226000Y-94615000D03*
%TD*%
%TO.C,R20*%
X163560000Y-64643000D03*
X161560000Y-64643000D03*
%TD*%
D17*
%TO.C,R15*%
X166624000Y-72771000D03*
X168624000Y-72771000D03*
%TD*%
D21*
%TO.C,C11*%
X190175754Y-101656754D03*
X191643000Y-103124000D03*
%TD*%
D24*
%TO.C,C14*%
X181031754Y-78048246D03*
X182499000Y-76581000D03*
%TD*%
D25*
%TO.C,C34*%
X161522500Y-70739000D03*
X163597500Y-70739000D03*
%TD*%
D10*
%TO.C,R6*%
X209329000Y-105918000D03*
X207329000Y-105918000D03*
%TD*%
D12*
%TO.C,R24*%
X200219665Y-80375000D03*
X200219665Y-78375000D03*
%TD*%
D21*
%TO.C,C8*%
X185222754Y-106990754D03*
X186690000Y-108458000D03*
%TD*%
D10*
%TO.C,R19*%
X163560000Y-68707000D03*
X161560000Y-68707000D03*
%TD*%
D18*
%TO.C,C2*%
X172282246Y-106609754D03*
X170815000Y-108077000D03*
%TD*%
D17*
%TO.C,R36*%
X201708000Y-119634000D03*
X203708000Y-119634000D03*
%TD*%
D12*
%TO.C,R34*%
X217491665Y-80391000D03*
X217491665Y-78391000D03*
%TD*%
D15*
%TO.C,D4*%
X212152500Y-92710000D03*
X214027500Y-92710000D03*
%TD*%
D23*
%TO.C,U3*%
X137033000Y-85979000D03*
X137033000Y-86929000D03*
X137033000Y-87879000D03*
X139308000Y-87879000D03*
X139308000Y-85979000D03*
%TD*%
D12*
%TO.C,R33*%
X215459665Y-80391000D03*
X215459665Y-78391000D03*
%TD*%
D19*
%TO.C,C30*%
X156591000Y-101748500D03*
X156591000Y-99673500D03*
%TD*%
D12*
%TO.C,R28*%
X208855665Y-80391000D03*
X208855665Y-78391000D03*
%TD*%
D18*
%TO.C,C21*%
X167616840Y-81998459D03*
X166149594Y-83465705D03*
%TD*%
D24*
%TO.C,C4*%
X188623377Y-84172623D03*
X190090623Y-82705377D03*
%TD*%
D12*
%TO.C,R25*%
X202759665Y-80375000D03*
X202759665Y-78375000D03*
%TD*%
D14*
%TO.C,C24*%
X139827000Y-118723500D03*
X139827000Y-120798500D03*
%TD*%
D11*
%TO.C,C1*%
X176530000Y-77089000D03*
X175062754Y-75621754D03*
%TD*%
D26*
%TO.C,C31*%
X168661500Y-66675000D03*
X166586500Y-66675000D03*
%TD*%
D24*
%TO.C,C6*%
X190274377Y-86331623D03*
X191741623Y-84864377D03*
%TD*%
D14*
%TO.C,C17*%
X141605000Y-74654500D03*
X141605000Y-76729500D03*
%TD*%
D15*
%TO.C,D5*%
X130350500Y-74594500D03*
X132225500Y-74594500D03*
%TD*%
D10*
%TO.C,R11*%
X132318000Y-76835000D03*
X130318000Y-76835000D03*
%TD*%
D19*
%TO.C,C25*%
X139827000Y-108606500D03*
X139827000Y-106531500D03*
%TD*%
D26*
%TO.C,C28*%
X139975500Y-97663000D03*
X137900500Y-97663000D03*
%TD*%
D25*
%TO.C,C18*%
X137138500Y-78486000D03*
X139213500Y-78486000D03*
%TD*%
D10*
%TO.C,R35*%
X203692000Y-122174000D03*
X201692000Y-122174000D03*
%TD*%
D27*
%TO.C,X1*%
X207518000Y-94966000D03*
X205818000Y-94966000D03*
X205818000Y-96266000D03*
X207518000Y-96266000D03*
%TD*%
D18*
%TO.C,C9*%
X173679246Y-108006754D03*
X172212000Y-109474000D03*
%TD*%
D14*
%TO.C,C19*%
X133858000Y-93211500D03*
X133858000Y-95286500D03*
%TD*%
D26*
%TO.C,C27*%
X139975500Y-99695000D03*
X137900500Y-99695000D03*
%TD*%
D17*
%TO.C,R16*%
X166624000Y-68707000D03*
X168624000Y-68707000D03*
%TD*%
D12*
%TO.C,R31*%
X211395665Y-80391000D03*
X211395665Y-78391000D03*
%TD*%
%TO.C,R29*%
X186198334Y-66548000D03*
X186198334Y-64548000D03*
%TD*%
D10*
%TO.C,R8*%
X139176000Y-80772000D03*
X137176000Y-80772000D03*
%TD*%
D18*
%TO.C,C22*%
X190344623Y-104549377D03*
X188877377Y-106016623D03*
%TD*%
D26*
%TO.C,C32*%
X168661500Y-70739000D03*
X166586500Y-70739000D03*
%TD*%
D10*
%TO.C,R7*%
X139176000Y-89916000D03*
X137176000Y-89916000D03*
%TD*%
D17*
%TO.C,R3*%
X199560250Y-92710000D03*
X201560250Y-92710000D03*
%TD*%
D21*
%TO.C,C7*%
X194592377Y-96802377D03*
X196059623Y-98269623D03*
%TD*%
D12*
%TO.C,R26*%
X204791665Y-80391000D03*
X204791665Y-78391000D03*
%TD*%
D19*
%TO.C,C26*%
X139827000Y-104183000D03*
X139827000Y-102108000D03*
%TD*%
D10*
%TO.C,R1*%
X202692000Y-96012000D03*
X200692000Y-96012000D03*
%TD*%
D28*
%TO.C,U1*%
X164962290Y-95586340D03*
X165315844Y-95939894D03*
X165669397Y-96293447D03*
X166022950Y-96647000D03*
X166376504Y-97000554D03*
X166730057Y-97354107D03*
X167083610Y-97707661D03*
X167437164Y-98061214D03*
X167790717Y-98414767D03*
X168144271Y-98768321D03*
X168497824Y-99121874D03*
X168851377Y-99475428D03*
X169204931Y-99828981D03*
X169558484Y-100182534D03*
X169912038Y-100536088D03*
X170265591Y-100889641D03*
X170619144Y-101243194D03*
X170972698Y-101596748D03*
X171326251Y-101950302D03*
X171679805Y-102303856D03*
X172033358Y-102657409D03*
X172386911Y-103010962D03*
X172740465Y-103364516D03*
X173094018Y-103718069D03*
X173447571Y-104071623D03*
X173801125Y-104425176D03*
X174154678Y-104778729D03*
X174508232Y-105132283D03*
X174861785Y-105485836D03*
X175215338Y-105839390D03*
X175568892Y-106192943D03*
X175922445Y-106546496D03*
X176275999Y-106900050D03*
X176629552Y-107253603D03*
X176983105Y-107607156D03*
X177336659Y-107960710D03*
D29*
X180041340Y-107960710D03*
X180394894Y-107607156D03*
X180748447Y-107253603D03*
X181102000Y-106900050D03*
X181455554Y-106546496D03*
X181809107Y-106192943D03*
X182162661Y-105839390D03*
X182516214Y-105485836D03*
X182869767Y-105132283D03*
X183223321Y-104778729D03*
X183576874Y-104425176D03*
X183930428Y-104071623D03*
X184283981Y-103718069D03*
X184637534Y-103364516D03*
X184991088Y-103010962D03*
X185344641Y-102657409D03*
X185698194Y-102303856D03*
X186051748Y-101950302D03*
X186405302Y-101596749D03*
X186758856Y-101243195D03*
X187112409Y-100889642D03*
X187465962Y-100536089D03*
X187819516Y-100182535D03*
X188173069Y-99828982D03*
X188526623Y-99475429D03*
X188880176Y-99121875D03*
X189233729Y-98768322D03*
X189587283Y-98414768D03*
X189940836Y-98061215D03*
X190294390Y-97707662D03*
X190647943Y-97354108D03*
X191001496Y-97000555D03*
X191355050Y-96647001D03*
X191708603Y-96293448D03*
X192062156Y-95939895D03*
X192415710Y-95586341D03*
D28*
X192415710Y-92881660D03*
X192062156Y-92528106D03*
X191708603Y-92174553D03*
X191355050Y-91821000D03*
X191001496Y-91467446D03*
X190647943Y-91113893D03*
X190294390Y-90760339D03*
X189940836Y-90406786D03*
X189587283Y-90053233D03*
X189233729Y-89699679D03*
X188880176Y-89346126D03*
X188526623Y-88992572D03*
X188173069Y-88639019D03*
X187819516Y-88285466D03*
X187465962Y-87931912D03*
X187112409Y-87578359D03*
X186758856Y-87224806D03*
X186405302Y-86871252D03*
X186051749Y-86517698D03*
X185698195Y-86164144D03*
X185344642Y-85810591D03*
X184991089Y-85457038D03*
X184637535Y-85103484D03*
X184283982Y-84749931D03*
X183930429Y-84396377D03*
X183576875Y-84042824D03*
X183223322Y-83689271D03*
X182869768Y-83335717D03*
X182516215Y-82982164D03*
X182162662Y-82628610D03*
X181809108Y-82275057D03*
X181455555Y-81921504D03*
X181102001Y-81567950D03*
X180748448Y-81214397D03*
X180394895Y-80860844D03*
X180041341Y-80507290D03*
D29*
X177336660Y-80507290D03*
X176983106Y-80860844D03*
X176629553Y-81214397D03*
X176276000Y-81567950D03*
X175922446Y-81921504D03*
X175568893Y-82275057D03*
X175215339Y-82628610D03*
X174861786Y-82982164D03*
X174508233Y-83335717D03*
X174154679Y-83689271D03*
X173801126Y-84042824D03*
X173447572Y-84396377D03*
X173094019Y-84749931D03*
X172740466Y-85103484D03*
X172386912Y-85457038D03*
X172033359Y-85810591D03*
X171679806Y-86164144D03*
X171326252Y-86517698D03*
X170972698Y-86871251D03*
X170619144Y-87224805D03*
X170265591Y-87578358D03*
X169912038Y-87931911D03*
X169558484Y-88285465D03*
X169204931Y-88639018D03*
X168851377Y-88992571D03*
X168497824Y-89346125D03*
X168144271Y-89699678D03*
X167790717Y-90053232D03*
X167437164Y-90406785D03*
X167083610Y-90760338D03*
X166730057Y-91113892D03*
X166376504Y-91467445D03*
X166022950Y-91820999D03*
X165669397Y-92174552D03*
X165315844Y-92528105D03*
X164962290Y-92881659D03*
%TD*%
D30*
%TO.C,J1*%
X154957000Y-68758000D03*
X147557000Y-66758000D03*
D31*
X147557000Y-76158000D03*
%TD*%
D17*
%TO.C,R4*%
X208280000Y-89027000D03*
X210280000Y-89027000D03*
%TD*%
M02*
