%TF.GenerationSoftware,KiCad,Pcbnew,8.0.7*%
%TF.CreationDate,2025-01-22T16:06:57-05:00*%
%TF.ProjectId,vaudeo,76617564-656f-42e6-9b69-6361645f7063,rev?*%
%TF.SameCoordinates,Original*%
%TF.FileFunction,Copper,L4,Bot*%
%TF.FilePolarity,Positive*%
%FSLAX46Y46*%
G04 Gerber Fmt 4.6, Leading zero omitted, Abs format (unit mm)*
G04 Created by KiCad (PCBNEW 8.0.7) date 2025-01-22 16:06:57*
%MOMM*%
%LPD*%
G01*
G04 APERTURE LIST*
%TA.AperFunction,ComponentPad*%
%ADD10R,1.700000X1.700000*%
%TD*%
%TA.AperFunction,ComponentPad*%
%ADD11O,1.700000X1.700000*%
%TD*%
%TA.AperFunction,ComponentPad*%
%ADD12C,0.800000*%
%TD*%
%TA.AperFunction,ComponentPad*%
%ADD13C,6.400000*%
%TD*%
%TA.AperFunction,ComponentPad*%
%ADD14C,4.000000*%
%TD*%
%TA.AperFunction,ComponentPad*%
%ADD15R,1.600000X1.600000*%
%TD*%
%TA.AperFunction,ComponentPad*%
%ADD16C,1.600000*%
%TD*%
%TA.AperFunction,ViaPad*%
%ADD17C,0.762000*%
%TD*%
%TA.AperFunction,Conductor*%
%ADD18C,0.203200*%
%TD*%
%TA.AperFunction,Conductor*%
%ADD19C,0.304800*%
%TD*%
G04 APERTURE END LIST*
D10*
%TO.P,J6,1,Pin_1*%
%TO.N,Net-(J6-Pin_1)*%
X206756000Y-122174000D03*
D11*
%TO.P,J6,2,Pin_2*%
%TO.N,Net-(J6-Pin_2)*%
X206756000Y-119634000D03*
%TO.P,J6,3,Pin_3*%
%TO.N,CBSEL0*%
X209296000Y-122174000D03*
%TO.P,J6,4,Pin_4*%
%TO.N,CBSEL1*%
X209296000Y-119634000D03*
%TO.P,J6,5,Pin_5*%
%TO.N,GND*%
X211836000Y-122174000D03*
%TO.P,J6,6,Pin_6*%
X211836000Y-119634000D03*
%TD*%
D12*
%TO.P,H1,1,1*%
%TO.N,GND*%
X131458000Y-66675000D03*
X132160944Y-64977944D03*
X132160944Y-68372056D03*
X133858000Y-64275000D03*
D13*
X133858000Y-66675000D03*
D12*
X133858000Y-69075000D03*
X135555056Y-64977944D03*
X135555056Y-68372056D03*
X136258000Y-66675000D03*
%TD*%
%TO.P,H4,1,1*%
%TO.N,GND*%
X131422269Y-121823926D03*
X132125213Y-120126870D03*
X132125213Y-123520982D03*
X133822269Y-119423926D03*
D13*
X133822269Y-121823926D03*
D12*
X133822269Y-124223926D03*
X135519325Y-120126870D03*
X135519325Y-123520982D03*
X136222269Y-121823926D03*
%TD*%
D10*
%TO.P,J3,1,Pin_1*%
%TO.N,SDI*%
X226441000Y-85359000D03*
D11*
%TO.P,J3,2,Pin_2*%
%TO.N,SDO*%
X226441000Y-87899000D03*
%TO.P,J3,3,Pin_3*%
%TO.N,SCK*%
X226441000Y-90439000D03*
%TO.P,J3,4,Pin_4*%
%TO.N,~{FLASH_SEL}*%
X226441000Y-92979000D03*
%TO.P,J3,5,Pin_5*%
%TO.N,~{FLASH_RESET}*%
X226441000Y-95519000D03*
%TO.P,J3,6,Pin_6*%
%TO.N,~{CRESET}*%
X226441000Y-98059000D03*
%TO.P,J3,7,Pin_7*%
%TO.N,CDONE*%
X226441000Y-100599000D03*
%TO.P,J3,8,Pin_8*%
%TO.N,GND*%
X226441000Y-103139000D03*
%TD*%
D14*
%TO.P,J2,0*%
%TO.N,GND*%
X216021665Y-72579331D03*
X191021665Y-72579331D03*
D15*
%TO.P,J2,1*%
%TO.N,/Video/VGA_RED*%
X199206665Y-73999331D03*
D16*
%TO.P,J2,2*%
%TO.N,/Video/VGA_GRN*%
X201496665Y-73999331D03*
%TO.P,J2,3*%
%TO.N,/Video/VGA_BLU*%
X203786665Y-73999331D03*
%TO.P,J2,4*%
%TO.N,unconnected-(J2-Pad4)*%
X206076665Y-73999331D03*
%TO.P,J2,5*%
%TO.N,GND*%
X208366665Y-73999331D03*
%TO.P,J2,6*%
X198061665Y-72019331D03*
%TO.P,J2,7*%
X200351665Y-72019331D03*
%TO.P,J2,8*%
X202641665Y-72019331D03*
%TO.P,J2,9*%
%TO.N,unconnected-(J2-Pad9)*%
X204931665Y-72019331D03*
%TO.P,J2,10*%
%TO.N,GND*%
X207221665Y-72019331D03*
%TO.P,J2,11*%
%TO.N,unconnected-(J2-Pad11)*%
X199206665Y-70039331D03*
%TO.P,J2,12*%
%TO.N,unconnected-(J2-Pad12)*%
X201496665Y-70039331D03*
%TO.P,J2,13*%
%TO.N,/Video/VGA_HSYNC*%
X203786665Y-70039331D03*
%TO.P,J2,14*%
%TO.N,/Video/VGA_VSYNC*%
X206076665Y-70039331D03*
%TO.P,J2,15*%
%TO.N,unconnected-(J2-Pad15)*%
X208366665Y-70039331D03*
%TD*%
D12*
%TO.P,H3,1,1*%
%TO.N,GND*%
X221120000Y-121793000D03*
X221822944Y-120095944D03*
X221822944Y-123490056D03*
X223520000Y-119393000D03*
D13*
X223520000Y-121793000D03*
D12*
X223520000Y-124193000D03*
X225217056Y-120095944D03*
X225217056Y-123490056D03*
X225920000Y-121793000D03*
%TD*%
D10*
%TO.P,J4,1,Pin_1*%
%TO.N,+5V*%
X130937000Y-85359000D03*
D11*
%TO.P,J4,2,Pin_2*%
X130937000Y-87899000D03*
%TO.P,J4,3,Pin_3*%
X130937000Y-90439000D03*
%TO.P,J4,4,Pin_4*%
X130937000Y-92979000D03*
%TO.P,J4,5,Pin_5*%
%TO.N,GND*%
X130937000Y-95519000D03*
%TO.P,J4,6,Pin_6*%
X130937000Y-98059000D03*
%TO.P,J4,7,Pin_7*%
X130937000Y-100599000D03*
%TO.P,J4,8,Pin_8*%
X130937000Y-103139000D03*
%TD*%
D12*
%TO.P,H2,1,1*%
%TO.N,GND*%
X221120000Y-66675000D03*
X221822944Y-64977944D03*
X221822944Y-68372056D03*
X223520000Y-64275000D03*
D13*
X223520000Y-66675000D03*
D12*
X223520000Y-69075000D03*
X225217056Y-64977944D03*
X225217056Y-68372056D03*
X225920000Y-66675000D03*
%TD*%
D10*
%TO.P,J5,1,Pin_1*%
%TO.N,DATA0*%
X160909000Y-124714000D03*
D11*
%TO.P,J5,2,Pin_2*%
%TO.N,CLK*%
X160909000Y-122174000D03*
%TO.P,J5,3,Pin_3*%
%TO.N,DATA1*%
X163449000Y-124714000D03*
%TO.P,J5,4,Pin_4*%
%TO.N,~{ENABLE}*%
X163449000Y-122174000D03*
%TO.P,J5,5,Pin_5*%
%TO.N,DATA2*%
X165989000Y-124714000D03*
%TO.P,J5,6,Pin_6*%
%TO.N,~{BYTE}{slash}WORD*%
X165989000Y-122174000D03*
%TO.P,J5,7,Pin_7*%
%TO.N,DATA3*%
X168529000Y-124714000D03*
%TO.P,J5,8,Pin_8*%
%TO.N,~{WRITE}{slash}READ*%
X168529000Y-122174000D03*
%TO.P,J5,9,Pin_9*%
%TO.N,GND*%
X171069000Y-124714000D03*
%TO.P,J5,10,Pin_10*%
X171069000Y-122174000D03*
%TO.P,J5,11,Pin_11*%
%TO.N,DATA4*%
X173609000Y-124714000D03*
%TO.P,J5,12,Pin_12*%
%TO.N,ADDR0*%
X173609000Y-122174000D03*
%TO.P,J5,13,Pin_13*%
%TO.N,DATA5*%
X176149000Y-124714000D03*
%TO.P,J5,14,Pin_14*%
%TO.N,ADDR1*%
X176149000Y-122174000D03*
%TO.P,J5,15,Pin_15*%
%TO.N,DATA6*%
X178689000Y-124714000D03*
%TO.P,J5,16,Pin_16*%
%TO.N,ADDR2*%
X178689000Y-122174000D03*
%TO.P,J5,17,Pin_17*%
%TO.N,DATA7*%
X181229000Y-124714000D03*
%TO.P,J5,18,Pin_18*%
%TO.N,ADDR3*%
X181229000Y-122174000D03*
%TO.P,J5,19,Pin_19*%
%TO.N,GND*%
X183769000Y-124714000D03*
%TO.P,J5,20,Pin_20*%
X183769000Y-122174000D03*
%TO.P,J5,21,Pin_21*%
%TO.N,DATA8*%
X186309000Y-124714000D03*
%TO.P,J5,22,Pin_22*%
%TO.N,ADDR4*%
X186309000Y-122174000D03*
%TO.P,J5,23,Pin_23*%
%TO.N,DATA9*%
X188849000Y-124714000D03*
%TO.P,J5,24,Pin_24*%
%TO.N,ADDR5*%
X188849000Y-122174000D03*
%TO.P,J5,25,Pin_25*%
%TO.N,DATA10*%
X191389000Y-124714000D03*
%TO.P,J5,26,Pin_26*%
%TO.N,DATA15*%
X191389000Y-122174000D03*
%TO.P,J5,27,Pin_27*%
%TO.N,DATA11*%
X193929000Y-124714000D03*
%TO.P,J5,28,Pin_28*%
%TO.N,DATA14*%
X193929000Y-122174000D03*
%TO.P,J5,29,Pin_29*%
%TO.N,DATA12*%
X196469000Y-124714000D03*
%TO.P,J5,30,Pin_30*%
%TO.N,DATA13*%
X196469000Y-122174000D03*
%TD*%
D17*
%TO.N,GND*%
X180721000Y-83312000D03*
X141605000Y-78105000D03*
X191163377Y-81632623D03*
X170815000Y-99314000D03*
X204216000Y-94996000D03*
X155448000Y-118999000D03*
X197104000Y-99314000D03*
X136779000Y-96393000D03*
X171196000Y-110490000D03*
X174018377Y-74577377D03*
X156591000Y-109601000D03*
X143002000Y-88138000D03*
X217948000Y-100660000D03*
X192687377Y-104168377D03*
X145288000Y-66802000D03*
X168402000Y-78994000D03*
X170180000Y-89662000D03*
X136779000Y-100838000D03*
X133731000Y-76835000D03*
X184883623Y-112239623D03*
X187452000Y-78740000D03*
X167064098Y-92637319D03*
X183515000Y-75565000D03*
X135575000Y-75631000D03*
X135509000Y-86918800D03*
X155462000Y-97931000D03*
X167386000Y-96012000D03*
X170053000Y-98679000D03*
X162052000Y-101219000D03*
X192687377Y-83918623D03*
X136906000Y-101981000D03*
X141224000Y-120777000D03*
X169799000Y-109093000D03*
X155575000Y-104267000D03*
X163068000Y-84709000D03*
X165100000Y-64643000D03*
X165100000Y-70739000D03*
X190246000Y-95377000D03*
X186690000Y-99060000D03*
X157988000Y-99673500D03*
X136906000Y-106426000D03*
X140462000Y-78486000D03*
X187734377Y-109502377D03*
X186690000Y-89408000D03*
X165100000Y-68707000D03*
%TO.N,+1V2*%
X177701377Y-75974377D03*
X184531000Y-87249000D03*
X141097000Y-84328000D03*
X181356000Y-110871000D03*
X139954000Y-84328000D03*
X191389000Y-108458000D03*
X175260000Y-103632000D03*
X142240000Y-84328000D03*
X143383000Y-84328000D03*
X163703000Y-80899000D03*
%TO.N,+3V3*%
X207518000Y-97536000D03*
X157988000Y-100965000D03*
X225806000Y-111887000D03*
X173609000Y-86614000D03*
X164719000Y-100711000D03*
X217948000Y-103581000D03*
X188976000Y-86995000D03*
X182118000Y-103632000D03*
X202565000Y-103505000D03*
X164465000Y-88265000D03*
X133477000Y-74549000D03*
X215376000Y-89027000D03*
X215376000Y-92710000D03*
X157988000Y-106531500D03*
X174244000Y-109347000D03*
X139954000Y-96139000D03*
X138049000Y-101209500D03*
X137033000Y-108712000D03*
X137033000Y-104394000D03*
X191163377Y-100612377D03*
X139954000Y-72898000D03*
X142240000Y-72898000D03*
X141097000Y-72898000D03*
X179832000Y-77089000D03*
X224409000Y-107061000D03*
X184277000Y-80264000D03*
X200152000Y-120904000D03*
X206656250Y-89027000D03*
X206656250Y-92710000D03*
X137414000Y-118110000D03*
X195707000Y-95631000D03*
X143383000Y-72898000D03*
%TO.N,SCK*%
X200279000Y-100711000D03*
X203962000Y-101473000D03*
%TO.N,~{FLASH_SEL}*%
X199517000Y-103124000D03*
X198882000Y-99822000D03*
%TO.N,~{FLASH_RESET}*%
X219456000Y-107061000D03*
X209550000Y-102743000D03*
%TO.N,SDI*%
X209423000Y-100203000D03*
%TO.N,SDRAM_CLK*%
X159639000Y-94615000D03*
X171323000Y-88646000D03*
%TD*%
D18*
%TO.N,SCK*%
X201295000Y-101473000D02*
X203962000Y-101473000D01*
X200533000Y-100711000D02*
X201295000Y-101473000D01*
X200279000Y-100711000D02*
X200533000Y-100711000D01*
%TO.N,~{FLASH_SEL}*%
X198882000Y-99822000D02*
X198882000Y-102489000D01*
X198882000Y-102489000D02*
X199517000Y-103124000D01*
D19*
%TO.N,~{FLASH_RESET}*%
X209550000Y-102743000D02*
X213868000Y-107061000D01*
X213868000Y-107061000D02*
X219456000Y-107061000D01*
%TO.N,SDI*%
X209423000Y-100203000D02*
X209931000Y-100203000D01*
X209931000Y-100203000D02*
X224775000Y-85359000D01*
X224775000Y-85359000D02*
X226441000Y-85359000D01*
%TO.N,SDRAM_CLK*%
X171323000Y-88646000D02*
X171323000Y-89916000D01*
X171323000Y-89916000D02*
X166624000Y-94615000D01*
X166624000Y-94615000D02*
X159639000Y-94615000D01*
%TD*%
%TA.AperFunction,Conductor*%
%TO.N,+1V2*%
G36*
X223522702Y-61895618D02*
G01*
X223536499Y-61896220D01*
X223931173Y-61913451D01*
X223941910Y-61914391D01*
X224344584Y-61967404D01*
X224355222Y-61969279D01*
X224751749Y-62057188D01*
X224762189Y-62059986D01*
X225149530Y-62182113D01*
X225159676Y-62185806D01*
X225534911Y-62341234D01*
X225544702Y-62345800D01*
X225904942Y-62533329D01*
X225914310Y-62538737D01*
X226256840Y-62756952D01*
X226265699Y-62763155D01*
X226534511Y-62969422D01*
X226587909Y-63010396D01*
X226596195Y-63017350D01*
X226895624Y-63291726D01*
X226903273Y-63299375D01*
X227177649Y-63598804D01*
X227184603Y-63607090D01*
X227431842Y-63929297D01*
X227438047Y-63938159D01*
X227656262Y-64280689D01*
X227661670Y-64290057D01*
X227849196Y-64650290D01*
X227853768Y-64660094D01*
X228009189Y-65035313D01*
X228012889Y-65045479D01*
X228135012Y-65432806D01*
X228137812Y-65443254D01*
X228225718Y-65839769D01*
X228227596Y-65850423D01*
X228280606Y-66253069D01*
X228281549Y-66263845D01*
X228299382Y-66672297D01*
X228299500Y-66677706D01*
X228299500Y-121790293D01*
X228299382Y-121795702D01*
X228281549Y-122204154D01*
X228280606Y-122214930D01*
X228227596Y-122617576D01*
X228225718Y-122628230D01*
X228137812Y-123024745D01*
X228135012Y-123035193D01*
X228012889Y-123422520D01*
X228009189Y-123432686D01*
X227853768Y-123807905D01*
X227849196Y-123817709D01*
X227661670Y-124177942D01*
X227656262Y-124187310D01*
X227438047Y-124529840D01*
X227431842Y-124538702D01*
X227184603Y-124860909D01*
X227177649Y-124869195D01*
X226903273Y-125168624D01*
X226895624Y-125176273D01*
X226596195Y-125450649D01*
X226587909Y-125457603D01*
X226265702Y-125704842D01*
X226256840Y-125711047D01*
X225914310Y-125929262D01*
X225904942Y-125934670D01*
X225544709Y-126122196D01*
X225534905Y-126126768D01*
X225159686Y-126282189D01*
X225149520Y-126285889D01*
X224762193Y-126408012D01*
X224751745Y-126410812D01*
X224355230Y-126498718D01*
X224344576Y-126500596D01*
X223941930Y-126553606D01*
X223931154Y-126554549D01*
X223522703Y-126572382D01*
X223517294Y-126572500D01*
X133860706Y-126572500D01*
X133855297Y-126572382D01*
X133446845Y-126554549D01*
X133436069Y-126553606D01*
X133033423Y-126500596D01*
X133022769Y-126498718D01*
X132626254Y-126410812D01*
X132615806Y-126408012D01*
X132228479Y-126285889D01*
X132218313Y-126282189D01*
X131843094Y-126126768D01*
X131833290Y-126122196D01*
X131473057Y-125934670D01*
X131463689Y-125929262D01*
X131121159Y-125711047D01*
X131112297Y-125704842D01*
X130790090Y-125457603D01*
X130781804Y-125450649D01*
X130482375Y-125176273D01*
X130474726Y-125168624D01*
X130200350Y-124869195D01*
X130193396Y-124860909D01*
X129946157Y-124538702D01*
X129939952Y-124529840D01*
X129721737Y-124187310D01*
X129716329Y-124177942D01*
X129648401Y-124047454D01*
X129528800Y-123817702D01*
X129524231Y-123807905D01*
X129519892Y-123797430D01*
X129368806Y-123432676D01*
X129365110Y-123422520D01*
X129364788Y-123421500D01*
X129242986Y-123035189D01*
X129240187Y-123024745D01*
X129227833Y-122969020D01*
X129152279Y-122628222D01*
X129150403Y-122617576D01*
X129097391Y-122214910D01*
X129096451Y-122204173D01*
X129079850Y-121823925D01*
X130116691Y-121823925D01*
X130116691Y-121823926D01*
X130136991Y-122211265D01*
X130176244Y-122459097D01*
X130197667Y-122594359D01*
X130289768Y-122938087D01*
X130298057Y-122969020D01*
X130437056Y-123331123D01*
X130613146Y-123676719D01*
X130824391Y-124002008D01*
X130950807Y-124158118D01*
X131068488Y-124303442D01*
X131342753Y-124577707D01*
X131342757Y-124577710D01*
X131644186Y-124821803D01*
X131921858Y-125002125D01*
X131969480Y-125033051D01*
X132315075Y-125209140D01*
X132677182Y-125348140D01*
X133051836Y-125448528D01*
X133434931Y-125509204D01*
X133800845Y-125528381D01*
X133822268Y-125529504D01*
X133822269Y-125529504D01*
X133822270Y-125529504D01*
X133842570Y-125528440D01*
X134209607Y-125509204D01*
X134592702Y-125448528D01*
X134967356Y-125348140D01*
X135329463Y-125209140D01*
X135675058Y-125033051D01*
X136000353Y-124821802D01*
X136301785Y-124577707D01*
X136576050Y-124303442D01*
X136820145Y-124002010D01*
X137031394Y-123676715D01*
X137207483Y-123331120D01*
X137346483Y-122969013D01*
X137446871Y-122594359D01*
X137507547Y-122211264D01*
X137509500Y-122173999D01*
X159553341Y-122173999D01*
X159553341Y-122174000D01*
X159573936Y-122409403D01*
X159573938Y-122409413D01*
X159635094Y-122637655D01*
X159635096Y-122637659D01*
X159635097Y-122637663D01*
X159639000Y-122646032D01*
X159734965Y-122851830D01*
X159734967Y-122851834D01*
X159817017Y-122969013D01*
X159870501Y-123045396D01*
X159870506Y-123045402D01*
X159992430Y-123167326D01*
X160025915Y-123228649D01*
X160020931Y-123298341D01*
X159979059Y-123354274D01*
X159948083Y-123371189D01*
X159816669Y-123420203D01*
X159816664Y-123420206D01*
X159701455Y-123506452D01*
X159701452Y-123506455D01*
X159615206Y-123621664D01*
X159615202Y-123621671D01*
X159564908Y-123756517D01*
X159558501Y-123816116D01*
X159558500Y-123816135D01*
X159558500Y-125611870D01*
X159558501Y-125611876D01*
X159564908Y-125671483D01*
X159615202Y-125806328D01*
X159615206Y-125806335D01*
X159701452Y-125921544D01*
X159701455Y-125921547D01*
X159816664Y-126007793D01*
X159816671Y-126007797D01*
X159951517Y-126058091D01*
X159951516Y-126058091D01*
X159958444Y-126058835D01*
X160011127Y-126064500D01*
X161806872Y-126064499D01*
X161866483Y-126058091D01*
X162001331Y-126007796D01*
X162116546Y-125921546D01*
X162202796Y-125806331D01*
X162251810Y-125674916D01*
X162293681Y-125618984D01*
X162359145Y-125594566D01*
X162427418Y-125609417D01*
X162455673Y-125630569D01*
X162577599Y-125752495D01*
X162674384Y-125820265D01*
X162771165Y-125888032D01*
X162771167Y-125888033D01*
X162771170Y-125888035D01*
X162985337Y-125987903D01*
X163213592Y-126049063D01*
X163390034Y-126064500D01*
X163448999Y-126069659D01*
X163449000Y-126069659D01*
X163449001Y-126069659D01*
X163507966Y-126064500D01*
X163684408Y-126049063D01*
X163912663Y-125987903D01*
X164126830Y-125888035D01*
X164320401Y-125752495D01*
X164487495Y-125585401D01*
X164617425Y-125399842D01*
X164672002Y-125356217D01*
X164741500Y-125349023D01*
X164803855Y-125380546D01*
X164820575Y-125399842D01*
X164950500Y-125585395D01*
X164950505Y-125585401D01*
X165117599Y-125752495D01*
X165214384Y-125820265D01*
X165311165Y-125888032D01*
X165311167Y-125888033D01*
X165311170Y-125888035D01*
X165525337Y-125987903D01*
X165753592Y-126049063D01*
X165930034Y-126064500D01*
X165988999Y-126069659D01*
X165989000Y-126069659D01*
X165989001Y-126069659D01*
X166047966Y-126064500D01*
X166224408Y-126049063D01*
X166452663Y-125987903D01*
X166666830Y-125888035D01*
X166860401Y-125752495D01*
X167027495Y-125585401D01*
X167157425Y-125399842D01*
X167212002Y-125356217D01*
X167281500Y-125349023D01*
X167343855Y-125380546D01*
X167360575Y-125399842D01*
X167490500Y-125585395D01*
X167490505Y-125585401D01*
X167657599Y-125752495D01*
X167754384Y-125820265D01*
X167851165Y-125888032D01*
X167851167Y-125888033D01*
X167851170Y-125888035D01*
X168065337Y-125987903D01*
X168293592Y-126049063D01*
X168470034Y-126064500D01*
X168528999Y-126069659D01*
X168529000Y-126069659D01*
X168529001Y-126069659D01*
X168587966Y-126064500D01*
X168764408Y-126049063D01*
X168992663Y-125987903D01*
X169206830Y-125888035D01*
X169400401Y-125752495D01*
X169567495Y-125585401D01*
X169697425Y-125399842D01*
X169752002Y-125356217D01*
X169821500Y-125349023D01*
X169883855Y-125380546D01*
X169900575Y-125399842D01*
X170030500Y-125585395D01*
X170030505Y-125585401D01*
X170197599Y-125752495D01*
X170294384Y-125820265D01*
X170391165Y-125888032D01*
X170391167Y-125888033D01*
X170391170Y-125888035D01*
X170605337Y-125987903D01*
X170833592Y-126049063D01*
X171010034Y-126064500D01*
X171068999Y-126069659D01*
X171069000Y-126069659D01*
X171069001Y-126069659D01*
X171127966Y-126064500D01*
X171304408Y-126049063D01*
X171532663Y-125987903D01*
X171746830Y-125888035D01*
X171940401Y-125752495D01*
X172107495Y-125585401D01*
X172237425Y-125399842D01*
X172292002Y-125356217D01*
X172361500Y-125349023D01*
X172423855Y-125380546D01*
X172440575Y-125399842D01*
X172570500Y-125585395D01*
X172570505Y-125585401D01*
X172737599Y-125752495D01*
X172834384Y-125820265D01*
X172931165Y-125888032D01*
X172931167Y-125888033D01*
X172931170Y-125888035D01*
X173145337Y-125987903D01*
X173373592Y-126049063D01*
X173550034Y-126064500D01*
X173608999Y-126069659D01*
X173609000Y-126069659D01*
X173609001Y-126069659D01*
X173667966Y-126064500D01*
X173844408Y-126049063D01*
X174072663Y-125987903D01*
X174286830Y-125888035D01*
X174480401Y-125752495D01*
X174647495Y-125585401D01*
X174777425Y-125399842D01*
X174832002Y-125356217D01*
X174901500Y-125349023D01*
X174963855Y-125380546D01*
X174980575Y-125399842D01*
X175110500Y-125585395D01*
X175110505Y-125585401D01*
X175277599Y-125752495D01*
X175374384Y-125820265D01*
X175471165Y-125888032D01*
X175471167Y-125888033D01*
X175471170Y-125888035D01*
X175685337Y-125987903D01*
X175913592Y-126049063D01*
X176090034Y-126064500D01*
X176148999Y-126069659D01*
X176149000Y-126069659D01*
X176149001Y-126069659D01*
X176207966Y-126064500D01*
X176384408Y-126049063D01*
X176612663Y-125987903D01*
X176826830Y-125888035D01*
X177020401Y-125752495D01*
X177187495Y-125585401D01*
X177317425Y-125399842D01*
X177372002Y-125356217D01*
X177441500Y-125349023D01*
X177503855Y-125380546D01*
X177520575Y-125399842D01*
X177650500Y-125585395D01*
X177650505Y-125585401D01*
X177817599Y-125752495D01*
X177914384Y-125820265D01*
X178011165Y-125888032D01*
X178011167Y-125888033D01*
X178011170Y-125888035D01*
X178225337Y-125987903D01*
X178453592Y-126049063D01*
X178630034Y-126064500D01*
X178688999Y-126069659D01*
X178689000Y-126069659D01*
X178689001Y-126069659D01*
X178747966Y-126064500D01*
X178924408Y-126049063D01*
X179152663Y-125987903D01*
X179366830Y-125888035D01*
X179560401Y-125752495D01*
X179727495Y-125585401D01*
X179857425Y-125399842D01*
X179912002Y-125356217D01*
X179981500Y-125349023D01*
X180043855Y-125380546D01*
X180060575Y-125399842D01*
X180190500Y-125585395D01*
X180190505Y-125585401D01*
X180357599Y-125752495D01*
X180454384Y-125820265D01*
X180551165Y-125888032D01*
X180551167Y-125888033D01*
X180551170Y-125888035D01*
X180765337Y-125987903D01*
X180993592Y-126049063D01*
X181170034Y-126064500D01*
X181228999Y-126069659D01*
X181229000Y-126069659D01*
X181229001Y-126069659D01*
X181287966Y-126064500D01*
X181464408Y-126049063D01*
X181692663Y-125987903D01*
X181906830Y-125888035D01*
X182100401Y-125752495D01*
X182267495Y-125585401D01*
X182397425Y-125399842D01*
X182452002Y-125356217D01*
X182521500Y-125349023D01*
X182583855Y-125380546D01*
X182600575Y-125399842D01*
X182730500Y-125585395D01*
X182730505Y-125585401D01*
X182897599Y-125752495D01*
X182994384Y-125820265D01*
X183091165Y-125888032D01*
X183091167Y-125888033D01*
X183091170Y-125888035D01*
X183305337Y-125987903D01*
X183533592Y-126049063D01*
X183710034Y-126064500D01*
X183768999Y-126069659D01*
X183769000Y-126069659D01*
X183769001Y-126069659D01*
X183827966Y-126064500D01*
X184004408Y-126049063D01*
X184232663Y-125987903D01*
X184446830Y-125888035D01*
X184640401Y-125752495D01*
X184807495Y-125585401D01*
X184937425Y-125399842D01*
X184992002Y-125356217D01*
X185061500Y-125349023D01*
X185123855Y-125380546D01*
X185140575Y-125399842D01*
X185270500Y-125585395D01*
X185270505Y-125585401D01*
X185437599Y-125752495D01*
X185534384Y-125820265D01*
X185631165Y-125888032D01*
X185631167Y-125888033D01*
X185631170Y-125888035D01*
X185845337Y-125987903D01*
X186073592Y-126049063D01*
X186250034Y-126064500D01*
X186308999Y-126069659D01*
X186309000Y-126069659D01*
X186309001Y-126069659D01*
X186367966Y-126064500D01*
X186544408Y-126049063D01*
X186772663Y-125987903D01*
X186986830Y-125888035D01*
X187180401Y-125752495D01*
X187347495Y-125585401D01*
X187477425Y-125399842D01*
X187532002Y-125356217D01*
X187601500Y-125349023D01*
X187663855Y-125380546D01*
X187680575Y-125399842D01*
X187810500Y-125585395D01*
X187810505Y-125585401D01*
X187977599Y-125752495D01*
X188074384Y-125820265D01*
X188171165Y-125888032D01*
X188171167Y-125888033D01*
X188171170Y-125888035D01*
X188385337Y-125987903D01*
X188613592Y-126049063D01*
X188790034Y-126064500D01*
X188848999Y-126069659D01*
X188849000Y-126069659D01*
X188849001Y-126069659D01*
X188907966Y-126064500D01*
X189084408Y-126049063D01*
X189312663Y-125987903D01*
X189526830Y-125888035D01*
X189720401Y-125752495D01*
X189887495Y-125585401D01*
X190017425Y-125399842D01*
X190072002Y-125356217D01*
X190141500Y-125349023D01*
X190203855Y-125380546D01*
X190220575Y-125399842D01*
X190350500Y-125585395D01*
X190350505Y-125585401D01*
X190517599Y-125752495D01*
X190614384Y-125820265D01*
X190711165Y-125888032D01*
X190711167Y-125888033D01*
X190711170Y-125888035D01*
X190925337Y-125987903D01*
X191153592Y-126049063D01*
X191330034Y-126064500D01*
X191388999Y-126069659D01*
X191389000Y-126069659D01*
X191389001Y-126069659D01*
X191447966Y-126064500D01*
X191624408Y-126049063D01*
X191852663Y-125987903D01*
X192066830Y-125888035D01*
X192260401Y-125752495D01*
X192427495Y-125585401D01*
X192557425Y-125399842D01*
X192612002Y-125356217D01*
X192681500Y-125349023D01*
X192743855Y-125380546D01*
X192760575Y-125399842D01*
X192890500Y-125585395D01*
X192890505Y-125585401D01*
X193057599Y-125752495D01*
X193154384Y-125820265D01*
X193251165Y-125888032D01*
X193251167Y-125888033D01*
X193251170Y-125888035D01*
X193465337Y-125987903D01*
X193693592Y-126049063D01*
X193870034Y-126064500D01*
X193928999Y-126069659D01*
X193929000Y-126069659D01*
X193929001Y-126069659D01*
X193987966Y-126064500D01*
X194164408Y-126049063D01*
X194392663Y-125987903D01*
X194606830Y-125888035D01*
X194800401Y-125752495D01*
X194967495Y-125585401D01*
X195097425Y-125399842D01*
X195152002Y-125356217D01*
X195221500Y-125349023D01*
X195283855Y-125380546D01*
X195300575Y-125399842D01*
X195430500Y-125585395D01*
X195430505Y-125585401D01*
X195597599Y-125752495D01*
X195694384Y-125820265D01*
X195791165Y-125888032D01*
X195791167Y-125888033D01*
X195791170Y-125888035D01*
X196005337Y-125987903D01*
X196233592Y-126049063D01*
X196410034Y-126064500D01*
X196468999Y-126069659D01*
X196469000Y-126069659D01*
X196469001Y-126069659D01*
X196527966Y-126064500D01*
X196704408Y-126049063D01*
X196932663Y-125987903D01*
X197146830Y-125888035D01*
X197340401Y-125752495D01*
X197507495Y-125585401D01*
X197643035Y-125391830D01*
X197742903Y-125177663D01*
X197804063Y-124949408D01*
X197824659Y-124714000D01*
X197804063Y-124478592D01*
X197748846Y-124272516D01*
X197742905Y-124250344D01*
X197742904Y-124250343D01*
X197742903Y-124250337D01*
X197643035Y-124036171D01*
X197637425Y-124028158D01*
X197507494Y-123842597D01*
X197340402Y-123675506D01*
X197340396Y-123675501D01*
X197154842Y-123545575D01*
X197111217Y-123490998D01*
X197104023Y-123421500D01*
X197135546Y-123359145D01*
X197154842Y-123342425D01*
X197217800Y-123298341D01*
X197340401Y-123212495D01*
X197507495Y-123045401D01*
X197643035Y-122851830D01*
X197742903Y-122637663D01*
X197804063Y-122409408D01*
X197824659Y-122174000D01*
X197804063Y-121938592D01*
X197752720Y-121746975D01*
X197742905Y-121710344D01*
X197742904Y-121710343D01*
X197742903Y-121710337D01*
X197643035Y-121496171D01*
X197637425Y-121488158D01*
X197507494Y-121302597D01*
X197340402Y-121135506D01*
X197340395Y-121135501D01*
X197146834Y-120999967D01*
X197146830Y-120999965D01*
X197146828Y-120999964D01*
X196941033Y-120904000D01*
X199265644Y-120904000D01*
X199285013Y-121088286D01*
X199285014Y-121088288D01*
X199342274Y-121264514D01*
X199415343Y-121391074D01*
X199434923Y-121424987D01*
X199445367Y-121436586D01*
X199558906Y-121562686D01*
X199558909Y-121562688D01*
X199558912Y-121562691D01*
X199690782Y-121658500D01*
X199708822Y-121671607D01*
X199878095Y-121746973D01*
X199878098Y-121746973D01*
X199878101Y-121746975D01*
X200059351Y-121785500D01*
X200244649Y-121785500D01*
X200425899Y-121746975D01*
X200425902Y-121746973D01*
X200425904Y-121746973D01*
X200508189Y-121710337D01*
X200595178Y-121671607D01*
X200745088Y-121562691D01*
X200869077Y-121424987D01*
X200961726Y-121264513D01*
X201018987Y-121088284D01*
X201038356Y-120904000D01*
X201018987Y-120719716D01*
X200961726Y-120543487D01*
X200869077Y-120383013D01*
X200812198Y-120319842D01*
X200745093Y-120245313D01*
X200745090Y-120245311D01*
X200745089Y-120245310D01*
X200745088Y-120245309D01*
X200595178Y-120136393D01*
X200595177Y-120136392D01*
X200425904Y-120061026D01*
X200425896Y-120061024D01*
X200244649Y-120022500D01*
X200059351Y-120022500D01*
X199878103Y-120061024D01*
X199878095Y-120061026D01*
X199708822Y-120136392D01*
X199558909Y-120245311D01*
X199558906Y-120245313D01*
X199434922Y-120383014D01*
X199342274Y-120543485D01*
X199285014Y-120719711D01*
X199285013Y-120719713D01*
X199265644Y-120904000D01*
X196941033Y-120904000D01*
X196932663Y-120900097D01*
X196932659Y-120900096D01*
X196932655Y-120900094D01*
X196704413Y-120838938D01*
X196704403Y-120838936D01*
X196469001Y-120818341D01*
X196468999Y-120818341D01*
X196233596Y-120838936D01*
X196233586Y-120838938D01*
X196005344Y-120900094D01*
X196005335Y-120900098D01*
X195791171Y-120999964D01*
X195791169Y-120999965D01*
X195597597Y-121135505D01*
X195430505Y-121302597D01*
X195300575Y-121488158D01*
X195245998Y-121531783D01*
X195176500Y-121538977D01*
X195114145Y-121507454D01*
X195097425Y-121488158D01*
X194967494Y-121302597D01*
X194800402Y-121135506D01*
X194800395Y-121135501D01*
X194606834Y-120999967D01*
X194606830Y-120999965D01*
X194606828Y-120999964D01*
X194392663Y-120900097D01*
X194392659Y-120900096D01*
X194392655Y-120900094D01*
X194164413Y-120838938D01*
X194164403Y-120838936D01*
X193929001Y-120818341D01*
X193928999Y-120818341D01*
X193693596Y-120838936D01*
X193693586Y-120838938D01*
X193465344Y-120900094D01*
X193465335Y-120900098D01*
X193251171Y-120999964D01*
X193251169Y-120999965D01*
X193057597Y-121135505D01*
X192890505Y-121302597D01*
X192760575Y-121488158D01*
X192705998Y-121531783D01*
X192636500Y-121538977D01*
X192574145Y-121507454D01*
X192557425Y-121488158D01*
X192427494Y-121302597D01*
X192260402Y-121135506D01*
X192260395Y-121135501D01*
X192066834Y-120999967D01*
X192066830Y-120999965D01*
X192066828Y-120999964D01*
X191852663Y-120900097D01*
X191852659Y-120900096D01*
X191852655Y-120900094D01*
X191624413Y-120838938D01*
X191624403Y-120838936D01*
X191389001Y-120818341D01*
X191388999Y-120818341D01*
X191153596Y-120838936D01*
X191153586Y-120838938D01*
X190925344Y-120900094D01*
X190925335Y-120900098D01*
X190711171Y-120999964D01*
X190711169Y-120999965D01*
X190517597Y-121135505D01*
X190350505Y-121302597D01*
X190220575Y-121488158D01*
X190165998Y-121531783D01*
X190096500Y-121538977D01*
X190034145Y-121507454D01*
X190017425Y-121488158D01*
X189887494Y-121302597D01*
X189720402Y-121135506D01*
X189720395Y-121135501D01*
X189526834Y-120999967D01*
X189526830Y-120999965D01*
X189526828Y-120999964D01*
X189312663Y-120900097D01*
X189312659Y-120900096D01*
X189312655Y-120900094D01*
X189084413Y-120838938D01*
X189084403Y-120838936D01*
X188849001Y-120818341D01*
X188848999Y-120818341D01*
X188613596Y-120838936D01*
X188613586Y-120838938D01*
X188385344Y-120900094D01*
X188385335Y-120900098D01*
X188171171Y-120999964D01*
X188171169Y-120999965D01*
X187977597Y-121135505D01*
X187810505Y-121302597D01*
X187680575Y-121488158D01*
X187625998Y-121531783D01*
X187556500Y-121538977D01*
X187494145Y-121507454D01*
X187477425Y-121488158D01*
X187347494Y-121302597D01*
X187180402Y-121135506D01*
X187180395Y-121135501D01*
X186986834Y-120999967D01*
X186986830Y-120999965D01*
X186986828Y-120999964D01*
X186772663Y-120900097D01*
X186772659Y-120900096D01*
X186772655Y-120900094D01*
X186544413Y-120838938D01*
X186544403Y-120838936D01*
X186309001Y-120818341D01*
X186308999Y-120818341D01*
X186073596Y-120838936D01*
X186073586Y-120838938D01*
X185845344Y-120900094D01*
X185845335Y-120900098D01*
X185631171Y-120999964D01*
X185631169Y-120999965D01*
X185437597Y-121135505D01*
X185270505Y-121302597D01*
X185140575Y-121488158D01*
X185085998Y-121531783D01*
X185016500Y-121538977D01*
X184954145Y-121507454D01*
X184937425Y-121488158D01*
X184807494Y-121302597D01*
X184640402Y-121135506D01*
X184640395Y-121135501D01*
X184446834Y-120999967D01*
X184446830Y-120999965D01*
X184446828Y-120999964D01*
X184232663Y-120900097D01*
X184232659Y-120900096D01*
X184232655Y-120900094D01*
X184004413Y-120838938D01*
X184004403Y-120838936D01*
X183769001Y-120818341D01*
X183768999Y-120818341D01*
X183533596Y-120838936D01*
X183533586Y-120838938D01*
X183305344Y-120900094D01*
X183305335Y-120900098D01*
X183091171Y-120999964D01*
X183091169Y-120999965D01*
X182897597Y-121135505D01*
X182730505Y-121302597D01*
X182600575Y-121488158D01*
X182545998Y-121531783D01*
X182476500Y-121538977D01*
X182414145Y-121507454D01*
X182397425Y-121488158D01*
X182267494Y-121302597D01*
X182100402Y-121135506D01*
X182100395Y-121135501D01*
X181906834Y-120999967D01*
X181906830Y-120999965D01*
X181906828Y-120999964D01*
X181692663Y-120900097D01*
X181692659Y-120900096D01*
X181692655Y-120900094D01*
X181464413Y-120838938D01*
X181464403Y-120838936D01*
X181229001Y-120818341D01*
X181228999Y-120818341D01*
X180993596Y-120838936D01*
X180993586Y-120838938D01*
X180765344Y-120900094D01*
X180765335Y-120900098D01*
X180551171Y-120999964D01*
X180551169Y-120999965D01*
X180357597Y-121135505D01*
X180190505Y-121302597D01*
X180060575Y-121488158D01*
X180005998Y-121531783D01*
X179936500Y-121538977D01*
X179874145Y-121507454D01*
X179857425Y-121488158D01*
X179727494Y-121302597D01*
X179560402Y-121135506D01*
X179560395Y-121135501D01*
X179366834Y-120999967D01*
X179366830Y-120999965D01*
X179366828Y-120999964D01*
X179152663Y-120900097D01*
X179152659Y-120900096D01*
X179152655Y-120900094D01*
X178924413Y-120838938D01*
X178924403Y-120838936D01*
X178689001Y-120818341D01*
X178688999Y-120818341D01*
X178453596Y-120838936D01*
X178453586Y-120838938D01*
X178225344Y-120900094D01*
X178225335Y-120900098D01*
X178011171Y-120999964D01*
X178011169Y-120999965D01*
X177817597Y-121135505D01*
X177650505Y-121302597D01*
X177520575Y-121488158D01*
X177465998Y-121531783D01*
X177396500Y-121538977D01*
X177334145Y-121507454D01*
X177317425Y-121488158D01*
X177187494Y-121302597D01*
X177020402Y-121135506D01*
X177020395Y-121135501D01*
X176826834Y-120999967D01*
X176826830Y-120999965D01*
X176826828Y-120999964D01*
X176612663Y-120900097D01*
X176612659Y-120900096D01*
X176612655Y-120900094D01*
X176384413Y-120838938D01*
X176384403Y-120838936D01*
X176149001Y-120818341D01*
X176148999Y-120818341D01*
X175913596Y-120838936D01*
X175913586Y-120838938D01*
X175685344Y-120900094D01*
X175685335Y-120900098D01*
X175471171Y-120999964D01*
X175471169Y-120999965D01*
X175277597Y-121135505D01*
X175110505Y-121302597D01*
X174980575Y-121488158D01*
X174925998Y-121531783D01*
X174856500Y-121538977D01*
X174794145Y-121507454D01*
X174777425Y-121488158D01*
X174647494Y-121302597D01*
X174480402Y-121135506D01*
X174480395Y-121135501D01*
X174286834Y-120999967D01*
X174286830Y-120999965D01*
X174286828Y-120999964D01*
X174072663Y-120900097D01*
X174072659Y-120900096D01*
X174072655Y-120900094D01*
X173844413Y-120838938D01*
X173844403Y-120838936D01*
X173609001Y-120818341D01*
X173608999Y-120818341D01*
X173373596Y-120838936D01*
X173373586Y-120838938D01*
X173145344Y-120900094D01*
X173145335Y-120900098D01*
X172931171Y-120999964D01*
X172931169Y-120999965D01*
X172737597Y-121135505D01*
X172570505Y-121302597D01*
X172440575Y-121488158D01*
X172385998Y-121531783D01*
X172316500Y-121538977D01*
X172254145Y-121507454D01*
X172237425Y-121488158D01*
X172107494Y-121302597D01*
X171940402Y-121135506D01*
X171940395Y-121135501D01*
X171746834Y-120999967D01*
X171746830Y-120999965D01*
X171746828Y-120999964D01*
X171532663Y-120900097D01*
X171532659Y-120900096D01*
X171532655Y-120900094D01*
X171304413Y-120838938D01*
X171304403Y-120838936D01*
X171069001Y-120818341D01*
X171068999Y-120818341D01*
X170833596Y-120838936D01*
X170833586Y-120838938D01*
X170605344Y-120900094D01*
X170605335Y-120900098D01*
X170391171Y-120999964D01*
X170391169Y-120999965D01*
X170197597Y-121135505D01*
X170030505Y-121302597D01*
X169900575Y-121488158D01*
X169845998Y-121531783D01*
X169776500Y-121538977D01*
X169714145Y-121507454D01*
X169697425Y-121488158D01*
X169567494Y-121302597D01*
X169400402Y-121135506D01*
X169400395Y-121135501D01*
X169206834Y-120999967D01*
X169206830Y-120999965D01*
X169206828Y-120999964D01*
X168992663Y-120900097D01*
X168992659Y-120900096D01*
X168992655Y-120900094D01*
X168764413Y-120838938D01*
X168764403Y-120838936D01*
X168529001Y-120818341D01*
X168528999Y-120818341D01*
X168293596Y-120838936D01*
X168293586Y-120838938D01*
X168065344Y-120900094D01*
X168065335Y-120900098D01*
X167851171Y-120999964D01*
X167851169Y-120999965D01*
X167657597Y-121135505D01*
X167490505Y-121302597D01*
X167360575Y-121488158D01*
X167305998Y-121531783D01*
X167236500Y-121538977D01*
X167174145Y-121507454D01*
X167157425Y-121488158D01*
X167027494Y-121302597D01*
X166860402Y-121135506D01*
X166860395Y-121135501D01*
X166666834Y-120999967D01*
X166666830Y-120999965D01*
X166666828Y-120999964D01*
X166452663Y-120900097D01*
X166452659Y-120900096D01*
X166452655Y-120900094D01*
X166224413Y-120838938D01*
X166224403Y-120838936D01*
X165989001Y-120818341D01*
X165988999Y-120818341D01*
X165753596Y-120838936D01*
X165753586Y-120838938D01*
X165525344Y-120900094D01*
X165525335Y-120900098D01*
X165311171Y-120999964D01*
X165311169Y-120999965D01*
X165117597Y-121135505D01*
X164950505Y-121302597D01*
X164820575Y-121488158D01*
X164765998Y-121531783D01*
X164696500Y-121538977D01*
X164634145Y-121507454D01*
X164617425Y-121488158D01*
X164487494Y-121302597D01*
X164320402Y-121135506D01*
X164320395Y-121135501D01*
X164126834Y-120999967D01*
X164126830Y-120999965D01*
X164126828Y-120999964D01*
X163912663Y-120900097D01*
X163912659Y-120900096D01*
X163912655Y-120900094D01*
X163684413Y-120838938D01*
X163684403Y-120838936D01*
X163449001Y-120818341D01*
X163448999Y-120818341D01*
X163213596Y-120838936D01*
X163213586Y-120838938D01*
X162985344Y-120900094D01*
X162985335Y-120900098D01*
X162771171Y-120999964D01*
X162771169Y-120999965D01*
X162577597Y-121135505D01*
X162410505Y-121302597D01*
X162280575Y-121488158D01*
X162225998Y-121531783D01*
X162156500Y-121538977D01*
X162094145Y-121507454D01*
X162077425Y-121488158D01*
X161947494Y-121302597D01*
X161780402Y-121135506D01*
X161780395Y-121135501D01*
X161586834Y-120999967D01*
X161586830Y-120999965D01*
X161586828Y-120999964D01*
X161372663Y-120900097D01*
X161372659Y-120900096D01*
X161372655Y-120900094D01*
X161144413Y-120838938D01*
X161144403Y-120838936D01*
X160909001Y-120818341D01*
X160908999Y-120818341D01*
X160673596Y-120838936D01*
X160673586Y-120838938D01*
X160445344Y-120900094D01*
X160445335Y-120900098D01*
X160231171Y-120999964D01*
X160231169Y-120999965D01*
X160037597Y-121135505D01*
X159870505Y-121302597D01*
X159734965Y-121496169D01*
X159734964Y-121496171D01*
X159635098Y-121710335D01*
X159635094Y-121710344D01*
X159573938Y-121938586D01*
X159573936Y-121938596D01*
X159553341Y-122173999D01*
X137509500Y-122173999D01*
X137527847Y-121823926D01*
X137507547Y-121436588D01*
X137446871Y-121053493D01*
X137372785Y-120777000D01*
X140337644Y-120777000D01*
X140357013Y-120961286D01*
X140357014Y-120961288D01*
X140414274Y-121137514D01*
X140475787Y-121244058D01*
X140506923Y-121297987D01*
X140511076Y-121302599D01*
X140630906Y-121435686D01*
X140630909Y-121435688D01*
X140630912Y-121435691D01*
X140759805Y-121529337D01*
X140780822Y-121544607D01*
X140950095Y-121619973D01*
X140950098Y-121619973D01*
X140950101Y-121619975D01*
X141131351Y-121658500D01*
X141316649Y-121658500D01*
X141497899Y-121619975D01*
X141497902Y-121619973D01*
X141497904Y-121619973D01*
X141554922Y-121594586D01*
X141667178Y-121544607D01*
X141817088Y-121435691D01*
X141941077Y-121297987D01*
X142033726Y-121137513D01*
X142090987Y-120961284D01*
X142110356Y-120777000D01*
X142090987Y-120592716D01*
X142033726Y-120416487D01*
X141941077Y-120256013D01*
X141892514Y-120202078D01*
X141817093Y-120118313D01*
X141817090Y-120118311D01*
X141817089Y-120118310D01*
X141817088Y-120118309D01*
X141667178Y-120009393D01*
X141667177Y-120009392D01*
X141497904Y-119934026D01*
X141497896Y-119934024D01*
X141316649Y-119895500D01*
X141131351Y-119895500D01*
X140950103Y-119934024D01*
X140950095Y-119934026D01*
X140780822Y-120009392D01*
X140630909Y-120118311D01*
X140630906Y-120118313D01*
X140506922Y-120256014D01*
X140414274Y-120416485D01*
X140357014Y-120592711D01*
X140357013Y-120592713D01*
X140337644Y-120777000D01*
X137372785Y-120777000D01*
X137346483Y-120678839D01*
X137207483Y-120316732D01*
X137031394Y-119971137D01*
X137031391Y-119971132D01*
X136820146Y-119645843D01*
X136576053Y-119344414D01*
X136576050Y-119344410D01*
X136301785Y-119070145D01*
X136213928Y-118999000D01*
X154561644Y-118999000D01*
X154581013Y-119183286D01*
X154581014Y-119183288D01*
X154638274Y-119359514D01*
X154660836Y-119398592D01*
X154730923Y-119519987D01*
X154774112Y-119567954D01*
X154854906Y-119657686D01*
X154854909Y-119657688D01*
X154854912Y-119657691D01*
X155004822Y-119766607D01*
X155174095Y-119841973D01*
X155174098Y-119841973D01*
X155174101Y-119841975D01*
X155355351Y-119880500D01*
X155540649Y-119880500D01*
X155721899Y-119841975D01*
X155721902Y-119841973D01*
X155721904Y-119841973D01*
X155778922Y-119816586D01*
X155891178Y-119766607D01*
X156041088Y-119657691D01*
X156062420Y-119634000D01*
X156062421Y-119633999D01*
X205400341Y-119633999D01*
X205400341Y-119634000D01*
X205420936Y-119869403D01*
X205420938Y-119869413D01*
X205482094Y-120097655D01*
X205482096Y-120097659D01*
X205482097Y-120097663D01*
X205562004Y-120269023D01*
X205581965Y-120311830D01*
X205581967Y-120311834D01*
X205690281Y-120466521D01*
X205717501Y-120505396D01*
X205717506Y-120505402D01*
X205839430Y-120627326D01*
X205872915Y-120688649D01*
X205867931Y-120758341D01*
X205826059Y-120814274D01*
X205795083Y-120831189D01*
X205663669Y-120880203D01*
X205663664Y-120880206D01*
X205548455Y-120966452D01*
X205548452Y-120966455D01*
X205462206Y-121081664D01*
X205462202Y-121081671D01*
X205411908Y-121216517D01*
X205405501Y-121276116D01*
X205405500Y-121276135D01*
X205405500Y-123071870D01*
X205405501Y-123071876D01*
X205411908Y-123131483D01*
X205462202Y-123266328D01*
X205462206Y-123266335D01*
X205548452Y-123381544D01*
X205548455Y-123381547D01*
X205663664Y-123467793D01*
X205663671Y-123467797D01*
X205798517Y-123518091D01*
X205798516Y-123518091D01*
X205805444Y-123518835D01*
X205858127Y-123524500D01*
X207653872Y-123524499D01*
X207713483Y-123518091D01*
X207848331Y-123467796D01*
X207963546Y-123381546D01*
X208049796Y-123266331D01*
X208098810Y-123134916D01*
X208140681Y-123078984D01*
X208206145Y-123054566D01*
X208274418Y-123069417D01*
X208302673Y-123090569D01*
X208424599Y-123212495D01*
X208521384Y-123280265D01*
X208618165Y-123348032D01*
X208618167Y-123348033D01*
X208618170Y-123348035D01*
X208832337Y-123447903D01*
X209060592Y-123509063D01*
X209237034Y-123524500D01*
X209295999Y-123529659D01*
X209296000Y-123529659D01*
X209296001Y-123529659D01*
X209354966Y-123524500D01*
X209531408Y-123509063D01*
X209759663Y-123447903D01*
X209973830Y-123348035D01*
X210167401Y-123212495D01*
X210334495Y-123045401D01*
X210464425Y-122859842D01*
X210519002Y-122816217D01*
X210588500Y-122809023D01*
X210650855Y-122840546D01*
X210667575Y-122859842D01*
X210797500Y-123045395D01*
X210797505Y-123045401D01*
X210964599Y-123212495D01*
X211061384Y-123280265D01*
X211158165Y-123348032D01*
X211158167Y-123348033D01*
X211158170Y-123348035D01*
X211372337Y-123447903D01*
X211600592Y-123509063D01*
X211777034Y-123524500D01*
X211835999Y-123529659D01*
X211836000Y-123529659D01*
X211836001Y-123529659D01*
X211894966Y-123524500D01*
X212071408Y-123509063D01*
X212299663Y-123447903D01*
X212513830Y-123348035D01*
X212707401Y-123212495D01*
X212874495Y-123045401D01*
X213010035Y-122851830D01*
X213109903Y-122637663D01*
X213171063Y-122409408D01*
X213191659Y-122174000D01*
X213171063Y-121938592D01*
X213132052Y-121793000D01*
X219814422Y-121793000D01*
X219834722Y-122180338D01*
X219895398Y-122563433D01*
X219961203Y-122809023D01*
X219995788Y-122938094D01*
X220134787Y-123300197D01*
X220310877Y-123645793D01*
X220522122Y-123971082D01*
X220609494Y-124078977D01*
X220766219Y-124272516D01*
X221040484Y-124546781D01*
X221078678Y-124577710D01*
X221341917Y-124790877D01*
X221667206Y-125002122D01*
X221667211Y-125002125D01*
X221985958Y-125164534D01*
X222011726Y-125177664D01*
X222012806Y-125178214D01*
X222374913Y-125317214D01*
X222749567Y-125417602D01*
X223132662Y-125478278D01*
X223498576Y-125497455D01*
X223519999Y-125498578D01*
X223520000Y-125498578D01*
X223520001Y-125498578D01*
X223540301Y-125497514D01*
X223907338Y-125478278D01*
X224290433Y-125417602D01*
X224665087Y-125317214D01*
X225027194Y-125178214D01*
X225372789Y-125002125D01*
X225698084Y-124790876D01*
X225999516Y-124546781D01*
X226273781Y-124272516D01*
X226517876Y-123971084D01*
X226729125Y-123645789D01*
X226905214Y-123300194D01*
X227044214Y-122938087D01*
X227144602Y-122563433D01*
X227205278Y-122180338D01*
X227225578Y-121793000D01*
X227205278Y-121405662D01*
X227144602Y-121022567D01*
X227044214Y-120647913D01*
X226905214Y-120285806D01*
X226729125Y-119940211D01*
X226729122Y-119940206D01*
X226517877Y-119614917D01*
X226311055Y-119359514D01*
X226273781Y-119313484D01*
X225999516Y-119039219D01*
X225949821Y-118998977D01*
X225698082Y-118795122D01*
X225372793Y-118583877D01*
X225027197Y-118407787D01*
X224665094Y-118268788D01*
X224665087Y-118268786D01*
X224290433Y-118168398D01*
X224290429Y-118168397D01*
X224290428Y-118168397D01*
X223907339Y-118107722D01*
X223520001Y-118087422D01*
X223519999Y-118087422D01*
X223132660Y-118107722D01*
X222749572Y-118168397D01*
X222749570Y-118168397D01*
X222374905Y-118268788D01*
X222012802Y-118407787D01*
X221667206Y-118583877D01*
X221341917Y-118795122D01*
X221040488Y-119039215D01*
X221040480Y-119039222D01*
X220766222Y-119313480D01*
X220766215Y-119313488D01*
X220522122Y-119614917D01*
X220310877Y-119940206D01*
X220134787Y-120285802D01*
X219995788Y-120647905D01*
X219895397Y-121022570D01*
X219895397Y-121022572D01*
X219834722Y-121405660D01*
X219826492Y-121562688D01*
X219814422Y-121793000D01*
X213132052Y-121793000D01*
X213119720Y-121746975D01*
X213109905Y-121710344D01*
X213109904Y-121710343D01*
X213109903Y-121710337D01*
X213010035Y-121496171D01*
X213004425Y-121488158D01*
X212874494Y-121302597D01*
X212707402Y-121135506D01*
X212707396Y-121135501D01*
X212521842Y-121005575D01*
X212478217Y-120950998D01*
X212471023Y-120881500D01*
X212502546Y-120819145D01*
X212521842Y-120802425D01*
X212544026Y-120786891D01*
X212707401Y-120672495D01*
X212874495Y-120505401D01*
X213010035Y-120311830D01*
X213109903Y-120097663D01*
X213171063Y-119869408D01*
X213191659Y-119634000D01*
X213171063Y-119398592D01*
X213109903Y-119170337D01*
X213010035Y-118956171D01*
X213007798Y-118952975D01*
X212874494Y-118762597D01*
X212707402Y-118595506D01*
X212707395Y-118595501D01*
X212690794Y-118583877D01*
X212668521Y-118568281D01*
X212513834Y-118459967D01*
X212513830Y-118459965D01*
X212401934Y-118407787D01*
X212299663Y-118360097D01*
X212299659Y-118360096D01*
X212299655Y-118360094D01*
X212071413Y-118298938D01*
X212071403Y-118298936D01*
X211836001Y-118278341D01*
X211835999Y-118278341D01*
X211600596Y-118298936D01*
X211600586Y-118298938D01*
X211372344Y-118360094D01*
X211372335Y-118360098D01*
X211158171Y-118459964D01*
X211158169Y-118459965D01*
X210964597Y-118595505D01*
X210797505Y-118762597D01*
X210667575Y-118948158D01*
X210612998Y-118991783D01*
X210543500Y-118998977D01*
X210481145Y-118967454D01*
X210464425Y-118948158D01*
X210334494Y-118762597D01*
X210167402Y-118595506D01*
X210167395Y-118595501D01*
X210150794Y-118583877D01*
X210128521Y-118568281D01*
X209973834Y-118459967D01*
X209973830Y-118459965D01*
X209861934Y-118407787D01*
X209759663Y-118360097D01*
X209759659Y-118360096D01*
X209759655Y-118360094D01*
X209531413Y-118298938D01*
X209531403Y-118298936D01*
X209296001Y-118278341D01*
X209295999Y-118278341D01*
X209060596Y-118298936D01*
X209060586Y-118298938D01*
X208832344Y-118360094D01*
X208832335Y-118360098D01*
X208618171Y-118459964D01*
X208618169Y-118459965D01*
X208424597Y-118595505D01*
X208257505Y-118762597D01*
X208127575Y-118948158D01*
X208072998Y-118991783D01*
X208003500Y-118998977D01*
X207941145Y-118967454D01*
X207924425Y-118948158D01*
X207794494Y-118762597D01*
X207627402Y-118595506D01*
X207627395Y-118595501D01*
X207610794Y-118583877D01*
X207588521Y-118568281D01*
X207433834Y-118459967D01*
X207433830Y-118459965D01*
X207321934Y-118407787D01*
X207219663Y-118360097D01*
X207219659Y-118360096D01*
X207219655Y-118360094D01*
X206991413Y-118298938D01*
X206991403Y-118298936D01*
X206756001Y-118278341D01*
X206755999Y-118278341D01*
X206520596Y-118298936D01*
X206520586Y-118298938D01*
X206292344Y-118360094D01*
X206292335Y-118360098D01*
X206078171Y-118459964D01*
X206078169Y-118459965D01*
X205884597Y-118595505D01*
X205717505Y-118762597D01*
X205581965Y-118956169D01*
X205581964Y-118956171D01*
X205482098Y-119170335D01*
X205482094Y-119170344D01*
X205420938Y-119398586D01*
X205420936Y-119398596D01*
X205400341Y-119633999D01*
X156062421Y-119633999D01*
X156079602Y-119614917D01*
X156165077Y-119519987D01*
X156257726Y-119359513D01*
X156314987Y-119183284D01*
X156334356Y-118999000D01*
X156314987Y-118814716D01*
X156257726Y-118638487D01*
X156165077Y-118478013D01*
X156116514Y-118424078D01*
X156041093Y-118340313D01*
X156041090Y-118340311D01*
X156041089Y-118340310D01*
X156041088Y-118340309D01*
X155891178Y-118231393D01*
X155891177Y-118231392D01*
X155721904Y-118156026D01*
X155721896Y-118156024D01*
X155540649Y-118117500D01*
X155355351Y-118117500D01*
X155174103Y-118156024D01*
X155174095Y-118156026D01*
X155004822Y-118231392D01*
X154854909Y-118340311D01*
X154854906Y-118340313D01*
X154730922Y-118478014D01*
X154638274Y-118638485D01*
X154581014Y-118814711D01*
X154581013Y-118814713D01*
X154561644Y-118999000D01*
X136213928Y-118999000D01*
X136161039Y-118956171D01*
X136000351Y-118826048D01*
X135675062Y-118614803D01*
X135329466Y-118438713D01*
X134967363Y-118299714D01*
X134964467Y-118298938D01*
X134592702Y-118199324D01*
X134592698Y-118199323D01*
X134592697Y-118199323D01*
X134209608Y-118138648D01*
X133822270Y-118118348D01*
X133822268Y-118118348D01*
X133434929Y-118138648D01*
X133051841Y-118199323D01*
X133051839Y-118199323D01*
X132677174Y-118299714D01*
X132315071Y-118438713D01*
X131969475Y-118614803D01*
X131644186Y-118826048D01*
X131342757Y-119070141D01*
X131342749Y-119070148D01*
X131068491Y-119344406D01*
X131068484Y-119344414D01*
X130824391Y-119645843D01*
X130613146Y-119971132D01*
X130437056Y-120316728D01*
X130298057Y-120678831D01*
X130197666Y-121053496D01*
X130197666Y-121053498D01*
X130136991Y-121436586D01*
X130116691Y-121823925D01*
X129079850Y-121823925D01*
X129078618Y-121795701D01*
X129078500Y-121790293D01*
X129078500Y-118110000D01*
X136527644Y-118110000D01*
X136547013Y-118294286D01*
X136547014Y-118294288D01*
X136604274Y-118470514D01*
X136669723Y-118583875D01*
X136696923Y-118630987D01*
X136740112Y-118678954D01*
X136820906Y-118768686D01*
X136820909Y-118768688D01*
X136820912Y-118768691D01*
X136899860Y-118826050D01*
X136970822Y-118877607D01*
X137140095Y-118952973D01*
X137140098Y-118952973D01*
X137140101Y-118952975D01*
X137321351Y-118991500D01*
X137506649Y-118991500D01*
X137687899Y-118952975D01*
X137687902Y-118952973D01*
X137687904Y-118952973D01*
X137744922Y-118927586D01*
X137857178Y-118877607D01*
X138007088Y-118768691D01*
X138012574Y-118762599D01*
X138033951Y-118738855D01*
X138131077Y-118630987D01*
X138223726Y-118470513D01*
X138280987Y-118294284D01*
X138300356Y-118110000D01*
X138280987Y-117925716D01*
X138223726Y-117749487D01*
X138131077Y-117589013D01*
X138082514Y-117535078D01*
X138007093Y-117451313D01*
X138007090Y-117451311D01*
X138007089Y-117451310D01*
X138007088Y-117451309D01*
X137857178Y-117342393D01*
X137857177Y-117342392D01*
X137687904Y-117267026D01*
X137687896Y-117267024D01*
X137506649Y-117228500D01*
X137321351Y-117228500D01*
X137140103Y-117267024D01*
X137140095Y-117267026D01*
X136970822Y-117342392D01*
X136820909Y-117451311D01*
X136820906Y-117451313D01*
X136696922Y-117589014D01*
X136604274Y-117749485D01*
X136547014Y-117925711D01*
X136547013Y-117925713D01*
X136527644Y-118110000D01*
X129078500Y-118110000D01*
X129078500Y-112239623D01*
X183997267Y-112239623D01*
X184016636Y-112423909D01*
X184016637Y-112423911D01*
X184073897Y-112600137D01*
X184146966Y-112726697D01*
X184166546Y-112760610D01*
X184209735Y-112808577D01*
X184290529Y-112898309D01*
X184290532Y-112898311D01*
X184290535Y-112898314D01*
X184440445Y-113007230D01*
X184609718Y-113082596D01*
X184609721Y-113082596D01*
X184609724Y-113082598D01*
X184790974Y-113121123D01*
X184976272Y-113121123D01*
X185157522Y-113082598D01*
X185157525Y-113082596D01*
X185157527Y-113082596D01*
X185214545Y-113057209D01*
X185326801Y-113007230D01*
X185476711Y-112898314D01*
X185600700Y-112760610D01*
X185693349Y-112600136D01*
X185750610Y-112423907D01*
X185769979Y-112239623D01*
X185750610Y-112055339D01*
X185695913Y-111887000D01*
X224919644Y-111887000D01*
X224939013Y-112071286D01*
X224939014Y-112071288D01*
X224996274Y-112247514D01*
X225069343Y-112374074D01*
X225088923Y-112407987D01*
X225132112Y-112455954D01*
X225212906Y-112545686D01*
X225212909Y-112545688D01*
X225212912Y-112545691D01*
X225362822Y-112654607D01*
X225532095Y-112729973D01*
X225532098Y-112729973D01*
X225532101Y-112729975D01*
X225713351Y-112768500D01*
X225898649Y-112768500D01*
X226079899Y-112729975D01*
X226079902Y-112729973D01*
X226079904Y-112729973D01*
X226136922Y-112704586D01*
X226249178Y-112654607D01*
X226399088Y-112545691D01*
X226523077Y-112407987D01*
X226615726Y-112247513D01*
X226672987Y-112071284D01*
X226692356Y-111887000D01*
X226672987Y-111702716D01*
X226615726Y-111526487D01*
X226523077Y-111366013D01*
X226474514Y-111312078D01*
X226399093Y-111228313D01*
X226399090Y-111228311D01*
X226399089Y-111228310D01*
X226399088Y-111228309D01*
X226249178Y-111119393D01*
X226249177Y-111119392D01*
X226079904Y-111044026D01*
X226079896Y-111044024D01*
X225898649Y-111005500D01*
X225713351Y-111005500D01*
X225532103Y-111044024D01*
X225532095Y-111044026D01*
X225362822Y-111119392D01*
X225212909Y-111228311D01*
X225212906Y-111228313D01*
X225088922Y-111366014D01*
X224996274Y-111526485D01*
X224939014Y-111702711D01*
X224939013Y-111702713D01*
X224919644Y-111887000D01*
X185695913Y-111887000D01*
X185693349Y-111879110D01*
X185600700Y-111718636D01*
X185552137Y-111664701D01*
X185476716Y-111580936D01*
X185476713Y-111580934D01*
X185476712Y-111580933D01*
X185476711Y-111580932D01*
X185326801Y-111472016D01*
X185326800Y-111472015D01*
X185157527Y-111396649D01*
X185157519Y-111396647D01*
X184976272Y-111358123D01*
X184790974Y-111358123D01*
X184609726Y-111396647D01*
X184609718Y-111396649D01*
X184440445Y-111472015D01*
X184290532Y-111580934D01*
X184290529Y-111580936D01*
X184166545Y-111718637D01*
X184073897Y-111879108D01*
X184016637Y-112055334D01*
X184016636Y-112055336D01*
X183997267Y-112239623D01*
X129078500Y-112239623D01*
X129078500Y-109601000D01*
X155704644Y-109601000D01*
X155724013Y-109785286D01*
X155724014Y-109785288D01*
X155781274Y-109961514D01*
X155798415Y-109991203D01*
X155873923Y-110121987D01*
X155909107Y-110161063D01*
X155997906Y-110259686D01*
X155997909Y-110259688D01*
X155997912Y-110259691D01*
X156115814Y-110345352D01*
X156147822Y-110368607D01*
X156317095Y-110443973D01*
X156317098Y-110443973D01*
X156317101Y-110443975D01*
X156498351Y-110482500D01*
X156683649Y-110482500D01*
X156864899Y-110443975D01*
X156864902Y-110443973D01*
X156864904Y-110443973D01*
X156921922Y-110418586D01*
X157034178Y-110368607D01*
X157184088Y-110259691D01*
X157308077Y-110121987D01*
X157400726Y-109961513D01*
X157457987Y-109785284D01*
X157477356Y-109601000D01*
X157457987Y-109416716D01*
X157400726Y-109240487D01*
X157315575Y-109093000D01*
X168912644Y-109093000D01*
X168932013Y-109277286D01*
X168932014Y-109277288D01*
X168989274Y-109453514D01*
X169047853Y-109554975D01*
X169081923Y-109613987D01*
X169125112Y-109661954D01*
X169205906Y-109751686D01*
X169205909Y-109751688D01*
X169205912Y-109751691D01*
X169355816Y-109860603D01*
X169355822Y-109860607D01*
X169525095Y-109935973D01*
X169525098Y-109935973D01*
X169525101Y-109935975D01*
X169706351Y-109974500D01*
X169891649Y-109974500D01*
X170072899Y-109935975D01*
X170072902Y-109935973D01*
X170072904Y-109935973D01*
X170095807Y-109925775D01*
X170242178Y-109860607D01*
X170282498Y-109831313D01*
X170285837Y-109828887D01*
X170351643Y-109805406D01*
X170419697Y-109821231D01*
X170468392Y-109871336D01*
X170482268Y-109939814D01*
X170466110Y-109991203D01*
X170386275Y-110129482D01*
X170386274Y-110129484D01*
X170329014Y-110305711D01*
X170329013Y-110305713D01*
X170309644Y-110490000D01*
X170329013Y-110674286D01*
X170329014Y-110674288D01*
X170386274Y-110850514D01*
X170459343Y-110977074D01*
X170478923Y-111010987D01*
X170522112Y-111058954D01*
X170602906Y-111148686D01*
X170602909Y-111148688D01*
X170602912Y-111148691D01*
X170752822Y-111257607D01*
X170922095Y-111332973D01*
X170922098Y-111332973D01*
X170922101Y-111332975D01*
X171103351Y-111371500D01*
X171288649Y-111371500D01*
X171469899Y-111332975D01*
X171469902Y-111332973D01*
X171469904Y-111332973D01*
X171526922Y-111307586D01*
X171639178Y-111257607D01*
X171789088Y-111148691D01*
X171913077Y-111010987D01*
X172005726Y-110850513D01*
X172062987Y-110674284D01*
X172082356Y-110490000D01*
X172062987Y-110305716D01*
X172005726Y-110129487D01*
X171913077Y-109969013D01*
X171864514Y-109915078D01*
X171789093Y-109831313D01*
X171789090Y-109831311D01*
X171789089Y-109831310D01*
X171789088Y-109831309D01*
X171639178Y-109722393D01*
X171639177Y-109722392D01*
X171469904Y-109647026D01*
X171469896Y-109647024D01*
X171288649Y-109608500D01*
X171103351Y-109608500D01*
X170922103Y-109647024D01*
X170922095Y-109647026D01*
X170752822Y-109722393D01*
X170752818Y-109722395D01*
X170709160Y-109754114D01*
X170643353Y-109777593D01*
X170575300Y-109761767D01*
X170526606Y-109711660D01*
X170512731Y-109643182D01*
X170528889Y-109591795D01*
X170563823Y-109531288D01*
X170608726Y-109453513D01*
X170643335Y-109347000D01*
X173357644Y-109347000D01*
X173377013Y-109531286D01*
X173377014Y-109531288D01*
X173434274Y-109707514D01*
X173442866Y-109722395D01*
X173526923Y-109867987D01*
X173570112Y-109915954D01*
X173650906Y-110005686D01*
X173650909Y-110005688D01*
X173650912Y-110005691D01*
X173800822Y-110114607D01*
X173970095Y-110189973D01*
X173970098Y-110189973D01*
X173970101Y-110189975D01*
X174151351Y-110228500D01*
X174336649Y-110228500D01*
X174517899Y-110189975D01*
X174517902Y-110189973D01*
X174517904Y-110189973D01*
X174582836Y-110161063D01*
X174687178Y-110114607D01*
X174837088Y-110005691D01*
X174961077Y-109867987D01*
X175053726Y-109707513D01*
X175110987Y-109531284D01*
X175114025Y-109502377D01*
X186848021Y-109502377D01*
X186867390Y-109686663D01*
X186867391Y-109686665D01*
X186924651Y-109862891D01*
X186981591Y-109961514D01*
X187017300Y-110023364D01*
X187060489Y-110071331D01*
X187141283Y-110161063D01*
X187141286Y-110161065D01*
X187141289Y-110161068D01*
X187277025Y-110259686D01*
X187291199Y-110269984D01*
X187460472Y-110345350D01*
X187460475Y-110345350D01*
X187460478Y-110345352D01*
X187641728Y-110383877D01*
X187827026Y-110383877D01*
X188008276Y-110345352D01*
X188008279Y-110345350D01*
X188008281Y-110345350D01*
X188065299Y-110319963D01*
X188177555Y-110269984D01*
X188327465Y-110161068D01*
X188451454Y-110023364D01*
X188544103Y-109862890D01*
X188601364Y-109686661D01*
X188620733Y-109502377D01*
X188601364Y-109318093D01*
X188544103Y-109141864D01*
X188451454Y-108981390D01*
X188386018Y-108908716D01*
X188327470Y-108843690D01*
X188327467Y-108843688D01*
X188327466Y-108843687D01*
X188327465Y-108843686D01*
X188209563Y-108758025D01*
X188177554Y-108734769D01*
X188008281Y-108659403D01*
X188008273Y-108659401D01*
X187827026Y-108620877D01*
X187641728Y-108620877D01*
X187460480Y-108659401D01*
X187460472Y-108659403D01*
X187291199Y-108734769D01*
X187141286Y-108843688D01*
X187141283Y-108843690D01*
X187017299Y-108981391D01*
X186924651Y-109141862D01*
X186867391Y-109318088D01*
X186867390Y-109318090D01*
X186848021Y-109502377D01*
X175114025Y-109502377D01*
X175130356Y-109347000D01*
X175110987Y-109162716D01*
X175053726Y-108986487D01*
X174961077Y-108826013D01*
X174912514Y-108772078D01*
X174837093Y-108688313D01*
X174837090Y-108688311D01*
X174837089Y-108688310D01*
X174837088Y-108688309D01*
X174687178Y-108579393D01*
X174687177Y-108579392D01*
X174517904Y-108504026D01*
X174517896Y-108504024D01*
X174336649Y-108465500D01*
X174151351Y-108465500D01*
X173970103Y-108504024D01*
X173970095Y-108504026D01*
X173800822Y-108579392D01*
X173650909Y-108688311D01*
X173650906Y-108688313D01*
X173526922Y-108826014D01*
X173434274Y-108986485D01*
X173377014Y-109162711D01*
X173377013Y-109162713D01*
X173357644Y-109347000D01*
X170643335Y-109347000D01*
X170665987Y-109277284D01*
X170685356Y-109093000D01*
X170665987Y-108908716D01*
X170608726Y-108732487D01*
X170516077Y-108572013D01*
X170467514Y-108518078D01*
X170392093Y-108434313D01*
X170392090Y-108434311D01*
X170392089Y-108434310D01*
X170392088Y-108434309D01*
X170242178Y-108325393D01*
X170242177Y-108325392D01*
X170072904Y-108250026D01*
X170072896Y-108250024D01*
X169891649Y-108211500D01*
X169706351Y-108211500D01*
X169525103Y-108250024D01*
X169525095Y-108250026D01*
X169355822Y-108325392D01*
X169205909Y-108434311D01*
X169205906Y-108434313D01*
X169081922Y-108572014D01*
X168989274Y-108732485D01*
X168932014Y-108908711D01*
X168932013Y-108908713D01*
X168912644Y-109093000D01*
X157315575Y-109093000D01*
X157308077Y-109080013D01*
X157259514Y-109026078D01*
X157184093Y-108942313D01*
X157184090Y-108942311D01*
X157184089Y-108942310D01*
X157184088Y-108942309D01*
X157034178Y-108833393D01*
X157034177Y-108833392D01*
X156864904Y-108758026D01*
X156864896Y-108758024D01*
X156683649Y-108719500D01*
X156498351Y-108719500D01*
X156317103Y-108758024D01*
X156317095Y-108758026D01*
X156147822Y-108833392D01*
X155997909Y-108942311D01*
X155997906Y-108942313D01*
X155873922Y-109080014D01*
X155781274Y-109240485D01*
X155724014Y-109416711D01*
X155724013Y-109416713D01*
X155704644Y-109601000D01*
X129078500Y-109601000D01*
X129078500Y-108712000D01*
X136146644Y-108712000D01*
X136166013Y-108896286D01*
X136166014Y-108896288D01*
X136223274Y-109072514D01*
X136275352Y-109162716D01*
X136315923Y-109232987D01*
X136355808Y-109277284D01*
X136439906Y-109370686D01*
X136439909Y-109370688D01*
X136439912Y-109370691D01*
X136553907Y-109453513D01*
X136589822Y-109479607D01*
X136759095Y-109554973D01*
X136759098Y-109554973D01*
X136759101Y-109554975D01*
X136940351Y-109593500D01*
X137125649Y-109593500D01*
X137306899Y-109554975D01*
X137306902Y-109554973D01*
X137306904Y-109554973D01*
X137363922Y-109529586D01*
X137476178Y-109479607D01*
X137626088Y-109370691D01*
X137647420Y-109347000D01*
X137673450Y-109318090D01*
X137750077Y-109232987D01*
X137842726Y-109072513D01*
X137899987Y-108896284D01*
X137919356Y-108712000D01*
X137899987Y-108527716D01*
X137842726Y-108351487D01*
X137750077Y-108191013D01*
X137701514Y-108137078D01*
X137626093Y-108053313D01*
X137626090Y-108053311D01*
X137626089Y-108053310D01*
X137626088Y-108053309D01*
X137476178Y-107944393D01*
X137476177Y-107944392D01*
X137306904Y-107869026D01*
X137306896Y-107869024D01*
X137125649Y-107830500D01*
X136940351Y-107830500D01*
X136759103Y-107869024D01*
X136759095Y-107869026D01*
X136589822Y-107944392D01*
X136439909Y-108053311D01*
X136439906Y-108053313D01*
X136315922Y-108191014D01*
X136223274Y-108351485D01*
X136166014Y-108527711D01*
X136166013Y-108527713D01*
X136146644Y-108712000D01*
X129078500Y-108712000D01*
X129078500Y-106426000D01*
X136019644Y-106426000D01*
X136039013Y-106610286D01*
X136039014Y-106610288D01*
X136096274Y-106786514D01*
X136169343Y-106913074D01*
X136188923Y-106946987D01*
X136232112Y-106994954D01*
X136312906Y-107084686D01*
X136312909Y-107084688D01*
X136312912Y-107084691D01*
X136458113Y-107190186D01*
X136462822Y-107193607D01*
X136632095Y-107268973D01*
X136632098Y-107268973D01*
X136632101Y-107268975D01*
X136813351Y-107307500D01*
X136998649Y-107307500D01*
X137179899Y-107268975D01*
X137179902Y-107268973D01*
X137179904Y-107268973D01*
X137236922Y-107243586D01*
X137349178Y-107193607D01*
X137499088Y-107084691D01*
X137520420Y-107061000D01*
X137528086Y-107052485D01*
X137623077Y-106946987D01*
X137715726Y-106786513D01*
X137772987Y-106610284D01*
X137781268Y-106531500D01*
X157101644Y-106531500D01*
X157121013Y-106715786D01*
X157121014Y-106715788D01*
X157178274Y-106892014D01*
X157210012Y-106946985D01*
X157270923Y-107052487D01*
X157299915Y-107084686D01*
X157394906Y-107190186D01*
X157394909Y-107190188D01*
X157394912Y-107190191D01*
X157470744Y-107245286D01*
X157544822Y-107299107D01*
X157714095Y-107374473D01*
X157714098Y-107374473D01*
X157714101Y-107374475D01*
X157895351Y-107413000D01*
X158080649Y-107413000D01*
X158261899Y-107374475D01*
X158261902Y-107374473D01*
X158261904Y-107374473D01*
X158318922Y-107349086D01*
X158431178Y-107299107D01*
X158581088Y-107190191D01*
X158705077Y-107052487D01*
X158797726Y-106892013D01*
X158854987Y-106715784D01*
X158874356Y-106531500D01*
X158854987Y-106347216D01*
X158797726Y-106170987D01*
X158705077Y-106010513D01*
X158656514Y-105956578D01*
X158581093Y-105872813D01*
X158581090Y-105872811D01*
X158581089Y-105872810D01*
X158581088Y-105872809D01*
X158481148Y-105800198D01*
X158431177Y-105763892D01*
X158261904Y-105688526D01*
X158261896Y-105688524D01*
X158080649Y-105650000D01*
X157895351Y-105650000D01*
X157714103Y-105688524D01*
X157714095Y-105688526D01*
X157544822Y-105763892D01*
X157394909Y-105872811D01*
X157394906Y-105872813D01*
X157270922Y-106010514D01*
X157178274Y-106170985D01*
X157121014Y-106347211D01*
X157121013Y-106347213D01*
X157101644Y-106531500D01*
X137781268Y-106531500D01*
X137792356Y-106426000D01*
X137772987Y-106241716D01*
X137715726Y-106065487D01*
X137623077Y-105905013D01*
X137574514Y-105851078D01*
X137499093Y-105767313D01*
X137499090Y-105767311D01*
X137499089Y-105767310D01*
X137499088Y-105767309D01*
X137349178Y-105658393D01*
X137349177Y-105658392D01*
X137179904Y-105583026D01*
X137179896Y-105583024D01*
X136998649Y-105544500D01*
X136813351Y-105544500D01*
X136632103Y-105583024D01*
X136632095Y-105583026D01*
X136462822Y-105658392D01*
X136312909Y-105767311D01*
X136312906Y-105767313D01*
X136188922Y-105905014D01*
X136096274Y-106065485D01*
X136039014Y-106241711D01*
X136039013Y-106241713D01*
X136019644Y-106426000D01*
X129078500Y-106426000D01*
X129078500Y-87898999D01*
X129581341Y-87898999D01*
X129581341Y-87899000D01*
X129601936Y-88134403D01*
X129601938Y-88134413D01*
X129663094Y-88362655D01*
X129663096Y-88362659D01*
X129663097Y-88362663D01*
X129729943Y-88506014D01*
X129762965Y-88576830D01*
X129762967Y-88576834D01*
X129898501Y-88770395D01*
X129898506Y-88770402D01*
X130065597Y-88937493D01*
X130065603Y-88937498D01*
X130251158Y-89067425D01*
X130294783Y-89122002D01*
X130301977Y-89191500D01*
X130270454Y-89253855D01*
X130251158Y-89270575D01*
X130065597Y-89400505D01*
X129898505Y-89567597D01*
X129762965Y-89761169D01*
X129762964Y-89761171D01*
X129663098Y-89975335D01*
X129663094Y-89975344D01*
X129601938Y-90203586D01*
X129601936Y-90203596D01*
X129581341Y-90438999D01*
X129581341Y-90439000D01*
X129601936Y-90674403D01*
X129601938Y-90674413D01*
X129663094Y-90902655D01*
X129663096Y-90902659D01*
X129663097Y-90902663D01*
X129762965Y-91116830D01*
X129762967Y-91116834D01*
X129898501Y-91310395D01*
X129898506Y-91310402D01*
X130065597Y-91477493D01*
X130065603Y-91477498D01*
X130251158Y-91607425D01*
X130294783Y-91662002D01*
X130301977Y-91731500D01*
X130270454Y-91793855D01*
X130251158Y-91810575D01*
X130065597Y-91940505D01*
X129898505Y-92107597D01*
X129762965Y-92301169D01*
X129762964Y-92301171D01*
X129663098Y-92515335D01*
X129663094Y-92515344D01*
X129601938Y-92743586D01*
X129601936Y-92743596D01*
X129581341Y-92978999D01*
X129581341Y-92979000D01*
X129601936Y-93214403D01*
X129601938Y-93214413D01*
X129663094Y-93442655D01*
X129663096Y-93442659D01*
X129663097Y-93442663D01*
X129732501Y-93591499D01*
X129762965Y-93656830D01*
X129762967Y-93656834D01*
X129898501Y-93850395D01*
X129898506Y-93850402D01*
X130065597Y-94017493D01*
X130065603Y-94017498D01*
X130251158Y-94147425D01*
X130294783Y-94202002D01*
X130301977Y-94271500D01*
X130270454Y-94333855D01*
X130251158Y-94350575D01*
X130065597Y-94480505D01*
X129898505Y-94647597D01*
X129762965Y-94841169D01*
X129762964Y-94841171D01*
X129663098Y-95055335D01*
X129663094Y-95055344D01*
X129601938Y-95283586D01*
X129601936Y-95283596D01*
X129581341Y-95518999D01*
X129581341Y-95519000D01*
X129601936Y-95754403D01*
X129601938Y-95754413D01*
X129663094Y-95982655D01*
X129663096Y-95982659D01*
X129663097Y-95982663D01*
X129735998Y-96139000D01*
X129762965Y-96196830D01*
X129762967Y-96196834D01*
X129898501Y-96390395D01*
X129898506Y-96390402D01*
X130065597Y-96557493D01*
X130065603Y-96557498D01*
X130251158Y-96687425D01*
X130294783Y-96742002D01*
X130301977Y-96811500D01*
X130270454Y-96873855D01*
X130251158Y-96890575D01*
X130065597Y-97020505D01*
X129898505Y-97187597D01*
X129762965Y-97381169D01*
X129762964Y-97381171D01*
X129663098Y-97595335D01*
X129663094Y-97595344D01*
X129601938Y-97823586D01*
X129601936Y-97823596D01*
X129581341Y-98058999D01*
X129581341Y-98059000D01*
X129601936Y-98294403D01*
X129601938Y-98294413D01*
X129663094Y-98522655D01*
X129663096Y-98522659D01*
X129663097Y-98522663D01*
X129694353Y-98589691D01*
X129762965Y-98736830D01*
X129762967Y-98736834D01*
X129898501Y-98930395D01*
X129898506Y-98930402D01*
X130065597Y-99097493D01*
X130065603Y-99097498D01*
X130251158Y-99227425D01*
X130294783Y-99282002D01*
X130301977Y-99351500D01*
X130270454Y-99413855D01*
X130251158Y-99430575D01*
X130065597Y-99560505D01*
X129898505Y-99727597D01*
X129762965Y-99921169D01*
X129762964Y-99921171D01*
X129663098Y-100135335D01*
X129663094Y-100135344D01*
X129601938Y-100363586D01*
X129601936Y-100363596D01*
X129581341Y-100598999D01*
X129581341Y-100599000D01*
X129601936Y-100834403D01*
X129601938Y-100834413D01*
X129663094Y-101062655D01*
X129663096Y-101062659D01*
X129663097Y-101062663D01*
X129735998Y-101219000D01*
X129762965Y-101276830D01*
X129762967Y-101276834D01*
X129898501Y-101470395D01*
X129898506Y-101470402D01*
X130065597Y-101637493D01*
X130065603Y-101637498D01*
X130251158Y-101767425D01*
X130294783Y-101822002D01*
X130301977Y-101891500D01*
X130270454Y-101953855D01*
X130251158Y-101970575D01*
X130065597Y-102100505D01*
X129898505Y-102267597D01*
X129762965Y-102461169D01*
X129762964Y-102461171D01*
X129663098Y-102675335D01*
X129663094Y-102675344D01*
X129601938Y-102903586D01*
X129601936Y-102903596D01*
X129581341Y-103138999D01*
X129581341Y-103139000D01*
X129601936Y-103374403D01*
X129601938Y-103374413D01*
X129663094Y-103602655D01*
X129663096Y-103602659D01*
X129663097Y-103602663D01*
X129729943Y-103746014D01*
X129762965Y-103816830D01*
X129762967Y-103816834D01*
X129850269Y-103941513D01*
X129898505Y-104010401D01*
X130065599Y-104177495D01*
X130154417Y-104239686D01*
X130259165Y-104313032D01*
X130259167Y-104313033D01*
X130259170Y-104313035D01*
X130473337Y-104412903D01*
X130701592Y-104474063D01*
X130889918Y-104490539D01*
X130936999Y-104494659D01*
X130937000Y-104494659D01*
X130937001Y-104494659D01*
X130976234Y-104491226D01*
X131172408Y-104474063D01*
X131400663Y-104412903D01*
X131441200Y-104394000D01*
X136146644Y-104394000D01*
X136166013Y-104578286D01*
X136166014Y-104578288D01*
X136223274Y-104754514D01*
X136265163Y-104827068D01*
X136315923Y-104914987D01*
X136334829Y-104935984D01*
X136439906Y-105052686D01*
X136439909Y-105052688D01*
X136439912Y-105052691D01*
X136571782Y-105148500D01*
X136589822Y-105161607D01*
X136759095Y-105236973D01*
X136759098Y-105236973D01*
X136759101Y-105236975D01*
X136940351Y-105275500D01*
X137125649Y-105275500D01*
X137306899Y-105236975D01*
X137306902Y-105236973D01*
X137306904Y-105236973D01*
X137363922Y-105211586D01*
X137476178Y-105161607D01*
X137626088Y-105052691D01*
X137750077Y-104914987D01*
X137842726Y-104754513D01*
X137899987Y-104578284D01*
X137919356Y-104394000D01*
X137906008Y-104267000D01*
X154688644Y-104267000D01*
X154708013Y-104451286D01*
X154708014Y-104451288D01*
X154765274Y-104627514D01*
X154800982Y-104689362D01*
X154857923Y-104787987D01*
X154893107Y-104827063D01*
X154981906Y-104925686D01*
X154981909Y-104925688D01*
X154981912Y-104925691D01*
X155099814Y-105011352D01*
X155131822Y-105034607D01*
X155301095Y-105109973D01*
X155301098Y-105109973D01*
X155301101Y-105109975D01*
X155482351Y-105148500D01*
X155667649Y-105148500D01*
X155848899Y-105109975D01*
X155848902Y-105109973D01*
X155848904Y-105109973D01*
X155905922Y-105084586D01*
X156018178Y-105034607D01*
X156168088Y-104925691D01*
X156292077Y-104787987D01*
X156384726Y-104627513D01*
X156441987Y-104451284D01*
X156461356Y-104267000D01*
X156441987Y-104082716D01*
X156384726Y-103906487D01*
X156292077Y-103746013D01*
X156240998Y-103689284D01*
X156189420Y-103632000D01*
X181231644Y-103632000D01*
X181251013Y-103816286D01*
X181251014Y-103816288D01*
X181308274Y-103992514D01*
X181360352Y-104082716D01*
X181400923Y-104152987D01*
X181422990Y-104177495D01*
X181524906Y-104290686D01*
X181524909Y-104290688D01*
X181524912Y-104290691D01*
X181656782Y-104386500D01*
X181674822Y-104399607D01*
X181844095Y-104474973D01*
X181844098Y-104474973D01*
X181844101Y-104474975D01*
X182025351Y-104513500D01*
X182210649Y-104513500D01*
X182391899Y-104474975D01*
X182391902Y-104474973D01*
X182391904Y-104474973D01*
X182448922Y-104449586D01*
X182561178Y-104399607D01*
X182711088Y-104290691D01*
X182732420Y-104267000D01*
X182737951Y-104260855D01*
X182821220Y-104168377D01*
X191801021Y-104168377D01*
X191820390Y-104352663D01*
X191820391Y-104352665D01*
X191877651Y-104528891D01*
X191934591Y-104627514D01*
X191970300Y-104689364D01*
X192013489Y-104737331D01*
X192094283Y-104827063D01*
X192094286Y-104827065D01*
X192094289Y-104827068D01*
X192215299Y-104914987D01*
X192244199Y-104935984D01*
X192413472Y-105011350D01*
X192413475Y-105011350D01*
X192413478Y-105011352D01*
X192594728Y-105049877D01*
X192780026Y-105049877D01*
X192961276Y-105011352D01*
X192961279Y-105011350D01*
X192961281Y-105011350D01*
X193018299Y-104985963D01*
X193130555Y-104935984D01*
X193280465Y-104827068D01*
X193404454Y-104689364D01*
X193497103Y-104528890D01*
X193554364Y-104352661D01*
X193573733Y-104168377D01*
X193554364Y-103984093D01*
X193497103Y-103807864D01*
X193482569Y-103782691D01*
X193461394Y-103746014D01*
X193404454Y-103647390D01*
X193317687Y-103551025D01*
X193280470Y-103509690D01*
X193280467Y-103509688D01*
X193280466Y-103509687D01*
X193280465Y-103509686D01*
X193162563Y-103424025D01*
X193130554Y-103400769D01*
X192961281Y-103325403D01*
X192961273Y-103325401D01*
X192780026Y-103286877D01*
X192594728Y-103286877D01*
X192413480Y-103325401D01*
X192413472Y-103325403D01*
X192244199Y-103400769D01*
X192094286Y-103509688D01*
X192094283Y-103509690D01*
X191970299Y-103647391D01*
X191877651Y-103807862D01*
X191820391Y-103984088D01*
X191820390Y-103984090D01*
X191801021Y-104168377D01*
X182821220Y-104168377D01*
X182835077Y-104152987D01*
X182927726Y-103992513D01*
X182984987Y-103816284D01*
X183004356Y-103632000D01*
X182984987Y-103447716D01*
X182927726Y-103271487D01*
X182835077Y-103111013D01*
X182783741Y-103053998D01*
X182711093Y-102973313D01*
X182711090Y-102973311D01*
X182711089Y-102973310D01*
X182711088Y-102973309D01*
X182561178Y-102864393D01*
X182561177Y-102864392D01*
X182391904Y-102789026D01*
X182391896Y-102789024D01*
X182210649Y-102750500D01*
X182025351Y-102750500D01*
X181844103Y-102789024D01*
X181844095Y-102789026D01*
X181674822Y-102864392D01*
X181524909Y-102973311D01*
X181524906Y-102973313D01*
X181400922Y-103111014D01*
X181308274Y-103271485D01*
X181251014Y-103447711D01*
X181251013Y-103447713D01*
X181231644Y-103632000D01*
X156189420Y-103632000D01*
X156168093Y-103608313D01*
X156168090Y-103608311D01*
X156168089Y-103608310D01*
X156168088Y-103608309D01*
X156032345Y-103509686D01*
X156018177Y-103499392D01*
X155848904Y-103424026D01*
X155848896Y-103424024D01*
X155667649Y-103385500D01*
X155482351Y-103385500D01*
X155301103Y-103424024D01*
X155301095Y-103424026D01*
X155131822Y-103499392D01*
X154981909Y-103608311D01*
X154981906Y-103608313D01*
X154857922Y-103746014D01*
X154765274Y-103906485D01*
X154708014Y-104082711D01*
X154708013Y-104082713D01*
X154688644Y-104267000D01*
X137906008Y-104267000D01*
X137899987Y-104209716D01*
X137842726Y-104033487D01*
X137750077Y-103873013D01*
X137668751Y-103782691D01*
X137626093Y-103735313D01*
X137626090Y-103735311D01*
X137626089Y-103735310D01*
X137626088Y-103735309D01*
X137505078Y-103647390D01*
X137476177Y-103626392D01*
X137306904Y-103551026D01*
X137306896Y-103551024D01*
X137125649Y-103512500D01*
X136940351Y-103512500D01*
X136759103Y-103551024D01*
X136759095Y-103551026D01*
X136589822Y-103626392D01*
X136439909Y-103735311D01*
X136439906Y-103735313D01*
X136315922Y-103873014D01*
X136223274Y-104033485D01*
X136166014Y-104209711D01*
X136166013Y-104209713D01*
X136146644Y-104394000D01*
X131441200Y-104394000D01*
X131614830Y-104313035D01*
X131808401Y-104177495D01*
X131975495Y-104010401D01*
X132111035Y-103816830D01*
X132210903Y-103602663D01*
X132272063Y-103374408D01*
X132292659Y-103139000D01*
X132290210Y-103111014D01*
X132278163Y-102973311D01*
X132272063Y-102903592D01*
X132210903Y-102675337D01*
X132111035Y-102461171D01*
X132055941Y-102382487D01*
X131975494Y-102267597D01*
X131808402Y-102100506D01*
X131808396Y-102100501D01*
X131622842Y-101970575D01*
X131579217Y-101915998D01*
X131572023Y-101846500D01*
X131603546Y-101784145D01*
X131622842Y-101767425D01*
X131675598Y-101730485D01*
X131808401Y-101637495D01*
X131975495Y-101470401D01*
X132111035Y-101276830D01*
X132210903Y-101062663D01*
X132271101Y-100838000D01*
X135892644Y-100838000D01*
X135912013Y-101022286D01*
X135912014Y-101022288D01*
X135969274Y-101198514D01*
X136061921Y-101358985D01*
X136071556Y-101369686D01*
X136093254Y-101393784D01*
X136114561Y-101417447D01*
X136144791Y-101480438D01*
X136136166Y-101549773D01*
X136129799Y-101562418D01*
X136096273Y-101620487D01*
X136039014Y-101796711D01*
X136039013Y-101796713D01*
X136019644Y-101981000D01*
X136039013Y-102165286D01*
X136039014Y-102165288D01*
X136096274Y-102341514D01*
X136119929Y-102382485D01*
X136188923Y-102501987D01*
X136232112Y-102549954D01*
X136312906Y-102639686D01*
X136312909Y-102639688D01*
X136312912Y-102639691D01*
X136447386Y-102737392D01*
X136462822Y-102748607D01*
X136632095Y-102823973D01*
X136632098Y-102823973D01*
X136632101Y-102823975D01*
X136813351Y-102862500D01*
X136998649Y-102862500D01*
X137179899Y-102823975D01*
X137179902Y-102823973D01*
X137179904Y-102823973D01*
X137236922Y-102798586D01*
X137349178Y-102748607D01*
X137499088Y-102639691D01*
X137513667Y-102623500D01*
X137563399Y-102568266D01*
X137623077Y-102501987D01*
X137715726Y-102341513D01*
X137772908Y-102165524D01*
X137812345Y-102107850D01*
X137876704Y-102080652D01*
X137916613Y-102082553D01*
X137956351Y-102091000D01*
X137956354Y-102091000D01*
X138141649Y-102091000D01*
X138322899Y-102052475D01*
X138322902Y-102052473D01*
X138322904Y-102052473D01*
X138379922Y-102027086D01*
X138492178Y-101977107D01*
X138642088Y-101868191D01*
X138766077Y-101730487D01*
X138858726Y-101570013D01*
X138915987Y-101393784D01*
X138935356Y-101209500D01*
X138915987Y-101025216D01*
X138858726Y-100848987D01*
X138848230Y-100830808D01*
X138819816Y-100781592D01*
X138766077Y-100688513D01*
X138690418Y-100604485D01*
X138642093Y-100550813D01*
X138642090Y-100550811D01*
X138642089Y-100550810D01*
X138642088Y-100550809D01*
X138538727Y-100475713D01*
X138492177Y-100441892D01*
X138322904Y-100366526D01*
X138322896Y-100366524D01*
X138141649Y-100328000D01*
X137956351Y-100328000D01*
X137775103Y-100366524D01*
X137775099Y-100366525D01*
X137677871Y-100409814D01*
X137608621Y-100419098D01*
X137545344Y-100389469D01*
X137520048Y-100358533D01*
X137515402Y-100350485D01*
X137496077Y-100317013D01*
X137437415Y-100251862D01*
X137372093Y-100179313D01*
X137372090Y-100179311D01*
X137372089Y-100179310D01*
X137372088Y-100179309D01*
X137222178Y-100070393D01*
X137222177Y-100070392D01*
X137052904Y-99995026D01*
X137052896Y-99995024D01*
X136871649Y-99956500D01*
X136686351Y-99956500D01*
X136505103Y-99995024D01*
X136505095Y-99995026D01*
X136335822Y-100070392D01*
X136185909Y-100179311D01*
X136185906Y-100179313D01*
X136061922Y-100317014D01*
X135969274Y-100477485D01*
X135912014Y-100653711D01*
X135912013Y-100653713D01*
X135892644Y-100838000D01*
X132271101Y-100838000D01*
X132272063Y-100834408D01*
X132292659Y-100599000D01*
X132272063Y-100363592D01*
X132210903Y-100135337D01*
X132111035Y-99921171D01*
X132080035Y-99876897D01*
X131975494Y-99727597D01*
X131921397Y-99673500D01*
X157101644Y-99673500D01*
X157121013Y-99857786D01*
X157121014Y-99857788D01*
X157178274Y-100034014D01*
X157270920Y-100194483D01*
X157270924Y-100194488D01*
X157308552Y-100236279D01*
X157338781Y-100299270D01*
X157330155Y-100368606D01*
X157308552Y-100402221D01*
X157270924Y-100444011D01*
X157270920Y-100444016D01*
X157178274Y-100604485D01*
X157121014Y-100780711D01*
X157121013Y-100780713D01*
X157101644Y-100965000D01*
X157121013Y-101149286D01*
X157121014Y-101149288D01*
X157178274Y-101325514D01*
X157251343Y-101452074D01*
X157270923Y-101485987D01*
X157314112Y-101533954D01*
X157394906Y-101623686D01*
X157394909Y-101623688D01*
X157394912Y-101623691D01*
X157541901Y-101730485D01*
X157544822Y-101732607D01*
X157714095Y-101807973D01*
X157714098Y-101807973D01*
X157714101Y-101807975D01*
X157895351Y-101846500D01*
X158080649Y-101846500D01*
X158261899Y-101807975D01*
X158261902Y-101807973D01*
X158261904Y-101807973D01*
X158340375Y-101773035D01*
X158431178Y-101732607D01*
X158581088Y-101623691D01*
X158705077Y-101485987D01*
X158797726Y-101325513D01*
X158832335Y-101219000D01*
X161165644Y-101219000D01*
X161185013Y-101403286D01*
X161185014Y-101403288D01*
X161242274Y-101579514D01*
X161275751Y-101637498D01*
X161334923Y-101739987D01*
X161374683Y-101784145D01*
X161458906Y-101877686D01*
X161458909Y-101877688D01*
X161458912Y-101877691D01*
X161586756Y-101970575D01*
X161608822Y-101986607D01*
X161778095Y-102061973D01*
X161778098Y-102061973D01*
X161778101Y-102061975D01*
X161959351Y-102100500D01*
X162144649Y-102100500D01*
X162325899Y-102061975D01*
X162325902Y-102061973D01*
X162325904Y-102061973D01*
X162388581Y-102034067D01*
X162495178Y-101986607D01*
X162645088Y-101877691D01*
X162652914Y-101869000D01*
X162684866Y-101833513D01*
X162769077Y-101739987D01*
X162861726Y-101579513D01*
X162918987Y-101403284D01*
X162938356Y-101219000D01*
X162918987Y-101034716D01*
X162861726Y-100858487D01*
X162776575Y-100711000D01*
X163832644Y-100711000D01*
X163852013Y-100895286D01*
X163852014Y-100895288D01*
X163909274Y-101071514D01*
X163932929Y-101112485D01*
X164001923Y-101231987D01*
X164037107Y-101271063D01*
X164125906Y-101369686D01*
X164125909Y-101369688D01*
X164125912Y-101369691D01*
X164264519Y-101470395D01*
X164275822Y-101478607D01*
X164445095Y-101553973D01*
X164445098Y-101553973D01*
X164445101Y-101553975D01*
X164626351Y-101592500D01*
X164811649Y-101592500D01*
X164992899Y-101553975D01*
X164992902Y-101553973D01*
X164992904Y-101553973D01*
X165049922Y-101528586D01*
X165162178Y-101478607D01*
X165312088Y-101369691D01*
X165315312Y-101366111D01*
X165351866Y-101325513D01*
X165436077Y-101231987D01*
X165528726Y-101071513D01*
X165585987Y-100895284D01*
X165605356Y-100711000D01*
X165594990Y-100612377D01*
X190277021Y-100612377D01*
X190296390Y-100796663D01*
X190296391Y-100796665D01*
X190353651Y-100972891D01*
X190410591Y-101071514D01*
X190446300Y-101133364D01*
X190489178Y-101180985D01*
X190570283Y-101271063D01*
X190570286Y-101271065D01*
X190570289Y-101271068D01*
X190706025Y-101369686D01*
X190720199Y-101379984D01*
X190889472Y-101455350D01*
X190889475Y-101455350D01*
X190889478Y-101455352D01*
X191070728Y-101493877D01*
X191256026Y-101493877D01*
X191437276Y-101455352D01*
X191437279Y-101455350D01*
X191437281Y-101455350D01*
X191554213Y-101403288D01*
X191606555Y-101379984D01*
X191756465Y-101271068D01*
X191880454Y-101133364D01*
X191973103Y-100972890D01*
X192030364Y-100796661D01*
X192049733Y-100612377D01*
X192030364Y-100428093D01*
X191973103Y-100251864D01*
X191964104Y-100236278D01*
X191937394Y-100190014D01*
X191880454Y-100091390D01*
X191815018Y-100018716D01*
X191756470Y-99953690D01*
X191756467Y-99953688D01*
X191756466Y-99953687D01*
X191756465Y-99953686D01*
X191638563Y-99868025D01*
X191606554Y-99844769D01*
X191437281Y-99769403D01*
X191437273Y-99769401D01*
X191256026Y-99730877D01*
X191070728Y-99730877D01*
X190889480Y-99769401D01*
X190889472Y-99769403D01*
X190720199Y-99844769D01*
X190570286Y-99953688D01*
X190570283Y-99953690D01*
X190446299Y-100091391D01*
X190353651Y-100251862D01*
X190296391Y-100428088D01*
X190296390Y-100428090D01*
X190277021Y-100612377D01*
X165594990Y-100612377D01*
X165585987Y-100526716D01*
X165528726Y-100350487D01*
X165436077Y-100190013D01*
X165347277Y-100091390D01*
X165312093Y-100052313D01*
X165312090Y-100052311D01*
X165312089Y-100052310D01*
X165312088Y-100052309D01*
X165162178Y-99943393D01*
X165162177Y-99943392D01*
X164992904Y-99868026D01*
X164992896Y-99868024D01*
X164811649Y-99829500D01*
X164626351Y-99829500D01*
X164445103Y-99868024D01*
X164445095Y-99868026D01*
X164275822Y-99943392D01*
X164125909Y-100052311D01*
X164125906Y-100052313D01*
X164001922Y-100190014D01*
X163909274Y-100350485D01*
X163852014Y-100526711D01*
X163852013Y-100526713D01*
X163832644Y-100711000D01*
X162776575Y-100711000D01*
X162769077Y-100698013D01*
X162720514Y-100644078D01*
X162645093Y-100560313D01*
X162645090Y-100560311D01*
X162645089Y-100560310D01*
X162645088Y-100560309D01*
X162517262Y-100467438D01*
X162495177Y-100451392D01*
X162325904Y-100376026D01*
X162325896Y-100376024D01*
X162144649Y-100337500D01*
X161959351Y-100337500D01*
X161778103Y-100376024D01*
X161778095Y-100376026D01*
X161608822Y-100451392D01*
X161458909Y-100560311D01*
X161458906Y-100560313D01*
X161334922Y-100698014D01*
X161242274Y-100858485D01*
X161185014Y-101034711D01*
X161185013Y-101034713D01*
X161165644Y-101219000D01*
X158832335Y-101219000D01*
X158854987Y-101149284D01*
X158874356Y-100965000D01*
X158854987Y-100780716D01*
X158797726Y-100604487D01*
X158790228Y-100591500D01*
X158705078Y-100444014D01*
X158667448Y-100402222D01*
X158637218Y-100339231D01*
X158645843Y-100269896D01*
X158667448Y-100236278D01*
X158705077Y-100194487D01*
X158797726Y-100034013D01*
X158854987Y-99857784D01*
X158874356Y-99673500D01*
X158854987Y-99489216D01*
X158797726Y-99312987D01*
X158790813Y-99301014D01*
X158758062Y-99244286D01*
X158705077Y-99152513D01*
X158655537Y-99097493D01*
X158581093Y-99014813D01*
X158581090Y-99014811D01*
X158581089Y-99014810D01*
X158581088Y-99014809D01*
X158431178Y-98905893D01*
X158431177Y-98905892D01*
X158261904Y-98830526D01*
X158261896Y-98830524D01*
X158080649Y-98792000D01*
X157895351Y-98792000D01*
X157714103Y-98830524D01*
X157714095Y-98830526D01*
X157544822Y-98905892D01*
X157394909Y-99014811D01*
X157394906Y-99014813D01*
X157270922Y-99152514D01*
X157178274Y-99312985D01*
X157121014Y-99489211D01*
X157121013Y-99489213D01*
X157101644Y-99673500D01*
X131921397Y-99673500D01*
X131808402Y-99560506D01*
X131808396Y-99560501D01*
X131622842Y-99430575D01*
X131579217Y-99375998D01*
X131572023Y-99306500D01*
X131603546Y-99244145D01*
X131622842Y-99227425D01*
X131714409Y-99163309D01*
X131808401Y-99097495D01*
X131975495Y-98930401D01*
X132111035Y-98736830D01*
X132210903Y-98522663D01*
X132272063Y-98294408D01*
X132292659Y-98059000D01*
X132281460Y-97931000D01*
X154575644Y-97931000D01*
X154595013Y-98115286D01*
X154595014Y-98115288D01*
X154652274Y-98291514D01*
X154722064Y-98412393D01*
X154744923Y-98451987D01*
X154762064Y-98471024D01*
X154868906Y-98589686D01*
X154868909Y-98589688D01*
X154868912Y-98589691D01*
X154959233Y-98655313D01*
X155018822Y-98698607D01*
X155188095Y-98773973D01*
X155188098Y-98773973D01*
X155188101Y-98773975D01*
X155369351Y-98812500D01*
X155554649Y-98812500D01*
X155735899Y-98773975D01*
X155735902Y-98773973D01*
X155735904Y-98773973D01*
X155903201Y-98699487D01*
X155905178Y-98698607D01*
X155932165Y-98679000D01*
X169166644Y-98679000D01*
X169186013Y-98863286D01*
X169186014Y-98863288D01*
X169243274Y-99039514D01*
X169295351Y-99129714D01*
X169335923Y-99199987D01*
X169375683Y-99244145D01*
X169459906Y-99337686D01*
X169459909Y-99337688D01*
X169459912Y-99337691D01*
X169587756Y-99430575D01*
X169609822Y-99446607D01*
X169779095Y-99521973D01*
X169779098Y-99521973D01*
X169779101Y-99521975D01*
X169864309Y-99540086D01*
X169898784Y-99547414D01*
X169960266Y-99580606D01*
X169990934Y-99630384D01*
X170005269Y-99674503D01*
X170005273Y-99674510D01*
X170005274Y-99674513D01*
X170087552Y-99817024D01*
X170097923Y-99834987D01*
X170221906Y-99972686D01*
X170221909Y-99972688D01*
X170221912Y-99972691D01*
X170356386Y-100070392D01*
X170371822Y-100081607D01*
X170541095Y-100156973D01*
X170541098Y-100156973D01*
X170541101Y-100156975D01*
X170722351Y-100195500D01*
X170907649Y-100195500D01*
X171088899Y-100156975D01*
X171088902Y-100156973D01*
X171088904Y-100156973D01*
X171145922Y-100131586D01*
X171258178Y-100081607D01*
X171408088Y-99972691D01*
X171422667Y-99956500D01*
X171442336Y-99934655D01*
X171532077Y-99834987D01*
X171624726Y-99674513D01*
X171681987Y-99498284D01*
X171701356Y-99314000D01*
X171681987Y-99129716D01*
X171659335Y-99060000D01*
X185803644Y-99060000D01*
X185823013Y-99244286D01*
X185823014Y-99244288D01*
X185880274Y-99420514D01*
X185938853Y-99521975D01*
X185972923Y-99580987D01*
X186016112Y-99628954D01*
X186096906Y-99718686D01*
X186096909Y-99718688D01*
X186096912Y-99718691D01*
X186232256Y-99817024D01*
X186246822Y-99827607D01*
X186416095Y-99902973D01*
X186416098Y-99902973D01*
X186416101Y-99902975D01*
X186597351Y-99941500D01*
X186782649Y-99941500D01*
X186963899Y-99902975D01*
X186963902Y-99902973D01*
X186963904Y-99902973D01*
X187036709Y-99870558D01*
X187133178Y-99827607D01*
X187283088Y-99718691D01*
X187407077Y-99580987D01*
X187499726Y-99420513D01*
X187534335Y-99314000D01*
X196217644Y-99314000D01*
X196237013Y-99498286D01*
X196237014Y-99498288D01*
X196294274Y-99674514D01*
X196349057Y-99769401D01*
X196386923Y-99834987D01*
X196418951Y-99870558D01*
X196510906Y-99972686D01*
X196510909Y-99972688D01*
X196510912Y-99972691D01*
X196645386Y-100070392D01*
X196660822Y-100081607D01*
X196830095Y-100156973D01*
X196830098Y-100156973D01*
X196830101Y-100156975D01*
X197011351Y-100195500D01*
X197196649Y-100195500D01*
X197377899Y-100156975D01*
X197377902Y-100156973D01*
X197377904Y-100156973D01*
X197434922Y-100131586D01*
X197547178Y-100081607D01*
X197697088Y-99972691D01*
X197711667Y-99956500D01*
X197743477Y-99921171D01*
X197792260Y-99866991D01*
X197851746Y-99830343D01*
X197921603Y-99831672D01*
X197979651Y-99870558D01*
X198007461Y-99934655D01*
X198007730Y-99936996D01*
X198015013Y-100006284D01*
X198015014Y-100006286D01*
X198015014Y-100006288D01*
X198072274Y-100182514D01*
X198156270Y-100328000D01*
X198164923Y-100342987D01*
X198248052Y-100435311D01*
X198278280Y-100498299D01*
X198279900Y-100518280D01*
X198279900Y-102568268D01*
X198294700Y-102623500D01*
X198320933Y-102721403D01*
X198320936Y-102721408D01*
X198397579Y-102854160D01*
X198397580Y-102854160D01*
X198400201Y-102858700D01*
X198400202Y-102858701D01*
X198595500Y-103053998D01*
X198628985Y-103115321D01*
X198631139Y-103128712D01*
X198632221Y-103139000D01*
X198650013Y-103308286D01*
X198650014Y-103308288D01*
X198707274Y-103484514D01*
X198765853Y-103585975D01*
X198799923Y-103644987D01*
X198839808Y-103689284D01*
X198923906Y-103782686D01*
X198923909Y-103782688D01*
X198923912Y-103782691D01*
X199037907Y-103865513D01*
X199073822Y-103891607D01*
X199243095Y-103966973D01*
X199243098Y-103966973D01*
X199243101Y-103966975D01*
X199424351Y-104005500D01*
X199609649Y-104005500D01*
X199790899Y-103966975D01*
X199790902Y-103966973D01*
X199790904Y-103966973D01*
X199848087Y-103941513D01*
X199960178Y-103891607D01*
X200110088Y-103782691D01*
X200125762Y-103765284D01*
X200152751Y-103735309D01*
X200234077Y-103644987D01*
X200314898Y-103505000D01*
X201678644Y-103505000D01*
X201698013Y-103689286D01*
X201698014Y-103689288D01*
X201755274Y-103865514D01*
X201813853Y-103966975D01*
X201847923Y-104025987D01*
X201891112Y-104073954D01*
X201971906Y-104163686D01*
X201971909Y-104163688D01*
X201971912Y-104163691D01*
X202076510Y-104239686D01*
X202121822Y-104272607D01*
X202291095Y-104347973D01*
X202291098Y-104347973D01*
X202291101Y-104347975D01*
X202472351Y-104386500D01*
X202657649Y-104386500D01*
X202838899Y-104347975D01*
X202838902Y-104347973D01*
X202838904Y-104347973D01*
X202917375Y-104313035D01*
X203008178Y-104272607D01*
X203158088Y-104163691D01*
X203282077Y-104025987D01*
X203374726Y-103865513D01*
X203431987Y-103689284D01*
X203451356Y-103505000D01*
X203431987Y-103320716D01*
X203374726Y-103144487D01*
X203282077Y-102984013D01*
X203226522Y-102922313D01*
X203158093Y-102846313D01*
X203158090Y-102846311D01*
X203158089Y-102846310D01*
X203158088Y-102846309D01*
X203023613Y-102748607D01*
X203015896Y-102743000D01*
X208663644Y-102743000D01*
X208683013Y-102927286D01*
X208683014Y-102927288D01*
X208740274Y-103103514D01*
X208760762Y-103139000D01*
X208832923Y-103263987D01*
X208872808Y-103308284D01*
X208956906Y-103401686D01*
X208956909Y-103401688D01*
X208956912Y-103401691D01*
X209070907Y-103484513D01*
X209106822Y-103510607D01*
X209276095Y-103585973D01*
X209276098Y-103585973D01*
X209276101Y-103585975D01*
X209457351Y-103624500D01*
X209457359Y-103624500D01*
X209463819Y-103625180D01*
X209463678Y-103626520D01*
X209523836Y-103644185D01*
X209544478Y-103660819D01*
X213451797Y-107568138D01*
X213451800Y-107568140D01*
X213558736Y-107639592D01*
X213677556Y-107688809D01*
X213677560Y-107688809D01*
X213677561Y-107688810D01*
X213803692Y-107713900D01*
X213803695Y-107713900D01*
X218814652Y-107713900D01*
X218881691Y-107733585D01*
X218887518Y-107737568D01*
X219012822Y-107828607D01*
X219182095Y-107903973D01*
X219182098Y-107903973D01*
X219182101Y-107903975D01*
X219363351Y-107942500D01*
X219548649Y-107942500D01*
X219729899Y-107903975D01*
X219729902Y-107903973D01*
X219729904Y-107903973D01*
X219786922Y-107878586D01*
X219899178Y-107828607D01*
X220049088Y-107719691D01*
X220054303Y-107713900D01*
X220076895Y-107688808D01*
X220173077Y-107581987D01*
X220265726Y-107421513D01*
X220322987Y-107245284D01*
X220342356Y-107061000D01*
X223522644Y-107061000D01*
X223542013Y-107245286D01*
X223542014Y-107245288D01*
X223599274Y-107421514D01*
X223672343Y-107548074D01*
X223691923Y-107581987D01*
X223735112Y-107629954D01*
X223815906Y-107719686D01*
X223815909Y-107719688D01*
X223815912Y-107719691D01*
X223965822Y-107828607D01*
X224135095Y-107903973D01*
X224135098Y-107903973D01*
X224135101Y-107903975D01*
X224316351Y-107942500D01*
X224501649Y-107942500D01*
X224682899Y-107903975D01*
X224682902Y-107903973D01*
X224682904Y-107903973D01*
X224739922Y-107878586D01*
X224852178Y-107828607D01*
X225002088Y-107719691D01*
X225007303Y-107713900D01*
X225029895Y-107688808D01*
X225126077Y-107581987D01*
X225218726Y-107421513D01*
X225275987Y-107245284D01*
X225295356Y-107061000D01*
X225275987Y-106876716D01*
X225218726Y-106700487D01*
X225126077Y-106540013D01*
X225077514Y-106486078D01*
X225002093Y-106402313D01*
X225002090Y-106402311D01*
X225002089Y-106402310D01*
X225002088Y-106402309D01*
X224852178Y-106293393D01*
X224852177Y-106293392D01*
X224682904Y-106218026D01*
X224682896Y-106218024D01*
X224501649Y-106179500D01*
X224316351Y-106179500D01*
X224135103Y-106218024D01*
X224135095Y-106218026D01*
X223965822Y-106293392D01*
X223815909Y-106402311D01*
X223815906Y-106402313D01*
X223691922Y-106540014D01*
X223599274Y-106700485D01*
X223542014Y-106876711D01*
X223542013Y-106876713D01*
X223522644Y-107061000D01*
X220342356Y-107061000D01*
X220322987Y-106876716D01*
X220265726Y-106700487D01*
X220173077Y-106540013D01*
X220124514Y-106486078D01*
X220049093Y-106402313D01*
X220049090Y-106402311D01*
X220049089Y-106402310D01*
X220049088Y-106402309D01*
X219899178Y-106293393D01*
X219899177Y-106293392D01*
X219729904Y-106218026D01*
X219729896Y-106218024D01*
X219548649Y-106179500D01*
X219363351Y-106179500D01*
X219182103Y-106218024D01*
X219182095Y-106218026D01*
X219012822Y-106293392D01*
X218944654Y-106342919D01*
X218887535Y-106384418D01*
X218821731Y-106407898D01*
X218814652Y-106408100D01*
X214189802Y-106408100D01*
X214122763Y-106388415D01*
X214102121Y-106371781D01*
X211311341Y-103581000D01*
X217061644Y-103581000D01*
X217081013Y-103765286D01*
X217081014Y-103765288D01*
X217138274Y-103941514D01*
X217191375Y-104033487D01*
X217230923Y-104101987D01*
X217274112Y-104149954D01*
X217354906Y-104239686D01*
X217354909Y-104239688D01*
X217354912Y-104239691D01*
X217503949Y-104347973D01*
X217504822Y-104348607D01*
X217674095Y-104423973D01*
X217674098Y-104423973D01*
X217674101Y-104423975D01*
X217855351Y-104462500D01*
X218040649Y-104462500D01*
X218221899Y-104423975D01*
X218221902Y-104423973D01*
X218221904Y-104423973D01*
X218306071Y-104386499D01*
X218391178Y-104348607D01*
X218541088Y-104239691D01*
X218665077Y-104101987D01*
X218757726Y-103941513D01*
X218814987Y-103765284D01*
X218834356Y-103581000D01*
X218814987Y-103396716D01*
X218757726Y-103220487D01*
X218665077Y-103060013D01*
X218616514Y-103006078D01*
X218541093Y-102922313D01*
X218541090Y-102922311D01*
X218541089Y-102922310D01*
X218541088Y-102922309D01*
X218441148Y-102849698D01*
X218391177Y-102813392D01*
X218221904Y-102738026D01*
X218221896Y-102738024D01*
X218040649Y-102699500D01*
X217855351Y-102699500D01*
X217674103Y-102738024D01*
X217674095Y-102738026D01*
X217504822Y-102813392D01*
X217354909Y-102922311D01*
X217354906Y-102922313D01*
X217230922Y-103060014D01*
X217138274Y-103220485D01*
X217081014Y-103396711D01*
X217081013Y-103396713D01*
X217061644Y-103581000D01*
X211311341Y-103581000D01*
X210463061Y-102732720D01*
X210429576Y-102671397D01*
X210427424Y-102658018D01*
X210416987Y-102558716D01*
X210359726Y-102382487D01*
X210267077Y-102222013D01*
X210185751Y-102131691D01*
X210143093Y-102084313D01*
X210143090Y-102084311D01*
X210143089Y-102084310D01*
X210143088Y-102084309D01*
X210043148Y-102011698D01*
X209993177Y-101975392D01*
X209823904Y-101900026D01*
X209823896Y-101900024D01*
X209642649Y-101861500D01*
X209457351Y-101861500D01*
X209276103Y-101900024D01*
X209276095Y-101900026D01*
X209106822Y-101975392D01*
X208956909Y-102084311D01*
X208956906Y-102084313D01*
X208832922Y-102222014D01*
X208740274Y-102382485D01*
X208683014Y-102558711D01*
X208683013Y-102558713D01*
X208663644Y-102743000D01*
X203015896Y-102743000D01*
X203008177Y-102737392D01*
X202838904Y-102662026D01*
X202838896Y-102662024D01*
X202657649Y-102623500D01*
X202472351Y-102623500D01*
X202291103Y-102662024D01*
X202291095Y-102662026D01*
X202121822Y-102737392D01*
X201971909Y-102846311D01*
X201971906Y-102846313D01*
X201847922Y-102984014D01*
X201755274Y-103144485D01*
X201698014Y-103320711D01*
X201698013Y-103320713D01*
X201678644Y-103505000D01*
X200314898Y-103505000D01*
X200326726Y-103484513D01*
X200383987Y-103308284D01*
X200403356Y-103124000D01*
X200383987Y-102939716D01*
X200326726Y-102763487D01*
X200234077Y-102603013D01*
X200185514Y-102549078D01*
X200110093Y-102465313D01*
X200110090Y-102465311D01*
X200110089Y-102465310D01*
X200110088Y-102465309D01*
X199960178Y-102356393D01*
X199960177Y-102356392D01*
X199790904Y-102281026D01*
X199790896Y-102281024D01*
X199609649Y-102242500D01*
X199608100Y-102242500D01*
X199607236Y-102242246D01*
X199603181Y-102241820D01*
X199603258Y-102241078D01*
X199541061Y-102222815D01*
X199495306Y-102170011D01*
X199484100Y-102118500D01*
X199484100Y-101466429D01*
X199503785Y-101399390D01*
X199556589Y-101353635D01*
X199625747Y-101343691D01*
X199680986Y-101366111D01*
X199685907Y-101369686D01*
X199685912Y-101369691D01*
X199824529Y-101470402D01*
X199835822Y-101478607D01*
X200005095Y-101553973D01*
X200005098Y-101553973D01*
X200005101Y-101553975D01*
X200186351Y-101592500D01*
X200371648Y-101592500D01*
X200371649Y-101592500D01*
X200463606Y-101572954D01*
X200533270Y-101578270D01*
X200577065Y-101606563D01*
X200813200Y-101842698D01*
X200925302Y-101954800D01*
X201062598Y-102034067D01*
X201215732Y-102075100D01*
X201374268Y-102075100D01*
X203262749Y-102075100D01*
X203329788Y-102094785D01*
X203354898Y-102116127D01*
X203368912Y-102131691D01*
X203517439Y-102239602D01*
X203518822Y-102240607D01*
X203688095Y-102315973D01*
X203688098Y-102315973D01*
X203688101Y-102315975D01*
X203869351Y-102354500D01*
X204054649Y-102354500D01*
X204235899Y-102315975D01*
X204235902Y-102315973D01*
X204235904Y-102315973D01*
X204292922Y-102290586D01*
X204405178Y-102240607D01*
X204555088Y-102131691D01*
X204576555Y-102107850D01*
X204599331Y-102082554D01*
X204679077Y-101993987D01*
X204771726Y-101833513D01*
X204828987Y-101657284D01*
X204848356Y-101473000D01*
X204828987Y-101288716D01*
X204771726Y-101112487D01*
X204762895Y-101097192D01*
X204742956Y-101062655D01*
X204679077Y-100952013D01*
X204602100Y-100866521D01*
X204555093Y-100814313D01*
X204555090Y-100814311D01*
X204555089Y-100814310D01*
X204555088Y-100814309D01*
X204455148Y-100741698D01*
X204405177Y-100705392D01*
X204235904Y-100630026D01*
X204235896Y-100630024D01*
X204054649Y-100591500D01*
X203869351Y-100591500D01*
X203688103Y-100630024D01*
X203688095Y-100630026D01*
X203518822Y-100705392D01*
X203368910Y-100814310D01*
X203354899Y-100829872D01*
X203295412Y-100866521D01*
X203262749Y-100870900D01*
X201595760Y-100870900D01*
X201528721Y-100851215D01*
X201508079Y-100834581D01*
X201140936Y-100467438D01*
X201110686Y-100418074D01*
X201105535Y-100402222D01*
X201088726Y-100350487D01*
X201082227Y-100339231D01*
X201022788Y-100236278D01*
X201003575Y-100203000D01*
X208536644Y-100203000D01*
X208556013Y-100387286D01*
X208556014Y-100387288D01*
X208613274Y-100563514D01*
X208665352Y-100653716D01*
X208705923Y-100723987D01*
X208749112Y-100771954D01*
X208829906Y-100861686D01*
X208829909Y-100861688D01*
X208829912Y-100861691D01*
X208954230Y-100952013D01*
X208979822Y-100970607D01*
X209149095Y-101045973D01*
X209149098Y-101045973D01*
X209149101Y-101045975D01*
X209330351Y-101084500D01*
X209515649Y-101084500D01*
X209696899Y-101045975D01*
X209696902Y-101045973D01*
X209696904Y-101045973D01*
X209754087Y-101020513D01*
X209866178Y-100970607D01*
X210012893Y-100864012D01*
X210061580Y-100842716D01*
X210121444Y-100830809D01*
X210240264Y-100781592D01*
X210244205Y-100778959D01*
X210347200Y-100710141D01*
X210397341Y-100660000D01*
X217061644Y-100660000D01*
X217081013Y-100844286D01*
X217081014Y-100844288D01*
X217138274Y-101020514D01*
X217191375Y-101112487D01*
X217230923Y-101180987D01*
X217256596Y-101209500D01*
X217354906Y-101318686D01*
X217354909Y-101318688D01*
X217354912Y-101318691D01*
X217471347Y-101403286D01*
X217504822Y-101427607D01*
X217674095Y-101502973D01*
X217674098Y-101502973D01*
X217674101Y-101502975D01*
X217855351Y-101541500D01*
X218040649Y-101541500D01*
X218221899Y-101502975D01*
X218221902Y-101502973D01*
X218221904Y-101502973D01*
X218295075Y-101470395D01*
X218391178Y-101427607D01*
X218541088Y-101318691D01*
X218665077Y-101180987D01*
X218757726Y-101020513D01*
X218814987Y-100844284D01*
X218834356Y-100660000D01*
X218814987Y-100475716D01*
X218757726Y-100299487D01*
X218665077Y-100139013D01*
X218613389Y-100081607D01*
X218541093Y-100001313D01*
X218541090Y-100001311D01*
X218541089Y-100001310D01*
X218541088Y-100001309D01*
X218430785Y-99921169D01*
X218391177Y-99892392D01*
X218221904Y-99817026D01*
X218221896Y-99817024D01*
X218040649Y-99778500D01*
X217855351Y-99778500D01*
X217674103Y-99817024D01*
X217674095Y-99817026D01*
X217504822Y-99892392D01*
X217354909Y-100001311D01*
X217354906Y-100001313D01*
X217230922Y-100139014D01*
X217138274Y-100299485D01*
X217081014Y-100475711D01*
X217081013Y-100475713D01*
X217061644Y-100660000D01*
X210397341Y-100660000D01*
X224879127Y-86178212D01*
X224940448Y-86144729D01*
X225010140Y-86149713D01*
X225066073Y-86191585D01*
X225089229Y-86253669D01*
X225090146Y-86253571D01*
X225096908Y-86316483D01*
X225147202Y-86451328D01*
X225147206Y-86451335D01*
X225233452Y-86566544D01*
X225233455Y-86566547D01*
X225348664Y-86652793D01*
X225348671Y-86652797D01*
X225480081Y-86701810D01*
X225536015Y-86743681D01*
X225560432Y-86809145D01*
X225545580Y-86877418D01*
X225524430Y-86905673D01*
X225402503Y-87027600D01*
X225266965Y-87221169D01*
X225266964Y-87221171D01*
X225167098Y-87435335D01*
X225167094Y-87435344D01*
X225105938Y-87663586D01*
X225105936Y-87663596D01*
X225085341Y-87898999D01*
X225085341Y-87899000D01*
X225105936Y-88134403D01*
X225105938Y-88134413D01*
X225167094Y-88362655D01*
X225167096Y-88362659D01*
X225167097Y-88362663D01*
X225233943Y-88506014D01*
X225266965Y-88576830D01*
X225266967Y-88576834D01*
X225402501Y-88770395D01*
X225402506Y-88770402D01*
X225569597Y-88937493D01*
X225569603Y-88937498D01*
X225755158Y-89067425D01*
X225798783Y-89122002D01*
X225805977Y-89191500D01*
X225774454Y-89253855D01*
X225755158Y-89270575D01*
X225569597Y-89400505D01*
X225402505Y-89567597D01*
X225266965Y-89761169D01*
X225266964Y-89761171D01*
X225167098Y-89975335D01*
X225167094Y-89975344D01*
X225105938Y-90203586D01*
X225105936Y-90203596D01*
X225085341Y-90438999D01*
X225085341Y-90439000D01*
X225105936Y-90674403D01*
X225105938Y-90674413D01*
X225167094Y-90902655D01*
X225167096Y-90902659D01*
X225167097Y-90902663D01*
X225266965Y-91116830D01*
X225266967Y-91116834D01*
X225402501Y-91310395D01*
X225402506Y-91310402D01*
X225569597Y-91477493D01*
X225569603Y-91477498D01*
X225755158Y-91607425D01*
X225798783Y-91662002D01*
X225805977Y-91731500D01*
X225774454Y-91793855D01*
X225755158Y-91810575D01*
X225569597Y-91940505D01*
X225402505Y-92107597D01*
X225266965Y-92301169D01*
X225266964Y-92301171D01*
X225167098Y-92515335D01*
X225167094Y-92515344D01*
X225105938Y-92743586D01*
X225105936Y-92743596D01*
X225085341Y-92978999D01*
X225085341Y-92979000D01*
X225105936Y-93214403D01*
X225105938Y-93214413D01*
X225167094Y-93442655D01*
X225167096Y-93442659D01*
X225167097Y-93442663D01*
X225236501Y-93591499D01*
X225266965Y-93656830D01*
X225266967Y-93656834D01*
X225402501Y-93850395D01*
X225402506Y-93850402D01*
X225569597Y-94017493D01*
X225569603Y-94017498D01*
X225755158Y-94147425D01*
X225798783Y-94202002D01*
X225805977Y-94271500D01*
X225774454Y-94333855D01*
X225755158Y-94350575D01*
X225569597Y-94480505D01*
X225402505Y-94647597D01*
X225266965Y-94841169D01*
X225266964Y-94841171D01*
X225167098Y-95055335D01*
X225167094Y-95055344D01*
X225105938Y-95283586D01*
X225105936Y-95283596D01*
X225085341Y-95518999D01*
X225085341Y-95519000D01*
X225105936Y-95754403D01*
X225105938Y-95754413D01*
X225167094Y-95982655D01*
X225167096Y-95982659D01*
X225167097Y-95982663D01*
X225239998Y-96139000D01*
X225266965Y-96196830D01*
X225266967Y-96196834D01*
X225402501Y-96390395D01*
X225402506Y-96390402D01*
X225569597Y-96557493D01*
X225569603Y-96557498D01*
X225755158Y-96687425D01*
X225798783Y-96742002D01*
X225805977Y-96811500D01*
X225774454Y-96873855D01*
X225755158Y-96890575D01*
X225569597Y-97020505D01*
X225402505Y-97187597D01*
X225266965Y-97381169D01*
X225266964Y-97381171D01*
X225167098Y-97595335D01*
X225167094Y-97595344D01*
X225105938Y-97823586D01*
X225105936Y-97823596D01*
X225085341Y-98058999D01*
X225085341Y-98059000D01*
X225105936Y-98294403D01*
X225105938Y-98294413D01*
X225167094Y-98522655D01*
X225167096Y-98522659D01*
X225167097Y-98522663D01*
X225198353Y-98589691D01*
X225266965Y-98736830D01*
X225266967Y-98736834D01*
X225402501Y-98930395D01*
X225402506Y-98930402D01*
X225569597Y-99097493D01*
X225569603Y-99097498D01*
X225755158Y-99227425D01*
X225798783Y-99282002D01*
X225805977Y-99351500D01*
X225774454Y-99413855D01*
X225755158Y-99430575D01*
X225569597Y-99560505D01*
X225402505Y-99727597D01*
X225266965Y-99921169D01*
X225266964Y-99921171D01*
X225167098Y-100135335D01*
X225167094Y-100135344D01*
X225105938Y-100363586D01*
X225105936Y-100363596D01*
X225085341Y-100598999D01*
X225085341Y-100599000D01*
X225105936Y-100834403D01*
X225105938Y-100834413D01*
X225167094Y-101062655D01*
X225167096Y-101062659D01*
X225167097Y-101062663D01*
X225239998Y-101219000D01*
X225266965Y-101276830D01*
X225266967Y-101276834D01*
X225402501Y-101470395D01*
X225402506Y-101470402D01*
X225569597Y-101637493D01*
X225569603Y-101637498D01*
X225755158Y-101767425D01*
X225798783Y-101822002D01*
X225805977Y-101891500D01*
X225774454Y-101953855D01*
X225755158Y-101970575D01*
X225569597Y-102100505D01*
X225402505Y-102267597D01*
X225266965Y-102461169D01*
X225266964Y-102461171D01*
X225167098Y-102675335D01*
X225167094Y-102675344D01*
X225105938Y-102903586D01*
X225105936Y-102903596D01*
X225085341Y-103138999D01*
X225085341Y-103139000D01*
X225105936Y-103374403D01*
X225105938Y-103374413D01*
X225167094Y-103602655D01*
X225167096Y-103602659D01*
X225167097Y-103602663D01*
X225233943Y-103746014D01*
X225266965Y-103816830D01*
X225266967Y-103816834D01*
X225354269Y-103941513D01*
X225402505Y-104010401D01*
X225569599Y-104177495D01*
X225658417Y-104239686D01*
X225763165Y-104313032D01*
X225763167Y-104313033D01*
X225763170Y-104313035D01*
X225977337Y-104412903D01*
X226205592Y-104474063D01*
X226393918Y-104490539D01*
X226440999Y-104494659D01*
X226441000Y-104494659D01*
X226441001Y-104494659D01*
X226480234Y-104491226D01*
X226676408Y-104474063D01*
X226904663Y-104412903D01*
X227118830Y-104313035D01*
X227312401Y-104177495D01*
X227479495Y-104010401D01*
X227615035Y-103816830D01*
X227714903Y-103602663D01*
X227776063Y-103374408D01*
X227796659Y-103139000D01*
X227794210Y-103111014D01*
X227782163Y-102973311D01*
X227776063Y-102903592D01*
X227714903Y-102675337D01*
X227615035Y-102461171D01*
X227559941Y-102382487D01*
X227479494Y-102267597D01*
X227312402Y-102100506D01*
X227312396Y-102100501D01*
X227126842Y-101970575D01*
X227083217Y-101915998D01*
X227076023Y-101846500D01*
X227107546Y-101784145D01*
X227126842Y-101767425D01*
X227179598Y-101730485D01*
X227312401Y-101637495D01*
X227479495Y-101470401D01*
X227615035Y-101276830D01*
X227714903Y-101062663D01*
X227776063Y-100834408D01*
X227796659Y-100599000D01*
X227776063Y-100363592D01*
X227714903Y-100135337D01*
X227615035Y-99921171D01*
X227584035Y-99876897D01*
X227479494Y-99727597D01*
X227312402Y-99560506D01*
X227312396Y-99560501D01*
X227126842Y-99430575D01*
X227083217Y-99375998D01*
X227076023Y-99306500D01*
X227107546Y-99244145D01*
X227126842Y-99227425D01*
X227218409Y-99163309D01*
X227312401Y-99097495D01*
X227479495Y-98930401D01*
X227615035Y-98736830D01*
X227714903Y-98522663D01*
X227776063Y-98294408D01*
X227796659Y-98059000D01*
X227776063Y-97823592D01*
X227714903Y-97595337D01*
X227615035Y-97381171D01*
X227594411Y-97351716D01*
X227479494Y-97187597D01*
X227312402Y-97020506D01*
X227312396Y-97020501D01*
X227126842Y-96890575D01*
X227083217Y-96835998D01*
X227076023Y-96766500D01*
X227107546Y-96704145D01*
X227126842Y-96687425D01*
X227173864Y-96654500D01*
X227312401Y-96557495D01*
X227479495Y-96390401D01*
X227615035Y-96196830D01*
X227714903Y-95982663D01*
X227776063Y-95754408D01*
X227796659Y-95519000D01*
X227794690Y-95496500D01*
X227783745Y-95371393D01*
X227776063Y-95283592D01*
X227729553Y-95110013D01*
X227714905Y-95055344D01*
X227714904Y-95055343D01*
X227714903Y-95055337D01*
X227615035Y-94841171D01*
X227594411Y-94811716D01*
X227479494Y-94647597D01*
X227312402Y-94480506D01*
X227312396Y-94480501D01*
X227126842Y-94350575D01*
X227083217Y-94295998D01*
X227076023Y-94226500D01*
X227107546Y-94164145D01*
X227126842Y-94147425D01*
X227173864Y-94114500D01*
X227312401Y-94017495D01*
X227479495Y-93850401D01*
X227615035Y-93656830D01*
X227714903Y-93442663D01*
X227776063Y-93214408D01*
X227796659Y-92979000D01*
X227776063Y-92743592D01*
X227717684Y-92525716D01*
X227714905Y-92515344D01*
X227714904Y-92515343D01*
X227714903Y-92515337D01*
X227615035Y-92301171D01*
X227597974Y-92276804D01*
X227479494Y-92107597D01*
X227312402Y-91940506D01*
X227312396Y-91940501D01*
X227126842Y-91810575D01*
X227083217Y-91755998D01*
X227076023Y-91686500D01*
X227107546Y-91624145D01*
X227126842Y-91607425D01*
X227149026Y-91591891D01*
X227312401Y-91477495D01*
X227479495Y-91310401D01*
X227615035Y-91116830D01*
X227714903Y-90902663D01*
X227776063Y-90674408D01*
X227796659Y-90439000D01*
X227776063Y-90203592D01*
X227714903Y-89975337D01*
X227615035Y-89761171D01*
X227562182Y-89685688D01*
X227479494Y-89567597D01*
X227312402Y-89400506D01*
X227312396Y-89400501D01*
X227126842Y-89270575D01*
X227083217Y-89215998D01*
X227076023Y-89146500D01*
X227107546Y-89084145D01*
X227126842Y-89067425D01*
X227195287Y-89019499D01*
X227312401Y-88937495D01*
X227479495Y-88770401D01*
X227615035Y-88576830D01*
X227714903Y-88362663D01*
X227776063Y-88134408D01*
X227796659Y-87899000D01*
X227794690Y-87876500D01*
X227788024Y-87800300D01*
X227776063Y-87663592D01*
X227714903Y-87435337D01*
X227615035Y-87221171D01*
X227585708Y-87179288D01*
X227479496Y-87027600D01*
X227426409Y-86974513D01*
X227357567Y-86905671D01*
X227324084Y-86844351D01*
X227329068Y-86774659D01*
X227370939Y-86718725D01*
X227401915Y-86701810D01*
X227533331Y-86652796D01*
X227648546Y-86566546D01*
X227734796Y-86451331D01*
X227785091Y-86316483D01*
X227791500Y-86256873D01*
X227791499Y-84461128D01*
X227785091Y-84401517D01*
X227765311Y-84348485D01*
X227734797Y-84266671D01*
X227734793Y-84266664D01*
X227648547Y-84151455D01*
X227648544Y-84151452D01*
X227533335Y-84065206D01*
X227533328Y-84065202D01*
X227398482Y-84014908D01*
X227398483Y-84014908D01*
X227338883Y-84008501D01*
X227338881Y-84008500D01*
X227338873Y-84008500D01*
X227338864Y-84008500D01*
X225543129Y-84008500D01*
X225543123Y-84008501D01*
X225483516Y-84014908D01*
X225348671Y-84065202D01*
X225348664Y-84065206D01*
X225233455Y-84151452D01*
X225233452Y-84151455D01*
X225147206Y-84266664D01*
X225147202Y-84266671D01*
X225096908Y-84401517D01*
X225092813Y-84439610D01*
X225090501Y-84461123D01*
X225090500Y-84461135D01*
X225090500Y-84582100D01*
X225070815Y-84649139D01*
X225018011Y-84694894D01*
X224966500Y-84706100D01*
X224710693Y-84706100D01*
X224584561Y-84731189D01*
X224584555Y-84731191D01*
X224465737Y-84780407D01*
X224358797Y-84851861D01*
X216468847Y-92741811D01*
X216407524Y-92775296D01*
X216337832Y-92770312D01*
X216281899Y-92728440D01*
X216257846Y-92667094D01*
X216242987Y-92525716D01*
X216185726Y-92349487D01*
X216093077Y-92189013D01*
X216019770Y-92107597D01*
X215969093Y-92051313D01*
X215969090Y-92051311D01*
X215969089Y-92051310D01*
X215969088Y-92051309D01*
X215819178Y-91942393D01*
X215819177Y-91942392D01*
X215649904Y-91867026D01*
X215649896Y-91867024D01*
X215468649Y-91828500D01*
X215283351Y-91828500D01*
X215102103Y-91867024D01*
X215102095Y-91867026D01*
X214932822Y-91942392D01*
X214782909Y-92051311D01*
X214782906Y-92051313D01*
X214658922Y-92189014D01*
X214566274Y-92349485D01*
X214509014Y-92525711D01*
X214509013Y-92525713D01*
X214489644Y-92710000D01*
X214509013Y-92894286D01*
X214509014Y-92894288D01*
X214566274Y-93070514D01*
X214616960Y-93158304D01*
X214658923Y-93230987D01*
X214702112Y-93278954D01*
X214782906Y-93368686D01*
X214782909Y-93368688D01*
X214782912Y-93368691D01*
X214854666Y-93420823D01*
X214932822Y-93477607D01*
X215102095Y-93552973D01*
X215102098Y-93552973D01*
X215102101Y-93552975D01*
X215283351Y-93591500D01*
X215319796Y-93591500D01*
X215386835Y-93611185D01*
X215432590Y-93663989D01*
X215442534Y-93733147D01*
X215413509Y-93796703D01*
X215407477Y-93803181D01*
X209863534Y-99347123D01*
X209802211Y-99380608D01*
X209732519Y-99375624D01*
X209725420Y-99372723D01*
X209716035Y-99368544D01*
X209696899Y-99360025D01*
X209696897Y-99360024D01*
X209696896Y-99360024D01*
X209515649Y-99321500D01*
X209330351Y-99321500D01*
X209149103Y-99360024D01*
X209149095Y-99360026D01*
X208979822Y-99435392D01*
X208829909Y-99544311D01*
X208829906Y-99544313D01*
X208705922Y-99682014D01*
X208613274Y-99842485D01*
X208556014Y-100018711D01*
X208556013Y-100018713D01*
X208536644Y-100203000D01*
X201003575Y-100203000D01*
X200996077Y-100190013D01*
X200907277Y-100091390D01*
X200872093Y-100052313D01*
X200872090Y-100052311D01*
X200872089Y-100052310D01*
X200872088Y-100052309D01*
X200722178Y-99943393D01*
X200722177Y-99943392D01*
X200552904Y-99868026D01*
X200552896Y-99868024D01*
X200371649Y-99829500D01*
X200186351Y-99829500D01*
X200005103Y-99868024D01*
X200005095Y-99868026D01*
X199939475Y-99897242D01*
X199870225Y-99906526D01*
X199806949Y-99876897D01*
X199769736Y-99817761D01*
X199765720Y-99796924D01*
X199763784Y-99778500D01*
X199748987Y-99637716D01*
X199691726Y-99461487D01*
X199599077Y-99301013D01*
X199547873Y-99244145D01*
X199475093Y-99163313D01*
X199475090Y-99163311D01*
X199475089Y-99163310D01*
X199475088Y-99163309D01*
X199375148Y-99090698D01*
X199325177Y-99054392D01*
X199155904Y-98979026D01*
X199155896Y-98979024D01*
X198974649Y-98940500D01*
X198789351Y-98940500D01*
X198608103Y-98979024D01*
X198608095Y-98979026D01*
X198438822Y-99054392D01*
X198288909Y-99163311D01*
X198288906Y-99163313D01*
X198193739Y-99269008D01*
X198134252Y-99305657D01*
X198064395Y-99304326D01*
X198006347Y-99265440D01*
X197978537Y-99201343D01*
X197978276Y-99199071D01*
X197970987Y-99129716D01*
X197913726Y-98953487D01*
X197821077Y-98793013D01*
X197770490Y-98736830D01*
X197697093Y-98655313D01*
X197697090Y-98655311D01*
X197697089Y-98655310D01*
X197697088Y-98655309D01*
X197547178Y-98546393D01*
X197547177Y-98546392D01*
X197377904Y-98471026D01*
X197377896Y-98471024D01*
X197196649Y-98432500D01*
X197011351Y-98432500D01*
X196830103Y-98471024D01*
X196830095Y-98471026D01*
X196660822Y-98546392D01*
X196510909Y-98655311D01*
X196510906Y-98655313D01*
X196386922Y-98793014D01*
X196294274Y-98953485D01*
X196237014Y-99129711D01*
X196237013Y-99129713D01*
X196217644Y-99314000D01*
X187534335Y-99314000D01*
X187556987Y-99244284D01*
X187576356Y-99060000D01*
X187556987Y-98875716D01*
X187499726Y-98699487D01*
X187407077Y-98539013D01*
X187358514Y-98485078D01*
X187283093Y-98401313D01*
X187283090Y-98401311D01*
X187283089Y-98401310D01*
X187283088Y-98401309D01*
X187183148Y-98328698D01*
X187133177Y-98292392D01*
X186963904Y-98217026D01*
X186963896Y-98217024D01*
X186782649Y-98178500D01*
X186597351Y-98178500D01*
X186416103Y-98217024D01*
X186416095Y-98217026D01*
X186246822Y-98292392D01*
X186096909Y-98401311D01*
X186096906Y-98401313D01*
X185972922Y-98539014D01*
X185880274Y-98699485D01*
X185823014Y-98875711D01*
X185823013Y-98875713D01*
X185803644Y-99060000D01*
X171659335Y-99060000D01*
X171624726Y-98953487D01*
X171532077Y-98793013D01*
X171481490Y-98736830D01*
X171408093Y-98655313D01*
X171408090Y-98655311D01*
X171408089Y-98655310D01*
X171408088Y-98655309D01*
X171258178Y-98546393D01*
X171258177Y-98546392D01*
X171088904Y-98471026D01*
X171088898Y-98471024D01*
X170969214Y-98445585D01*
X170907732Y-98412393D01*
X170877064Y-98362614D01*
X170862727Y-98318490D01*
X170862726Y-98318489D01*
X170862726Y-98318487D01*
X170770077Y-98158013D01*
X170761832Y-98148856D01*
X170646093Y-98020313D01*
X170646090Y-98020311D01*
X170646089Y-98020310D01*
X170646088Y-98020309D01*
X170496178Y-97911393D01*
X170496177Y-97911392D01*
X170326904Y-97836026D01*
X170326896Y-97836024D01*
X170145649Y-97797500D01*
X169960351Y-97797500D01*
X169779103Y-97836024D01*
X169779095Y-97836026D01*
X169609822Y-97911392D01*
X169459909Y-98020311D01*
X169459906Y-98020313D01*
X169335922Y-98158014D01*
X169243274Y-98318485D01*
X169186014Y-98494711D01*
X169186013Y-98494713D01*
X169166644Y-98679000D01*
X155932165Y-98679000D01*
X156055088Y-98589691D01*
X156179077Y-98451987D01*
X156271726Y-98291513D01*
X156328987Y-98115284D01*
X156348356Y-97931000D01*
X156328987Y-97746716D01*
X156271726Y-97570487D01*
X156251815Y-97536000D01*
X206631644Y-97536000D01*
X206651013Y-97720286D01*
X206651014Y-97720288D01*
X206708274Y-97896514D01*
X206728185Y-97931000D01*
X206800923Y-98056987D01*
X206802735Y-98058999D01*
X206924906Y-98194686D01*
X206924909Y-98194688D01*
X206924912Y-98194691D01*
X207059386Y-98292392D01*
X207074822Y-98303607D01*
X207244095Y-98378973D01*
X207244098Y-98378973D01*
X207244101Y-98378975D01*
X207425351Y-98417500D01*
X207610649Y-98417500D01*
X207791899Y-98378975D01*
X207791902Y-98378973D01*
X207791904Y-98378973D01*
X207927750Y-98318490D01*
X207961178Y-98303607D01*
X208111088Y-98194691D01*
X208125667Y-98178500D01*
X208144114Y-98158012D01*
X208235077Y-98056987D01*
X208327726Y-97896513D01*
X208384987Y-97720284D01*
X208404356Y-97536000D01*
X208384987Y-97351716D01*
X208327726Y-97175487D01*
X208235077Y-97015013D01*
X208186514Y-96961078D01*
X208111093Y-96877313D01*
X208111090Y-96877311D01*
X208111089Y-96877310D01*
X208111088Y-96877309D01*
X207961178Y-96768393D01*
X207961177Y-96768392D01*
X207791904Y-96693026D01*
X207791896Y-96693024D01*
X207610649Y-96654500D01*
X207425351Y-96654500D01*
X207244103Y-96693024D01*
X207244095Y-96693026D01*
X207074822Y-96768392D01*
X206924909Y-96877311D01*
X206924906Y-96877313D01*
X206800922Y-97015014D01*
X206708274Y-97175485D01*
X206651014Y-97351711D01*
X206651013Y-97351713D01*
X206631644Y-97536000D01*
X156251815Y-97536000D01*
X156179077Y-97410013D01*
X156126582Y-97351711D01*
X156055093Y-97272313D01*
X156055090Y-97272311D01*
X156055089Y-97272310D01*
X156055088Y-97272309D01*
X155905178Y-97163393D01*
X155905177Y-97163392D01*
X155735904Y-97088026D01*
X155735896Y-97088024D01*
X155554649Y-97049500D01*
X155369351Y-97049500D01*
X155188103Y-97088024D01*
X155188095Y-97088026D01*
X155018822Y-97163392D01*
X154868909Y-97272311D01*
X154868906Y-97272313D01*
X154744922Y-97410014D01*
X154652274Y-97570485D01*
X154595014Y-97746711D01*
X154595013Y-97746713D01*
X154575644Y-97931000D01*
X132281460Y-97931000D01*
X132272063Y-97823592D01*
X132210903Y-97595337D01*
X132111035Y-97381171D01*
X132090411Y-97351716D01*
X131975494Y-97187597D01*
X131808402Y-97020506D01*
X131808396Y-97020501D01*
X131622842Y-96890575D01*
X131579217Y-96835998D01*
X131572023Y-96766500D01*
X131603546Y-96704145D01*
X131622842Y-96687425D01*
X131669864Y-96654500D01*
X131808401Y-96557495D01*
X131972896Y-96393000D01*
X135892644Y-96393000D01*
X135912013Y-96577286D01*
X135912014Y-96577288D01*
X135969274Y-96753514D01*
X136027853Y-96854975D01*
X136061923Y-96913987D01*
X136105112Y-96961954D01*
X136185906Y-97051686D01*
X136185909Y-97051688D01*
X136185912Y-97051691D01*
X136335822Y-97160607D01*
X136505095Y-97235973D01*
X136505098Y-97235973D01*
X136505101Y-97235975D01*
X136686351Y-97274500D01*
X136871649Y-97274500D01*
X137052899Y-97235975D01*
X137052902Y-97235973D01*
X137052904Y-97235973D01*
X137161553Y-97187599D01*
X137222178Y-97160607D01*
X137372088Y-97051691D01*
X137496077Y-96913987D01*
X137588726Y-96753513D01*
X137645987Y-96577284D01*
X137665356Y-96393000D01*
X137645987Y-96208716D01*
X137623335Y-96139000D01*
X139067644Y-96139000D01*
X139087013Y-96323286D01*
X139087014Y-96323288D01*
X139144274Y-96499514D01*
X139177751Y-96557498D01*
X139236923Y-96659987D01*
X139276683Y-96704145D01*
X139360906Y-96797686D01*
X139360909Y-96797688D01*
X139360912Y-96797691D01*
X139492782Y-96893500D01*
X139510822Y-96906607D01*
X139680095Y-96981973D01*
X139680098Y-96981973D01*
X139680101Y-96981975D01*
X139861351Y-97020500D01*
X140046649Y-97020500D01*
X140227899Y-96981975D01*
X140227902Y-96981973D01*
X140227904Y-96981973D01*
X140284922Y-96956586D01*
X140397178Y-96906607D01*
X140547088Y-96797691D01*
X140554914Y-96789000D01*
X140586866Y-96753513D01*
X140671077Y-96659987D01*
X140763726Y-96499513D01*
X140820987Y-96323284D01*
X140840356Y-96139000D01*
X140820987Y-95954716D01*
X140763726Y-95778487D01*
X140671077Y-95618013D01*
X140619998Y-95561284D01*
X140547093Y-95480313D01*
X140547090Y-95480311D01*
X140547089Y-95480310D01*
X140547088Y-95480309D01*
X140412613Y-95382607D01*
X140397177Y-95371392D01*
X140227904Y-95296026D01*
X140227896Y-95296024D01*
X140046649Y-95257500D01*
X139861351Y-95257500D01*
X139680103Y-95296024D01*
X139680095Y-95296026D01*
X139510822Y-95371392D01*
X139360909Y-95480311D01*
X139360906Y-95480313D01*
X139236922Y-95618014D01*
X139144274Y-95778485D01*
X139087014Y-95954711D01*
X139087013Y-95954713D01*
X139067644Y-96139000D01*
X137623335Y-96139000D01*
X137588726Y-96032487D01*
X137496077Y-95872013D01*
X137444998Y-95815284D01*
X137372093Y-95734313D01*
X137372090Y-95734311D01*
X137372089Y-95734310D01*
X137372088Y-95734309D01*
X137258091Y-95651485D01*
X137222177Y-95625392D01*
X137052904Y-95550026D01*
X137052896Y-95550024D01*
X136871649Y-95511500D01*
X136686351Y-95511500D01*
X136505103Y-95550024D01*
X136505095Y-95550026D01*
X136335822Y-95625392D01*
X136185909Y-95734311D01*
X136185906Y-95734313D01*
X136061922Y-95872014D01*
X135969274Y-96032485D01*
X135912014Y-96208711D01*
X135912013Y-96208713D01*
X135892644Y-96393000D01*
X131972896Y-96393000D01*
X131975495Y-96390401D01*
X132111035Y-96196830D01*
X132210903Y-95982663D01*
X132272063Y-95754408D01*
X132292659Y-95519000D01*
X132290690Y-95496500D01*
X132279745Y-95371393D01*
X132272063Y-95283592D01*
X132225553Y-95110013D01*
X132210905Y-95055344D01*
X132210904Y-95055343D01*
X132210903Y-95055337D01*
X132111035Y-94841171D01*
X132090411Y-94811716D01*
X131975494Y-94647597D01*
X131942897Y-94615000D01*
X158752644Y-94615000D01*
X158772013Y-94799286D01*
X158772014Y-94799288D01*
X158829274Y-94975514D01*
X158841102Y-94996000D01*
X158921923Y-95135987D01*
X158961808Y-95180284D01*
X159045906Y-95273686D01*
X159045909Y-95273688D01*
X159045912Y-95273691D01*
X159159907Y-95356513D01*
X159195822Y-95382607D01*
X159365095Y-95457973D01*
X159365098Y-95457973D01*
X159365101Y-95457975D01*
X159546351Y-95496500D01*
X159731649Y-95496500D01*
X159912899Y-95457975D01*
X159912902Y-95457973D01*
X159912904Y-95457973D01*
X159969922Y-95432586D01*
X160082178Y-95382607D01*
X160207464Y-95291581D01*
X160273269Y-95268102D01*
X160280348Y-95267900D01*
X166591306Y-95267900D01*
X166658345Y-95287585D01*
X166704100Y-95340389D01*
X166714044Y-95409547D01*
X166685019Y-95473103D01*
X166683457Y-95474871D01*
X166668922Y-95491014D01*
X166576274Y-95651485D01*
X166519014Y-95827711D01*
X166519013Y-95827713D01*
X166499644Y-96012000D01*
X166519013Y-96196286D01*
X166519014Y-96196288D01*
X166576274Y-96372514D01*
X166634853Y-96473975D01*
X166668923Y-96532987D01*
X166690990Y-96557495D01*
X166792906Y-96670686D01*
X166792909Y-96670688D01*
X166792912Y-96670691D01*
X166906907Y-96753513D01*
X166942822Y-96779607D01*
X167112095Y-96854973D01*
X167112098Y-96854973D01*
X167112101Y-96854975D01*
X167293351Y-96893500D01*
X167478649Y-96893500D01*
X167659899Y-96854975D01*
X167659902Y-96854973D01*
X167659904Y-96854973D01*
X167757545Y-96811500D01*
X167829178Y-96779607D01*
X167979088Y-96670691D01*
X167993667Y-96654500D01*
X168005951Y-96640855D01*
X168103077Y-96532987D01*
X168195726Y-96372513D01*
X168252987Y-96196284D01*
X168272356Y-96012000D01*
X168252987Y-95827716D01*
X168195726Y-95651487D01*
X168103077Y-95491013D01*
X168029725Y-95409547D01*
X168000420Y-95377000D01*
X189359644Y-95377000D01*
X189379013Y-95561286D01*
X189379014Y-95561288D01*
X189436274Y-95737514D01*
X189494853Y-95838975D01*
X189528923Y-95897987D01*
X189572112Y-95945954D01*
X189652906Y-96035686D01*
X189652909Y-96035688D01*
X189652912Y-96035691D01*
X189795105Y-96139000D01*
X189802822Y-96144607D01*
X189972095Y-96219973D01*
X189972098Y-96219973D01*
X189972101Y-96219975D01*
X190153351Y-96258500D01*
X190338649Y-96258500D01*
X190519899Y-96219975D01*
X190519902Y-96219973D01*
X190519904Y-96219973D01*
X190576922Y-96194586D01*
X190689178Y-96144607D01*
X190839088Y-96035691D01*
X190860420Y-96012000D01*
X190878866Y-95991513D01*
X190963077Y-95897987D01*
X191055726Y-95737513D01*
X191090335Y-95631000D01*
X194820644Y-95631000D01*
X194840013Y-95815286D01*
X194840014Y-95815288D01*
X194897274Y-95991514D01*
X194909102Y-96012000D01*
X194989923Y-96151987D01*
X195029808Y-96196284D01*
X195113906Y-96289686D01*
X195113909Y-96289688D01*
X195113912Y-96289691D01*
X195227907Y-96372513D01*
X195263822Y-96398607D01*
X195433095Y-96473973D01*
X195433098Y-96473973D01*
X195433101Y-96473975D01*
X195614351Y-96512500D01*
X195799649Y-96512500D01*
X195980899Y-96473975D01*
X195980902Y-96473973D01*
X195980904Y-96473973D01*
X196037922Y-96448586D01*
X196150178Y-96398607D01*
X196300088Y-96289691D01*
X196424077Y-96151987D01*
X196516726Y-95991513D01*
X196573987Y-95815284D01*
X196593356Y-95631000D01*
X196573987Y-95446716D01*
X196516726Y-95270487D01*
X196515232Y-95267900D01*
X196471825Y-95192716D01*
X196424077Y-95110013D01*
X196374845Y-95055335D01*
X196321420Y-94996000D01*
X203329644Y-94996000D01*
X203349013Y-95180286D01*
X203349014Y-95180288D01*
X203406274Y-95356514D01*
X203477747Y-95480309D01*
X203498923Y-95516987D01*
X203538808Y-95561284D01*
X203622906Y-95654686D01*
X203622909Y-95654688D01*
X203622912Y-95654691D01*
X203736907Y-95737513D01*
X203772822Y-95763607D01*
X203942095Y-95838973D01*
X203942098Y-95838973D01*
X203942101Y-95838975D01*
X204123351Y-95877500D01*
X204308649Y-95877500D01*
X204489899Y-95838975D01*
X204489902Y-95838973D01*
X204489904Y-95838973D01*
X204546922Y-95813586D01*
X204659178Y-95763607D01*
X204809088Y-95654691D01*
X204830420Y-95631000D01*
X204842113Y-95618013D01*
X204933077Y-95516987D01*
X205025726Y-95356513D01*
X205082987Y-95180284D01*
X205102356Y-94996000D01*
X205082987Y-94811716D01*
X205025726Y-94635487D01*
X204933077Y-94475013D01*
X204884514Y-94421078D01*
X204809093Y-94337313D01*
X204809090Y-94337311D01*
X204809089Y-94337310D01*
X204809088Y-94337309D01*
X204659178Y-94228393D01*
X204659177Y-94228392D01*
X204489904Y-94153026D01*
X204489896Y-94153024D01*
X204308649Y-94114500D01*
X204123351Y-94114500D01*
X203942103Y-94153024D01*
X203942095Y-94153026D01*
X203772822Y-94228392D01*
X203622909Y-94337311D01*
X203622906Y-94337313D01*
X203498922Y-94475014D01*
X203406274Y-94635485D01*
X203349014Y-94811711D01*
X203349013Y-94811713D01*
X203329644Y-94996000D01*
X196321420Y-94996000D01*
X196300093Y-94972313D01*
X196300090Y-94972311D01*
X196300089Y-94972310D01*
X196300088Y-94972309D01*
X196150178Y-94863393D01*
X196150177Y-94863392D01*
X195980904Y-94788026D01*
X195980896Y-94788024D01*
X195799649Y-94749500D01*
X195614351Y-94749500D01*
X195433103Y-94788024D01*
X195433095Y-94788026D01*
X195263822Y-94863392D01*
X195113909Y-94972311D01*
X195113906Y-94972313D01*
X194989922Y-95110014D01*
X194897274Y-95270485D01*
X194840014Y-95446711D01*
X194840013Y-95446713D01*
X194820644Y-95631000D01*
X191090335Y-95631000D01*
X191112987Y-95561284D01*
X191132356Y-95377000D01*
X191112987Y-95192716D01*
X191055726Y-95016487D01*
X190963077Y-94856013D01*
X190911998Y-94799284D01*
X190839093Y-94718313D01*
X190839090Y-94718311D01*
X190839089Y-94718310D01*
X190839088Y-94718309D01*
X190725091Y-94635485D01*
X190689177Y-94609392D01*
X190519904Y-94534026D01*
X190519896Y-94534024D01*
X190338649Y-94495500D01*
X190153351Y-94495500D01*
X189972103Y-94534024D01*
X189972095Y-94534026D01*
X189802822Y-94609392D01*
X189652909Y-94718311D01*
X189652906Y-94718313D01*
X189528922Y-94856014D01*
X189436274Y-95016485D01*
X189379014Y-95192711D01*
X189379013Y-95192713D01*
X189359644Y-95377000D01*
X168000420Y-95377000D01*
X167979093Y-95353313D01*
X167979090Y-95353311D01*
X167979089Y-95353310D01*
X167979088Y-95353309D01*
X167829178Y-95244393D01*
X167829177Y-95244392D01*
X167659904Y-95169026D01*
X167659896Y-95169024D01*
X167478649Y-95130500D01*
X167331204Y-95130500D01*
X167264165Y-95110815D01*
X167218410Y-95058011D01*
X167208466Y-94988853D01*
X167237491Y-94925297D01*
X167243523Y-94918819D01*
X169452341Y-92710000D01*
X205769894Y-92710000D01*
X205789263Y-92894286D01*
X205789264Y-92894288D01*
X205846524Y-93070514D01*
X205897210Y-93158304D01*
X205939173Y-93230987D01*
X205982362Y-93278954D01*
X206063156Y-93368686D01*
X206063159Y-93368688D01*
X206063162Y-93368691D01*
X206134916Y-93420823D01*
X206213072Y-93477607D01*
X206382345Y-93552973D01*
X206382348Y-93552973D01*
X206382351Y-93552975D01*
X206563601Y-93591500D01*
X206748899Y-93591500D01*
X206930149Y-93552975D01*
X206930152Y-93552973D01*
X206930154Y-93552973D01*
X206987172Y-93527586D01*
X207099428Y-93477607D01*
X207249338Y-93368691D01*
X207373327Y-93230987D01*
X207465976Y-93070513D01*
X207523237Y-92894284D01*
X207542606Y-92710000D01*
X207523237Y-92525716D01*
X207465976Y-92349487D01*
X207373327Y-92189013D01*
X207300020Y-92107597D01*
X207249343Y-92051313D01*
X207249340Y-92051311D01*
X207249339Y-92051310D01*
X207249338Y-92051309D01*
X207099428Y-91942393D01*
X207099427Y-91942392D01*
X206930154Y-91867026D01*
X206930146Y-91867024D01*
X206748899Y-91828500D01*
X206563601Y-91828500D01*
X206382353Y-91867024D01*
X206382345Y-91867026D01*
X206213072Y-91942392D01*
X206063159Y-92051311D01*
X206063156Y-92051313D01*
X205939172Y-92189014D01*
X205846524Y-92349485D01*
X205789264Y-92525711D01*
X205789263Y-92525713D01*
X205769894Y-92710000D01*
X169452341Y-92710000D01*
X171830138Y-90332202D01*
X171830139Y-90332201D01*
X171830138Y-90332201D01*
X171830141Y-90332199D01*
X171901593Y-90225263D01*
X171950809Y-90106443D01*
X171975900Y-89980305D01*
X171975900Y-89851695D01*
X171975900Y-89408000D01*
X185803644Y-89408000D01*
X185823013Y-89592286D01*
X185823014Y-89592288D01*
X185880274Y-89768514D01*
X185938853Y-89869975D01*
X185972923Y-89928987D01*
X186014655Y-89975335D01*
X186096906Y-90066686D01*
X186096909Y-90066688D01*
X186096912Y-90066691D01*
X186246822Y-90175607D01*
X186416095Y-90250973D01*
X186416098Y-90250973D01*
X186416101Y-90250975D01*
X186597351Y-90289500D01*
X186782649Y-90289500D01*
X186963899Y-90250975D01*
X186963902Y-90250973D01*
X186963904Y-90250973D01*
X187021665Y-90225256D01*
X187133178Y-90175607D01*
X187283088Y-90066691D01*
X187407077Y-89928987D01*
X187499726Y-89768513D01*
X187556987Y-89592284D01*
X187576356Y-89408000D01*
X187556987Y-89223716D01*
X187499726Y-89047487D01*
X187487898Y-89027000D01*
X205769894Y-89027000D01*
X205789263Y-89211286D01*
X205789264Y-89211288D01*
X205846524Y-89387514D01*
X205898602Y-89477716D01*
X205939173Y-89547987D01*
X205956830Y-89567597D01*
X206063156Y-89685686D01*
X206063159Y-89685688D01*
X206063162Y-89685691D01*
X206177157Y-89768513D01*
X206213072Y-89794607D01*
X206382345Y-89869973D01*
X206382348Y-89869973D01*
X206382351Y-89869975D01*
X206563601Y-89908500D01*
X206748899Y-89908500D01*
X206930149Y-89869975D01*
X206930152Y-89869973D01*
X206930154Y-89869973D01*
X206987172Y-89844586D01*
X207099428Y-89794607D01*
X207249338Y-89685691D01*
X207270670Y-89662000D01*
X207276201Y-89655855D01*
X207373327Y-89547987D01*
X207465976Y-89387513D01*
X207523237Y-89211284D01*
X207542606Y-89027000D01*
X214489644Y-89027000D01*
X214509013Y-89211286D01*
X214509014Y-89211288D01*
X214566274Y-89387514D01*
X214618352Y-89477716D01*
X214658923Y-89547987D01*
X214676580Y-89567597D01*
X214782906Y-89685686D01*
X214782909Y-89685688D01*
X214782912Y-89685691D01*
X214896907Y-89768513D01*
X214932822Y-89794607D01*
X215102095Y-89869973D01*
X215102098Y-89869973D01*
X215102101Y-89869975D01*
X215283351Y-89908500D01*
X215468649Y-89908500D01*
X215649899Y-89869975D01*
X215649902Y-89869973D01*
X215649904Y-89869973D01*
X215706922Y-89844586D01*
X215819178Y-89794607D01*
X215969088Y-89685691D01*
X215990420Y-89662000D01*
X215995951Y-89655855D01*
X216093077Y-89547987D01*
X216185726Y-89387513D01*
X216242987Y-89211284D01*
X216262356Y-89027000D01*
X216242987Y-88842716D01*
X216185726Y-88666487D01*
X216093077Y-88506013D01*
X216041998Y-88449284D01*
X215969093Y-88368313D01*
X215969090Y-88368311D01*
X215969089Y-88368310D01*
X215969088Y-88368309D01*
X215855091Y-88285485D01*
X215819177Y-88259392D01*
X215649904Y-88184026D01*
X215649896Y-88184024D01*
X215468649Y-88145500D01*
X215283351Y-88145500D01*
X215102103Y-88184024D01*
X215102095Y-88184026D01*
X214932822Y-88259392D01*
X214782909Y-88368311D01*
X214782906Y-88368313D01*
X214658922Y-88506014D01*
X214566274Y-88666485D01*
X214509014Y-88842711D01*
X214509013Y-88842713D01*
X214489644Y-89027000D01*
X207542606Y-89027000D01*
X207523237Y-88842716D01*
X207465976Y-88666487D01*
X207373327Y-88506013D01*
X207322248Y-88449284D01*
X207249343Y-88368313D01*
X207249340Y-88368311D01*
X207249339Y-88368310D01*
X207249338Y-88368309D01*
X207135341Y-88285485D01*
X207099427Y-88259392D01*
X206930154Y-88184026D01*
X206930146Y-88184024D01*
X206748899Y-88145500D01*
X206563601Y-88145500D01*
X206382353Y-88184024D01*
X206382345Y-88184026D01*
X206213072Y-88259392D01*
X206063159Y-88368311D01*
X206063156Y-88368313D01*
X205939172Y-88506014D01*
X205846524Y-88666485D01*
X205789264Y-88842711D01*
X205789263Y-88842713D01*
X205769894Y-89027000D01*
X187487898Y-89027000D01*
X187407077Y-88887013D01*
X187346251Y-88819459D01*
X187283093Y-88749313D01*
X187283090Y-88749311D01*
X187283089Y-88749310D01*
X187283088Y-88749309D01*
X187169091Y-88666485D01*
X187133177Y-88640392D01*
X186963904Y-88565026D01*
X186963896Y-88565024D01*
X186782649Y-88526500D01*
X186597351Y-88526500D01*
X186416103Y-88565024D01*
X186416095Y-88565026D01*
X186246822Y-88640392D01*
X186096909Y-88749311D01*
X186096906Y-88749313D01*
X185972922Y-88887014D01*
X185880274Y-89047485D01*
X185823014Y-89223711D01*
X185823013Y-89223713D01*
X185803644Y-89408000D01*
X171975900Y-89408000D01*
X171975900Y-89285861D01*
X171995585Y-89218822D01*
X172007751Y-89202888D01*
X172040077Y-89166987D01*
X172132726Y-89006513D01*
X172189987Y-88830284D01*
X172209356Y-88646000D01*
X172189987Y-88461716D01*
X172132726Y-88285487D01*
X172040077Y-88125013D01*
X171991514Y-88071078D01*
X171916093Y-87987313D01*
X171916090Y-87987311D01*
X171916089Y-87987310D01*
X171916088Y-87987309D01*
X171766178Y-87878393D01*
X171766177Y-87878392D01*
X171596904Y-87803026D01*
X171596896Y-87803024D01*
X171415649Y-87764500D01*
X171230351Y-87764500D01*
X171049103Y-87803024D01*
X171049095Y-87803026D01*
X170879822Y-87878392D01*
X170729909Y-87987311D01*
X170729906Y-87987313D01*
X170605922Y-88125014D01*
X170513274Y-88285485D01*
X170456014Y-88461711D01*
X170456013Y-88461713D01*
X170456013Y-88461716D01*
X170437234Y-88640393D01*
X170436644Y-88646002D01*
X170437011Y-88649495D01*
X170436644Y-88651501D01*
X170436644Y-88652498D01*
X170436462Y-88652498D01*
X170424440Y-88718225D01*
X170376706Y-88769247D01*
X170308965Y-88786363D01*
X170287913Y-88783744D01*
X170278037Y-88781645D01*
X170272649Y-88780500D01*
X170087351Y-88780500D01*
X169906103Y-88819024D01*
X169906095Y-88819026D01*
X169736822Y-88894392D01*
X169586909Y-89003311D01*
X169586906Y-89003313D01*
X169462922Y-89141014D01*
X169370274Y-89301485D01*
X169313014Y-89477711D01*
X169313013Y-89477713D01*
X169293644Y-89662000D01*
X169313013Y-89846286D01*
X169313014Y-89846288D01*
X169370274Y-90022514D01*
X169418731Y-90106444D01*
X169462923Y-90182987D01*
X169500991Y-90225266D01*
X169586906Y-90320686D01*
X169586910Y-90320688D01*
X169586912Y-90320691D01*
X169602756Y-90332202D01*
X169705797Y-90407066D01*
X169748463Y-90462396D01*
X169754442Y-90532009D01*
X169721836Y-90593804D01*
X169720593Y-90595065D01*
X168048497Y-92267160D01*
X167987174Y-92300645D01*
X167917482Y-92295661D01*
X167861549Y-92253789D01*
X167853429Y-92241479D01*
X167809463Y-92165329D01*
X167781175Y-92116332D01*
X167722628Y-92051309D01*
X167657191Y-91978632D01*
X167657188Y-91978630D01*
X167657187Y-91978629D01*
X167657186Y-91978628D01*
X167507276Y-91869712D01*
X167507275Y-91869711D01*
X167338002Y-91794345D01*
X167337994Y-91794343D01*
X167156747Y-91755819D01*
X166971449Y-91755819D01*
X166790201Y-91794343D01*
X166790193Y-91794345D01*
X166620920Y-91869711D01*
X166471007Y-91978630D01*
X166471004Y-91978632D01*
X166347020Y-92116333D01*
X166254372Y-92276804D01*
X166197112Y-92453030D01*
X166197111Y-92453032D01*
X166177742Y-92637319D01*
X166197111Y-92821605D01*
X166197112Y-92821607D01*
X166254372Y-92997833D01*
X166327441Y-93124393D01*
X166347021Y-93158306D01*
X166390210Y-93206273D01*
X166471004Y-93296005D01*
X166471007Y-93296007D01*
X166471010Y-93296010D01*
X166620920Y-93404926D01*
X166656628Y-93420824D01*
X166709864Y-93466073D01*
X166730186Y-93532922D01*
X166711141Y-93600146D01*
X166693874Y-93621784D01*
X166389876Y-93925782D01*
X166328555Y-93959266D01*
X166302197Y-93962100D01*
X160280348Y-93962100D01*
X160213309Y-93942415D01*
X160207481Y-93938431D01*
X160082178Y-93847393D01*
X160082177Y-93847392D01*
X159912904Y-93772026D01*
X159912896Y-93772024D01*
X159731649Y-93733500D01*
X159546351Y-93733500D01*
X159365103Y-93772024D01*
X159365095Y-93772026D01*
X159195822Y-93847392D01*
X159045909Y-93956311D01*
X159045906Y-93956313D01*
X158921922Y-94094014D01*
X158829274Y-94254485D01*
X158772014Y-94430711D01*
X158772013Y-94430713D01*
X158752644Y-94615000D01*
X131942897Y-94615000D01*
X131808402Y-94480506D01*
X131808396Y-94480501D01*
X131622842Y-94350575D01*
X131579217Y-94295998D01*
X131572023Y-94226500D01*
X131603546Y-94164145D01*
X131622842Y-94147425D01*
X131669864Y-94114500D01*
X131808401Y-94017495D01*
X131975495Y-93850401D01*
X132111035Y-93656830D01*
X132210903Y-93442663D01*
X132272063Y-93214408D01*
X132292659Y-92979000D01*
X132272063Y-92743592D01*
X132213684Y-92525716D01*
X132210905Y-92515344D01*
X132210904Y-92515343D01*
X132210903Y-92515337D01*
X132111035Y-92301171D01*
X132093974Y-92276804D01*
X131975494Y-92107597D01*
X131808402Y-91940506D01*
X131808396Y-91940501D01*
X131622842Y-91810575D01*
X131579217Y-91755998D01*
X131572023Y-91686500D01*
X131603546Y-91624145D01*
X131622842Y-91607425D01*
X131645026Y-91591891D01*
X131808401Y-91477495D01*
X131975495Y-91310401D01*
X132111035Y-91116830D01*
X132210903Y-90902663D01*
X132272063Y-90674408D01*
X132292659Y-90439000D01*
X132272063Y-90203592D01*
X132210903Y-89975337D01*
X132111035Y-89761171D01*
X132058182Y-89685688D01*
X131975494Y-89567597D01*
X131808402Y-89400506D01*
X131808396Y-89400501D01*
X131622842Y-89270575D01*
X131579217Y-89215998D01*
X131572023Y-89146500D01*
X131603546Y-89084145D01*
X131622842Y-89067425D01*
X131691287Y-89019499D01*
X131808401Y-88937495D01*
X131975495Y-88770401D01*
X132111035Y-88576830D01*
X132210903Y-88362663D01*
X132271101Y-88138000D01*
X142115644Y-88138000D01*
X142135013Y-88322286D01*
X142135014Y-88322288D01*
X142192274Y-88498514D01*
X142208432Y-88526500D01*
X142284923Y-88658987D01*
X142328112Y-88706954D01*
X142408906Y-88796686D01*
X142408909Y-88796688D01*
X142408912Y-88796691D01*
X142533230Y-88887013D01*
X142558822Y-88905607D01*
X142728095Y-88980973D01*
X142728098Y-88980973D01*
X142728101Y-88980975D01*
X142909351Y-89019500D01*
X143094649Y-89019500D01*
X143275899Y-88980975D01*
X143275902Y-88980973D01*
X143275904Y-88980973D01*
X143332922Y-88955586D01*
X143445178Y-88905607D01*
X143595088Y-88796691D01*
X143604388Y-88786363D01*
X143637751Y-88749309D01*
X143719077Y-88658987D01*
X143811726Y-88498513D01*
X143868987Y-88322284D01*
X143875008Y-88265000D01*
X163578644Y-88265000D01*
X163598013Y-88449286D01*
X163598014Y-88449288D01*
X163655274Y-88625514D01*
X163674600Y-88658987D01*
X163747923Y-88785987D01*
X163787808Y-88830284D01*
X163871906Y-88923686D01*
X163871909Y-88923688D01*
X163871912Y-88923691D01*
X164003782Y-89019500D01*
X164021822Y-89032607D01*
X164191095Y-89107973D01*
X164191098Y-89107973D01*
X164191101Y-89107975D01*
X164372351Y-89146500D01*
X164557649Y-89146500D01*
X164738899Y-89107975D01*
X164738902Y-89107973D01*
X164738904Y-89107973D01*
X164817375Y-89073035D01*
X164908178Y-89032607D01*
X165058088Y-88923691D01*
X165182077Y-88785987D01*
X165274726Y-88625513D01*
X165331987Y-88449284D01*
X165351356Y-88265000D01*
X165331987Y-88080716D01*
X165274726Y-87904487D01*
X165182077Y-87744013D01*
X165130208Y-87686407D01*
X165058093Y-87606313D01*
X165058090Y-87606311D01*
X165058089Y-87606310D01*
X165058088Y-87606309D01*
X164958148Y-87533698D01*
X164908177Y-87497392D01*
X164738904Y-87422026D01*
X164738896Y-87422024D01*
X164557649Y-87383500D01*
X164372351Y-87383500D01*
X164191103Y-87422024D01*
X164191095Y-87422026D01*
X164021822Y-87497392D01*
X163871909Y-87606311D01*
X163871906Y-87606313D01*
X163747922Y-87744014D01*
X163655274Y-87904485D01*
X163598014Y-88080711D01*
X163598013Y-88080713D01*
X163578644Y-88265000D01*
X143875008Y-88265000D01*
X143888356Y-88138000D01*
X143868987Y-87953716D01*
X143811726Y-87777487D01*
X143719077Y-87617013D01*
X143670514Y-87563078D01*
X143595093Y-87479313D01*
X143595090Y-87479311D01*
X143595089Y-87479310D01*
X143595088Y-87479309D01*
X143445178Y-87370393D01*
X143445177Y-87370392D01*
X143275904Y-87295026D01*
X143275896Y-87295024D01*
X143094649Y-87256500D01*
X142909351Y-87256500D01*
X142728103Y-87295024D01*
X142728095Y-87295026D01*
X142558822Y-87370392D01*
X142408909Y-87479311D01*
X142408906Y-87479313D01*
X142284922Y-87617014D01*
X142192274Y-87777485D01*
X142135014Y-87953711D01*
X142135013Y-87953713D01*
X142115644Y-88138000D01*
X132271101Y-88138000D01*
X132272063Y-88134408D01*
X132292659Y-87899000D01*
X132290690Y-87876500D01*
X132284024Y-87800300D01*
X132272063Y-87663592D01*
X132210903Y-87435337D01*
X132111035Y-87221171D01*
X132081708Y-87179288D01*
X131975496Y-87027600D01*
X131922409Y-86974513D01*
X131866696Y-86918800D01*
X134622644Y-86918800D01*
X134642013Y-87103086D01*
X134642014Y-87103088D01*
X134699274Y-87279314D01*
X134758333Y-87381607D01*
X134791923Y-87439787D01*
X134827509Y-87479309D01*
X134915906Y-87577486D01*
X134915909Y-87577488D01*
X134915912Y-87577491D01*
X135065822Y-87686407D01*
X135235095Y-87761773D01*
X135235098Y-87761773D01*
X135235101Y-87761775D01*
X135416351Y-87800300D01*
X135601649Y-87800300D01*
X135782899Y-87761775D01*
X135782902Y-87761773D01*
X135782904Y-87761773D01*
X135839922Y-87736386D01*
X135952178Y-87686407D01*
X136102088Y-87577491D01*
X136226077Y-87439787D01*
X136318726Y-87279313D01*
X136375987Y-87103084D01*
X136395356Y-86918800D01*
X136375987Y-86734516D01*
X136336828Y-86614000D01*
X172722644Y-86614000D01*
X172742013Y-86798286D01*
X172742014Y-86798288D01*
X172799274Y-86974514D01*
X172872343Y-87101074D01*
X172891923Y-87134987D01*
X172931808Y-87179284D01*
X173015906Y-87272686D01*
X173015909Y-87272688D01*
X173015912Y-87272691D01*
X173129907Y-87355513D01*
X173165822Y-87381607D01*
X173335095Y-87456973D01*
X173335098Y-87456973D01*
X173335101Y-87456975D01*
X173516351Y-87495500D01*
X173701649Y-87495500D01*
X173882899Y-87456975D01*
X173882902Y-87456973D01*
X173882904Y-87456973D01*
X173939922Y-87431586D01*
X174052178Y-87381607D01*
X174202088Y-87272691D01*
X174216667Y-87256500D01*
X174228951Y-87242855D01*
X174326077Y-87134987D01*
X174406898Y-86995000D01*
X188089644Y-86995000D01*
X188109013Y-87179286D01*
X188109014Y-87179288D01*
X188166274Y-87355514D01*
X188224853Y-87456975D01*
X188258923Y-87515987D01*
X188302112Y-87563954D01*
X188382906Y-87653686D01*
X188382909Y-87653688D01*
X188382912Y-87653691D01*
X188427942Y-87686407D01*
X188532822Y-87762607D01*
X188702095Y-87837973D01*
X188702098Y-87837973D01*
X188702101Y-87837975D01*
X188883351Y-87876500D01*
X189068649Y-87876500D01*
X189249899Y-87837975D01*
X189249902Y-87837973D01*
X189249904Y-87837973D01*
X189306922Y-87812586D01*
X189419178Y-87762607D01*
X189569088Y-87653691D01*
X189693077Y-87515987D01*
X189785726Y-87355513D01*
X189842987Y-87179284D01*
X189862356Y-86995000D01*
X189842987Y-86810716D01*
X189785726Y-86634487D01*
X189693077Y-86474013D01*
X189644514Y-86420078D01*
X189569093Y-86336313D01*
X189569090Y-86336311D01*
X189569089Y-86336310D01*
X189569088Y-86336309D01*
X189464208Y-86260109D01*
X189419177Y-86227392D01*
X189249904Y-86152026D01*
X189249896Y-86152024D01*
X189068649Y-86113500D01*
X188883351Y-86113500D01*
X188702103Y-86152024D01*
X188702095Y-86152026D01*
X188532822Y-86227392D01*
X188382909Y-86336311D01*
X188382906Y-86336313D01*
X188258922Y-86474014D01*
X188166274Y-86634485D01*
X188109014Y-86810711D01*
X188109013Y-86810713D01*
X188089644Y-86995000D01*
X174406898Y-86995000D01*
X174418726Y-86974513D01*
X174475987Y-86798284D01*
X174495356Y-86614000D01*
X174475987Y-86429716D01*
X174418726Y-86253487D01*
X174326077Y-86093013D01*
X174253043Y-86011900D01*
X174202093Y-85955313D01*
X174202090Y-85955311D01*
X174202089Y-85955310D01*
X174202088Y-85955309D01*
X174052178Y-85846393D01*
X174052177Y-85846392D01*
X173882904Y-85771026D01*
X173882896Y-85771024D01*
X173701649Y-85732500D01*
X173516351Y-85732500D01*
X173335103Y-85771024D01*
X173335095Y-85771026D01*
X173165822Y-85846392D01*
X173015909Y-85955311D01*
X173015906Y-85955313D01*
X172891922Y-86093014D01*
X172799274Y-86253485D01*
X172742014Y-86429711D01*
X172742013Y-86429713D01*
X172722644Y-86614000D01*
X136336828Y-86614000D01*
X136318726Y-86558287D01*
X136226077Y-86397813D01*
X136170702Y-86336313D01*
X136102093Y-86260113D01*
X136102090Y-86260111D01*
X136102089Y-86260110D01*
X136102088Y-86260109D01*
X135953325Y-86152026D01*
X135952177Y-86151192D01*
X135782904Y-86075826D01*
X135782896Y-86075824D01*
X135601649Y-86037300D01*
X135416351Y-86037300D01*
X135235103Y-86075824D01*
X135235095Y-86075826D01*
X135065822Y-86151192D01*
X134915909Y-86260111D01*
X134915906Y-86260113D01*
X134791922Y-86397814D01*
X134699274Y-86558285D01*
X134642014Y-86734511D01*
X134642013Y-86734513D01*
X134622644Y-86918800D01*
X131866696Y-86918800D01*
X131853567Y-86905671D01*
X131820084Y-86844351D01*
X131825068Y-86774659D01*
X131866939Y-86718725D01*
X131897915Y-86701810D01*
X132029331Y-86652796D01*
X132144546Y-86566546D01*
X132230796Y-86451331D01*
X132281091Y-86316483D01*
X132287500Y-86256873D01*
X132287499Y-84709000D01*
X162181644Y-84709000D01*
X162201013Y-84893286D01*
X162201014Y-84893288D01*
X162258274Y-85069514D01*
X162331343Y-85196074D01*
X162350923Y-85229987D01*
X162394112Y-85277954D01*
X162474906Y-85367686D01*
X162474909Y-85367688D01*
X162474912Y-85367691D01*
X162624822Y-85476607D01*
X162794095Y-85551973D01*
X162794098Y-85551973D01*
X162794101Y-85551975D01*
X162975351Y-85590500D01*
X163160649Y-85590500D01*
X163341899Y-85551975D01*
X163341902Y-85551973D01*
X163341904Y-85551973D01*
X163398922Y-85526586D01*
X163511178Y-85476607D01*
X163661088Y-85367691D01*
X163785077Y-85229987D01*
X163877726Y-85069513D01*
X163934987Y-84893284D01*
X163954356Y-84709000D01*
X163934987Y-84524716D01*
X163877726Y-84348487D01*
X163785077Y-84188013D01*
X163708451Y-84102911D01*
X163661093Y-84050313D01*
X163661090Y-84050311D01*
X163661089Y-84050310D01*
X163661088Y-84050309D01*
X163511178Y-83941393D01*
X163511177Y-83941392D01*
X163341904Y-83866026D01*
X163341896Y-83866024D01*
X163160649Y-83827500D01*
X162975351Y-83827500D01*
X162794103Y-83866024D01*
X162794095Y-83866026D01*
X162624822Y-83941392D01*
X162474909Y-84050311D01*
X162474906Y-84050313D01*
X162350922Y-84188014D01*
X162258274Y-84348485D01*
X162201014Y-84524711D01*
X162201013Y-84524713D01*
X162181644Y-84709000D01*
X132287499Y-84709000D01*
X132287499Y-84461128D01*
X132281091Y-84401517D01*
X132261311Y-84348485D01*
X132230797Y-84266671D01*
X132230793Y-84266664D01*
X132144547Y-84151455D01*
X132144544Y-84151452D01*
X132029335Y-84065206D01*
X132029328Y-84065202D01*
X131894482Y-84014908D01*
X131894483Y-84014908D01*
X131834883Y-84008501D01*
X131834881Y-84008500D01*
X131834873Y-84008500D01*
X131834864Y-84008500D01*
X130039129Y-84008500D01*
X130039123Y-84008501D01*
X129979516Y-84014908D01*
X129844671Y-84065202D01*
X129844664Y-84065206D01*
X129729455Y-84151452D01*
X129729452Y-84151455D01*
X129643206Y-84266664D01*
X129643202Y-84266671D01*
X129592908Y-84401517D01*
X129588813Y-84439610D01*
X129586501Y-84461123D01*
X129586500Y-84461135D01*
X129586500Y-86256870D01*
X129586501Y-86256876D01*
X129592908Y-86316483D01*
X129643202Y-86451328D01*
X129643206Y-86451335D01*
X129729452Y-86566544D01*
X129729455Y-86566547D01*
X129844664Y-86652793D01*
X129844671Y-86652797D01*
X129976081Y-86701810D01*
X130032015Y-86743681D01*
X130056432Y-86809145D01*
X130041580Y-86877418D01*
X130020430Y-86905673D01*
X129898503Y-87027600D01*
X129762965Y-87221169D01*
X129762964Y-87221171D01*
X129663098Y-87435335D01*
X129663094Y-87435344D01*
X129601938Y-87663586D01*
X129601936Y-87663596D01*
X129581341Y-87898999D01*
X129078500Y-87898999D01*
X129078500Y-83312000D01*
X179834644Y-83312000D01*
X179854013Y-83496286D01*
X179854014Y-83496288D01*
X179911274Y-83672514D01*
X179946966Y-83734334D01*
X180003923Y-83832987D01*
X180047112Y-83880954D01*
X180127906Y-83970686D01*
X180127909Y-83970688D01*
X180127912Y-83970691D01*
X180257995Y-84065202D01*
X180277822Y-84079607D01*
X180447095Y-84154973D01*
X180447098Y-84154973D01*
X180447101Y-84154975D01*
X180628351Y-84193500D01*
X180813649Y-84193500D01*
X180994899Y-84154975D01*
X180994902Y-84154973D01*
X180994904Y-84154973D01*
X181111836Y-84102911D01*
X181164178Y-84079607D01*
X181314088Y-83970691D01*
X181360970Y-83918623D01*
X191801021Y-83918623D01*
X191820390Y-84102909D01*
X191820391Y-84102911D01*
X191877651Y-84279137D01*
X191948307Y-84401516D01*
X191970300Y-84439610D01*
X192013489Y-84487577D01*
X192094283Y-84577309D01*
X192094286Y-84577311D01*
X192094289Y-84577314D01*
X192193148Y-84649139D01*
X192244199Y-84686230D01*
X192413472Y-84761596D01*
X192413475Y-84761596D01*
X192413478Y-84761598D01*
X192594728Y-84800123D01*
X192780026Y-84800123D01*
X192961276Y-84761598D01*
X192961279Y-84761596D01*
X192961281Y-84761596D01*
X193029576Y-84731189D01*
X193130555Y-84686230D01*
X193280465Y-84577314D01*
X193404454Y-84439610D01*
X193497103Y-84279136D01*
X193554364Y-84102907D01*
X193573733Y-83918623D01*
X193554364Y-83734339D01*
X193497103Y-83558110D01*
X193404454Y-83397636D01*
X193355891Y-83343701D01*
X193280470Y-83259936D01*
X193280467Y-83259934D01*
X193280466Y-83259933D01*
X193280465Y-83259932D01*
X193130555Y-83151016D01*
X193130554Y-83151015D01*
X192961281Y-83075649D01*
X192961273Y-83075647D01*
X192780026Y-83037123D01*
X192594728Y-83037123D01*
X192413480Y-83075647D01*
X192413472Y-83075649D01*
X192244199Y-83151015D01*
X192094286Y-83259934D01*
X192094283Y-83259936D01*
X191970299Y-83397637D01*
X191877651Y-83558108D01*
X191820391Y-83734334D01*
X191820390Y-83734336D01*
X191801021Y-83918623D01*
X181360970Y-83918623D01*
X181438077Y-83832987D01*
X181530726Y-83672513D01*
X181587987Y-83496284D01*
X181607356Y-83312000D01*
X181587987Y-83127716D01*
X181530726Y-82951487D01*
X181438077Y-82791013D01*
X181389514Y-82737078D01*
X181314093Y-82653313D01*
X181314090Y-82653311D01*
X181314089Y-82653310D01*
X181314088Y-82653309D01*
X181164178Y-82544393D01*
X181164177Y-82544392D01*
X180994904Y-82469026D01*
X180994896Y-82469024D01*
X180813649Y-82430500D01*
X180628351Y-82430500D01*
X180447103Y-82469024D01*
X180447095Y-82469026D01*
X180277822Y-82544392D01*
X180127909Y-82653311D01*
X180127906Y-82653313D01*
X180003922Y-82791014D01*
X179911274Y-82951485D01*
X179854014Y-83127711D01*
X179854013Y-83127713D01*
X179834644Y-83312000D01*
X129078500Y-83312000D01*
X129078500Y-81632623D01*
X190277021Y-81632623D01*
X190296390Y-81816909D01*
X190296391Y-81816911D01*
X190353651Y-81993137D01*
X190426720Y-82119697D01*
X190446300Y-82153610D01*
X190489489Y-82201577D01*
X190570283Y-82291309D01*
X190570286Y-82291311D01*
X190570289Y-82291314D01*
X190720199Y-82400230D01*
X190889472Y-82475596D01*
X190889475Y-82475596D01*
X190889478Y-82475598D01*
X191070728Y-82514123D01*
X191256026Y-82514123D01*
X191437276Y-82475598D01*
X191437279Y-82475596D01*
X191437281Y-82475596D01*
X191494299Y-82450209D01*
X191606555Y-82400230D01*
X191756465Y-82291314D01*
X191880454Y-82153610D01*
X191973103Y-81993136D01*
X192030364Y-81816907D01*
X192049733Y-81632623D01*
X192030364Y-81448339D01*
X191973103Y-81272110D01*
X191880454Y-81111636D01*
X191808396Y-81031607D01*
X191756470Y-80973936D01*
X191756467Y-80973934D01*
X191756466Y-80973933D01*
X191756465Y-80973932D01*
X191606555Y-80865016D01*
X191606554Y-80865015D01*
X191437281Y-80789649D01*
X191437273Y-80789647D01*
X191256026Y-80751123D01*
X191070728Y-80751123D01*
X190889480Y-80789647D01*
X190889472Y-80789649D01*
X190720199Y-80865015D01*
X190570286Y-80973934D01*
X190570283Y-80973936D01*
X190446299Y-81111637D01*
X190353651Y-81272108D01*
X190296391Y-81448334D01*
X190296390Y-81448336D01*
X190277021Y-81632623D01*
X129078500Y-81632623D01*
X129078500Y-80264000D01*
X183390644Y-80264000D01*
X183410013Y-80448286D01*
X183410014Y-80448288D01*
X183467274Y-80624514D01*
X183540343Y-80751074D01*
X183559923Y-80784987D01*
X183564120Y-80789648D01*
X183683906Y-80922686D01*
X183683909Y-80922688D01*
X183683912Y-80922691D01*
X183754445Y-80973936D01*
X183833822Y-81031607D01*
X184003095Y-81106973D01*
X184003098Y-81106973D01*
X184003101Y-81106975D01*
X184184351Y-81145500D01*
X184369649Y-81145500D01*
X184550899Y-81106975D01*
X184550902Y-81106973D01*
X184550904Y-81106973D01*
X184607922Y-81081586D01*
X184720178Y-81031607D01*
X184870088Y-80922691D01*
X184994077Y-80784987D01*
X185086726Y-80624513D01*
X185143987Y-80448284D01*
X185163356Y-80264000D01*
X185143987Y-80079716D01*
X185086726Y-79903487D01*
X184994077Y-79743013D01*
X184912751Y-79652691D01*
X184870093Y-79605313D01*
X184870090Y-79605311D01*
X184870089Y-79605310D01*
X184870088Y-79605309D01*
X184770148Y-79532698D01*
X184720177Y-79496392D01*
X184550904Y-79421026D01*
X184550896Y-79421024D01*
X184369649Y-79382500D01*
X184184351Y-79382500D01*
X184003103Y-79421024D01*
X184003095Y-79421026D01*
X183833822Y-79496392D01*
X183683909Y-79605311D01*
X183683906Y-79605313D01*
X183559922Y-79743014D01*
X183467274Y-79903485D01*
X183410014Y-80079711D01*
X183410013Y-80079713D01*
X183390644Y-80264000D01*
X129078500Y-80264000D01*
X129078500Y-78486000D01*
X139575644Y-78486000D01*
X139595013Y-78670286D01*
X139595014Y-78670288D01*
X139652274Y-78846514D01*
X139710853Y-78947975D01*
X139744923Y-79006987D01*
X139788112Y-79054954D01*
X139868906Y-79144686D01*
X139868909Y-79144688D01*
X139868912Y-79144691D01*
X140018822Y-79253607D01*
X140188095Y-79328973D01*
X140188098Y-79328973D01*
X140188101Y-79328975D01*
X140369351Y-79367500D01*
X140554649Y-79367500D01*
X140735899Y-79328975D01*
X140735902Y-79328973D01*
X140735904Y-79328973D01*
X140792922Y-79303586D01*
X140905178Y-79253607D01*
X141055088Y-79144691D01*
X141094866Y-79100514D01*
X141179072Y-79006993D01*
X141179072Y-79006991D01*
X141179077Y-79006987D01*
X141181569Y-79002669D01*
X141190659Y-78994000D01*
X167515644Y-78994000D01*
X167535013Y-79178286D01*
X167535014Y-79178288D01*
X167592274Y-79354514D01*
X167608432Y-79382500D01*
X167684923Y-79514987D01*
X167728112Y-79562954D01*
X167808906Y-79652686D01*
X167808909Y-79652688D01*
X167808912Y-79652691D01*
X167933230Y-79743013D01*
X167958822Y-79761607D01*
X168128095Y-79836973D01*
X168128098Y-79836973D01*
X168128101Y-79836975D01*
X168309351Y-79875500D01*
X168494649Y-79875500D01*
X168675899Y-79836975D01*
X168675902Y-79836973D01*
X168675904Y-79836973D01*
X168732922Y-79811586D01*
X168845178Y-79761607D01*
X168995088Y-79652691D01*
X169119077Y-79514987D01*
X169211726Y-79354513D01*
X169268987Y-79178284D01*
X169288356Y-78994000D01*
X169268987Y-78809716D01*
X169246335Y-78740000D01*
X186565644Y-78740000D01*
X186585013Y-78924286D01*
X186585014Y-78924288D01*
X186642274Y-79100514D01*
X186667777Y-79144686D01*
X186734923Y-79260987D01*
X186778112Y-79308954D01*
X186858906Y-79398686D01*
X186858909Y-79398688D01*
X186858912Y-79398691D01*
X186993386Y-79496392D01*
X187008822Y-79507607D01*
X187178095Y-79582973D01*
X187178098Y-79582973D01*
X187178101Y-79582975D01*
X187359351Y-79621500D01*
X187544649Y-79621500D01*
X187725899Y-79582975D01*
X187725902Y-79582973D01*
X187725904Y-79582973D01*
X187782922Y-79557586D01*
X187895178Y-79507607D01*
X188045088Y-79398691D01*
X188059667Y-79382500D01*
X188107862Y-79328973D01*
X188169077Y-79260987D01*
X188261726Y-79100513D01*
X188318987Y-78924284D01*
X188338356Y-78740000D01*
X188318987Y-78555716D01*
X188261726Y-78379487D01*
X188169077Y-78219013D01*
X188120514Y-78165078D01*
X188045093Y-78081313D01*
X188045090Y-78081311D01*
X188045089Y-78081310D01*
X188045088Y-78081309D01*
X187895178Y-77972393D01*
X187895177Y-77972392D01*
X187725904Y-77897026D01*
X187725896Y-77897024D01*
X187544649Y-77858500D01*
X187359351Y-77858500D01*
X187178103Y-77897024D01*
X187178095Y-77897026D01*
X187008822Y-77972392D01*
X186858909Y-78081311D01*
X186858906Y-78081313D01*
X186734922Y-78219014D01*
X186642274Y-78379485D01*
X186585014Y-78555711D01*
X186585013Y-78555713D01*
X186565644Y-78740000D01*
X169246335Y-78740000D01*
X169211726Y-78633487D01*
X169119077Y-78473013D01*
X169070514Y-78419078D01*
X168995093Y-78335313D01*
X168995090Y-78335311D01*
X168995089Y-78335310D01*
X168995088Y-78335309D01*
X168845178Y-78226393D01*
X168845177Y-78226392D01*
X168675904Y-78151026D01*
X168675896Y-78151024D01*
X168494649Y-78112500D01*
X168309351Y-78112500D01*
X168128103Y-78151024D01*
X168128095Y-78151026D01*
X167958822Y-78226392D01*
X167808909Y-78335311D01*
X167808906Y-78335313D01*
X167684922Y-78473014D01*
X167592274Y-78633485D01*
X167535014Y-78809711D01*
X167535013Y-78809713D01*
X167515644Y-78994000D01*
X141190659Y-78994000D01*
X141232129Y-78954453D01*
X141300735Y-78941223D01*
X141327279Y-78946733D01*
X141331095Y-78947972D01*
X141331101Y-78947975D01*
X141512351Y-78986500D01*
X141697649Y-78986500D01*
X141878899Y-78947975D01*
X141878902Y-78947973D01*
X141878904Y-78947973D01*
X141935922Y-78922586D01*
X142048178Y-78872607D01*
X142198088Y-78763691D01*
X142219420Y-78740000D01*
X142224951Y-78733855D01*
X142322077Y-78625987D01*
X142414726Y-78465513D01*
X142471987Y-78289284D01*
X142491356Y-78105000D01*
X142471987Y-77920716D01*
X142414726Y-77744487D01*
X142322077Y-77584013D01*
X142240751Y-77493691D01*
X142198093Y-77446313D01*
X142198090Y-77446311D01*
X142198089Y-77446310D01*
X142198088Y-77446309D01*
X142098148Y-77373698D01*
X142048177Y-77337392D01*
X141878904Y-77262026D01*
X141878896Y-77262024D01*
X141697649Y-77223500D01*
X141512351Y-77223500D01*
X141331103Y-77262024D01*
X141331095Y-77262026D01*
X141161822Y-77337392D01*
X141011909Y-77446311D01*
X141011906Y-77446313D01*
X140887922Y-77584014D01*
X140887917Y-77584020D01*
X140885422Y-77588342D01*
X140834853Y-77636555D01*
X140766245Y-77649774D01*
X140739723Y-77644268D01*
X140735901Y-77643026D01*
X140735899Y-77643025D01*
X140735896Y-77643024D01*
X140735892Y-77643023D01*
X140554649Y-77604500D01*
X140369351Y-77604500D01*
X140188103Y-77643024D01*
X140188095Y-77643026D01*
X140018822Y-77718392D01*
X139868909Y-77827311D01*
X139868906Y-77827313D01*
X139744922Y-77965014D01*
X139652274Y-78125485D01*
X139595014Y-78301711D01*
X139595013Y-78301713D01*
X139575644Y-78486000D01*
X129078500Y-78486000D01*
X129078500Y-76835000D01*
X132844644Y-76835000D01*
X132864013Y-77019286D01*
X132864014Y-77019288D01*
X132921274Y-77195514D01*
X132937432Y-77223500D01*
X133013923Y-77355987D01*
X133057112Y-77403954D01*
X133137906Y-77493686D01*
X133137909Y-77493688D01*
X133137912Y-77493691D01*
X133262230Y-77584013D01*
X133287822Y-77602607D01*
X133457095Y-77677973D01*
X133457098Y-77677973D01*
X133457101Y-77677975D01*
X133638351Y-77716500D01*
X133823649Y-77716500D01*
X134004899Y-77677975D01*
X134004902Y-77677973D01*
X134004904Y-77677973D01*
X134080606Y-77644268D01*
X134174178Y-77602607D01*
X134324088Y-77493691D01*
X134448077Y-77355987D01*
X134540726Y-77195513D01*
X134575335Y-77089000D01*
X178945644Y-77089000D01*
X178965013Y-77273286D01*
X178965014Y-77273288D01*
X179022274Y-77449514D01*
X179047777Y-77493686D01*
X179114923Y-77609987D01*
X179145790Y-77644268D01*
X179238906Y-77747686D01*
X179238909Y-77747688D01*
X179238912Y-77747691D01*
X179388822Y-77856607D01*
X179558095Y-77931973D01*
X179558098Y-77931973D01*
X179558101Y-77931975D01*
X179739351Y-77970500D01*
X179924649Y-77970500D01*
X180105899Y-77931975D01*
X180105902Y-77931973D01*
X180105904Y-77931973D01*
X180162922Y-77906586D01*
X180275178Y-77856607D01*
X180425088Y-77747691D01*
X180549077Y-77609987D01*
X180641726Y-77449513D01*
X180698987Y-77273284D01*
X180718356Y-77089000D01*
X180698987Y-76904716D01*
X180641726Y-76728487D01*
X180549077Y-76568013D01*
X180499092Y-76512499D01*
X180425093Y-76430313D01*
X180425090Y-76430311D01*
X180425089Y-76430310D01*
X180425088Y-76430309D01*
X180275178Y-76321393D01*
X180275177Y-76321392D01*
X180105904Y-76246026D01*
X180105896Y-76246024D01*
X179924649Y-76207500D01*
X179739351Y-76207500D01*
X179558103Y-76246024D01*
X179558095Y-76246026D01*
X179388822Y-76321392D01*
X179238909Y-76430311D01*
X179238906Y-76430313D01*
X179114922Y-76568014D01*
X179022274Y-76728485D01*
X178965014Y-76904711D01*
X178965013Y-76904713D01*
X178945644Y-77089000D01*
X134575335Y-77089000D01*
X134597987Y-77019284D01*
X134617356Y-76835000D01*
X134597987Y-76650716D01*
X134540726Y-76474487D01*
X134540430Y-76473975D01*
X134515220Y-76430309D01*
X134448077Y-76314013D01*
X134399514Y-76260078D01*
X134324093Y-76176313D01*
X134324090Y-76176311D01*
X134324089Y-76176310D01*
X134324088Y-76176309D01*
X134224148Y-76103698D01*
X134174177Y-76067392D01*
X134004904Y-75992026D01*
X134004896Y-75992024D01*
X133823649Y-75953500D01*
X133638351Y-75953500D01*
X133457103Y-75992024D01*
X133457095Y-75992026D01*
X133287822Y-76067392D01*
X133137909Y-76176311D01*
X133137906Y-76176313D01*
X133013922Y-76314014D01*
X132921274Y-76474485D01*
X132864014Y-76650711D01*
X132864013Y-76650713D01*
X132844644Y-76835000D01*
X129078500Y-76835000D01*
X129078500Y-75631000D01*
X134688644Y-75631000D01*
X134708013Y-75815286D01*
X134708014Y-75815288D01*
X134765274Y-75991514D01*
X134765570Y-75992026D01*
X134857923Y-76151987D01*
X134901112Y-76199954D01*
X134981906Y-76289686D01*
X134981909Y-76289688D01*
X134981912Y-76289691D01*
X135040981Y-76332607D01*
X135131822Y-76398607D01*
X135301095Y-76473973D01*
X135301098Y-76473973D01*
X135301101Y-76473975D01*
X135482351Y-76512500D01*
X135667649Y-76512500D01*
X135848899Y-76473975D01*
X135848902Y-76473973D01*
X135848904Y-76473973D01*
X135946965Y-76430313D01*
X136018178Y-76398607D01*
X136168088Y-76289691D01*
X136292077Y-76151987D01*
X136384726Y-75991513D01*
X136441987Y-75815284D01*
X136461356Y-75631000D01*
X136441987Y-75446716D01*
X136384726Y-75270487D01*
X136292077Y-75110013D01*
X136243514Y-75056078D01*
X136168093Y-74972313D01*
X136168090Y-74972311D01*
X136168089Y-74972310D01*
X136168088Y-74972309D01*
X136018178Y-74863393D01*
X136018177Y-74863392D01*
X135848904Y-74788026D01*
X135848896Y-74788024D01*
X135770632Y-74771389D01*
X150156500Y-74771389D01*
X150156500Y-74944611D01*
X150164677Y-74996239D01*
X150180851Y-75098362D01*
X150183598Y-75115701D01*
X150237127Y-75280445D01*
X150315768Y-75434788D01*
X150417586Y-75574928D01*
X150540072Y-75697414D01*
X150680212Y-75799232D01*
X150834555Y-75877873D01*
X150999299Y-75931402D01*
X151170389Y-75958500D01*
X151170390Y-75958500D01*
X151343610Y-75958500D01*
X151343611Y-75958500D01*
X151514701Y-75931402D01*
X151679445Y-75877873D01*
X151833788Y-75799232D01*
X151973928Y-75697414D01*
X152096414Y-75574928D01*
X152103627Y-75565000D01*
X182628644Y-75565000D01*
X182648013Y-75749286D01*
X182648014Y-75749288D01*
X182705274Y-75925514D01*
X182743379Y-75991513D01*
X182797923Y-76085987D01*
X182841112Y-76133954D01*
X182921906Y-76223686D01*
X182921909Y-76223688D01*
X182921912Y-76223691D01*
X183046230Y-76314013D01*
X183071822Y-76332607D01*
X183241095Y-76407973D01*
X183241098Y-76407973D01*
X183241101Y-76407975D01*
X183422351Y-76446500D01*
X183607649Y-76446500D01*
X183788899Y-76407975D01*
X183788902Y-76407973D01*
X183788904Y-76407973D01*
X183845922Y-76382586D01*
X183958178Y-76332607D01*
X184108088Y-76223691D01*
X184122667Y-76207500D01*
X184172652Y-76151985D01*
X184232077Y-76085987D01*
X184324726Y-75925513D01*
X184381987Y-75749284D01*
X184401356Y-75565000D01*
X184381987Y-75380716D01*
X184324726Y-75204487D01*
X184232077Y-75044013D01*
X184178853Y-74984902D01*
X184108093Y-74906313D01*
X184108090Y-74906311D01*
X184108089Y-74906310D01*
X184108088Y-74906309D01*
X183958178Y-74797393D01*
X183958177Y-74797392D01*
X183788904Y-74722026D01*
X183788896Y-74722024D01*
X183607649Y-74683500D01*
X183422351Y-74683500D01*
X183241103Y-74722024D01*
X183241095Y-74722026D01*
X183071822Y-74797392D01*
X182921909Y-74906311D01*
X182921906Y-74906313D01*
X182797922Y-75044014D01*
X182705274Y-75204485D01*
X182648014Y-75380711D01*
X182648013Y-75380713D01*
X182628644Y-75565000D01*
X152103627Y-75565000D01*
X152198232Y-75434788D01*
X152276873Y-75280445D01*
X152330402Y-75115701D01*
X152357500Y-74944611D01*
X152357500Y-74771389D01*
X152330402Y-74600299D01*
X152322954Y-74577377D01*
X173132021Y-74577377D01*
X173151390Y-74761663D01*
X173151391Y-74761665D01*
X173208651Y-74937891D01*
X173268563Y-75041662D01*
X173301300Y-75098364D01*
X173329694Y-75129899D01*
X173425283Y-75236063D01*
X173425286Y-75236065D01*
X173425289Y-75236068D01*
X173575199Y-75344984D01*
X173744472Y-75420350D01*
X173744475Y-75420350D01*
X173744478Y-75420352D01*
X173925728Y-75458877D01*
X174111026Y-75458877D01*
X174292276Y-75420352D01*
X174292279Y-75420350D01*
X174292281Y-75420350D01*
X174356016Y-75391973D01*
X174461555Y-75344984D01*
X174611465Y-75236068D01*
X174620466Y-75226072D01*
X174639902Y-75204485D01*
X174735454Y-75098364D01*
X174828103Y-74937890D01*
X174885364Y-74761661D01*
X174904733Y-74577377D01*
X174885364Y-74393093D01*
X174828103Y-74216864D01*
X174735454Y-74056390D01*
X174684076Y-73999329D01*
X174611470Y-73918690D01*
X174611467Y-73918688D01*
X174611466Y-73918687D01*
X174611465Y-73918686D01*
X174511525Y-73846075D01*
X174461554Y-73809769D01*
X174292281Y-73734403D01*
X174292273Y-73734401D01*
X174111026Y-73695877D01*
X173925728Y-73695877D01*
X173744480Y-73734401D01*
X173744472Y-73734403D01*
X173575199Y-73809769D01*
X173425286Y-73918688D01*
X173425283Y-73918690D01*
X173301299Y-74056391D01*
X173208651Y-74216862D01*
X173151391Y-74393088D01*
X173151390Y-74393090D01*
X173132021Y-74577377D01*
X152322954Y-74577377D01*
X152276873Y-74435555D01*
X152198232Y-74281212D01*
X152096414Y-74141072D01*
X151973928Y-74018586D01*
X151833788Y-73916768D01*
X151679445Y-73838127D01*
X151514701Y-73784598D01*
X151514699Y-73784597D01*
X151514698Y-73784597D01*
X151383271Y-73763781D01*
X151343611Y-73757500D01*
X151170389Y-73757500D01*
X151130728Y-73763781D01*
X150999302Y-73784597D01*
X150834552Y-73838128D01*
X150680211Y-73916768D01*
X150600256Y-73974859D01*
X150540072Y-74018586D01*
X150540070Y-74018588D01*
X150540069Y-74018588D01*
X150417588Y-74141069D01*
X150417588Y-74141070D01*
X150417586Y-74141072D01*
X150383138Y-74188485D01*
X150315768Y-74281211D01*
X150237128Y-74435552D01*
X150183597Y-74600302D01*
X150159967Y-74749500D01*
X150156500Y-74771389D01*
X135770632Y-74771389D01*
X135667649Y-74749500D01*
X135482351Y-74749500D01*
X135301103Y-74788024D01*
X135301095Y-74788026D01*
X135131822Y-74863392D01*
X134981909Y-74972311D01*
X134981906Y-74972313D01*
X134857922Y-75110014D01*
X134765274Y-75270485D01*
X134708014Y-75446711D01*
X134708013Y-75446713D01*
X134688644Y-75631000D01*
X129078500Y-75631000D01*
X129078500Y-74549000D01*
X132590644Y-74549000D01*
X132610013Y-74733286D01*
X132610014Y-74733288D01*
X132667274Y-74909514D01*
X132719156Y-74999376D01*
X132759923Y-75069987D01*
X132801080Y-75115697D01*
X132883906Y-75207686D01*
X132883909Y-75207688D01*
X132883912Y-75207691D01*
X133010732Y-75299831D01*
X133033822Y-75316607D01*
X133203095Y-75391973D01*
X133203098Y-75391973D01*
X133203101Y-75391975D01*
X133384351Y-75430500D01*
X133569649Y-75430500D01*
X133750899Y-75391975D01*
X133750902Y-75391973D01*
X133750904Y-75391973D01*
X133856442Y-75344984D01*
X133920178Y-75316607D01*
X134070088Y-75207691D01*
X134194077Y-75069987D01*
X134286726Y-74909513D01*
X134343987Y-74733284D01*
X134363356Y-74549000D01*
X134343987Y-74364716D01*
X134286726Y-74188487D01*
X134194077Y-74028013D01*
X134145514Y-73974078D01*
X134070093Y-73890313D01*
X134070090Y-73890311D01*
X134070089Y-73890310D01*
X134070088Y-73890309D01*
X133926987Y-73786340D01*
X133920177Y-73781392D01*
X133750904Y-73706026D01*
X133750896Y-73706024D01*
X133569649Y-73667500D01*
X133384351Y-73667500D01*
X133203103Y-73706024D01*
X133203095Y-73706026D01*
X133033822Y-73781392D01*
X132883909Y-73890311D01*
X132883906Y-73890313D01*
X132759922Y-74028014D01*
X132667274Y-74188485D01*
X132610014Y-74364711D01*
X132610013Y-74364713D01*
X132590644Y-74549000D01*
X129078500Y-74549000D01*
X129078500Y-72898000D01*
X139067644Y-72898000D01*
X139087013Y-73082286D01*
X139087014Y-73082288D01*
X139144274Y-73258514D01*
X139212997Y-73377546D01*
X139236923Y-73418987D01*
X139280112Y-73466954D01*
X139360906Y-73556686D01*
X139360909Y-73556688D01*
X139360912Y-73556691D01*
X139510822Y-73665607D01*
X139680095Y-73740973D01*
X139680098Y-73740973D01*
X139680101Y-73740975D01*
X139861351Y-73779500D01*
X140046649Y-73779500D01*
X140227899Y-73740975D01*
X140227902Y-73740973D01*
X140227904Y-73740973D01*
X140284922Y-73715586D01*
X140397178Y-73665607D01*
X140452614Y-73625329D01*
X140518421Y-73601850D01*
X140586475Y-73617675D01*
X140598386Y-73625330D01*
X140653822Y-73665607D01*
X140823095Y-73740973D01*
X140823098Y-73740973D01*
X140823101Y-73740975D01*
X141004351Y-73779500D01*
X141189649Y-73779500D01*
X141370899Y-73740975D01*
X141370902Y-73740973D01*
X141370904Y-73740973D01*
X141427922Y-73715586D01*
X141540178Y-73665607D01*
X141595614Y-73625329D01*
X141661421Y-73601850D01*
X141729475Y-73617675D01*
X141741386Y-73625330D01*
X141796822Y-73665607D01*
X141966095Y-73740973D01*
X141966098Y-73740973D01*
X141966101Y-73740975D01*
X142147351Y-73779500D01*
X142332649Y-73779500D01*
X142513899Y-73740975D01*
X142513902Y-73740973D01*
X142513904Y-73740973D01*
X142570922Y-73715586D01*
X142683178Y-73665607D01*
X142738614Y-73625329D01*
X142804421Y-73601850D01*
X142872475Y-73617675D01*
X142884386Y-73625330D01*
X142939822Y-73665607D01*
X143109095Y-73740973D01*
X143109098Y-73740973D01*
X143109101Y-73740975D01*
X143290351Y-73779500D01*
X143475649Y-73779500D01*
X143656899Y-73740975D01*
X143656902Y-73740973D01*
X143656904Y-73740973D01*
X143713922Y-73715586D01*
X143826178Y-73665607D01*
X143976088Y-73556691D01*
X144100077Y-73418987D01*
X144192726Y-73258513D01*
X144249987Y-73082284D01*
X144269356Y-72898000D01*
X144249987Y-72713716D01*
X144206320Y-72579325D01*
X188516221Y-72579325D01*
X188516221Y-72579336D01*
X188535975Y-72893335D01*
X188535976Y-72893342D01*
X188594935Y-73202414D01*
X188692162Y-73501647D01*
X188692164Y-73501652D01*
X188826126Y-73786334D01*
X188826129Y-73786340D01*
X188994716Y-74051992D01*
X188994719Y-74051996D01*
X189195271Y-74294421D01*
X189195273Y-74294423D01*
X189195275Y-74294425D01*
X189300346Y-74393093D01*
X189424633Y-74509807D01*
X189424643Y-74509815D01*
X189679169Y-74694739D01*
X189679174Y-74694741D01*
X189679181Y-74694747D01*
X189954899Y-74846325D01*
X189954904Y-74846327D01*
X189954906Y-74846328D01*
X189954907Y-74846329D01*
X190247436Y-74962149D01*
X190247439Y-74962150D01*
X190551164Y-75040133D01*
X190552192Y-75040397D01*
X190580816Y-75044013D01*
X190864335Y-75079830D01*
X190864344Y-75079830D01*
X190864347Y-75079831D01*
X190864349Y-75079831D01*
X191178981Y-75079831D01*
X191178983Y-75079831D01*
X191178986Y-75079830D01*
X191178994Y-75079830D01*
X191365258Y-75056299D01*
X191491138Y-75040397D01*
X191795890Y-74962150D01*
X191795893Y-74962149D01*
X192088422Y-74846329D01*
X192088423Y-74846328D01*
X192088421Y-74846328D01*
X192088431Y-74846325D01*
X192364149Y-74694747D01*
X192618695Y-74509809D01*
X192848055Y-74294425D01*
X193048612Y-74051994D01*
X193217202Y-73786338D01*
X193351168Y-73501646D01*
X193448396Y-73202410D01*
X193507353Y-72893346D01*
X193509547Y-72858472D01*
X193527109Y-72579336D01*
X193527109Y-72579325D01*
X193507354Y-72265326D01*
X193507353Y-72265319D01*
X193507353Y-72265316D01*
X193460429Y-72019329D01*
X196756197Y-72019329D01*
X196756197Y-72019332D01*
X196776029Y-72246017D01*
X196776031Y-72246028D01*
X196834923Y-72465819D01*
X196834926Y-72465828D01*
X196931096Y-72672063D01*
X196931097Y-72672065D01*
X197061619Y-72858472D01*
X197222523Y-73019376D01*
X197222526Y-73019378D01*
X197408931Y-73149899D01*
X197615169Y-73246070D01*
X197814259Y-73299415D01*
X197873919Y-73335780D01*
X197904448Y-73398626D01*
X197906165Y-73419190D01*
X197906165Y-74847201D01*
X197906166Y-74847207D01*
X197912573Y-74906814D01*
X197962867Y-75041659D01*
X197962871Y-75041666D01*
X198049117Y-75156875D01*
X198049120Y-75156878D01*
X198164329Y-75243124D01*
X198164336Y-75243128D01*
X198299182Y-75293422D01*
X198299181Y-75293422D01*
X198306109Y-75294166D01*
X198358792Y-75299831D01*
X200054537Y-75299830D01*
X200114148Y-75293422D01*
X200248996Y-75243127D01*
X200364211Y-75156877D01*
X200450461Y-75041662D01*
X200450769Y-75040837D01*
X200451295Y-75040133D01*
X200454712Y-75033877D01*
X200455611Y-75034368D01*
X200492639Y-74984902D01*
X200558102Y-74960483D01*
X200626376Y-74975333D01*
X200654633Y-74996486D01*
X200657523Y-74999376D01*
X200657526Y-74999378D01*
X200843931Y-75129899D01*
X201050169Y-75226070D01*
X201050174Y-75226071D01*
X201050176Y-75226072D01*
X201087471Y-75236065D01*
X201269973Y-75284966D01*
X201431895Y-75299132D01*
X201496663Y-75304799D01*
X201496665Y-75304799D01*
X201496667Y-75304799D01*
X201553472Y-75299829D01*
X201723357Y-75284966D01*
X201943161Y-75226070D01*
X202149399Y-75129899D01*
X202335804Y-74999378D01*
X202496712Y-74838470D01*
X202540090Y-74776519D01*
X202594666Y-74732894D01*
X202664164Y-74725700D01*
X202726519Y-74757222D01*
X202743238Y-74776517D01*
X202751297Y-74788026D01*
X202786620Y-74838473D01*
X202947523Y-74999376D01*
X202947526Y-74999378D01*
X203133931Y-75129899D01*
X203340169Y-75226070D01*
X203340174Y-75226071D01*
X203340176Y-75226072D01*
X203377471Y-75236065D01*
X203559973Y-75284966D01*
X203721895Y-75299132D01*
X203786663Y-75304799D01*
X203786665Y-75304799D01*
X203786667Y-75304799D01*
X203843472Y-75299829D01*
X204013357Y-75284966D01*
X204233161Y-75226070D01*
X204439399Y-75129899D01*
X204625804Y-74999378D01*
X204786712Y-74838470D01*
X204830090Y-74776519D01*
X204884666Y-74732894D01*
X204954164Y-74725700D01*
X205016519Y-74757222D01*
X205033238Y-74776517D01*
X205041297Y-74788026D01*
X205076620Y-74838473D01*
X205237523Y-74999376D01*
X205237526Y-74999378D01*
X205423931Y-75129899D01*
X205630169Y-75226070D01*
X205630174Y-75226071D01*
X205630176Y-75226072D01*
X205667471Y-75236065D01*
X205849973Y-75284966D01*
X206011895Y-75299132D01*
X206076663Y-75304799D01*
X206076665Y-75304799D01*
X206076667Y-75304799D01*
X206133472Y-75299829D01*
X206303357Y-75284966D01*
X206523161Y-75226070D01*
X206729399Y-75129899D01*
X206915804Y-74999378D01*
X207076712Y-74838470D01*
X207120090Y-74776519D01*
X207174666Y-74732894D01*
X207244164Y-74725700D01*
X207306519Y-74757222D01*
X207323238Y-74776517D01*
X207331297Y-74788026D01*
X207366620Y-74838473D01*
X207527523Y-74999376D01*
X207527526Y-74999378D01*
X207713931Y-75129899D01*
X207920169Y-75226070D01*
X207920174Y-75226071D01*
X207920176Y-75226072D01*
X207957471Y-75236065D01*
X208139973Y-75284966D01*
X208301895Y-75299132D01*
X208366663Y-75304799D01*
X208366665Y-75304799D01*
X208366667Y-75304799D01*
X208423472Y-75299829D01*
X208593357Y-75284966D01*
X208813161Y-75226070D01*
X209019399Y-75129899D01*
X209205804Y-74999378D01*
X209366712Y-74838470D01*
X209497233Y-74652065D01*
X209593404Y-74445827D01*
X209652300Y-74226023D01*
X209672133Y-73999331D01*
X209652300Y-73772639D01*
X209594437Y-73556691D01*
X209593406Y-73552842D01*
X209593403Y-73552833D01*
X209530988Y-73418985D01*
X209497233Y-73346597D01*
X209366712Y-73160192D01*
X209366710Y-73160189D01*
X209205806Y-72999285D01*
X209019399Y-72868763D01*
X209019397Y-72868762D01*
X208813162Y-72772592D01*
X208813153Y-72772589D01*
X208593362Y-72713697D01*
X208593352Y-72713695D01*
X208519447Y-72707229D01*
X208454379Y-72681776D01*
X208413401Y-72625184D01*
X208410852Y-72579325D01*
X213516221Y-72579325D01*
X213516221Y-72579336D01*
X213535975Y-72893335D01*
X213535976Y-72893342D01*
X213594935Y-73202414D01*
X213692162Y-73501647D01*
X213692164Y-73501652D01*
X213826126Y-73786334D01*
X213826129Y-73786340D01*
X213994716Y-74051992D01*
X213994719Y-74051996D01*
X214195271Y-74294421D01*
X214195273Y-74294423D01*
X214195275Y-74294425D01*
X214300346Y-74393093D01*
X214424633Y-74509807D01*
X214424643Y-74509815D01*
X214679169Y-74694739D01*
X214679174Y-74694741D01*
X214679181Y-74694747D01*
X214954899Y-74846325D01*
X214954904Y-74846327D01*
X214954906Y-74846328D01*
X214954907Y-74846329D01*
X215247436Y-74962149D01*
X215247439Y-74962150D01*
X215551164Y-75040133D01*
X215552192Y-75040397D01*
X215580816Y-75044013D01*
X215864335Y-75079830D01*
X215864344Y-75079830D01*
X215864347Y-75079831D01*
X215864349Y-75079831D01*
X216178981Y-75079831D01*
X216178983Y-75079831D01*
X216178986Y-75079830D01*
X216178994Y-75079830D01*
X216365258Y-75056299D01*
X216491138Y-75040397D01*
X216795890Y-74962150D01*
X216795893Y-74962149D01*
X217088422Y-74846329D01*
X217088423Y-74846328D01*
X217088421Y-74846328D01*
X217088431Y-74846325D01*
X217364149Y-74694747D01*
X217618695Y-74509809D01*
X217848055Y-74294425D01*
X218048612Y-74051994D01*
X218217202Y-73786338D01*
X218351168Y-73501646D01*
X218448396Y-73202410D01*
X218507353Y-72893346D01*
X218509547Y-72858472D01*
X218527109Y-72579336D01*
X218527109Y-72579325D01*
X218507354Y-72265326D01*
X218507353Y-72265319D01*
X218507353Y-72265316D01*
X218448396Y-71956252D01*
X218351168Y-71657016D01*
X218333984Y-71620499D01*
X218248242Y-71438288D01*
X218217202Y-71372324D01*
X218048612Y-71106668D01*
X217992945Y-71039378D01*
X217848058Y-70864240D01*
X217848056Y-70864238D01*
X217714692Y-70739000D01*
X217618695Y-70648853D01*
X217618692Y-70648851D01*
X217618686Y-70648846D01*
X217364160Y-70463922D01*
X217364153Y-70463917D01*
X217364149Y-70463915D01*
X217088431Y-70312337D01*
X217088428Y-70312335D01*
X217088423Y-70312333D01*
X217088422Y-70312332D01*
X216795893Y-70196512D01*
X216795890Y-70196511D01*
X216491141Y-70118265D01*
X216491128Y-70118263D01*
X216178994Y-70078831D01*
X216178983Y-70078831D01*
X215864347Y-70078831D01*
X215864335Y-70078831D01*
X215552201Y-70118263D01*
X215552188Y-70118265D01*
X215247439Y-70196511D01*
X215247436Y-70196512D01*
X214954907Y-70312332D01*
X214954906Y-70312333D01*
X214679181Y-70463915D01*
X214679169Y-70463922D01*
X214424643Y-70648846D01*
X214424633Y-70648854D01*
X214195273Y-70864238D01*
X214195271Y-70864240D01*
X213994719Y-71106665D01*
X213994716Y-71106669D01*
X213826129Y-71372321D01*
X213826126Y-71372327D01*
X213692164Y-71657009D01*
X213692162Y-71657014D01*
X213594935Y-71956247D01*
X213535976Y-72265319D01*
X213535975Y-72265326D01*
X213516221Y-72579325D01*
X208410852Y-72579325D01*
X208409524Y-72555422D01*
X208417873Y-72531299D01*
X208448404Y-72465827D01*
X208507300Y-72246023D01*
X208527133Y-72019331D01*
X208507300Y-71792639D01*
X208448404Y-71572835D01*
X208417873Y-71507362D01*
X208407382Y-71438288D01*
X208435901Y-71374504D01*
X208494377Y-71336264D01*
X208519447Y-71331432D01*
X208593357Y-71324966D01*
X208813161Y-71266070D01*
X209019399Y-71169899D01*
X209205804Y-71039378D01*
X209366712Y-70878470D01*
X209497233Y-70692065D01*
X209593404Y-70485827D01*
X209652300Y-70266023D01*
X209672133Y-70039331D01*
X209652300Y-69812639D01*
X209593404Y-69592835D01*
X209497233Y-69386597D01*
X209366712Y-69200192D01*
X209366710Y-69200189D01*
X209205806Y-69039285D01*
X209019399Y-68908763D01*
X209019397Y-68908762D01*
X208813162Y-68812592D01*
X208813153Y-68812589D01*
X208593362Y-68753697D01*
X208593358Y-68753696D01*
X208593357Y-68753696D01*
X208593356Y-68753695D01*
X208593351Y-68753695D01*
X208366667Y-68733863D01*
X208366663Y-68733863D01*
X208139978Y-68753695D01*
X208139967Y-68753697D01*
X207920176Y-68812589D01*
X207920167Y-68812592D01*
X207713932Y-68908762D01*
X207713930Y-68908763D01*
X207527523Y-69039285D01*
X207366618Y-69200190D01*
X207323240Y-69262142D01*
X207268663Y-69305767D01*
X207199165Y-69312961D01*
X207136810Y-69281438D01*
X207120090Y-69262142D01*
X207076711Y-69200190D01*
X206915806Y-69039285D01*
X206729399Y-68908763D01*
X206729397Y-68908762D01*
X206523162Y-68812592D01*
X206523153Y-68812589D01*
X206303362Y-68753697D01*
X206303358Y-68753696D01*
X206303357Y-68753696D01*
X206303356Y-68753695D01*
X206303351Y-68753695D01*
X206076667Y-68733863D01*
X206076663Y-68733863D01*
X205849978Y-68753695D01*
X205849967Y-68753697D01*
X205630176Y-68812589D01*
X205630167Y-68812592D01*
X205423932Y-68908762D01*
X205423930Y-68908763D01*
X205237523Y-69039285D01*
X205076618Y-69200190D01*
X205033240Y-69262142D01*
X204978663Y-69305767D01*
X204909165Y-69312961D01*
X204846810Y-69281438D01*
X204830090Y-69262142D01*
X204786711Y-69200190D01*
X204625806Y-69039285D01*
X204439399Y-68908763D01*
X204439397Y-68908762D01*
X204233162Y-68812592D01*
X204233153Y-68812589D01*
X204013362Y-68753697D01*
X204013358Y-68753696D01*
X204013357Y-68753696D01*
X204013356Y-68753695D01*
X204013351Y-68753695D01*
X203786667Y-68733863D01*
X203786663Y-68733863D01*
X203559978Y-68753695D01*
X203559967Y-68753697D01*
X203340176Y-68812589D01*
X203340167Y-68812592D01*
X203133932Y-68908762D01*
X203133930Y-68908763D01*
X202947523Y-69039285D01*
X202786618Y-69200190D01*
X202743240Y-69262142D01*
X202688663Y-69305767D01*
X202619165Y-69312961D01*
X202556810Y-69281438D01*
X202540090Y-69262142D01*
X202496711Y-69200190D01*
X202335806Y-69039285D01*
X202149399Y-68908763D01*
X202149397Y-68908762D01*
X201943162Y-68812592D01*
X201943153Y-68812589D01*
X201723362Y-68753697D01*
X201723358Y-68753696D01*
X201723357Y-68753696D01*
X201723356Y-68753695D01*
X201723351Y-68753695D01*
X201496667Y-68733863D01*
X201496663Y-68733863D01*
X201269978Y-68753695D01*
X201269967Y-68753697D01*
X201050176Y-68812589D01*
X201050167Y-68812592D01*
X200843932Y-68908762D01*
X200843930Y-68908763D01*
X200657523Y-69039285D01*
X200496618Y-69200190D01*
X200453240Y-69262142D01*
X200398663Y-69305767D01*
X200329165Y-69312961D01*
X200266810Y-69281438D01*
X200250090Y-69262142D01*
X200206711Y-69200190D01*
X200045806Y-69039285D01*
X199859399Y-68908763D01*
X199859397Y-68908762D01*
X199653162Y-68812592D01*
X199653153Y-68812589D01*
X199433362Y-68753697D01*
X199433358Y-68753696D01*
X199433357Y-68753696D01*
X199433356Y-68753695D01*
X199433351Y-68753695D01*
X199206667Y-68733863D01*
X199206663Y-68733863D01*
X198979978Y-68753695D01*
X198979967Y-68753697D01*
X198760176Y-68812589D01*
X198760167Y-68812592D01*
X198553932Y-68908762D01*
X198553930Y-68908763D01*
X198367523Y-69039285D01*
X198206619Y-69200189D01*
X198076097Y-69386596D01*
X198076096Y-69386598D01*
X197979926Y-69592833D01*
X197979923Y-69592842D01*
X197921031Y-69812633D01*
X197921029Y-69812644D01*
X197901197Y-70039329D01*
X197901197Y-70039332D01*
X197921029Y-70266017D01*
X197921031Y-70266028D01*
X197979923Y-70485819D01*
X197979925Y-70485823D01*
X197979926Y-70485827D01*
X198010455Y-70551296D01*
X198020947Y-70620374D01*
X197992427Y-70684158D01*
X197933951Y-70722397D01*
X197908882Y-70727229D01*
X197834977Y-70733695D01*
X197834967Y-70733697D01*
X197615176Y-70792589D01*
X197615167Y-70792592D01*
X197408932Y-70888762D01*
X197408930Y-70888763D01*
X197222523Y-71019285D01*
X197061619Y-71180189D01*
X196931097Y-71366596D01*
X196931096Y-71366598D01*
X196834926Y-71572833D01*
X196834923Y-71572842D01*
X196776031Y-71792633D01*
X196776029Y-71792644D01*
X196756197Y-72019329D01*
X193460429Y-72019329D01*
X193448396Y-71956252D01*
X193351168Y-71657016D01*
X193333984Y-71620499D01*
X193248242Y-71438288D01*
X193217202Y-71372324D01*
X193048612Y-71106668D01*
X192992945Y-71039378D01*
X192848058Y-70864240D01*
X192848056Y-70864238D01*
X192714692Y-70739000D01*
X192618695Y-70648853D01*
X192618692Y-70648851D01*
X192618686Y-70648846D01*
X192364160Y-70463922D01*
X192364153Y-70463917D01*
X192364149Y-70463915D01*
X192088431Y-70312337D01*
X192088428Y-70312335D01*
X192088423Y-70312333D01*
X192088422Y-70312332D01*
X191795893Y-70196512D01*
X191795890Y-70196511D01*
X191491141Y-70118265D01*
X191491128Y-70118263D01*
X191178994Y-70078831D01*
X191178983Y-70078831D01*
X190864347Y-70078831D01*
X190864335Y-70078831D01*
X190552201Y-70118263D01*
X190552188Y-70118265D01*
X190247439Y-70196511D01*
X190247436Y-70196512D01*
X189954907Y-70312332D01*
X189954906Y-70312333D01*
X189679181Y-70463915D01*
X189679169Y-70463922D01*
X189424643Y-70648846D01*
X189424633Y-70648854D01*
X189195273Y-70864238D01*
X189195271Y-70864240D01*
X188994719Y-71106665D01*
X188994716Y-71106669D01*
X188826129Y-71372321D01*
X188826126Y-71372327D01*
X188692164Y-71657009D01*
X188692162Y-71657014D01*
X188594935Y-71956247D01*
X188535976Y-72265319D01*
X188535975Y-72265326D01*
X188516221Y-72579325D01*
X144206320Y-72579325D01*
X144192726Y-72537487D01*
X144100077Y-72377013D01*
X144051514Y-72323078D01*
X143976093Y-72239313D01*
X143976090Y-72239311D01*
X143976089Y-72239310D01*
X143976088Y-72239309D01*
X143826178Y-72130393D01*
X143826177Y-72130392D01*
X143656904Y-72055026D01*
X143656896Y-72055024D01*
X143475649Y-72016500D01*
X143290351Y-72016500D01*
X143109103Y-72055024D01*
X143109095Y-72055026D01*
X142939822Y-72130392D01*
X142884385Y-72170670D01*
X142818578Y-72194149D01*
X142750524Y-72178323D01*
X142738615Y-72170670D01*
X142683177Y-72130392D01*
X142513904Y-72055026D01*
X142513896Y-72055024D01*
X142332649Y-72016500D01*
X142147351Y-72016500D01*
X141966103Y-72055024D01*
X141966095Y-72055026D01*
X141796822Y-72130392D01*
X141741385Y-72170670D01*
X141675578Y-72194149D01*
X141607524Y-72178323D01*
X141595615Y-72170670D01*
X141540177Y-72130392D01*
X141370904Y-72055026D01*
X141370896Y-72055024D01*
X141189649Y-72016500D01*
X141004351Y-72016500D01*
X140823103Y-72055024D01*
X140823095Y-72055026D01*
X140653822Y-72130392D01*
X140598385Y-72170670D01*
X140532578Y-72194149D01*
X140464524Y-72178323D01*
X140452615Y-72170670D01*
X140397177Y-72130392D01*
X140227904Y-72055026D01*
X140227896Y-72055024D01*
X140046649Y-72016500D01*
X139861351Y-72016500D01*
X139680103Y-72055024D01*
X139680095Y-72055026D01*
X139510822Y-72130392D01*
X139360909Y-72239311D01*
X139360906Y-72239313D01*
X139236922Y-72377014D01*
X139144274Y-72537485D01*
X139087014Y-72713711D01*
X139087013Y-72713713D01*
X139067644Y-72898000D01*
X129078500Y-72898000D01*
X129078500Y-70739000D01*
X164213644Y-70739000D01*
X164233013Y-70923286D01*
X164233014Y-70923288D01*
X164290274Y-71099514D01*
X164363343Y-71226074D01*
X164382923Y-71259987D01*
X164426112Y-71307954D01*
X164506906Y-71397686D01*
X164506909Y-71397688D01*
X164506912Y-71397691D01*
X164656822Y-71506607D01*
X164826095Y-71581973D01*
X164826098Y-71581973D01*
X164826101Y-71581975D01*
X165007351Y-71620500D01*
X165192649Y-71620500D01*
X165373899Y-71581975D01*
X165373902Y-71581973D01*
X165373904Y-71581973D01*
X165430922Y-71556586D01*
X165543178Y-71506607D01*
X165693088Y-71397691D01*
X165817077Y-71259987D01*
X165909726Y-71099513D01*
X165966987Y-70923284D01*
X165986356Y-70739000D01*
X165966987Y-70554716D01*
X165909726Y-70378487D01*
X165817077Y-70218013D01*
X165727264Y-70118265D01*
X165693093Y-70080313D01*
X165693090Y-70080311D01*
X165693089Y-70080310D01*
X165693088Y-70080309D01*
X165543178Y-69971393D01*
X165543177Y-69971392D01*
X165373904Y-69896026D01*
X165373896Y-69896024D01*
X165192649Y-69857500D01*
X165007351Y-69857500D01*
X164826103Y-69896024D01*
X164826095Y-69896026D01*
X164656822Y-69971392D01*
X164506909Y-70080311D01*
X164506906Y-70080313D01*
X164382922Y-70218014D01*
X164290274Y-70378485D01*
X164233014Y-70554711D01*
X164233013Y-70554713D01*
X164213644Y-70739000D01*
X129078500Y-70739000D01*
X129078500Y-66677706D01*
X129078559Y-66674999D01*
X130152422Y-66674999D01*
X130152422Y-66675000D01*
X130172722Y-67062339D01*
X130231833Y-67435552D01*
X130233398Y-67445433D01*
X130320737Y-67771389D01*
X130333788Y-67820094D01*
X130472787Y-68182197D01*
X130648877Y-68527793D01*
X130860122Y-68853082D01*
X130945488Y-68958500D01*
X131104219Y-69154516D01*
X131378484Y-69428781D01*
X131528144Y-69549973D01*
X131679917Y-69672877D01*
X131964212Y-69857500D01*
X132005211Y-69884125D01*
X132350806Y-70060214D01*
X132712913Y-70199214D01*
X133087567Y-70299602D01*
X133470662Y-70360278D01*
X133836576Y-70379455D01*
X133857999Y-70380578D01*
X133858000Y-70380578D01*
X133858001Y-70380578D01*
X133878301Y-70379514D01*
X134245338Y-70360278D01*
X134628433Y-70299602D01*
X135003087Y-70199214D01*
X135365194Y-70060214D01*
X135710789Y-69884125D01*
X136036084Y-69672876D01*
X136337516Y-69428781D01*
X136611781Y-69154516D01*
X136855876Y-68853084D01*
X137067125Y-68527789D01*
X137243214Y-68182194D01*
X137382214Y-67820087D01*
X137395263Y-67771389D01*
X150156500Y-67771389D01*
X150156500Y-67944611D01*
X150183598Y-68115701D01*
X150237127Y-68280445D01*
X150315768Y-68434788D01*
X150417586Y-68574928D01*
X150540072Y-68697414D01*
X150680212Y-68799232D01*
X150834555Y-68877873D01*
X150999299Y-68931402D01*
X151170389Y-68958500D01*
X151170390Y-68958500D01*
X151343610Y-68958500D01*
X151343611Y-68958500D01*
X151514701Y-68931402D01*
X151679445Y-68877873D01*
X151833788Y-68799232D01*
X151960734Y-68707000D01*
X164213644Y-68707000D01*
X164233013Y-68891286D01*
X164233014Y-68891288D01*
X164290274Y-69067514D01*
X164363343Y-69194074D01*
X164382923Y-69227987D01*
X164413676Y-69262142D01*
X164506906Y-69365686D01*
X164506909Y-69365688D01*
X164506912Y-69365691D01*
X164656822Y-69474607D01*
X164826095Y-69549973D01*
X164826098Y-69549973D01*
X164826101Y-69549975D01*
X165007351Y-69588500D01*
X165192649Y-69588500D01*
X165373899Y-69549975D01*
X165373902Y-69549973D01*
X165373904Y-69549973D01*
X165430922Y-69524586D01*
X165543178Y-69474607D01*
X165693088Y-69365691D01*
X165817077Y-69227987D01*
X165909726Y-69067513D01*
X165966987Y-68891284D01*
X165986356Y-68707000D01*
X165966987Y-68522716D01*
X165909726Y-68346487D01*
X165817077Y-68186013D01*
X165753768Y-68115701D01*
X165693093Y-68048313D01*
X165693090Y-68048311D01*
X165693089Y-68048310D01*
X165693088Y-68048309D01*
X165543178Y-67939393D01*
X165543177Y-67939392D01*
X165373904Y-67864026D01*
X165373896Y-67864024D01*
X165192649Y-67825500D01*
X165007351Y-67825500D01*
X164826103Y-67864024D01*
X164826095Y-67864026D01*
X164656822Y-67939392D01*
X164506909Y-68048311D01*
X164506906Y-68048313D01*
X164382922Y-68186014D01*
X164290274Y-68346485D01*
X164233014Y-68522711D01*
X164233013Y-68522713D01*
X164213644Y-68707000D01*
X151960734Y-68707000D01*
X151973928Y-68697414D01*
X152096414Y-68574928D01*
X152198232Y-68434788D01*
X152276873Y-68280445D01*
X152330402Y-68115701D01*
X152357500Y-67944611D01*
X152357500Y-67771389D01*
X152330402Y-67600299D01*
X152276873Y-67435555D01*
X152198232Y-67281212D01*
X152096414Y-67141072D01*
X151973928Y-67018586D01*
X151833788Y-66916768D01*
X151679445Y-66838127D01*
X151514701Y-66784598D01*
X151514699Y-66784597D01*
X151514698Y-66784597D01*
X151383271Y-66763781D01*
X151343611Y-66757500D01*
X151170389Y-66757500D01*
X151130728Y-66763781D01*
X150999302Y-66784597D01*
X150834552Y-66838128D01*
X150680211Y-66916768D01*
X150600256Y-66974859D01*
X150540072Y-67018586D01*
X150540070Y-67018588D01*
X150540069Y-67018588D01*
X150417588Y-67141069D01*
X150417588Y-67141070D01*
X150417586Y-67141072D01*
X150373859Y-67201256D01*
X150315768Y-67281211D01*
X150237128Y-67435552D01*
X150183597Y-67600302D01*
X150176522Y-67644973D01*
X150156500Y-67771389D01*
X137395263Y-67771389D01*
X137482602Y-67445433D01*
X137543278Y-67062338D01*
X137556922Y-66802000D01*
X144401644Y-66802000D01*
X144421013Y-66986286D01*
X144421014Y-66986288D01*
X144478274Y-67162514D01*
X144546804Y-67281211D01*
X144570923Y-67322987D01*
X144614112Y-67370954D01*
X144694906Y-67460686D01*
X144694909Y-67460688D01*
X144694912Y-67460691D01*
X144844822Y-67569607D01*
X145014095Y-67644973D01*
X145014098Y-67644973D01*
X145014101Y-67644975D01*
X145195351Y-67683500D01*
X145380649Y-67683500D01*
X145561899Y-67644975D01*
X145561902Y-67644973D01*
X145561904Y-67644973D01*
X145662236Y-67600302D01*
X145731178Y-67569607D01*
X145881088Y-67460691D01*
X145894827Y-67445433D01*
X145907951Y-67430855D01*
X146005077Y-67322987D01*
X146097726Y-67162513D01*
X146154987Y-66986284D01*
X146174356Y-66802000D01*
X146161008Y-66674999D01*
X219814422Y-66674999D01*
X219814422Y-66675000D01*
X219834722Y-67062339D01*
X219893833Y-67435552D01*
X219895398Y-67445433D01*
X219982737Y-67771389D01*
X219995788Y-67820094D01*
X220134787Y-68182197D01*
X220310877Y-68527793D01*
X220522122Y-68853082D01*
X220607488Y-68958500D01*
X220766219Y-69154516D01*
X221040484Y-69428781D01*
X221190144Y-69549973D01*
X221341917Y-69672877D01*
X221626212Y-69857500D01*
X221667211Y-69884125D01*
X222012806Y-70060214D01*
X222374913Y-70199214D01*
X222749567Y-70299602D01*
X223132662Y-70360278D01*
X223498576Y-70379455D01*
X223519999Y-70380578D01*
X223520000Y-70380578D01*
X223520001Y-70380578D01*
X223540301Y-70379514D01*
X223907338Y-70360278D01*
X224290433Y-70299602D01*
X224665087Y-70199214D01*
X225027194Y-70060214D01*
X225372789Y-69884125D01*
X225698084Y-69672876D01*
X225999516Y-69428781D01*
X226273781Y-69154516D01*
X226517876Y-68853084D01*
X226729125Y-68527789D01*
X226905214Y-68182194D01*
X227044214Y-67820087D01*
X227144602Y-67445433D01*
X227205278Y-67062338D01*
X227225578Y-66675000D01*
X227205278Y-66287662D01*
X227144602Y-65904567D01*
X227044214Y-65529913D01*
X226905214Y-65167806D01*
X226729125Y-64822211D01*
X226729122Y-64822206D01*
X226517877Y-64496917D01*
X226273784Y-64195488D01*
X226273781Y-64195484D01*
X225999516Y-63921219D01*
X225698084Y-63677124D01*
X225698082Y-63677122D01*
X225372793Y-63465877D01*
X225027197Y-63289787D01*
X224665094Y-63150788D01*
X224665087Y-63150786D01*
X224290433Y-63050398D01*
X224290429Y-63050397D01*
X224290428Y-63050397D01*
X223907339Y-62989722D01*
X223520001Y-62969422D01*
X223519999Y-62969422D01*
X223132660Y-62989722D01*
X222749572Y-63050397D01*
X222749570Y-63050397D01*
X222374905Y-63150788D01*
X222012802Y-63289787D01*
X221667206Y-63465877D01*
X221341917Y-63677122D01*
X221040488Y-63921215D01*
X221040480Y-63921222D01*
X220766222Y-64195480D01*
X220766215Y-64195488D01*
X220522122Y-64496917D01*
X220310877Y-64822206D01*
X220134787Y-65167802D01*
X219995788Y-65529905D01*
X219895397Y-65904570D01*
X219895397Y-65904572D01*
X219834722Y-66287660D01*
X219814422Y-66674999D01*
X146161008Y-66674999D01*
X146154987Y-66617716D01*
X146097726Y-66441487D01*
X146005077Y-66281013D01*
X145956514Y-66227078D01*
X145881093Y-66143313D01*
X145881090Y-66143311D01*
X145881089Y-66143310D01*
X145881088Y-66143309D01*
X145731178Y-66034393D01*
X145731177Y-66034392D01*
X145561904Y-65959026D01*
X145561896Y-65959024D01*
X145380649Y-65920500D01*
X145195351Y-65920500D01*
X145014103Y-65959024D01*
X145014095Y-65959026D01*
X144844822Y-66034392D01*
X144694909Y-66143311D01*
X144694906Y-66143313D01*
X144570922Y-66281014D01*
X144478274Y-66441485D01*
X144421014Y-66617711D01*
X144421013Y-66617713D01*
X144401644Y-66802000D01*
X137556922Y-66802000D01*
X137563578Y-66675000D01*
X137543278Y-66287662D01*
X137482602Y-65904567D01*
X137382214Y-65529913D01*
X137243214Y-65167806D01*
X137067125Y-64822211D01*
X137067122Y-64822206D01*
X136950744Y-64643000D01*
X164213644Y-64643000D01*
X164233013Y-64827286D01*
X164233014Y-64827288D01*
X164290274Y-65003514D01*
X164311521Y-65040315D01*
X164382923Y-65163987D01*
X164386362Y-65167806D01*
X164506906Y-65301686D01*
X164506909Y-65301688D01*
X164506912Y-65301691D01*
X164656822Y-65410607D01*
X164826095Y-65485973D01*
X164826098Y-65485973D01*
X164826101Y-65485975D01*
X165007351Y-65524500D01*
X165192649Y-65524500D01*
X165373899Y-65485975D01*
X165373902Y-65485973D01*
X165373904Y-65485973D01*
X165430922Y-65460586D01*
X165543178Y-65410607D01*
X165693088Y-65301691D01*
X165817077Y-65163987D01*
X165909726Y-65003513D01*
X165966987Y-64827284D01*
X165986356Y-64643000D01*
X165966987Y-64458716D01*
X165909726Y-64282487D01*
X165817077Y-64122013D01*
X165768514Y-64068078D01*
X165693093Y-63984313D01*
X165693090Y-63984311D01*
X165693089Y-63984310D01*
X165693088Y-63984309D01*
X165543178Y-63875393D01*
X165543177Y-63875392D01*
X165373904Y-63800026D01*
X165373896Y-63800024D01*
X165192649Y-63761500D01*
X165007351Y-63761500D01*
X164826103Y-63800024D01*
X164826095Y-63800026D01*
X164656822Y-63875392D01*
X164506909Y-63984311D01*
X164506906Y-63984313D01*
X164382922Y-64122014D01*
X164290274Y-64282485D01*
X164233014Y-64458711D01*
X164233013Y-64458713D01*
X164213644Y-64643000D01*
X136950744Y-64643000D01*
X136855877Y-64496917D01*
X136611784Y-64195488D01*
X136611781Y-64195484D01*
X136337516Y-63921219D01*
X136036084Y-63677124D01*
X136036082Y-63677122D01*
X135710793Y-63465877D01*
X135365197Y-63289787D01*
X135003094Y-63150788D01*
X135003087Y-63150786D01*
X134628433Y-63050398D01*
X134628429Y-63050397D01*
X134628428Y-63050397D01*
X134245339Y-62989722D01*
X133858001Y-62969422D01*
X133857999Y-62969422D01*
X133470660Y-62989722D01*
X133087572Y-63050397D01*
X133087570Y-63050397D01*
X132712905Y-63150788D01*
X132350802Y-63289787D01*
X132005206Y-63465877D01*
X131679917Y-63677122D01*
X131378488Y-63921215D01*
X131378480Y-63921222D01*
X131104222Y-64195480D01*
X131104215Y-64195488D01*
X130860122Y-64496917D01*
X130648877Y-64822206D01*
X130472787Y-65167802D01*
X130333788Y-65529905D01*
X130233397Y-65904570D01*
X130233397Y-65904572D01*
X130172722Y-66287660D01*
X130152422Y-66674999D01*
X129078559Y-66674999D01*
X129078618Y-66672298D01*
X129088695Y-66441485D01*
X129096451Y-66263824D01*
X129097391Y-66253091D01*
X129150404Y-65850411D01*
X129152278Y-65839781D01*
X129240189Y-65443244D01*
X129242987Y-65432806D01*
X129365116Y-65045462D01*
X129368803Y-65035330D01*
X129524237Y-64660079D01*
X129528795Y-64650305D01*
X129716335Y-64290045D01*
X129721730Y-64280700D01*
X129939961Y-63938145D01*
X129946147Y-63929310D01*
X130193405Y-63607078D01*
X130200350Y-63598804D01*
X130474726Y-63299375D01*
X130482375Y-63291726D01*
X130781804Y-63017350D01*
X130790078Y-63010405D01*
X131112310Y-62763147D01*
X131121145Y-62756961D01*
X131463700Y-62538730D01*
X131473045Y-62533335D01*
X131833305Y-62345795D01*
X131843079Y-62341237D01*
X132218330Y-62185803D01*
X132228462Y-62182116D01*
X132615815Y-62059984D01*
X132626244Y-62057189D01*
X133022781Y-61969278D01*
X133033411Y-61967404D01*
X133436091Y-61914391D01*
X133446824Y-61913451D01*
X133842126Y-61896193D01*
X133855298Y-61895618D01*
X133860706Y-61895500D01*
X133905595Y-61895500D01*
X223472405Y-61895500D01*
X223517294Y-61895500D01*
X223522702Y-61895618D01*
G37*
%TD.AperFunction*%
%TD*%
M02*
