%TF.GenerationSoftware,KiCad,Pcbnew,8.0.7*%
%TF.CreationDate,2025-01-22T16:07:48-05:00*%
%TF.ProjectId,companion,636f6d70-616e-4696-9f6e-2e6b69636164,rev?*%
%TF.SameCoordinates,Original*%
%TF.FileFunction,Soldermask,Top*%
%TF.FilePolarity,Negative*%
%FSLAX46Y46*%
G04 Gerber Fmt 4.6, Leading zero omitted, Abs format (unit mm)*
G04 Created by KiCad (PCBNEW 8.0.7) date 2025-01-22 16:07:48*
%MOMM*%
%LPD*%
G01*
G04 APERTURE LIST*
G04 Aperture macros list*
%AMRoundRect*
0 Rectangle with rounded corners*
0 $1 Rounding radius*
0 $2 $3 $4 $5 $6 $7 $8 $9 X,Y pos of 4 corners*
0 Add a 4 corners polygon primitive as box body*
4,1,4,$2,$3,$4,$5,$6,$7,$8,$9,$2,$3,0*
0 Add four circle primitives for the rounded corners*
1,1,$1+$1,$2,$3*
1,1,$1+$1,$4,$5*
1,1,$1+$1,$6,$7*
1,1,$1+$1,$8,$9*
0 Add four rect primitives between the rounded corners*
20,1,$1+$1,$2,$3,$4,$5,0*
20,1,$1+$1,$4,$5,$6,$7,0*
20,1,$1+$1,$6,$7,$8,$9,0*
20,1,$1+$1,$8,$9,$2,$3,0*%
G04 Aperture macros list end*
%ADD10C,1.750000*%
%ADD11RoundRect,0.250000X-0.475000X0.337500X-0.475000X-0.337500X0.475000X-0.337500X0.475000X0.337500X0*%
%ADD12RoundRect,0.075000X0.075000X-0.700000X0.075000X0.700000X-0.075000X0.700000X-0.075000X-0.700000X0*%
%ADD13RoundRect,0.075000X0.700000X-0.075000X0.700000X0.075000X-0.700000X0.075000X-0.700000X-0.075000X0*%
%ADD14C,0.800000*%
%ADD15C,6.400000*%
%ADD16RoundRect,0.250000X0.475000X-0.337500X0.475000X0.337500X-0.475000X0.337500X-0.475000X-0.337500X0*%
%ADD17RoundRect,0.250000X0.450000X-0.350000X0.450000X0.350000X-0.450000X0.350000X-0.450000X-0.350000X0*%
%ADD18R,2.100000X1.725000*%
%ADD19R,0.400000X1.350000*%
%ADD20O,0.890000X1.550000*%
%ADD21R,1.200000X1.550000*%
%ADD22O,1.250000X0.950000*%
%ADD23R,1.500000X1.550000*%
%ADD24RoundRect,0.250000X-0.337500X-0.475000X0.337500X-0.475000X0.337500X0.475000X-0.337500X0.475000X0*%
%ADD25C,0.900000*%
%ADD26RoundRect,0.250000X0.375000X1.000000X-0.375000X1.000000X-0.375000X-1.000000X0.375000X-1.000000X0*%
%ADD27R,1.700000X1.700000*%
%ADD28O,1.700000X1.700000*%
%ADD29RoundRect,0.250000X-0.450000X0.325000X-0.450000X-0.325000X0.450000X-0.325000X0.450000X0.325000X0*%
%ADD30RoundRect,0.250000X0.350000X0.450000X-0.350000X0.450000X-0.350000X-0.450000X0.350000X-0.450000X0*%
%ADD31RoundRect,0.150000X-0.512500X-0.150000X0.512500X-0.150000X0.512500X0.150000X-0.512500X0.150000X0*%
G04 APERTURE END LIST*
D10*
%TO.C,U1*%
X103632000Y-66040000D03*
X103632000Y-68580000D03*
X103632000Y-71120000D03*
X103632000Y-73660000D03*
X103632000Y-76200000D03*
X103632000Y-78740000D03*
X103632000Y-81280000D03*
X103632000Y-83820000D03*
X133604000Y-105410000D03*
X136144000Y-105410000D03*
X138684000Y-105410000D03*
X141224000Y-105410000D03*
X143764000Y-105410000D03*
X146304000Y-105410000D03*
X148844000Y-105410000D03*
X151384000Y-105410000D03*
X153924000Y-105410000D03*
X156464000Y-105410000D03*
X159004000Y-105410000D03*
X161544000Y-105410000D03*
X164084000Y-105410000D03*
X166624000Y-105410000D03*
X169164000Y-105410000D03*
X169164000Y-102870000D03*
X166624000Y-102870000D03*
X164084000Y-102870000D03*
X161544000Y-102870000D03*
X159004000Y-102870000D03*
X156464000Y-102870000D03*
X153924000Y-102870000D03*
X151384000Y-102870000D03*
X148844000Y-102870000D03*
X146304000Y-102870000D03*
X143764000Y-102870000D03*
X141224000Y-102870000D03*
X138684000Y-102870000D03*
X136144000Y-102870000D03*
X133604000Y-102870000D03*
X199136000Y-83820000D03*
X199136000Y-81280000D03*
X199136000Y-78740000D03*
X199136000Y-76200000D03*
X199136000Y-73660000D03*
X199136000Y-71120000D03*
X199136000Y-68580000D03*
X199136000Y-66040000D03*
%TD*%
D11*
%TO.C,C11*%
X159258000Y-52070000D03*
X159258000Y-54145000D03*
%TD*%
D12*
%TO.C,U3*%
X147634000Y-80605000D03*
X148134000Y-80605000D03*
X148634000Y-80605000D03*
X149134000Y-80605000D03*
X149634000Y-80605000D03*
X150134000Y-80605000D03*
X150634000Y-80605000D03*
X151134000Y-80605000D03*
X151634000Y-80605000D03*
X152134000Y-80605000D03*
X152634000Y-80605000D03*
X153134000Y-80605000D03*
X153634000Y-80605000D03*
X154134000Y-80605000D03*
X154634000Y-80605000D03*
X155134000Y-80605000D03*
D13*
X157059000Y-78680000D03*
X157059000Y-78180000D03*
X157059000Y-77680000D03*
X157059000Y-77180000D03*
X157059000Y-76680000D03*
X157059000Y-76180000D03*
X157059000Y-75680000D03*
X157059000Y-75180000D03*
X157059000Y-74680000D03*
X157059000Y-74180000D03*
X157059000Y-73680000D03*
X157059000Y-73180000D03*
X157059000Y-72680000D03*
X157059000Y-72180000D03*
X157059000Y-71680000D03*
X157059000Y-71180000D03*
D12*
X155134000Y-69255000D03*
X154634000Y-69255000D03*
X154134000Y-69255000D03*
X153634000Y-69255000D03*
X153134000Y-69255000D03*
X152634000Y-69255000D03*
X152134000Y-69255000D03*
X151634000Y-69255000D03*
X151134000Y-69255000D03*
X150634000Y-69255000D03*
X150134000Y-69255000D03*
X149634000Y-69255000D03*
X149134000Y-69255000D03*
X148634000Y-69255000D03*
X148134000Y-69255000D03*
X147634000Y-69255000D03*
D13*
X145709000Y-71180000D03*
X145709000Y-71680000D03*
X145709000Y-72180000D03*
X145709000Y-72680000D03*
X145709000Y-73180000D03*
X145709000Y-73680000D03*
X145709000Y-74180000D03*
X145709000Y-74680000D03*
X145709000Y-75180000D03*
X145709000Y-75680000D03*
X145709000Y-76180000D03*
X145709000Y-76680000D03*
X145709000Y-77180000D03*
X145709000Y-77680000D03*
X145709000Y-78180000D03*
X145709000Y-78680000D03*
%TD*%
D14*
%TO.C,H3*%
X193815000Y-102489000D03*
X194517944Y-100791944D03*
X194517944Y-104186056D03*
X196215000Y-100089000D03*
D15*
X196215000Y-102489000D03*
D14*
X196215000Y-104889000D03*
X197912056Y-100791944D03*
X197912056Y-104186056D03*
X198615000Y-102489000D03*
%TD*%
D11*
%TO.C,C1*%
X157099000Y-85449500D03*
X157099000Y-87524500D03*
%TD*%
D14*
%TO.C,H1*%
X104153000Y-47371000D03*
X104855944Y-45673944D03*
X104855944Y-49068056D03*
X106553000Y-44971000D03*
D15*
X106553000Y-47371000D03*
D14*
X106553000Y-49771000D03*
X108250056Y-45673944D03*
X108250056Y-49068056D03*
X108953000Y-47371000D03*
%TD*%
D16*
%TO.C,C9*%
X139446000Y-80666500D03*
X139446000Y-78591500D03*
%TD*%
D11*
%TO.C,C3*%
X161163000Y-85449500D03*
X161163000Y-87524500D03*
%TD*%
D17*
%TO.C,R4*%
X196215000Y-56642000D03*
X196215000Y-54642000D03*
%TD*%
D11*
%TO.C,C10*%
X152908000Y-52048500D03*
X152908000Y-54123500D03*
%TD*%
D17*
%TO.C,R2*%
X167640000Y-53959000D03*
X167640000Y-51959000D03*
%TD*%
D16*
%TO.C,C12*%
X145658250Y-89302500D03*
X145658250Y-87227500D03*
%TD*%
D18*
%TO.C,Y1*%
X148092250Y-89281000D03*
X150992250Y-89281000D03*
X150992250Y-87106000D03*
X148092250Y-87106000D03*
%TD*%
D14*
%TO.C,H2*%
X193815000Y-47371000D03*
X194517944Y-45673944D03*
X194517944Y-49068056D03*
X196215000Y-44971000D03*
D15*
X196215000Y-47371000D03*
D14*
X196215000Y-49771000D03*
X197912056Y-45673944D03*
X197912056Y-49068056D03*
X198615000Y-47371000D03*
%TD*%
D16*
%TO.C,C6*%
X143510000Y-80666500D03*
X143510000Y-78591500D03*
%TD*%
D19*
%TO.C,J1*%
X153009000Y-46515000D03*
X152359000Y-46515000D03*
X151709000Y-46515000D03*
X151059000Y-46515000D03*
X150409000Y-46515000D03*
D20*
X155209000Y-43815000D03*
D21*
X154609000Y-43815000D03*
D22*
X154209000Y-46515000D03*
D23*
X152709000Y-43815000D03*
X150709000Y-43815000D03*
D22*
X149209000Y-46515000D03*
D21*
X148809000Y-43815000D03*
D20*
X148209000Y-43815000D03*
%TD*%
D24*
%TO.C,C7*%
X145520500Y-67183000D03*
X147595500Y-67183000D03*
%TD*%
D11*
%TO.C,C5*%
X159512000Y-69066500D03*
X159512000Y-71141500D03*
%TD*%
D25*
%TO.C,SW1*%
X171067000Y-44069000D03*
X164267000Y-44069000D03*
D26*
X170167000Y-46819000D03*
X167667000Y-46819000D03*
X165167000Y-46819000D03*
%TD*%
D17*
%TO.C,R3*%
X106508000Y-56580000D03*
X106508000Y-54580000D03*
%TD*%
D27*
%TO.C,J2*%
X116713000Y-46482000D03*
D28*
X119253000Y-46482000D03*
X121793000Y-46482000D03*
X124333000Y-46482000D03*
X126873000Y-46482000D03*
X129413000Y-46482000D03*
X131953000Y-46482000D03*
X134493000Y-46482000D03*
X137033000Y-46482000D03*
X139573000Y-46482000D03*
%TD*%
D14*
%TO.C,H4*%
X104153000Y-102489000D03*
X104855944Y-100791944D03*
X104855944Y-104186056D03*
X106553000Y-100089000D03*
D15*
X106553000Y-102489000D03*
D14*
X106553000Y-104889000D03*
X108250056Y-100791944D03*
X108250056Y-104186056D03*
X108953000Y-102489000D03*
%TD*%
D29*
%TO.C,D2*%
X196215000Y-59362000D03*
X196215000Y-61412000D03*
%TD*%
D30*
%TO.C,R1*%
X156956000Y-55753000D03*
X154956000Y-55753000D03*
%TD*%
D16*
%TO.C,C8*%
X141478000Y-80666500D03*
X141478000Y-78591500D03*
%TD*%
D31*
%TO.C,U2*%
X154951000Y-52075000D03*
X154951000Y-53025000D03*
X154951000Y-53975000D03*
X157226000Y-53975000D03*
X157226000Y-52075000D03*
%TD*%
D11*
%TO.C,C2*%
X159131000Y-85449500D03*
X159131000Y-87524500D03*
%TD*%
D27*
%TO.C,J3*%
X180975000Y-46482000D03*
D28*
X183515000Y-46482000D03*
X186055000Y-46482000D03*
%TD*%
D29*
%TO.C,D1*%
X106508000Y-59300000D03*
X106508000Y-61350000D03*
%TD*%
D11*
%TO.C,C13*%
X153405250Y-87100500D03*
X153405250Y-89175500D03*
%TD*%
%TO.C,C4*%
X159512000Y-77956500D03*
X159512000Y-80031500D03*
%TD*%
M02*
