M48
; DRILL file {KiCad 8.0.1} date 2024-03-31T16:29:12-0400
; FORMAT={-:-/ absolute / inch / decimal}
; #@! TF.CreationDate,2024-03-31T16:29:12-04:00
; #@! TF.GenerationSoftware,Kicad,Pcbnew,8.0.1
; #@! TF.FileFunction,MixedPlating,1,4
FMAT,2
INCH
; #@! TA.AperFunction,Plated,PTH,ViaDrill
T1C0.0118
; #@! TA.AperFunction,Plated,PTH,ComponentDrill
T2C0.0197
; #@! TA.AperFunction,Plated,PTH,ComponentDrill
T3C0.0217
; #@! TA.AperFunction,Plated,PTH,ComponentDrill
T4C0.0394
; #@! TA.AperFunction,Plated,PTH,ComponentDrill
T5C0.1260
; #@! TA.AperFunction,NonPlated,NPTH,ComponentDrill
T6C0.0354
%
G90
G05
T1
X4.195Y-2.1
X4.195Y-2.465
X5.365Y-2.725
X5.42Y-3.175
X5.435Y-3.095
X5.68Y-1.785
X5.68Y-1.825
X5.68Y-1.865
X5.68Y-1.905
X5.68Y-1.945
X5.68Y-2.645
X5.705Y-3.175
X5.725Y-1.785
X5.725Y-1.825
X5.725Y-1.865
X5.725Y-1.905
X5.725Y-1.945
X5.7346Y-3.385
X5.77Y-1.785
X5.77Y-1.825
X5.77Y-1.865
X5.77Y-1.905
X5.77Y-1.945
X5.81Y-2.59
X5.815Y-1.905
X5.815Y-1.945
X5.86Y-1.905
X5.86Y-1.945
X5.905Y-1.905
X5.905Y-1.945
X5.93Y-3.105
X6.02Y-2.18
X6.0396Y-3.56
X6.04Y-1.905
X6.04Y-1.945
X6.04Y-1.985
X6.085Y-1.905
X6.085Y-1.945
X6.085Y-1.985
X6.13Y-1.905
X6.13Y-1.945
X6.175Y-1.785
X6.175Y-1.825
X6.175Y-1.865
X6.175Y-1.905
X6.175Y-1.945
X6.195Y-2.715
X6.22Y-1.785
X6.22Y-1.825
X6.22Y-1.865
X6.22Y-1.905
X6.22Y-1.945
X6.22Y-1.985
X6.22Y-2.02
X6.235Y-2.195
X6.265Y-1.985
X6.29Y-2.185
X6.31Y-1.985
X6.31Y-2.02
X6.34Y-2.7
X6.34Y-2.815
X6.34Y-3.055
X6.34Y-3.165
X6.355Y-1.985
X6.355Y-2.02
X6.355Y-2.055
X6.4Y-3.365
X6.4Y-3.445
X6.5026Y-1.9224
X6.6Y-2.2
X6.7Y-1.92
X7.725Y-2.47
T2
X4.1005Y-1.865
X4.1005Y-4.035
X4.1282Y-1.7982
X4.1282Y-1.9318
X4.1282Y-3.9682
X4.1282Y-4.1018
X4.195Y-1.7705
X4.195Y-1.9595
X4.195Y-3.9405
X4.195Y-4.1295
X4.2618Y-1.7982
X4.2618Y-1.9318
X4.2618Y-3.9682
X4.2618Y-4.1018
X4.2895Y-1.865
X4.2895Y-4.035
X7.6305Y-1.865
X7.6305Y-4.035
X7.6582Y-1.7982
X7.6582Y-1.9318
X7.6582Y-3.9682
X7.6582Y-4.1018
X7.725Y-1.7705
X7.725Y-1.9595
X7.725Y-3.9405
X7.725Y-4.1295
X7.7918Y-1.7982
X7.7918Y-1.9318
X7.7918Y-3.9682
X7.7918Y-4.1018
X7.8195Y-1.865
X7.8195Y-4.035
T4
X4.08Y-2.6
X4.08Y-2.7
X4.08Y-2.8
X4.08Y-2.9
X4.08Y-3.0
X4.08Y-3.1
X4.08Y-3.2
X4.08Y-3.3
X4.595Y-1.83
X4.695Y-1.83
X4.795Y-1.83
X4.895Y-1.83
X4.995Y-1.83
X5.095Y-1.83
X5.195Y-1.83
X5.26Y-4.05
X5.26Y-4.15
X5.295Y-1.83
X5.36Y-4.05
X5.36Y-4.15
X5.395Y-1.83
X5.46Y-4.05
X5.46Y-4.15
X5.495Y-1.83
X5.56Y-4.05
X5.56Y-4.15
X5.66Y-4.05
X5.66Y-4.15
X5.76Y-4.05
X5.76Y-4.15
X5.86Y-4.05
X5.86Y-4.15
X5.96Y-4.05
X5.96Y-4.15
X6.06Y-4.05
X6.06Y-4.15
X6.16Y-4.05
X6.16Y-4.15
X6.26Y-4.05
X6.26Y-4.15
X6.36Y-4.05
X6.36Y-4.15
X6.46Y-4.05
X6.46Y-4.15
X6.56Y-4.05
X6.56Y-4.15
X6.66Y-4.05
X6.66Y-4.15
X7.125Y-1.83
X7.225Y-1.83
X7.325Y-1.83
X7.84Y-2.6
X7.84Y-2.7
X7.84Y-2.8
X7.84Y-2.9
X7.84Y-3.0
X7.84Y-3.1
X7.84Y-3.2
X7.84Y-3.3
T5
X4.195Y-1.865
X4.195Y-4.035
X7.725Y-1.865
X7.725Y-4.035
T6
X6.4672Y-1.735
X6.7349Y-1.735
T2
G00X5.835Y-1.7378
M15
G01X5.835Y-1.7122
M16
G05
G00X6.1106Y-1.7378
M15
G01X6.1106Y-1.7122
M16
G05
T3
G00X5.8803Y-1.8313
M15
G01X5.8685Y-1.8313
M16
G05
G00X6.0771Y-1.8313
M15
G01X6.0653Y-1.8313
M16
G05
M30
