%TF.GenerationSoftware,KiCad,Pcbnew,8.0.7*%
%TF.CreationDate,2025-01-22T16:07:48-05:00*%
%TF.ProjectId,companion,636f6d70-616e-4696-9f6e-2e6b69636164,rev?*%
%TF.SameCoordinates,Original*%
%TF.FileFunction,Paste,Top*%
%TF.FilePolarity,Positive*%
%FSLAX46Y46*%
G04 Gerber Fmt 4.6, Leading zero omitted, Abs format (unit mm)*
G04 Created by KiCad (PCBNEW 8.0.7) date 2025-01-22 16:07:48*
%MOMM*%
%LPD*%
G01*
G04 APERTURE LIST*
G04 Aperture macros list*
%AMRoundRect*
0 Rectangle with rounded corners*
0 $1 Rounding radius*
0 $2 $3 $4 $5 $6 $7 $8 $9 X,Y pos of 4 corners*
0 Add a 4 corners polygon primitive as box body*
4,1,4,$2,$3,$4,$5,$6,$7,$8,$9,$2,$3,0*
0 Add four circle primitives for the rounded corners*
1,1,$1+$1,$2,$3*
1,1,$1+$1,$4,$5*
1,1,$1+$1,$6,$7*
1,1,$1+$1,$8,$9*
0 Add four rect primitives between the rounded corners*
20,1,$1+$1,$2,$3,$4,$5,0*
20,1,$1+$1,$4,$5,$6,$7,0*
20,1,$1+$1,$6,$7,$8,$9,0*
20,1,$1+$1,$8,$9,$2,$3,0*%
G04 Aperture macros list end*
%ADD10RoundRect,0.250000X-0.475000X0.337500X-0.475000X-0.337500X0.475000X-0.337500X0.475000X0.337500X0*%
%ADD11RoundRect,0.075000X0.075000X-0.700000X0.075000X0.700000X-0.075000X0.700000X-0.075000X-0.700000X0*%
%ADD12RoundRect,0.075000X0.700000X-0.075000X0.700000X0.075000X-0.700000X0.075000X-0.700000X-0.075000X0*%
%ADD13RoundRect,0.250000X0.475000X-0.337500X0.475000X0.337500X-0.475000X0.337500X-0.475000X-0.337500X0*%
%ADD14RoundRect,0.250000X0.450000X-0.350000X0.450000X0.350000X-0.450000X0.350000X-0.450000X-0.350000X0*%
%ADD15R,2.100000X1.725000*%
%ADD16O,0.890000X1.550000*%
%ADD17O,1.250000X0.950000*%
%ADD18R,0.400000X1.350000*%
%ADD19R,1.200000X1.550000*%
%ADD20R,1.500000X1.550000*%
%ADD21RoundRect,0.250000X-0.337500X-0.475000X0.337500X-0.475000X0.337500X0.475000X-0.337500X0.475000X0*%
%ADD22RoundRect,0.250000X0.375000X1.000000X-0.375000X1.000000X-0.375000X-1.000000X0.375000X-1.000000X0*%
%ADD23RoundRect,0.250000X-0.450000X0.325000X-0.450000X-0.325000X0.450000X-0.325000X0.450000X0.325000X0*%
%ADD24RoundRect,0.250000X0.350000X0.450000X-0.350000X0.450000X-0.350000X-0.450000X0.350000X-0.450000X0*%
%ADD25RoundRect,0.150000X-0.512500X-0.150000X0.512500X-0.150000X0.512500X0.150000X-0.512500X0.150000X0*%
G04 APERTURE END LIST*
D10*
%TO.C,C11*%
X159258000Y-52070000D03*
X159258000Y-54145000D03*
%TD*%
D11*
%TO.C,U3*%
X147634000Y-80605000D03*
X148134000Y-80605000D03*
X148634000Y-80605000D03*
X149134000Y-80605000D03*
X149634000Y-80605000D03*
X150134000Y-80605000D03*
X150634000Y-80605000D03*
X151134000Y-80605000D03*
X151634000Y-80605000D03*
X152134000Y-80605000D03*
X152634000Y-80605000D03*
X153134000Y-80605000D03*
X153634000Y-80605000D03*
X154134000Y-80605000D03*
X154634000Y-80605000D03*
X155134000Y-80605000D03*
D12*
X157059000Y-78680000D03*
X157059000Y-78180000D03*
X157059000Y-77680000D03*
X157059000Y-77180000D03*
X157059000Y-76680000D03*
X157059000Y-76180000D03*
X157059000Y-75680000D03*
X157059000Y-75180000D03*
X157059000Y-74680000D03*
X157059000Y-74180000D03*
X157059000Y-73680000D03*
X157059000Y-73180000D03*
X157059000Y-72680000D03*
X157059000Y-72180000D03*
X157059000Y-71680000D03*
X157059000Y-71180000D03*
D11*
X155134000Y-69255000D03*
X154634000Y-69255000D03*
X154134000Y-69255000D03*
X153634000Y-69255000D03*
X153134000Y-69255000D03*
X152634000Y-69255000D03*
X152134000Y-69255000D03*
X151634000Y-69255000D03*
X151134000Y-69255000D03*
X150634000Y-69255000D03*
X150134000Y-69255000D03*
X149634000Y-69255000D03*
X149134000Y-69255000D03*
X148634000Y-69255000D03*
X148134000Y-69255000D03*
X147634000Y-69255000D03*
D12*
X145709000Y-71180000D03*
X145709000Y-71680000D03*
X145709000Y-72180000D03*
X145709000Y-72680000D03*
X145709000Y-73180000D03*
X145709000Y-73680000D03*
X145709000Y-74180000D03*
X145709000Y-74680000D03*
X145709000Y-75180000D03*
X145709000Y-75680000D03*
X145709000Y-76180000D03*
X145709000Y-76680000D03*
X145709000Y-77180000D03*
X145709000Y-77680000D03*
X145709000Y-78180000D03*
X145709000Y-78680000D03*
%TD*%
D10*
%TO.C,C1*%
X157099000Y-85449500D03*
X157099000Y-87524500D03*
%TD*%
D13*
%TO.C,C9*%
X139446000Y-80666500D03*
X139446000Y-78591500D03*
%TD*%
D10*
%TO.C,C3*%
X161163000Y-85449500D03*
X161163000Y-87524500D03*
%TD*%
D14*
%TO.C,R4*%
X196215000Y-56642000D03*
X196215000Y-54642000D03*
%TD*%
D10*
%TO.C,C10*%
X152908000Y-52048500D03*
X152908000Y-54123500D03*
%TD*%
D14*
%TO.C,R2*%
X167640000Y-53959000D03*
X167640000Y-51959000D03*
%TD*%
D13*
%TO.C,C12*%
X145658250Y-89302500D03*
X145658250Y-87227500D03*
%TD*%
D15*
%TO.C,Y1*%
X148092250Y-89281000D03*
X150992250Y-89281000D03*
X150992250Y-87106000D03*
X148092250Y-87106000D03*
%TD*%
D13*
%TO.C,C6*%
X143510000Y-80666500D03*
X143510000Y-78591500D03*
%TD*%
D16*
%TO.C,J1*%
X155209000Y-43815000D03*
D17*
X154209000Y-46515000D03*
X149209000Y-46515000D03*
D16*
X148209000Y-43815000D03*
D18*
X153009000Y-46515000D03*
X152359000Y-46515000D03*
X151709000Y-46515000D03*
X151059000Y-46515000D03*
X150409000Y-46515000D03*
D19*
X154609000Y-43815000D03*
D20*
X152709000Y-43815000D03*
X150709000Y-43815000D03*
D19*
X148809000Y-43815000D03*
%TD*%
D21*
%TO.C,C7*%
X145520500Y-67183000D03*
X147595500Y-67183000D03*
%TD*%
D10*
%TO.C,C5*%
X159512000Y-69066500D03*
X159512000Y-71141500D03*
%TD*%
D22*
%TO.C,SW1*%
X170167000Y-46819000D03*
X167667000Y-46819000D03*
X165167000Y-46819000D03*
%TD*%
D14*
%TO.C,R3*%
X106508000Y-56580000D03*
X106508000Y-54580000D03*
%TD*%
D23*
%TO.C,D2*%
X196215000Y-59362000D03*
X196215000Y-61412000D03*
%TD*%
D24*
%TO.C,R1*%
X156956000Y-55753000D03*
X154956000Y-55753000D03*
%TD*%
D13*
%TO.C,C8*%
X141478000Y-80666500D03*
X141478000Y-78591500D03*
%TD*%
D25*
%TO.C,U2*%
X154951000Y-52075000D03*
X154951000Y-53025000D03*
X154951000Y-53975000D03*
X157226000Y-53975000D03*
X157226000Y-52075000D03*
%TD*%
D10*
%TO.C,C2*%
X159131000Y-85449500D03*
X159131000Y-87524500D03*
%TD*%
D23*
%TO.C,D1*%
X106508000Y-59300000D03*
X106508000Y-61350000D03*
%TD*%
D10*
%TO.C,C13*%
X153405250Y-87100500D03*
X153405250Y-89175500D03*
%TD*%
%TO.C,C4*%
X159512000Y-77956500D03*
X159512000Y-80031500D03*
%TD*%
M02*
