%TF.GenerationSoftware,KiCad,Pcbnew,8.0.7*%
%TF.CreationDate,2025-01-22T16:07:47-05:00*%
%TF.ProjectId,companion,636f6d70-616e-4696-9f6e-2e6b69636164,rev?*%
%TF.SameCoordinates,Original*%
%TF.FileFunction,Copper,L2,Inr*%
%TF.FilePolarity,Positive*%
%FSLAX46Y46*%
G04 Gerber Fmt 4.6, Leading zero omitted, Abs format (unit mm)*
G04 Created by KiCad (PCBNEW 8.0.7) date 2025-01-22 16:07:47*
%MOMM*%
%LPD*%
G01*
G04 APERTURE LIST*
%TA.AperFunction,ComponentPad*%
%ADD10C,1.750000*%
%TD*%
%TA.AperFunction,ComponentPad*%
%ADD11C,0.800000*%
%TD*%
%TA.AperFunction,ComponentPad*%
%ADD12C,6.400000*%
%TD*%
%TA.AperFunction,ComponentPad*%
%ADD13O,0.890000X1.550000*%
%TD*%
%TA.AperFunction,ComponentPad*%
%ADD14O,1.250000X0.950000*%
%TD*%
%TA.AperFunction,ComponentPad*%
%ADD15R,1.700000X1.700000*%
%TD*%
%TA.AperFunction,ComponentPad*%
%ADD16O,1.700000X1.700000*%
%TD*%
%TA.AperFunction,ViaPad*%
%ADD17C,0.600000*%
%TD*%
G04 APERTURE END LIST*
D10*
%TO.N,VBUS*%
%TO.C,U1*%
X103632000Y-66040000D03*
X103632000Y-68580000D03*
X103632000Y-71120000D03*
X103632000Y-73660000D03*
%TO.N,GND*%
X103632000Y-76200000D03*
X103632000Y-78740000D03*
X103632000Y-81280000D03*
X103632000Y-83820000D03*
%TO.N,/DATA0*%
X133604000Y-105410000D03*
%TO.N,/DATA1*%
X136144000Y-105410000D03*
%TO.N,/DATA2*%
X138684000Y-105410000D03*
%TO.N,/DATA3*%
X141224000Y-105410000D03*
%TO.N,GND*%
X143764000Y-105410000D03*
%TO.N,/DATA4*%
X146304000Y-105410000D03*
%TO.N,/DATA5*%
X148844000Y-105410000D03*
%TO.N,/DATA6*%
X151384000Y-105410000D03*
%TO.N,/DATA7*%
X153924000Y-105410000D03*
%TO.N,GND*%
X156464000Y-105410000D03*
%TO.N,/DATA8*%
X159004000Y-105410000D03*
%TO.N,/DATA9*%
X161544000Y-105410000D03*
%TO.N,/DATA10*%
X164084000Y-105410000D03*
%TO.N,/DATA11*%
X166624000Y-105410000D03*
%TO.N,/DATA12*%
X169164000Y-105410000D03*
%TO.N,/DATA13*%
X169164000Y-102870000D03*
%TO.N,/DATA14*%
X166624000Y-102870000D03*
%TO.N,/DATA15*%
X164084000Y-102870000D03*
%TO.N,/ADDR5*%
X161544000Y-102870000D03*
%TO.N,/ADDR4*%
X159004000Y-102870000D03*
%TO.N,GND*%
X156464000Y-102870000D03*
%TO.N,/ADDR3*%
X153924000Y-102870000D03*
%TO.N,/ADDR2*%
X151384000Y-102870000D03*
%TO.N,/ADDR1*%
X148844000Y-102870000D03*
%TO.N,/ADDR0*%
X146304000Y-102870000D03*
%TO.N,GND*%
X143764000Y-102870000D03*
%TO.N,/~{W}{slash}R*%
X141224000Y-102870000D03*
%TO.N,/~{B}{slash}W*%
X138684000Y-102870000D03*
%TO.N,/~{EN}*%
X136144000Y-102870000D03*
%TO.N,/CLK*%
X133604000Y-102870000D03*
%TO.N,GND*%
X199136000Y-83820000D03*
%TO.N,/CDONE*%
X199136000Y-81280000D03*
%TO.N,/~{CRESET}*%
X199136000Y-78740000D03*
%TO.N,/~{FRESET}*%
X199136000Y-76200000D03*
%TO.N,/~{FSEL}*%
X199136000Y-73660000D03*
%TO.N,/SPI_SCK*%
X199136000Y-71120000D03*
%TO.N,/SPI_MISO*%
X199136000Y-68580000D03*
%TO.N,/SPI_MOSI*%
X199136000Y-66040000D03*
%TD*%
D11*
%TO.N,GND*%
%TO.C,H3*%
X193815000Y-102489000D03*
X194517944Y-100791944D03*
X194517944Y-104186056D03*
X196215000Y-100089000D03*
D12*
X196215000Y-102489000D03*
D11*
X196215000Y-104889000D03*
X197912056Y-100791944D03*
X197912056Y-104186056D03*
X198615000Y-102489000D03*
%TD*%
%TO.N,GND*%
%TO.C,H1*%
X104153000Y-47371000D03*
X104855944Y-45673944D03*
X104855944Y-49068056D03*
X106553000Y-44971000D03*
D12*
X106553000Y-47371000D03*
D11*
X106553000Y-49771000D03*
X108250056Y-45673944D03*
X108250056Y-49068056D03*
X108953000Y-47371000D03*
%TD*%
%TO.N,GND*%
%TO.C,H2*%
X193815000Y-47371000D03*
X194517944Y-45673944D03*
X194517944Y-49068056D03*
X196215000Y-44971000D03*
D12*
X196215000Y-47371000D03*
D11*
X196215000Y-49771000D03*
X197912056Y-45673944D03*
X197912056Y-49068056D03*
X198615000Y-47371000D03*
%TD*%
D13*
%TO.N,unconnected-(J1-Shield-Pad6)_2*%
%TO.C,J1*%
X155209000Y-43815000D03*
D14*
X154209000Y-46515000D03*
X149209000Y-46515000D03*
D13*
X148209000Y-43815000D03*
%TD*%
D15*
%TO.N,+3.3V*%
%TO.C,J2*%
X116713000Y-46482000D03*
D16*
%TO.N,/SYS_SWDIO*%
X119253000Y-46482000D03*
%TO.N,GND*%
X121793000Y-46482000D03*
%TO.N,/SYS_SWCLK*%
X124333000Y-46482000D03*
%TO.N,GND*%
X126873000Y-46482000D03*
%TO.N,unconnected-(J2-Pin_6-Pad6)*%
X129413000Y-46482000D03*
%TO.N,unconnected-(J2-Pin_7-Pad7)*%
X131953000Y-46482000D03*
%TO.N,unconnected-(J2-Pin_8-Pad8)*%
X134493000Y-46482000D03*
%TO.N,GND*%
X137033000Y-46482000D03*
%TO.N,/NRST*%
X139573000Y-46482000D03*
%TD*%
D11*
%TO.N,GND*%
%TO.C,H4*%
X104153000Y-102489000D03*
X104855944Y-100791944D03*
X104855944Y-104186056D03*
X106553000Y-100089000D03*
D12*
X106553000Y-102489000D03*
D11*
X106553000Y-104889000D03*
X108250056Y-100791944D03*
X108250056Y-104186056D03*
X108953000Y-102489000D03*
%TD*%
D15*
%TO.N,/BOOT_RX*%
%TO.C,J3*%
X180975000Y-46482000D03*
D16*
%TO.N,/BOOT_TX*%
X183515000Y-46482000D03*
%TO.N,GND*%
X186055000Y-46482000D03*
%TD*%
D17*
%TO.N,GND*%
X162560000Y-87503000D03*
X159766000Y-55499000D03*
X161036000Y-71501000D03*
X149987000Y-49403000D03*
X170180000Y-48768000D03*
X144272000Y-45339000D03*
X148844000Y-48387000D03*
X144272000Y-48387000D03*
X145415000Y-45339000D03*
X145415000Y-49403000D03*
X146558000Y-47371000D03*
X145415000Y-47371000D03*
X146558000Y-48387000D03*
X138049000Y-78613000D03*
X147701000Y-48387000D03*
X146558000Y-49403000D03*
X144272000Y-47371000D03*
X147574000Y-65786000D03*
X147701000Y-49403000D03*
X145415000Y-48387000D03*
X161036000Y-80391000D03*
X146558000Y-46355000D03*
X148844000Y-49403000D03*
X106553000Y-53340000D03*
X144272000Y-49403000D03*
X146558000Y-45339000D03*
X144272000Y-46355000D03*
X145415000Y-46355000D03*
X152908000Y-55372000D03*
X145658250Y-85979000D03*
X153405250Y-90424000D03*
X149987000Y-48387000D03*
%TO.N,+3.3V*%
X106553000Y-62611000D03*
X196215000Y-62738000D03*
X161417000Y-52197000D03*
X161036000Y-77597000D03*
X161417000Y-50419000D03*
X165167000Y-48828000D03*
X159131000Y-50419000D03*
X161417000Y-51308000D03*
X160274000Y-51308000D03*
X162560000Y-85471000D03*
X144907000Y-80645000D03*
X161036000Y-68580000D03*
X144272000Y-67183000D03*
X157988000Y-51308000D03*
X160274000Y-50419000D03*
X157988000Y-50419000D03*
%TO.N,VBUS*%
X156845000Y-45339000D03*
X153416000Y-49403000D03*
X156845000Y-46355000D03*
X157988000Y-46355000D03*
X155702000Y-48387000D03*
X156845000Y-48387000D03*
X154559000Y-49403000D03*
X158369000Y-55753000D03*
X153416000Y-48387000D03*
X157988000Y-49403000D03*
X156845000Y-47371000D03*
X154559000Y-48387000D03*
X154559000Y-50419000D03*
X157988000Y-48387000D03*
X157988000Y-47371000D03*
X153416000Y-50419000D03*
X156845000Y-49403000D03*
X155702000Y-49403000D03*
X157988000Y-45339000D03*
%TO.N,/BOOT0*%
X157353000Y-68961000D03*
X167640000Y-55880000D03*
%TO.N,/NRST*%
X136271000Y-69215000D03*
X137668000Y-80645000D03*
X150622000Y-78867000D03*
%TD*%
%TA.AperFunction,Conductor*%
%TO.N,GND*%
G36*
X147533037Y-42611185D02*
G01*
X147578792Y-42663989D01*
X147588736Y-42733147D01*
X147559711Y-42796703D01*
X147553679Y-42803181D01*
X147474584Y-42882275D01*
X147474578Y-42882283D01*
X147371109Y-43037135D01*
X147371109Y-43037136D01*
X147299835Y-43209207D01*
X147299833Y-43209215D01*
X147263500Y-43391871D01*
X147263500Y-44238128D01*
X147299833Y-44420784D01*
X147299835Y-44420792D01*
X147371109Y-44592863D01*
X147371109Y-44592864D01*
X147474578Y-44747716D01*
X147474584Y-44747724D01*
X147606275Y-44879415D01*
X147606283Y-44879421D01*
X147761135Y-44982890D01*
X147777040Y-44989478D01*
X147933208Y-45054165D01*
X148115871Y-45090499D01*
X148115874Y-45090500D01*
X148115876Y-45090500D01*
X148302126Y-45090500D01*
X148302127Y-45090499D01*
X148484792Y-45054165D01*
X148656862Y-44982891D01*
X148656863Y-44982890D01*
X148656864Y-44982890D01*
X148733772Y-44931501D01*
X148811721Y-44879418D01*
X148943418Y-44747721D01*
X148995501Y-44669772D01*
X149046890Y-44592864D01*
X149046890Y-44592863D01*
X149046891Y-44592862D01*
X149118165Y-44420792D01*
X149154500Y-44238124D01*
X149154500Y-43391876D01*
X149154500Y-43391873D01*
X149154499Y-43391871D01*
X149149850Y-43368500D01*
X149118165Y-43209208D01*
X149046891Y-43037138D01*
X149046890Y-43037136D01*
X149046890Y-43037135D01*
X148943421Y-42882283D01*
X148943415Y-42882275D01*
X148864321Y-42803181D01*
X148830836Y-42741858D01*
X148835820Y-42672166D01*
X148877692Y-42616233D01*
X148943156Y-42591816D01*
X148952002Y-42591500D01*
X154465998Y-42591500D01*
X154533037Y-42611185D01*
X154578792Y-42663989D01*
X154588736Y-42733147D01*
X154559711Y-42796703D01*
X154553679Y-42803181D01*
X154474584Y-42882275D01*
X154474578Y-42882283D01*
X154371109Y-43037135D01*
X154371109Y-43037136D01*
X154299835Y-43209207D01*
X154299833Y-43209215D01*
X154263500Y-43391871D01*
X154263500Y-44238128D01*
X154299833Y-44420784D01*
X154299835Y-44420792D01*
X154371109Y-44592863D01*
X154371109Y-44592864D01*
X154474578Y-44747716D01*
X154474584Y-44747724D01*
X154606275Y-44879415D01*
X154606283Y-44879421D01*
X154761135Y-44982890D01*
X154777040Y-44989478D01*
X154933208Y-45054165D01*
X155115871Y-45090499D01*
X155115874Y-45090500D01*
X155115876Y-45090500D01*
X155302126Y-45090500D01*
X155302127Y-45090499D01*
X155484792Y-45054165D01*
X155656862Y-44982891D01*
X155656863Y-44982890D01*
X155656864Y-44982890D01*
X155733772Y-44931501D01*
X155811721Y-44879418D01*
X155943418Y-44747721D01*
X155995501Y-44669772D01*
X156046890Y-44592864D01*
X156046890Y-44592863D01*
X156046891Y-44592862D01*
X156118165Y-44420792D01*
X156154500Y-44238124D01*
X156154500Y-44137995D01*
X163566499Y-44137995D01*
X163593418Y-44273322D01*
X163593421Y-44273332D01*
X163646221Y-44400804D01*
X163646228Y-44400817D01*
X163722885Y-44515541D01*
X163722888Y-44515545D01*
X163820454Y-44613111D01*
X163820458Y-44613114D01*
X163935182Y-44689771D01*
X163935195Y-44689778D01*
X164062667Y-44742578D01*
X164062672Y-44742580D01*
X164062676Y-44742580D01*
X164062677Y-44742581D01*
X164198004Y-44769500D01*
X164198007Y-44769500D01*
X164335995Y-44769500D01*
X164427041Y-44751389D01*
X164471328Y-44742580D01*
X164598811Y-44689775D01*
X164713542Y-44613114D01*
X164811114Y-44515542D01*
X164887775Y-44400811D01*
X164940580Y-44273328D01*
X164967500Y-44137995D01*
X170366499Y-44137995D01*
X170393418Y-44273322D01*
X170393421Y-44273332D01*
X170446221Y-44400804D01*
X170446228Y-44400817D01*
X170522885Y-44515541D01*
X170522888Y-44515545D01*
X170620454Y-44613111D01*
X170620458Y-44613114D01*
X170735182Y-44689771D01*
X170735195Y-44689778D01*
X170862667Y-44742578D01*
X170862672Y-44742580D01*
X170862676Y-44742580D01*
X170862677Y-44742581D01*
X170998004Y-44769500D01*
X170998007Y-44769500D01*
X171135995Y-44769500D01*
X171227041Y-44751389D01*
X171271328Y-44742580D01*
X171398811Y-44689775D01*
X171513542Y-44613114D01*
X171611114Y-44515542D01*
X171687775Y-44400811D01*
X171740580Y-44273328D01*
X171767500Y-44137993D01*
X171767500Y-44000007D01*
X171767500Y-44000004D01*
X171740581Y-43864677D01*
X171740580Y-43864676D01*
X171740580Y-43864672D01*
X171740578Y-43864667D01*
X171687778Y-43737195D01*
X171687771Y-43737182D01*
X171611114Y-43622458D01*
X171611111Y-43622454D01*
X171513545Y-43524888D01*
X171513541Y-43524885D01*
X171398817Y-43448228D01*
X171398804Y-43448221D01*
X171271332Y-43395421D01*
X171271322Y-43395418D01*
X171135995Y-43368500D01*
X171135993Y-43368500D01*
X170998007Y-43368500D01*
X170998005Y-43368500D01*
X170862677Y-43395418D01*
X170862667Y-43395421D01*
X170735195Y-43448221D01*
X170735182Y-43448228D01*
X170620458Y-43524885D01*
X170620454Y-43524888D01*
X170522888Y-43622454D01*
X170522885Y-43622458D01*
X170446228Y-43737182D01*
X170446221Y-43737195D01*
X170393421Y-43864667D01*
X170393418Y-43864677D01*
X170366500Y-44000004D01*
X170366500Y-44000007D01*
X170366500Y-44137993D01*
X170366500Y-44137995D01*
X170366499Y-44137995D01*
X164967500Y-44137995D01*
X164967500Y-44137993D01*
X164967500Y-44000007D01*
X164967500Y-44000004D01*
X164940581Y-43864677D01*
X164940580Y-43864676D01*
X164940580Y-43864672D01*
X164940578Y-43864667D01*
X164887778Y-43737195D01*
X164887771Y-43737182D01*
X164811114Y-43622458D01*
X164811111Y-43622454D01*
X164713545Y-43524888D01*
X164713541Y-43524885D01*
X164598817Y-43448228D01*
X164598804Y-43448221D01*
X164471332Y-43395421D01*
X164471322Y-43395418D01*
X164335995Y-43368500D01*
X164335993Y-43368500D01*
X164198007Y-43368500D01*
X164198005Y-43368500D01*
X164062677Y-43395418D01*
X164062667Y-43395421D01*
X163935195Y-43448221D01*
X163935182Y-43448228D01*
X163820458Y-43524885D01*
X163820454Y-43524888D01*
X163722888Y-43622454D01*
X163722885Y-43622458D01*
X163646228Y-43737182D01*
X163646221Y-43737195D01*
X163593421Y-43864667D01*
X163593418Y-43864677D01*
X163566500Y-44000004D01*
X163566500Y-44000007D01*
X163566500Y-44137993D01*
X163566500Y-44137995D01*
X163566499Y-44137995D01*
X156154500Y-44137995D01*
X156154500Y-43391876D01*
X156154500Y-43391873D01*
X156154499Y-43391871D01*
X156149850Y-43368500D01*
X156118165Y-43209208D01*
X156046891Y-43037138D01*
X156046890Y-43037136D01*
X156046890Y-43037135D01*
X155943421Y-42882283D01*
X155943415Y-42882275D01*
X155864321Y-42803181D01*
X155830836Y-42741858D01*
X155835820Y-42672166D01*
X155877692Y-42616233D01*
X155943156Y-42591816D01*
X155952002Y-42591500D01*
X196167405Y-42591500D01*
X196212294Y-42591500D01*
X196217702Y-42591618D01*
X196231499Y-42592220D01*
X196626173Y-42609451D01*
X196636910Y-42610391D01*
X197039584Y-42663404D01*
X197050222Y-42665279D01*
X197446749Y-42753188D01*
X197457189Y-42755986D01*
X197844530Y-42878113D01*
X197854676Y-42881806D01*
X198229911Y-43037234D01*
X198239702Y-43041800D01*
X198561288Y-43209207D01*
X198599942Y-43229329D01*
X198609309Y-43234736D01*
X198944424Y-43448228D01*
X198951840Y-43452952D01*
X198960699Y-43459155D01*
X199173514Y-43622454D01*
X199282909Y-43706396D01*
X199291195Y-43713350D01*
X199590624Y-43987726D01*
X199598273Y-43995375D01*
X199872649Y-44294804D01*
X199879603Y-44303090D01*
X200126842Y-44625297D01*
X200133047Y-44634159D01*
X200351262Y-44976689D01*
X200356670Y-44986057D01*
X200544196Y-45346290D01*
X200548768Y-45356094D01*
X200704189Y-45731313D01*
X200707889Y-45741479D01*
X200830012Y-46128806D01*
X200832812Y-46139254D01*
X200920718Y-46535769D01*
X200922596Y-46546423D01*
X200975606Y-46949069D01*
X200976549Y-46959845D01*
X200994382Y-47368297D01*
X200994500Y-47373706D01*
X200994500Y-102486293D01*
X200994382Y-102491702D01*
X200976549Y-102900154D01*
X200975606Y-102910930D01*
X200922596Y-103313576D01*
X200920718Y-103324230D01*
X200832812Y-103720745D01*
X200830012Y-103731193D01*
X200707889Y-104118520D01*
X200704189Y-104128686D01*
X200548768Y-104503905D01*
X200544196Y-104513709D01*
X200356670Y-104873942D01*
X200351262Y-104883310D01*
X200133047Y-105225840D01*
X200126842Y-105234702D01*
X199879603Y-105556909D01*
X199872649Y-105565195D01*
X199598273Y-105864624D01*
X199590624Y-105872273D01*
X199291195Y-106146649D01*
X199282909Y-106153603D01*
X198960702Y-106400842D01*
X198951840Y-106407047D01*
X198609310Y-106625262D01*
X198599942Y-106630670D01*
X198239709Y-106818196D01*
X198229905Y-106822768D01*
X197854686Y-106978189D01*
X197844520Y-106981889D01*
X197457193Y-107104012D01*
X197446745Y-107106812D01*
X197050230Y-107194718D01*
X197039576Y-107196596D01*
X196636930Y-107249606D01*
X196626154Y-107250549D01*
X196217703Y-107268382D01*
X196212294Y-107268500D01*
X106555706Y-107268500D01*
X106550297Y-107268382D01*
X106141845Y-107250549D01*
X106131069Y-107249606D01*
X105728423Y-107196596D01*
X105717769Y-107194718D01*
X105321254Y-107106812D01*
X105310806Y-107104012D01*
X104923479Y-106981889D01*
X104913313Y-106978189D01*
X104538094Y-106822768D01*
X104528290Y-106818196D01*
X104168057Y-106630670D01*
X104158689Y-106625262D01*
X103816159Y-106407047D01*
X103807297Y-106400842D01*
X103485090Y-106153603D01*
X103476804Y-106146649D01*
X103177375Y-105872273D01*
X103169726Y-105864624D01*
X102895350Y-105565195D01*
X102888396Y-105556909D01*
X102641157Y-105234702D01*
X102634952Y-105225840D01*
X102607552Y-105182831D01*
X102416736Y-104883309D01*
X102411329Y-104873942D01*
X102223803Y-104513709D01*
X102219231Y-104503905D01*
X102063806Y-104128676D01*
X102060110Y-104118520D01*
X102048017Y-104080166D01*
X101937986Y-103731189D01*
X101935187Y-103720745D01*
X101908391Y-103599875D01*
X101847279Y-103324222D01*
X101845403Y-103313576D01*
X101824539Y-103155097D01*
X101792391Y-102910910D01*
X101791451Y-102900173D01*
X101790133Y-102869993D01*
X132223786Y-102869993D01*
X132223786Y-102870006D01*
X132242608Y-103097168D01*
X132242610Y-103097179D01*
X132298569Y-103318155D01*
X132390137Y-103526908D01*
X132514814Y-103717742D01*
X132669208Y-103885458D01*
X132669212Y-103885461D01*
X132849094Y-104025469D01*
X132849096Y-104025470D01*
X132849099Y-104025472D01*
X132859214Y-104030946D01*
X132908804Y-104080166D01*
X132923911Y-104148382D01*
X132899740Y-104213938D01*
X132859214Y-104249054D01*
X132849099Y-104254527D01*
X132849090Y-104254533D01*
X132669212Y-104394538D01*
X132669208Y-104394541D01*
X132514814Y-104562257D01*
X132390137Y-104753091D01*
X132298569Y-104961844D01*
X132242610Y-105182820D01*
X132242608Y-105182831D01*
X132223786Y-105409993D01*
X132223786Y-105410006D01*
X132242608Y-105637168D01*
X132242610Y-105637179D01*
X132298569Y-105858155D01*
X132390137Y-106066908D01*
X132514814Y-106257742D01*
X132514817Y-106257745D01*
X132649580Y-106404137D01*
X132669208Y-106425458D01*
X132669212Y-106425461D01*
X132849094Y-106565469D01*
X132849096Y-106565470D01*
X132849099Y-106565472D01*
X132909731Y-106598284D01*
X133049574Y-106673963D01*
X133161529Y-106712397D01*
X133265173Y-106747979D01*
X133265175Y-106747979D01*
X133265177Y-106747980D01*
X133490023Y-106785500D01*
X133490024Y-106785500D01*
X133717976Y-106785500D01*
X133717977Y-106785500D01*
X133942823Y-106747980D01*
X134158426Y-106673963D01*
X134358906Y-106565469D01*
X134538794Y-106425456D01*
X134693183Y-106257745D01*
X134770191Y-106139874D01*
X134823337Y-106094518D01*
X134892568Y-106085094D01*
X134955904Y-106114596D01*
X134977809Y-106139875D01*
X135054814Y-106257742D01*
X135054817Y-106257745D01*
X135189580Y-106404137D01*
X135209208Y-106425458D01*
X135209212Y-106425461D01*
X135389094Y-106565469D01*
X135389096Y-106565470D01*
X135389099Y-106565472D01*
X135449731Y-106598284D01*
X135589574Y-106673963D01*
X135701529Y-106712397D01*
X135805173Y-106747979D01*
X135805175Y-106747979D01*
X135805177Y-106747980D01*
X136030023Y-106785500D01*
X136030024Y-106785500D01*
X136257976Y-106785500D01*
X136257977Y-106785500D01*
X136482823Y-106747980D01*
X136698426Y-106673963D01*
X136898906Y-106565469D01*
X137078794Y-106425456D01*
X137233183Y-106257745D01*
X137310191Y-106139874D01*
X137363337Y-106094518D01*
X137432568Y-106085094D01*
X137495904Y-106114596D01*
X137517809Y-106139875D01*
X137594814Y-106257742D01*
X137594817Y-106257745D01*
X137729580Y-106404137D01*
X137749208Y-106425458D01*
X137749212Y-106425461D01*
X137929094Y-106565469D01*
X137929096Y-106565470D01*
X137929099Y-106565472D01*
X137989731Y-106598284D01*
X138129574Y-106673963D01*
X138241529Y-106712397D01*
X138345173Y-106747979D01*
X138345175Y-106747979D01*
X138345177Y-106747980D01*
X138570023Y-106785500D01*
X138570024Y-106785500D01*
X138797976Y-106785500D01*
X138797977Y-106785500D01*
X139022823Y-106747980D01*
X139238426Y-106673963D01*
X139438906Y-106565469D01*
X139618794Y-106425456D01*
X139773183Y-106257745D01*
X139850191Y-106139874D01*
X139903337Y-106094518D01*
X139972568Y-106085094D01*
X140035904Y-106114596D01*
X140057809Y-106139875D01*
X140134814Y-106257742D01*
X140134817Y-106257745D01*
X140269580Y-106404137D01*
X140289208Y-106425458D01*
X140289212Y-106425461D01*
X140469094Y-106565469D01*
X140469096Y-106565470D01*
X140469099Y-106565472D01*
X140529731Y-106598284D01*
X140669574Y-106673963D01*
X140781529Y-106712397D01*
X140885173Y-106747979D01*
X140885175Y-106747979D01*
X140885177Y-106747980D01*
X141110023Y-106785500D01*
X141110024Y-106785500D01*
X141337976Y-106785500D01*
X141337977Y-106785500D01*
X141562823Y-106747980D01*
X141778426Y-106673963D01*
X141978906Y-106565469D01*
X142158794Y-106425456D01*
X142313183Y-106257745D01*
X142437862Y-106066909D01*
X142529430Y-105858155D01*
X142585390Y-105637176D01*
X142586966Y-105618157D01*
X142604214Y-105410006D01*
X142604214Y-105409993D01*
X142585391Y-105182831D01*
X142585389Y-105182820D01*
X142529430Y-104961844D01*
X142437862Y-104753091D01*
X142313185Y-104562257D01*
X142158791Y-104394541D01*
X142158787Y-104394538D01*
X141978909Y-104254533D01*
X141978900Y-104254527D01*
X141968789Y-104249056D01*
X141919197Y-104199838D01*
X141904087Y-104131621D01*
X141928257Y-104066065D01*
X141968789Y-104030944D01*
X141978900Y-104025472D01*
X141978906Y-104025469D01*
X142158794Y-103885456D01*
X142313183Y-103717745D01*
X142437862Y-103526909D01*
X142529430Y-103318155D01*
X142585390Y-103097176D01*
X142600823Y-102910930D01*
X142604214Y-102870006D01*
X142604214Y-102869993D01*
X144923786Y-102869993D01*
X144923786Y-102870006D01*
X144942608Y-103097168D01*
X144942610Y-103097179D01*
X144998569Y-103318155D01*
X145090137Y-103526908D01*
X145214814Y-103717742D01*
X145369208Y-103885458D01*
X145369212Y-103885461D01*
X145549094Y-104025469D01*
X145549096Y-104025470D01*
X145549099Y-104025472D01*
X145559214Y-104030946D01*
X145608804Y-104080166D01*
X145623911Y-104148382D01*
X145599740Y-104213938D01*
X145559214Y-104249054D01*
X145549099Y-104254527D01*
X145549090Y-104254533D01*
X145369212Y-104394538D01*
X145369208Y-104394541D01*
X145214814Y-104562257D01*
X145090137Y-104753091D01*
X144998569Y-104961844D01*
X144942610Y-105182820D01*
X144942608Y-105182831D01*
X144923786Y-105409993D01*
X144923786Y-105410006D01*
X144942608Y-105637168D01*
X144942610Y-105637179D01*
X144998569Y-105858155D01*
X145090137Y-106066908D01*
X145214814Y-106257742D01*
X145214817Y-106257745D01*
X145349580Y-106404137D01*
X145369208Y-106425458D01*
X145369212Y-106425461D01*
X145549094Y-106565469D01*
X145549096Y-106565470D01*
X145549099Y-106565472D01*
X145609731Y-106598284D01*
X145749574Y-106673963D01*
X145861529Y-106712397D01*
X145965173Y-106747979D01*
X145965175Y-106747979D01*
X145965177Y-106747980D01*
X146190023Y-106785500D01*
X146190024Y-106785500D01*
X146417976Y-106785500D01*
X146417977Y-106785500D01*
X146642823Y-106747980D01*
X146858426Y-106673963D01*
X147058906Y-106565469D01*
X147238794Y-106425456D01*
X147393183Y-106257745D01*
X147470191Y-106139874D01*
X147523337Y-106094518D01*
X147592568Y-106085094D01*
X147655904Y-106114596D01*
X147677809Y-106139875D01*
X147754814Y-106257742D01*
X147754817Y-106257745D01*
X147889580Y-106404137D01*
X147909208Y-106425458D01*
X147909212Y-106425461D01*
X148089094Y-106565469D01*
X148089096Y-106565470D01*
X148089099Y-106565472D01*
X148149731Y-106598284D01*
X148289574Y-106673963D01*
X148401529Y-106712397D01*
X148505173Y-106747979D01*
X148505175Y-106747979D01*
X148505177Y-106747980D01*
X148730023Y-106785500D01*
X148730024Y-106785500D01*
X148957976Y-106785500D01*
X148957977Y-106785500D01*
X149182823Y-106747980D01*
X149398426Y-106673963D01*
X149598906Y-106565469D01*
X149778794Y-106425456D01*
X149933183Y-106257745D01*
X150010191Y-106139874D01*
X150063337Y-106094518D01*
X150132568Y-106085094D01*
X150195904Y-106114596D01*
X150217809Y-106139875D01*
X150294814Y-106257742D01*
X150294817Y-106257745D01*
X150429580Y-106404137D01*
X150449208Y-106425458D01*
X150449212Y-106425461D01*
X150629094Y-106565469D01*
X150629096Y-106565470D01*
X150629099Y-106565472D01*
X150689731Y-106598284D01*
X150829574Y-106673963D01*
X150941529Y-106712397D01*
X151045173Y-106747979D01*
X151045175Y-106747979D01*
X151045177Y-106747980D01*
X151270023Y-106785500D01*
X151270024Y-106785500D01*
X151497976Y-106785500D01*
X151497977Y-106785500D01*
X151722823Y-106747980D01*
X151938426Y-106673963D01*
X152138906Y-106565469D01*
X152318794Y-106425456D01*
X152473183Y-106257745D01*
X152550191Y-106139874D01*
X152603337Y-106094518D01*
X152672568Y-106085094D01*
X152735904Y-106114596D01*
X152757809Y-106139875D01*
X152834814Y-106257742D01*
X152834817Y-106257745D01*
X152969580Y-106404137D01*
X152989208Y-106425458D01*
X152989212Y-106425461D01*
X153169094Y-106565469D01*
X153169096Y-106565470D01*
X153169099Y-106565472D01*
X153229731Y-106598284D01*
X153369574Y-106673963D01*
X153481529Y-106712397D01*
X153585173Y-106747979D01*
X153585175Y-106747979D01*
X153585177Y-106747980D01*
X153810023Y-106785500D01*
X153810024Y-106785500D01*
X154037976Y-106785500D01*
X154037977Y-106785500D01*
X154262823Y-106747980D01*
X154478426Y-106673963D01*
X154678906Y-106565469D01*
X154858794Y-106425456D01*
X155013183Y-106257745D01*
X155137862Y-106066909D01*
X155229430Y-105858155D01*
X155285390Y-105637176D01*
X155286966Y-105618157D01*
X155304214Y-105410006D01*
X155304214Y-105409993D01*
X155285391Y-105182831D01*
X155285389Y-105182820D01*
X155229430Y-104961844D01*
X155137862Y-104753091D01*
X155013185Y-104562257D01*
X154858791Y-104394541D01*
X154858787Y-104394538D01*
X154678909Y-104254533D01*
X154678900Y-104254527D01*
X154668789Y-104249056D01*
X154619197Y-104199838D01*
X154604087Y-104131621D01*
X154628257Y-104066065D01*
X154668789Y-104030944D01*
X154678900Y-104025472D01*
X154678906Y-104025469D01*
X154858794Y-103885456D01*
X155013183Y-103717745D01*
X155137862Y-103526909D01*
X155229430Y-103318155D01*
X155285390Y-103097176D01*
X155300823Y-102910930D01*
X155304214Y-102870006D01*
X155304214Y-102869993D01*
X157623786Y-102869993D01*
X157623786Y-102870006D01*
X157642608Y-103097168D01*
X157642610Y-103097179D01*
X157698569Y-103318155D01*
X157790137Y-103526908D01*
X157914814Y-103717742D01*
X158069208Y-103885458D01*
X158069212Y-103885461D01*
X158249094Y-104025469D01*
X158249096Y-104025470D01*
X158249099Y-104025472D01*
X158259214Y-104030946D01*
X158308804Y-104080166D01*
X158323911Y-104148382D01*
X158299740Y-104213938D01*
X158259214Y-104249054D01*
X158249099Y-104254527D01*
X158249090Y-104254533D01*
X158069212Y-104394538D01*
X158069208Y-104394541D01*
X157914814Y-104562257D01*
X157790137Y-104753091D01*
X157698569Y-104961844D01*
X157642610Y-105182820D01*
X157642608Y-105182831D01*
X157623786Y-105409993D01*
X157623786Y-105410006D01*
X157642608Y-105637168D01*
X157642610Y-105637179D01*
X157698569Y-105858155D01*
X157790137Y-106066908D01*
X157914814Y-106257742D01*
X157914817Y-106257745D01*
X158049580Y-106404137D01*
X158069208Y-106425458D01*
X158069212Y-106425461D01*
X158249094Y-106565469D01*
X158249096Y-106565470D01*
X158249099Y-106565472D01*
X158309731Y-106598284D01*
X158449574Y-106673963D01*
X158561529Y-106712397D01*
X158665173Y-106747979D01*
X158665175Y-106747979D01*
X158665177Y-106747980D01*
X158890023Y-106785500D01*
X158890024Y-106785500D01*
X159117976Y-106785500D01*
X159117977Y-106785500D01*
X159342823Y-106747980D01*
X159558426Y-106673963D01*
X159758906Y-106565469D01*
X159938794Y-106425456D01*
X160093183Y-106257745D01*
X160170191Y-106139874D01*
X160223337Y-106094518D01*
X160292568Y-106085094D01*
X160355904Y-106114596D01*
X160377809Y-106139875D01*
X160454814Y-106257742D01*
X160454817Y-106257745D01*
X160589580Y-106404137D01*
X160609208Y-106425458D01*
X160609212Y-106425461D01*
X160789094Y-106565469D01*
X160789096Y-106565470D01*
X160789099Y-106565472D01*
X160849731Y-106598284D01*
X160989574Y-106673963D01*
X161101529Y-106712397D01*
X161205173Y-106747979D01*
X161205175Y-106747979D01*
X161205177Y-106747980D01*
X161430023Y-106785500D01*
X161430024Y-106785500D01*
X161657976Y-106785500D01*
X161657977Y-106785500D01*
X161882823Y-106747980D01*
X162098426Y-106673963D01*
X162298906Y-106565469D01*
X162478794Y-106425456D01*
X162633183Y-106257745D01*
X162710191Y-106139874D01*
X162763337Y-106094518D01*
X162832568Y-106085094D01*
X162895904Y-106114596D01*
X162917809Y-106139875D01*
X162994814Y-106257742D01*
X162994817Y-106257745D01*
X163129580Y-106404137D01*
X163149208Y-106425458D01*
X163149212Y-106425461D01*
X163329094Y-106565469D01*
X163329096Y-106565470D01*
X163329099Y-106565472D01*
X163389731Y-106598284D01*
X163529574Y-106673963D01*
X163641529Y-106712397D01*
X163745173Y-106747979D01*
X163745175Y-106747979D01*
X163745177Y-106747980D01*
X163970023Y-106785500D01*
X163970024Y-106785500D01*
X164197976Y-106785500D01*
X164197977Y-106785500D01*
X164422823Y-106747980D01*
X164638426Y-106673963D01*
X164838906Y-106565469D01*
X165018794Y-106425456D01*
X165173183Y-106257745D01*
X165250191Y-106139874D01*
X165303337Y-106094518D01*
X165372568Y-106085094D01*
X165435904Y-106114596D01*
X165457809Y-106139875D01*
X165534814Y-106257742D01*
X165534817Y-106257745D01*
X165669580Y-106404137D01*
X165689208Y-106425458D01*
X165689212Y-106425461D01*
X165869094Y-106565469D01*
X165869096Y-106565470D01*
X165869099Y-106565472D01*
X165929731Y-106598284D01*
X166069574Y-106673963D01*
X166181529Y-106712397D01*
X166285173Y-106747979D01*
X166285175Y-106747979D01*
X166285177Y-106747980D01*
X166510023Y-106785500D01*
X166510024Y-106785500D01*
X166737976Y-106785500D01*
X166737977Y-106785500D01*
X166962823Y-106747980D01*
X167178426Y-106673963D01*
X167378906Y-106565469D01*
X167558794Y-106425456D01*
X167713183Y-106257745D01*
X167790191Y-106139874D01*
X167843337Y-106094518D01*
X167912568Y-106085094D01*
X167975904Y-106114596D01*
X167997809Y-106139875D01*
X168074814Y-106257742D01*
X168074817Y-106257745D01*
X168209580Y-106404137D01*
X168229208Y-106425458D01*
X168229212Y-106425461D01*
X168409094Y-106565469D01*
X168409096Y-106565470D01*
X168409099Y-106565472D01*
X168469731Y-106598284D01*
X168609574Y-106673963D01*
X168721529Y-106712397D01*
X168825173Y-106747979D01*
X168825175Y-106747979D01*
X168825177Y-106747980D01*
X169050023Y-106785500D01*
X169050024Y-106785500D01*
X169277976Y-106785500D01*
X169277977Y-106785500D01*
X169502823Y-106747980D01*
X169718426Y-106673963D01*
X169918906Y-106565469D01*
X170098794Y-106425456D01*
X170253183Y-106257745D01*
X170377862Y-106066909D01*
X170469430Y-105858155D01*
X170525390Y-105637176D01*
X170526966Y-105618157D01*
X170544214Y-105410006D01*
X170544214Y-105409993D01*
X170525391Y-105182831D01*
X170525389Y-105182820D01*
X170469430Y-104961844D01*
X170377862Y-104753091D01*
X170253185Y-104562257D01*
X170098791Y-104394541D01*
X170098787Y-104394538D01*
X169918909Y-104254533D01*
X169918900Y-104254527D01*
X169908789Y-104249056D01*
X169859197Y-104199838D01*
X169844087Y-104131621D01*
X169868257Y-104066065D01*
X169908789Y-104030944D01*
X169918900Y-104025472D01*
X169918906Y-104025469D01*
X170098794Y-103885456D01*
X170253183Y-103717745D01*
X170377862Y-103526909D01*
X170469430Y-103318155D01*
X170525390Y-103097176D01*
X170540823Y-102910930D01*
X170544214Y-102870006D01*
X170544214Y-102869993D01*
X170525391Y-102642831D01*
X170525389Y-102642820D01*
X170469430Y-102421844D01*
X170377862Y-102213091D01*
X170253185Y-102022257D01*
X170098791Y-101854541D01*
X170098787Y-101854538D01*
X169918909Y-101714533D01*
X169918900Y-101714527D01*
X169718432Y-101606040D01*
X169718429Y-101606039D01*
X169718426Y-101606037D01*
X169718420Y-101606035D01*
X169718418Y-101606034D01*
X169502826Y-101532020D01*
X169334188Y-101503880D01*
X169277977Y-101494500D01*
X169050023Y-101494500D01*
X169005053Y-101502004D01*
X168825173Y-101532020D01*
X168609581Y-101606034D01*
X168609567Y-101606040D01*
X168409099Y-101714527D01*
X168409090Y-101714533D01*
X168229212Y-101854538D01*
X168229208Y-101854541D01*
X168074817Y-102022255D01*
X167997809Y-102140125D01*
X167944662Y-102185481D01*
X167875431Y-102194905D01*
X167812095Y-102165403D01*
X167790191Y-102140125D01*
X167713183Y-102022255D01*
X167558794Y-101854544D01*
X167558793Y-101854543D01*
X167558791Y-101854541D01*
X167558787Y-101854538D01*
X167378909Y-101714533D01*
X167378900Y-101714527D01*
X167178432Y-101606040D01*
X167178429Y-101606039D01*
X167178426Y-101606037D01*
X167178420Y-101606035D01*
X167178418Y-101606034D01*
X166962826Y-101532020D01*
X166794188Y-101503880D01*
X166737977Y-101494500D01*
X166510023Y-101494500D01*
X166465053Y-101502004D01*
X166285173Y-101532020D01*
X166069581Y-101606034D01*
X166069567Y-101606040D01*
X165869099Y-101714527D01*
X165869090Y-101714533D01*
X165689212Y-101854538D01*
X165689208Y-101854541D01*
X165534817Y-102022255D01*
X165457809Y-102140125D01*
X165404662Y-102185481D01*
X165335431Y-102194905D01*
X165272095Y-102165403D01*
X165250191Y-102140125D01*
X165173183Y-102022255D01*
X165018794Y-101854544D01*
X165018793Y-101854543D01*
X165018791Y-101854541D01*
X165018787Y-101854538D01*
X164838909Y-101714533D01*
X164838900Y-101714527D01*
X164638432Y-101606040D01*
X164638429Y-101606039D01*
X164638426Y-101606037D01*
X164638420Y-101606035D01*
X164638418Y-101606034D01*
X164422826Y-101532020D01*
X164254188Y-101503880D01*
X164197977Y-101494500D01*
X163970023Y-101494500D01*
X163925053Y-101502004D01*
X163745173Y-101532020D01*
X163529581Y-101606034D01*
X163529567Y-101606040D01*
X163329099Y-101714527D01*
X163329090Y-101714533D01*
X163149212Y-101854538D01*
X163149208Y-101854541D01*
X162994817Y-102022255D01*
X162917809Y-102140125D01*
X162864662Y-102185481D01*
X162795431Y-102194905D01*
X162732095Y-102165403D01*
X162710191Y-102140125D01*
X162633183Y-102022255D01*
X162478794Y-101854544D01*
X162478793Y-101854543D01*
X162478791Y-101854541D01*
X162478787Y-101854538D01*
X162298909Y-101714533D01*
X162298900Y-101714527D01*
X162098432Y-101606040D01*
X162098429Y-101606039D01*
X162098426Y-101606037D01*
X162098420Y-101606035D01*
X162098418Y-101606034D01*
X161882826Y-101532020D01*
X161714188Y-101503880D01*
X161657977Y-101494500D01*
X161430023Y-101494500D01*
X161385053Y-101502004D01*
X161205173Y-101532020D01*
X160989581Y-101606034D01*
X160989567Y-101606040D01*
X160789099Y-101714527D01*
X160789090Y-101714533D01*
X160609212Y-101854538D01*
X160609208Y-101854541D01*
X160454817Y-102022255D01*
X160377809Y-102140125D01*
X160324662Y-102185481D01*
X160255431Y-102194905D01*
X160192095Y-102165403D01*
X160170191Y-102140125D01*
X160093183Y-102022255D01*
X159938794Y-101854544D01*
X159938793Y-101854543D01*
X159938791Y-101854541D01*
X159938787Y-101854538D01*
X159758909Y-101714533D01*
X159758900Y-101714527D01*
X159558432Y-101606040D01*
X159558429Y-101606039D01*
X159558426Y-101606037D01*
X159558420Y-101606035D01*
X159558418Y-101606034D01*
X159342826Y-101532020D01*
X159174188Y-101503880D01*
X159117977Y-101494500D01*
X158890023Y-101494500D01*
X158845053Y-101502004D01*
X158665173Y-101532020D01*
X158449581Y-101606034D01*
X158449567Y-101606040D01*
X158249099Y-101714527D01*
X158249090Y-101714533D01*
X158069212Y-101854538D01*
X158069208Y-101854541D01*
X157914814Y-102022257D01*
X157790137Y-102213091D01*
X157698569Y-102421844D01*
X157642610Y-102642820D01*
X157642608Y-102642831D01*
X157623786Y-102869993D01*
X155304214Y-102869993D01*
X155285391Y-102642831D01*
X155285389Y-102642820D01*
X155229430Y-102421844D01*
X155137862Y-102213091D01*
X155013185Y-102022257D01*
X154858791Y-101854541D01*
X154858787Y-101854538D01*
X154678909Y-101714533D01*
X154678900Y-101714527D01*
X154478432Y-101606040D01*
X154478429Y-101606039D01*
X154478426Y-101606037D01*
X154478420Y-101606035D01*
X154478418Y-101606034D01*
X154262826Y-101532020D01*
X154094188Y-101503880D01*
X154037977Y-101494500D01*
X153810023Y-101494500D01*
X153765053Y-101502004D01*
X153585173Y-101532020D01*
X153369581Y-101606034D01*
X153369567Y-101606040D01*
X153169099Y-101714527D01*
X153169090Y-101714533D01*
X152989212Y-101854538D01*
X152989208Y-101854541D01*
X152834817Y-102022255D01*
X152757809Y-102140125D01*
X152704662Y-102185481D01*
X152635431Y-102194905D01*
X152572095Y-102165403D01*
X152550191Y-102140125D01*
X152473183Y-102022255D01*
X152318794Y-101854544D01*
X152318793Y-101854543D01*
X152318791Y-101854541D01*
X152318787Y-101854538D01*
X152138909Y-101714533D01*
X152138900Y-101714527D01*
X151938432Y-101606040D01*
X151938429Y-101606039D01*
X151938426Y-101606037D01*
X151938420Y-101606035D01*
X151938418Y-101606034D01*
X151722826Y-101532020D01*
X151554188Y-101503880D01*
X151497977Y-101494500D01*
X151270023Y-101494500D01*
X151225053Y-101502004D01*
X151045173Y-101532020D01*
X150829581Y-101606034D01*
X150829567Y-101606040D01*
X150629099Y-101714527D01*
X150629090Y-101714533D01*
X150449212Y-101854538D01*
X150449208Y-101854541D01*
X150294817Y-102022255D01*
X150217809Y-102140125D01*
X150164662Y-102185481D01*
X150095431Y-102194905D01*
X150032095Y-102165403D01*
X150010191Y-102140125D01*
X149933183Y-102022255D01*
X149778794Y-101854544D01*
X149778793Y-101854543D01*
X149778791Y-101854541D01*
X149778787Y-101854538D01*
X149598909Y-101714533D01*
X149598900Y-101714527D01*
X149398432Y-101606040D01*
X149398429Y-101606039D01*
X149398426Y-101606037D01*
X149398420Y-101606035D01*
X149398418Y-101606034D01*
X149182826Y-101532020D01*
X149014188Y-101503880D01*
X148957977Y-101494500D01*
X148730023Y-101494500D01*
X148685053Y-101502004D01*
X148505173Y-101532020D01*
X148289581Y-101606034D01*
X148289567Y-101606040D01*
X148089099Y-101714527D01*
X148089090Y-101714533D01*
X147909212Y-101854538D01*
X147909208Y-101854541D01*
X147754817Y-102022255D01*
X147677809Y-102140125D01*
X147624662Y-102185481D01*
X147555431Y-102194905D01*
X147492095Y-102165403D01*
X147470191Y-102140125D01*
X147393183Y-102022255D01*
X147238794Y-101854544D01*
X147238793Y-101854543D01*
X147238791Y-101854541D01*
X147238787Y-101854538D01*
X147058909Y-101714533D01*
X147058900Y-101714527D01*
X146858432Y-101606040D01*
X146858429Y-101606039D01*
X146858426Y-101606037D01*
X146858420Y-101606035D01*
X146858418Y-101606034D01*
X146642826Y-101532020D01*
X146474188Y-101503880D01*
X146417977Y-101494500D01*
X146190023Y-101494500D01*
X146145053Y-101502004D01*
X145965173Y-101532020D01*
X145749581Y-101606034D01*
X145749567Y-101606040D01*
X145549099Y-101714527D01*
X145549090Y-101714533D01*
X145369212Y-101854538D01*
X145369208Y-101854541D01*
X145214814Y-102022257D01*
X145090137Y-102213091D01*
X144998569Y-102421844D01*
X144942610Y-102642820D01*
X144942608Y-102642831D01*
X144923786Y-102869993D01*
X142604214Y-102869993D01*
X142585391Y-102642831D01*
X142585389Y-102642820D01*
X142529430Y-102421844D01*
X142437862Y-102213091D01*
X142313185Y-102022257D01*
X142158791Y-101854541D01*
X142158787Y-101854538D01*
X141978909Y-101714533D01*
X141978900Y-101714527D01*
X141778432Y-101606040D01*
X141778429Y-101606039D01*
X141778426Y-101606037D01*
X141778420Y-101606035D01*
X141778418Y-101606034D01*
X141562826Y-101532020D01*
X141394188Y-101503880D01*
X141337977Y-101494500D01*
X141110023Y-101494500D01*
X141065053Y-101502004D01*
X140885173Y-101532020D01*
X140669581Y-101606034D01*
X140669567Y-101606040D01*
X140469099Y-101714527D01*
X140469090Y-101714533D01*
X140289212Y-101854538D01*
X140289208Y-101854541D01*
X140134817Y-102022255D01*
X140057809Y-102140125D01*
X140004662Y-102185481D01*
X139935431Y-102194905D01*
X139872095Y-102165403D01*
X139850191Y-102140125D01*
X139773183Y-102022255D01*
X139618794Y-101854544D01*
X139618793Y-101854543D01*
X139618791Y-101854541D01*
X139618787Y-101854538D01*
X139438909Y-101714533D01*
X139438900Y-101714527D01*
X139238432Y-101606040D01*
X139238429Y-101606039D01*
X139238426Y-101606037D01*
X139238420Y-101606035D01*
X139238418Y-101606034D01*
X139022826Y-101532020D01*
X138854188Y-101503880D01*
X138797977Y-101494500D01*
X138570023Y-101494500D01*
X138525053Y-101502004D01*
X138345173Y-101532020D01*
X138129581Y-101606034D01*
X138129567Y-101606040D01*
X137929099Y-101714527D01*
X137929090Y-101714533D01*
X137749212Y-101854538D01*
X137749208Y-101854541D01*
X137594817Y-102022255D01*
X137517809Y-102140125D01*
X137464662Y-102185481D01*
X137395431Y-102194905D01*
X137332095Y-102165403D01*
X137310191Y-102140125D01*
X137233183Y-102022255D01*
X137078794Y-101854544D01*
X137078793Y-101854543D01*
X137078791Y-101854541D01*
X137078787Y-101854538D01*
X136898909Y-101714533D01*
X136898900Y-101714527D01*
X136698432Y-101606040D01*
X136698429Y-101606039D01*
X136698426Y-101606037D01*
X136698420Y-101606035D01*
X136698418Y-101606034D01*
X136482826Y-101532020D01*
X136314188Y-101503880D01*
X136257977Y-101494500D01*
X136030023Y-101494500D01*
X135985053Y-101502004D01*
X135805173Y-101532020D01*
X135589581Y-101606034D01*
X135589567Y-101606040D01*
X135389099Y-101714527D01*
X135389090Y-101714533D01*
X135209212Y-101854538D01*
X135209208Y-101854541D01*
X135054817Y-102022255D01*
X134977809Y-102140125D01*
X134924662Y-102185481D01*
X134855431Y-102194905D01*
X134792095Y-102165403D01*
X134770191Y-102140125D01*
X134693183Y-102022255D01*
X134538794Y-101854544D01*
X134538793Y-101854543D01*
X134538791Y-101854541D01*
X134538787Y-101854538D01*
X134358909Y-101714533D01*
X134358900Y-101714527D01*
X134158432Y-101606040D01*
X134158429Y-101606039D01*
X134158426Y-101606037D01*
X134158420Y-101606035D01*
X134158418Y-101606034D01*
X133942826Y-101532020D01*
X133774188Y-101503880D01*
X133717977Y-101494500D01*
X133490023Y-101494500D01*
X133445053Y-101502004D01*
X133265173Y-101532020D01*
X133049581Y-101606034D01*
X133049567Y-101606040D01*
X132849099Y-101714527D01*
X132849090Y-101714533D01*
X132669212Y-101854538D01*
X132669208Y-101854541D01*
X132514814Y-102022257D01*
X132390137Y-102213091D01*
X132298569Y-102421844D01*
X132242610Y-102642820D01*
X132242608Y-102642831D01*
X132223786Y-102869993D01*
X101790133Y-102869993D01*
X101773618Y-102491701D01*
X101773500Y-102486293D01*
X101773500Y-85470996D01*
X161754435Y-85470996D01*
X161754435Y-85471003D01*
X161774630Y-85650249D01*
X161774631Y-85650254D01*
X161834211Y-85820523D01*
X161930184Y-85973262D01*
X162057738Y-86100816D01*
X162210478Y-86196789D01*
X162380745Y-86256368D01*
X162380750Y-86256369D01*
X162559996Y-86276565D01*
X162560000Y-86276565D01*
X162560004Y-86276565D01*
X162739249Y-86256369D01*
X162739252Y-86256368D01*
X162739255Y-86256368D01*
X162909522Y-86196789D01*
X163062262Y-86100816D01*
X163189816Y-85973262D01*
X163285789Y-85820522D01*
X163345368Y-85650255D01*
X163365565Y-85471000D01*
X163345368Y-85291745D01*
X163285789Y-85121478D01*
X163189816Y-84968738D01*
X163062262Y-84841184D01*
X162909523Y-84745211D01*
X162739254Y-84685631D01*
X162739249Y-84685630D01*
X162560004Y-84665435D01*
X162559996Y-84665435D01*
X162380750Y-84685630D01*
X162380745Y-84685631D01*
X162210476Y-84745211D01*
X162057737Y-84841184D01*
X161930184Y-84968737D01*
X161834211Y-85121476D01*
X161774631Y-85291745D01*
X161774630Y-85291750D01*
X161754435Y-85470996D01*
X101773500Y-85470996D01*
X101773500Y-66039993D01*
X102251786Y-66039993D01*
X102251786Y-66040006D01*
X102270608Y-66267168D01*
X102270610Y-66267179D01*
X102326569Y-66488155D01*
X102418137Y-66696908D01*
X102542814Y-66887742D01*
X102697208Y-67055458D01*
X102697212Y-67055461D01*
X102877094Y-67195469D01*
X102877096Y-67195470D01*
X102877099Y-67195472D01*
X102887214Y-67200946D01*
X102936804Y-67250166D01*
X102951911Y-67318382D01*
X102927740Y-67383938D01*
X102887214Y-67419054D01*
X102877099Y-67424527D01*
X102877090Y-67424533D01*
X102697212Y-67564538D01*
X102697208Y-67564541D01*
X102542814Y-67732257D01*
X102418137Y-67923091D01*
X102326569Y-68131844D01*
X102270610Y-68352820D01*
X102270608Y-68352831D01*
X102251786Y-68579993D01*
X102251786Y-68580006D01*
X102270608Y-68807168D01*
X102270610Y-68807179D01*
X102326569Y-69028155D01*
X102418137Y-69236908D01*
X102542814Y-69427742D01*
X102697208Y-69595458D01*
X102697212Y-69595461D01*
X102877094Y-69735469D01*
X102877096Y-69735470D01*
X102877099Y-69735472D01*
X102887214Y-69740946D01*
X102936804Y-69790166D01*
X102951911Y-69858382D01*
X102927740Y-69923938D01*
X102887214Y-69959054D01*
X102877099Y-69964527D01*
X102877090Y-69964533D01*
X102697212Y-70104538D01*
X102697208Y-70104541D01*
X102542814Y-70272257D01*
X102418137Y-70463091D01*
X102326569Y-70671844D01*
X102270610Y-70892820D01*
X102270608Y-70892831D01*
X102251786Y-71119993D01*
X102251786Y-71120006D01*
X102270608Y-71347168D01*
X102270610Y-71347179D01*
X102326569Y-71568155D01*
X102418137Y-71776908D01*
X102542814Y-71967742D01*
X102697208Y-72135458D01*
X102697212Y-72135461D01*
X102877094Y-72275469D01*
X102877096Y-72275470D01*
X102877099Y-72275472D01*
X102887214Y-72280946D01*
X102936804Y-72330166D01*
X102951911Y-72398382D01*
X102927740Y-72463938D01*
X102887214Y-72499054D01*
X102877099Y-72504527D01*
X102877090Y-72504533D01*
X102697212Y-72644538D01*
X102697208Y-72644541D01*
X102542814Y-72812257D01*
X102418137Y-73003091D01*
X102326569Y-73211844D01*
X102270610Y-73432820D01*
X102270608Y-73432831D01*
X102251786Y-73659993D01*
X102251786Y-73660006D01*
X102270608Y-73887168D01*
X102270610Y-73887179D01*
X102326569Y-74108155D01*
X102418137Y-74316908D01*
X102542814Y-74507742D01*
X102697208Y-74675458D01*
X102697212Y-74675461D01*
X102877094Y-74815469D01*
X102887211Y-74820944D01*
X102887736Y-74821228D01*
X102937328Y-74870446D01*
X102952438Y-74938662D01*
X102928268Y-75004218D01*
X102887744Y-75039336D01*
X102877366Y-75044952D01*
X102851015Y-75065461D01*
X102851015Y-75065463D01*
X103502590Y-75717037D01*
X103439007Y-75734075D01*
X103324993Y-75799901D01*
X103231901Y-75892993D01*
X103166075Y-76007007D01*
X103149037Y-76070591D01*
X102498874Y-75420428D01*
X102418578Y-75543333D01*
X102418577Y-75543335D01*
X102327045Y-75752006D01*
X102271105Y-75972906D01*
X102271103Y-75972914D01*
X102252288Y-76199993D01*
X102252288Y-76200006D01*
X102271103Y-76427085D01*
X102271105Y-76427093D01*
X102327045Y-76647993D01*
X102418577Y-76856664D01*
X102418579Y-76856668D01*
X102498874Y-76979570D01*
X103149037Y-76329408D01*
X103166075Y-76392993D01*
X103231901Y-76507007D01*
X103324993Y-76600099D01*
X103439007Y-76665925D01*
X103502590Y-76682962D01*
X102851015Y-77334536D01*
X102851015Y-77334538D01*
X102877360Y-77355043D01*
X102877371Y-77355050D01*
X102888265Y-77360946D01*
X102937855Y-77410166D01*
X102952962Y-77478383D01*
X102928791Y-77543938D01*
X102888268Y-77579052D01*
X102877368Y-77584950D01*
X102851015Y-77605461D01*
X102851015Y-77605463D01*
X103502590Y-78257037D01*
X103439007Y-78274075D01*
X103324993Y-78339901D01*
X103231901Y-78432993D01*
X103166075Y-78547007D01*
X103149037Y-78610591D01*
X102498874Y-77960428D01*
X102418578Y-78083333D01*
X102418577Y-78083335D01*
X102327045Y-78292006D01*
X102271105Y-78512906D01*
X102271103Y-78512914D01*
X102252288Y-78739993D01*
X102252288Y-78740006D01*
X102271103Y-78967085D01*
X102271105Y-78967093D01*
X102327045Y-79187993D01*
X102418577Y-79396664D01*
X102418579Y-79396668D01*
X102498874Y-79519570D01*
X103149037Y-78869408D01*
X103166075Y-78932993D01*
X103231901Y-79047007D01*
X103324993Y-79140099D01*
X103439007Y-79205925D01*
X103502590Y-79222962D01*
X102851015Y-79874536D01*
X102851015Y-79874538D01*
X102877360Y-79895043D01*
X102877371Y-79895050D01*
X102888265Y-79900946D01*
X102937855Y-79950166D01*
X102952962Y-80018383D01*
X102928791Y-80083938D01*
X102888268Y-80119052D01*
X102877368Y-80124950D01*
X102851015Y-80145461D01*
X102851015Y-80145463D01*
X103502590Y-80797037D01*
X103439007Y-80814075D01*
X103324993Y-80879901D01*
X103231901Y-80972993D01*
X103166075Y-81087007D01*
X103149037Y-81150591D01*
X102498874Y-80500428D01*
X102418578Y-80623333D01*
X102418577Y-80623335D01*
X102327045Y-80832006D01*
X102271105Y-81052906D01*
X102271103Y-81052914D01*
X102252288Y-81279993D01*
X102252288Y-81280006D01*
X102271103Y-81507085D01*
X102271105Y-81507093D01*
X102327045Y-81727993D01*
X102418577Y-81936664D01*
X102418579Y-81936668D01*
X102498874Y-82059570D01*
X103149037Y-81409408D01*
X103166075Y-81472993D01*
X103231901Y-81587007D01*
X103324993Y-81680099D01*
X103439007Y-81745925D01*
X103502590Y-81762962D01*
X102851015Y-82414536D01*
X102851015Y-82414538D01*
X102877360Y-82435043D01*
X102877371Y-82435050D01*
X102888265Y-82440946D01*
X102937855Y-82490166D01*
X102952962Y-82558383D01*
X102928791Y-82623938D01*
X102888268Y-82659052D01*
X102877368Y-82664950D01*
X102851015Y-82685461D01*
X102851015Y-82685463D01*
X103502590Y-83337037D01*
X103439007Y-83354075D01*
X103324993Y-83419901D01*
X103231901Y-83512993D01*
X103166075Y-83627007D01*
X103149037Y-83690591D01*
X102498874Y-83040428D01*
X102418578Y-83163333D01*
X102418577Y-83163335D01*
X102327045Y-83372006D01*
X102271105Y-83592906D01*
X102271103Y-83592914D01*
X102252288Y-83819993D01*
X102252288Y-83820006D01*
X102271103Y-84047085D01*
X102271105Y-84047093D01*
X102327045Y-84267993D01*
X102418577Y-84476664D01*
X102418579Y-84476668D01*
X102498874Y-84599570D01*
X103149037Y-83949408D01*
X103166075Y-84012993D01*
X103231901Y-84127007D01*
X103324993Y-84220099D01*
X103439007Y-84285925D01*
X103502590Y-84302962D01*
X102851015Y-84954536D01*
X102851015Y-84954538D01*
X102877360Y-84975043D01*
X102877371Y-84975050D01*
X103077769Y-85083499D01*
X103077780Y-85083504D01*
X103293298Y-85157492D01*
X103518065Y-85195000D01*
X103745935Y-85195000D01*
X103970701Y-85157492D01*
X104186219Y-85083504D01*
X104186230Y-85083499D01*
X104386627Y-84975050D01*
X104386633Y-84975046D01*
X104412983Y-84954537D01*
X104412984Y-84954536D01*
X103761409Y-84302962D01*
X103824993Y-84285925D01*
X103939007Y-84220099D01*
X104032099Y-84127007D01*
X104097925Y-84012993D01*
X104114962Y-83949410D01*
X104765125Y-84599571D01*
X104845420Y-84476669D01*
X104936954Y-84267993D01*
X104992894Y-84047093D01*
X104992896Y-84047085D01*
X105011712Y-83820006D01*
X105011712Y-83819993D01*
X104992896Y-83592914D01*
X104992894Y-83592906D01*
X104936954Y-83372006D01*
X104845420Y-83163330D01*
X104765124Y-83040427D01*
X104114962Y-83690589D01*
X104097925Y-83627007D01*
X104032099Y-83512993D01*
X103939007Y-83419901D01*
X103824993Y-83354075D01*
X103761407Y-83337037D01*
X104412983Y-82685462D01*
X104386628Y-82664950D01*
X104375737Y-82659056D01*
X104326146Y-82609837D01*
X104311036Y-82541621D01*
X104335206Y-82476065D01*
X104375737Y-82440944D01*
X104386632Y-82435047D01*
X104386633Y-82435046D01*
X104412983Y-82414537D01*
X104412984Y-82414536D01*
X103761409Y-81762962D01*
X103824993Y-81745925D01*
X103939007Y-81680099D01*
X104032099Y-81587007D01*
X104097925Y-81472993D01*
X104114962Y-81409410D01*
X104765125Y-82059571D01*
X104845420Y-81936669D01*
X104936954Y-81727993D01*
X104992894Y-81507093D01*
X104992896Y-81507085D01*
X105011712Y-81280006D01*
X105011712Y-81279993D01*
X104992896Y-81052914D01*
X104992894Y-81052906D01*
X104936954Y-80832006D01*
X104854924Y-80644996D01*
X136862435Y-80644996D01*
X136862435Y-80645003D01*
X136882630Y-80824249D01*
X136882631Y-80824254D01*
X136942211Y-80994523D01*
X136978849Y-81052831D01*
X137038184Y-81147262D01*
X137165738Y-81274816D01*
X137318478Y-81370789D01*
X137488745Y-81430368D01*
X137488750Y-81430369D01*
X137667996Y-81450565D01*
X137668000Y-81450565D01*
X137668004Y-81450565D01*
X137847249Y-81430369D01*
X137847252Y-81430368D01*
X137847255Y-81430368D01*
X138017522Y-81370789D01*
X138170262Y-81274816D01*
X138297816Y-81147262D01*
X138393789Y-80994522D01*
X138453368Y-80824255D01*
X138454515Y-80814075D01*
X138473565Y-80645003D01*
X138473565Y-80644996D01*
X144101435Y-80644996D01*
X144101435Y-80645003D01*
X144121630Y-80824249D01*
X144121631Y-80824254D01*
X144181211Y-80994523D01*
X144217849Y-81052831D01*
X144277184Y-81147262D01*
X144404738Y-81274816D01*
X144557478Y-81370789D01*
X144727745Y-81430368D01*
X144727750Y-81430369D01*
X144906996Y-81450565D01*
X144907000Y-81450565D01*
X144907004Y-81450565D01*
X145086249Y-81430369D01*
X145086252Y-81430368D01*
X145086255Y-81430368D01*
X145256522Y-81370789D01*
X145409262Y-81274816D01*
X145536816Y-81147262D01*
X145632789Y-80994522D01*
X145692368Y-80824255D01*
X145693515Y-80814075D01*
X145712565Y-80645003D01*
X145712565Y-80644996D01*
X145692369Y-80465750D01*
X145692368Y-80465745D01*
X145632788Y-80295476D01*
X145538528Y-80145463D01*
X145536816Y-80142738D01*
X145409262Y-80015184D01*
X145305787Y-79950166D01*
X145256523Y-79919211D01*
X145086254Y-79859631D01*
X145086249Y-79859630D01*
X144907004Y-79839435D01*
X144906996Y-79839435D01*
X144727750Y-79859630D01*
X144727745Y-79859631D01*
X144557476Y-79919211D01*
X144404737Y-80015184D01*
X144277184Y-80142737D01*
X144181211Y-80295476D01*
X144121631Y-80465745D01*
X144121630Y-80465750D01*
X144101435Y-80644996D01*
X138473565Y-80644996D01*
X138453369Y-80465750D01*
X138453368Y-80465745D01*
X138393788Y-80295476D01*
X138299528Y-80145463D01*
X138297816Y-80142738D01*
X138170262Y-80015184D01*
X138066787Y-79950166D01*
X138017523Y-79919211D01*
X137847254Y-79859631D01*
X137847249Y-79859630D01*
X137668004Y-79839435D01*
X137667996Y-79839435D01*
X137488750Y-79859630D01*
X137488745Y-79859631D01*
X137318476Y-79919211D01*
X137165737Y-80015184D01*
X137038184Y-80142737D01*
X136942211Y-80295476D01*
X136882631Y-80465745D01*
X136882630Y-80465750D01*
X136862435Y-80644996D01*
X104854924Y-80644996D01*
X104845420Y-80623330D01*
X104765124Y-80500427D01*
X104114962Y-81150589D01*
X104097925Y-81087007D01*
X104032099Y-80972993D01*
X103939007Y-80879901D01*
X103824993Y-80814075D01*
X103761407Y-80797037D01*
X104412983Y-80145462D01*
X104386628Y-80124950D01*
X104375737Y-80119056D01*
X104326146Y-80069837D01*
X104311036Y-80001621D01*
X104335206Y-79936065D01*
X104375737Y-79900944D01*
X104386632Y-79895047D01*
X104386633Y-79895046D01*
X104412983Y-79874537D01*
X104412984Y-79874536D01*
X103761409Y-79222962D01*
X103824993Y-79205925D01*
X103939007Y-79140099D01*
X104032099Y-79047007D01*
X104097925Y-78932993D01*
X104114962Y-78869410D01*
X104765125Y-79519571D01*
X104845420Y-79396669D01*
X104936954Y-79187993D01*
X104992894Y-78967093D01*
X104992896Y-78967085D01*
X105001189Y-78866996D01*
X149816435Y-78866996D01*
X149816435Y-78867003D01*
X149836630Y-79046249D01*
X149836631Y-79046254D01*
X149896211Y-79216523D01*
X149910963Y-79240000D01*
X149992184Y-79369262D01*
X150119738Y-79496816D01*
X150210080Y-79553582D01*
X150264450Y-79587745D01*
X150272478Y-79592789D01*
X150442745Y-79652368D01*
X150442750Y-79652369D01*
X150621996Y-79672565D01*
X150622000Y-79672565D01*
X150622004Y-79672565D01*
X150801249Y-79652369D01*
X150801252Y-79652368D01*
X150801255Y-79652368D01*
X150971522Y-79592789D01*
X151124262Y-79496816D01*
X151251816Y-79369262D01*
X151347789Y-79216522D01*
X151407368Y-79046255D01*
X151416279Y-78967168D01*
X151427565Y-78867003D01*
X151427565Y-78866996D01*
X151407369Y-78687750D01*
X151407368Y-78687745D01*
X151402619Y-78674174D01*
X151347789Y-78517478D01*
X151251816Y-78364738D01*
X151124262Y-78237184D01*
X150971523Y-78141211D01*
X150801254Y-78081631D01*
X150801249Y-78081630D01*
X150622004Y-78061435D01*
X150621996Y-78061435D01*
X150442750Y-78081630D01*
X150442745Y-78081631D01*
X150272476Y-78141211D01*
X150119737Y-78237184D01*
X149992184Y-78364737D01*
X149896211Y-78517476D01*
X149836631Y-78687745D01*
X149836630Y-78687750D01*
X149816435Y-78866996D01*
X105001189Y-78866996D01*
X105011712Y-78740006D01*
X105011712Y-78739993D01*
X104992896Y-78512914D01*
X104992894Y-78512906D01*
X104936954Y-78292006D01*
X104845420Y-78083330D01*
X104765124Y-77960427D01*
X104114962Y-78610589D01*
X104097925Y-78547007D01*
X104032099Y-78432993D01*
X103939007Y-78339901D01*
X103824993Y-78274075D01*
X103761407Y-78257037D01*
X104412983Y-77605462D01*
X104402105Y-77596996D01*
X160230435Y-77596996D01*
X160230435Y-77597003D01*
X160250630Y-77776249D01*
X160250631Y-77776254D01*
X160310211Y-77946523D01*
X160382416Y-78061435D01*
X160406184Y-78099262D01*
X160533738Y-78226816D01*
X160686478Y-78322789D01*
X160856745Y-78382368D01*
X160856750Y-78382369D01*
X161035996Y-78402565D01*
X161036000Y-78402565D01*
X161036004Y-78402565D01*
X161215249Y-78382369D01*
X161215252Y-78382368D01*
X161215255Y-78382368D01*
X161385522Y-78322789D01*
X161538262Y-78226816D01*
X161665816Y-78099262D01*
X161761789Y-77946522D01*
X161821368Y-77776255D01*
X161821369Y-77776249D01*
X161841565Y-77597003D01*
X161841565Y-77596996D01*
X161821369Y-77417750D01*
X161821368Y-77417745D01*
X161799428Y-77355043D01*
X161761789Y-77247478D01*
X161741669Y-77215458D01*
X161665815Y-77094737D01*
X161538262Y-76967184D01*
X161385523Y-76871211D01*
X161215254Y-76811631D01*
X161215249Y-76811630D01*
X161036004Y-76791435D01*
X161035996Y-76791435D01*
X160856750Y-76811630D01*
X160856745Y-76811631D01*
X160686476Y-76871211D01*
X160533737Y-76967184D01*
X160406184Y-77094737D01*
X160310211Y-77247476D01*
X160250631Y-77417745D01*
X160250630Y-77417750D01*
X160230435Y-77596996D01*
X104402105Y-77596996D01*
X104386628Y-77584950D01*
X104375737Y-77579056D01*
X104326146Y-77529837D01*
X104311036Y-77461621D01*
X104335206Y-77396065D01*
X104375737Y-77360944D01*
X104386632Y-77355047D01*
X104386633Y-77355046D01*
X104412983Y-77334537D01*
X104412984Y-77334536D01*
X103761409Y-76682962D01*
X103824993Y-76665925D01*
X103939007Y-76600099D01*
X104032099Y-76507007D01*
X104097925Y-76392993D01*
X104114962Y-76329410D01*
X104765125Y-76979571D01*
X104845420Y-76856669D01*
X104936954Y-76647993D01*
X104992894Y-76427093D01*
X104992896Y-76427085D01*
X105011712Y-76200006D01*
X105011712Y-76199993D01*
X104992896Y-75972914D01*
X104992894Y-75972906D01*
X104936954Y-75752006D01*
X104845420Y-75543330D01*
X104765124Y-75420427D01*
X104114962Y-76070589D01*
X104097925Y-76007007D01*
X104032099Y-75892993D01*
X103939007Y-75799901D01*
X103824993Y-75734075D01*
X103761407Y-75717037D01*
X104412983Y-75065462D01*
X104386626Y-75044948D01*
X104376260Y-75039338D01*
X104326670Y-74990117D01*
X104311563Y-74921901D01*
X104335735Y-74856345D01*
X104376264Y-74821228D01*
X104376789Y-74820944D01*
X104386906Y-74815469D01*
X104566794Y-74675456D01*
X104721183Y-74507745D01*
X104845862Y-74316909D01*
X104937430Y-74108155D01*
X104993390Y-73887176D01*
X105012214Y-73660000D01*
X105012214Y-73659993D01*
X104993391Y-73432831D01*
X104993389Y-73432820D01*
X104937430Y-73211844D01*
X104845862Y-73003091D01*
X104721185Y-72812257D01*
X104566791Y-72644541D01*
X104566787Y-72644538D01*
X104386909Y-72504533D01*
X104386900Y-72504527D01*
X104376789Y-72499056D01*
X104327197Y-72449838D01*
X104312087Y-72381621D01*
X104336257Y-72316065D01*
X104376789Y-72280944D01*
X104386900Y-72275472D01*
X104386906Y-72275469D01*
X104566794Y-72135456D01*
X104721183Y-71967745D01*
X104845862Y-71776909D01*
X104937430Y-71568155D01*
X104993390Y-71347176D01*
X105012214Y-71120000D01*
X105012214Y-71119993D01*
X104993391Y-70892831D01*
X104993389Y-70892820D01*
X104937430Y-70671844D01*
X104845862Y-70463091D01*
X104721185Y-70272257D01*
X104566791Y-70104541D01*
X104566787Y-70104538D01*
X104386909Y-69964533D01*
X104386900Y-69964527D01*
X104376789Y-69959056D01*
X104327197Y-69909838D01*
X104312087Y-69841621D01*
X104336257Y-69776065D01*
X104376789Y-69740944D01*
X104386900Y-69735472D01*
X104386906Y-69735469D01*
X104566794Y-69595456D01*
X104721183Y-69427745D01*
X104845862Y-69236909D01*
X104855474Y-69214996D01*
X135465435Y-69214996D01*
X135465435Y-69215003D01*
X135485630Y-69394249D01*
X135485631Y-69394254D01*
X135545211Y-69564523D01*
X135641184Y-69717262D01*
X135768738Y-69844816D01*
X135921478Y-69940789D01*
X136091745Y-70000368D01*
X136091750Y-70000369D01*
X136270996Y-70020565D01*
X136271000Y-70020565D01*
X136271004Y-70020565D01*
X136450249Y-70000369D01*
X136450252Y-70000368D01*
X136450255Y-70000368D01*
X136620522Y-69940789D01*
X136773262Y-69844816D01*
X136900816Y-69717262D01*
X136996789Y-69564522D01*
X137056368Y-69394255D01*
X137059623Y-69365368D01*
X137076565Y-69215003D01*
X137076565Y-69214996D01*
X137056369Y-69035750D01*
X137056368Y-69035745D01*
X137030215Y-68961003D01*
X137030213Y-68960996D01*
X156547435Y-68960996D01*
X156547435Y-68961003D01*
X156567630Y-69140249D01*
X156567631Y-69140254D01*
X156627211Y-69310523D01*
X156679820Y-69394249D01*
X156723184Y-69463262D01*
X156850738Y-69590816D01*
X157003478Y-69686789D01*
X157142606Y-69735472D01*
X157173745Y-69746368D01*
X157173750Y-69746369D01*
X157352996Y-69766565D01*
X157353000Y-69766565D01*
X157353004Y-69766565D01*
X157532249Y-69746369D01*
X157532252Y-69746368D01*
X157532255Y-69746368D01*
X157702522Y-69686789D01*
X157855262Y-69590816D01*
X157982816Y-69463262D01*
X158078789Y-69310522D01*
X158138368Y-69140255D01*
X158138369Y-69140249D01*
X158158565Y-68961003D01*
X158158565Y-68960996D01*
X158138369Y-68781750D01*
X158138368Y-68781745D01*
X158078788Y-68611476D01*
X158059008Y-68579996D01*
X160230435Y-68579996D01*
X160230435Y-68580003D01*
X160250630Y-68759249D01*
X160250631Y-68759254D01*
X160310211Y-68929523D01*
X160406184Y-69082262D01*
X160533738Y-69209816D01*
X160686478Y-69305789D01*
X160856745Y-69365368D01*
X160856750Y-69365369D01*
X161035996Y-69385565D01*
X161036000Y-69385565D01*
X161036004Y-69385565D01*
X161215249Y-69365369D01*
X161215252Y-69365368D01*
X161215255Y-69365368D01*
X161385522Y-69305789D01*
X161538262Y-69209816D01*
X161665816Y-69082262D01*
X161761789Y-68929522D01*
X161821368Y-68759255D01*
X161826609Y-68712738D01*
X161841565Y-68580003D01*
X161841565Y-68579996D01*
X161821369Y-68400750D01*
X161821368Y-68400745D01*
X161804598Y-68352820D01*
X161761789Y-68230478D01*
X161665816Y-68077738D01*
X161538262Y-67950184D01*
X161495144Y-67923091D01*
X161385523Y-67854211D01*
X161215254Y-67794631D01*
X161215249Y-67794630D01*
X161036004Y-67774435D01*
X161035996Y-67774435D01*
X160856750Y-67794630D01*
X160856745Y-67794631D01*
X160686476Y-67854211D01*
X160533737Y-67950184D01*
X160406184Y-68077737D01*
X160310211Y-68230476D01*
X160250631Y-68400745D01*
X160250630Y-68400750D01*
X160230435Y-68579996D01*
X158059008Y-68579996D01*
X157982815Y-68458737D01*
X157855262Y-68331184D01*
X157702523Y-68235211D01*
X157532254Y-68175631D01*
X157532249Y-68175630D01*
X157353004Y-68155435D01*
X157352996Y-68155435D01*
X157173750Y-68175630D01*
X157173745Y-68175631D01*
X157003476Y-68235211D01*
X156850737Y-68331184D01*
X156723184Y-68458737D01*
X156627211Y-68611476D01*
X156567631Y-68781745D01*
X156567630Y-68781750D01*
X156547435Y-68960996D01*
X137030213Y-68960996D01*
X136996789Y-68865478D01*
X136900816Y-68712738D01*
X136773262Y-68585184D01*
X136765021Y-68580006D01*
X136620523Y-68489211D01*
X136450254Y-68429631D01*
X136450249Y-68429630D01*
X136271004Y-68409435D01*
X136270996Y-68409435D01*
X136091750Y-68429630D01*
X136091745Y-68429631D01*
X135921476Y-68489211D01*
X135768737Y-68585184D01*
X135641184Y-68712737D01*
X135545211Y-68865476D01*
X135485631Y-69035745D01*
X135485630Y-69035750D01*
X135465435Y-69214996D01*
X104855474Y-69214996D01*
X104937430Y-69028155D01*
X104993390Y-68807176D01*
X104995497Y-68781750D01*
X105012214Y-68580006D01*
X105012214Y-68579993D01*
X104993391Y-68352831D01*
X104993389Y-68352820D01*
X104937430Y-68131844D01*
X104845862Y-67923091D01*
X104721185Y-67732257D01*
X104566791Y-67564541D01*
X104566787Y-67564538D01*
X104386909Y-67424533D01*
X104386900Y-67424527D01*
X104376789Y-67419056D01*
X104327197Y-67369838D01*
X104312087Y-67301621D01*
X104336257Y-67236065D01*
X104376789Y-67200944D01*
X104386900Y-67195472D01*
X104386906Y-67195469D01*
X104402931Y-67182996D01*
X143466435Y-67182996D01*
X143466435Y-67183003D01*
X143486630Y-67362249D01*
X143486631Y-67362254D01*
X143546211Y-67532523D01*
X143642184Y-67685262D01*
X143769738Y-67812816D01*
X143922478Y-67908789D01*
X143963351Y-67923091D01*
X144092745Y-67968368D01*
X144092750Y-67968369D01*
X144271996Y-67988565D01*
X144272000Y-67988565D01*
X144272004Y-67988565D01*
X144451249Y-67968369D01*
X144451252Y-67968368D01*
X144451255Y-67968368D01*
X144621522Y-67908789D01*
X144774262Y-67812816D01*
X144901816Y-67685262D01*
X144997789Y-67532522D01*
X145057368Y-67362255D01*
X145057369Y-67362249D01*
X145077565Y-67183003D01*
X145077565Y-67182996D01*
X145057369Y-67003750D01*
X145057368Y-67003745D01*
X144997788Y-66833476D01*
X144901815Y-66680737D01*
X144774262Y-66553184D01*
X144621523Y-66457211D01*
X144451254Y-66397631D01*
X144451249Y-66397630D01*
X144272004Y-66377435D01*
X144271996Y-66377435D01*
X144092750Y-66397630D01*
X144092745Y-66397631D01*
X143922476Y-66457211D01*
X143769737Y-66553184D01*
X143642184Y-66680737D01*
X143546211Y-66833476D01*
X143486631Y-67003745D01*
X143486630Y-67003750D01*
X143466435Y-67182996D01*
X104402931Y-67182996D01*
X104566794Y-67055456D01*
X104721183Y-66887745D01*
X104845862Y-66696909D01*
X104937430Y-66488155D01*
X104993390Y-66267176D01*
X105012214Y-66040000D01*
X105012214Y-66039993D01*
X197755786Y-66039993D01*
X197755786Y-66040006D01*
X197774608Y-66267168D01*
X197774610Y-66267179D01*
X197830569Y-66488155D01*
X197922137Y-66696908D01*
X198046814Y-66887742D01*
X198201208Y-67055458D01*
X198201212Y-67055461D01*
X198381094Y-67195469D01*
X198381096Y-67195470D01*
X198381099Y-67195472D01*
X198391214Y-67200946D01*
X198440804Y-67250166D01*
X198455911Y-67318382D01*
X198431740Y-67383938D01*
X198391214Y-67419054D01*
X198381099Y-67424527D01*
X198381090Y-67424533D01*
X198201212Y-67564538D01*
X198201208Y-67564541D01*
X198046814Y-67732257D01*
X197922137Y-67923091D01*
X197830569Y-68131844D01*
X197774610Y-68352820D01*
X197774608Y-68352831D01*
X197755786Y-68579993D01*
X197755786Y-68580006D01*
X197774608Y-68807168D01*
X197774610Y-68807179D01*
X197830569Y-69028155D01*
X197922137Y-69236908D01*
X198046814Y-69427742D01*
X198201208Y-69595458D01*
X198201212Y-69595461D01*
X198381094Y-69735469D01*
X198381096Y-69735470D01*
X198381099Y-69735472D01*
X198391214Y-69740946D01*
X198440804Y-69790166D01*
X198455911Y-69858382D01*
X198431740Y-69923938D01*
X198391214Y-69959054D01*
X198381099Y-69964527D01*
X198381090Y-69964533D01*
X198201212Y-70104538D01*
X198201208Y-70104541D01*
X198046814Y-70272257D01*
X197922137Y-70463091D01*
X197830569Y-70671844D01*
X197774610Y-70892820D01*
X197774608Y-70892831D01*
X197755786Y-71119993D01*
X197755786Y-71120006D01*
X197774608Y-71347168D01*
X197774610Y-71347179D01*
X197830569Y-71568155D01*
X197922137Y-71776908D01*
X198046814Y-71967742D01*
X198201208Y-72135458D01*
X198201212Y-72135461D01*
X198381094Y-72275469D01*
X198381096Y-72275470D01*
X198381099Y-72275472D01*
X198391214Y-72280946D01*
X198440804Y-72330166D01*
X198455911Y-72398382D01*
X198431740Y-72463938D01*
X198391214Y-72499054D01*
X198381099Y-72504527D01*
X198381090Y-72504533D01*
X198201212Y-72644538D01*
X198201208Y-72644541D01*
X198046814Y-72812257D01*
X197922137Y-73003091D01*
X197830569Y-73211844D01*
X197774610Y-73432820D01*
X197774608Y-73432831D01*
X197755786Y-73659993D01*
X197755786Y-73660006D01*
X197774608Y-73887168D01*
X197774610Y-73887179D01*
X197830569Y-74108155D01*
X197922137Y-74316908D01*
X198046814Y-74507742D01*
X198201208Y-74675458D01*
X198201212Y-74675461D01*
X198381094Y-74815469D01*
X198381096Y-74815470D01*
X198381099Y-74815472D01*
X198391214Y-74820946D01*
X198440804Y-74870166D01*
X198455911Y-74938382D01*
X198431740Y-75003938D01*
X198391214Y-75039054D01*
X198381099Y-75044527D01*
X198381090Y-75044533D01*
X198201212Y-75184538D01*
X198201208Y-75184541D01*
X198046814Y-75352257D01*
X197922137Y-75543091D01*
X197830569Y-75751844D01*
X197774610Y-75972820D01*
X197774608Y-75972831D01*
X197755786Y-76199993D01*
X197755786Y-76200006D01*
X197774608Y-76427168D01*
X197774610Y-76427179D01*
X197830569Y-76648155D01*
X197922137Y-76856908D01*
X198046814Y-77047742D01*
X198201208Y-77215458D01*
X198201212Y-77215461D01*
X198380552Y-77355047D01*
X198381094Y-77355469D01*
X198381096Y-77355470D01*
X198381099Y-77355472D01*
X198391214Y-77360946D01*
X198440804Y-77410166D01*
X198455911Y-77478382D01*
X198431740Y-77543938D01*
X198391214Y-77579054D01*
X198381099Y-77584527D01*
X198381090Y-77584533D01*
X198201212Y-77724538D01*
X198201208Y-77724541D01*
X198046814Y-77892257D01*
X197922137Y-78083091D01*
X197830569Y-78291844D01*
X197774610Y-78512820D01*
X197774608Y-78512831D01*
X197755786Y-78739993D01*
X197755786Y-78740006D01*
X197774608Y-78967168D01*
X197774610Y-78967179D01*
X197830569Y-79188155D01*
X197922137Y-79396908D01*
X198046814Y-79587742D01*
X198201208Y-79755458D01*
X198201212Y-79755461D01*
X198380552Y-79895047D01*
X198381094Y-79895469D01*
X198381096Y-79895470D01*
X198381099Y-79895472D01*
X198391214Y-79900946D01*
X198440804Y-79950166D01*
X198455911Y-80018382D01*
X198431740Y-80083938D01*
X198391214Y-80119054D01*
X198381099Y-80124527D01*
X198381090Y-80124533D01*
X198201212Y-80264538D01*
X198201208Y-80264541D01*
X198046814Y-80432257D01*
X197922137Y-80623091D01*
X197830569Y-80831844D01*
X197774610Y-81052820D01*
X197774608Y-81052831D01*
X197755786Y-81279993D01*
X197755786Y-81280006D01*
X197774608Y-81507168D01*
X197774610Y-81507179D01*
X197830569Y-81728155D01*
X197922137Y-81936908D01*
X198046814Y-82127742D01*
X198201208Y-82295458D01*
X198201212Y-82295461D01*
X198380552Y-82435047D01*
X198381094Y-82435469D01*
X198391211Y-82440944D01*
X198391736Y-82441228D01*
X198441328Y-82490446D01*
X198456438Y-82558662D01*
X198432268Y-82624218D01*
X198391744Y-82659336D01*
X198381366Y-82664952D01*
X198355015Y-82685461D01*
X198355015Y-82685463D01*
X199006590Y-83337037D01*
X198943007Y-83354075D01*
X198828993Y-83419901D01*
X198735901Y-83512993D01*
X198670075Y-83627007D01*
X198653037Y-83690590D01*
X198002874Y-83040428D01*
X197922578Y-83163333D01*
X197922577Y-83163335D01*
X197831045Y-83372006D01*
X197775105Y-83592906D01*
X197775103Y-83592914D01*
X197756288Y-83819993D01*
X197756288Y-83820006D01*
X197775103Y-84047085D01*
X197775105Y-84047093D01*
X197831045Y-84267993D01*
X197922577Y-84476664D01*
X197922579Y-84476668D01*
X198002874Y-84599570D01*
X198653037Y-83949408D01*
X198670075Y-84012993D01*
X198735901Y-84127007D01*
X198828993Y-84220099D01*
X198943007Y-84285925D01*
X199006590Y-84302962D01*
X198355015Y-84954536D01*
X198355015Y-84954538D01*
X198381360Y-84975043D01*
X198381371Y-84975050D01*
X198581769Y-85083499D01*
X198581780Y-85083504D01*
X198797298Y-85157492D01*
X199022065Y-85195000D01*
X199249935Y-85195000D01*
X199474701Y-85157492D01*
X199690219Y-85083504D01*
X199690230Y-85083499D01*
X199890627Y-84975050D01*
X199890633Y-84975046D01*
X199916983Y-84954537D01*
X199916984Y-84954536D01*
X199265409Y-84302962D01*
X199328993Y-84285925D01*
X199443007Y-84220099D01*
X199536099Y-84127007D01*
X199601925Y-84012993D01*
X199618962Y-83949410D01*
X200269125Y-84599571D01*
X200349420Y-84476669D01*
X200440954Y-84267993D01*
X200496894Y-84047093D01*
X200496896Y-84047085D01*
X200515712Y-83820006D01*
X200515712Y-83819993D01*
X200496896Y-83592914D01*
X200496894Y-83592906D01*
X200440954Y-83372006D01*
X200349420Y-83163330D01*
X200269124Y-83040427D01*
X199618962Y-83690589D01*
X199601925Y-83627007D01*
X199536099Y-83512993D01*
X199443007Y-83419901D01*
X199328993Y-83354075D01*
X199265407Y-83337037D01*
X199916983Y-82685462D01*
X199890626Y-82664948D01*
X199880260Y-82659338D01*
X199830670Y-82610117D01*
X199815563Y-82541901D01*
X199839735Y-82476345D01*
X199880264Y-82441228D01*
X199880789Y-82440944D01*
X199890906Y-82435469D01*
X200070794Y-82295456D01*
X200225183Y-82127745D01*
X200349862Y-81936909D01*
X200441430Y-81728155D01*
X200497390Y-81507176D01*
X200497398Y-81507085D01*
X200516214Y-81280006D01*
X200516214Y-81279993D01*
X200497391Y-81052831D01*
X200497389Y-81052820D01*
X200441430Y-80831844D01*
X200349862Y-80623091D01*
X200225185Y-80432257D01*
X200070791Y-80264541D01*
X200070787Y-80264538D01*
X199890909Y-80124533D01*
X199890900Y-80124527D01*
X199880789Y-80119056D01*
X199831197Y-80069838D01*
X199816087Y-80001621D01*
X199840257Y-79936065D01*
X199880789Y-79900944D01*
X199890900Y-79895472D01*
X199890906Y-79895469D01*
X200070794Y-79755456D01*
X200225183Y-79587745D01*
X200349862Y-79396909D01*
X200441430Y-79188155D01*
X200497390Y-78967176D01*
X200497398Y-78967085D01*
X200516214Y-78740006D01*
X200516214Y-78739993D01*
X200497391Y-78512831D01*
X200497389Y-78512820D01*
X200441430Y-78291844D01*
X200349862Y-78083091D01*
X200225185Y-77892257D01*
X200070791Y-77724541D01*
X200070787Y-77724538D01*
X199890909Y-77584533D01*
X199890900Y-77584527D01*
X199880789Y-77579056D01*
X199831197Y-77529838D01*
X199816087Y-77461621D01*
X199840257Y-77396065D01*
X199880789Y-77360944D01*
X199890900Y-77355472D01*
X199890906Y-77355469D01*
X200070794Y-77215456D01*
X200225183Y-77047745D01*
X200349862Y-76856909D01*
X200441430Y-76648155D01*
X200497390Y-76427176D01*
X200497398Y-76427085D01*
X200516214Y-76200006D01*
X200516214Y-76199993D01*
X200497391Y-75972831D01*
X200497389Y-75972820D01*
X200441430Y-75751844D01*
X200349862Y-75543091D01*
X200225185Y-75352257D01*
X200070791Y-75184541D01*
X200070787Y-75184538D01*
X199890909Y-75044533D01*
X199890900Y-75044527D01*
X199880789Y-75039056D01*
X199831197Y-74989838D01*
X199816087Y-74921621D01*
X199840257Y-74856065D01*
X199880789Y-74820944D01*
X199890900Y-74815472D01*
X199890902Y-74815471D01*
X199890906Y-74815469D01*
X200070794Y-74675456D01*
X200225183Y-74507745D01*
X200349862Y-74316909D01*
X200441430Y-74108155D01*
X200497390Y-73887176D01*
X200516214Y-73660000D01*
X200516214Y-73659993D01*
X200497391Y-73432831D01*
X200497389Y-73432820D01*
X200441430Y-73211844D01*
X200349862Y-73003091D01*
X200225185Y-72812257D01*
X200070791Y-72644541D01*
X200070787Y-72644538D01*
X199890909Y-72504533D01*
X199890900Y-72504527D01*
X199880789Y-72499056D01*
X199831197Y-72449838D01*
X199816087Y-72381621D01*
X199840257Y-72316065D01*
X199880789Y-72280944D01*
X199890900Y-72275472D01*
X199890906Y-72275469D01*
X200070794Y-72135456D01*
X200225183Y-71967745D01*
X200349862Y-71776909D01*
X200441430Y-71568155D01*
X200497390Y-71347176D01*
X200516214Y-71120000D01*
X200516214Y-71119993D01*
X200497391Y-70892831D01*
X200497389Y-70892820D01*
X200441430Y-70671844D01*
X200349862Y-70463091D01*
X200225185Y-70272257D01*
X200070791Y-70104541D01*
X200070787Y-70104538D01*
X199890909Y-69964533D01*
X199890900Y-69964527D01*
X199880789Y-69959056D01*
X199831197Y-69909838D01*
X199816087Y-69841621D01*
X199840257Y-69776065D01*
X199880789Y-69740944D01*
X199890900Y-69735472D01*
X199890906Y-69735469D01*
X200070794Y-69595456D01*
X200225183Y-69427745D01*
X200349862Y-69236909D01*
X200441430Y-69028155D01*
X200497390Y-68807176D01*
X200499497Y-68781750D01*
X200516214Y-68580006D01*
X200516214Y-68579993D01*
X200497391Y-68352831D01*
X200497389Y-68352820D01*
X200441430Y-68131844D01*
X200349862Y-67923091D01*
X200225185Y-67732257D01*
X200070791Y-67564541D01*
X200070787Y-67564538D01*
X199890909Y-67424533D01*
X199890900Y-67424527D01*
X199880789Y-67419056D01*
X199831197Y-67369838D01*
X199816087Y-67301621D01*
X199840257Y-67236065D01*
X199880789Y-67200944D01*
X199890900Y-67195472D01*
X199890906Y-67195469D01*
X200070794Y-67055456D01*
X200225183Y-66887745D01*
X200349862Y-66696909D01*
X200441430Y-66488155D01*
X200497390Y-66267176D01*
X200516214Y-66040000D01*
X200516214Y-66039993D01*
X200497391Y-65812831D01*
X200497389Y-65812820D01*
X200441430Y-65591844D01*
X200349862Y-65383091D01*
X200225185Y-65192257D01*
X200070791Y-65024541D01*
X200070787Y-65024538D01*
X199890909Y-64884533D01*
X199890900Y-64884527D01*
X199690432Y-64776040D01*
X199690429Y-64776039D01*
X199690426Y-64776037D01*
X199690420Y-64776035D01*
X199690418Y-64776034D01*
X199474826Y-64702020D01*
X199306188Y-64673880D01*
X199249977Y-64664500D01*
X199022023Y-64664500D01*
X198977053Y-64672004D01*
X198797173Y-64702020D01*
X198581581Y-64776034D01*
X198581567Y-64776040D01*
X198381099Y-64884527D01*
X198381090Y-64884533D01*
X198201212Y-65024538D01*
X198201208Y-65024541D01*
X198046814Y-65192257D01*
X197922137Y-65383091D01*
X197830569Y-65591844D01*
X197774610Y-65812820D01*
X197774608Y-65812831D01*
X197755786Y-66039993D01*
X105012214Y-66039993D01*
X104993391Y-65812831D01*
X104993389Y-65812820D01*
X104937430Y-65591844D01*
X104845862Y-65383091D01*
X104721185Y-65192257D01*
X104566791Y-65024541D01*
X104566787Y-65024538D01*
X104386909Y-64884533D01*
X104386900Y-64884527D01*
X104186432Y-64776040D01*
X104186429Y-64776039D01*
X104186426Y-64776037D01*
X104186420Y-64776035D01*
X104186418Y-64776034D01*
X103970826Y-64702020D01*
X103802188Y-64673880D01*
X103745977Y-64664500D01*
X103518023Y-64664500D01*
X103473053Y-64672004D01*
X103293173Y-64702020D01*
X103077581Y-64776034D01*
X103077567Y-64776040D01*
X102877099Y-64884527D01*
X102877090Y-64884533D01*
X102697212Y-65024538D01*
X102697208Y-65024541D01*
X102542814Y-65192257D01*
X102418137Y-65383091D01*
X102326569Y-65591844D01*
X102270610Y-65812820D01*
X102270608Y-65812831D01*
X102251786Y-66039993D01*
X101773500Y-66039993D01*
X101773500Y-62610996D01*
X105747435Y-62610996D01*
X105747435Y-62611003D01*
X105767630Y-62790249D01*
X105767631Y-62790254D01*
X105827211Y-62960523D01*
X105907010Y-63087522D01*
X105923184Y-63113262D01*
X106050738Y-63240816D01*
X106203478Y-63336789D01*
X106292148Y-63367816D01*
X106373745Y-63396368D01*
X106373750Y-63396369D01*
X106552996Y-63416565D01*
X106553000Y-63416565D01*
X106553004Y-63416565D01*
X106732249Y-63396369D01*
X106732252Y-63396368D01*
X106732255Y-63396368D01*
X106902522Y-63336789D01*
X107055262Y-63240816D01*
X107182816Y-63113262D01*
X107278789Y-62960522D01*
X107338368Y-62790255D01*
X107338369Y-62790249D01*
X107344256Y-62737996D01*
X195409435Y-62737996D01*
X195409435Y-62738003D01*
X195429630Y-62917249D01*
X195429631Y-62917254D01*
X195489211Y-63087523D01*
X195585184Y-63240262D01*
X195712738Y-63367816D01*
X195865478Y-63463789D01*
X196035745Y-63523368D01*
X196035750Y-63523369D01*
X196214996Y-63543565D01*
X196215000Y-63543565D01*
X196215004Y-63543565D01*
X196394249Y-63523369D01*
X196394252Y-63523368D01*
X196394255Y-63523368D01*
X196564522Y-63463789D01*
X196717262Y-63367816D01*
X196844816Y-63240262D01*
X196940789Y-63087522D01*
X197000368Y-62917255D01*
X197000369Y-62917249D01*
X197020565Y-62738003D01*
X197020565Y-62737996D01*
X197000369Y-62558750D01*
X197000368Y-62558745D01*
X196940789Y-62388478D01*
X196844816Y-62235738D01*
X196717262Y-62108184D01*
X196564523Y-62012211D01*
X196394254Y-61952631D01*
X196394249Y-61952630D01*
X196215004Y-61932435D01*
X196214996Y-61932435D01*
X196035750Y-61952630D01*
X196035745Y-61952631D01*
X195865476Y-62012211D01*
X195712737Y-62108184D01*
X195585184Y-62235737D01*
X195489211Y-62388476D01*
X195429631Y-62558745D01*
X195429630Y-62558750D01*
X195409435Y-62737996D01*
X107344256Y-62737996D01*
X107358565Y-62611003D01*
X107358565Y-62610996D01*
X107338369Y-62431750D01*
X107338368Y-62431745D01*
X107323228Y-62388478D01*
X107278789Y-62261478D01*
X107262615Y-62235738D01*
X107182815Y-62108737D01*
X107055262Y-61981184D01*
X106902523Y-61885211D01*
X106732254Y-61825631D01*
X106732249Y-61825630D01*
X106553004Y-61805435D01*
X106552996Y-61805435D01*
X106373750Y-61825630D01*
X106373745Y-61825631D01*
X106203476Y-61885211D01*
X106050737Y-61981184D01*
X105923184Y-62108737D01*
X105827211Y-62261476D01*
X105767631Y-62431745D01*
X105767630Y-62431750D01*
X105747435Y-62610996D01*
X101773500Y-62610996D01*
X101773500Y-55752996D01*
X157563435Y-55752996D01*
X157563435Y-55753003D01*
X157583630Y-55932249D01*
X157583631Y-55932254D01*
X157643211Y-56102523D01*
X157723010Y-56229522D01*
X157739184Y-56255262D01*
X157866738Y-56382816D01*
X158019478Y-56478789D01*
X158108148Y-56509816D01*
X158189745Y-56538368D01*
X158189750Y-56538369D01*
X158368996Y-56558565D01*
X158369000Y-56558565D01*
X158369004Y-56558565D01*
X158548249Y-56538369D01*
X158548252Y-56538368D01*
X158548255Y-56538368D01*
X158718522Y-56478789D01*
X158871262Y-56382816D01*
X158998816Y-56255262D01*
X159094789Y-56102522D01*
X159154368Y-55932255D01*
X159154369Y-55932249D01*
X159160256Y-55879996D01*
X166834435Y-55879996D01*
X166834435Y-55880003D01*
X166854630Y-56059249D01*
X166854631Y-56059254D01*
X166914211Y-56229523D01*
X167010184Y-56382262D01*
X167137738Y-56509816D01*
X167290478Y-56605789D01*
X167460745Y-56665368D01*
X167460750Y-56665369D01*
X167639996Y-56685565D01*
X167640000Y-56685565D01*
X167640004Y-56685565D01*
X167819249Y-56665369D01*
X167819252Y-56665368D01*
X167819255Y-56665368D01*
X167989522Y-56605789D01*
X168142262Y-56509816D01*
X168269816Y-56382262D01*
X168365789Y-56229522D01*
X168425368Y-56059255D01*
X168425369Y-56059249D01*
X168445565Y-55880003D01*
X168445565Y-55879996D01*
X168425369Y-55700750D01*
X168425368Y-55700745D01*
X168365789Y-55530478D01*
X168269816Y-55377738D01*
X168142262Y-55250184D01*
X167989523Y-55154211D01*
X167819254Y-55094631D01*
X167819249Y-55094630D01*
X167640004Y-55074435D01*
X167639996Y-55074435D01*
X167460750Y-55094630D01*
X167460745Y-55094631D01*
X167290476Y-55154211D01*
X167137737Y-55250184D01*
X167010184Y-55377737D01*
X166914211Y-55530476D01*
X166854631Y-55700745D01*
X166854630Y-55700750D01*
X166834435Y-55879996D01*
X159160256Y-55879996D01*
X159174565Y-55753003D01*
X159174565Y-55752996D01*
X159154369Y-55573750D01*
X159154368Y-55573745D01*
X159139228Y-55530478D01*
X159094789Y-55403478D01*
X159078615Y-55377738D01*
X158998815Y-55250737D01*
X158871262Y-55123184D01*
X158718523Y-55027211D01*
X158548254Y-54967631D01*
X158548249Y-54967630D01*
X158369004Y-54947435D01*
X158368996Y-54947435D01*
X158189750Y-54967630D01*
X158189745Y-54967631D01*
X158019476Y-55027211D01*
X157866737Y-55123184D01*
X157739184Y-55250737D01*
X157643211Y-55403476D01*
X157583631Y-55573745D01*
X157583630Y-55573750D01*
X157563435Y-55752996D01*
X101773500Y-55752996D01*
X101773500Y-48386996D01*
X152610435Y-48386996D01*
X152610435Y-48387003D01*
X152630630Y-48566249D01*
X152630631Y-48566254D01*
X152690211Y-48736523D01*
X152748336Y-48829028D01*
X152767336Y-48896265D01*
X152748336Y-48960972D01*
X152690211Y-49053476D01*
X152630631Y-49223745D01*
X152630630Y-49223750D01*
X152610435Y-49402996D01*
X152610435Y-49403003D01*
X152630630Y-49582249D01*
X152630631Y-49582254D01*
X152690211Y-49752523D01*
X152748336Y-49845028D01*
X152767336Y-49912265D01*
X152748336Y-49976972D01*
X152690211Y-50069476D01*
X152630631Y-50239745D01*
X152630630Y-50239750D01*
X152610435Y-50418996D01*
X152610435Y-50419003D01*
X152630630Y-50598249D01*
X152630631Y-50598254D01*
X152690211Y-50768523D01*
X152750686Y-50864767D01*
X152786184Y-50921262D01*
X152913738Y-51048816D01*
X153066478Y-51144789D01*
X153232315Y-51202818D01*
X153236745Y-51204368D01*
X153236750Y-51204369D01*
X153415996Y-51224565D01*
X153416000Y-51224565D01*
X153416004Y-51224565D01*
X153595249Y-51204369D01*
X153595252Y-51204368D01*
X153595255Y-51204368D01*
X153765522Y-51144789D01*
X153918262Y-51048816D01*
X153918263Y-51048814D01*
X153921527Y-51046764D01*
X153988764Y-51027763D01*
X154053473Y-51046764D01*
X154056736Y-51048814D01*
X154056738Y-51048816D01*
X154107012Y-51080405D01*
X154209475Y-51144788D01*
X154379745Y-51204368D01*
X154379750Y-51204369D01*
X154558996Y-51224565D01*
X154559000Y-51224565D01*
X154559004Y-51224565D01*
X154738249Y-51204369D01*
X154738252Y-51204368D01*
X154738255Y-51204368D01*
X154908522Y-51144789D01*
X155061262Y-51048816D01*
X155188816Y-50921262D01*
X155284789Y-50768522D01*
X155344368Y-50598255D01*
X155364565Y-50419000D01*
X155364564Y-50418995D01*
X155353116Y-50317385D01*
X155365170Y-50248563D01*
X155412519Y-50197183D01*
X155480130Y-50179559D01*
X155517294Y-50186460D01*
X155522745Y-50188368D01*
X155522746Y-50188368D01*
X155522750Y-50188369D01*
X155701996Y-50208565D01*
X155702000Y-50208565D01*
X155702004Y-50208565D01*
X155881249Y-50188369D01*
X155881252Y-50188368D01*
X155881255Y-50188368D01*
X156051522Y-50128789D01*
X156204262Y-50032816D01*
X156204263Y-50032814D01*
X156207527Y-50030764D01*
X156274764Y-50011763D01*
X156339473Y-50030764D01*
X156342736Y-50032814D01*
X156342738Y-50032816D01*
X156393012Y-50064405D01*
X156495475Y-50128788D01*
X156665745Y-50188368D01*
X156665750Y-50188369D01*
X156844996Y-50208565D01*
X156845000Y-50208565D01*
X156845004Y-50208565D01*
X157024249Y-50188369D01*
X157024249Y-50188368D01*
X157024255Y-50188368D01*
X157029702Y-50186461D01*
X157099479Y-50182896D01*
X157160109Y-50217620D01*
X157192340Y-50279612D01*
X157193883Y-50317384D01*
X157182435Y-50418995D01*
X157182435Y-50419003D01*
X157202630Y-50598249D01*
X157202633Y-50598262D01*
X157262209Y-50768519D01*
X157280437Y-50797530D01*
X157299436Y-50864767D01*
X157280437Y-50929470D01*
X157262209Y-50958480D01*
X157202633Y-51128737D01*
X157202630Y-51128750D01*
X157182435Y-51307996D01*
X157182435Y-51308003D01*
X157202630Y-51487249D01*
X157202631Y-51487254D01*
X157262211Y-51657523D01*
X157358184Y-51810262D01*
X157485738Y-51937816D01*
X157638478Y-52033789D01*
X157804315Y-52091818D01*
X157808745Y-52093368D01*
X157808750Y-52093369D01*
X157987996Y-52113565D01*
X157988000Y-52113565D01*
X157988004Y-52113565D01*
X158167249Y-52093369D01*
X158167252Y-52093368D01*
X158167255Y-52093368D01*
X158337522Y-52033789D01*
X158490262Y-51937816D01*
X158617816Y-51810262D01*
X158713789Y-51657522D01*
X158773368Y-51487255D01*
X158793389Y-51309562D01*
X158820455Y-51245149D01*
X158878050Y-51205594D01*
X158944785Y-51203550D01*
X158944953Y-51202818D01*
X158947764Y-51203459D01*
X158947887Y-51203456D01*
X158948299Y-51203581D01*
X158951743Y-51204367D01*
X158951745Y-51204368D01*
X158951746Y-51204368D01*
X158951750Y-51204369D01*
X159130996Y-51224565D01*
X159131000Y-51224565D01*
X159131004Y-51224565D01*
X159310249Y-51204369D01*
X159310251Y-51204368D01*
X159310255Y-51204368D01*
X159310258Y-51204366D01*
X159317047Y-51202818D01*
X159317713Y-51205739D01*
X159374141Y-51202825D01*
X159434789Y-51237517D01*
X159467054Y-51299491D01*
X159468610Y-51309562D01*
X159488630Y-51487250D01*
X159488631Y-51487254D01*
X159548211Y-51657523D01*
X159644184Y-51810262D01*
X159771738Y-51937816D01*
X159924478Y-52033789D01*
X160090315Y-52091818D01*
X160094745Y-52093368D01*
X160094750Y-52093369D01*
X160273996Y-52113565D01*
X160274000Y-52113565D01*
X160274004Y-52113565D01*
X160453249Y-52093369D01*
X160453251Y-52093368D01*
X160453255Y-52093368D01*
X160453258Y-52093366D01*
X160460047Y-52091818D01*
X160460713Y-52094739D01*
X160517141Y-52091825D01*
X160577789Y-52126517D01*
X160610054Y-52188491D01*
X160611610Y-52198562D01*
X160631630Y-52376250D01*
X160631631Y-52376254D01*
X160691211Y-52546523D01*
X160787184Y-52699262D01*
X160914738Y-52826816D01*
X161067478Y-52922789D01*
X161237745Y-52982368D01*
X161237750Y-52982369D01*
X161416996Y-53002565D01*
X161417000Y-53002565D01*
X161417004Y-53002565D01*
X161596249Y-52982369D01*
X161596252Y-52982368D01*
X161596255Y-52982368D01*
X161766522Y-52922789D01*
X161919262Y-52826816D01*
X162046816Y-52699262D01*
X162142789Y-52546522D01*
X162202368Y-52376255D01*
X162222565Y-52197000D01*
X162221606Y-52188491D01*
X162202369Y-52017750D01*
X162202368Y-52017745D01*
X162142788Y-51847475D01*
X162124564Y-51818473D01*
X162105563Y-51751237D01*
X162124564Y-51686527D01*
X162142788Y-51657524D01*
X162202368Y-51487254D01*
X162202369Y-51487249D01*
X162222565Y-51308003D01*
X162222565Y-51307996D01*
X162202369Y-51128750D01*
X162202368Y-51128745D01*
X162142788Y-50958475D01*
X162124564Y-50929473D01*
X162105563Y-50862237D01*
X162124564Y-50797527D01*
X162142788Y-50768524D01*
X162142790Y-50768519D01*
X162202368Y-50598255D01*
X162222565Y-50419000D01*
X162222564Y-50418995D01*
X162202369Y-50239750D01*
X162202368Y-50239745D01*
X162142788Y-50069476D01*
X162103582Y-50007080D01*
X162046816Y-49916738D01*
X161919262Y-49789184D01*
X161766523Y-49693211D01*
X161596254Y-49633631D01*
X161596249Y-49633630D01*
X161417004Y-49613435D01*
X161416996Y-49613435D01*
X161237750Y-49633630D01*
X161237745Y-49633631D01*
X161067476Y-49693211D01*
X160911472Y-49791236D01*
X160844235Y-49810236D01*
X160779528Y-49791236D01*
X160623523Y-49693211D01*
X160453254Y-49633631D01*
X160453249Y-49633630D01*
X160274004Y-49613435D01*
X160273996Y-49613435D01*
X160094750Y-49633630D01*
X160094745Y-49633631D01*
X159924476Y-49693211D01*
X159768472Y-49791236D01*
X159701235Y-49810236D01*
X159636528Y-49791236D01*
X159480523Y-49693211D01*
X159310254Y-49633631D01*
X159310249Y-49633630D01*
X159131004Y-49613435D01*
X159130996Y-49613435D01*
X158951750Y-49633630D01*
X158951740Y-49633633D01*
X158946287Y-49635541D01*
X158876508Y-49639100D01*
X158815882Y-49604370D01*
X158783657Y-49542375D01*
X158782116Y-49504614D01*
X158793565Y-49403002D01*
X158793565Y-49402996D01*
X158773369Y-49223750D01*
X158773368Y-49223745D01*
X158713788Y-49053475D01*
X158655664Y-48960973D01*
X158636663Y-48893736D01*
X158655664Y-48829027D01*
X158656308Y-48828003D01*
X158656312Y-48827996D01*
X164361435Y-48827996D01*
X164361435Y-48828003D01*
X164381630Y-49007249D01*
X164381631Y-49007254D01*
X164441211Y-49177523D01*
X164470258Y-49223750D01*
X164537184Y-49330262D01*
X164664738Y-49457816D01*
X164739217Y-49504614D01*
X164799312Y-49542375D01*
X164817478Y-49553789D01*
X164962030Y-49604370D01*
X164987745Y-49613368D01*
X164987750Y-49613369D01*
X165166996Y-49633565D01*
X165167000Y-49633565D01*
X165167004Y-49633565D01*
X165346249Y-49613369D01*
X165346252Y-49613368D01*
X165346255Y-49613368D01*
X165516522Y-49553789D01*
X165669262Y-49457816D01*
X165796816Y-49330262D01*
X165892789Y-49177522D01*
X165952368Y-49007255D01*
X165957583Y-48960972D01*
X165972565Y-48828003D01*
X165972565Y-48827996D01*
X165952369Y-48648750D01*
X165952368Y-48648745D01*
X165892789Y-48478478D01*
X165796816Y-48325738D01*
X165669262Y-48198184D01*
X165516523Y-48102211D01*
X165346254Y-48042631D01*
X165346249Y-48042630D01*
X165167004Y-48022435D01*
X165166996Y-48022435D01*
X164987750Y-48042630D01*
X164987745Y-48042631D01*
X164817476Y-48102211D01*
X164664737Y-48198184D01*
X164537184Y-48325737D01*
X164441211Y-48478476D01*
X164381631Y-48648745D01*
X164381630Y-48648750D01*
X164361435Y-48827996D01*
X158656312Y-48827996D01*
X158713789Y-48736522D01*
X158773368Y-48566255D01*
X158783258Y-48478478D01*
X158793565Y-48387003D01*
X158793565Y-48386996D01*
X158773369Y-48207750D01*
X158773368Y-48207745D01*
X158713788Y-48037475D01*
X158655664Y-47944973D01*
X158636663Y-47877736D01*
X158655664Y-47813027D01*
X158713788Y-47720524D01*
X158721315Y-47699013D01*
X158773368Y-47550255D01*
X158773369Y-47550249D01*
X158793565Y-47371003D01*
X158793565Y-47370996D01*
X158773369Y-47191750D01*
X158773368Y-47191745D01*
X158713788Y-47021475D01*
X158655664Y-46928973D01*
X158636663Y-46861736D01*
X158655664Y-46797027D01*
X158660704Y-46789007D01*
X158680924Y-46756825D01*
X158713788Y-46704524D01*
X158713789Y-46704522D01*
X158773368Y-46534255D01*
X158786363Y-46418919D01*
X158793565Y-46355003D01*
X158793565Y-46354996D01*
X158773369Y-46175750D01*
X158773368Y-46175745D01*
X158713788Y-46005475D01*
X158655664Y-45912973D01*
X158636663Y-45845736D01*
X158655664Y-45781027D01*
X158713788Y-45688524D01*
X158746888Y-45593930D01*
X158750315Y-45584135D01*
X179624500Y-45584135D01*
X179624500Y-47379870D01*
X179624501Y-47379876D01*
X179630908Y-47439483D01*
X179681202Y-47574328D01*
X179681206Y-47574335D01*
X179767452Y-47689544D01*
X179767455Y-47689547D01*
X179882664Y-47775793D01*
X179882671Y-47775797D01*
X180017517Y-47826091D01*
X180017516Y-47826091D01*
X180024444Y-47826835D01*
X180077127Y-47832500D01*
X181872872Y-47832499D01*
X181932483Y-47826091D01*
X182067331Y-47775796D01*
X182182546Y-47689546D01*
X182268796Y-47574331D01*
X182317810Y-47442916D01*
X182359681Y-47386984D01*
X182425145Y-47362566D01*
X182493418Y-47377417D01*
X182521673Y-47398569D01*
X182643599Y-47520495D01*
X182730630Y-47581435D01*
X182837165Y-47656032D01*
X182837167Y-47656033D01*
X182837170Y-47656035D01*
X183051337Y-47755903D01*
X183051343Y-47755904D01*
X183051344Y-47755905D01*
X183063776Y-47759236D01*
X183279592Y-47817063D01*
X183456034Y-47832500D01*
X183514999Y-47837659D01*
X183515000Y-47837659D01*
X183515001Y-47837659D01*
X183573966Y-47832500D01*
X183750408Y-47817063D01*
X183978663Y-47755903D01*
X184192830Y-47656035D01*
X184386401Y-47520495D01*
X184553495Y-47353401D01*
X184683730Y-47167405D01*
X184738307Y-47123781D01*
X184807805Y-47116587D01*
X184870160Y-47148110D01*
X184886879Y-47167405D01*
X185016890Y-47353078D01*
X185183917Y-47520105D01*
X185377421Y-47655600D01*
X185591507Y-47755429D01*
X185591516Y-47755433D01*
X185805000Y-47812634D01*
X185805000Y-46915012D01*
X185862007Y-46947925D01*
X185989174Y-46982000D01*
X186120826Y-46982000D01*
X186247993Y-46947925D01*
X186305000Y-46915012D01*
X186305000Y-47812634D01*
X186518483Y-47755433D01*
X186518492Y-47755429D01*
X186732578Y-47655600D01*
X186926082Y-47520105D01*
X187093105Y-47353082D01*
X187228600Y-47159578D01*
X187328429Y-46945492D01*
X187328432Y-46945486D01*
X187385636Y-46732000D01*
X186488012Y-46732000D01*
X186520925Y-46674993D01*
X186555000Y-46547826D01*
X186555000Y-46416174D01*
X186520925Y-46289007D01*
X186488012Y-46232000D01*
X187385636Y-46232000D01*
X187385635Y-46231999D01*
X187328432Y-46018513D01*
X187328429Y-46018507D01*
X187228600Y-45804422D01*
X187228599Y-45804420D01*
X187093113Y-45610926D01*
X187093108Y-45610920D01*
X186926082Y-45443894D01*
X186732578Y-45308399D01*
X186518492Y-45208570D01*
X186518486Y-45208567D01*
X186305000Y-45151364D01*
X186305000Y-46048988D01*
X186247993Y-46016075D01*
X186120826Y-45982000D01*
X185989174Y-45982000D01*
X185862007Y-46016075D01*
X185805000Y-46048988D01*
X185805000Y-45151364D01*
X185804999Y-45151364D01*
X185591513Y-45208567D01*
X185591507Y-45208570D01*
X185377422Y-45308399D01*
X185377420Y-45308400D01*
X185183926Y-45443886D01*
X185183920Y-45443891D01*
X185016891Y-45610920D01*
X185016890Y-45610922D01*
X184886880Y-45796595D01*
X184832303Y-45840219D01*
X184762804Y-45847412D01*
X184700450Y-45815890D01*
X184683730Y-45796594D01*
X184553494Y-45610597D01*
X184386402Y-45443506D01*
X184386395Y-45443501D01*
X184192834Y-45307967D01*
X184192830Y-45307965D01*
X184192828Y-45307964D01*
X183978663Y-45208097D01*
X183978659Y-45208096D01*
X183978655Y-45208094D01*
X183750413Y-45146938D01*
X183750403Y-45146936D01*
X183515001Y-45126341D01*
X183514999Y-45126341D01*
X183279596Y-45146936D01*
X183279586Y-45146938D01*
X183051344Y-45208094D01*
X183051335Y-45208098D01*
X182837171Y-45307964D01*
X182837169Y-45307965D01*
X182643600Y-45443503D01*
X182521673Y-45565430D01*
X182460350Y-45598914D01*
X182390658Y-45593930D01*
X182334725Y-45552058D01*
X182317810Y-45521081D01*
X182268797Y-45389671D01*
X182268793Y-45389664D01*
X182182547Y-45274455D01*
X182182544Y-45274452D01*
X182067335Y-45188206D01*
X182067328Y-45188202D01*
X181932482Y-45137908D01*
X181932483Y-45137908D01*
X181872883Y-45131501D01*
X181872881Y-45131500D01*
X181872873Y-45131500D01*
X181872864Y-45131500D01*
X180077129Y-45131500D01*
X180077123Y-45131501D01*
X180017516Y-45137908D01*
X179882671Y-45188202D01*
X179882664Y-45188206D01*
X179767455Y-45274452D01*
X179767452Y-45274455D01*
X179681206Y-45389664D01*
X179681202Y-45389671D01*
X179630908Y-45524517D01*
X179624501Y-45584116D01*
X179624500Y-45584135D01*
X158750315Y-45584135D01*
X158773368Y-45518255D01*
X158773369Y-45518249D01*
X158793565Y-45339003D01*
X158793565Y-45338996D01*
X158773369Y-45159750D01*
X158773368Y-45159745D01*
X158736424Y-45054165D01*
X158713789Y-44989478D01*
X158711639Y-44986057D01*
X158674582Y-44927080D01*
X158617816Y-44836738D01*
X158490262Y-44709184D01*
X158459373Y-44689775D01*
X158337523Y-44613211D01*
X158167254Y-44553631D01*
X158167249Y-44553630D01*
X157988004Y-44533435D01*
X157987996Y-44533435D01*
X157808750Y-44553630D01*
X157808745Y-44553631D01*
X157638476Y-44613211D01*
X157482472Y-44711236D01*
X157415235Y-44730236D01*
X157350528Y-44711236D01*
X157194523Y-44613211D01*
X157024254Y-44553631D01*
X157024249Y-44553630D01*
X156845004Y-44533435D01*
X156844996Y-44533435D01*
X156665750Y-44553630D01*
X156665745Y-44553631D01*
X156495476Y-44613211D01*
X156342737Y-44709184D01*
X156215184Y-44836737D01*
X156119211Y-44989476D01*
X156059631Y-45159745D01*
X156059630Y-45159750D01*
X156039435Y-45338996D01*
X156039435Y-45339003D01*
X156059630Y-45518249D01*
X156059631Y-45518254D01*
X156119211Y-45688523D01*
X156177336Y-45781028D01*
X156196336Y-45848265D01*
X156177336Y-45912972D01*
X156119211Y-46005476D01*
X156059631Y-46175745D01*
X156059630Y-46175750D01*
X156039435Y-46354996D01*
X156039435Y-46355003D01*
X156059630Y-46534249D01*
X156059631Y-46534254D01*
X156119211Y-46704523D01*
X156177336Y-46797028D01*
X156196336Y-46864265D01*
X156177336Y-46928972D01*
X156119211Y-47021476D01*
X156059631Y-47191745D01*
X156059630Y-47191750D01*
X156039435Y-47370996D01*
X156039435Y-47371004D01*
X156050883Y-47472615D01*
X156038828Y-47541437D01*
X155991479Y-47592816D01*
X155923868Y-47610440D01*
X155886709Y-47603540D01*
X155881257Y-47601632D01*
X155881249Y-47601630D01*
X155702004Y-47581435D01*
X155701996Y-47581435D01*
X155522750Y-47601630D01*
X155522745Y-47601631D01*
X155352476Y-47661211D01*
X155196472Y-47759236D01*
X155129235Y-47778236D01*
X155064528Y-47759236D01*
X154908519Y-47661209D01*
X154799035Y-47622898D01*
X154742259Y-47582176D01*
X154716512Y-47517223D01*
X154729969Y-47448662D01*
X154778356Y-47398259D01*
X154792537Y-47391296D01*
X154821073Y-47379477D01*
X154980845Y-47272720D01*
X155116720Y-47136845D01*
X155223477Y-46977073D01*
X155297012Y-46799543D01*
X155334500Y-46611078D01*
X155334500Y-46418922D01*
X155334500Y-46418919D01*
X155334499Y-46418917D01*
X155297319Y-46232000D01*
X155297012Y-46230457D01*
X155254907Y-46128806D01*
X155223479Y-46052931D01*
X155223478Y-46052929D01*
X155200364Y-46018337D01*
X155116720Y-45893155D01*
X155116717Y-45893151D01*
X154980848Y-45757282D01*
X154980844Y-45757279D01*
X154821070Y-45650521D01*
X154821068Y-45650520D01*
X154643547Y-45576989D01*
X154643535Y-45576986D01*
X154455081Y-45539500D01*
X154455078Y-45539500D01*
X153962922Y-45539500D01*
X153962919Y-45539500D01*
X153774464Y-45576986D01*
X153774452Y-45576989D01*
X153596931Y-45650520D01*
X153596929Y-45650521D01*
X153437155Y-45757279D01*
X153437151Y-45757282D01*
X153301282Y-45893151D01*
X153301279Y-45893155D01*
X153194521Y-46052929D01*
X153194520Y-46052931D01*
X153120989Y-46230452D01*
X153120986Y-46230464D01*
X153083500Y-46418917D01*
X153083500Y-46611082D01*
X153120986Y-46799535D01*
X153120989Y-46799547D01*
X153194520Y-46977068D01*
X153194521Y-46977070D01*
X153301279Y-47136844D01*
X153301282Y-47136848D01*
X153437154Y-47272720D01*
X153504925Y-47318002D01*
X153572976Y-47363473D01*
X153617780Y-47417084D01*
X153626487Y-47486409D01*
X153596333Y-47549436D01*
X153536890Y-47586156D01*
X153490202Y-47589794D01*
X153416005Y-47581435D01*
X153415996Y-47581435D01*
X153236750Y-47601630D01*
X153236745Y-47601631D01*
X153066476Y-47661211D01*
X152913737Y-47757184D01*
X152786184Y-47884737D01*
X152690211Y-48037476D01*
X152630631Y-48207745D01*
X152630630Y-48207750D01*
X152610435Y-48386996D01*
X101773500Y-48386996D01*
X101773500Y-47373706D01*
X101773618Y-47368298D01*
X101781326Y-47191745D01*
X101791451Y-46959824D01*
X101792391Y-46949091D01*
X101845404Y-46546411D01*
X101847278Y-46535781D01*
X101935189Y-46139244D01*
X101937987Y-46128806D01*
X102060116Y-45741462D01*
X102063803Y-45731330D01*
X102124773Y-45584135D01*
X115362500Y-45584135D01*
X115362500Y-47379870D01*
X115362501Y-47379876D01*
X115368908Y-47439483D01*
X115419202Y-47574328D01*
X115419206Y-47574335D01*
X115505452Y-47689544D01*
X115505455Y-47689547D01*
X115620664Y-47775793D01*
X115620671Y-47775797D01*
X115755517Y-47826091D01*
X115755516Y-47826091D01*
X115762444Y-47826835D01*
X115815127Y-47832500D01*
X117610872Y-47832499D01*
X117670483Y-47826091D01*
X117805331Y-47775796D01*
X117920546Y-47689546D01*
X118006796Y-47574331D01*
X118055810Y-47442916D01*
X118097681Y-47386984D01*
X118163145Y-47362566D01*
X118231418Y-47377417D01*
X118259673Y-47398569D01*
X118381599Y-47520495D01*
X118468630Y-47581435D01*
X118575165Y-47656032D01*
X118575167Y-47656033D01*
X118575170Y-47656035D01*
X118789337Y-47755903D01*
X118789343Y-47755904D01*
X118789344Y-47755905D01*
X118801776Y-47759236D01*
X119017592Y-47817063D01*
X119194034Y-47832500D01*
X119252999Y-47837659D01*
X119253000Y-47837659D01*
X119253001Y-47837659D01*
X119311966Y-47832500D01*
X119488408Y-47817063D01*
X119716663Y-47755903D01*
X119930830Y-47656035D01*
X120124401Y-47520495D01*
X120291495Y-47353401D01*
X120421730Y-47167405D01*
X120476307Y-47123781D01*
X120545805Y-47116587D01*
X120608160Y-47148110D01*
X120624879Y-47167405D01*
X120754890Y-47353078D01*
X120921917Y-47520105D01*
X121115421Y-47655600D01*
X121329507Y-47755429D01*
X121329516Y-47755433D01*
X121543000Y-47812634D01*
X121543000Y-46915012D01*
X121600007Y-46947925D01*
X121727174Y-46982000D01*
X121858826Y-46982000D01*
X121985993Y-46947925D01*
X122043000Y-46915012D01*
X122043000Y-47812633D01*
X122256483Y-47755433D01*
X122256492Y-47755429D01*
X122470578Y-47655600D01*
X122664082Y-47520105D01*
X122831105Y-47353082D01*
X122961119Y-47167405D01*
X123015696Y-47123781D01*
X123085195Y-47116588D01*
X123147549Y-47148110D01*
X123164269Y-47167405D01*
X123294505Y-47353401D01*
X123461599Y-47520495D01*
X123548630Y-47581435D01*
X123655165Y-47656032D01*
X123655167Y-47656033D01*
X123655170Y-47656035D01*
X123869337Y-47755903D01*
X123869343Y-47755904D01*
X123869344Y-47755905D01*
X123881776Y-47759236D01*
X124097592Y-47817063D01*
X124274034Y-47832500D01*
X124332999Y-47837659D01*
X124333000Y-47837659D01*
X124333001Y-47837659D01*
X124391966Y-47832500D01*
X124568408Y-47817063D01*
X124796663Y-47755903D01*
X125010830Y-47656035D01*
X125204401Y-47520495D01*
X125371495Y-47353401D01*
X125501730Y-47167405D01*
X125556307Y-47123781D01*
X125625805Y-47116587D01*
X125688160Y-47148110D01*
X125704879Y-47167405D01*
X125834890Y-47353078D01*
X126001917Y-47520105D01*
X126195421Y-47655600D01*
X126409507Y-47755429D01*
X126409516Y-47755433D01*
X126623000Y-47812634D01*
X126623000Y-46915012D01*
X126680007Y-46947925D01*
X126807174Y-46982000D01*
X126938826Y-46982000D01*
X127065993Y-46947925D01*
X127123000Y-46915012D01*
X127123000Y-47812633D01*
X127336483Y-47755433D01*
X127336492Y-47755429D01*
X127550578Y-47655600D01*
X127744082Y-47520105D01*
X127911105Y-47353082D01*
X128041119Y-47167405D01*
X128095696Y-47123781D01*
X128165195Y-47116588D01*
X128227549Y-47148110D01*
X128244269Y-47167405D01*
X128374505Y-47353401D01*
X128541599Y-47520495D01*
X128628630Y-47581435D01*
X128735165Y-47656032D01*
X128735167Y-47656033D01*
X128735170Y-47656035D01*
X128949337Y-47755903D01*
X128949343Y-47755904D01*
X128949344Y-47755905D01*
X128961776Y-47759236D01*
X129177592Y-47817063D01*
X129354034Y-47832500D01*
X129412999Y-47837659D01*
X129413000Y-47837659D01*
X129413001Y-47837659D01*
X129471966Y-47832500D01*
X129648408Y-47817063D01*
X129876663Y-47755903D01*
X130090830Y-47656035D01*
X130284401Y-47520495D01*
X130451495Y-47353401D01*
X130581425Y-47167842D01*
X130636002Y-47124217D01*
X130705500Y-47117023D01*
X130767855Y-47148546D01*
X130784575Y-47167842D01*
X130914500Y-47353395D01*
X130914505Y-47353401D01*
X131081599Y-47520495D01*
X131168630Y-47581435D01*
X131275165Y-47656032D01*
X131275167Y-47656033D01*
X131275170Y-47656035D01*
X131489337Y-47755903D01*
X131489343Y-47755904D01*
X131489344Y-47755905D01*
X131501776Y-47759236D01*
X131717592Y-47817063D01*
X131894034Y-47832500D01*
X131952999Y-47837659D01*
X131953000Y-47837659D01*
X131953001Y-47837659D01*
X132011966Y-47832500D01*
X132188408Y-47817063D01*
X132416663Y-47755903D01*
X132630830Y-47656035D01*
X132824401Y-47520495D01*
X132991495Y-47353401D01*
X133121425Y-47167842D01*
X133176002Y-47124217D01*
X133245500Y-47117023D01*
X133307855Y-47148546D01*
X133324575Y-47167842D01*
X133454500Y-47353395D01*
X133454505Y-47353401D01*
X133621599Y-47520495D01*
X133708630Y-47581435D01*
X133815165Y-47656032D01*
X133815167Y-47656033D01*
X133815170Y-47656035D01*
X134029337Y-47755903D01*
X134029343Y-47755904D01*
X134029344Y-47755905D01*
X134041776Y-47759236D01*
X134257592Y-47817063D01*
X134434034Y-47832500D01*
X134492999Y-47837659D01*
X134493000Y-47837659D01*
X134493001Y-47837659D01*
X134551966Y-47832500D01*
X134728408Y-47817063D01*
X134956663Y-47755903D01*
X135170830Y-47656035D01*
X135364401Y-47520495D01*
X135531495Y-47353401D01*
X135661730Y-47167405D01*
X135716307Y-47123781D01*
X135785805Y-47116587D01*
X135848160Y-47148110D01*
X135864879Y-47167405D01*
X135994890Y-47353078D01*
X136161917Y-47520105D01*
X136355421Y-47655600D01*
X136569507Y-47755429D01*
X136569516Y-47755433D01*
X136783000Y-47812634D01*
X136783000Y-46915012D01*
X136840007Y-46947925D01*
X136967174Y-46982000D01*
X137098826Y-46982000D01*
X137225993Y-46947925D01*
X137283000Y-46915012D01*
X137283000Y-47812633D01*
X137496483Y-47755433D01*
X137496492Y-47755429D01*
X137710578Y-47655600D01*
X137904082Y-47520105D01*
X138071105Y-47353082D01*
X138201119Y-47167405D01*
X138255696Y-47123781D01*
X138325195Y-47116588D01*
X138387549Y-47148110D01*
X138404269Y-47167405D01*
X138534505Y-47353401D01*
X138701599Y-47520495D01*
X138788630Y-47581435D01*
X138895165Y-47656032D01*
X138895167Y-47656033D01*
X138895170Y-47656035D01*
X139109337Y-47755903D01*
X139109343Y-47755904D01*
X139109344Y-47755905D01*
X139121776Y-47759236D01*
X139337592Y-47817063D01*
X139514034Y-47832500D01*
X139572999Y-47837659D01*
X139573000Y-47837659D01*
X139573001Y-47837659D01*
X139631966Y-47832500D01*
X139808408Y-47817063D01*
X140036663Y-47755903D01*
X140250830Y-47656035D01*
X140444401Y-47520495D01*
X140611495Y-47353401D01*
X140747035Y-47159830D01*
X140846903Y-46945663D01*
X140908063Y-46717408D01*
X140928659Y-46482000D01*
X140923140Y-46418917D01*
X148083500Y-46418917D01*
X148083500Y-46611082D01*
X148120986Y-46799535D01*
X148120989Y-46799547D01*
X148194520Y-46977068D01*
X148194521Y-46977070D01*
X148301279Y-47136844D01*
X148301282Y-47136848D01*
X148437151Y-47272717D01*
X148437155Y-47272720D01*
X148596927Y-47379477D01*
X148596928Y-47379477D01*
X148596929Y-47379478D01*
X148596931Y-47379479D01*
X148741795Y-47439483D01*
X148774457Y-47453012D01*
X148942355Y-47486409D01*
X148962917Y-47490499D01*
X148962920Y-47490500D01*
X148962922Y-47490500D01*
X149455080Y-47490500D01*
X149455081Y-47490499D01*
X149643543Y-47453012D01*
X149821073Y-47379477D01*
X149980845Y-47272720D01*
X150116720Y-47136845D01*
X150223477Y-46977073D01*
X150297012Y-46799543D01*
X150334500Y-46611078D01*
X150334500Y-46418922D01*
X150334500Y-46418919D01*
X150334499Y-46418917D01*
X150297319Y-46232000D01*
X150297012Y-46230457D01*
X150254907Y-46128806D01*
X150223479Y-46052931D01*
X150223478Y-46052929D01*
X150200364Y-46018337D01*
X150116720Y-45893155D01*
X150116717Y-45893151D01*
X149980848Y-45757282D01*
X149980844Y-45757279D01*
X149821070Y-45650521D01*
X149821068Y-45650520D01*
X149643547Y-45576989D01*
X149643535Y-45576986D01*
X149455081Y-45539500D01*
X149455078Y-45539500D01*
X148962922Y-45539500D01*
X148962919Y-45539500D01*
X148774464Y-45576986D01*
X148774452Y-45576989D01*
X148596931Y-45650520D01*
X148596929Y-45650521D01*
X148437155Y-45757279D01*
X148437151Y-45757282D01*
X148301282Y-45893151D01*
X148301279Y-45893155D01*
X148194521Y-46052929D01*
X148194520Y-46052931D01*
X148120989Y-46230452D01*
X148120986Y-46230464D01*
X148083500Y-46418917D01*
X140923140Y-46418917D01*
X140908063Y-46246592D01*
X140846903Y-46018337D01*
X140747035Y-45804171D01*
X140741731Y-45796595D01*
X140611494Y-45610597D01*
X140444402Y-45443506D01*
X140444395Y-45443501D01*
X140250834Y-45307967D01*
X140250830Y-45307965D01*
X140250828Y-45307964D01*
X140036663Y-45208097D01*
X140036659Y-45208096D01*
X140036655Y-45208094D01*
X139808413Y-45146938D01*
X139808403Y-45146936D01*
X139573001Y-45126341D01*
X139572999Y-45126341D01*
X139337596Y-45146936D01*
X139337586Y-45146938D01*
X139109344Y-45208094D01*
X139109335Y-45208098D01*
X138895171Y-45307964D01*
X138895169Y-45307965D01*
X138701597Y-45443505D01*
X138534508Y-45610594D01*
X138404269Y-45796595D01*
X138349692Y-45840219D01*
X138280193Y-45847412D01*
X138217839Y-45815890D01*
X138201119Y-45796594D01*
X138071113Y-45610926D01*
X138071108Y-45610920D01*
X137904082Y-45443894D01*
X137710578Y-45308399D01*
X137496492Y-45208570D01*
X137496486Y-45208567D01*
X137283000Y-45151364D01*
X137283000Y-46048988D01*
X137225993Y-46016075D01*
X137098826Y-45982000D01*
X136967174Y-45982000D01*
X136840007Y-46016075D01*
X136783000Y-46048988D01*
X136783000Y-45151364D01*
X136782999Y-45151364D01*
X136569513Y-45208567D01*
X136569507Y-45208570D01*
X136355422Y-45308399D01*
X136355420Y-45308400D01*
X136161926Y-45443886D01*
X136161920Y-45443891D01*
X135994891Y-45610920D01*
X135994890Y-45610922D01*
X135864880Y-45796595D01*
X135810303Y-45840219D01*
X135740804Y-45847412D01*
X135678450Y-45815890D01*
X135661730Y-45796594D01*
X135531494Y-45610597D01*
X135364402Y-45443506D01*
X135364395Y-45443501D01*
X135170834Y-45307967D01*
X135170830Y-45307965D01*
X135170828Y-45307964D01*
X134956663Y-45208097D01*
X134956659Y-45208096D01*
X134956655Y-45208094D01*
X134728413Y-45146938D01*
X134728403Y-45146936D01*
X134493001Y-45126341D01*
X134492999Y-45126341D01*
X134257596Y-45146936D01*
X134257586Y-45146938D01*
X134029344Y-45208094D01*
X134029335Y-45208098D01*
X133815171Y-45307964D01*
X133815169Y-45307965D01*
X133621597Y-45443505D01*
X133454505Y-45610597D01*
X133324575Y-45796158D01*
X133269998Y-45839783D01*
X133200500Y-45846977D01*
X133138145Y-45815454D01*
X133121425Y-45796158D01*
X132991494Y-45610597D01*
X132824402Y-45443506D01*
X132824395Y-45443501D01*
X132630834Y-45307967D01*
X132630830Y-45307965D01*
X132630828Y-45307964D01*
X132416663Y-45208097D01*
X132416659Y-45208096D01*
X132416655Y-45208094D01*
X132188413Y-45146938D01*
X132188403Y-45146936D01*
X131953001Y-45126341D01*
X131952999Y-45126341D01*
X131717596Y-45146936D01*
X131717586Y-45146938D01*
X131489344Y-45208094D01*
X131489335Y-45208098D01*
X131275171Y-45307964D01*
X131275169Y-45307965D01*
X131081597Y-45443505D01*
X130914505Y-45610597D01*
X130784575Y-45796158D01*
X130729998Y-45839783D01*
X130660500Y-45846977D01*
X130598145Y-45815454D01*
X130581425Y-45796158D01*
X130451494Y-45610597D01*
X130284402Y-45443506D01*
X130284395Y-45443501D01*
X130090834Y-45307967D01*
X130090830Y-45307965D01*
X130090828Y-45307964D01*
X129876663Y-45208097D01*
X129876659Y-45208096D01*
X129876655Y-45208094D01*
X129648413Y-45146938D01*
X129648403Y-45146936D01*
X129413001Y-45126341D01*
X129412999Y-45126341D01*
X129177596Y-45146936D01*
X129177586Y-45146938D01*
X128949344Y-45208094D01*
X128949335Y-45208098D01*
X128735171Y-45307964D01*
X128735169Y-45307965D01*
X128541597Y-45443505D01*
X128374508Y-45610594D01*
X128244269Y-45796595D01*
X128189692Y-45840219D01*
X128120193Y-45847412D01*
X128057839Y-45815890D01*
X128041119Y-45796594D01*
X127911113Y-45610926D01*
X127911108Y-45610920D01*
X127744082Y-45443894D01*
X127550578Y-45308399D01*
X127336492Y-45208570D01*
X127336486Y-45208567D01*
X127123000Y-45151364D01*
X127123000Y-46048988D01*
X127065993Y-46016075D01*
X126938826Y-45982000D01*
X126807174Y-45982000D01*
X126680007Y-46016075D01*
X126623000Y-46048988D01*
X126623000Y-45151364D01*
X126622999Y-45151364D01*
X126409513Y-45208567D01*
X126409507Y-45208570D01*
X126195422Y-45308399D01*
X126195420Y-45308400D01*
X126001926Y-45443886D01*
X126001920Y-45443891D01*
X125834891Y-45610920D01*
X125834890Y-45610922D01*
X125704880Y-45796595D01*
X125650303Y-45840219D01*
X125580804Y-45847412D01*
X125518450Y-45815890D01*
X125501730Y-45796594D01*
X125371494Y-45610597D01*
X125204402Y-45443506D01*
X125204395Y-45443501D01*
X125010834Y-45307967D01*
X125010830Y-45307965D01*
X125010828Y-45307964D01*
X124796663Y-45208097D01*
X124796659Y-45208096D01*
X124796655Y-45208094D01*
X124568413Y-45146938D01*
X124568403Y-45146936D01*
X124333001Y-45126341D01*
X124332999Y-45126341D01*
X124097596Y-45146936D01*
X124097586Y-45146938D01*
X123869344Y-45208094D01*
X123869335Y-45208098D01*
X123655171Y-45307964D01*
X123655169Y-45307965D01*
X123461597Y-45443505D01*
X123294508Y-45610594D01*
X123164269Y-45796595D01*
X123109692Y-45840219D01*
X123040193Y-45847412D01*
X122977839Y-45815890D01*
X122961119Y-45796594D01*
X122831113Y-45610926D01*
X122831108Y-45610920D01*
X122664082Y-45443894D01*
X122470578Y-45308399D01*
X122256492Y-45208570D01*
X122256486Y-45208567D01*
X122043000Y-45151364D01*
X122043000Y-46048988D01*
X121985993Y-46016075D01*
X121858826Y-45982000D01*
X121727174Y-45982000D01*
X121600007Y-46016075D01*
X121543000Y-46048988D01*
X121543000Y-45151364D01*
X121542999Y-45151364D01*
X121329513Y-45208567D01*
X121329507Y-45208570D01*
X121115422Y-45308399D01*
X121115420Y-45308400D01*
X120921926Y-45443886D01*
X120921920Y-45443891D01*
X120754891Y-45610920D01*
X120754890Y-45610922D01*
X120624880Y-45796595D01*
X120570303Y-45840219D01*
X120500804Y-45847412D01*
X120438450Y-45815890D01*
X120421730Y-45796594D01*
X120291494Y-45610597D01*
X120124402Y-45443506D01*
X120124395Y-45443501D01*
X119930834Y-45307967D01*
X119930830Y-45307965D01*
X119930828Y-45307964D01*
X119716663Y-45208097D01*
X119716659Y-45208096D01*
X119716655Y-45208094D01*
X119488413Y-45146938D01*
X119488403Y-45146936D01*
X119253001Y-45126341D01*
X119252999Y-45126341D01*
X119017596Y-45146936D01*
X119017586Y-45146938D01*
X118789344Y-45208094D01*
X118789335Y-45208098D01*
X118575171Y-45307964D01*
X118575169Y-45307965D01*
X118381600Y-45443503D01*
X118259673Y-45565430D01*
X118198350Y-45598914D01*
X118128658Y-45593930D01*
X118072725Y-45552058D01*
X118055810Y-45521081D01*
X118006797Y-45389671D01*
X118006793Y-45389664D01*
X117920547Y-45274455D01*
X117920544Y-45274452D01*
X117805335Y-45188206D01*
X117805328Y-45188202D01*
X117670482Y-45137908D01*
X117670483Y-45137908D01*
X117610883Y-45131501D01*
X117610881Y-45131500D01*
X117610873Y-45131500D01*
X117610864Y-45131500D01*
X115815129Y-45131500D01*
X115815123Y-45131501D01*
X115755516Y-45137908D01*
X115620671Y-45188202D01*
X115620664Y-45188206D01*
X115505455Y-45274452D01*
X115505452Y-45274455D01*
X115419206Y-45389664D01*
X115419202Y-45389671D01*
X115368908Y-45524517D01*
X115362501Y-45584116D01*
X115362500Y-45584135D01*
X102124773Y-45584135D01*
X102219237Y-45356079D01*
X102223795Y-45346305D01*
X102411335Y-44986045D01*
X102416730Y-44976700D01*
X102634961Y-44634145D01*
X102641147Y-44625310D01*
X102888405Y-44303078D01*
X102895350Y-44294804D01*
X103169726Y-43995375D01*
X103177375Y-43987726D01*
X103476804Y-43713350D01*
X103485078Y-43706405D01*
X103807310Y-43459147D01*
X103816145Y-43452961D01*
X104158700Y-43234730D01*
X104168045Y-43229335D01*
X104528305Y-43041795D01*
X104538079Y-43037237D01*
X104913330Y-42881803D01*
X104923462Y-42878116D01*
X105310815Y-42755984D01*
X105321244Y-42753189D01*
X105717781Y-42665278D01*
X105728411Y-42663404D01*
X106131091Y-42610391D01*
X106141824Y-42609451D01*
X106537126Y-42592193D01*
X106550298Y-42591618D01*
X106555706Y-42591500D01*
X106600595Y-42591500D01*
X147465998Y-42591500D01*
X147533037Y-42611185D01*
G37*
%TD.AperFunction*%
%TD*%
M02*
