%TF.GenerationSoftware,KiCad,Pcbnew,8.0.7*%
%TF.CreationDate,2025-01-22T16:07:47-05:00*%
%TF.ProjectId,companion,636f6d70-616e-4696-9f6e-2e6b69636164,rev?*%
%TF.SameCoordinates,Original*%
%TF.FileFunction,Copper,L3,Inr*%
%TF.FilePolarity,Positive*%
%FSLAX46Y46*%
G04 Gerber Fmt 4.6, Leading zero omitted, Abs format (unit mm)*
G04 Created by KiCad (PCBNEW 8.0.7) date 2025-01-22 16:07:47*
%MOMM*%
%LPD*%
G01*
G04 APERTURE LIST*
%TA.AperFunction,ComponentPad*%
%ADD10C,1.750000*%
%TD*%
%TA.AperFunction,ComponentPad*%
%ADD11C,0.800000*%
%TD*%
%TA.AperFunction,ComponentPad*%
%ADD12C,6.400000*%
%TD*%
%TA.AperFunction,ComponentPad*%
%ADD13O,0.890000X1.550000*%
%TD*%
%TA.AperFunction,ComponentPad*%
%ADD14O,1.250000X0.950000*%
%TD*%
%TA.AperFunction,ComponentPad*%
%ADD15R,1.700000X1.700000*%
%TD*%
%TA.AperFunction,ComponentPad*%
%ADD16O,1.700000X1.700000*%
%TD*%
%TA.AperFunction,ViaPad*%
%ADD17C,0.600000*%
%TD*%
G04 APERTURE END LIST*
D10*
%TO.N,VBUS*%
%TO.C,U1*%
X103632000Y-66040000D03*
X103632000Y-68580000D03*
X103632000Y-71120000D03*
X103632000Y-73660000D03*
%TO.N,GND*%
X103632000Y-76200000D03*
X103632000Y-78740000D03*
X103632000Y-81280000D03*
X103632000Y-83820000D03*
%TO.N,/DATA0*%
X133604000Y-105410000D03*
%TO.N,/DATA1*%
X136144000Y-105410000D03*
%TO.N,/DATA2*%
X138684000Y-105410000D03*
%TO.N,/DATA3*%
X141224000Y-105410000D03*
%TO.N,GND*%
X143764000Y-105410000D03*
%TO.N,/DATA4*%
X146304000Y-105410000D03*
%TO.N,/DATA5*%
X148844000Y-105410000D03*
%TO.N,/DATA6*%
X151384000Y-105410000D03*
%TO.N,/DATA7*%
X153924000Y-105410000D03*
%TO.N,GND*%
X156464000Y-105410000D03*
%TO.N,/DATA8*%
X159004000Y-105410000D03*
%TO.N,/DATA9*%
X161544000Y-105410000D03*
%TO.N,/DATA10*%
X164084000Y-105410000D03*
%TO.N,/DATA11*%
X166624000Y-105410000D03*
%TO.N,/DATA12*%
X169164000Y-105410000D03*
%TO.N,/DATA13*%
X169164000Y-102870000D03*
%TO.N,/DATA14*%
X166624000Y-102870000D03*
%TO.N,/DATA15*%
X164084000Y-102870000D03*
%TO.N,/ADDR5*%
X161544000Y-102870000D03*
%TO.N,/ADDR4*%
X159004000Y-102870000D03*
%TO.N,GND*%
X156464000Y-102870000D03*
%TO.N,/ADDR3*%
X153924000Y-102870000D03*
%TO.N,/ADDR2*%
X151384000Y-102870000D03*
%TO.N,/ADDR1*%
X148844000Y-102870000D03*
%TO.N,/ADDR0*%
X146304000Y-102870000D03*
%TO.N,GND*%
X143764000Y-102870000D03*
%TO.N,/~{W}{slash}R*%
X141224000Y-102870000D03*
%TO.N,/~{B}{slash}W*%
X138684000Y-102870000D03*
%TO.N,/~{EN}*%
X136144000Y-102870000D03*
%TO.N,/CLK*%
X133604000Y-102870000D03*
%TO.N,GND*%
X199136000Y-83820000D03*
%TO.N,/CDONE*%
X199136000Y-81280000D03*
%TO.N,/~{CRESET}*%
X199136000Y-78740000D03*
%TO.N,/~{FRESET}*%
X199136000Y-76200000D03*
%TO.N,/~{FSEL}*%
X199136000Y-73660000D03*
%TO.N,/SPI_SCK*%
X199136000Y-71120000D03*
%TO.N,/SPI_MISO*%
X199136000Y-68580000D03*
%TO.N,/SPI_MOSI*%
X199136000Y-66040000D03*
%TD*%
D11*
%TO.N,GND*%
%TO.C,H3*%
X193815000Y-102489000D03*
X194517944Y-100791944D03*
X194517944Y-104186056D03*
X196215000Y-100089000D03*
D12*
X196215000Y-102489000D03*
D11*
X196215000Y-104889000D03*
X197912056Y-100791944D03*
X197912056Y-104186056D03*
X198615000Y-102489000D03*
%TD*%
%TO.N,GND*%
%TO.C,H1*%
X104153000Y-47371000D03*
X104855944Y-45673944D03*
X104855944Y-49068056D03*
X106553000Y-44971000D03*
D12*
X106553000Y-47371000D03*
D11*
X106553000Y-49771000D03*
X108250056Y-45673944D03*
X108250056Y-49068056D03*
X108953000Y-47371000D03*
%TD*%
%TO.N,GND*%
%TO.C,H2*%
X193815000Y-47371000D03*
X194517944Y-45673944D03*
X194517944Y-49068056D03*
X196215000Y-44971000D03*
D12*
X196215000Y-47371000D03*
D11*
X196215000Y-49771000D03*
X197912056Y-45673944D03*
X197912056Y-49068056D03*
X198615000Y-47371000D03*
%TD*%
D13*
%TO.N,unconnected-(J1-Shield-Pad6)_2*%
%TO.C,J1*%
X155209000Y-43815000D03*
D14*
X154209000Y-46515000D03*
X149209000Y-46515000D03*
D13*
X148209000Y-43815000D03*
%TD*%
D15*
%TO.N,+3.3V*%
%TO.C,J2*%
X116713000Y-46482000D03*
D16*
%TO.N,/SYS_SWDIO*%
X119253000Y-46482000D03*
%TO.N,GND*%
X121793000Y-46482000D03*
%TO.N,/SYS_SWCLK*%
X124333000Y-46482000D03*
%TO.N,GND*%
X126873000Y-46482000D03*
%TO.N,unconnected-(J2-Pin_6-Pad6)*%
X129413000Y-46482000D03*
%TO.N,unconnected-(J2-Pin_7-Pad7)*%
X131953000Y-46482000D03*
%TO.N,unconnected-(J2-Pin_8-Pad8)*%
X134493000Y-46482000D03*
%TO.N,GND*%
X137033000Y-46482000D03*
%TO.N,/NRST*%
X139573000Y-46482000D03*
%TD*%
D11*
%TO.N,GND*%
%TO.C,H4*%
X104153000Y-102489000D03*
X104855944Y-100791944D03*
X104855944Y-104186056D03*
X106553000Y-100089000D03*
D12*
X106553000Y-102489000D03*
D11*
X106553000Y-104889000D03*
X108250056Y-100791944D03*
X108250056Y-104186056D03*
X108953000Y-102489000D03*
%TD*%
D15*
%TO.N,/BOOT_RX*%
%TO.C,J3*%
X180975000Y-46482000D03*
D16*
%TO.N,/BOOT_TX*%
X183515000Y-46482000D03*
%TO.N,GND*%
X186055000Y-46482000D03*
%TD*%
D17*
%TO.N,GND*%
X162560000Y-87503000D03*
X159766000Y-55499000D03*
X161036000Y-71501000D03*
X149987000Y-49403000D03*
X170180000Y-48768000D03*
X144272000Y-45339000D03*
X148844000Y-48387000D03*
X144272000Y-48387000D03*
X145415000Y-45339000D03*
X145415000Y-49403000D03*
X146558000Y-47371000D03*
X145415000Y-47371000D03*
X146558000Y-48387000D03*
X138049000Y-78613000D03*
X147701000Y-48387000D03*
X146558000Y-49403000D03*
X144272000Y-47371000D03*
X147574000Y-65786000D03*
X147701000Y-49403000D03*
X145415000Y-48387000D03*
X161036000Y-80391000D03*
X146558000Y-46355000D03*
X148844000Y-49403000D03*
X106553000Y-53340000D03*
X144272000Y-49403000D03*
X146558000Y-45339000D03*
X144272000Y-46355000D03*
X145415000Y-46355000D03*
X152908000Y-55372000D03*
X145658250Y-85979000D03*
X153405250Y-90424000D03*
X149987000Y-48387000D03*
%TO.N,+3.3V*%
X106553000Y-62611000D03*
X196215000Y-62738000D03*
X161417000Y-52197000D03*
X161036000Y-77597000D03*
X161417000Y-50419000D03*
X165167000Y-48828000D03*
X159131000Y-50419000D03*
X161417000Y-51308000D03*
X160274000Y-51308000D03*
X162560000Y-85471000D03*
X144907000Y-80645000D03*
X161036000Y-68580000D03*
X144272000Y-67183000D03*
X157988000Y-51308000D03*
X160274000Y-50419000D03*
X157988000Y-50419000D03*
%TO.N,VBUS*%
X156845000Y-45339000D03*
X153416000Y-49403000D03*
X156845000Y-46355000D03*
X157988000Y-46355000D03*
X155702000Y-48387000D03*
X156845000Y-48387000D03*
X154559000Y-49403000D03*
X158369000Y-55753000D03*
X153416000Y-48387000D03*
X157988000Y-49403000D03*
X156845000Y-47371000D03*
X154559000Y-48387000D03*
X154559000Y-50419000D03*
X157988000Y-48387000D03*
X157988000Y-47371000D03*
X153416000Y-50419000D03*
X156845000Y-49403000D03*
X155702000Y-49403000D03*
X157988000Y-45339000D03*
%TO.N,/BOOT0*%
X157353000Y-68961000D03*
X167640000Y-55880000D03*
%TO.N,/NRST*%
X136271000Y-69215000D03*
X137668000Y-80645000D03*
X150622000Y-78867000D03*
%TD*%
%TA.AperFunction,Conductor*%
%TO.N,+3.3V*%
G36*
X147533037Y-42611185D02*
G01*
X147578792Y-42663989D01*
X147588736Y-42733147D01*
X147559711Y-42796703D01*
X147553679Y-42803181D01*
X147474584Y-42882275D01*
X147474578Y-42882283D01*
X147371109Y-43037135D01*
X147371109Y-43037136D01*
X147299835Y-43209207D01*
X147299833Y-43209215D01*
X147263500Y-43391871D01*
X147263500Y-44238128D01*
X147299833Y-44420784D01*
X147299835Y-44420792D01*
X147371109Y-44592863D01*
X147371109Y-44592864D01*
X147474578Y-44747716D01*
X147474584Y-44747724D01*
X147606275Y-44879415D01*
X147606283Y-44879421D01*
X147761135Y-44982890D01*
X147777040Y-44989478D01*
X147933208Y-45054165D01*
X148115871Y-45090499D01*
X148115874Y-45090500D01*
X148115876Y-45090500D01*
X148302126Y-45090500D01*
X148302127Y-45090499D01*
X148484792Y-45054165D01*
X148656862Y-44982891D01*
X148656863Y-44982890D01*
X148656864Y-44982890D01*
X148733772Y-44931501D01*
X148811721Y-44879418D01*
X148943418Y-44747721D01*
X148995501Y-44669772D01*
X149046890Y-44592864D01*
X149046890Y-44592863D01*
X149046891Y-44592862D01*
X149118165Y-44420792D01*
X149154500Y-44238124D01*
X149154500Y-43391876D01*
X149154500Y-43391873D01*
X149154499Y-43391871D01*
X149149850Y-43368500D01*
X149118165Y-43209208D01*
X149046891Y-43037138D01*
X149046890Y-43037136D01*
X149046890Y-43037135D01*
X148943421Y-42882283D01*
X148943415Y-42882275D01*
X148864321Y-42803181D01*
X148830836Y-42741858D01*
X148835820Y-42672166D01*
X148877692Y-42616233D01*
X148943156Y-42591816D01*
X148952002Y-42591500D01*
X154465998Y-42591500D01*
X154533037Y-42611185D01*
X154578792Y-42663989D01*
X154588736Y-42733147D01*
X154559711Y-42796703D01*
X154553679Y-42803181D01*
X154474584Y-42882275D01*
X154474578Y-42882283D01*
X154371109Y-43037135D01*
X154371109Y-43037136D01*
X154299835Y-43209207D01*
X154299833Y-43209215D01*
X154263500Y-43391871D01*
X154263500Y-44238128D01*
X154299833Y-44420784D01*
X154299835Y-44420792D01*
X154371109Y-44592863D01*
X154371109Y-44592864D01*
X154474578Y-44747716D01*
X154474584Y-44747724D01*
X154606275Y-44879415D01*
X154606283Y-44879421D01*
X154761135Y-44982890D01*
X154777040Y-44989478D01*
X154933208Y-45054165D01*
X155115871Y-45090499D01*
X155115874Y-45090500D01*
X155115876Y-45090500D01*
X155302126Y-45090500D01*
X155302127Y-45090499D01*
X155484792Y-45054165D01*
X155656862Y-44982891D01*
X155656863Y-44982890D01*
X155656864Y-44982890D01*
X155733772Y-44931501D01*
X155811721Y-44879418D01*
X155943418Y-44747721D01*
X155995501Y-44669772D01*
X156046890Y-44592864D01*
X156046890Y-44592863D01*
X156046891Y-44592862D01*
X156118165Y-44420792D01*
X156154500Y-44238124D01*
X156154500Y-44137995D01*
X163566499Y-44137995D01*
X163593418Y-44273322D01*
X163593421Y-44273332D01*
X163646221Y-44400804D01*
X163646228Y-44400817D01*
X163722885Y-44515541D01*
X163722888Y-44515545D01*
X163820454Y-44613111D01*
X163820458Y-44613114D01*
X163935182Y-44689771D01*
X163935195Y-44689778D01*
X164062667Y-44742578D01*
X164062672Y-44742580D01*
X164062676Y-44742580D01*
X164062677Y-44742581D01*
X164198004Y-44769500D01*
X164198007Y-44769500D01*
X164335995Y-44769500D01*
X164427041Y-44751389D01*
X164471328Y-44742580D01*
X164598811Y-44689775D01*
X164713542Y-44613114D01*
X164811114Y-44515542D01*
X164887775Y-44400811D01*
X164940580Y-44273328D01*
X164967500Y-44137995D01*
X170366499Y-44137995D01*
X170393418Y-44273322D01*
X170393421Y-44273332D01*
X170446221Y-44400804D01*
X170446228Y-44400817D01*
X170522885Y-44515541D01*
X170522888Y-44515545D01*
X170620454Y-44613111D01*
X170620458Y-44613114D01*
X170735182Y-44689771D01*
X170735195Y-44689778D01*
X170862667Y-44742578D01*
X170862672Y-44742580D01*
X170862676Y-44742580D01*
X170862677Y-44742581D01*
X170998004Y-44769500D01*
X170998007Y-44769500D01*
X171135995Y-44769500D01*
X171227041Y-44751389D01*
X171271328Y-44742580D01*
X171398811Y-44689775D01*
X171513542Y-44613114D01*
X171611114Y-44515542D01*
X171687775Y-44400811D01*
X171740580Y-44273328D01*
X171767500Y-44137993D01*
X171767500Y-44000007D01*
X171767500Y-44000004D01*
X171740581Y-43864677D01*
X171740580Y-43864676D01*
X171740580Y-43864672D01*
X171733172Y-43846788D01*
X171687778Y-43737195D01*
X171687771Y-43737182D01*
X171611114Y-43622458D01*
X171611111Y-43622454D01*
X171513545Y-43524888D01*
X171513541Y-43524885D01*
X171398817Y-43448228D01*
X171398804Y-43448221D01*
X171271332Y-43395421D01*
X171271322Y-43395418D01*
X171135995Y-43368500D01*
X171135993Y-43368500D01*
X170998007Y-43368500D01*
X170998005Y-43368500D01*
X170862677Y-43395418D01*
X170862667Y-43395421D01*
X170735195Y-43448221D01*
X170735182Y-43448228D01*
X170620458Y-43524885D01*
X170620454Y-43524888D01*
X170522888Y-43622454D01*
X170522885Y-43622458D01*
X170446228Y-43737182D01*
X170446221Y-43737195D01*
X170393421Y-43864667D01*
X170393418Y-43864677D01*
X170366500Y-44000004D01*
X170366500Y-44000007D01*
X170366500Y-44137993D01*
X170366500Y-44137995D01*
X170366499Y-44137995D01*
X164967500Y-44137995D01*
X164967500Y-44137993D01*
X164967500Y-44000007D01*
X164967500Y-44000004D01*
X164940581Y-43864677D01*
X164940580Y-43864676D01*
X164940580Y-43864672D01*
X164933172Y-43846788D01*
X164887778Y-43737195D01*
X164887771Y-43737182D01*
X164811114Y-43622458D01*
X164811111Y-43622454D01*
X164713545Y-43524888D01*
X164713541Y-43524885D01*
X164598817Y-43448228D01*
X164598804Y-43448221D01*
X164471332Y-43395421D01*
X164471322Y-43395418D01*
X164335995Y-43368500D01*
X164335993Y-43368500D01*
X164198007Y-43368500D01*
X164198005Y-43368500D01*
X164062677Y-43395418D01*
X164062667Y-43395421D01*
X163935195Y-43448221D01*
X163935182Y-43448228D01*
X163820458Y-43524885D01*
X163820454Y-43524888D01*
X163722888Y-43622454D01*
X163722885Y-43622458D01*
X163646228Y-43737182D01*
X163646221Y-43737195D01*
X163593421Y-43864667D01*
X163593418Y-43864677D01*
X163566500Y-44000004D01*
X163566500Y-44000007D01*
X163566500Y-44137993D01*
X163566500Y-44137995D01*
X163566499Y-44137995D01*
X156154500Y-44137995D01*
X156154500Y-43391876D01*
X156154500Y-43391873D01*
X156154499Y-43391871D01*
X156149850Y-43368500D01*
X156118165Y-43209208D01*
X156046891Y-43037138D01*
X156046890Y-43037136D01*
X156046890Y-43037135D01*
X155943421Y-42882283D01*
X155943415Y-42882275D01*
X155864321Y-42803181D01*
X155830836Y-42741858D01*
X155835820Y-42672166D01*
X155877692Y-42616233D01*
X155943156Y-42591816D01*
X155952002Y-42591500D01*
X196167405Y-42591500D01*
X196212294Y-42591500D01*
X196217702Y-42591618D01*
X196231499Y-42592220D01*
X196626173Y-42609451D01*
X196636910Y-42610391D01*
X197039584Y-42663404D01*
X197050222Y-42665279D01*
X197446749Y-42753188D01*
X197457189Y-42755986D01*
X197844530Y-42878113D01*
X197854676Y-42881806D01*
X198229911Y-43037234D01*
X198239702Y-43041800D01*
X198561288Y-43209207D01*
X198599942Y-43229329D01*
X198609309Y-43234736D01*
X198944424Y-43448228D01*
X198951840Y-43452952D01*
X198960699Y-43459155D01*
X199173514Y-43622454D01*
X199282909Y-43706396D01*
X199291195Y-43713350D01*
X199590624Y-43987726D01*
X199598273Y-43995375D01*
X199872649Y-44294804D01*
X199879603Y-44303090D01*
X200126842Y-44625297D01*
X200133047Y-44634159D01*
X200351262Y-44976689D01*
X200356670Y-44986057D01*
X200544196Y-45346290D01*
X200548768Y-45356094D01*
X200704189Y-45731313D01*
X200707889Y-45741479D01*
X200830012Y-46128806D01*
X200832812Y-46139254D01*
X200920718Y-46535769D01*
X200922596Y-46546423D01*
X200975606Y-46949069D01*
X200976549Y-46959845D01*
X200994382Y-47368297D01*
X200994500Y-47373706D01*
X200994500Y-102486293D01*
X200994382Y-102491702D01*
X200976549Y-102900154D01*
X200975606Y-102910930D01*
X200922596Y-103313576D01*
X200920718Y-103324230D01*
X200832812Y-103720745D01*
X200830012Y-103731193D01*
X200707889Y-104118520D01*
X200704189Y-104128686D01*
X200548768Y-104503905D01*
X200544196Y-104513709D01*
X200356670Y-104873942D01*
X200351262Y-104883310D01*
X200133047Y-105225840D01*
X200126842Y-105234702D01*
X199879603Y-105556909D01*
X199872649Y-105565195D01*
X199598273Y-105864624D01*
X199590624Y-105872273D01*
X199291195Y-106146649D01*
X199282909Y-106153603D01*
X198960702Y-106400842D01*
X198951840Y-106407047D01*
X198609310Y-106625262D01*
X198599942Y-106630670D01*
X198239709Y-106818196D01*
X198229905Y-106822768D01*
X197854686Y-106978189D01*
X197844520Y-106981889D01*
X197457193Y-107104012D01*
X197446745Y-107106812D01*
X197050230Y-107194718D01*
X197039576Y-107196596D01*
X196636930Y-107249606D01*
X196626154Y-107250549D01*
X196217703Y-107268382D01*
X196212294Y-107268500D01*
X106555706Y-107268500D01*
X106550297Y-107268382D01*
X106141845Y-107250549D01*
X106131069Y-107249606D01*
X105728423Y-107196596D01*
X105717769Y-107194718D01*
X105321254Y-107106812D01*
X105310806Y-107104012D01*
X104923479Y-106981889D01*
X104913313Y-106978189D01*
X104538094Y-106822768D01*
X104528290Y-106818196D01*
X104168057Y-106630670D01*
X104158689Y-106625262D01*
X103816159Y-106407047D01*
X103807297Y-106400842D01*
X103485090Y-106153603D01*
X103476804Y-106146649D01*
X103177375Y-105872273D01*
X103169726Y-105864624D01*
X102895350Y-105565195D01*
X102888396Y-105556909D01*
X102641157Y-105234702D01*
X102634952Y-105225840D01*
X102607552Y-105182831D01*
X102416736Y-104883309D01*
X102411329Y-104873942D01*
X102223803Y-104513709D01*
X102219231Y-104503905D01*
X102063806Y-104128676D01*
X102060110Y-104118520D01*
X102048017Y-104080166D01*
X101937986Y-103731189D01*
X101935187Y-103720745D01*
X101908391Y-103599875D01*
X101847279Y-103324222D01*
X101845403Y-103313576D01*
X101838275Y-103259433D01*
X101792391Y-102910910D01*
X101791451Y-102900173D01*
X101773618Y-102491701D01*
X101773559Y-102489000D01*
X102847422Y-102489000D01*
X102867722Y-102876338D01*
X102928398Y-103259433D01*
X103012845Y-103574596D01*
X103028788Y-103634094D01*
X103167787Y-103996197D01*
X103343877Y-104341793D01*
X103555122Y-104667082D01*
X103555124Y-104667084D01*
X103799219Y-104968516D01*
X104073484Y-105242781D01*
X104073488Y-105242784D01*
X104374917Y-105486877D01*
X104606362Y-105637179D01*
X104700211Y-105698125D01*
X105014288Y-105858155D01*
X105041996Y-105872273D01*
X105045806Y-105874214D01*
X105407913Y-106013214D01*
X105782567Y-106113602D01*
X106165662Y-106174278D01*
X106531576Y-106193455D01*
X106552999Y-106194578D01*
X106553000Y-106194578D01*
X106553001Y-106194578D01*
X106573301Y-106193514D01*
X106940338Y-106174278D01*
X107323433Y-106113602D01*
X107698087Y-106013214D01*
X108060194Y-105874214D01*
X108405789Y-105698125D01*
X108731084Y-105486876D01*
X109032516Y-105242781D01*
X109306781Y-104968516D01*
X109550876Y-104667084D01*
X109762125Y-104341789D01*
X109938214Y-103996194D01*
X110077214Y-103634087D01*
X110177602Y-103259433D01*
X110238278Y-102876338D01*
X110238611Y-102869993D01*
X132223786Y-102869993D01*
X132223786Y-102870006D01*
X132242608Y-103097168D01*
X132242610Y-103097179D01*
X132298569Y-103318155D01*
X132390137Y-103526908D01*
X132514814Y-103717742D01*
X132669208Y-103885458D01*
X132669212Y-103885461D01*
X132811485Y-103996197D01*
X132849094Y-104025469D01*
X132849096Y-104025470D01*
X132849099Y-104025472D01*
X132859214Y-104030946D01*
X132908804Y-104080166D01*
X132923911Y-104148382D01*
X132899740Y-104213938D01*
X132859214Y-104249054D01*
X132849099Y-104254527D01*
X132849090Y-104254533D01*
X132669212Y-104394538D01*
X132669208Y-104394541D01*
X132514814Y-104562257D01*
X132390137Y-104753091D01*
X132298569Y-104961844D01*
X132242610Y-105182820D01*
X132242608Y-105182831D01*
X132223786Y-105409993D01*
X132223786Y-105410006D01*
X132242608Y-105637168D01*
X132242610Y-105637179D01*
X132298569Y-105858155D01*
X132390137Y-106066908D01*
X132514814Y-106257742D01*
X132514817Y-106257745D01*
X132649580Y-106404137D01*
X132669208Y-106425458D01*
X132669212Y-106425461D01*
X132849094Y-106565469D01*
X132849096Y-106565470D01*
X132849099Y-106565472D01*
X132909731Y-106598284D01*
X133049574Y-106673963D01*
X133161529Y-106712397D01*
X133265173Y-106747979D01*
X133265175Y-106747979D01*
X133265177Y-106747980D01*
X133490023Y-106785500D01*
X133490024Y-106785500D01*
X133717976Y-106785500D01*
X133717977Y-106785500D01*
X133942823Y-106747980D01*
X134158426Y-106673963D01*
X134358906Y-106565469D01*
X134538794Y-106425456D01*
X134693183Y-106257745D01*
X134770191Y-106139874D01*
X134823337Y-106094518D01*
X134892568Y-106085094D01*
X134955904Y-106114596D01*
X134977809Y-106139875D01*
X135054814Y-106257742D01*
X135054817Y-106257745D01*
X135189580Y-106404137D01*
X135209208Y-106425458D01*
X135209212Y-106425461D01*
X135389094Y-106565469D01*
X135389096Y-106565470D01*
X135389099Y-106565472D01*
X135449731Y-106598284D01*
X135589574Y-106673963D01*
X135701529Y-106712397D01*
X135805173Y-106747979D01*
X135805175Y-106747979D01*
X135805177Y-106747980D01*
X136030023Y-106785500D01*
X136030024Y-106785500D01*
X136257976Y-106785500D01*
X136257977Y-106785500D01*
X136482823Y-106747980D01*
X136698426Y-106673963D01*
X136898906Y-106565469D01*
X137078794Y-106425456D01*
X137233183Y-106257745D01*
X137310191Y-106139874D01*
X137363337Y-106094518D01*
X137432568Y-106085094D01*
X137495904Y-106114596D01*
X137517809Y-106139875D01*
X137594814Y-106257742D01*
X137594817Y-106257745D01*
X137729580Y-106404137D01*
X137749208Y-106425458D01*
X137749212Y-106425461D01*
X137929094Y-106565469D01*
X137929096Y-106565470D01*
X137929099Y-106565472D01*
X137989731Y-106598284D01*
X138129574Y-106673963D01*
X138241529Y-106712397D01*
X138345173Y-106747979D01*
X138345175Y-106747979D01*
X138345177Y-106747980D01*
X138570023Y-106785500D01*
X138570024Y-106785500D01*
X138797976Y-106785500D01*
X138797977Y-106785500D01*
X139022823Y-106747980D01*
X139238426Y-106673963D01*
X139438906Y-106565469D01*
X139618794Y-106425456D01*
X139773183Y-106257745D01*
X139850191Y-106139874D01*
X139903337Y-106094518D01*
X139972568Y-106085094D01*
X140035904Y-106114596D01*
X140057809Y-106139875D01*
X140134814Y-106257742D01*
X140134817Y-106257745D01*
X140269580Y-106404137D01*
X140289208Y-106425458D01*
X140289212Y-106425461D01*
X140469094Y-106565469D01*
X140469096Y-106565470D01*
X140469099Y-106565472D01*
X140529731Y-106598284D01*
X140669574Y-106673963D01*
X140781529Y-106712397D01*
X140885173Y-106747979D01*
X140885175Y-106747979D01*
X140885177Y-106747980D01*
X141110023Y-106785500D01*
X141110024Y-106785500D01*
X141337976Y-106785500D01*
X141337977Y-106785500D01*
X141562823Y-106747980D01*
X141778426Y-106673963D01*
X141978906Y-106565469D01*
X142158794Y-106425456D01*
X142313183Y-106257745D01*
X142390191Y-106139874D01*
X142443337Y-106094518D01*
X142512568Y-106085094D01*
X142575904Y-106114596D01*
X142597809Y-106139875D01*
X142674814Y-106257742D01*
X142674817Y-106257745D01*
X142809580Y-106404137D01*
X142829208Y-106425458D01*
X142829212Y-106425461D01*
X143009094Y-106565469D01*
X143009096Y-106565470D01*
X143009099Y-106565472D01*
X143069731Y-106598284D01*
X143209574Y-106673963D01*
X143321529Y-106712397D01*
X143425173Y-106747979D01*
X143425175Y-106747979D01*
X143425177Y-106747980D01*
X143650023Y-106785500D01*
X143650024Y-106785500D01*
X143877976Y-106785500D01*
X143877977Y-106785500D01*
X144102823Y-106747980D01*
X144318426Y-106673963D01*
X144518906Y-106565469D01*
X144698794Y-106425456D01*
X144853183Y-106257745D01*
X144930191Y-106139874D01*
X144983337Y-106094518D01*
X145052568Y-106085094D01*
X145115904Y-106114596D01*
X145137809Y-106139875D01*
X145214814Y-106257742D01*
X145214817Y-106257745D01*
X145349580Y-106404137D01*
X145369208Y-106425458D01*
X145369212Y-106425461D01*
X145549094Y-106565469D01*
X145549096Y-106565470D01*
X145549099Y-106565472D01*
X145609731Y-106598284D01*
X145749574Y-106673963D01*
X145861529Y-106712397D01*
X145965173Y-106747979D01*
X145965175Y-106747979D01*
X145965177Y-106747980D01*
X146190023Y-106785500D01*
X146190024Y-106785500D01*
X146417976Y-106785500D01*
X146417977Y-106785500D01*
X146642823Y-106747980D01*
X146858426Y-106673963D01*
X147058906Y-106565469D01*
X147238794Y-106425456D01*
X147393183Y-106257745D01*
X147470191Y-106139874D01*
X147523337Y-106094518D01*
X147592568Y-106085094D01*
X147655904Y-106114596D01*
X147677809Y-106139875D01*
X147754814Y-106257742D01*
X147754817Y-106257745D01*
X147889580Y-106404137D01*
X147909208Y-106425458D01*
X147909212Y-106425461D01*
X148089094Y-106565469D01*
X148089096Y-106565470D01*
X148089099Y-106565472D01*
X148149731Y-106598284D01*
X148289574Y-106673963D01*
X148401529Y-106712397D01*
X148505173Y-106747979D01*
X148505175Y-106747979D01*
X148505177Y-106747980D01*
X148730023Y-106785500D01*
X148730024Y-106785500D01*
X148957976Y-106785500D01*
X148957977Y-106785500D01*
X149182823Y-106747980D01*
X149398426Y-106673963D01*
X149598906Y-106565469D01*
X149778794Y-106425456D01*
X149933183Y-106257745D01*
X150010191Y-106139874D01*
X150063337Y-106094518D01*
X150132568Y-106085094D01*
X150195904Y-106114596D01*
X150217809Y-106139875D01*
X150294814Y-106257742D01*
X150294817Y-106257745D01*
X150429580Y-106404137D01*
X150449208Y-106425458D01*
X150449212Y-106425461D01*
X150629094Y-106565469D01*
X150629096Y-106565470D01*
X150629099Y-106565472D01*
X150689731Y-106598284D01*
X150829574Y-106673963D01*
X150941529Y-106712397D01*
X151045173Y-106747979D01*
X151045175Y-106747979D01*
X151045177Y-106747980D01*
X151270023Y-106785500D01*
X151270024Y-106785500D01*
X151497976Y-106785500D01*
X151497977Y-106785500D01*
X151722823Y-106747980D01*
X151938426Y-106673963D01*
X152138906Y-106565469D01*
X152318794Y-106425456D01*
X152473183Y-106257745D01*
X152550191Y-106139874D01*
X152603337Y-106094518D01*
X152672568Y-106085094D01*
X152735904Y-106114596D01*
X152757809Y-106139875D01*
X152834814Y-106257742D01*
X152834817Y-106257745D01*
X152969580Y-106404137D01*
X152989208Y-106425458D01*
X152989212Y-106425461D01*
X153169094Y-106565469D01*
X153169096Y-106565470D01*
X153169099Y-106565472D01*
X153229731Y-106598284D01*
X153369574Y-106673963D01*
X153481529Y-106712397D01*
X153585173Y-106747979D01*
X153585175Y-106747979D01*
X153585177Y-106747980D01*
X153810023Y-106785500D01*
X153810024Y-106785500D01*
X154037976Y-106785500D01*
X154037977Y-106785500D01*
X154262823Y-106747980D01*
X154478426Y-106673963D01*
X154678906Y-106565469D01*
X154858794Y-106425456D01*
X155013183Y-106257745D01*
X155090191Y-106139874D01*
X155143337Y-106094518D01*
X155212568Y-106085094D01*
X155275904Y-106114596D01*
X155297809Y-106139875D01*
X155374814Y-106257742D01*
X155374817Y-106257745D01*
X155509580Y-106404137D01*
X155529208Y-106425458D01*
X155529212Y-106425461D01*
X155709094Y-106565469D01*
X155709096Y-106565470D01*
X155709099Y-106565472D01*
X155769731Y-106598284D01*
X155909574Y-106673963D01*
X156021529Y-106712397D01*
X156125173Y-106747979D01*
X156125175Y-106747979D01*
X156125177Y-106747980D01*
X156350023Y-106785500D01*
X156350024Y-106785500D01*
X156577976Y-106785500D01*
X156577977Y-106785500D01*
X156802823Y-106747980D01*
X157018426Y-106673963D01*
X157218906Y-106565469D01*
X157398794Y-106425456D01*
X157553183Y-106257745D01*
X157630191Y-106139874D01*
X157683337Y-106094518D01*
X157752568Y-106085094D01*
X157815904Y-106114596D01*
X157837809Y-106139875D01*
X157914814Y-106257742D01*
X157914817Y-106257745D01*
X158049580Y-106404137D01*
X158069208Y-106425458D01*
X158069212Y-106425461D01*
X158249094Y-106565469D01*
X158249096Y-106565470D01*
X158249099Y-106565472D01*
X158309731Y-106598284D01*
X158449574Y-106673963D01*
X158561529Y-106712397D01*
X158665173Y-106747979D01*
X158665175Y-106747979D01*
X158665177Y-106747980D01*
X158890023Y-106785500D01*
X158890024Y-106785500D01*
X159117976Y-106785500D01*
X159117977Y-106785500D01*
X159342823Y-106747980D01*
X159558426Y-106673963D01*
X159758906Y-106565469D01*
X159938794Y-106425456D01*
X160093183Y-106257745D01*
X160170191Y-106139874D01*
X160223337Y-106094518D01*
X160292568Y-106085094D01*
X160355904Y-106114596D01*
X160377809Y-106139875D01*
X160454814Y-106257742D01*
X160454817Y-106257745D01*
X160589580Y-106404137D01*
X160609208Y-106425458D01*
X160609212Y-106425461D01*
X160789094Y-106565469D01*
X160789096Y-106565470D01*
X160789099Y-106565472D01*
X160849731Y-106598284D01*
X160989574Y-106673963D01*
X161101529Y-106712397D01*
X161205173Y-106747979D01*
X161205175Y-106747979D01*
X161205177Y-106747980D01*
X161430023Y-106785500D01*
X161430024Y-106785500D01*
X161657976Y-106785500D01*
X161657977Y-106785500D01*
X161882823Y-106747980D01*
X162098426Y-106673963D01*
X162298906Y-106565469D01*
X162478794Y-106425456D01*
X162633183Y-106257745D01*
X162710191Y-106139874D01*
X162763337Y-106094518D01*
X162832568Y-106085094D01*
X162895904Y-106114596D01*
X162917809Y-106139875D01*
X162994814Y-106257742D01*
X162994817Y-106257745D01*
X163129580Y-106404137D01*
X163149208Y-106425458D01*
X163149212Y-106425461D01*
X163329094Y-106565469D01*
X163329096Y-106565470D01*
X163329099Y-106565472D01*
X163389731Y-106598284D01*
X163529574Y-106673963D01*
X163641529Y-106712397D01*
X163745173Y-106747979D01*
X163745175Y-106747979D01*
X163745177Y-106747980D01*
X163970023Y-106785500D01*
X163970024Y-106785500D01*
X164197976Y-106785500D01*
X164197977Y-106785500D01*
X164422823Y-106747980D01*
X164638426Y-106673963D01*
X164838906Y-106565469D01*
X165018794Y-106425456D01*
X165173183Y-106257745D01*
X165250191Y-106139874D01*
X165303337Y-106094518D01*
X165372568Y-106085094D01*
X165435904Y-106114596D01*
X165457809Y-106139875D01*
X165534814Y-106257742D01*
X165534817Y-106257745D01*
X165669580Y-106404137D01*
X165689208Y-106425458D01*
X165689212Y-106425461D01*
X165869094Y-106565469D01*
X165869096Y-106565470D01*
X165869099Y-106565472D01*
X165929731Y-106598284D01*
X166069574Y-106673963D01*
X166181529Y-106712397D01*
X166285173Y-106747979D01*
X166285175Y-106747979D01*
X166285177Y-106747980D01*
X166510023Y-106785500D01*
X166510024Y-106785500D01*
X166737976Y-106785500D01*
X166737977Y-106785500D01*
X166962823Y-106747980D01*
X167178426Y-106673963D01*
X167378906Y-106565469D01*
X167558794Y-106425456D01*
X167713183Y-106257745D01*
X167790191Y-106139874D01*
X167843337Y-106094518D01*
X167912568Y-106085094D01*
X167975904Y-106114596D01*
X167997809Y-106139875D01*
X168074814Y-106257742D01*
X168074817Y-106257745D01*
X168209580Y-106404137D01*
X168229208Y-106425458D01*
X168229212Y-106425461D01*
X168409094Y-106565469D01*
X168409096Y-106565470D01*
X168409099Y-106565472D01*
X168469731Y-106598284D01*
X168609574Y-106673963D01*
X168721529Y-106712397D01*
X168825173Y-106747979D01*
X168825175Y-106747979D01*
X168825177Y-106747980D01*
X169050023Y-106785500D01*
X169050024Y-106785500D01*
X169277976Y-106785500D01*
X169277977Y-106785500D01*
X169502823Y-106747980D01*
X169718426Y-106673963D01*
X169918906Y-106565469D01*
X170098794Y-106425456D01*
X170253183Y-106257745D01*
X170377862Y-106066909D01*
X170469430Y-105858155D01*
X170525390Y-105637176D01*
X170526966Y-105618157D01*
X170544214Y-105410006D01*
X170544214Y-105409993D01*
X170525391Y-105182831D01*
X170525389Y-105182820D01*
X170469430Y-104961844D01*
X170377862Y-104753091D01*
X170253185Y-104562257D01*
X170098791Y-104394541D01*
X170098787Y-104394538D01*
X169918909Y-104254533D01*
X169918900Y-104254527D01*
X169908789Y-104249056D01*
X169859197Y-104199838D01*
X169844087Y-104131621D01*
X169868257Y-104066065D01*
X169908789Y-104030944D01*
X169918900Y-104025472D01*
X169918906Y-104025469D01*
X170098794Y-103885456D01*
X170253183Y-103717745D01*
X170377862Y-103526909D01*
X170469430Y-103318155D01*
X170525390Y-103097176D01*
X170540823Y-102910930D01*
X170544214Y-102870006D01*
X170544214Y-102869993D01*
X170525391Y-102642831D01*
X170525389Y-102642820D01*
X170486436Y-102489000D01*
X192509422Y-102489000D01*
X192529722Y-102876338D01*
X192590398Y-103259433D01*
X192674845Y-103574596D01*
X192690788Y-103634094D01*
X192829787Y-103996197D01*
X193005877Y-104341793D01*
X193217122Y-104667082D01*
X193217124Y-104667084D01*
X193461219Y-104968516D01*
X193735484Y-105242781D01*
X193735488Y-105242784D01*
X194036917Y-105486877D01*
X194268362Y-105637179D01*
X194362211Y-105698125D01*
X194676288Y-105858155D01*
X194703996Y-105872273D01*
X194707806Y-105874214D01*
X195069913Y-106013214D01*
X195444567Y-106113602D01*
X195827662Y-106174278D01*
X196193576Y-106193455D01*
X196214999Y-106194578D01*
X196215000Y-106194578D01*
X196215001Y-106194578D01*
X196235301Y-106193514D01*
X196602338Y-106174278D01*
X196985433Y-106113602D01*
X197360087Y-106013214D01*
X197722194Y-105874214D01*
X198067789Y-105698125D01*
X198393084Y-105486876D01*
X198694516Y-105242781D01*
X198968781Y-104968516D01*
X199212876Y-104667084D01*
X199424125Y-104341789D01*
X199600214Y-103996194D01*
X199739214Y-103634087D01*
X199839602Y-103259433D01*
X199900278Y-102876338D01*
X199920578Y-102489000D01*
X199900278Y-102101662D01*
X199839602Y-101718567D01*
X199739214Y-101343913D01*
X199600214Y-100981806D01*
X199424125Y-100636211D01*
X199212876Y-100310916D01*
X198968781Y-100009484D01*
X198694516Y-99735219D01*
X198393084Y-99491124D01*
X198393082Y-99491122D01*
X198067793Y-99279877D01*
X197722197Y-99103787D01*
X197360094Y-98964788D01*
X197360087Y-98964786D01*
X196985433Y-98864398D01*
X196985429Y-98864397D01*
X196985428Y-98864397D01*
X196602339Y-98803722D01*
X196215001Y-98783422D01*
X196214999Y-98783422D01*
X195827660Y-98803722D01*
X195444572Y-98864397D01*
X195444570Y-98864397D01*
X195069905Y-98964788D01*
X194707802Y-99103787D01*
X194362206Y-99279877D01*
X194036917Y-99491122D01*
X193735488Y-99735215D01*
X193735480Y-99735222D01*
X193461222Y-100009480D01*
X193461215Y-100009488D01*
X193217122Y-100310917D01*
X193005877Y-100636206D01*
X192829787Y-100981802D01*
X192690788Y-101343905D01*
X192590397Y-101718570D01*
X192590397Y-101718572D01*
X192529722Y-102101660D01*
X192511916Y-102441405D01*
X192509422Y-102489000D01*
X170486436Y-102489000D01*
X170469430Y-102421844D01*
X170377862Y-102213091D01*
X170253185Y-102022257D01*
X170098791Y-101854541D01*
X170098787Y-101854538D01*
X169918909Y-101714533D01*
X169918900Y-101714527D01*
X169718432Y-101606040D01*
X169718429Y-101606039D01*
X169718426Y-101606037D01*
X169718420Y-101606035D01*
X169718418Y-101606034D01*
X169502826Y-101532020D01*
X169334188Y-101503880D01*
X169277977Y-101494500D01*
X169050023Y-101494500D01*
X169005053Y-101502004D01*
X168825173Y-101532020D01*
X168609581Y-101606034D01*
X168609567Y-101606040D01*
X168409099Y-101714527D01*
X168409090Y-101714533D01*
X168229212Y-101854538D01*
X168229208Y-101854541D01*
X168074817Y-102022255D01*
X167997809Y-102140125D01*
X167944662Y-102185481D01*
X167875431Y-102194905D01*
X167812095Y-102165403D01*
X167790191Y-102140125D01*
X167765062Y-102101662D01*
X167713183Y-102022255D01*
X167558794Y-101854544D01*
X167558793Y-101854543D01*
X167558791Y-101854541D01*
X167558787Y-101854538D01*
X167378909Y-101714533D01*
X167378900Y-101714527D01*
X167178432Y-101606040D01*
X167178429Y-101606039D01*
X167178426Y-101606037D01*
X167178420Y-101606035D01*
X167178418Y-101606034D01*
X166962826Y-101532020D01*
X166794188Y-101503880D01*
X166737977Y-101494500D01*
X166510023Y-101494500D01*
X166465053Y-101502004D01*
X166285173Y-101532020D01*
X166069581Y-101606034D01*
X166069567Y-101606040D01*
X165869099Y-101714527D01*
X165869090Y-101714533D01*
X165689212Y-101854538D01*
X165689208Y-101854541D01*
X165534817Y-102022255D01*
X165457809Y-102140125D01*
X165404662Y-102185481D01*
X165335431Y-102194905D01*
X165272095Y-102165403D01*
X165250191Y-102140125D01*
X165225062Y-102101662D01*
X165173183Y-102022255D01*
X165018794Y-101854544D01*
X165018793Y-101854543D01*
X165018791Y-101854541D01*
X165018787Y-101854538D01*
X164838909Y-101714533D01*
X164838900Y-101714527D01*
X164638432Y-101606040D01*
X164638429Y-101606039D01*
X164638426Y-101606037D01*
X164638420Y-101606035D01*
X164638418Y-101606034D01*
X164422826Y-101532020D01*
X164254188Y-101503880D01*
X164197977Y-101494500D01*
X163970023Y-101494500D01*
X163925053Y-101502004D01*
X163745173Y-101532020D01*
X163529581Y-101606034D01*
X163529567Y-101606040D01*
X163329099Y-101714527D01*
X163329090Y-101714533D01*
X163149212Y-101854538D01*
X163149208Y-101854541D01*
X162994817Y-102022255D01*
X162917809Y-102140125D01*
X162864662Y-102185481D01*
X162795431Y-102194905D01*
X162732095Y-102165403D01*
X162710191Y-102140125D01*
X162685062Y-102101662D01*
X162633183Y-102022255D01*
X162478794Y-101854544D01*
X162478793Y-101854543D01*
X162478791Y-101854541D01*
X162478787Y-101854538D01*
X162298909Y-101714533D01*
X162298900Y-101714527D01*
X162098432Y-101606040D01*
X162098429Y-101606039D01*
X162098426Y-101606037D01*
X162098420Y-101606035D01*
X162098418Y-101606034D01*
X161882826Y-101532020D01*
X161714188Y-101503880D01*
X161657977Y-101494500D01*
X161430023Y-101494500D01*
X161385053Y-101502004D01*
X161205173Y-101532020D01*
X160989581Y-101606034D01*
X160989567Y-101606040D01*
X160789099Y-101714527D01*
X160789090Y-101714533D01*
X160609212Y-101854538D01*
X160609208Y-101854541D01*
X160454817Y-102022255D01*
X160377809Y-102140125D01*
X160324662Y-102185481D01*
X160255431Y-102194905D01*
X160192095Y-102165403D01*
X160170191Y-102140125D01*
X160145062Y-102101662D01*
X160093183Y-102022255D01*
X159938794Y-101854544D01*
X159938793Y-101854543D01*
X159938791Y-101854541D01*
X159938787Y-101854538D01*
X159758909Y-101714533D01*
X159758900Y-101714527D01*
X159558432Y-101606040D01*
X159558429Y-101606039D01*
X159558426Y-101606037D01*
X159558420Y-101606035D01*
X159558418Y-101606034D01*
X159342826Y-101532020D01*
X159174188Y-101503880D01*
X159117977Y-101494500D01*
X158890023Y-101494500D01*
X158845053Y-101502004D01*
X158665173Y-101532020D01*
X158449581Y-101606034D01*
X158449567Y-101606040D01*
X158249099Y-101714527D01*
X158249090Y-101714533D01*
X158069212Y-101854538D01*
X158069208Y-101854541D01*
X157914817Y-102022255D01*
X157837809Y-102140125D01*
X157784662Y-102185481D01*
X157715431Y-102194905D01*
X157652095Y-102165403D01*
X157630191Y-102140125D01*
X157605062Y-102101662D01*
X157553183Y-102022255D01*
X157398794Y-101854544D01*
X157398793Y-101854543D01*
X157398791Y-101854541D01*
X157398787Y-101854538D01*
X157218909Y-101714533D01*
X157218900Y-101714527D01*
X157018432Y-101606040D01*
X157018429Y-101606039D01*
X157018426Y-101606037D01*
X157018420Y-101606035D01*
X157018418Y-101606034D01*
X156802826Y-101532020D01*
X156634188Y-101503880D01*
X156577977Y-101494500D01*
X156350023Y-101494500D01*
X156305053Y-101502004D01*
X156125173Y-101532020D01*
X155909581Y-101606034D01*
X155909567Y-101606040D01*
X155709099Y-101714527D01*
X155709090Y-101714533D01*
X155529212Y-101854538D01*
X155529208Y-101854541D01*
X155374817Y-102022255D01*
X155297809Y-102140125D01*
X155244662Y-102185481D01*
X155175431Y-102194905D01*
X155112095Y-102165403D01*
X155090191Y-102140125D01*
X155065062Y-102101662D01*
X155013183Y-102022255D01*
X154858794Y-101854544D01*
X154858793Y-101854543D01*
X154858791Y-101854541D01*
X154858787Y-101854538D01*
X154678909Y-101714533D01*
X154678900Y-101714527D01*
X154478432Y-101606040D01*
X154478429Y-101606039D01*
X154478426Y-101606037D01*
X154478420Y-101606035D01*
X154478418Y-101606034D01*
X154262826Y-101532020D01*
X154094188Y-101503880D01*
X154037977Y-101494500D01*
X153810023Y-101494500D01*
X153765053Y-101502004D01*
X153585173Y-101532020D01*
X153369581Y-101606034D01*
X153369567Y-101606040D01*
X153169099Y-101714527D01*
X153169090Y-101714533D01*
X152989212Y-101854538D01*
X152989208Y-101854541D01*
X152834817Y-102022255D01*
X152757809Y-102140125D01*
X152704662Y-102185481D01*
X152635431Y-102194905D01*
X152572095Y-102165403D01*
X152550191Y-102140125D01*
X152525062Y-102101662D01*
X152473183Y-102022255D01*
X152318794Y-101854544D01*
X152318793Y-101854543D01*
X152318791Y-101854541D01*
X152318787Y-101854538D01*
X152138909Y-101714533D01*
X152138900Y-101714527D01*
X151938432Y-101606040D01*
X151938429Y-101606039D01*
X151938426Y-101606037D01*
X151938420Y-101606035D01*
X151938418Y-101606034D01*
X151722826Y-101532020D01*
X151554188Y-101503880D01*
X151497977Y-101494500D01*
X151270023Y-101494500D01*
X151225053Y-101502004D01*
X151045173Y-101532020D01*
X150829581Y-101606034D01*
X150829567Y-101606040D01*
X150629099Y-101714527D01*
X150629090Y-101714533D01*
X150449212Y-101854538D01*
X150449208Y-101854541D01*
X150294817Y-102022255D01*
X150217809Y-102140125D01*
X150164662Y-102185481D01*
X150095431Y-102194905D01*
X150032095Y-102165403D01*
X150010191Y-102140125D01*
X149985062Y-102101662D01*
X149933183Y-102022255D01*
X149778794Y-101854544D01*
X149778793Y-101854543D01*
X149778791Y-101854541D01*
X149778787Y-101854538D01*
X149598909Y-101714533D01*
X149598900Y-101714527D01*
X149398432Y-101606040D01*
X149398429Y-101606039D01*
X149398426Y-101606037D01*
X149398420Y-101606035D01*
X149398418Y-101606034D01*
X149182826Y-101532020D01*
X149014188Y-101503880D01*
X148957977Y-101494500D01*
X148730023Y-101494500D01*
X148685053Y-101502004D01*
X148505173Y-101532020D01*
X148289581Y-101606034D01*
X148289567Y-101606040D01*
X148089099Y-101714527D01*
X148089090Y-101714533D01*
X147909212Y-101854538D01*
X147909208Y-101854541D01*
X147754817Y-102022255D01*
X147677809Y-102140125D01*
X147624662Y-102185481D01*
X147555431Y-102194905D01*
X147492095Y-102165403D01*
X147470191Y-102140125D01*
X147445062Y-102101662D01*
X147393183Y-102022255D01*
X147238794Y-101854544D01*
X147238793Y-101854543D01*
X147238791Y-101854541D01*
X147238787Y-101854538D01*
X147058909Y-101714533D01*
X147058900Y-101714527D01*
X146858432Y-101606040D01*
X146858429Y-101606039D01*
X146858426Y-101606037D01*
X146858420Y-101606035D01*
X146858418Y-101606034D01*
X146642826Y-101532020D01*
X146474188Y-101503880D01*
X146417977Y-101494500D01*
X146190023Y-101494500D01*
X146145053Y-101502004D01*
X145965173Y-101532020D01*
X145749581Y-101606034D01*
X145749567Y-101606040D01*
X145549099Y-101714527D01*
X145549090Y-101714533D01*
X145369212Y-101854538D01*
X145369208Y-101854541D01*
X145214817Y-102022255D01*
X145137809Y-102140125D01*
X145084662Y-102185481D01*
X145015431Y-102194905D01*
X144952095Y-102165403D01*
X144930191Y-102140125D01*
X144905062Y-102101662D01*
X144853183Y-102022255D01*
X144698794Y-101854544D01*
X144698793Y-101854543D01*
X144698791Y-101854541D01*
X144698787Y-101854538D01*
X144518909Y-101714533D01*
X144518900Y-101714527D01*
X144318432Y-101606040D01*
X144318429Y-101606039D01*
X144318426Y-101606037D01*
X144318420Y-101606035D01*
X144318418Y-101606034D01*
X144102826Y-101532020D01*
X143934188Y-101503880D01*
X143877977Y-101494500D01*
X143650023Y-101494500D01*
X143605053Y-101502004D01*
X143425173Y-101532020D01*
X143209581Y-101606034D01*
X143209567Y-101606040D01*
X143009099Y-101714527D01*
X143009090Y-101714533D01*
X142829212Y-101854538D01*
X142829208Y-101854541D01*
X142674817Y-102022255D01*
X142597809Y-102140125D01*
X142544662Y-102185481D01*
X142475431Y-102194905D01*
X142412095Y-102165403D01*
X142390191Y-102140125D01*
X142365062Y-102101662D01*
X142313183Y-102022255D01*
X142158794Y-101854544D01*
X142158793Y-101854543D01*
X142158791Y-101854541D01*
X142158787Y-101854538D01*
X141978909Y-101714533D01*
X141978900Y-101714527D01*
X141778432Y-101606040D01*
X141778429Y-101606039D01*
X141778426Y-101606037D01*
X141778420Y-101606035D01*
X141778418Y-101606034D01*
X141562826Y-101532020D01*
X141394188Y-101503880D01*
X141337977Y-101494500D01*
X141110023Y-101494500D01*
X141065053Y-101502004D01*
X140885173Y-101532020D01*
X140669581Y-101606034D01*
X140669567Y-101606040D01*
X140469099Y-101714527D01*
X140469090Y-101714533D01*
X140289212Y-101854538D01*
X140289208Y-101854541D01*
X140134817Y-102022255D01*
X140057809Y-102140125D01*
X140004662Y-102185481D01*
X139935431Y-102194905D01*
X139872095Y-102165403D01*
X139850191Y-102140125D01*
X139825062Y-102101662D01*
X139773183Y-102022255D01*
X139618794Y-101854544D01*
X139618793Y-101854543D01*
X139618791Y-101854541D01*
X139618787Y-101854538D01*
X139438909Y-101714533D01*
X139438900Y-101714527D01*
X139238432Y-101606040D01*
X139238429Y-101606039D01*
X139238426Y-101606037D01*
X139238420Y-101606035D01*
X139238418Y-101606034D01*
X139022826Y-101532020D01*
X138854188Y-101503880D01*
X138797977Y-101494500D01*
X138570023Y-101494500D01*
X138525053Y-101502004D01*
X138345173Y-101532020D01*
X138129581Y-101606034D01*
X138129567Y-101606040D01*
X137929099Y-101714527D01*
X137929090Y-101714533D01*
X137749212Y-101854538D01*
X137749208Y-101854541D01*
X137594817Y-102022255D01*
X137517809Y-102140125D01*
X137464662Y-102185481D01*
X137395431Y-102194905D01*
X137332095Y-102165403D01*
X137310191Y-102140125D01*
X137285062Y-102101662D01*
X137233183Y-102022255D01*
X137078794Y-101854544D01*
X137078793Y-101854543D01*
X137078791Y-101854541D01*
X137078787Y-101854538D01*
X136898909Y-101714533D01*
X136898900Y-101714527D01*
X136698432Y-101606040D01*
X136698429Y-101606039D01*
X136698426Y-101606037D01*
X136698420Y-101606035D01*
X136698418Y-101606034D01*
X136482826Y-101532020D01*
X136314188Y-101503880D01*
X136257977Y-101494500D01*
X136030023Y-101494500D01*
X135985053Y-101502004D01*
X135805173Y-101532020D01*
X135589581Y-101606034D01*
X135589567Y-101606040D01*
X135389099Y-101714527D01*
X135389090Y-101714533D01*
X135209212Y-101854538D01*
X135209208Y-101854541D01*
X135054817Y-102022255D01*
X134977809Y-102140125D01*
X134924662Y-102185481D01*
X134855431Y-102194905D01*
X134792095Y-102165403D01*
X134770191Y-102140125D01*
X134745062Y-102101662D01*
X134693183Y-102022255D01*
X134538794Y-101854544D01*
X134538793Y-101854543D01*
X134538791Y-101854541D01*
X134538787Y-101854538D01*
X134358909Y-101714533D01*
X134358900Y-101714527D01*
X134158432Y-101606040D01*
X134158429Y-101606039D01*
X134158426Y-101606037D01*
X134158420Y-101606035D01*
X134158418Y-101606034D01*
X133942826Y-101532020D01*
X133774188Y-101503880D01*
X133717977Y-101494500D01*
X133490023Y-101494500D01*
X133445053Y-101502004D01*
X133265173Y-101532020D01*
X133049581Y-101606034D01*
X133049567Y-101606040D01*
X132849099Y-101714527D01*
X132849090Y-101714533D01*
X132669212Y-101854538D01*
X132669208Y-101854541D01*
X132514814Y-102022257D01*
X132390137Y-102213091D01*
X132298569Y-102421844D01*
X132242610Y-102642820D01*
X132242608Y-102642831D01*
X132223786Y-102869993D01*
X110238611Y-102869993D01*
X110258578Y-102489000D01*
X110238278Y-102101662D01*
X110177602Y-101718567D01*
X110077214Y-101343913D01*
X109938214Y-100981806D01*
X109762125Y-100636211D01*
X109550876Y-100310916D01*
X109306781Y-100009484D01*
X109032516Y-99735219D01*
X108731084Y-99491124D01*
X108731082Y-99491122D01*
X108405793Y-99279877D01*
X108060197Y-99103787D01*
X107698094Y-98964788D01*
X107698087Y-98964786D01*
X107323433Y-98864398D01*
X107323429Y-98864397D01*
X107323428Y-98864397D01*
X106940339Y-98803722D01*
X106553001Y-98783422D01*
X106552999Y-98783422D01*
X106165660Y-98803722D01*
X105782572Y-98864397D01*
X105782570Y-98864397D01*
X105407905Y-98964788D01*
X105045802Y-99103787D01*
X104700206Y-99279877D01*
X104374917Y-99491122D01*
X104073488Y-99735215D01*
X104073480Y-99735222D01*
X103799222Y-100009480D01*
X103799215Y-100009488D01*
X103555122Y-100310917D01*
X103343877Y-100636206D01*
X103167787Y-100981802D01*
X103028788Y-101343905D01*
X102928397Y-101718570D01*
X102928397Y-101718572D01*
X102867722Y-102101660D01*
X102849916Y-102441405D01*
X102847422Y-102489000D01*
X101773559Y-102489000D01*
X101773500Y-102486293D01*
X101773500Y-90423996D01*
X152599685Y-90423996D01*
X152599685Y-90424003D01*
X152619880Y-90603249D01*
X152619881Y-90603254D01*
X152679461Y-90773523D01*
X152775434Y-90926262D01*
X152902988Y-91053816D01*
X153055728Y-91149789D01*
X153225995Y-91209368D01*
X153226000Y-91209369D01*
X153405246Y-91229565D01*
X153405250Y-91229565D01*
X153405254Y-91229565D01*
X153584499Y-91209369D01*
X153584502Y-91209368D01*
X153584505Y-91209368D01*
X153754772Y-91149789D01*
X153907512Y-91053816D01*
X154035066Y-90926262D01*
X154131039Y-90773522D01*
X154190618Y-90603255D01*
X154210815Y-90424000D01*
X154190618Y-90244745D01*
X154131039Y-90074478D01*
X154035066Y-89921738D01*
X153907512Y-89794184D01*
X153754773Y-89698211D01*
X153584504Y-89638631D01*
X153584499Y-89638630D01*
X153405254Y-89618435D01*
X153405246Y-89618435D01*
X153226000Y-89638630D01*
X153225995Y-89638631D01*
X153055726Y-89698211D01*
X152902987Y-89794184D01*
X152775434Y-89921737D01*
X152679461Y-90074476D01*
X152619881Y-90244745D01*
X152619880Y-90244750D01*
X152599685Y-90423996D01*
X101773500Y-90423996D01*
X101773500Y-87502996D01*
X161754435Y-87502996D01*
X161754435Y-87503003D01*
X161774630Y-87682249D01*
X161774631Y-87682254D01*
X161834211Y-87852523D01*
X161930184Y-88005262D01*
X162057738Y-88132816D01*
X162210478Y-88228789D01*
X162380745Y-88288368D01*
X162380750Y-88288369D01*
X162559996Y-88308565D01*
X162560000Y-88308565D01*
X162560004Y-88308565D01*
X162739249Y-88288369D01*
X162739252Y-88288368D01*
X162739255Y-88288368D01*
X162909522Y-88228789D01*
X163062262Y-88132816D01*
X163189816Y-88005262D01*
X163285789Y-87852522D01*
X163345368Y-87682255D01*
X163365565Y-87503000D01*
X163345368Y-87323745D01*
X163285789Y-87153478D01*
X163189816Y-87000738D01*
X163062262Y-86873184D01*
X162909523Y-86777211D01*
X162739254Y-86717631D01*
X162739249Y-86717630D01*
X162560004Y-86697435D01*
X162559996Y-86697435D01*
X162380750Y-86717630D01*
X162380745Y-86717631D01*
X162210476Y-86777211D01*
X162057737Y-86873184D01*
X161930184Y-87000737D01*
X161834211Y-87153476D01*
X161774631Y-87323745D01*
X161774630Y-87323750D01*
X161754435Y-87502996D01*
X101773500Y-87502996D01*
X101773500Y-85978996D01*
X144852685Y-85978996D01*
X144852685Y-85979003D01*
X144872880Y-86158249D01*
X144872881Y-86158254D01*
X144932461Y-86328523D01*
X145028434Y-86481262D01*
X145155988Y-86608816D01*
X145308728Y-86704789D01*
X145478995Y-86764368D01*
X145479000Y-86764369D01*
X145658246Y-86784565D01*
X145658250Y-86784565D01*
X145658254Y-86784565D01*
X145837499Y-86764369D01*
X145837502Y-86764368D01*
X145837505Y-86764368D01*
X146007772Y-86704789D01*
X146160512Y-86608816D01*
X146288066Y-86481262D01*
X146384039Y-86328522D01*
X146443618Y-86158255D01*
X146463815Y-85979000D01*
X146443618Y-85799745D01*
X146384039Y-85629478D01*
X146288066Y-85476738D01*
X146160512Y-85349184D01*
X146007773Y-85253211D01*
X145837504Y-85193631D01*
X145837499Y-85193630D01*
X145658254Y-85173435D01*
X145658246Y-85173435D01*
X145479000Y-85193630D01*
X145478995Y-85193631D01*
X145308726Y-85253211D01*
X145155987Y-85349184D01*
X145028434Y-85476737D01*
X144932461Y-85629476D01*
X144872881Y-85799745D01*
X144872880Y-85799750D01*
X144852685Y-85978996D01*
X101773500Y-85978996D01*
X101773500Y-66039993D01*
X102251786Y-66039993D01*
X102251786Y-66040006D01*
X102270608Y-66267168D01*
X102270610Y-66267179D01*
X102326569Y-66488155D01*
X102418137Y-66696908D01*
X102542814Y-66887742D01*
X102697208Y-67055458D01*
X102697212Y-67055461D01*
X102877094Y-67195469D01*
X102877096Y-67195470D01*
X102877099Y-67195472D01*
X102887214Y-67200946D01*
X102936804Y-67250166D01*
X102951911Y-67318382D01*
X102927740Y-67383938D01*
X102887214Y-67419054D01*
X102877099Y-67424527D01*
X102877090Y-67424533D01*
X102697212Y-67564538D01*
X102697208Y-67564541D01*
X102542814Y-67732257D01*
X102418137Y-67923091D01*
X102326569Y-68131844D01*
X102270610Y-68352820D01*
X102270608Y-68352831D01*
X102251786Y-68579993D01*
X102251786Y-68580006D01*
X102270608Y-68807168D01*
X102270610Y-68807179D01*
X102326569Y-69028155D01*
X102418137Y-69236908D01*
X102542814Y-69427742D01*
X102697208Y-69595458D01*
X102697212Y-69595461D01*
X102877094Y-69735469D01*
X102877096Y-69735470D01*
X102877099Y-69735472D01*
X102887214Y-69740946D01*
X102936804Y-69790166D01*
X102951911Y-69858382D01*
X102927740Y-69923938D01*
X102887214Y-69959054D01*
X102877099Y-69964527D01*
X102877090Y-69964533D01*
X102697212Y-70104538D01*
X102697208Y-70104541D01*
X102542814Y-70272257D01*
X102418137Y-70463091D01*
X102326569Y-70671844D01*
X102270610Y-70892820D01*
X102270608Y-70892831D01*
X102251786Y-71119993D01*
X102251786Y-71120006D01*
X102270608Y-71347168D01*
X102270610Y-71347179D01*
X102326569Y-71568155D01*
X102418137Y-71776908D01*
X102542814Y-71967742D01*
X102697208Y-72135458D01*
X102697212Y-72135461D01*
X102877094Y-72275469D01*
X102877096Y-72275470D01*
X102877099Y-72275472D01*
X102887214Y-72280946D01*
X102936804Y-72330166D01*
X102951911Y-72398382D01*
X102927740Y-72463938D01*
X102887214Y-72499054D01*
X102877099Y-72504527D01*
X102877090Y-72504533D01*
X102697212Y-72644538D01*
X102697208Y-72644541D01*
X102542814Y-72812257D01*
X102418137Y-73003091D01*
X102326569Y-73211844D01*
X102270610Y-73432820D01*
X102270608Y-73432831D01*
X102251786Y-73659993D01*
X102251786Y-73660006D01*
X102270608Y-73887168D01*
X102270610Y-73887179D01*
X102326569Y-74108155D01*
X102418137Y-74316908D01*
X102542814Y-74507742D01*
X102697208Y-74675458D01*
X102697212Y-74675461D01*
X102877094Y-74815469D01*
X102877096Y-74815470D01*
X102877099Y-74815472D01*
X102887214Y-74820946D01*
X102936804Y-74870166D01*
X102951911Y-74938382D01*
X102927740Y-75003938D01*
X102887214Y-75039054D01*
X102877099Y-75044527D01*
X102877090Y-75044533D01*
X102697212Y-75184538D01*
X102697208Y-75184541D01*
X102542814Y-75352257D01*
X102418137Y-75543091D01*
X102326569Y-75751844D01*
X102270610Y-75972820D01*
X102270608Y-75972831D01*
X102251786Y-76199993D01*
X102251786Y-76200006D01*
X102270608Y-76427168D01*
X102270610Y-76427179D01*
X102326569Y-76648155D01*
X102418137Y-76856908D01*
X102542814Y-77047742D01*
X102697208Y-77215458D01*
X102697212Y-77215461D01*
X102877094Y-77355469D01*
X102877096Y-77355470D01*
X102877099Y-77355472D01*
X102887214Y-77360946D01*
X102936804Y-77410166D01*
X102951911Y-77478382D01*
X102927740Y-77543938D01*
X102887214Y-77579054D01*
X102877099Y-77584527D01*
X102877090Y-77584533D01*
X102697212Y-77724538D01*
X102697208Y-77724541D01*
X102542814Y-77892257D01*
X102418137Y-78083091D01*
X102326569Y-78291844D01*
X102270610Y-78512820D01*
X102270608Y-78512831D01*
X102251786Y-78739993D01*
X102251786Y-78740006D01*
X102270608Y-78967168D01*
X102270610Y-78967179D01*
X102326569Y-79188155D01*
X102418137Y-79396908D01*
X102542814Y-79587742D01*
X102697208Y-79755458D01*
X102697212Y-79755461D01*
X102831051Y-79859632D01*
X102877094Y-79895469D01*
X102877096Y-79895470D01*
X102877099Y-79895472D01*
X102887214Y-79900946D01*
X102936804Y-79950166D01*
X102951911Y-80018382D01*
X102927740Y-80083938D01*
X102887214Y-80119054D01*
X102877099Y-80124527D01*
X102877090Y-80124533D01*
X102697212Y-80264538D01*
X102697208Y-80264541D01*
X102542814Y-80432257D01*
X102418137Y-80623091D01*
X102326569Y-80831844D01*
X102270610Y-81052820D01*
X102270608Y-81052831D01*
X102251786Y-81279993D01*
X102251786Y-81280006D01*
X102270608Y-81507168D01*
X102270610Y-81507179D01*
X102326569Y-81728155D01*
X102418137Y-81936908D01*
X102542814Y-82127742D01*
X102697208Y-82295458D01*
X102697212Y-82295461D01*
X102877094Y-82435469D01*
X102877096Y-82435470D01*
X102877099Y-82435472D01*
X102887214Y-82440946D01*
X102936804Y-82490166D01*
X102951911Y-82558382D01*
X102927740Y-82623938D01*
X102887214Y-82659054D01*
X102877099Y-82664527D01*
X102877090Y-82664533D01*
X102697212Y-82804538D01*
X102697208Y-82804541D01*
X102542814Y-82972257D01*
X102418137Y-83163091D01*
X102326569Y-83371844D01*
X102270610Y-83592820D01*
X102270608Y-83592831D01*
X102251786Y-83819993D01*
X102251786Y-83820006D01*
X102270608Y-84047168D01*
X102270610Y-84047179D01*
X102326569Y-84268155D01*
X102418137Y-84476908D01*
X102542814Y-84667742D01*
X102697208Y-84835458D01*
X102697212Y-84835461D01*
X102877094Y-84975469D01*
X102877096Y-84975470D01*
X102877099Y-84975472D01*
X102993646Y-85038543D01*
X103077574Y-85083963D01*
X103189529Y-85122397D01*
X103293173Y-85157979D01*
X103293175Y-85157979D01*
X103293177Y-85157980D01*
X103518023Y-85195500D01*
X103518024Y-85195500D01*
X103745976Y-85195500D01*
X103745977Y-85195500D01*
X103970823Y-85157980D01*
X104186426Y-85083963D01*
X104386906Y-84975469D01*
X104566794Y-84835456D01*
X104721183Y-84667745D01*
X104845862Y-84476909D01*
X104937430Y-84268155D01*
X104993390Y-84047176D01*
X105012214Y-83820000D01*
X105012214Y-83819993D01*
X104993391Y-83592831D01*
X104993389Y-83592820D01*
X104937430Y-83371844D01*
X104845862Y-83163091D01*
X104721185Y-82972257D01*
X104566791Y-82804541D01*
X104566787Y-82804538D01*
X104386909Y-82664533D01*
X104386900Y-82664527D01*
X104376789Y-82659056D01*
X104327197Y-82609838D01*
X104312087Y-82541621D01*
X104336257Y-82476065D01*
X104376789Y-82440944D01*
X104386900Y-82435472D01*
X104386906Y-82435469D01*
X104566794Y-82295456D01*
X104721183Y-82127745D01*
X104845862Y-81936909D01*
X104937430Y-81728155D01*
X104993390Y-81507176D01*
X104998081Y-81450565D01*
X105012214Y-81280006D01*
X105012214Y-81279993D01*
X104993391Y-81052831D01*
X104993389Y-81052820D01*
X104937430Y-80831844D01*
X104855470Y-80644996D01*
X136862435Y-80644996D01*
X136862435Y-80645003D01*
X136882630Y-80824249D01*
X136882631Y-80824254D01*
X136942211Y-80994523D01*
X137038184Y-81147262D01*
X137165738Y-81274816D01*
X137318478Y-81370789D01*
X137488745Y-81430368D01*
X137488750Y-81430369D01*
X137667996Y-81450565D01*
X137668000Y-81450565D01*
X137668004Y-81450565D01*
X137847249Y-81430369D01*
X137847252Y-81430368D01*
X137847255Y-81430368D01*
X138017522Y-81370789D01*
X138170262Y-81274816D01*
X138297816Y-81147262D01*
X138393789Y-80994522D01*
X138453368Y-80824255D01*
X138453369Y-80824249D01*
X138473565Y-80645003D01*
X138473565Y-80644996D01*
X138453369Y-80465750D01*
X138453368Y-80465745D01*
X138427215Y-80391003D01*
X138427213Y-80390996D01*
X160230435Y-80390996D01*
X160230435Y-80391003D01*
X160250630Y-80570249D01*
X160250631Y-80570254D01*
X160310211Y-80740523D01*
X160362820Y-80824249D01*
X160406184Y-80893262D01*
X160533738Y-81020816D01*
X160686478Y-81116789D01*
X160773565Y-81147262D01*
X160856745Y-81176368D01*
X160856750Y-81176369D01*
X161035996Y-81196565D01*
X161036000Y-81196565D01*
X161036004Y-81196565D01*
X161215249Y-81176369D01*
X161215252Y-81176368D01*
X161215255Y-81176368D01*
X161385522Y-81116789D01*
X161538262Y-81020816D01*
X161665816Y-80893262D01*
X161761789Y-80740522D01*
X161821368Y-80570255D01*
X161833143Y-80465750D01*
X161841565Y-80391003D01*
X161841565Y-80390996D01*
X161821369Y-80211750D01*
X161821368Y-80211745D01*
X161790851Y-80124533D01*
X161761789Y-80041478D01*
X161745267Y-80015184D01*
X161704414Y-79950166D01*
X161665816Y-79888738D01*
X161538262Y-79761184D01*
X161529146Y-79755456D01*
X161385523Y-79665211D01*
X161215254Y-79605631D01*
X161215249Y-79605630D01*
X161036004Y-79585435D01*
X161035996Y-79585435D01*
X160856750Y-79605630D01*
X160856745Y-79605631D01*
X160686476Y-79665211D01*
X160533737Y-79761184D01*
X160406184Y-79888737D01*
X160310211Y-80041476D01*
X160250631Y-80211745D01*
X160250630Y-80211750D01*
X160230435Y-80390996D01*
X138427213Y-80390996D01*
X138393789Y-80295478D01*
X138297816Y-80142738D01*
X138170262Y-80015184D01*
X138066787Y-79950166D01*
X138017523Y-79919211D01*
X137847254Y-79859631D01*
X137847249Y-79859630D01*
X137668004Y-79839435D01*
X137667996Y-79839435D01*
X137488750Y-79859630D01*
X137488745Y-79859631D01*
X137318476Y-79919211D01*
X137165737Y-80015184D01*
X137038184Y-80142737D01*
X136942211Y-80295476D01*
X136882631Y-80465745D01*
X136882630Y-80465750D01*
X136862435Y-80644996D01*
X104855470Y-80644996D01*
X104845862Y-80623091D01*
X104721185Y-80432257D01*
X104566791Y-80264541D01*
X104566787Y-80264538D01*
X104386909Y-80124533D01*
X104386900Y-80124527D01*
X104376789Y-80119056D01*
X104327197Y-80069838D01*
X104312087Y-80001621D01*
X104336257Y-79936065D01*
X104376789Y-79900944D01*
X104386900Y-79895472D01*
X104386906Y-79895469D01*
X104566794Y-79755456D01*
X104721183Y-79587745D01*
X104845862Y-79396909D01*
X104937430Y-79188155D01*
X104993390Y-78967176D01*
X104993776Y-78962522D01*
X105012214Y-78740006D01*
X105012214Y-78739993D01*
X105001691Y-78612996D01*
X137243435Y-78612996D01*
X137243435Y-78613003D01*
X137263630Y-78792249D01*
X137263631Y-78792254D01*
X137323211Y-78962523D01*
X137326130Y-78967168D01*
X137419184Y-79115262D01*
X137546738Y-79242816D01*
X137699478Y-79338789D01*
X137786565Y-79369262D01*
X137869745Y-79398368D01*
X137869750Y-79398369D01*
X138048996Y-79418565D01*
X138049000Y-79418565D01*
X138049004Y-79418565D01*
X138228249Y-79398369D01*
X138228252Y-79398368D01*
X138228255Y-79398368D01*
X138398522Y-79338789D01*
X138551262Y-79242816D01*
X138678816Y-79115262D01*
X138774789Y-78962522D01*
X138808215Y-78866996D01*
X149816435Y-78866996D01*
X149816435Y-78867003D01*
X149836630Y-79046249D01*
X149836631Y-79046254D01*
X149896211Y-79216523D01*
X149992184Y-79369262D01*
X150119738Y-79496816D01*
X150210080Y-79553582D01*
X150264450Y-79587745D01*
X150272478Y-79592789D01*
X150442745Y-79652368D01*
X150442750Y-79652369D01*
X150621996Y-79672565D01*
X150622000Y-79672565D01*
X150622004Y-79672565D01*
X150801249Y-79652369D01*
X150801252Y-79652368D01*
X150801255Y-79652368D01*
X150971522Y-79592789D01*
X151124262Y-79496816D01*
X151251816Y-79369262D01*
X151347789Y-79216522D01*
X151407368Y-79046255D01*
X151416279Y-78967168D01*
X151427565Y-78867003D01*
X151427565Y-78866996D01*
X151407369Y-78687750D01*
X151407368Y-78687745D01*
X151381215Y-78613003D01*
X151347789Y-78517478D01*
X151251816Y-78364738D01*
X151124262Y-78237184D01*
X150971523Y-78141211D01*
X150801254Y-78081631D01*
X150801249Y-78081630D01*
X150622004Y-78061435D01*
X150621996Y-78061435D01*
X150442750Y-78081630D01*
X150442745Y-78081631D01*
X150272476Y-78141211D01*
X150119737Y-78237184D01*
X149992184Y-78364737D01*
X149896211Y-78517476D01*
X149836631Y-78687745D01*
X149836630Y-78687750D01*
X149816435Y-78866996D01*
X138808215Y-78866996D01*
X138834368Y-78792255D01*
X138840256Y-78740000D01*
X138854565Y-78613003D01*
X138854565Y-78612996D01*
X138834369Y-78433750D01*
X138834368Y-78433745D01*
X138784715Y-78291845D01*
X138774789Y-78263478D01*
X138758267Y-78237184D01*
X138678815Y-78110737D01*
X138551262Y-77983184D01*
X138398523Y-77887211D01*
X138228254Y-77827631D01*
X138228249Y-77827630D01*
X138049004Y-77807435D01*
X138048996Y-77807435D01*
X137869750Y-77827630D01*
X137869745Y-77827631D01*
X137699476Y-77887211D01*
X137546737Y-77983184D01*
X137419184Y-78110737D01*
X137323211Y-78263476D01*
X137263631Y-78433745D01*
X137263630Y-78433750D01*
X137243435Y-78612996D01*
X105001691Y-78612996D01*
X104993391Y-78512831D01*
X104993389Y-78512820D01*
X104937430Y-78291844D01*
X104845862Y-78083091D01*
X104721185Y-77892257D01*
X104566791Y-77724541D01*
X104566787Y-77724538D01*
X104386909Y-77584533D01*
X104386900Y-77584527D01*
X104376789Y-77579056D01*
X104327197Y-77529838D01*
X104312087Y-77461621D01*
X104336257Y-77396065D01*
X104376789Y-77360944D01*
X104386900Y-77355472D01*
X104386906Y-77355469D01*
X104566794Y-77215456D01*
X104721183Y-77047745D01*
X104845862Y-76856909D01*
X104937430Y-76648155D01*
X104993390Y-76427176D01*
X105012214Y-76200000D01*
X105012214Y-76199993D01*
X104993391Y-75972831D01*
X104993389Y-75972820D01*
X104937430Y-75751844D01*
X104845862Y-75543091D01*
X104721185Y-75352257D01*
X104566791Y-75184541D01*
X104566787Y-75184538D01*
X104386909Y-75044533D01*
X104386900Y-75044527D01*
X104376789Y-75039056D01*
X104327197Y-74989838D01*
X104312087Y-74921621D01*
X104336257Y-74856065D01*
X104376789Y-74820944D01*
X104386900Y-74815472D01*
X104386906Y-74815469D01*
X104566794Y-74675456D01*
X104721183Y-74507745D01*
X104845862Y-74316909D01*
X104937430Y-74108155D01*
X104993390Y-73887176D01*
X105012214Y-73660000D01*
X105012214Y-73659993D01*
X104993391Y-73432831D01*
X104993389Y-73432820D01*
X104937430Y-73211844D01*
X104845862Y-73003091D01*
X104721185Y-72812257D01*
X104566791Y-72644541D01*
X104566787Y-72644538D01*
X104386909Y-72504533D01*
X104386900Y-72504527D01*
X104376789Y-72499056D01*
X104327197Y-72449838D01*
X104312087Y-72381621D01*
X104336257Y-72316065D01*
X104376789Y-72280944D01*
X104386900Y-72275472D01*
X104386906Y-72275469D01*
X104566794Y-72135456D01*
X104721183Y-71967745D01*
X104845862Y-71776909D01*
X104937430Y-71568155D01*
X104954437Y-71500996D01*
X160230435Y-71500996D01*
X160230435Y-71501003D01*
X160250630Y-71680249D01*
X160250631Y-71680254D01*
X160310211Y-71850523D01*
X160383865Y-71967742D01*
X160406184Y-72003262D01*
X160533738Y-72130816D01*
X160686478Y-72226789D01*
X160825606Y-72275472D01*
X160856745Y-72286368D01*
X160856750Y-72286369D01*
X161035996Y-72306565D01*
X161036000Y-72306565D01*
X161036004Y-72306565D01*
X161215249Y-72286369D01*
X161215252Y-72286368D01*
X161215255Y-72286368D01*
X161385522Y-72226789D01*
X161538262Y-72130816D01*
X161665816Y-72003262D01*
X161761789Y-71850522D01*
X161821368Y-71680255D01*
X161841565Y-71501000D01*
X161824233Y-71347176D01*
X161821369Y-71321750D01*
X161821368Y-71321745D01*
X161761788Y-71151476D01*
X161665815Y-70998737D01*
X161538262Y-70871184D01*
X161385523Y-70775211D01*
X161215254Y-70715631D01*
X161215249Y-70715630D01*
X161036004Y-70695435D01*
X161035996Y-70695435D01*
X160856750Y-70715630D01*
X160856745Y-70715631D01*
X160686476Y-70775211D01*
X160533737Y-70871184D01*
X160406184Y-70998737D01*
X160310211Y-71151476D01*
X160250631Y-71321745D01*
X160250630Y-71321750D01*
X160230435Y-71500996D01*
X104954437Y-71500996D01*
X104993390Y-71347176D01*
X104995497Y-71321750D01*
X105012214Y-71120006D01*
X105012214Y-71119993D01*
X104993391Y-70892831D01*
X104993389Y-70892820D01*
X104937430Y-70671844D01*
X104845862Y-70463091D01*
X104721185Y-70272257D01*
X104566791Y-70104541D01*
X104566787Y-70104538D01*
X104386909Y-69964533D01*
X104386900Y-69964527D01*
X104376789Y-69959056D01*
X104327197Y-69909838D01*
X104312087Y-69841621D01*
X104336257Y-69776065D01*
X104376789Y-69740944D01*
X104386900Y-69735472D01*
X104386906Y-69735469D01*
X104566794Y-69595456D01*
X104721183Y-69427745D01*
X104845862Y-69236909D01*
X104855474Y-69214996D01*
X135465435Y-69214996D01*
X135465435Y-69215003D01*
X135485630Y-69394249D01*
X135485631Y-69394254D01*
X135545211Y-69564523D01*
X135641184Y-69717262D01*
X135768738Y-69844816D01*
X135921478Y-69940789D01*
X136091745Y-70000368D01*
X136091750Y-70000369D01*
X136270996Y-70020565D01*
X136271000Y-70020565D01*
X136271004Y-70020565D01*
X136450249Y-70000369D01*
X136450252Y-70000368D01*
X136450255Y-70000368D01*
X136620522Y-69940789D01*
X136773262Y-69844816D01*
X136900816Y-69717262D01*
X136996789Y-69564522D01*
X137056368Y-69394255D01*
X137056369Y-69394249D01*
X137076565Y-69215003D01*
X137076565Y-69214996D01*
X137056369Y-69035750D01*
X137056368Y-69035745D01*
X137030215Y-68961003D01*
X137030213Y-68960996D01*
X156547435Y-68960996D01*
X156547435Y-68961003D01*
X156567630Y-69140249D01*
X156567631Y-69140254D01*
X156627211Y-69310523D01*
X156679820Y-69394249D01*
X156723184Y-69463262D01*
X156850738Y-69590816D01*
X157003478Y-69686789D01*
X157142606Y-69735472D01*
X157173745Y-69746368D01*
X157173750Y-69746369D01*
X157352996Y-69766565D01*
X157353000Y-69766565D01*
X157353004Y-69766565D01*
X157532249Y-69746369D01*
X157532252Y-69746368D01*
X157532255Y-69746368D01*
X157702522Y-69686789D01*
X157855262Y-69590816D01*
X157982816Y-69463262D01*
X158078789Y-69310522D01*
X158138368Y-69140255D01*
X158150143Y-69035750D01*
X158158565Y-68961003D01*
X158158565Y-68960996D01*
X158138369Y-68781750D01*
X158138368Y-68781745D01*
X158078788Y-68611476D01*
X157982815Y-68458737D01*
X157855262Y-68331184D01*
X157702523Y-68235211D01*
X157532254Y-68175631D01*
X157532249Y-68175630D01*
X157353004Y-68155435D01*
X157352996Y-68155435D01*
X157173750Y-68175630D01*
X157173745Y-68175631D01*
X157003476Y-68235211D01*
X156850737Y-68331184D01*
X156723184Y-68458737D01*
X156627211Y-68611476D01*
X156567631Y-68781745D01*
X156567630Y-68781750D01*
X156547435Y-68960996D01*
X137030213Y-68960996D01*
X136996789Y-68865478D01*
X136900816Y-68712738D01*
X136773262Y-68585184D01*
X136765001Y-68579993D01*
X136620523Y-68489211D01*
X136450254Y-68429631D01*
X136450249Y-68429630D01*
X136271004Y-68409435D01*
X136270996Y-68409435D01*
X136091750Y-68429630D01*
X136091745Y-68429631D01*
X135921476Y-68489211D01*
X135768737Y-68585184D01*
X135641184Y-68712737D01*
X135545211Y-68865476D01*
X135485631Y-69035745D01*
X135485630Y-69035750D01*
X135465435Y-69214996D01*
X104855474Y-69214996D01*
X104937430Y-69028155D01*
X104993390Y-68807176D01*
X104995497Y-68781750D01*
X105012214Y-68580006D01*
X105012214Y-68579993D01*
X104993391Y-68352831D01*
X104993389Y-68352820D01*
X104937430Y-68131844D01*
X104845862Y-67923091D01*
X104721185Y-67732257D01*
X104566791Y-67564541D01*
X104566787Y-67564538D01*
X104386909Y-67424533D01*
X104386900Y-67424527D01*
X104376789Y-67419056D01*
X104327197Y-67369838D01*
X104312087Y-67301621D01*
X104336257Y-67236065D01*
X104376789Y-67200944D01*
X104386900Y-67195472D01*
X104386906Y-67195469D01*
X104566794Y-67055456D01*
X104721183Y-66887745D01*
X104845862Y-66696909D01*
X104937430Y-66488155D01*
X104993390Y-66267176D01*
X105012214Y-66040000D01*
X105012214Y-66039993D01*
X104993391Y-65812831D01*
X104993389Y-65812820D01*
X104986596Y-65785996D01*
X146768435Y-65785996D01*
X146768435Y-65786003D01*
X146788630Y-65965249D01*
X146788631Y-65965254D01*
X146848211Y-66135523D01*
X146930930Y-66267168D01*
X146944184Y-66288262D01*
X147071738Y-66415816D01*
X147224478Y-66511789D01*
X147394745Y-66571368D01*
X147394750Y-66571369D01*
X147573996Y-66591565D01*
X147574000Y-66591565D01*
X147574004Y-66591565D01*
X147753249Y-66571369D01*
X147753252Y-66571368D01*
X147753255Y-66571368D01*
X147923522Y-66511789D01*
X148076262Y-66415816D01*
X148203816Y-66288262D01*
X148299789Y-66135522D01*
X148333216Y-66039993D01*
X197755786Y-66039993D01*
X197755786Y-66040006D01*
X197774608Y-66267168D01*
X197774610Y-66267179D01*
X197830569Y-66488155D01*
X197922137Y-66696908D01*
X198046814Y-66887742D01*
X198201208Y-67055458D01*
X198201212Y-67055461D01*
X198381094Y-67195469D01*
X198381096Y-67195470D01*
X198381099Y-67195472D01*
X198391214Y-67200946D01*
X198440804Y-67250166D01*
X198455911Y-67318382D01*
X198431740Y-67383938D01*
X198391214Y-67419054D01*
X198381099Y-67424527D01*
X198381090Y-67424533D01*
X198201212Y-67564538D01*
X198201208Y-67564541D01*
X198046814Y-67732257D01*
X197922137Y-67923091D01*
X197830569Y-68131844D01*
X197774610Y-68352820D01*
X197774608Y-68352831D01*
X197755786Y-68579993D01*
X197755786Y-68580006D01*
X197774608Y-68807168D01*
X197774610Y-68807179D01*
X197830569Y-69028155D01*
X197922137Y-69236908D01*
X198046814Y-69427742D01*
X198201208Y-69595458D01*
X198201212Y-69595461D01*
X198381094Y-69735469D01*
X198381096Y-69735470D01*
X198381099Y-69735472D01*
X198391214Y-69740946D01*
X198440804Y-69790166D01*
X198455911Y-69858382D01*
X198431740Y-69923938D01*
X198391214Y-69959054D01*
X198381099Y-69964527D01*
X198381090Y-69964533D01*
X198201212Y-70104538D01*
X198201208Y-70104541D01*
X198046814Y-70272257D01*
X197922137Y-70463091D01*
X197830569Y-70671844D01*
X197774610Y-70892820D01*
X197774608Y-70892831D01*
X197755786Y-71119993D01*
X197755786Y-71120006D01*
X197774608Y-71347168D01*
X197774610Y-71347179D01*
X197830569Y-71568155D01*
X197922137Y-71776908D01*
X198046814Y-71967742D01*
X198201208Y-72135458D01*
X198201212Y-72135461D01*
X198381094Y-72275469D01*
X198381096Y-72275470D01*
X198381099Y-72275472D01*
X198391214Y-72280946D01*
X198440804Y-72330166D01*
X198455911Y-72398382D01*
X198431740Y-72463938D01*
X198391214Y-72499054D01*
X198381099Y-72504527D01*
X198381090Y-72504533D01*
X198201212Y-72644538D01*
X198201208Y-72644541D01*
X198046814Y-72812257D01*
X197922137Y-73003091D01*
X197830569Y-73211844D01*
X197774610Y-73432820D01*
X197774608Y-73432831D01*
X197755786Y-73659993D01*
X197755786Y-73660006D01*
X197774608Y-73887168D01*
X197774610Y-73887179D01*
X197830569Y-74108155D01*
X197922137Y-74316908D01*
X198046814Y-74507742D01*
X198201208Y-74675458D01*
X198201212Y-74675461D01*
X198381094Y-74815469D01*
X198381096Y-74815470D01*
X198381099Y-74815472D01*
X198391214Y-74820946D01*
X198440804Y-74870166D01*
X198455911Y-74938382D01*
X198431740Y-75003938D01*
X198391214Y-75039054D01*
X198381099Y-75044527D01*
X198381090Y-75044533D01*
X198201212Y-75184538D01*
X198201208Y-75184541D01*
X198046814Y-75352257D01*
X197922137Y-75543091D01*
X197830569Y-75751844D01*
X197774610Y-75972820D01*
X197774608Y-75972831D01*
X197755786Y-76199993D01*
X197755786Y-76200006D01*
X197774608Y-76427168D01*
X197774610Y-76427179D01*
X197830569Y-76648155D01*
X197922137Y-76856908D01*
X198046814Y-77047742D01*
X198201208Y-77215458D01*
X198201212Y-77215461D01*
X198381094Y-77355469D01*
X198381096Y-77355470D01*
X198381099Y-77355472D01*
X198391214Y-77360946D01*
X198440804Y-77410166D01*
X198455911Y-77478382D01*
X198431740Y-77543938D01*
X198391214Y-77579054D01*
X198381099Y-77584527D01*
X198381090Y-77584533D01*
X198201212Y-77724538D01*
X198201208Y-77724541D01*
X198046814Y-77892257D01*
X197922137Y-78083091D01*
X197830569Y-78291844D01*
X197774610Y-78512820D01*
X197774608Y-78512831D01*
X197755786Y-78739993D01*
X197755786Y-78740006D01*
X197774608Y-78967168D01*
X197774610Y-78967179D01*
X197830569Y-79188155D01*
X197922137Y-79396908D01*
X198046814Y-79587742D01*
X198201208Y-79755458D01*
X198201212Y-79755461D01*
X198335051Y-79859632D01*
X198381094Y-79895469D01*
X198381096Y-79895470D01*
X198381099Y-79895472D01*
X198391214Y-79900946D01*
X198440804Y-79950166D01*
X198455911Y-80018382D01*
X198431740Y-80083938D01*
X198391214Y-80119054D01*
X198381099Y-80124527D01*
X198381090Y-80124533D01*
X198201212Y-80264538D01*
X198201208Y-80264541D01*
X198046814Y-80432257D01*
X197922137Y-80623091D01*
X197830569Y-80831844D01*
X197774610Y-81052820D01*
X197774608Y-81052831D01*
X197755786Y-81279993D01*
X197755786Y-81280006D01*
X197774608Y-81507168D01*
X197774610Y-81507179D01*
X197830569Y-81728155D01*
X197922137Y-81936908D01*
X198046814Y-82127742D01*
X198201208Y-82295458D01*
X198201212Y-82295461D01*
X198381094Y-82435469D01*
X198381096Y-82435470D01*
X198381099Y-82435472D01*
X198391214Y-82440946D01*
X198440804Y-82490166D01*
X198455911Y-82558382D01*
X198431740Y-82623938D01*
X198391214Y-82659054D01*
X198381099Y-82664527D01*
X198381090Y-82664533D01*
X198201212Y-82804538D01*
X198201208Y-82804541D01*
X198046814Y-82972257D01*
X197922137Y-83163091D01*
X197830569Y-83371844D01*
X197774610Y-83592820D01*
X197774608Y-83592831D01*
X197755786Y-83819993D01*
X197755786Y-83820006D01*
X197774608Y-84047168D01*
X197774610Y-84047179D01*
X197830569Y-84268155D01*
X197922137Y-84476908D01*
X198046814Y-84667742D01*
X198201208Y-84835458D01*
X198201212Y-84835461D01*
X198381094Y-84975469D01*
X198381096Y-84975470D01*
X198381099Y-84975472D01*
X198497646Y-85038543D01*
X198581574Y-85083963D01*
X198693529Y-85122397D01*
X198797173Y-85157979D01*
X198797175Y-85157979D01*
X198797177Y-85157980D01*
X199022023Y-85195500D01*
X199022024Y-85195500D01*
X199249976Y-85195500D01*
X199249977Y-85195500D01*
X199474823Y-85157980D01*
X199690426Y-85083963D01*
X199890906Y-84975469D01*
X200070794Y-84835456D01*
X200225183Y-84667745D01*
X200349862Y-84476909D01*
X200441430Y-84268155D01*
X200497390Y-84047176D01*
X200516214Y-83820000D01*
X200516214Y-83819993D01*
X200497391Y-83592831D01*
X200497389Y-83592820D01*
X200441430Y-83371844D01*
X200349862Y-83163091D01*
X200225185Y-82972257D01*
X200070791Y-82804541D01*
X200070787Y-82804538D01*
X199890909Y-82664533D01*
X199890900Y-82664527D01*
X199880789Y-82659056D01*
X199831197Y-82609838D01*
X199816087Y-82541621D01*
X199840257Y-82476065D01*
X199880789Y-82440944D01*
X199890900Y-82435472D01*
X199890906Y-82435469D01*
X200070794Y-82295456D01*
X200225183Y-82127745D01*
X200349862Y-81936909D01*
X200441430Y-81728155D01*
X200497390Y-81507176D01*
X200502081Y-81450565D01*
X200516214Y-81280006D01*
X200516214Y-81279993D01*
X200497391Y-81052831D01*
X200497389Y-81052820D01*
X200441430Y-80831844D01*
X200349862Y-80623091D01*
X200225185Y-80432257D01*
X200070791Y-80264541D01*
X200070787Y-80264538D01*
X199890909Y-80124533D01*
X199890900Y-80124527D01*
X199880789Y-80119056D01*
X199831197Y-80069838D01*
X199816087Y-80001621D01*
X199840257Y-79936065D01*
X199880789Y-79900944D01*
X199890900Y-79895472D01*
X199890906Y-79895469D01*
X200070794Y-79755456D01*
X200225183Y-79587745D01*
X200349862Y-79396909D01*
X200441430Y-79188155D01*
X200497390Y-78967176D01*
X200497776Y-78962522D01*
X200516214Y-78740006D01*
X200516214Y-78739993D01*
X200497391Y-78512831D01*
X200497389Y-78512820D01*
X200441430Y-78291844D01*
X200349862Y-78083091D01*
X200225185Y-77892257D01*
X200070791Y-77724541D01*
X200070787Y-77724538D01*
X199890909Y-77584533D01*
X199890900Y-77584527D01*
X199880789Y-77579056D01*
X199831197Y-77529838D01*
X199816087Y-77461621D01*
X199840257Y-77396065D01*
X199880789Y-77360944D01*
X199890900Y-77355472D01*
X199890906Y-77355469D01*
X200070794Y-77215456D01*
X200225183Y-77047745D01*
X200349862Y-76856909D01*
X200441430Y-76648155D01*
X200497390Y-76427176D01*
X200516214Y-76200000D01*
X200516214Y-76199993D01*
X200497391Y-75972831D01*
X200497389Y-75972820D01*
X200441430Y-75751844D01*
X200349862Y-75543091D01*
X200225185Y-75352257D01*
X200070791Y-75184541D01*
X200070787Y-75184538D01*
X199890909Y-75044533D01*
X199890900Y-75044527D01*
X199880789Y-75039056D01*
X199831197Y-74989838D01*
X199816087Y-74921621D01*
X199840257Y-74856065D01*
X199880789Y-74820944D01*
X199890900Y-74815472D01*
X199890906Y-74815469D01*
X200070794Y-74675456D01*
X200225183Y-74507745D01*
X200349862Y-74316909D01*
X200441430Y-74108155D01*
X200497390Y-73887176D01*
X200516214Y-73660000D01*
X200516214Y-73659993D01*
X200497391Y-73432831D01*
X200497389Y-73432820D01*
X200441430Y-73211844D01*
X200349862Y-73003091D01*
X200225185Y-72812257D01*
X200070791Y-72644541D01*
X200070787Y-72644538D01*
X199890909Y-72504533D01*
X199890900Y-72504527D01*
X199880789Y-72499056D01*
X199831197Y-72449838D01*
X199816087Y-72381621D01*
X199840257Y-72316065D01*
X199880789Y-72280944D01*
X199890900Y-72275472D01*
X199890906Y-72275469D01*
X200070794Y-72135456D01*
X200225183Y-71967745D01*
X200349862Y-71776909D01*
X200441430Y-71568155D01*
X200497390Y-71347176D01*
X200499497Y-71321750D01*
X200516214Y-71120006D01*
X200516214Y-71119993D01*
X200497391Y-70892831D01*
X200497389Y-70892820D01*
X200441430Y-70671844D01*
X200349862Y-70463091D01*
X200225185Y-70272257D01*
X200070791Y-70104541D01*
X200070787Y-70104538D01*
X199890909Y-69964533D01*
X199890900Y-69964527D01*
X199880789Y-69959056D01*
X199831197Y-69909838D01*
X199816087Y-69841621D01*
X199840257Y-69776065D01*
X199880789Y-69740944D01*
X199890900Y-69735472D01*
X199890906Y-69735469D01*
X200070794Y-69595456D01*
X200225183Y-69427745D01*
X200349862Y-69236909D01*
X200441430Y-69028155D01*
X200497390Y-68807176D01*
X200499497Y-68781750D01*
X200516214Y-68580006D01*
X200516214Y-68579993D01*
X200497391Y-68352831D01*
X200497389Y-68352820D01*
X200441430Y-68131844D01*
X200349862Y-67923091D01*
X200225185Y-67732257D01*
X200070791Y-67564541D01*
X200070787Y-67564538D01*
X199890909Y-67424533D01*
X199890900Y-67424527D01*
X199880789Y-67419056D01*
X199831197Y-67369838D01*
X199816087Y-67301621D01*
X199840257Y-67236065D01*
X199880789Y-67200944D01*
X199890900Y-67195472D01*
X199890906Y-67195469D01*
X200070794Y-67055456D01*
X200225183Y-66887745D01*
X200349862Y-66696909D01*
X200441430Y-66488155D01*
X200497390Y-66267176D01*
X200516214Y-66040000D01*
X200516214Y-66039993D01*
X200497391Y-65812831D01*
X200497389Y-65812820D01*
X200441430Y-65591844D01*
X200349862Y-65383091D01*
X200225185Y-65192257D01*
X200070791Y-65024541D01*
X200070787Y-65024538D01*
X199890909Y-64884533D01*
X199890900Y-64884527D01*
X199690432Y-64776040D01*
X199690429Y-64776039D01*
X199690426Y-64776037D01*
X199690420Y-64776035D01*
X199690418Y-64776034D01*
X199474826Y-64702020D01*
X199306188Y-64673880D01*
X199249977Y-64664500D01*
X199022023Y-64664500D01*
X198977053Y-64672004D01*
X198797173Y-64702020D01*
X198581581Y-64776034D01*
X198581567Y-64776040D01*
X198381099Y-64884527D01*
X198381090Y-64884533D01*
X198201212Y-65024538D01*
X198201208Y-65024541D01*
X198046814Y-65192257D01*
X197922137Y-65383091D01*
X197830569Y-65591844D01*
X197774610Y-65812820D01*
X197774608Y-65812831D01*
X197755786Y-66039993D01*
X148333216Y-66039993D01*
X148359368Y-65965255D01*
X148379565Y-65786000D01*
X148359368Y-65606745D01*
X148299789Y-65436478D01*
X148203816Y-65283738D01*
X148076262Y-65156184D01*
X147923523Y-65060211D01*
X147753254Y-65000631D01*
X147753249Y-65000630D01*
X147574004Y-64980435D01*
X147573996Y-64980435D01*
X147394750Y-65000630D01*
X147394745Y-65000631D01*
X147224476Y-65060211D01*
X147071737Y-65156184D01*
X146944184Y-65283737D01*
X146848211Y-65436476D01*
X146788631Y-65606745D01*
X146788630Y-65606750D01*
X146768435Y-65785996D01*
X104986596Y-65785996D01*
X104937430Y-65591844D01*
X104845862Y-65383091D01*
X104721185Y-65192257D01*
X104566791Y-65024541D01*
X104566787Y-65024538D01*
X104386909Y-64884533D01*
X104386900Y-64884527D01*
X104186432Y-64776040D01*
X104186429Y-64776039D01*
X104186426Y-64776037D01*
X104186420Y-64776035D01*
X104186418Y-64776034D01*
X103970826Y-64702020D01*
X103802188Y-64673880D01*
X103745977Y-64664500D01*
X103518023Y-64664500D01*
X103473053Y-64672004D01*
X103293173Y-64702020D01*
X103077581Y-64776034D01*
X103077567Y-64776040D01*
X102877099Y-64884527D01*
X102877090Y-64884533D01*
X102697212Y-65024538D01*
X102697208Y-65024541D01*
X102542814Y-65192257D01*
X102418137Y-65383091D01*
X102326569Y-65591844D01*
X102270610Y-65812820D01*
X102270608Y-65812831D01*
X102251786Y-66039993D01*
X101773500Y-66039993D01*
X101773500Y-55371996D01*
X152102435Y-55371996D01*
X152102435Y-55372003D01*
X152122630Y-55551249D01*
X152122631Y-55551254D01*
X152182211Y-55721523D01*
X152262010Y-55848522D01*
X152278184Y-55874262D01*
X152405738Y-56001816D01*
X152496080Y-56058582D01*
X152545497Y-56089633D01*
X152558478Y-56097789D01*
X152647148Y-56128816D01*
X152728745Y-56157368D01*
X152728750Y-56157369D01*
X152907996Y-56177565D01*
X152908000Y-56177565D01*
X152908004Y-56177565D01*
X153087249Y-56157369D01*
X153087252Y-56157368D01*
X153087255Y-56157368D01*
X153257522Y-56097789D01*
X153410262Y-56001816D01*
X153537816Y-55874262D01*
X153614013Y-55752996D01*
X157563435Y-55752996D01*
X157563435Y-55753003D01*
X157583630Y-55932249D01*
X157583631Y-55932254D01*
X157643211Y-56102523D01*
X157723010Y-56229522D01*
X157739184Y-56255262D01*
X157866738Y-56382816D01*
X158019478Y-56478789D01*
X158108148Y-56509816D01*
X158189745Y-56538368D01*
X158189750Y-56538369D01*
X158368996Y-56558565D01*
X158369000Y-56558565D01*
X158369004Y-56558565D01*
X158548249Y-56538369D01*
X158548252Y-56538368D01*
X158548255Y-56538368D01*
X158718522Y-56478789D01*
X158871262Y-56382816D01*
X158998816Y-56255262D01*
X159067111Y-56146570D01*
X159119445Y-56100281D01*
X159188498Y-56089633D01*
X159252347Y-56118008D01*
X159259785Y-56124863D01*
X159263738Y-56128816D01*
X159416478Y-56224789D01*
X159503565Y-56255262D01*
X159586745Y-56284368D01*
X159586750Y-56284369D01*
X159765996Y-56304565D01*
X159766000Y-56304565D01*
X159766004Y-56304565D01*
X159945249Y-56284369D01*
X159945252Y-56284368D01*
X159945255Y-56284368D01*
X160115522Y-56224789D01*
X160268262Y-56128816D01*
X160395816Y-56001262D01*
X160472013Y-55879996D01*
X166834435Y-55879996D01*
X166834435Y-55880003D01*
X166854630Y-56059249D01*
X166854631Y-56059254D01*
X166914211Y-56229523D01*
X167010184Y-56382262D01*
X167137738Y-56509816D01*
X167290478Y-56605789D01*
X167460745Y-56665368D01*
X167460750Y-56665369D01*
X167639996Y-56685565D01*
X167640000Y-56685565D01*
X167640004Y-56685565D01*
X167819249Y-56665369D01*
X167819252Y-56665368D01*
X167819255Y-56665368D01*
X167989522Y-56605789D01*
X168142262Y-56509816D01*
X168269816Y-56382262D01*
X168365789Y-56229522D01*
X168425368Y-56059255D01*
X168431840Y-56001815D01*
X168445565Y-55880003D01*
X168445565Y-55879996D01*
X168425369Y-55700750D01*
X168425368Y-55700745D01*
X168417496Y-55678249D01*
X168365789Y-55530478D01*
X168269816Y-55377738D01*
X168142262Y-55250184D01*
X167989523Y-55154211D01*
X167819254Y-55094631D01*
X167819249Y-55094630D01*
X167640004Y-55074435D01*
X167639996Y-55074435D01*
X167460750Y-55094630D01*
X167460745Y-55094631D01*
X167290476Y-55154211D01*
X167137737Y-55250184D01*
X167010184Y-55377737D01*
X166914211Y-55530476D01*
X166854631Y-55700745D01*
X166854630Y-55700750D01*
X166834435Y-55879996D01*
X160472013Y-55879996D01*
X160491789Y-55848522D01*
X160551368Y-55678255D01*
X160563143Y-55573750D01*
X160571565Y-55499003D01*
X160571565Y-55498996D01*
X160551369Y-55319750D01*
X160551368Y-55319745D01*
X160527221Y-55250737D01*
X160491789Y-55149478D01*
X160475267Y-55123184D01*
X160414963Y-55027211D01*
X160395816Y-54996738D01*
X160268262Y-54869184D01*
X160115523Y-54773211D01*
X159945254Y-54713631D01*
X159945249Y-54713630D01*
X159766004Y-54693435D01*
X159765996Y-54693435D01*
X159586750Y-54713630D01*
X159586745Y-54713631D01*
X159416476Y-54773211D01*
X159263737Y-54869184D01*
X159136184Y-54996737D01*
X159136182Y-54996740D01*
X159067888Y-55105428D01*
X159015553Y-55151719D01*
X158946500Y-55162366D01*
X158882651Y-55133991D01*
X158875214Y-55127136D01*
X158871262Y-55123184D01*
X158718523Y-55027211D01*
X158548254Y-54967631D01*
X158548249Y-54967630D01*
X158369004Y-54947435D01*
X158368996Y-54947435D01*
X158189750Y-54967630D01*
X158189745Y-54967631D01*
X158019476Y-55027211D01*
X157866737Y-55123184D01*
X157739184Y-55250737D01*
X157643211Y-55403476D01*
X157583631Y-55573745D01*
X157583630Y-55573750D01*
X157563435Y-55752996D01*
X153614013Y-55752996D01*
X153633789Y-55721522D01*
X153693368Y-55551255D01*
X153695709Y-55530478D01*
X153713565Y-55372003D01*
X153713565Y-55371996D01*
X153693369Y-55192750D01*
X153693368Y-55192745D01*
X153678228Y-55149478D01*
X153633789Y-55022478D01*
X153617615Y-54996738D01*
X153537815Y-54869737D01*
X153410262Y-54742184D01*
X153257523Y-54646211D01*
X153087254Y-54586631D01*
X153087249Y-54586630D01*
X152908004Y-54566435D01*
X152907996Y-54566435D01*
X152728750Y-54586630D01*
X152728745Y-54586631D01*
X152558476Y-54646211D01*
X152405737Y-54742184D01*
X152278184Y-54869737D01*
X152182211Y-55022476D01*
X152122631Y-55192745D01*
X152122630Y-55192750D01*
X152102435Y-55371996D01*
X101773500Y-55371996D01*
X101773500Y-53339996D01*
X105747435Y-53339996D01*
X105747435Y-53340003D01*
X105767630Y-53519249D01*
X105767631Y-53519254D01*
X105827211Y-53689523D01*
X105923184Y-53842262D01*
X106050738Y-53969816D01*
X106203478Y-54065789D01*
X106373745Y-54125368D01*
X106373750Y-54125369D01*
X106552996Y-54145565D01*
X106553000Y-54145565D01*
X106553004Y-54145565D01*
X106732249Y-54125369D01*
X106732252Y-54125368D01*
X106732255Y-54125368D01*
X106902522Y-54065789D01*
X107055262Y-53969816D01*
X107182816Y-53842262D01*
X107278789Y-53689522D01*
X107338368Y-53519255D01*
X107358565Y-53340000D01*
X107338368Y-53160745D01*
X107278789Y-52990478D01*
X107182816Y-52837738D01*
X107055262Y-52710184D01*
X106902523Y-52614211D01*
X106732254Y-52554631D01*
X106732249Y-52554630D01*
X106553004Y-52534435D01*
X106552996Y-52534435D01*
X106373750Y-52554630D01*
X106373745Y-52554631D01*
X106203476Y-52614211D01*
X106050737Y-52710184D01*
X105923184Y-52837737D01*
X105827211Y-52990476D01*
X105767631Y-53160745D01*
X105767630Y-53160750D01*
X105747435Y-53339996D01*
X101773500Y-53339996D01*
X101773500Y-47373706D01*
X101773559Y-47370999D01*
X102847422Y-47370999D01*
X102847422Y-47371000D01*
X102867722Y-47758339D01*
X102928397Y-48141427D01*
X102928397Y-48141429D01*
X103028788Y-48516094D01*
X103167787Y-48878197D01*
X103343877Y-49223793D01*
X103555122Y-49549082D01*
X103581985Y-49582255D01*
X103799219Y-49850516D01*
X104073484Y-50124781D01*
X104152009Y-50188369D01*
X104374917Y-50368877D01*
X104700206Y-50580122D01*
X104700211Y-50580125D01*
X105045806Y-50756214D01*
X105407913Y-50895214D01*
X105782567Y-50995602D01*
X106165662Y-51056278D01*
X106531576Y-51075455D01*
X106552999Y-51076578D01*
X106553000Y-51076578D01*
X106553001Y-51076578D01*
X106573301Y-51075514D01*
X106940338Y-51056278D01*
X107323433Y-50995602D01*
X107698087Y-50895214D01*
X108060194Y-50756214D01*
X108405789Y-50580125D01*
X108731084Y-50368876D01*
X109032516Y-50124781D01*
X109306781Y-49850516D01*
X109550876Y-49549084D01*
X109762125Y-49223789D01*
X109938214Y-48878194D01*
X110077214Y-48516087D01*
X110177602Y-48141433D01*
X110238278Y-47758338D01*
X110258578Y-47371000D01*
X110238278Y-46983662D01*
X110177602Y-46600567D01*
X110077214Y-46225913D01*
X109938214Y-45863806D01*
X109930295Y-45848265D01*
X109913577Y-45815454D01*
X109795725Y-45584155D01*
X115363000Y-45584155D01*
X115363000Y-46232000D01*
X116279988Y-46232000D01*
X116247075Y-46289007D01*
X116213000Y-46416174D01*
X116213000Y-46547826D01*
X116247075Y-46674993D01*
X116279988Y-46732000D01*
X115363000Y-46732000D01*
X115363000Y-47379844D01*
X115369401Y-47439372D01*
X115369403Y-47439379D01*
X115419645Y-47574086D01*
X115419649Y-47574093D01*
X115505809Y-47689187D01*
X115505812Y-47689190D01*
X115620906Y-47775350D01*
X115620913Y-47775354D01*
X115755620Y-47825596D01*
X115755627Y-47825598D01*
X115815155Y-47831999D01*
X115815172Y-47832000D01*
X116463000Y-47832000D01*
X116463000Y-46915012D01*
X116520007Y-46947925D01*
X116647174Y-46982000D01*
X116778826Y-46982000D01*
X116905993Y-46947925D01*
X116963000Y-46915012D01*
X116963000Y-47832000D01*
X117610828Y-47832000D01*
X117610844Y-47831999D01*
X117670372Y-47825598D01*
X117670379Y-47825596D01*
X117805086Y-47775354D01*
X117805093Y-47775350D01*
X117920187Y-47689190D01*
X117920190Y-47689187D01*
X118006350Y-47574093D01*
X118006354Y-47574086D01*
X118055422Y-47442529D01*
X118097293Y-47386595D01*
X118162757Y-47362178D01*
X118231030Y-47377030D01*
X118259285Y-47398181D01*
X118381599Y-47520495D01*
X118460450Y-47575707D01*
X118575165Y-47656032D01*
X118575167Y-47656033D01*
X118575170Y-47656035D01*
X118789337Y-47755903D01*
X118789343Y-47755904D01*
X118789344Y-47755905D01*
X118798428Y-47758339D01*
X119017592Y-47817063D01*
X119194034Y-47832500D01*
X119252999Y-47837659D01*
X119253000Y-47837659D01*
X119253001Y-47837659D01*
X119311966Y-47832500D01*
X119488408Y-47817063D01*
X119716663Y-47755903D01*
X119930830Y-47656035D01*
X120124401Y-47520495D01*
X120291495Y-47353401D01*
X120421425Y-47167842D01*
X120476002Y-47124217D01*
X120545500Y-47117023D01*
X120607855Y-47148546D01*
X120624575Y-47167842D01*
X120754500Y-47353395D01*
X120754505Y-47353401D01*
X120921599Y-47520495D01*
X121000450Y-47575707D01*
X121115165Y-47656032D01*
X121115167Y-47656033D01*
X121115170Y-47656035D01*
X121329337Y-47755903D01*
X121329343Y-47755904D01*
X121329344Y-47755905D01*
X121338428Y-47758339D01*
X121557592Y-47817063D01*
X121734034Y-47832500D01*
X121792999Y-47837659D01*
X121793000Y-47837659D01*
X121793001Y-47837659D01*
X121851966Y-47832500D01*
X122028408Y-47817063D01*
X122256663Y-47755903D01*
X122470830Y-47656035D01*
X122664401Y-47520495D01*
X122831495Y-47353401D01*
X122961425Y-47167842D01*
X123016002Y-47124217D01*
X123085500Y-47117023D01*
X123147855Y-47148546D01*
X123164575Y-47167842D01*
X123294500Y-47353395D01*
X123294505Y-47353401D01*
X123461599Y-47520495D01*
X123540450Y-47575707D01*
X123655165Y-47656032D01*
X123655167Y-47656033D01*
X123655170Y-47656035D01*
X123869337Y-47755903D01*
X123869343Y-47755904D01*
X123869344Y-47755905D01*
X123878428Y-47758339D01*
X124097592Y-47817063D01*
X124274034Y-47832500D01*
X124332999Y-47837659D01*
X124333000Y-47837659D01*
X124333001Y-47837659D01*
X124391966Y-47832500D01*
X124568408Y-47817063D01*
X124796663Y-47755903D01*
X125010830Y-47656035D01*
X125204401Y-47520495D01*
X125371495Y-47353401D01*
X125501425Y-47167842D01*
X125556002Y-47124217D01*
X125625500Y-47117023D01*
X125687855Y-47148546D01*
X125704575Y-47167842D01*
X125834500Y-47353395D01*
X125834505Y-47353401D01*
X126001599Y-47520495D01*
X126080450Y-47575707D01*
X126195165Y-47656032D01*
X126195167Y-47656033D01*
X126195170Y-47656035D01*
X126409337Y-47755903D01*
X126409343Y-47755904D01*
X126409344Y-47755905D01*
X126418428Y-47758339D01*
X126637592Y-47817063D01*
X126814034Y-47832500D01*
X126872999Y-47837659D01*
X126873000Y-47837659D01*
X126873001Y-47837659D01*
X126931966Y-47832500D01*
X127108408Y-47817063D01*
X127336663Y-47755903D01*
X127550830Y-47656035D01*
X127744401Y-47520495D01*
X127911495Y-47353401D01*
X128041425Y-47167842D01*
X128096002Y-47124217D01*
X128165500Y-47117023D01*
X128227855Y-47148546D01*
X128244575Y-47167842D01*
X128374500Y-47353395D01*
X128374505Y-47353401D01*
X128541599Y-47520495D01*
X128620450Y-47575707D01*
X128735165Y-47656032D01*
X128735167Y-47656033D01*
X128735170Y-47656035D01*
X128949337Y-47755903D01*
X128949343Y-47755904D01*
X128949344Y-47755905D01*
X128958428Y-47758339D01*
X129177592Y-47817063D01*
X129354034Y-47832500D01*
X129412999Y-47837659D01*
X129413000Y-47837659D01*
X129413001Y-47837659D01*
X129471966Y-47832500D01*
X129648408Y-47817063D01*
X129876663Y-47755903D01*
X130090830Y-47656035D01*
X130284401Y-47520495D01*
X130451495Y-47353401D01*
X130581425Y-47167842D01*
X130636002Y-47124217D01*
X130705500Y-47117023D01*
X130767855Y-47148546D01*
X130784575Y-47167842D01*
X130914500Y-47353395D01*
X130914505Y-47353401D01*
X131081599Y-47520495D01*
X131160450Y-47575707D01*
X131275165Y-47656032D01*
X131275167Y-47656033D01*
X131275170Y-47656035D01*
X131489337Y-47755903D01*
X131489343Y-47755904D01*
X131489344Y-47755905D01*
X131498428Y-47758339D01*
X131717592Y-47817063D01*
X131894034Y-47832500D01*
X131952999Y-47837659D01*
X131953000Y-47837659D01*
X131953001Y-47837659D01*
X132011966Y-47832500D01*
X132188408Y-47817063D01*
X132416663Y-47755903D01*
X132630830Y-47656035D01*
X132824401Y-47520495D01*
X132991495Y-47353401D01*
X133121425Y-47167842D01*
X133176002Y-47124217D01*
X133245500Y-47117023D01*
X133307855Y-47148546D01*
X133324575Y-47167842D01*
X133454500Y-47353395D01*
X133454505Y-47353401D01*
X133621599Y-47520495D01*
X133700450Y-47575707D01*
X133815165Y-47656032D01*
X133815167Y-47656033D01*
X133815170Y-47656035D01*
X134029337Y-47755903D01*
X134029343Y-47755904D01*
X134029344Y-47755905D01*
X134038428Y-47758339D01*
X134257592Y-47817063D01*
X134434034Y-47832500D01*
X134492999Y-47837659D01*
X134493000Y-47837659D01*
X134493001Y-47837659D01*
X134551966Y-47832500D01*
X134728408Y-47817063D01*
X134956663Y-47755903D01*
X135170830Y-47656035D01*
X135364401Y-47520495D01*
X135531495Y-47353401D01*
X135661425Y-47167842D01*
X135716002Y-47124217D01*
X135785500Y-47117023D01*
X135847855Y-47148546D01*
X135864575Y-47167842D01*
X135994500Y-47353395D01*
X135994505Y-47353401D01*
X136161599Y-47520495D01*
X136240450Y-47575707D01*
X136355165Y-47656032D01*
X136355167Y-47656033D01*
X136355170Y-47656035D01*
X136569337Y-47755903D01*
X136569343Y-47755904D01*
X136569344Y-47755905D01*
X136578428Y-47758339D01*
X136797592Y-47817063D01*
X136974034Y-47832500D01*
X137032999Y-47837659D01*
X137033000Y-47837659D01*
X137033001Y-47837659D01*
X137091966Y-47832500D01*
X137268408Y-47817063D01*
X137496663Y-47755903D01*
X137710830Y-47656035D01*
X137904401Y-47520495D01*
X138071495Y-47353401D01*
X138201425Y-47167842D01*
X138256002Y-47124217D01*
X138325500Y-47117023D01*
X138387855Y-47148546D01*
X138404575Y-47167842D01*
X138534500Y-47353395D01*
X138534505Y-47353401D01*
X138701599Y-47520495D01*
X138780450Y-47575707D01*
X138895165Y-47656032D01*
X138895167Y-47656033D01*
X138895170Y-47656035D01*
X139109337Y-47755903D01*
X139109343Y-47755904D01*
X139109344Y-47755905D01*
X139118428Y-47758339D01*
X139337592Y-47817063D01*
X139514034Y-47832500D01*
X139572999Y-47837659D01*
X139573000Y-47837659D01*
X139573001Y-47837659D01*
X139631966Y-47832500D01*
X139808408Y-47817063D01*
X140036663Y-47755903D01*
X140250830Y-47656035D01*
X140444401Y-47520495D01*
X140611495Y-47353401D01*
X140747035Y-47159830D01*
X140846903Y-46945663D01*
X140908063Y-46717408D01*
X140928659Y-46482000D01*
X140908063Y-46246592D01*
X140846903Y-46018337D01*
X140747035Y-45804171D01*
X140741425Y-45796158D01*
X140611494Y-45610597D01*
X140444402Y-45443506D01*
X140444395Y-45443501D01*
X140295148Y-45338996D01*
X143466435Y-45338996D01*
X143466435Y-45339003D01*
X143486630Y-45518249D01*
X143486631Y-45518254D01*
X143546211Y-45688523D01*
X143604336Y-45781028D01*
X143623336Y-45848265D01*
X143604336Y-45912972D01*
X143546211Y-46005476D01*
X143486631Y-46175745D01*
X143486630Y-46175750D01*
X143466435Y-46354996D01*
X143466435Y-46355003D01*
X143486630Y-46534249D01*
X143486631Y-46534254D01*
X143546211Y-46704523D01*
X143604336Y-46797028D01*
X143623336Y-46864265D01*
X143604336Y-46928972D01*
X143546211Y-47021476D01*
X143486631Y-47191745D01*
X143486630Y-47191750D01*
X143466435Y-47370996D01*
X143466435Y-47371003D01*
X143486630Y-47550249D01*
X143486631Y-47550254D01*
X143546211Y-47720523D01*
X143604336Y-47813028D01*
X143623336Y-47880265D01*
X143604336Y-47944972D01*
X143546211Y-48037476D01*
X143486631Y-48207745D01*
X143486630Y-48207750D01*
X143466435Y-48386996D01*
X143466435Y-48387003D01*
X143486630Y-48566249D01*
X143486631Y-48566254D01*
X143546211Y-48736523D01*
X143604336Y-48829028D01*
X143623336Y-48896265D01*
X143604336Y-48960972D01*
X143546211Y-49053476D01*
X143486631Y-49223745D01*
X143486630Y-49223750D01*
X143466435Y-49402996D01*
X143466435Y-49403003D01*
X143486630Y-49582249D01*
X143486631Y-49582254D01*
X143546211Y-49752523D01*
X143642184Y-49905262D01*
X143769738Y-50032816D01*
X143922478Y-50128789D01*
X144067570Y-50179559D01*
X144092745Y-50188368D01*
X144092750Y-50188369D01*
X144271996Y-50208565D01*
X144272000Y-50208565D01*
X144272004Y-50208565D01*
X144451249Y-50188369D01*
X144451252Y-50188368D01*
X144451255Y-50188368D01*
X144621522Y-50128789D01*
X144774262Y-50032816D01*
X144774263Y-50032814D01*
X144777527Y-50030764D01*
X144844764Y-50011763D01*
X144909473Y-50030764D01*
X144912736Y-50032814D01*
X144912738Y-50032816D01*
X144963012Y-50064405D01*
X145065475Y-50128788D01*
X145235745Y-50188368D01*
X145235750Y-50188369D01*
X145414996Y-50208565D01*
X145415000Y-50208565D01*
X145415004Y-50208565D01*
X145594249Y-50188369D01*
X145594252Y-50188368D01*
X145594255Y-50188368D01*
X145764522Y-50128789D01*
X145917262Y-50032816D01*
X145917263Y-50032814D01*
X145920527Y-50030764D01*
X145987764Y-50011763D01*
X146052473Y-50030764D01*
X146055736Y-50032814D01*
X146055738Y-50032816D01*
X146106012Y-50064405D01*
X146208475Y-50128788D01*
X146378745Y-50188368D01*
X146378750Y-50188369D01*
X146557996Y-50208565D01*
X146558000Y-50208565D01*
X146558004Y-50208565D01*
X146737249Y-50188369D01*
X146737252Y-50188368D01*
X146737255Y-50188368D01*
X146907522Y-50128789D01*
X147060262Y-50032816D01*
X147060263Y-50032814D01*
X147063527Y-50030764D01*
X147130764Y-50011763D01*
X147195473Y-50030764D01*
X147198736Y-50032814D01*
X147198738Y-50032816D01*
X147249012Y-50064405D01*
X147351475Y-50128788D01*
X147521745Y-50188368D01*
X147521750Y-50188369D01*
X147700996Y-50208565D01*
X147701000Y-50208565D01*
X147701004Y-50208565D01*
X147880249Y-50188369D01*
X147880252Y-50188368D01*
X147880255Y-50188368D01*
X148050522Y-50128789D01*
X148203262Y-50032816D01*
X148203263Y-50032814D01*
X148206527Y-50030764D01*
X148273764Y-50011763D01*
X148338473Y-50030764D01*
X148341736Y-50032814D01*
X148341738Y-50032816D01*
X148392012Y-50064405D01*
X148494475Y-50128788D01*
X148664745Y-50188368D01*
X148664750Y-50188369D01*
X148843996Y-50208565D01*
X148844000Y-50208565D01*
X148844004Y-50208565D01*
X149023249Y-50188369D01*
X149023252Y-50188368D01*
X149023255Y-50188368D01*
X149193522Y-50128789D01*
X149346262Y-50032816D01*
X149346263Y-50032814D01*
X149349527Y-50030764D01*
X149416764Y-50011763D01*
X149481473Y-50030764D01*
X149484736Y-50032814D01*
X149484738Y-50032816D01*
X149535012Y-50064405D01*
X149637475Y-50128788D01*
X149807745Y-50188368D01*
X149807750Y-50188369D01*
X149986996Y-50208565D01*
X149987000Y-50208565D01*
X149987004Y-50208565D01*
X150166249Y-50188369D01*
X150166252Y-50188368D01*
X150166255Y-50188368D01*
X150336522Y-50128789D01*
X150489262Y-50032816D01*
X150616816Y-49905262D01*
X150712789Y-49752522D01*
X150772368Y-49582255D01*
X150775623Y-49553368D01*
X150792565Y-49403003D01*
X150792565Y-49402996D01*
X150772369Y-49223750D01*
X150772368Y-49223745D01*
X150712788Y-49053475D01*
X150654664Y-48960973D01*
X150635663Y-48893736D01*
X150654664Y-48829027D01*
X150712788Y-48736524D01*
X150712789Y-48736522D01*
X150772368Y-48566255D01*
X150778021Y-48516087D01*
X150792565Y-48387003D01*
X150792565Y-48386996D01*
X152610435Y-48386996D01*
X152610435Y-48387003D01*
X152630630Y-48566249D01*
X152630631Y-48566254D01*
X152690211Y-48736523D01*
X152748336Y-48829028D01*
X152767336Y-48896265D01*
X152748336Y-48960972D01*
X152690211Y-49053476D01*
X152630631Y-49223745D01*
X152630630Y-49223750D01*
X152610435Y-49402996D01*
X152610435Y-49403003D01*
X152630630Y-49582249D01*
X152630631Y-49582254D01*
X152690211Y-49752523D01*
X152748336Y-49845028D01*
X152767336Y-49912265D01*
X152748336Y-49976972D01*
X152690211Y-50069476D01*
X152630631Y-50239745D01*
X152630630Y-50239750D01*
X152610435Y-50418996D01*
X152610435Y-50419003D01*
X152630630Y-50598249D01*
X152630631Y-50598254D01*
X152690211Y-50768523D01*
X152769815Y-50895211D01*
X152786184Y-50921262D01*
X152913738Y-51048816D01*
X153066478Y-51144789D01*
X153236745Y-51204368D01*
X153236750Y-51204369D01*
X153415996Y-51224565D01*
X153416000Y-51224565D01*
X153416004Y-51224565D01*
X153595249Y-51204369D01*
X153595252Y-51204368D01*
X153595255Y-51204368D01*
X153765522Y-51144789D01*
X153918262Y-51048816D01*
X153918263Y-51048814D01*
X153921527Y-51046764D01*
X153988764Y-51027763D01*
X154053473Y-51046764D01*
X154056736Y-51048814D01*
X154056738Y-51048816D01*
X154068614Y-51056278D01*
X154209475Y-51144788D01*
X154379745Y-51204368D01*
X154379750Y-51204369D01*
X154558996Y-51224565D01*
X154559000Y-51224565D01*
X154559004Y-51224565D01*
X154738249Y-51204369D01*
X154738252Y-51204368D01*
X154738255Y-51204368D01*
X154908522Y-51144789D01*
X155061262Y-51048816D01*
X155188816Y-50921262D01*
X155284789Y-50768522D01*
X155344368Y-50598255D01*
X155364565Y-50419000D01*
X155358917Y-50368876D01*
X155353116Y-50317385D01*
X155365170Y-50248563D01*
X155412519Y-50197183D01*
X155480130Y-50179559D01*
X155517294Y-50186460D01*
X155522745Y-50188368D01*
X155522746Y-50188368D01*
X155522750Y-50188369D01*
X155701996Y-50208565D01*
X155702000Y-50208565D01*
X155702004Y-50208565D01*
X155881249Y-50188369D01*
X155881252Y-50188368D01*
X155881255Y-50188368D01*
X156051522Y-50128789D01*
X156204262Y-50032816D01*
X156204263Y-50032814D01*
X156207527Y-50030764D01*
X156274764Y-50011763D01*
X156339473Y-50030764D01*
X156342736Y-50032814D01*
X156342738Y-50032816D01*
X156393012Y-50064405D01*
X156495475Y-50128788D01*
X156665745Y-50188368D01*
X156665750Y-50188369D01*
X156844996Y-50208565D01*
X156845000Y-50208565D01*
X156845004Y-50208565D01*
X157024249Y-50188369D01*
X157024252Y-50188368D01*
X157024255Y-50188368D01*
X157194522Y-50128789D01*
X157347262Y-50032816D01*
X157347263Y-50032814D01*
X157350527Y-50030764D01*
X157417764Y-50011763D01*
X157482473Y-50030764D01*
X157485736Y-50032814D01*
X157485738Y-50032816D01*
X157536012Y-50064405D01*
X157638475Y-50128788D01*
X157808745Y-50188368D01*
X157808750Y-50188369D01*
X157987996Y-50208565D01*
X157988000Y-50208565D01*
X157988004Y-50208565D01*
X158167249Y-50188369D01*
X158167252Y-50188368D01*
X158167255Y-50188368D01*
X158337522Y-50128789D01*
X158490262Y-50032816D01*
X158617816Y-49905262D01*
X158713789Y-49752522D01*
X158773368Y-49582255D01*
X158776623Y-49553368D01*
X158793565Y-49403003D01*
X158793565Y-49402996D01*
X158773369Y-49223750D01*
X158773368Y-49223745D01*
X158713788Y-49053475D01*
X158655664Y-48960973D01*
X158636663Y-48893736D01*
X158655664Y-48829027D01*
X158694013Y-48767996D01*
X169374435Y-48767996D01*
X169374435Y-48768003D01*
X169394630Y-48947249D01*
X169394631Y-48947254D01*
X169454211Y-49117523D01*
X169550184Y-49270262D01*
X169677738Y-49397816D01*
X169830478Y-49493789D01*
X169988496Y-49549082D01*
X170000745Y-49553368D01*
X170000750Y-49553369D01*
X170179996Y-49573565D01*
X170180000Y-49573565D01*
X170180004Y-49573565D01*
X170359249Y-49553369D01*
X170359252Y-49553368D01*
X170359255Y-49553368D01*
X170529522Y-49493789D01*
X170682262Y-49397816D01*
X170809816Y-49270262D01*
X170905789Y-49117522D01*
X170965368Y-48947255D01*
X170971398Y-48893736D01*
X170985565Y-48768003D01*
X170985565Y-48767996D01*
X170965369Y-48588750D01*
X170965368Y-48588745D01*
X170905788Y-48418476D01*
X170809815Y-48265737D01*
X170682262Y-48138184D01*
X170529523Y-48042211D01*
X170359254Y-47982631D01*
X170359249Y-47982630D01*
X170180004Y-47962435D01*
X170179996Y-47962435D01*
X170000750Y-47982630D01*
X170000745Y-47982631D01*
X169830476Y-48042211D01*
X169677737Y-48138184D01*
X169550184Y-48265737D01*
X169454211Y-48418476D01*
X169394631Y-48588745D01*
X169394630Y-48588750D01*
X169374435Y-48767996D01*
X158694013Y-48767996D01*
X158713788Y-48736524D01*
X158713789Y-48736522D01*
X158773368Y-48566255D01*
X158779021Y-48516087D01*
X158793565Y-48387003D01*
X158793565Y-48386996D01*
X158773369Y-48207750D01*
X158773368Y-48207745D01*
X158713788Y-48037475D01*
X158655664Y-47944973D01*
X158636663Y-47877736D01*
X158655664Y-47813027D01*
X158713788Y-47720524D01*
X158721315Y-47699013D01*
X158773368Y-47550255D01*
X158773369Y-47550249D01*
X158793565Y-47371003D01*
X158793565Y-47370996D01*
X158773369Y-47191750D01*
X158773368Y-47191745D01*
X158713788Y-47021475D01*
X158655664Y-46928973D01*
X158636663Y-46861736D01*
X158655664Y-46797027D01*
X158660704Y-46789007D01*
X158680924Y-46756825D01*
X158713788Y-46704524D01*
X158713789Y-46704522D01*
X158773368Y-46534255D01*
X158786363Y-46418919D01*
X158793565Y-46355003D01*
X158793565Y-46354996D01*
X158773369Y-46175750D01*
X158773368Y-46175745D01*
X158713788Y-46005475D01*
X158655664Y-45912973D01*
X158636663Y-45845736D01*
X158655664Y-45781027D01*
X158713788Y-45688524D01*
X158746888Y-45593930D01*
X158750315Y-45584135D01*
X179624500Y-45584135D01*
X179624500Y-47379870D01*
X179624501Y-47379876D01*
X179630908Y-47439483D01*
X179681202Y-47574328D01*
X179681206Y-47574335D01*
X179767452Y-47689544D01*
X179767455Y-47689547D01*
X179882664Y-47775793D01*
X179882671Y-47775797D01*
X180017517Y-47826091D01*
X180017516Y-47826091D01*
X180024444Y-47826835D01*
X180077127Y-47832500D01*
X181872872Y-47832499D01*
X181932483Y-47826091D01*
X182067331Y-47775796D01*
X182182546Y-47689546D01*
X182268796Y-47574331D01*
X182317810Y-47442916D01*
X182359681Y-47386984D01*
X182425145Y-47362566D01*
X182493418Y-47377417D01*
X182521673Y-47398569D01*
X182643599Y-47520495D01*
X182722450Y-47575707D01*
X182837165Y-47656032D01*
X182837167Y-47656033D01*
X182837170Y-47656035D01*
X183051337Y-47755903D01*
X183051343Y-47755904D01*
X183051344Y-47755905D01*
X183060428Y-47758339D01*
X183279592Y-47817063D01*
X183456034Y-47832500D01*
X183514999Y-47837659D01*
X183515000Y-47837659D01*
X183515001Y-47837659D01*
X183573966Y-47832500D01*
X183750408Y-47817063D01*
X183978663Y-47755903D01*
X184192830Y-47656035D01*
X184386401Y-47520495D01*
X184553495Y-47353401D01*
X184683425Y-47167842D01*
X184738002Y-47124217D01*
X184807500Y-47117023D01*
X184869855Y-47148546D01*
X184886575Y-47167842D01*
X185016500Y-47353395D01*
X185016505Y-47353401D01*
X185183599Y-47520495D01*
X185262450Y-47575707D01*
X185377165Y-47656032D01*
X185377167Y-47656033D01*
X185377170Y-47656035D01*
X185591337Y-47755903D01*
X185591343Y-47755904D01*
X185591344Y-47755905D01*
X185600428Y-47758339D01*
X185819592Y-47817063D01*
X185996034Y-47832500D01*
X186054999Y-47837659D01*
X186055000Y-47837659D01*
X186055001Y-47837659D01*
X186113966Y-47832500D01*
X186290408Y-47817063D01*
X186518663Y-47755903D01*
X186732830Y-47656035D01*
X186926401Y-47520495D01*
X187075897Y-47370999D01*
X192509422Y-47370999D01*
X192509422Y-47371000D01*
X192529722Y-47758339D01*
X192590397Y-48141427D01*
X192590397Y-48141429D01*
X192690788Y-48516094D01*
X192829787Y-48878197D01*
X193005877Y-49223793D01*
X193217122Y-49549082D01*
X193243985Y-49582255D01*
X193461219Y-49850516D01*
X193735484Y-50124781D01*
X193814009Y-50188369D01*
X194036917Y-50368877D01*
X194362206Y-50580122D01*
X194362211Y-50580125D01*
X194707806Y-50756214D01*
X195069913Y-50895214D01*
X195444567Y-50995602D01*
X195827662Y-51056278D01*
X196193576Y-51075455D01*
X196214999Y-51076578D01*
X196215000Y-51076578D01*
X196215001Y-51076578D01*
X196235301Y-51075514D01*
X196602338Y-51056278D01*
X196985433Y-50995602D01*
X197360087Y-50895214D01*
X197722194Y-50756214D01*
X198067789Y-50580125D01*
X198393084Y-50368876D01*
X198694516Y-50124781D01*
X198968781Y-49850516D01*
X199212876Y-49549084D01*
X199424125Y-49223789D01*
X199600214Y-48878194D01*
X199739214Y-48516087D01*
X199839602Y-48141433D01*
X199900278Y-47758338D01*
X199920578Y-47371000D01*
X199900278Y-46983662D01*
X199839602Y-46600567D01*
X199739214Y-46225913D01*
X199600214Y-45863806D01*
X199592295Y-45848265D01*
X199575577Y-45815454D01*
X199424125Y-45518211D01*
X199375611Y-45443506D01*
X199212877Y-45192917D01*
X198968784Y-44891488D01*
X198968781Y-44891484D01*
X198694516Y-44617219D01*
X198615990Y-44553630D01*
X198393082Y-44373122D01*
X198067793Y-44161877D01*
X197722197Y-43985787D01*
X197360094Y-43846788D01*
X197360087Y-43846786D01*
X196985433Y-43746398D01*
X196985429Y-43746397D01*
X196985428Y-43746397D01*
X196602339Y-43685722D01*
X196215001Y-43665422D01*
X196214999Y-43665422D01*
X195827660Y-43685722D01*
X195444572Y-43746397D01*
X195444570Y-43746397D01*
X195069905Y-43846788D01*
X194707802Y-43985787D01*
X194362206Y-44161877D01*
X194036917Y-44373122D01*
X193735488Y-44617215D01*
X193735480Y-44617222D01*
X193461222Y-44891480D01*
X193461215Y-44891488D01*
X193217122Y-45192917D01*
X193005877Y-45518206D01*
X192829787Y-45863802D01*
X192690788Y-46225905D01*
X192590397Y-46600570D01*
X192590397Y-46600572D01*
X192529722Y-46983660D01*
X192509422Y-47370999D01*
X187075897Y-47370999D01*
X187093495Y-47353401D01*
X187229035Y-47159830D01*
X187328903Y-46945663D01*
X187390063Y-46717408D01*
X187410659Y-46482000D01*
X187390063Y-46246592D01*
X187328903Y-46018337D01*
X187229035Y-45804171D01*
X187223425Y-45796158D01*
X187093494Y-45610597D01*
X186926402Y-45443506D01*
X186926395Y-45443501D01*
X186732834Y-45307967D01*
X186732830Y-45307965D01*
X186661727Y-45274809D01*
X186518663Y-45208097D01*
X186518659Y-45208096D01*
X186518655Y-45208094D01*
X186290413Y-45146938D01*
X186290403Y-45146936D01*
X186055001Y-45126341D01*
X186054999Y-45126341D01*
X185819596Y-45146936D01*
X185819586Y-45146938D01*
X185591344Y-45208094D01*
X185591335Y-45208098D01*
X185377171Y-45307964D01*
X185377169Y-45307965D01*
X185183597Y-45443505D01*
X185016505Y-45610597D01*
X184886575Y-45796158D01*
X184831998Y-45839783D01*
X184762500Y-45846977D01*
X184700145Y-45815454D01*
X184683425Y-45796158D01*
X184553494Y-45610597D01*
X184386402Y-45443506D01*
X184386395Y-45443501D01*
X184192834Y-45307967D01*
X184192830Y-45307965D01*
X184121727Y-45274809D01*
X183978663Y-45208097D01*
X183978659Y-45208096D01*
X183978655Y-45208094D01*
X183750413Y-45146938D01*
X183750403Y-45146936D01*
X183515001Y-45126341D01*
X183514999Y-45126341D01*
X183279596Y-45146936D01*
X183279586Y-45146938D01*
X183051344Y-45208094D01*
X183051335Y-45208098D01*
X182837171Y-45307964D01*
X182837169Y-45307965D01*
X182643600Y-45443503D01*
X182521673Y-45565430D01*
X182460350Y-45598914D01*
X182390658Y-45593930D01*
X182334725Y-45552058D01*
X182317810Y-45521081D01*
X182268797Y-45389671D01*
X182268793Y-45389664D01*
X182182547Y-45274455D01*
X182182544Y-45274452D01*
X182067335Y-45188206D01*
X182067328Y-45188202D01*
X181932482Y-45137908D01*
X181932483Y-45137908D01*
X181872883Y-45131501D01*
X181872881Y-45131500D01*
X181872873Y-45131500D01*
X181872864Y-45131500D01*
X180077129Y-45131500D01*
X180077123Y-45131501D01*
X180017516Y-45137908D01*
X179882671Y-45188202D01*
X179882664Y-45188206D01*
X179767455Y-45274452D01*
X179767452Y-45274455D01*
X179681206Y-45389664D01*
X179681202Y-45389671D01*
X179630908Y-45524517D01*
X179624501Y-45584116D01*
X179624500Y-45584135D01*
X158750315Y-45584135D01*
X158773368Y-45518255D01*
X158781790Y-45443506D01*
X158793565Y-45339003D01*
X158793565Y-45338996D01*
X158773369Y-45159750D01*
X158773368Y-45159745D01*
X158736424Y-45054165D01*
X158713789Y-44989478D01*
X158711639Y-44986057D01*
X158652213Y-44891480D01*
X158617816Y-44836738D01*
X158490262Y-44709184D01*
X158459373Y-44689775D01*
X158337523Y-44613211D01*
X158167254Y-44553631D01*
X158167249Y-44553630D01*
X157988004Y-44533435D01*
X157987996Y-44533435D01*
X157808750Y-44553630D01*
X157808745Y-44553631D01*
X157638476Y-44613211D01*
X157482472Y-44711236D01*
X157415235Y-44730236D01*
X157350528Y-44711236D01*
X157194523Y-44613211D01*
X157024254Y-44553631D01*
X157024249Y-44553630D01*
X156845004Y-44533435D01*
X156844996Y-44533435D01*
X156665750Y-44553630D01*
X156665745Y-44553631D01*
X156495476Y-44613211D01*
X156342737Y-44709184D01*
X156215184Y-44836737D01*
X156119211Y-44989476D01*
X156059631Y-45159745D01*
X156059630Y-45159750D01*
X156039435Y-45338996D01*
X156039435Y-45339003D01*
X156059630Y-45518249D01*
X156059631Y-45518254D01*
X156119211Y-45688523D01*
X156177336Y-45781028D01*
X156196336Y-45848265D01*
X156177336Y-45912972D01*
X156119211Y-46005476D01*
X156059631Y-46175745D01*
X156059630Y-46175750D01*
X156039435Y-46354996D01*
X156039435Y-46355003D01*
X156059630Y-46534249D01*
X156059631Y-46534254D01*
X156119211Y-46704523D01*
X156177336Y-46797028D01*
X156196336Y-46864265D01*
X156177336Y-46928972D01*
X156119211Y-47021476D01*
X156059631Y-47191745D01*
X156059630Y-47191750D01*
X156039435Y-47370996D01*
X156039435Y-47371004D01*
X156050883Y-47472615D01*
X156038828Y-47541437D01*
X155991479Y-47592816D01*
X155923868Y-47610440D01*
X155886709Y-47603540D01*
X155881257Y-47601632D01*
X155881249Y-47601630D01*
X155702004Y-47581435D01*
X155701996Y-47581435D01*
X155522750Y-47601630D01*
X155522745Y-47601631D01*
X155352476Y-47661211D01*
X155196472Y-47759236D01*
X155129235Y-47778236D01*
X155064528Y-47759236D01*
X154908519Y-47661209D01*
X154799035Y-47622898D01*
X154742259Y-47582176D01*
X154716512Y-47517223D01*
X154729969Y-47448662D01*
X154778356Y-47398259D01*
X154792537Y-47391296D01*
X154821073Y-47379477D01*
X154980845Y-47272720D01*
X155116720Y-47136845D01*
X155223477Y-46977073D01*
X155297012Y-46799543D01*
X155334500Y-46611078D01*
X155334500Y-46418922D01*
X155334500Y-46418919D01*
X155334499Y-46418917D01*
X155297013Y-46230464D01*
X155297012Y-46230457D01*
X155254907Y-46128806D01*
X155223479Y-46052931D01*
X155223478Y-46052929D01*
X155200364Y-46018337D01*
X155116720Y-45893155D01*
X155116717Y-45893151D01*
X154980848Y-45757282D01*
X154980844Y-45757279D01*
X154821070Y-45650521D01*
X154821068Y-45650520D01*
X154643547Y-45576989D01*
X154643535Y-45576986D01*
X154455081Y-45539500D01*
X154455078Y-45539500D01*
X153962922Y-45539500D01*
X153962919Y-45539500D01*
X153774464Y-45576986D01*
X153774452Y-45576989D01*
X153596931Y-45650520D01*
X153596929Y-45650521D01*
X153437155Y-45757279D01*
X153437151Y-45757282D01*
X153301282Y-45893151D01*
X153301279Y-45893155D01*
X153194521Y-46052929D01*
X153194520Y-46052931D01*
X153120989Y-46230452D01*
X153120986Y-46230464D01*
X153083500Y-46418917D01*
X153083500Y-46611082D01*
X153120986Y-46799535D01*
X153120989Y-46799547D01*
X153194520Y-46977068D01*
X153194521Y-46977070D01*
X153301279Y-47136844D01*
X153301282Y-47136848D01*
X153437154Y-47272720D01*
X153504925Y-47318002D01*
X153572976Y-47363473D01*
X153617780Y-47417084D01*
X153626487Y-47486409D01*
X153596333Y-47549436D01*
X153536890Y-47586156D01*
X153490202Y-47589794D01*
X153416005Y-47581435D01*
X153415996Y-47581435D01*
X153236750Y-47601630D01*
X153236745Y-47601631D01*
X153066476Y-47661211D01*
X152913737Y-47757184D01*
X152786184Y-47884737D01*
X152690211Y-48037476D01*
X152630631Y-48207745D01*
X152630630Y-48207750D01*
X152610435Y-48386996D01*
X150792565Y-48386996D01*
X150772369Y-48207750D01*
X150772368Y-48207745D01*
X150749162Y-48141427D01*
X150712789Y-48037478D01*
X150616816Y-47884738D01*
X150489262Y-47757184D01*
X150430918Y-47720524D01*
X150336523Y-47661211D01*
X150166254Y-47601631D01*
X150166249Y-47601630D01*
X149987004Y-47581435D01*
X149986996Y-47581435D01*
X149930840Y-47587762D01*
X149862018Y-47575707D01*
X149810639Y-47528358D01*
X149793015Y-47460748D01*
X149814742Y-47394342D01*
X149848067Y-47361440D01*
X149892968Y-47331438D01*
X149980845Y-47272720D01*
X150116720Y-47136845D01*
X150223477Y-46977073D01*
X150297012Y-46799543D01*
X150334500Y-46611078D01*
X150334500Y-46418922D01*
X150334500Y-46418919D01*
X150334499Y-46418917D01*
X150297013Y-46230464D01*
X150297012Y-46230457D01*
X150254907Y-46128806D01*
X150223479Y-46052931D01*
X150223478Y-46052929D01*
X150200364Y-46018337D01*
X150116720Y-45893155D01*
X150116717Y-45893151D01*
X149980848Y-45757282D01*
X149980844Y-45757279D01*
X149821070Y-45650521D01*
X149821068Y-45650520D01*
X149643547Y-45576989D01*
X149643535Y-45576986D01*
X149455081Y-45539500D01*
X149455078Y-45539500D01*
X148962922Y-45539500D01*
X148962919Y-45539500D01*
X148774464Y-45576986D01*
X148774452Y-45576989D01*
X148596931Y-45650520D01*
X148596929Y-45650521D01*
X148437155Y-45757279D01*
X148437151Y-45757282D01*
X148301282Y-45893151D01*
X148301279Y-45893155D01*
X148194521Y-46052929D01*
X148194520Y-46052931D01*
X148120989Y-46230452D01*
X148120986Y-46230464D01*
X148083500Y-46418917D01*
X148083500Y-46611082D01*
X148120986Y-46799535D01*
X148120989Y-46799547D01*
X148194520Y-46977068D01*
X148194521Y-46977070D01*
X148301279Y-47136844D01*
X148301282Y-47136848D01*
X148437151Y-47272717D01*
X148437155Y-47272720D01*
X148596927Y-47379477D01*
X148618592Y-47388450D01*
X148672995Y-47432290D01*
X148695061Y-47498584D01*
X148677783Y-47566284D01*
X148626646Y-47613895D01*
X148612095Y-47620053D01*
X148494480Y-47661209D01*
X148338472Y-47759236D01*
X148271235Y-47778236D01*
X148206528Y-47759236D01*
X148050523Y-47661211D01*
X147880254Y-47601631D01*
X147880249Y-47601630D01*
X147701004Y-47581435D01*
X147700996Y-47581435D01*
X147521750Y-47601630D01*
X147521740Y-47601633D01*
X147516287Y-47603541D01*
X147446508Y-47607100D01*
X147385882Y-47572370D01*
X147353657Y-47510375D01*
X147352116Y-47472614D01*
X147363565Y-47371002D01*
X147363565Y-47370996D01*
X147343369Y-47191750D01*
X147343368Y-47191745D01*
X147283788Y-47021475D01*
X147225664Y-46928973D01*
X147206663Y-46861736D01*
X147225664Y-46797027D01*
X147230704Y-46789007D01*
X147250924Y-46756825D01*
X147283788Y-46704524D01*
X147283789Y-46704522D01*
X147343368Y-46534255D01*
X147356363Y-46418919D01*
X147363565Y-46355003D01*
X147363565Y-46354996D01*
X147343369Y-46175750D01*
X147343368Y-46175745D01*
X147283788Y-46005475D01*
X147225664Y-45912973D01*
X147206663Y-45845736D01*
X147225664Y-45781027D01*
X147283788Y-45688524D01*
X147316888Y-45593930D01*
X147343368Y-45518255D01*
X147351790Y-45443506D01*
X147363565Y-45339003D01*
X147363565Y-45338996D01*
X147343369Y-45159750D01*
X147343368Y-45159745D01*
X147306424Y-45054165D01*
X147283789Y-44989478D01*
X147281639Y-44986057D01*
X147222213Y-44891480D01*
X147187816Y-44836738D01*
X147060262Y-44709184D01*
X147029373Y-44689775D01*
X146907523Y-44613211D01*
X146737254Y-44553631D01*
X146737249Y-44553630D01*
X146558004Y-44533435D01*
X146557996Y-44533435D01*
X146378750Y-44553630D01*
X146378745Y-44553631D01*
X146208476Y-44613211D01*
X146052472Y-44711236D01*
X145985235Y-44730236D01*
X145920528Y-44711236D01*
X145764523Y-44613211D01*
X145594254Y-44553631D01*
X145594249Y-44553630D01*
X145415004Y-44533435D01*
X145414996Y-44533435D01*
X145235750Y-44553630D01*
X145235745Y-44553631D01*
X145065476Y-44613211D01*
X144909472Y-44711236D01*
X144842235Y-44730236D01*
X144777528Y-44711236D01*
X144621523Y-44613211D01*
X144451254Y-44553631D01*
X144451249Y-44553630D01*
X144272004Y-44533435D01*
X144271996Y-44533435D01*
X144092750Y-44553630D01*
X144092745Y-44553631D01*
X143922476Y-44613211D01*
X143769737Y-44709184D01*
X143642184Y-44836737D01*
X143546211Y-44989476D01*
X143486631Y-45159745D01*
X143486630Y-45159750D01*
X143466435Y-45338996D01*
X140295148Y-45338996D01*
X140250834Y-45307967D01*
X140250830Y-45307965D01*
X140179727Y-45274809D01*
X140036663Y-45208097D01*
X140036659Y-45208096D01*
X140036655Y-45208094D01*
X139808413Y-45146938D01*
X139808403Y-45146936D01*
X139573001Y-45126341D01*
X139572999Y-45126341D01*
X139337596Y-45146936D01*
X139337586Y-45146938D01*
X139109344Y-45208094D01*
X139109335Y-45208098D01*
X138895171Y-45307964D01*
X138895169Y-45307965D01*
X138701597Y-45443505D01*
X138534505Y-45610597D01*
X138404575Y-45796158D01*
X138349998Y-45839783D01*
X138280500Y-45846977D01*
X138218145Y-45815454D01*
X138201425Y-45796158D01*
X138071494Y-45610597D01*
X137904402Y-45443506D01*
X137904395Y-45443501D01*
X137710834Y-45307967D01*
X137710830Y-45307965D01*
X137639727Y-45274809D01*
X137496663Y-45208097D01*
X137496659Y-45208096D01*
X137496655Y-45208094D01*
X137268413Y-45146938D01*
X137268403Y-45146936D01*
X137033001Y-45126341D01*
X137032999Y-45126341D01*
X136797596Y-45146936D01*
X136797586Y-45146938D01*
X136569344Y-45208094D01*
X136569335Y-45208098D01*
X136355171Y-45307964D01*
X136355169Y-45307965D01*
X136161597Y-45443505D01*
X135994505Y-45610597D01*
X135864575Y-45796158D01*
X135809998Y-45839783D01*
X135740500Y-45846977D01*
X135678145Y-45815454D01*
X135661425Y-45796158D01*
X135531494Y-45610597D01*
X135364402Y-45443506D01*
X135364395Y-45443501D01*
X135170834Y-45307967D01*
X135170830Y-45307965D01*
X135099727Y-45274809D01*
X134956663Y-45208097D01*
X134956659Y-45208096D01*
X134956655Y-45208094D01*
X134728413Y-45146938D01*
X134728403Y-45146936D01*
X134493001Y-45126341D01*
X134492999Y-45126341D01*
X134257596Y-45146936D01*
X134257586Y-45146938D01*
X134029344Y-45208094D01*
X134029335Y-45208098D01*
X133815171Y-45307964D01*
X133815169Y-45307965D01*
X133621597Y-45443505D01*
X133454505Y-45610597D01*
X133324575Y-45796158D01*
X133269998Y-45839783D01*
X133200500Y-45846977D01*
X133138145Y-45815454D01*
X133121425Y-45796158D01*
X132991494Y-45610597D01*
X132824402Y-45443506D01*
X132824395Y-45443501D01*
X132630834Y-45307967D01*
X132630830Y-45307965D01*
X132559727Y-45274809D01*
X132416663Y-45208097D01*
X132416659Y-45208096D01*
X132416655Y-45208094D01*
X132188413Y-45146938D01*
X132188403Y-45146936D01*
X131953001Y-45126341D01*
X131952999Y-45126341D01*
X131717596Y-45146936D01*
X131717586Y-45146938D01*
X131489344Y-45208094D01*
X131489335Y-45208098D01*
X131275171Y-45307964D01*
X131275169Y-45307965D01*
X131081597Y-45443505D01*
X130914505Y-45610597D01*
X130784575Y-45796158D01*
X130729998Y-45839783D01*
X130660500Y-45846977D01*
X130598145Y-45815454D01*
X130581425Y-45796158D01*
X130451494Y-45610597D01*
X130284402Y-45443506D01*
X130284395Y-45443501D01*
X130090834Y-45307967D01*
X130090830Y-45307965D01*
X130019727Y-45274809D01*
X129876663Y-45208097D01*
X129876659Y-45208096D01*
X129876655Y-45208094D01*
X129648413Y-45146938D01*
X129648403Y-45146936D01*
X129413001Y-45126341D01*
X129412999Y-45126341D01*
X129177596Y-45146936D01*
X129177586Y-45146938D01*
X128949344Y-45208094D01*
X128949335Y-45208098D01*
X128735171Y-45307964D01*
X128735169Y-45307965D01*
X128541597Y-45443505D01*
X128374505Y-45610597D01*
X128244575Y-45796158D01*
X128189998Y-45839783D01*
X128120500Y-45846977D01*
X128058145Y-45815454D01*
X128041425Y-45796158D01*
X127911494Y-45610597D01*
X127744402Y-45443506D01*
X127744395Y-45443501D01*
X127550834Y-45307967D01*
X127550830Y-45307965D01*
X127479727Y-45274809D01*
X127336663Y-45208097D01*
X127336659Y-45208096D01*
X127336655Y-45208094D01*
X127108413Y-45146938D01*
X127108403Y-45146936D01*
X126873001Y-45126341D01*
X126872999Y-45126341D01*
X126637596Y-45146936D01*
X126637586Y-45146938D01*
X126409344Y-45208094D01*
X126409335Y-45208098D01*
X126195171Y-45307964D01*
X126195169Y-45307965D01*
X126001597Y-45443505D01*
X125834505Y-45610597D01*
X125704575Y-45796158D01*
X125649998Y-45839783D01*
X125580500Y-45846977D01*
X125518145Y-45815454D01*
X125501425Y-45796158D01*
X125371494Y-45610597D01*
X125204402Y-45443506D01*
X125204395Y-45443501D01*
X125010834Y-45307967D01*
X125010830Y-45307965D01*
X124939727Y-45274809D01*
X124796663Y-45208097D01*
X124796659Y-45208096D01*
X124796655Y-45208094D01*
X124568413Y-45146938D01*
X124568403Y-45146936D01*
X124333001Y-45126341D01*
X124332999Y-45126341D01*
X124097596Y-45146936D01*
X124097586Y-45146938D01*
X123869344Y-45208094D01*
X123869335Y-45208098D01*
X123655171Y-45307964D01*
X123655169Y-45307965D01*
X123461597Y-45443505D01*
X123294505Y-45610597D01*
X123164575Y-45796158D01*
X123109998Y-45839783D01*
X123040500Y-45846977D01*
X122978145Y-45815454D01*
X122961425Y-45796158D01*
X122831494Y-45610597D01*
X122664402Y-45443506D01*
X122664395Y-45443501D01*
X122470834Y-45307967D01*
X122470830Y-45307965D01*
X122399727Y-45274809D01*
X122256663Y-45208097D01*
X122256659Y-45208096D01*
X122256655Y-45208094D01*
X122028413Y-45146938D01*
X122028403Y-45146936D01*
X121793001Y-45126341D01*
X121792999Y-45126341D01*
X121557596Y-45146936D01*
X121557586Y-45146938D01*
X121329344Y-45208094D01*
X121329335Y-45208098D01*
X121115171Y-45307964D01*
X121115169Y-45307965D01*
X120921597Y-45443505D01*
X120754505Y-45610597D01*
X120624575Y-45796158D01*
X120569998Y-45839783D01*
X120500500Y-45846977D01*
X120438145Y-45815454D01*
X120421425Y-45796158D01*
X120291494Y-45610597D01*
X120124402Y-45443506D01*
X120124395Y-45443501D01*
X119930834Y-45307967D01*
X119930830Y-45307965D01*
X119859727Y-45274809D01*
X119716663Y-45208097D01*
X119716659Y-45208096D01*
X119716655Y-45208094D01*
X119488413Y-45146938D01*
X119488403Y-45146936D01*
X119253001Y-45126341D01*
X119252999Y-45126341D01*
X119017596Y-45146936D01*
X119017586Y-45146938D01*
X118789344Y-45208094D01*
X118789335Y-45208098D01*
X118575171Y-45307964D01*
X118575169Y-45307965D01*
X118381600Y-45443503D01*
X118259284Y-45565819D01*
X118197961Y-45599303D01*
X118128269Y-45594319D01*
X118072336Y-45552447D01*
X118055421Y-45521470D01*
X118006354Y-45389913D01*
X118006350Y-45389906D01*
X117920190Y-45274812D01*
X117920187Y-45274809D01*
X117805093Y-45188649D01*
X117805086Y-45188645D01*
X117670379Y-45138403D01*
X117670372Y-45138401D01*
X117610844Y-45132000D01*
X116963000Y-45132000D01*
X116963000Y-46048988D01*
X116905993Y-46016075D01*
X116778826Y-45982000D01*
X116647174Y-45982000D01*
X116520007Y-46016075D01*
X116463000Y-46048988D01*
X116463000Y-45132000D01*
X115815155Y-45132000D01*
X115755627Y-45138401D01*
X115755620Y-45138403D01*
X115620913Y-45188645D01*
X115620906Y-45188649D01*
X115505812Y-45274809D01*
X115505809Y-45274812D01*
X115419649Y-45389906D01*
X115419645Y-45389913D01*
X115369403Y-45524620D01*
X115369401Y-45524627D01*
X115363000Y-45584155D01*
X109795725Y-45584155D01*
X109762125Y-45518211D01*
X109713611Y-45443506D01*
X109550877Y-45192917D01*
X109306784Y-44891488D01*
X109306781Y-44891484D01*
X109032516Y-44617219D01*
X108953990Y-44553630D01*
X108731082Y-44373122D01*
X108405793Y-44161877D01*
X108060197Y-43985787D01*
X107698094Y-43846788D01*
X107698087Y-43846786D01*
X107323433Y-43746398D01*
X107323429Y-43746397D01*
X107323428Y-43746397D01*
X106940339Y-43685722D01*
X106553001Y-43665422D01*
X106552999Y-43665422D01*
X106165660Y-43685722D01*
X105782572Y-43746397D01*
X105782570Y-43746397D01*
X105407905Y-43846788D01*
X105045802Y-43985787D01*
X104700206Y-44161877D01*
X104374917Y-44373122D01*
X104073488Y-44617215D01*
X104073480Y-44617222D01*
X103799222Y-44891480D01*
X103799215Y-44891488D01*
X103555122Y-45192917D01*
X103343877Y-45518206D01*
X103167787Y-45863802D01*
X103028788Y-46225905D01*
X102928397Y-46600570D01*
X102928397Y-46600572D01*
X102867722Y-46983660D01*
X102847422Y-47370999D01*
X101773559Y-47370999D01*
X101773618Y-47368298D01*
X101781326Y-47191745D01*
X101791451Y-46959824D01*
X101792391Y-46949091D01*
X101845404Y-46546411D01*
X101847278Y-46535781D01*
X101935189Y-46139244D01*
X101937987Y-46128806D01*
X102060116Y-45741462D01*
X102063803Y-45731330D01*
X102219237Y-45356079D01*
X102223795Y-45346305D01*
X102411335Y-44986045D01*
X102416730Y-44976700D01*
X102634961Y-44634145D01*
X102641147Y-44625310D01*
X102888405Y-44303078D01*
X102895350Y-44294804D01*
X103169726Y-43995375D01*
X103177375Y-43987726D01*
X103476804Y-43713350D01*
X103485078Y-43706405D01*
X103807310Y-43459147D01*
X103816145Y-43452961D01*
X104158700Y-43234730D01*
X104168045Y-43229335D01*
X104528305Y-43041795D01*
X104538079Y-43037237D01*
X104913330Y-42881803D01*
X104923462Y-42878116D01*
X105310815Y-42755984D01*
X105321244Y-42753189D01*
X105717781Y-42665278D01*
X105728411Y-42663404D01*
X106131091Y-42610391D01*
X106141824Y-42609451D01*
X106537126Y-42592193D01*
X106550298Y-42591618D01*
X106555706Y-42591500D01*
X106600595Y-42591500D01*
X147465998Y-42591500D01*
X147533037Y-42611185D01*
G37*
%TD.AperFunction*%
%TD*%
M02*
