%TF.GenerationSoftware,KiCad,Pcbnew,8.0.7*%
%TF.CreationDate,2025-01-22T16:07:48-05:00*%
%TF.ProjectId,companion,636f6d70-616e-4696-9f6e-2e6b69636164,rev?*%
%TF.SameCoordinates,Original*%
%TF.FileFunction,Legend,Top*%
%TF.FilePolarity,Positive*%
%FSLAX46Y46*%
G04 Gerber Fmt 4.6, Leading zero omitted, Abs format (unit mm)*
G04 Created by KiCad (PCBNEW 8.0.7) date 2025-01-22 16:07:48*
%MOMM*%
%LPD*%
G01*
G04 APERTURE LIST*
%ADD10C,0.762000*%
%ADD11C,0.152400*%
%ADD12C,0.203200*%
%ADD13C,0.150000*%
%ADD14C,0.120000*%
%ADD15C,0.000000*%
%ADD16C,0.010000*%
G04 APERTURE END LIST*
D10*
X122899713Y-94686954D02*
X124169713Y-98496954D01*
X124169713Y-98496954D02*
X125439713Y-94686954D01*
X126528284Y-97408383D02*
X128342570Y-97408383D01*
X126165427Y-98496954D02*
X127435427Y-94686954D01*
X127435427Y-94686954D02*
X128705427Y-98496954D01*
X129975426Y-94686954D02*
X129975426Y-97771240D01*
X129975426Y-97771240D02*
X130156855Y-98134097D01*
X130156855Y-98134097D02*
X130338284Y-98315526D01*
X130338284Y-98315526D02*
X130701141Y-98496954D01*
X130701141Y-98496954D02*
X131426855Y-98496954D01*
X131426855Y-98496954D02*
X131789712Y-98315526D01*
X131789712Y-98315526D02*
X131971141Y-98134097D01*
X131971141Y-98134097D02*
X132152569Y-97771240D01*
X132152569Y-97771240D02*
X132152569Y-94686954D01*
X133966855Y-98496954D02*
X133966855Y-94686954D01*
X133966855Y-94686954D02*
X134873998Y-94686954D01*
X134873998Y-94686954D02*
X135418284Y-94868383D01*
X135418284Y-94868383D02*
X135781141Y-95231240D01*
X135781141Y-95231240D02*
X135962570Y-95594097D01*
X135962570Y-95594097D02*
X136143998Y-96319811D01*
X136143998Y-96319811D02*
X136143998Y-96864097D01*
X136143998Y-96864097D02*
X135962570Y-97589811D01*
X135962570Y-97589811D02*
X135781141Y-97952668D01*
X135781141Y-97952668D02*
X135418284Y-98315526D01*
X135418284Y-98315526D02*
X134873998Y-98496954D01*
X134873998Y-98496954D02*
X133966855Y-98496954D01*
X137776855Y-96501240D02*
X139046855Y-96501240D01*
X139591141Y-98496954D02*
X137776855Y-98496954D01*
X137776855Y-98496954D02*
X137776855Y-94686954D01*
X137776855Y-94686954D02*
X139591141Y-94686954D01*
X141949713Y-94686954D02*
X142675427Y-94686954D01*
X142675427Y-94686954D02*
X143038284Y-94868383D01*
X143038284Y-94868383D02*
X143401141Y-95231240D01*
X143401141Y-95231240D02*
X143582570Y-95956954D01*
X143582570Y-95956954D02*
X143582570Y-97226954D01*
X143582570Y-97226954D02*
X143401141Y-97952668D01*
X143401141Y-97952668D02*
X143038284Y-98315526D01*
X143038284Y-98315526D02*
X142675427Y-98496954D01*
X142675427Y-98496954D02*
X141949713Y-98496954D01*
X141949713Y-98496954D02*
X141586856Y-98315526D01*
X141586856Y-98315526D02*
X141223998Y-97952668D01*
X141223998Y-97952668D02*
X141042570Y-97226954D01*
X141042570Y-97226954D02*
X141042570Y-95956954D01*
X141042570Y-95956954D02*
X141223998Y-95231240D01*
X141223998Y-95231240D02*
X141586856Y-94868383D01*
X141586856Y-94868383D02*
X141949713Y-94686954D01*
X150295427Y-98134097D02*
X150113999Y-98315526D01*
X150113999Y-98315526D02*
X149569713Y-98496954D01*
X149569713Y-98496954D02*
X149206856Y-98496954D01*
X149206856Y-98496954D02*
X148662570Y-98315526D01*
X148662570Y-98315526D02*
X148299713Y-97952668D01*
X148299713Y-97952668D02*
X148118284Y-97589811D01*
X148118284Y-97589811D02*
X147936856Y-96864097D01*
X147936856Y-96864097D02*
X147936856Y-96319811D01*
X147936856Y-96319811D02*
X148118284Y-95594097D01*
X148118284Y-95594097D02*
X148299713Y-95231240D01*
X148299713Y-95231240D02*
X148662570Y-94868383D01*
X148662570Y-94868383D02*
X149206856Y-94686954D01*
X149206856Y-94686954D02*
X149569713Y-94686954D01*
X149569713Y-94686954D02*
X150113999Y-94868383D01*
X150113999Y-94868383D02*
X150295427Y-95049811D01*
X152653999Y-94686954D02*
X153379713Y-94686954D01*
X153379713Y-94686954D02*
X153742570Y-94868383D01*
X153742570Y-94868383D02*
X154105427Y-95231240D01*
X154105427Y-95231240D02*
X154286856Y-95956954D01*
X154286856Y-95956954D02*
X154286856Y-97226954D01*
X154286856Y-97226954D02*
X154105427Y-97952668D01*
X154105427Y-97952668D02*
X153742570Y-98315526D01*
X153742570Y-98315526D02*
X153379713Y-98496954D01*
X153379713Y-98496954D02*
X152653999Y-98496954D01*
X152653999Y-98496954D02*
X152291142Y-98315526D01*
X152291142Y-98315526D02*
X151928284Y-97952668D01*
X151928284Y-97952668D02*
X151746856Y-97226954D01*
X151746856Y-97226954D02*
X151746856Y-95956954D01*
X151746856Y-95956954D02*
X151928284Y-95231240D01*
X151928284Y-95231240D02*
X152291142Y-94868383D01*
X152291142Y-94868383D02*
X152653999Y-94686954D01*
X155919713Y-98496954D02*
X155919713Y-94686954D01*
X155919713Y-94686954D02*
X157189713Y-97408383D01*
X157189713Y-97408383D02*
X158459713Y-94686954D01*
X158459713Y-94686954D02*
X158459713Y-98496954D01*
X160273999Y-98496954D02*
X160273999Y-94686954D01*
X160273999Y-94686954D02*
X161725428Y-94686954D01*
X161725428Y-94686954D02*
X162088285Y-94868383D01*
X162088285Y-94868383D02*
X162269714Y-95049811D01*
X162269714Y-95049811D02*
X162451142Y-95412668D01*
X162451142Y-95412668D02*
X162451142Y-95956954D01*
X162451142Y-95956954D02*
X162269714Y-96319811D01*
X162269714Y-96319811D02*
X162088285Y-96501240D01*
X162088285Y-96501240D02*
X161725428Y-96682668D01*
X161725428Y-96682668D02*
X160273999Y-96682668D01*
X163902571Y-97408383D02*
X165716857Y-97408383D01*
X163539714Y-98496954D02*
X164809714Y-94686954D01*
X164809714Y-94686954D02*
X166079714Y-98496954D01*
X167349713Y-98496954D02*
X167349713Y-94686954D01*
X167349713Y-94686954D02*
X169526856Y-98496954D01*
X169526856Y-98496954D02*
X169526856Y-94686954D01*
X171341142Y-98496954D02*
X171341142Y-94686954D01*
X173881143Y-94686954D02*
X174606857Y-94686954D01*
X174606857Y-94686954D02*
X174969714Y-94868383D01*
X174969714Y-94868383D02*
X175332571Y-95231240D01*
X175332571Y-95231240D02*
X175514000Y-95956954D01*
X175514000Y-95956954D02*
X175514000Y-97226954D01*
X175514000Y-97226954D02*
X175332571Y-97952668D01*
X175332571Y-97952668D02*
X174969714Y-98315526D01*
X174969714Y-98315526D02*
X174606857Y-98496954D01*
X174606857Y-98496954D02*
X173881143Y-98496954D01*
X173881143Y-98496954D02*
X173518286Y-98315526D01*
X173518286Y-98315526D02*
X173155428Y-97952668D01*
X173155428Y-97952668D02*
X172974000Y-97226954D01*
X172974000Y-97226954D02*
X172974000Y-95956954D01*
X172974000Y-95956954D02*
X173155428Y-95231240D01*
X173155428Y-95231240D02*
X173518286Y-94868383D01*
X173518286Y-94868383D02*
X173881143Y-94686954D01*
X177146857Y-98496954D02*
X177146857Y-94686954D01*
X177146857Y-94686954D02*
X179324000Y-98496954D01*
X179324000Y-98496954D02*
X179324000Y-94686954D01*
D11*
X137450286Y-100665095D02*
X137450286Y-99649095D01*
X137885715Y-100665095D02*
X137885715Y-100132905D01*
X137885715Y-100132905D02*
X137837334Y-100036143D01*
X137837334Y-100036143D02*
X137740572Y-99987762D01*
X137740572Y-99987762D02*
X137595429Y-99987762D01*
X137595429Y-99987762D02*
X137498667Y-100036143D01*
X137498667Y-100036143D02*
X137450286Y-100084524D01*
X138224381Y-99987762D02*
X138611429Y-99987762D01*
X138369524Y-99649095D02*
X138369524Y-100519953D01*
X138369524Y-100519953D02*
X138417905Y-100616715D01*
X138417905Y-100616715D02*
X138514667Y-100665095D01*
X138514667Y-100665095D02*
X138611429Y-100665095D01*
X138804952Y-99987762D02*
X139192000Y-99987762D01*
X138950095Y-99649095D02*
X138950095Y-100519953D01*
X138950095Y-100519953D02*
X138998476Y-100616715D01*
X138998476Y-100616715D02*
X139095238Y-100665095D01*
X139095238Y-100665095D02*
X139192000Y-100665095D01*
X139530666Y-99987762D02*
X139530666Y-101003762D01*
X139530666Y-100036143D02*
X139627428Y-99987762D01*
X139627428Y-99987762D02*
X139820952Y-99987762D01*
X139820952Y-99987762D02*
X139917714Y-100036143D01*
X139917714Y-100036143D02*
X139966095Y-100084524D01*
X139966095Y-100084524D02*
X140014476Y-100181286D01*
X140014476Y-100181286D02*
X140014476Y-100471572D01*
X140014476Y-100471572D02*
X139966095Y-100568334D01*
X139966095Y-100568334D02*
X139917714Y-100616715D01*
X139917714Y-100616715D02*
X139820952Y-100665095D01*
X139820952Y-100665095D02*
X139627428Y-100665095D01*
X139627428Y-100665095D02*
X139530666Y-100616715D01*
X140401523Y-100616715D02*
X140498285Y-100665095D01*
X140498285Y-100665095D02*
X140691809Y-100665095D01*
X140691809Y-100665095D02*
X140788571Y-100616715D01*
X140788571Y-100616715D02*
X140836952Y-100519953D01*
X140836952Y-100519953D02*
X140836952Y-100471572D01*
X140836952Y-100471572D02*
X140788571Y-100374810D01*
X140788571Y-100374810D02*
X140691809Y-100326429D01*
X140691809Y-100326429D02*
X140546666Y-100326429D01*
X140546666Y-100326429D02*
X140449904Y-100278048D01*
X140449904Y-100278048D02*
X140401523Y-100181286D01*
X140401523Y-100181286D02*
X140401523Y-100132905D01*
X140401523Y-100132905D02*
X140449904Y-100036143D01*
X140449904Y-100036143D02*
X140546666Y-99987762D01*
X140546666Y-99987762D02*
X140691809Y-99987762D01*
X140691809Y-99987762D02*
X140788571Y-100036143D01*
X141272380Y-100568334D02*
X141320761Y-100616715D01*
X141320761Y-100616715D02*
X141272380Y-100665095D01*
X141272380Y-100665095D02*
X141223999Y-100616715D01*
X141223999Y-100616715D02*
X141272380Y-100568334D01*
X141272380Y-100568334D02*
X141272380Y-100665095D01*
X141272380Y-100036143D02*
X141320761Y-100084524D01*
X141320761Y-100084524D02*
X141272380Y-100132905D01*
X141272380Y-100132905D02*
X141223999Y-100084524D01*
X141223999Y-100084524D02*
X141272380Y-100036143D01*
X141272380Y-100036143D02*
X141272380Y-100132905D01*
X142481905Y-99600715D02*
X141611047Y-100907000D01*
X143546286Y-99600715D02*
X142675428Y-100907000D01*
X144320381Y-99987762D02*
X144320381Y-100810238D01*
X144320381Y-100810238D02*
X144272000Y-100907000D01*
X144272000Y-100907000D02*
X144223619Y-100955381D01*
X144223619Y-100955381D02*
X144126857Y-101003762D01*
X144126857Y-101003762D02*
X143981714Y-101003762D01*
X143981714Y-101003762D02*
X143884952Y-100955381D01*
X144320381Y-100616715D02*
X144223619Y-100665095D01*
X144223619Y-100665095D02*
X144030095Y-100665095D01*
X144030095Y-100665095D02*
X143933333Y-100616715D01*
X143933333Y-100616715D02*
X143884952Y-100568334D01*
X143884952Y-100568334D02*
X143836571Y-100471572D01*
X143836571Y-100471572D02*
X143836571Y-100181286D01*
X143836571Y-100181286D02*
X143884952Y-100084524D01*
X143884952Y-100084524D02*
X143933333Y-100036143D01*
X143933333Y-100036143D02*
X144030095Y-99987762D01*
X144030095Y-99987762D02*
X144223619Y-99987762D01*
X144223619Y-99987762D02*
X144320381Y-100036143D01*
X144804190Y-100665095D02*
X144804190Y-99987762D01*
X144804190Y-99649095D02*
X144755809Y-99697476D01*
X144755809Y-99697476D02*
X144804190Y-99745857D01*
X144804190Y-99745857D02*
X144852571Y-99697476D01*
X144852571Y-99697476D02*
X144804190Y-99649095D01*
X144804190Y-99649095D02*
X144804190Y-99745857D01*
X145142857Y-99987762D02*
X145529905Y-99987762D01*
X145288000Y-99649095D02*
X145288000Y-100519953D01*
X145288000Y-100519953D02*
X145336381Y-100616715D01*
X145336381Y-100616715D02*
X145433143Y-100665095D01*
X145433143Y-100665095D02*
X145529905Y-100665095D01*
X145868571Y-100665095D02*
X145868571Y-99649095D01*
X146304000Y-100665095D02*
X146304000Y-100132905D01*
X146304000Y-100132905D02*
X146255619Y-100036143D01*
X146255619Y-100036143D02*
X146158857Y-99987762D01*
X146158857Y-99987762D02*
X146013714Y-99987762D01*
X146013714Y-99987762D02*
X145916952Y-100036143D01*
X145916952Y-100036143D02*
X145868571Y-100084524D01*
X147223238Y-99987762D02*
X147223238Y-100665095D01*
X146787809Y-99987762D02*
X146787809Y-100519953D01*
X146787809Y-100519953D02*
X146836190Y-100616715D01*
X146836190Y-100616715D02*
X146932952Y-100665095D01*
X146932952Y-100665095D02*
X147078095Y-100665095D01*
X147078095Y-100665095D02*
X147174857Y-100616715D01*
X147174857Y-100616715D02*
X147223238Y-100568334D01*
X147707047Y-100665095D02*
X147707047Y-99649095D01*
X147707047Y-100036143D02*
X147803809Y-99987762D01*
X147803809Y-99987762D02*
X147997333Y-99987762D01*
X147997333Y-99987762D02*
X148094095Y-100036143D01*
X148094095Y-100036143D02*
X148142476Y-100084524D01*
X148142476Y-100084524D02*
X148190857Y-100181286D01*
X148190857Y-100181286D02*
X148190857Y-100471572D01*
X148190857Y-100471572D02*
X148142476Y-100568334D01*
X148142476Y-100568334D02*
X148094095Y-100616715D01*
X148094095Y-100616715D02*
X147997333Y-100665095D01*
X147997333Y-100665095D02*
X147803809Y-100665095D01*
X147803809Y-100665095D02*
X147707047Y-100616715D01*
X148626285Y-100568334D02*
X148674666Y-100616715D01*
X148674666Y-100616715D02*
X148626285Y-100665095D01*
X148626285Y-100665095D02*
X148577904Y-100616715D01*
X148577904Y-100616715D02*
X148626285Y-100568334D01*
X148626285Y-100568334D02*
X148626285Y-100665095D01*
X149545524Y-100616715D02*
X149448762Y-100665095D01*
X149448762Y-100665095D02*
X149255238Y-100665095D01*
X149255238Y-100665095D02*
X149158476Y-100616715D01*
X149158476Y-100616715D02*
X149110095Y-100568334D01*
X149110095Y-100568334D02*
X149061714Y-100471572D01*
X149061714Y-100471572D02*
X149061714Y-100181286D01*
X149061714Y-100181286D02*
X149110095Y-100084524D01*
X149110095Y-100084524D02*
X149158476Y-100036143D01*
X149158476Y-100036143D02*
X149255238Y-99987762D01*
X149255238Y-99987762D02*
X149448762Y-99987762D01*
X149448762Y-99987762D02*
X149545524Y-100036143D01*
X150126095Y-100665095D02*
X150029333Y-100616715D01*
X150029333Y-100616715D02*
X149980952Y-100568334D01*
X149980952Y-100568334D02*
X149932571Y-100471572D01*
X149932571Y-100471572D02*
X149932571Y-100181286D01*
X149932571Y-100181286D02*
X149980952Y-100084524D01*
X149980952Y-100084524D02*
X150029333Y-100036143D01*
X150029333Y-100036143D02*
X150126095Y-99987762D01*
X150126095Y-99987762D02*
X150271238Y-99987762D01*
X150271238Y-99987762D02*
X150368000Y-100036143D01*
X150368000Y-100036143D02*
X150416381Y-100084524D01*
X150416381Y-100084524D02*
X150464762Y-100181286D01*
X150464762Y-100181286D02*
X150464762Y-100471572D01*
X150464762Y-100471572D02*
X150416381Y-100568334D01*
X150416381Y-100568334D02*
X150368000Y-100616715D01*
X150368000Y-100616715D02*
X150271238Y-100665095D01*
X150271238Y-100665095D02*
X150126095Y-100665095D01*
X150900190Y-100665095D02*
X150900190Y-99987762D01*
X150900190Y-100084524D02*
X150948571Y-100036143D01*
X150948571Y-100036143D02*
X151045333Y-99987762D01*
X151045333Y-99987762D02*
X151190476Y-99987762D01*
X151190476Y-99987762D02*
X151287238Y-100036143D01*
X151287238Y-100036143D02*
X151335619Y-100132905D01*
X151335619Y-100132905D02*
X151335619Y-100665095D01*
X151335619Y-100132905D02*
X151384000Y-100036143D01*
X151384000Y-100036143D02*
X151480762Y-99987762D01*
X151480762Y-99987762D02*
X151625905Y-99987762D01*
X151625905Y-99987762D02*
X151722666Y-100036143D01*
X151722666Y-100036143D02*
X151771047Y-100132905D01*
X151771047Y-100132905D02*
X151771047Y-100665095D01*
X152980572Y-99600715D02*
X152109714Y-100907000D01*
X153464381Y-100665095D02*
X153367619Y-100616715D01*
X153367619Y-100616715D02*
X153319238Y-100568334D01*
X153319238Y-100568334D02*
X153270857Y-100471572D01*
X153270857Y-100471572D02*
X153270857Y-100181286D01*
X153270857Y-100181286D02*
X153319238Y-100084524D01*
X153319238Y-100084524D02*
X153367619Y-100036143D01*
X153367619Y-100036143D02*
X153464381Y-99987762D01*
X153464381Y-99987762D02*
X153609524Y-99987762D01*
X153609524Y-99987762D02*
X153706286Y-100036143D01*
X153706286Y-100036143D02*
X153754667Y-100084524D01*
X153754667Y-100084524D02*
X153803048Y-100181286D01*
X153803048Y-100181286D02*
X153803048Y-100471572D01*
X153803048Y-100471572D02*
X153754667Y-100568334D01*
X153754667Y-100568334D02*
X153706286Y-100616715D01*
X153706286Y-100616715D02*
X153609524Y-100665095D01*
X153609524Y-100665095D02*
X153464381Y-100665095D01*
X154238476Y-100665095D02*
X154238476Y-99987762D01*
X154238476Y-100181286D02*
X154286857Y-100084524D01*
X154286857Y-100084524D02*
X154335238Y-100036143D01*
X154335238Y-100036143D02*
X154432000Y-99987762D01*
X154432000Y-99987762D02*
X154528762Y-99987762D01*
X154867428Y-100665095D02*
X154867428Y-99987762D01*
X154867428Y-99649095D02*
X154819047Y-99697476D01*
X154819047Y-99697476D02*
X154867428Y-99745857D01*
X154867428Y-99745857D02*
X154915809Y-99697476D01*
X154915809Y-99697476D02*
X154867428Y-99649095D01*
X154867428Y-99649095D02*
X154867428Y-99745857D01*
X155786667Y-100616715D02*
X155689905Y-100665095D01*
X155689905Y-100665095D02*
X155496381Y-100665095D01*
X155496381Y-100665095D02*
X155399619Y-100616715D01*
X155399619Y-100616715D02*
X155351238Y-100568334D01*
X155351238Y-100568334D02*
X155302857Y-100471572D01*
X155302857Y-100471572D02*
X155302857Y-100181286D01*
X155302857Y-100181286D02*
X155351238Y-100084524D01*
X155351238Y-100084524D02*
X155399619Y-100036143D01*
X155399619Y-100036143D02*
X155496381Y-99987762D01*
X155496381Y-99987762D02*
X155689905Y-99987762D01*
X155689905Y-99987762D02*
X155786667Y-100036143D01*
X156367238Y-100665095D02*
X156270476Y-100616715D01*
X156270476Y-100616715D02*
X156222095Y-100568334D01*
X156222095Y-100568334D02*
X156173714Y-100471572D01*
X156173714Y-100471572D02*
X156173714Y-100181286D01*
X156173714Y-100181286D02*
X156222095Y-100084524D01*
X156222095Y-100084524D02*
X156270476Y-100036143D01*
X156270476Y-100036143D02*
X156367238Y-99987762D01*
X156367238Y-99987762D02*
X156512381Y-99987762D01*
X156512381Y-99987762D02*
X156609143Y-100036143D01*
X156609143Y-100036143D02*
X156657524Y-100084524D01*
X156657524Y-100084524D02*
X156705905Y-100181286D01*
X156705905Y-100181286D02*
X156705905Y-100471572D01*
X156705905Y-100471572D02*
X156657524Y-100568334D01*
X156657524Y-100568334D02*
X156609143Y-100616715D01*
X156609143Y-100616715D02*
X156512381Y-100665095D01*
X156512381Y-100665095D02*
X156367238Y-100665095D01*
X157141333Y-100665095D02*
X157141333Y-99987762D01*
X157141333Y-100084524D02*
X157189714Y-100036143D01*
X157189714Y-100036143D02*
X157286476Y-99987762D01*
X157286476Y-99987762D02*
X157431619Y-99987762D01*
X157431619Y-99987762D02*
X157528381Y-100036143D01*
X157528381Y-100036143D02*
X157576762Y-100132905D01*
X157576762Y-100132905D02*
X157576762Y-100665095D01*
X157576762Y-100132905D02*
X157625143Y-100036143D01*
X157625143Y-100036143D02*
X157721905Y-99987762D01*
X157721905Y-99987762D02*
X157867048Y-99987762D01*
X157867048Y-99987762D02*
X157963809Y-100036143D01*
X157963809Y-100036143D02*
X158012190Y-100132905D01*
X158012190Y-100132905D02*
X158012190Y-100665095D01*
X158496000Y-99987762D02*
X158496000Y-101003762D01*
X158496000Y-100036143D02*
X158592762Y-99987762D01*
X158592762Y-99987762D02*
X158786286Y-99987762D01*
X158786286Y-99987762D02*
X158883048Y-100036143D01*
X158883048Y-100036143D02*
X158931429Y-100084524D01*
X158931429Y-100084524D02*
X158979810Y-100181286D01*
X158979810Y-100181286D02*
X158979810Y-100471572D01*
X158979810Y-100471572D02*
X158931429Y-100568334D01*
X158931429Y-100568334D02*
X158883048Y-100616715D01*
X158883048Y-100616715D02*
X158786286Y-100665095D01*
X158786286Y-100665095D02*
X158592762Y-100665095D01*
X158592762Y-100665095D02*
X158496000Y-100616715D01*
X160140953Y-99600715D02*
X159270095Y-100907000D01*
X160382857Y-99987762D02*
X160624762Y-100665095D01*
X160624762Y-100665095D02*
X160866667Y-99987762D01*
X161689143Y-100665095D02*
X161689143Y-100132905D01*
X161689143Y-100132905D02*
X161640762Y-100036143D01*
X161640762Y-100036143D02*
X161544000Y-99987762D01*
X161544000Y-99987762D02*
X161350476Y-99987762D01*
X161350476Y-99987762D02*
X161253714Y-100036143D01*
X161689143Y-100616715D02*
X161592381Y-100665095D01*
X161592381Y-100665095D02*
X161350476Y-100665095D01*
X161350476Y-100665095D02*
X161253714Y-100616715D01*
X161253714Y-100616715D02*
X161205333Y-100519953D01*
X161205333Y-100519953D02*
X161205333Y-100423191D01*
X161205333Y-100423191D02*
X161253714Y-100326429D01*
X161253714Y-100326429D02*
X161350476Y-100278048D01*
X161350476Y-100278048D02*
X161592381Y-100278048D01*
X161592381Y-100278048D02*
X161689143Y-100229667D01*
X162608381Y-99987762D02*
X162608381Y-100665095D01*
X162172952Y-99987762D02*
X162172952Y-100519953D01*
X162172952Y-100519953D02*
X162221333Y-100616715D01*
X162221333Y-100616715D02*
X162318095Y-100665095D01*
X162318095Y-100665095D02*
X162463238Y-100665095D01*
X162463238Y-100665095D02*
X162560000Y-100616715D01*
X162560000Y-100616715D02*
X162608381Y-100568334D01*
X163527619Y-100665095D02*
X163527619Y-99649095D01*
X163527619Y-100616715D02*
X163430857Y-100665095D01*
X163430857Y-100665095D02*
X163237333Y-100665095D01*
X163237333Y-100665095D02*
X163140571Y-100616715D01*
X163140571Y-100616715D02*
X163092190Y-100568334D01*
X163092190Y-100568334D02*
X163043809Y-100471572D01*
X163043809Y-100471572D02*
X163043809Y-100181286D01*
X163043809Y-100181286D02*
X163092190Y-100084524D01*
X163092190Y-100084524D02*
X163140571Y-100036143D01*
X163140571Y-100036143D02*
X163237333Y-99987762D01*
X163237333Y-99987762D02*
X163430857Y-99987762D01*
X163430857Y-99987762D02*
X163527619Y-100036143D01*
X164398476Y-100616715D02*
X164301714Y-100665095D01*
X164301714Y-100665095D02*
X164108190Y-100665095D01*
X164108190Y-100665095D02*
X164011428Y-100616715D01*
X164011428Y-100616715D02*
X163963047Y-100519953D01*
X163963047Y-100519953D02*
X163963047Y-100132905D01*
X163963047Y-100132905D02*
X164011428Y-100036143D01*
X164011428Y-100036143D02*
X164108190Y-99987762D01*
X164108190Y-99987762D02*
X164301714Y-99987762D01*
X164301714Y-99987762D02*
X164398476Y-100036143D01*
X164398476Y-100036143D02*
X164446857Y-100132905D01*
X164446857Y-100132905D02*
X164446857Y-100229667D01*
X164446857Y-100229667D02*
X163963047Y-100326429D01*
X165027428Y-100665095D02*
X164930666Y-100616715D01*
X164930666Y-100616715D02*
X164882285Y-100568334D01*
X164882285Y-100568334D02*
X164833904Y-100471572D01*
X164833904Y-100471572D02*
X164833904Y-100181286D01*
X164833904Y-100181286D02*
X164882285Y-100084524D01*
X164882285Y-100084524D02*
X164930666Y-100036143D01*
X164930666Y-100036143D02*
X165027428Y-99987762D01*
X165027428Y-99987762D02*
X165172571Y-99987762D01*
X165172571Y-99987762D02*
X165269333Y-100036143D01*
X165269333Y-100036143D02*
X165317714Y-100084524D01*
X165317714Y-100084524D02*
X165366095Y-100181286D01*
X165366095Y-100181286D02*
X165366095Y-100471572D01*
X165366095Y-100471572D02*
X165317714Y-100568334D01*
X165317714Y-100568334D02*
X165269333Y-100616715D01*
X165269333Y-100616715D02*
X165172571Y-100665095D01*
X165172571Y-100665095D02*
X165027428Y-100665095D01*
D12*
X115811905Y-103065959D02*
X115388571Y-102461197D01*
X115086190Y-103065959D02*
X115086190Y-101795959D01*
X115086190Y-101795959D02*
X115570000Y-101795959D01*
X115570000Y-101795959D02*
X115690952Y-101856435D01*
X115690952Y-101856435D02*
X115751429Y-101916911D01*
X115751429Y-101916911D02*
X115811905Y-102037863D01*
X115811905Y-102037863D02*
X115811905Y-102219292D01*
X115811905Y-102219292D02*
X115751429Y-102340244D01*
X115751429Y-102340244D02*
X115690952Y-102400721D01*
X115690952Y-102400721D02*
X115570000Y-102461197D01*
X115570000Y-102461197D02*
X115086190Y-102461197D01*
X116840000Y-103005483D02*
X116719048Y-103065959D01*
X116719048Y-103065959D02*
X116477143Y-103065959D01*
X116477143Y-103065959D02*
X116356190Y-103005483D01*
X116356190Y-103005483D02*
X116295714Y-102884530D01*
X116295714Y-102884530D02*
X116295714Y-102400721D01*
X116295714Y-102400721D02*
X116356190Y-102279768D01*
X116356190Y-102279768D02*
X116477143Y-102219292D01*
X116477143Y-102219292D02*
X116719048Y-102219292D01*
X116719048Y-102219292D02*
X116840000Y-102279768D01*
X116840000Y-102279768D02*
X116900476Y-102400721D01*
X116900476Y-102400721D02*
X116900476Y-102521673D01*
X116900476Y-102521673D02*
X116295714Y-102642625D01*
X117323809Y-102219292D02*
X117626190Y-103065959D01*
X117626190Y-103065959D02*
X117928571Y-102219292D01*
X119319523Y-102703102D02*
X119924285Y-102703102D01*
X119198571Y-103065959D02*
X119621904Y-101795959D01*
X119621904Y-101795959D02*
X120045238Y-103065959D01*
D13*
X161297580Y-54617857D02*
X161345200Y-54665476D01*
X161345200Y-54665476D02*
X161392819Y-54808333D01*
X161392819Y-54808333D02*
X161392819Y-54903571D01*
X161392819Y-54903571D02*
X161345200Y-55046428D01*
X161345200Y-55046428D02*
X161249961Y-55141666D01*
X161249961Y-55141666D02*
X161154723Y-55189285D01*
X161154723Y-55189285D02*
X160964247Y-55236904D01*
X160964247Y-55236904D02*
X160821390Y-55236904D01*
X160821390Y-55236904D02*
X160630914Y-55189285D01*
X160630914Y-55189285D02*
X160535676Y-55141666D01*
X160535676Y-55141666D02*
X160440438Y-55046428D01*
X160440438Y-55046428D02*
X160392819Y-54903571D01*
X160392819Y-54903571D02*
X160392819Y-54808333D01*
X160392819Y-54808333D02*
X160440438Y-54665476D01*
X160440438Y-54665476D02*
X160488057Y-54617857D01*
X161392819Y-53665476D02*
X161392819Y-54236904D01*
X161392819Y-53951190D02*
X160392819Y-53951190D01*
X160392819Y-53951190D02*
X160535676Y-54046428D01*
X160535676Y-54046428D02*
X160630914Y-54141666D01*
X160630914Y-54141666D02*
X160678533Y-54236904D01*
X161392819Y-52713095D02*
X161392819Y-53284523D01*
X161392819Y-52998809D02*
X160392819Y-52998809D01*
X160392819Y-52998809D02*
X160535676Y-53094047D01*
X160535676Y-53094047D02*
X160630914Y-53189285D01*
X160630914Y-53189285D02*
X160678533Y-53284523D01*
X150622095Y-66764819D02*
X150622095Y-67574342D01*
X150622095Y-67574342D02*
X150669714Y-67669580D01*
X150669714Y-67669580D02*
X150717333Y-67717200D01*
X150717333Y-67717200D02*
X150812571Y-67764819D01*
X150812571Y-67764819D02*
X151003047Y-67764819D01*
X151003047Y-67764819D02*
X151098285Y-67717200D01*
X151098285Y-67717200D02*
X151145904Y-67669580D01*
X151145904Y-67669580D02*
X151193523Y-67574342D01*
X151193523Y-67574342D02*
X151193523Y-66764819D01*
X151574476Y-66764819D02*
X152193523Y-66764819D01*
X152193523Y-66764819D02*
X151860190Y-67145771D01*
X151860190Y-67145771D02*
X152003047Y-67145771D01*
X152003047Y-67145771D02*
X152098285Y-67193390D01*
X152098285Y-67193390D02*
X152145904Y-67241009D01*
X152145904Y-67241009D02*
X152193523Y-67336247D01*
X152193523Y-67336247D02*
X152193523Y-67574342D01*
X152193523Y-67574342D02*
X152145904Y-67669580D01*
X152145904Y-67669580D02*
X152098285Y-67717200D01*
X152098285Y-67717200D02*
X152003047Y-67764819D01*
X152003047Y-67764819D02*
X151717333Y-67764819D01*
X151717333Y-67764819D02*
X151622095Y-67717200D01*
X151622095Y-67717200D02*
X151574476Y-67669580D01*
X156932333Y-84179580D02*
X156884714Y-84227200D01*
X156884714Y-84227200D02*
X156741857Y-84274819D01*
X156741857Y-84274819D02*
X156646619Y-84274819D01*
X156646619Y-84274819D02*
X156503762Y-84227200D01*
X156503762Y-84227200D02*
X156408524Y-84131961D01*
X156408524Y-84131961D02*
X156360905Y-84036723D01*
X156360905Y-84036723D02*
X156313286Y-83846247D01*
X156313286Y-83846247D02*
X156313286Y-83703390D01*
X156313286Y-83703390D02*
X156360905Y-83512914D01*
X156360905Y-83512914D02*
X156408524Y-83417676D01*
X156408524Y-83417676D02*
X156503762Y-83322438D01*
X156503762Y-83322438D02*
X156646619Y-83274819D01*
X156646619Y-83274819D02*
X156741857Y-83274819D01*
X156741857Y-83274819D02*
X156884714Y-83322438D01*
X156884714Y-83322438D02*
X156932333Y-83370057D01*
X157884714Y-84274819D02*
X157313286Y-84274819D01*
X157599000Y-84274819D02*
X157599000Y-83274819D01*
X157599000Y-83274819D02*
X157503762Y-83417676D01*
X157503762Y-83417676D02*
X157408524Y-83512914D01*
X157408524Y-83512914D02*
X157313286Y-83560533D01*
X139279333Y-77448580D02*
X139231714Y-77496200D01*
X139231714Y-77496200D02*
X139088857Y-77543819D01*
X139088857Y-77543819D02*
X138993619Y-77543819D01*
X138993619Y-77543819D02*
X138850762Y-77496200D01*
X138850762Y-77496200D02*
X138755524Y-77400961D01*
X138755524Y-77400961D02*
X138707905Y-77305723D01*
X138707905Y-77305723D02*
X138660286Y-77115247D01*
X138660286Y-77115247D02*
X138660286Y-76972390D01*
X138660286Y-76972390D02*
X138707905Y-76781914D01*
X138707905Y-76781914D02*
X138755524Y-76686676D01*
X138755524Y-76686676D02*
X138850762Y-76591438D01*
X138850762Y-76591438D02*
X138993619Y-76543819D01*
X138993619Y-76543819D02*
X139088857Y-76543819D01*
X139088857Y-76543819D02*
X139231714Y-76591438D01*
X139231714Y-76591438D02*
X139279333Y-76639057D01*
X139755524Y-77543819D02*
X139946000Y-77543819D01*
X139946000Y-77543819D02*
X140041238Y-77496200D01*
X140041238Y-77496200D02*
X140088857Y-77448580D01*
X140088857Y-77448580D02*
X140184095Y-77305723D01*
X140184095Y-77305723D02*
X140231714Y-77115247D01*
X140231714Y-77115247D02*
X140231714Y-76734295D01*
X140231714Y-76734295D02*
X140184095Y-76639057D01*
X140184095Y-76639057D02*
X140136476Y-76591438D01*
X140136476Y-76591438D02*
X140041238Y-76543819D01*
X140041238Y-76543819D02*
X139850762Y-76543819D01*
X139850762Y-76543819D02*
X139755524Y-76591438D01*
X139755524Y-76591438D02*
X139707905Y-76639057D01*
X139707905Y-76639057D02*
X139660286Y-76734295D01*
X139660286Y-76734295D02*
X139660286Y-76972390D01*
X139660286Y-76972390D02*
X139707905Y-77067628D01*
X139707905Y-77067628D02*
X139755524Y-77115247D01*
X139755524Y-77115247D02*
X139850762Y-77162866D01*
X139850762Y-77162866D02*
X140041238Y-77162866D01*
X140041238Y-77162866D02*
X140136476Y-77115247D01*
X140136476Y-77115247D02*
X140184095Y-77067628D01*
X140184095Y-77067628D02*
X140231714Y-76972390D01*
X160996333Y-84179580D02*
X160948714Y-84227200D01*
X160948714Y-84227200D02*
X160805857Y-84274819D01*
X160805857Y-84274819D02*
X160710619Y-84274819D01*
X160710619Y-84274819D02*
X160567762Y-84227200D01*
X160567762Y-84227200D02*
X160472524Y-84131961D01*
X160472524Y-84131961D02*
X160424905Y-84036723D01*
X160424905Y-84036723D02*
X160377286Y-83846247D01*
X160377286Y-83846247D02*
X160377286Y-83703390D01*
X160377286Y-83703390D02*
X160424905Y-83512914D01*
X160424905Y-83512914D02*
X160472524Y-83417676D01*
X160472524Y-83417676D02*
X160567762Y-83322438D01*
X160567762Y-83322438D02*
X160710619Y-83274819D01*
X160710619Y-83274819D02*
X160805857Y-83274819D01*
X160805857Y-83274819D02*
X160948714Y-83322438D01*
X160948714Y-83322438D02*
X160996333Y-83370057D01*
X161329667Y-83274819D02*
X161948714Y-83274819D01*
X161948714Y-83274819D02*
X161615381Y-83655771D01*
X161615381Y-83655771D02*
X161758238Y-83655771D01*
X161758238Y-83655771D02*
X161853476Y-83703390D01*
X161853476Y-83703390D02*
X161901095Y-83751009D01*
X161901095Y-83751009D02*
X161948714Y-83846247D01*
X161948714Y-83846247D02*
X161948714Y-84084342D01*
X161948714Y-84084342D02*
X161901095Y-84179580D01*
X161901095Y-84179580D02*
X161853476Y-84227200D01*
X161853476Y-84227200D02*
X161758238Y-84274819D01*
X161758238Y-84274819D02*
X161472524Y-84274819D01*
X161472524Y-84274819D02*
X161377286Y-84227200D01*
X161377286Y-84227200D02*
X161329667Y-84179580D01*
X198574819Y-55792666D02*
X198098628Y-56125999D01*
X198574819Y-56364094D02*
X197574819Y-56364094D01*
X197574819Y-56364094D02*
X197574819Y-55983142D01*
X197574819Y-55983142D02*
X197622438Y-55887904D01*
X197622438Y-55887904D02*
X197670057Y-55840285D01*
X197670057Y-55840285D02*
X197765295Y-55792666D01*
X197765295Y-55792666D02*
X197908152Y-55792666D01*
X197908152Y-55792666D02*
X198003390Y-55840285D01*
X198003390Y-55840285D02*
X198051009Y-55887904D01*
X198051009Y-55887904D02*
X198098628Y-55983142D01*
X198098628Y-55983142D02*
X198098628Y-56364094D01*
X197908152Y-54935523D02*
X198574819Y-54935523D01*
X197527200Y-55173618D02*
X198241485Y-55411713D01*
X198241485Y-55411713D02*
X198241485Y-54792666D01*
X151616580Y-53728857D02*
X151664200Y-53776476D01*
X151664200Y-53776476D02*
X151711819Y-53919333D01*
X151711819Y-53919333D02*
X151711819Y-54014571D01*
X151711819Y-54014571D02*
X151664200Y-54157428D01*
X151664200Y-54157428D02*
X151568961Y-54252666D01*
X151568961Y-54252666D02*
X151473723Y-54300285D01*
X151473723Y-54300285D02*
X151283247Y-54347904D01*
X151283247Y-54347904D02*
X151140390Y-54347904D01*
X151140390Y-54347904D02*
X150949914Y-54300285D01*
X150949914Y-54300285D02*
X150854676Y-54252666D01*
X150854676Y-54252666D02*
X150759438Y-54157428D01*
X150759438Y-54157428D02*
X150711819Y-54014571D01*
X150711819Y-54014571D02*
X150711819Y-53919333D01*
X150711819Y-53919333D02*
X150759438Y-53776476D01*
X150759438Y-53776476D02*
X150807057Y-53728857D01*
X151711819Y-52776476D02*
X151711819Y-53347904D01*
X151711819Y-53062190D02*
X150711819Y-53062190D01*
X150711819Y-53062190D02*
X150854676Y-53157428D01*
X150854676Y-53157428D02*
X150949914Y-53252666D01*
X150949914Y-53252666D02*
X150997533Y-53347904D01*
X150711819Y-52157428D02*
X150711819Y-52062190D01*
X150711819Y-52062190D02*
X150759438Y-51966952D01*
X150759438Y-51966952D02*
X150807057Y-51919333D01*
X150807057Y-51919333D02*
X150902295Y-51871714D01*
X150902295Y-51871714D02*
X151092771Y-51824095D01*
X151092771Y-51824095D02*
X151330866Y-51824095D01*
X151330866Y-51824095D02*
X151521342Y-51871714D01*
X151521342Y-51871714D02*
X151616580Y-51919333D01*
X151616580Y-51919333D02*
X151664200Y-51966952D01*
X151664200Y-51966952D02*
X151711819Y-52062190D01*
X151711819Y-52062190D02*
X151711819Y-52157428D01*
X151711819Y-52157428D02*
X151664200Y-52252666D01*
X151664200Y-52252666D02*
X151616580Y-52300285D01*
X151616580Y-52300285D02*
X151521342Y-52347904D01*
X151521342Y-52347904D02*
X151330866Y-52395523D01*
X151330866Y-52395523D02*
X151092771Y-52395523D01*
X151092771Y-52395523D02*
X150902295Y-52347904D01*
X150902295Y-52347904D02*
X150807057Y-52300285D01*
X150807057Y-52300285D02*
X150759438Y-52252666D01*
X150759438Y-52252666D02*
X150711819Y-52157428D01*
X166444819Y-53125666D02*
X165968628Y-53458999D01*
X166444819Y-53697094D02*
X165444819Y-53697094D01*
X165444819Y-53697094D02*
X165444819Y-53316142D01*
X165444819Y-53316142D02*
X165492438Y-53220904D01*
X165492438Y-53220904D02*
X165540057Y-53173285D01*
X165540057Y-53173285D02*
X165635295Y-53125666D01*
X165635295Y-53125666D02*
X165778152Y-53125666D01*
X165778152Y-53125666D02*
X165873390Y-53173285D01*
X165873390Y-53173285D02*
X165921009Y-53220904D01*
X165921009Y-53220904D02*
X165968628Y-53316142D01*
X165968628Y-53316142D02*
X165968628Y-53697094D01*
X165540057Y-52744713D02*
X165492438Y-52697094D01*
X165492438Y-52697094D02*
X165444819Y-52601856D01*
X165444819Y-52601856D02*
X165444819Y-52363761D01*
X165444819Y-52363761D02*
X165492438Y-52268523D01*
X165492438Y-52268523D02*
X165540057Y-52220904D01*
X165540057Y-52220904D02*
X165635295Y-52173285D01*
X165635295Y-52173285D02*
X165730533Y-52173285D01*
X165730533Y-52173285D02*
X165873390Y-52220904D01*
X165873390Y-52220904D02*
X166444819Y-52792332D01*
X166444819Y-52792332D02*
X166444819Y-52173285D01*
X144337830Y-88907857D02*
X144385450Y-88955476D01*
X144385450Y-88955476D02*
X144433069Y-89098333D01*
X144433069Y-89098333D02*
X144433069Y-89193571D01*
X144433069Y-89193571D02*
X144385450Y-89336428D01*
X144385450Y-89336428D02*
X144290211Y-89431666D01*
X144290211Y-89431666D02*
X144194973Y-89479285D01*
X144194973Y-89479285D02*
X144004497Y-89526904D01*
X144004497Y-89526904D02*
X143861640Y-89526904D01*
X143861640Y-89526904D02*
X143671164Y-89479285D01*
X143671164Y-89479285D02*
X143575926Y-89431666D01*
X143575926Y-89431666D02*
X143480688Y-89336428D01*
X143480688Y-89336428D02*
X143433069Y-89193571D01*
X143433069Y-89193571D02*
X143433069Y-89098333D01*
X143433069Y-89098333D02*
X143480688Y-88955476D01*
X143480688Y-88955476D02*
X143528307Y-88907857D01*
X144433069Y-87955476D02*
X144433069Y-88526904D01*
X144433069Y-88241190D02*
X143433069Y-88241190D01*
X143433069Y-88241190D02*
X143575926Y-88336428D01*
X143575926Y-88336428D02*
X143671164Y-88431666D01*
X143671164Y-88431666D02*
X143718783Y-88526904D01*
X143528307Y-87574523D02*
X143480688Y-87526904D01*
X143480688Y-87526904D02*
X143433069Y-87431666D01*
X143433069Y-87431666D02*
X143433069Y-87193571D01*
X143433069Y-87193571D02*
X143480688Y-87098333D01*
X143480688Y-87098333D02*
X143528307Y-87050714D01*
X143528307Y-87050714D02*
X143623545Y-87003095D01*
X143623545Y-87003095D02*
X143718783Y-87003095D01*
X143718783Y-87003095D02*
X143861640Y-87050714D01*
X143861640Y-87050714D02*
X144433069Y-87622142D01*
X144433069Y-87622142D02*
X144433069Y-87003095D01*
X149066059Y-85222128D02*
X149066059Y-85698319D01*
X148732726Y-84698319D02*
X149066059Y-85222128D01*
X149066059Y-85222128D02*
X149399392Y-84698319D01*
X150256535Y-85698319D02*
X149685107Y-85698319D01*
X149970821Y-85698319D02*
X149970821Y-84698319D01*
X149970821Y-84698319D02*
X149875583Y-84841176D01*
X149875583Y-84841176D02*
X149780345Y-84936414D01*
X149780345Y-84936414D02*
X149685107Y-84984033D01*
X143343333Y-77448580D02*
X143295714Y-77496200D01*
X143295714Y-77496200D02*
X143152857Y-77543819D01*
X143152857Y-77543819D02*
X143057619Y-77543819D01*
X143057619Y-77543819D02*
X142914762Y-77496200D01*
X142914762Y-77496200D02*
X142819524Y-77400961D01*
X142819524Y-77400961D02*
X142771905Y-77305723D01*
X142771905Y-77305723D02*
X142724286Y-77115247D01*
X142724286Y-77115247D02*
X142724286Y-76972390D01*
X142724286Y-76972390D02*
X142771905Y-76781914D01*
X142771905Y-76781914D02*
X142819524Y-76686676D01*
X142819524Y-76686676D02*
X142914762Y-76591438D01*
X142914762Y-76591438D02*
X143057619Y-76543819D01*
X143057619Y-76543819D02*
X143152857Y-76543819D01*
X143152857Y-76543819D02*
X143295714Y-76591438D01*
X143295714Y-76591438D02*
X143343333Y-76639057D01*
X144200476Y-76543819D02*
X144010000Y-76543819D01*
X144010000Y-76543819D02*
X143914762Y-76591438D01*
X143914762Y-76591438D02*
X143867143Y-76639057D01*
X143867143Y-76639057D02*
X143771905Y-76781914D01*
X143771905Y-76781914D02*
X143724286Y-76972390D01*
X143724286Y-76972390D02*
X143724286Y-77353342D01*
X143724286Y-77353342D02*
X143771905Y-77448580D01*
X143771905Y-77448580D02*
X143819524Y-77496200D01*
X143819524Y-77496200D02*
X143914762Y-77543819D01*
X143914762Y-77543819D02*
X144105238Y-77543819D01*
X144105238Y-77543819D02*
X144200476Y-77496200D01*
X144200476Y-77496200D02*
X144248095Y-77448580D01*
X144248095Y-77448580D02*
X144295714Y-77353342D01*
X144295714Y-77353342D02*
X144295714Y-77115247D01*
X144295714Y-77115247D02*
X144248095Y-77020009D01*
X144248095Y-77020009D02*
X144200476Y-76972390D01*
X144200476Y-76972390D02*
X144105238Y-76924771D01*
X144105238Y-76924771D02*
X143914762Y-76924771D01*
X143914762Y-76924771D02*
X143819524Y-76972390D01*
X143819524Y-76972390D02*
X143771905Y-77020009D01*
X143771905Y-77020009D02*
X143724286Y-77115247D01*
X146391333Y-65862580D02*
X146343714Y-65910200D01*
X146343714Y-65910200D02*
X146200857Y-65957819D01*
X146200857Y-65957819D02*
X146105619Y-65957819D01*
X146105619Y-65957819D02*
X145962762Y-65910200D01*
X145962762Y-65910200D02*
X145867524Y-65814961D01*
X145867524Y-65814961D02*
X145819905Y-65719723D01*
X145819905Y-65719723D02*
X145772286Y-65529247D01*
X145772286Y-65529247D02*
X145772286Y-65386390D01*
X145772286Y-65386390D02*
X145819905Y-65195914D01*
X145819905Y-65195914D02*
X145867524Y-65100676D01*
X145867524Y-65100676D02*
X145962762Y-65005438D01*
X145962762Y-65005438D02*
X146105619Y-64957819D01*
X146105619Y-64957819D02*
X146200857Y-64957819D01*
X146200857Y-64957819D02*
X146343714Y-65005438D01*
X146343714Y-65005438D02*
X146391333Y-65053057D01*
X146724667Y-64957819D02*
X147391333Y-64957819D01*
X147391333Y-64957819D02*
X146962762Y-65957819D01*
X161649580Y-70270666D02*
X161697200Y-70318285D01*
X161697200Y-70318285D02*
X161744819Y-70461142D01*
X161744819Y-70461142D02*
X161744819Y-70556380D01*
X161744819Y-70556380D02*
X161697200Y-70699237D01*
X161697200Y-70699237D02*
X161601961Y-70794475D01*
X161601961Y-70794475D02*
X161506723Y-70842094D01*
X161506723Y-70842094D02*
X161316247Y-70889713D01*
X161316247Y-70889713D02*
X161173390Y-70889713D01*
X161173390Y-70889713D02*
X160982914Y-70842094D01*
X160982914Y-70842094D02*
X160887676Y-70794475D01*
X160887676Y-70794475D02*
X160792438Y-70699237D01*
X160792438Y-70699237D02*
X160744819Y-70556380D01*
X160744819Y-70556380D02*
X160744819Y-70461142D01*
X160744819Y-70461142D02*
X160792438Y-70318285D01*
X160792438Y-70318285D02*
X160840057Y-70270666D01*
X160744819Y-69365904D02*
X160744819Y-69842094D01*
X160744819Y-69842094D02*
X161221009Y-69889713D01*
X161221009Y-69889713D02*
X161173390Y-69842094D01*
X161173390Y-69842094D02*
X161125771Y-69746856D01*
X161125771Y-69746856D02*
X161125771Y-69508761D01*
X161125771Y-69508761D02*
X161173390Y-69413523D01*
X161173390Y-69413523D02*
X161221009Y-69365904D01*
X161221009Y-69365904D02*
X161316247Y-69318285D01*
X161316247Y-69318285D02*
X161554342Y-69318285D01*
X161554342Y-69318285D02*
X161649580Y-69365904D01*
X161649580Y-69365904D02*
X161697200Y-69413523D01*
X161697200Y-69413523D02*
X161744819Y-69508761D01*
X161744819Y-69508761D02*
X161744819Y-69746856D01*
X161744819Y-69746856D02*
X161697200Y-69842094D01*
X161697200Y-69842094D02*
X161649580Y-69889713D01*
X105312819Y-55746666D02*
X104836628Y-56079999D01*
X105312819Y-56318094D02*
X104312819Y-56318094D01*
X104312819Y-56318094D02*
X104312819Y-55937142D01*
X104312819Y-55937142D02*
X104360438Y-55841904D01*
X104360438Y-55841904D02*
X104408057Y-55794285D01*
X104408057Y-55794285D02*
X104503295Y-55746666D01*
X104503295Y-55746666D02*
X104646152Y-55746666D01*
X104646152Y-55746666D02*
X104741390Y-55794285D01*
X104741390Y-55794285D02*
X104789009Y-55841904D01*
X104789009Y-55841904D02*
X104836628Y-55937142D01*
X104836628Y-55937142D02*
X104836628Y-56318094D01*
X104312819Y-55413332D02*
X104312819Y-54794285D01*
X104312819Y-54794285D02*
X104693771Y-55127618D01*
X104693771Y-55127618D02*
X104693771Y-54984761D01*
X104693771Y-54984761D02*
X104741390Y-54889523D01*
X104741390Y-54889523D02*
X104789009Y-54841904D01*
X104789009Y-54841904D02*
X104884247Y-54794285D01*
X104884247Y-54794285D02*
X105122342Y-54794285D01*
X105122342Y-54794285D02*
X105217580Y-54841904D01*
X105217580Y-54841904D02*
X105265200Y-54889523D01*
X105265200Y-54889523D02*
X105312819Y-54984761D01*
X105312819Y-54984761D02*
X105312819Y-55270475D01*
X105312819Y-55270475D02*
X105265200Y-55365713D01*
X105265200Y-55365713D02*
X105217580Y-55413332D01*
X198574819Y-61125094D02*
X197574819Y-61125094D01*
X197574819Y-61125094D02*
X197574819Y-60886999D01*
X197574819Y-60886999D02*
X197622438Y-60744142D01*
X197622438Y-60744142D02*
X197717676Y-60648904D01*
X197717676Y-60648904D02*
X197812914Y-60601285D01*
X197812914Y-60601285D02*
X198003390Y-60553666D01*
X198003390Y-60553666D02*
X198146247Y-60553666D01*
X198146247Y-60553666D02*
X198336723Y-60601285D01*
X198336723Y-60601285D02*
X198431961Y-60648904D01*
X198431961Y-60648904D02*
X198527200Y-60744142D01*
X198527200Y-60744142D02*
X198574819Y-60886999D01*
X198574819Y-60886999D02*
X198574819Y-61125094D01*
X197670057Y-60172713D02*
X197622438Y-60125094D01*
X197622438Y-60125094D02*
X197574819Y-60029856D01*
X197574819Y-60029856D02*
X197574819Y-59791761D01*
X197574819Y-59791761D02*
X197622438Y-59696523D01*
X197622438Y-59696523D02*
X197670057Y-59648904D01*
X197670057Y-59648904D02*
X197765295Y-59601285D01*
X197765295Y-59601285D02*
X197860533Y-59601285D01*
X197860533Y-59601285D02*
X198003390Y-59648904D01*
X198003390Y-59648904D02*
X198574819Y-60220332D01*
X198574819Y-60220332D02*
X198574819Y-59601285D01*
X155789333Y-57857819D02*
X155456000Y-57381628D01*
X155217905Y-57857819D02*
X155217905Y-56857819D01*
X155217905Y-56857819D02*
X155598857Y-56857819D01*
X155598857Y-56857819D02*
X155694095Y-56905438D01*
X155694095Y-56905438D02*
X155741714Y-56953057D01*
X155741714Y-56953057D02*
X155789333Y-57048295D01*
X155789333Y-57048295D02*
X155789333Y-57191152D01*
X155789333Y-57191152D02*
X155741714Y-57286390D01*
X155741714Y-57286390D02*
X155694095Y-57334009D01*
X155694095Y-57334009D02*
X155598857Y-57381628D01*
X155598857Y-57381628D02*
X155217905Y-57381628D01*
X156741714Y-57857819D02*
X156170286Y-57857819D01*
X156456000Y-57857819D02*
X156456000Y-56857819D01*
X156456000Y-56857819D02*
X156360762Y-57000676D01*
X156360762Y-57000676D02*
X156265524Y-57095914D01*
X156265524Y-57095914D02*
X156170286Y-57143533D01*
X141311333Y-77448580D02*
X141263714Y-77496200D01*
X141263714Y-77496200D02*
X141120857Y-77543819D01*
X141120857Y-77543819D02*
X141025619Y-77543819D01*
X141025619Y-77543819D02*
X140882762Y-77496200D01*
X140882762Y-77496200D02*
X140787524Y-77400961D01*
X140787524Y-77400961D02*
X140739905Y-77305723D01*
X140739905Y-77305723D02*
X140692286Y-77115247D01*
X140692286Y-77115247D02*
X140692286Y-76972390D01*
X140692286Y-76972390D02*
X140739905Y-76781914D01*
X140739905Y-76781914D02*
X140787524Y-76686676D01*
X140787524Y-76686676D02*
X140882762Y-76591438D01*
X140882762Y-76591438D02*
X141025619Y-76543819D01*
X141025619Y-76543819D02*
X141120857Y-76543819D01*
X141120857Y-76543819D02*
X141263714Y-76591438D01*
X141263714Y-76591438D02*
X141311333Y-76639057D01*
X141882762Y-76972390D02*
X141787524Y-76924771D01*
X141787524Y-76924771D02*
X141739905Y-76877152D01*
X141739905Y-76877152D02*
X141692286Y-76781914D01*
X141692286Y-76781914D02*
X141692286Y-76734295D01*
X141692286Y-76734295D02*
X141739905Y-76639057D01*
X141739905Y-76639057D02*
X141787524Y-76591438D01*
X141787524Y-76591438D02*
X141882762Y-76543819D01*
X141882762Y-76543819D02*
X142073238Y-76543819D01*
X142073238Y-76543819D02*
X142168476Y-76591438D01*
X142168476Y-76591438D02*
X142216095Y-76639057D01*
X142216095Y-76639057D02*
X142263714Y-76734295D01*
X142263714Y-76734295D02*
X142263714Y-76781914D01*
X142263714Y-76781914D02*
X142216095Y-76877152D01*
X142216095Y-76877152D02*
X142168476Y-76924771D01*
X142168476Y-76924771D02*
X142073238Y-76972390D01*
X142073238Y-76972390D02*
X141882762Y-76972390D01*
X141882762Y-76972390D02*
X141787524Y-77020009D01*
X141787524Y-77020009D02*
X141739905Y-77067628D01*
X141739905Y-77067628D02*
X141692286Y-77162866D01*
X141692286Y-77162866D02*
X141692286Y-77353342D01*
X141692286Y-77353342D02*
X141739905Y-77448580D01*
X141739905Y-77448580D02*
X141787524Y-77496200D01*
X141787524Y-77496200D02*
X141882762Y-77543819D01*
X141882762Y-77543819D02*
X142073238Y-77543819D01*
X142073238Y-77543819D02*
X142168476Y-77496200D01*
X142168476Y-77496200D02*
X142216095Y-77448580D01*
X142216095Y-77448580D02*
X142263714Y-77353342D01*
X142263714Y-77353342D02*
X142263714Y-77162866D01*
X142263714Y-77162866D02*
X142216095Y-77067628D01*
X142216095Y-77067628D02*
X142168476Y-77020009D01*
X142168476Y-77020009D02*
X142073238Y-76972390D01*
X155326595Y-50079819D02*
X155326595Y-50889342D01*
X155326595Y-50889342D02*
X155374214Y-50984580D01*
X155374214Y-50984580D02*
X155421833Y-51032200D01*
X155421833Y-51032200D02*
X155517071Y-51079819D01*
X155517071Y-51079819D02*
X155707547Y-51079819D01*
X155707547Y-51079819D02*
X155802785Y-51032200D01*
X155802785Y-51032200D02*
X155850404Y-50984580D01*
X155850404Y-50984580D02*
X155898023Y-50889342D01*
X155898023Y-50889342D02*
X155898023Y-50079819D01*
X156326595Y-50175057D02*
X156374214Y-50127438D01*
X156374214Y-50127438D02*
X156469452Y-50079819D01*
X156469452Y-50079819D02*
X156707547Y-50079819D01*
X156707547Y-50079819D02*
X156802785Y-50127438D01*
X156802785Y-50127438D02*
X156850404Y-50175057D01*
X156850404Y-50175057D02*
X156898023Y-50270295D01*
X156898023Y-50270295D02*
X156898023Y-50365533D01*
X156898023Y-50365533D02*
X156850404Y-50508390D01*
X156850404Y-50508390D02*
X156278976Y-51079819D01*
X156278976Y-51079819D02*
X156898023Y-51079819D01*
X158964333Y-84179580D02*
X158916714Y-84227200D01*
X158916714Y-84227200D02*
X158773857Y-84274819D01*
X158773857Y-84274819D02*
X158678619Y-84274819D01*
X158678619Y-84274819D02*
X158535762Y-84227200D01*
X158535762Y-84227200D02*
X158440524Y-84131961D01*
X158440524Y-84131961D02*
X158392905Y-84036723D01*
X158392905Y-84036723D02*
X158345286Y-83846247D01*
X158345286Y-83846247D02*
X158345286Y-83703390D01*
X158345286Y-83703390D02*
X158392905Y-83512914D01*
X158392905Y-83512914D02*
X158440524Y-83417676D01*
X158440524Y-83417676D02*
X158535762Y-83322438D01*
X158535762Y-83322438D02*
X158678619Y-83274819D01*
X158678619Y-83274819D02*
X158773857Y-83274819D01*
X158773857Y-83274819D02*
X158916714Y-83322438D01*
X158916714Y-83322438D02*
X158964333Y-83370057D01*
X159345286Y-83370057D02*
X159392905Y-83322438D01*
X159392905Y-83322438D02*
X159488143Y-83274819D01*
X159488143Y-83274819D02*
X159726238Y-83274819D01*
X159726238Y-83274819D02*
X159821476Y-83322438D01*
X159821476Y-83322438D02*
X159869095Y-83370057D01*
X159869095Y-83370057D02*
X159916714Y-83465295D01*
X159916714Y-83465295D02*
X159916714Y-83560533D01*
X159916714Y-83560533D02*
X159869095Y-83703390D01*
X159869095Y-83703390D02*
X159297667Y-84274819D01*
X159297667Y-84274819D02*
X159916714Y-84274819D01*
X105184819Y-61063094D02*
X104184819Y-61063094D01*
X104184819Y-61063094D02*
X104184819Y-60824999D01*
X104184819Y-60824999D02*
X104232438Y-60682142D01*
X104232438Y-60682142D02*
X104327676Y-60586904D01*
X104327676Y-60586904D02*
X104422914Y-60539285D01*
X104422914Y-60539285D02*
X104613390Y-60491666D01*
X104613390Y-60491666D02*
X104756247Y-60491666D01*
X104756247Y-60491666D02*
X104946723Y-60539285D01*
X104946723Y-60539285D02*
X105041961Y-60586904D01*
X105041961Y-60586904D02*
X105137200Y-60682142D01*
X105137200Y-60682142D02*
X105184819Y-60824999D01*
X105184819Y-60824999D02*
X105184819Y-61063094D01*
X105184819Y-59539285D02*
X105184819Y-60110713D01*
X105184819Y-59824999D02*
X104184819Y-59824999D01*
X104184819Y-59824999D02*
X104327676Y-59920237D01*
X104327676Y-59920237D02*
X104422914Y-60015475D01*
X104422914Y-60015475D02*
X104470533Y-60110713D01*
X155444830Y-88780857D02*
X155492450Y-88828476D01*
X155492450Y-88828476D02*
X155540069Y-88971333D01*
X155540069Y-88971333D02*
X155540069Y-89066571D01*
X155540069Y-89066571D02*
X155492450Y-89209428D01*
X155492450Y-89209428D02*
X155397211Y-89304666D01*
X155397211Y-89304666D02*
X155301973Y-89352285D01*
X155301973Y-89352285D02*
X155111497Y-89399904D01*
X155111497Y-89399904D02*
X154968640Y-89399904D01*
X154968640Y-89399904D02*
X154778164Y-89352285D01*
X154778164Y-89352285D02*
X154682926Y-89304666D01*
X154682926Y-89304666D02*
X154587688Y-89209428D01*
X154587688Y-89209428D02*
X154540069Y-89066571D01*
X154540069Y-89066571D02*
X154540069Y-88971333D01*
X154540069Y-88971333D02*
X154587688Y-88828476D01*
X154587688Y-88828476D02*
X154635307Y-88780857D01*
X155540069Y-87828476D02*
X155540069Y-88399904D01*
X155540069Y-88114190D02*
X154540069Y-88114190D01*
X154540069Y-88114190D02*
X154682926Y-88209428D01*
X154682926Y-88209428D02*
X154778164Y-88304666D01*
X154778164Y-88304666D02*
X154825783Y-88399904D01*
X154540069Y-87495142D02*
X154540069Y-86876095D01*
X154540069Y-86876095D02*
X154921021Y-87209428D01*
X154921021Y-87209428D02*
X154921021Y-87066571D01*
X154921021Y-87066571D02*
X154968640Y-86971333D01*
X154968640Y-86971333D02*
X155016259Y-86923714D01*
X155016259Y-86923714D02*
X155111497Y-86876095D01*
X155111497Y-86876095D02*
X155349592Y-86876095D01*
X155349592Y-86876095D02*
X155444830Y-86923714D01*
X155444830Y-86923714D02*
X155492450Y-86971333D01*
X155492450Y-86971333D02*
X155540069Y-87066571D01*
X155540069Y-87066571D02*
X155540069Y-87352285D01*
X155540069Y-87352285D02*
X155492450Y-87447523D01*
X155492450Y-87447523D02*
X155444830Y-87495142D01*
X161551580Y-79160666D02*
X161599200Y-79208285D01*
X161599200Y-79208285D02*
X161646819Y-79351142D01*
X161646819Y-79351142D02*
X161646819Y-79446380D01*
X161646819Y-79446380D02*
X161599200Y-79589237D01*
X161599200Y-79589237D02*
X161503961Y-79684475D01*
X161503961Y-79684475D02*
X161408723Y-79732094D01*
X161408723Y-79732094D02*
X161218247Y-79779713D01*
X161218247Y-79779713D02*
X161075390Y-79779713D01*
X161075390Y-79779713D02*
X160884914Y-79732094D01*
X160884914Y-79732094D02*
X160789676Y-79684475D01*
X160789676Y-79684475D02*
X160694438Y-79589237D01*
X160694438Y-79589237D02*
X160646819Y-79446380D01*
X160646819Y-79446380D02*
X160646819Y-79351142D01*
X160646819Y-79351142D02*
X160694438Y-79208285D01*
X160694438Y-79208285D02*
X160742057Y-79160666D01*
X160980152Y-78303523D02*
X161646819Y-78303523D01*
X160599200Y-78541618D02*
X161313485Y-78779713D01*
X161313485Y-78779713D02*
X161313485Y-78160666D01*
D14*
%TO.C,C11*%
X158523000Y-52846248D02*
X158523000Y-53368752D01*
X159993000Y-52846248D02*
X159993000Y-53368752D01*
%TO.C,U3*%
X146274000Y-69820000D02*
X147224000Y-69820000D01*
X146274000Y-70770000D02*
X146274000Y-69820000D01*
X146274000Y-79090000D02*
X146274000Y-80040000D01*
X146274000Y-80040000D02*
X147224000Y-80040000D01*
X156494000Y-69820000D02*
X155544000Y-69820000D01*
X156494000Y-70770000D02*
X156494000Y-69820000D01*
X156494000Y-79090000D02*
X156494000Y-80040000D01*
X156494000Y-80040000D02*
X155544000Y-80040000D01*
X147224000Y-80655000D02*
X146754000Y-80995000D01*
X146754000Y-80315000D01*
X147224000Y-80655000D01*
G36*
X147224000Y-80655000D02*
G01*
X146754000Y-80995000D01*
X146754000Y-80315000D01*
X147224000Y-80655000D01*
G37*
D15*
%TO.C,G\u002A\u002A\u002A*%
G36*
X118257048Y-76551211D02*
G01*
X118380329Y-76610768D01*
X118573317Y-76705357D01*
X118828289Y-76831153D01*
X119137521Y-76984335D01*
X119493291Y-77161076D01*
X119887876Y-77357555D01*
X120313553Y-77569947D01*
X120617471Y-77721832D01*
X122999744Y-78913157D01*
X120653003Y-80084214D01*
X120212258Y-80304485D01*
X119796356Y-80512984D01*
X119413256Y-80705678D01*
X119070917Y-80878532D01*
X118777298Y-81027513D01*
X118540356Y-81148587D01*
X118368051Y-81237721D01*
X118268341Y-81290881D01*
X118246730Y-81303784D01*
X118232939Y-81297842D01*
X118221323Y-81251406D01*
X118211719Y-81158064D01*
X118203966Y-81011404D01*
X118197904Y-80805016D01*
X118193369Y-80532487D01*
X118190201Y-80187405D01*
X118188238Y-79763359D01*
X118187318Y-79253937D01*
X118187198Y-78941402D01*
X118187657Y-78472282D01*
X118188975Y-78033290D01*
X118191063Y-77633387D01*
X118193832Y-77281536D01*
X118197191Y-76986697D01*
X118201053Y-76757832D01*
X118205328Y-76603903D01*
X118209926Y-76533871D01*
X118211198Y-76530508D01*
X118257048Y-76551211D01*
G37*
G36*
X112505087Y-73497937D02*
G01*
X112693052Y-73516231D01*
X112756221Y-73529084D01*
X112979857Y-73632286D01*
X113177881Y-73800503D01*
X113323376Y-74007285D01*
X113373377Y-74135536D01*
X113382860Y-74204812D01*
X113391119Y-74339544D01*
X113398177Y-74542646D01*
X113404057Y-74817031D01*
X113408782Y-75165613D01*
X113412376Y-75591308D01*
X113414862Y-76097028D01*
X113416263Y-76685686D01*
X113416603Y-77360198D01*
X113415905Y-78123477D01*
X113414191Y-78978436D01*
X113413673Y-79182058D01*
X113400885Y-84031446D01*
X113291192Y-84222763D01*
X113180387Y-84373229D01*
X113042636Y-84507318D01*
X113009054Y-84532326D01*
X112934514Y-84579480D01*
X112859367Y-84612409D01*
X112764810Y-84633919D01*
X112632041Y-84646817D01*
X112442255Y-84653911D01*
X112176650Y-84658004D01*
X112166248Y-84658123D01*
X111887584Y-84658181D01*
X111609789Y-84652900D01*
X111363182Y-84643180D01*
X111178080Y-84629925D01*
X111162510Y-84628259D01*
X110572153Y-84523708D01*
X110040560Y-84347193D01*
X109559943Y-84094894D01*
X109122512Y-83762987D01*
X108848378Y-83492718D01*
X108483476Y-83040192D01*
X108205771Y-82564746D01*
X108007556Y-82051635D01*
X107924701Y-81724916D01*
X107904974Y-81578908D01*
X107888060Y-81350095D01*
X107873951Y-81050875D01*
X107862640Y-80693653D01*
X107854121Y-80290828D01*
X107848386Y-79854804D01*
X107845430Y-79397980D01*
X107845244Y-78932761D01*
X107847824Y-78471545D01*
X107853161Y-78026736D01*
X107861249Y-77610736D01*
X107872081Y-77235944D01*
X107885651Y-76914763D01*
X107901952Y-76659595D01*
X107920976Y-76482843D01*
X107927579Y-76445157D01*
X108065049Y-75976592D01*
X108279896Y-75505982D01*
X108557640Y-75056491D01*
X108883808Y-74651284D01*
X109243919Y-74313520D01*
X109275208Y-74288988D01*
X109586919Y-74076898D01*
X109946892Y-73877848D01*
X110316712Y-73711205D01*
X110638636Y-73601516D01*
X110814086Y-73567038D01*
X111055691Y-73537897D01*
X111341995Y-73514827D01*
X111651542Y-73498562D01*
X111962876Y-73489837D01*
X112254543Y-73489383D01*
X112505087Y-73497937D01*
G37*
G36*
X129288740Y-73495518D02*
G01*
X129603740Y-73507740D01*
X129930033Y-73530035D01*
X130246888Y-73561420D01*
X130533574Y-73600912D01*
X130675707Y-73626707D01*
X131220586Y-73784391D01*
X131724551Y-74025123D01*
X132181412Y-74343256D01*
X132584979Y-74733141D01*
X132929060Y-75189130D01*
X133207466Y-75705579D01*
X133348151Y-76064727D01*
X133498084Y-76506696D01*
X133512733Y-78908961D01*
X133515767Y-79466733D01*
X133517372Y-79938151D01*
X133517352Y-80332108D01*
X133515508Y-80657489D01*
X133511642Y-80923186D01*
X133505558Y-81138088D01*
X133497058Y-81311085D01*
X133485943Y-81451064D01*
X133472018Y-81566917D01*
X133455084Y-81667532D01*
X133450981Y-81688279D01*
X133290085Y-82249546D01*
X133046212Y-82770792D01*
X132725570Y-83245435D01*
X132334370Y-83666895D01*
X131878822Y-84028588D01*
X131365135Y-84323935D01*
X130799519Y-84546351D01*
X130736384Y-84565497D01*
X130563434Y-84599152D01*
X130296470Y-84625995D01*
X129936490Y-84645947D01*
X129593384Y-84656636D01*
X129271829Y-84663214D01*
X129029892Y-84665338D01*
X128852003Y-84662027D01*
X128722592Y-84652300D01*
X128626090Y-84635174D01*
X128546929Y-84609671D01*
X128496039Y-84587502D01*
X128267350Y-84434458D01*
X128091587Y-84224341D01*
X128000042Y-84018061D01*
X127991564Y-83939843D01*
X127983856Y-83774323D01*
X127976915Y-83529446D01*
X127970740Y-83213157D01*
X127965326Y-82833400D01*
X127960672Y-82398121D01*
X127956775Y-81915262D01*
X127953632Y-81392772D01*
X127951240Y-80838592D01*
X127949597Y-80260671D01*
X127948699Y-79666949D01*
X127948544Y-79065374D01*
X127949129Y-78463890D01*
X127950453Y-77870441D01*
X127952511Y-77292973D01*
X127955301Y-76739431D01*
X127958822Y-76217758D01*
X127963068Y-75735901D01*
X127968038Y-75301804D01*
X127973730Y-74923413D01*
X127980140Y-74608669D01*
X127987265Y-74365520D01*
X127995104Y-74201910D01*
X128003442Y-74126521D01*
X128104973Y-73916257D01*
X128273762Y-73725979D01*
X128482072Y-73582615D01*
X128618798Y-73529128D01*
X128775539Y-73505229D01*
X129005762Y-73494353D01*
X129288740Y-73495518D01*
G37*
G36*
X121847695Y-65368454D02*
G01*
X122785520Y-65498062D01*
X123699671Y-65716957D01*
X124366103Y-65937412D01*
X124638500Y-66047964D01*
X124965051Y-66195654D01*
X125319163Y-66367102D01*
X125674244Y-66548926D01*
X126003698Y-66727750D01*
X126280934Y-66890189D01*
X126362600Y-66941928D01*
X127206652Y-67547791D01*
X127997918Y-68229383D01*
X128729661Y-68979052D01*
X129395141Y-69789146D01*
X129987620Y-70652015D01*
X130500362Y-71560006D01*
X130591706Y-71744197D01*
X130709418Y-71988418D01*
X130813532Y-72207078D01*
X130896395Y-72383891D01*
X130950350Y-72502570D01*
X130966677Y-72541916D01*
X130970442Y-72569452D01*
X130952627Y-72590173D01*
X130901816Y-72605038D01*
X130806591Y-72615011D01*
X130655537Y-72621052D01*
X130437238Y-72624121D01*
X130140276Y-72625182D01*
X129976882Y-72625260D01*
X128958432Y-72625260D01*
X128614990Y-72067616D01*
X128049575Y-71225965D01*
X127442618Y-70469825D01*
X126793757Y-69798816D01*
X126102625Y-69212557D01*
X125424367Y-68744767D01*
X124650517Y-68314553D01*
X123849602Y-67963936D01*
X123030920Y-67695270D01*
X122203772Y-67510912D01*
X121377453Y-67413218D01*
X120561266Y-67404544D01*
X120226849Y-67427720D01*
X119426369Y-67532039D01*
X118685252Y-67692307D01*
X117981588Y-67914802D01*
X117293470Y-68205799D01*
X116998947Y-68352488D01*
X116521229Y-68614309D01*
X116094404Y-68880174D01*
X115695587Y-69167110D01*
X115301894Y-69492151D01*
X114890438Y-69872327D01*
X114684125Y-70075183D01*
X114135875Y-70657734D01*
X113665261Y-71234745D01*
X113257724Y-71824605D01*
X113118085Y-72053041D01*
X113006180Y-72239794D01*
X112906989Y-72400578D01*
X112833582Y-72514462D01*
X112804736Y-72554830D01*
X112769993Y-72578834D01*
X112703171Y-72596899D01*
X112592582Y-72609794D01*
X112426544Y-72618283D01*
X112193373Y-72623130D01*
X111881384Y-72625103D01*
X111729985Y-72625260D01*
X110713685Y-72625260D01*
X110881807Y-72232354D01*
X111256904Y-71454201D01*
X111713094Y-70675224D01*
X112237877Y-69912289D01*
X112818750Y-69182261D01*
X113443215Y-68502007D01*
X114098771Y-67888392D01*
X114106065Y-67882114D01*
X114910953Y-67248259D01*
X115746881Y-66704339D01*
X116613470Y-66250495D01*
X117510347Y-65886869D01*
X118437134Y-65613604D01*
X119393456Y-65430839D01*
X120378937Y-65338719D01*
X120878009Y-65326702D01*
X121847695Y-65368454D01*
G37*
G36*
X127093072Y-78911758D02*
G01*
X127093072Y-83769508D01*
X120592260Y-83769508D01*
X114091448Y-83769508D01*
X114091448Y-82140466D01*
X114901073Y-82140466D01*
X114902969Y-82408152D01*
X114908218Y-82642087D01*
X114916165Y-82825876D01*
X114926152Y-82943120D01*
X114934592Y-82977528D01*
X114994889Y-82991588D01*
X115125171Y-82999106D01*
X115300322Y-82998886D01*
X115351310Y-82997371D01*
X115734510Y-82983696D01*
X115734510Y-82174071D01*
X115734510Y-81364446D01*
X115317792Y-81350686D01*
X114901073Y-81336925D01*
X114901073Y-82140466D01*
X114091448Y-82140466D01*
X114091448Y-81336925D01*
X114091448Y-78911758D01*
X114901073Y-78911758D01*
X114901073Y-79721383D01*
X115329698Y-79721383D01*
X115758323Y-79721383D01*
X115758323Y-78911758D01*
X115758323Y-78903820D01*
X116520323Y-78903820D01*
X116520689Y-79515896D01*
X116521750Y-80100523D01*
X116523452Y-80650705D01*
X116525740Y-81159447D01*
X116528560Y-81619754D01*
X116531856Y-82024631D01*
X116535575Y-82367083D01*
X116539664Y-82640113D01*
X116544064Y-82836726D01*
X116548724Y-82949928D01*
X116552072Y-82975758D01*
X116603431Y-82980565D01*
X116743045Y-82985151D01*
X116963917Y-82989462D01*
X117259053Y-82993442D01*
X117621458Y-82997037D01*
X118044136Y-83000192D01*
X118520092Y-83002855D01*
X119042330Y-83004968D01*
X119603857Y-83006479D01*
X120197675Y-83007331D01*
X120624010Y-83007508D01*
X124664197Y-83007508D01*
X124664197Y-82174071D01*
X125473821Y-82174071D01*
X125473821Y-83007508D01*
X125878634Y-83007508D01*
X126283447Y-83007508D01*
X126283447Y-82174071D01*
X126283447Y-81340633D01*
X125878634Y-81340633D01*
X125473821Y-81340633D01*
X125473821Y-82174071D01*
X124664197Y-82174071D01*
X124664197Y-81340633D01*
X124664197Y-78935571D01*
X124664197Y-78911758D01*
X125473821Y-78911758D01*
X125473821Y-79721383D01*
X125878634Y-79721383D01*
X126283447Y-79721383D01*
X126283447Y-78911758D01*
X126283447Y-78102133D01*
X125878634Y-78102133D01*
X125473821Y-78102133D01*
X125473821Y-78911758D01*
X124664197Y-78911758D01*
X124664197Y-78102133D01*
X124664197Y-75673258D01*
X125473821Y-75673258D01*
X125473821Y-76482883D01*
X125878634Y-76482883D01*
X126283447Y-76482883D01*
X126283447Y-75673258D01*
X126283447Y-74863635D01*
X125878634Y-74863635D01*
X125473821Y-74863635D01*
X125473821Y-75673258D01*
X124664197Y-75673258D01*
X124664197Y-74863635D01*
X120592260Y-74863635D01*
X116520323Y-74863635D01*
X116520323Y-78903820D01*
X115758323Y-78903820D01*
X115758323Y-78102133D01*
X115329698Y-78102133D01*
X114901073Y-78102133D01*
X114901073Y-78911758D01*
X114091448Y-78911758D01*
X114091448Y-78102133D01*
X114091448Y-75673258D01*
X114901073Y-75673258D01*
X114901073Y-76482883D01*
X115329698Y-76482883D01*
X115758323Y-76482883D01*
X115758323Y-75673258D01*
X115758323Y-74863635D01*
X115329698Y-74863635D01*
X114901073Y-74863635D01*
X114901073Y-75673258D01*
X114091448Y-75673258D01*
X114091448Y-74863635D01*
X114091448Y-74054010D01*
X120592260Y-74054010D01*
X127093072Y-74054010D01*
X127093072Y-78911758D01*
G37*
D14*
%TO.C,C1*%
X156364000Y-86225748D02*
X156364000Y-86748252D01*
X157834000Y-86225748D02*
X157834000Y-86748252D01*
%TO.C,C9*%
X138711000Y-79890252D02*
X138711000Y-79367748D01*
X140181000Y-79890252D02*
X140181000Y-79367748D01*
%TO.C,C3*%
X160428000Y-86225748D02*
X160428000Y-86748252D01*
X161898000Y-86225748D02*
X161898000Y-86748252D01*
%TO.C,R4*%
X195480000Y-55869064D02*
X195480000Y-55414936D01*
X196950000Y-55869064D02*
X196950000Y-55414936D01*
%TO.C,C10*%
X152173000Y-52824748D02*
X152173000Y-53347252D01*
X153643000Y-52824748D02*
X153643000Y-53347252D01*
%TO.C,R2*%
X166905000Y-53186064D02*
X166905000Y-52731936D01*
X168375000Y-53186064D02*
X168375000Y-52731936D01*
%TO.C,C12*%
X144923250Y-88526252D02*
X144923250Y-88003748D01*
X146393250Y-88526252D02*
X146393250Y-88003748D01*
%TO.C,Y1*%
X146842250Y-86043500D02*
X146842250Y-90343500D01*
X146842250Y-90343500D02*
X152242250Y-90343500D01*
%TO.C,C6*%
X142775000Y-79890252D02*
X142775000Y-79367748D01*
X144245000Y-79890252D02*
X144245000Y-79367748D01*
%TO.C,J1*%
X147949000Y-44795000D02*
X147949000Y-46775000D01*
X147949000Y-46775000D02*
X148369000Y-46775000D01*
X153019000Y-47455000D02*
X153469000Y-47455000D01*
X153469000Y-47005000D02*
X153469000Y-47455000D01*
X155469000Y-44795000D02*
X155469000Y-46775000D01*
X155469000Y-46775000D02*
X155049000Y-46775000D01*
D16*
%TO.C,REF\u002A\u002A*%
X184492338Y-66431066D02*
X184773794Y-67924045D01*
X185812327Y-68352163D01*
X186850861Y-68780280D01*
X188096755Y-67933081D01*
X188445670Y-67697193D01*
X188761071Y-67486575D01*
X189028239Y-67310845D01*
X189232456Y-67179617D01*
X189359004Y-67102508D01*
X189393467Y-67085882D01*
X189455552Y-67128643D01*
X189588221Y-67246859D01*
X189776601Y-67425428D01*
X190005825Y-67649250D01*
X190261019Y-67903222D01*
X190527315Y-68172245D01*
X190789842Y-68441217D01*
X191033729Y-68695037D01*
X191244105Y-68918603D01*
X191406101Y-69096814D01*
X191504845Y-69214570D01*
X191528451Y-69253979D01*
X191494478Y-69326632D01*
X191399234Y-69485801D01*
X191252735Y-69715916D01*
X191064993Y-70001408D01*
X190846022Y-70326709D01*
X190719137Y-70512252D01*
X190487863Y-70851054D01*
X190282352Y-71156789D01*
X190112575Y-71414237D01*
X189988502Y-71608181D01*
X189920102Y-71723402D01*
X189909823Y-71747616D01*
X189933124Y-71816433D01*
X189996637Y-71976819D01*
X190090779Y-72206223D01*
X190205966Y-72482096D01*
X190332617Y-72781887D01*
X190461148Y-73083046D01*
X190581975Y-73363022D01*
X190685515Y-73599266D01*
X190762186Y-73769228D01*
X190802405Y-73850357D01*
X190804779Y-73853550D01*
X190867930Y-73869041D01*
X191036115Y-73903600D01*
X191291900Y-73953830D01*
X191617853Y-74016334D01*
X191996541Y-74087714D01*
X192217485Y-74128877D01*
X192622132Y-74205921D01*
X192987624Y-74279233D01*
X193295468Y-74344802D01*
X193527174Y-74398615D01*
X193664253Y-74436661D01*
X193691809Y-74448732D01*
X193718797Y-74530435D01*
X193740573Y-74714961D01*
X193757151Y-74980730D01*
X193768546Y-75306166D01*
X193774773Y-75669690D01*
X193775845Y-76049725D01*
X193771779Y-76424692D01*
X193762589Y-76773014D01*
X193748289Y-77073113D01*
X193728895Y-77303411D01*
X193704421Y-77442329D01*
X193689742Y-77471249D01*
X193601998Y-77505913D01*
X193416072Y-77555470D01*
X193156558Y-77614098D01*
X192848049Y-77675976D01*
X192740355Y-77695994D01*
X192221119Y-77791102D01*
X191810960Y-77867697D01*
X191496325Y-77928821D01*
X191263663Y-77977521D01*
X191099419Y-78016839D01*
X190990043Y-78049820D01*
X190921981Y-78079509D01*
X190881681Y-78108950D01*
X190876043Y-78114769D01*
X190819758Y-78208499D01*
X190733895Y-78390911D01*
X190627029Y-78639667D01*
X190507731Y-78932432D01*
X190384576Y-79246869D01*
X190266138Y-79560641D01*
X190160988Y-79851412D01*
X190077702Y-80096846D01*
X190024853Y-80274606D01*
X190011013Y-80362355D01*
X190012167Y-80365429D01*
X190059060Y-80437152D01*
X190165442Y-80594962D01*
X190320133Y-80822432D01*
X190511955Y-81103137D01*
X190729728Y-81420650D01*
X190791747Y-81510881D01*
X191012882Y-81838006D01*
X191207472Y-82136477D01*
X191364915Y-82389153D01*
X191474613Y-82578896D01*
X191525964Y-82688567D01*
X191528451Y-82702041D01*
X191485306Y-82772859D01*
X191366090Y-82913151D01*
X191186127Y-83107841D01*
X190960743Y-83341850D01*
X190705264Y-83600101D01*
X190435015Y-83867515D01*
X190165322Y-84129014D01*
X189911510Y-84369522D01*
X189688906Y-84573960D01*
X189512834Y-84727250D01*
X189398620Y-84814314D01*
X189367024Y-84828529D01*
X189293479Y-84795048D01*
X189142904Y-84704748D01*
X188939825Y-84572839D01*
X188783577Y-84466667D01*
X188500463Y-84271850D01*
X188165187Y-84042460D01*
X187828888Y-83813438D01*
X187648083Y-83690865D01*
X187036097Y-83276925D01*
X186522377Y-83554688D01*
X186288340Y-83676370D01*
X186089326Y-83770951D01*
X185954669Y-83824895D01*
X185920393Y-83832402D01*
X185879176Y-83776981D01*
X185797863Y-83620373D01*
X185682522Y-83377021D01*
X185539225Y-83061373D01*
X185374041Y-82687873D01*
X185193040Y-82270968D01*
X185002292Y-81825104D01*
X184807867Y-81364726D01*
X184615835Y-80904280D01*
X184432267Y-80458211D01*
X184263232Y-80040967D01*
X184114800Y-79666992D01*
X183993042Y-79350732D01*
X183904027Y-79106633D01*
X183853825Y-78949141D01*
X183845751Y-78895052D01*
X183909742Y-78826059D01*
X184049847Y-78714063D01*
X184236779Y-78582334D01*
X184252468Y-78571911D01*
X184735613Y-78185171D01*
X185125186Y-77733976D01*
X185417812Y-77232755D01*
X185610114Y-76695934D01*
X185698717Y-76137941D01*
X185680244Y-75573202D01*
X185551319Y-75016146D01*
X185308566Y-74481198D01*
X185237146Y-74364158D01*
X184865671Y-73891545D01*
X184426818Y-73512029D01*
X183935776Y-73227585D01*
X183407734Y-73040186D01*
X182857883Y-72951805D01*
X182301410Y-72964418D01*
X181753504Y-73079996D01*
X181229356Y-73300514D01*
X180744154Y-73627946D01*
X180594067Y-73760843D01*
X180212088Y-74176847D01*
X179933744Y-74614780D01*
X179742809Y-75105664D01*
X179636468Y-75591792D01*
X179610217Y-76138353D01*
X179697752Y-76687628D01*
X179890183Y-77221050D01*
X180178618Y-77720053D01*
X180554165Y-78166072D01*
X181007933Y-78540541D01*
X181067569Y-78580013D01*
X181256504Y-78709279D01*
X181400129Y-78821280D01*
X181468794Y-78892791D01*
X181469793Y-78895052D01*
X181455051Y-78972409D01*
X181396614Y-79147977D01*
X181300554Y-79407313D01*
X181172944Y-79735973D01*
X181019856Y-80119517D01*
X180847362Y-80543501D01*
X180661535Y-80993483D01*
X180468447Y-81455019D01*
X180274171Y-81913669D01*
X180084779Y-82354988D01*
X179906344Y-82764535D01*
X179744937Y-83127868D01*
X179606632Y-83430543D01*
X179497501Y-83658117D01*
X179423616Y-83796150D01*
X179393862Y-83832402D01*
X179302944Y-83804172D01*
X179132826Y-83728461D01*
X178912842Y-83618799D01*
X178791877Y-83554688D01*
X178278158Y-83276925D01*
X177666172Y-83690865D01*
X177353767Y-83902923D01*
X177011738Y-84136288D01*
X176691222Y-84356020D01*
X176530678Y-84466667D01*
X176304879Y-84618294D01*
X176113679Y-84738451D01*
X175982020Y-84811923D01*
X175939256Y-84827455D01*
X175877014Y-84785556D01*
X175739263Y-84668590D01*
X175539358Y-84488699D01*
X175290652Y-84258030D01*
X175006502Y-83988725D01*
X174826790Y-83815813D01*
X174512379Y-83506891D01*
X174240659Y-83230584D01*
X174022613Y-82998712D01*
X173869225Y-82823093D01*
X173791479Y-82715548D01*
X173784020Y-82693724D01*
X173818633Y-82610708D01*
X173914281Y-82442855D01*
X174060355Y-82207158D01*
X174246244Y-81920611D01*
X174461339Y-81600207D01*
X174522507Y-81510881D01*
X174745387Y-81186222D01*
X174945345Y-80893921D01*
X175111202Y-80650404D01*
X175231778Y-80472097D01*
X175295894Y-80375425D01*
X175302088Y-80365429D01*
X175292825Y-80288386D01*
X175243655Y-80118997D01*
X175163151Y-79879597D01*
X175059888Y-79592522D01*
X174942438Y-79280110D01*
X174819375Y-78964697D01*
X174699272Y-78668619D01*
X174590703Y-78414212D01*
X174502242Y-78223814D01*
X174442461Y-78119760D01*
X174438212Y-78114769D01*
X174401656Y-78085031D01*
X174339913Y-78055623D01*
X174239432Y-78023502D01*
X174086659Y-77985622D01*
X173868043Y-77938940D01*
X173570031Y-77880411D01*
X173179070Y-77806991D01*
X172681608Y-77715636D01*
X172573900Y-77695994D01*
X172254677Y-77634318D01*
X171976384Y-77573982D01*
X171763614Y-77520808D01*
X171640960Y-77480619D01*
X171624513Y-77471249D01*
X171597412Y-77388183D01*
X171575383Y-77202553D01*
X171558441Y-76935938D01*
X171546600Y-76609917D01*
X171539876Y-76246066D01*
X171538284Y-75865964D01*
X171541837Y-75491189D01*
X171550551Y-75143318D01*
X171564441Y-74843930D01*
X171583521Y-74614603D01*
X171607806Y-74476913D01*
X171622446Y-74448732D01*
X171703951Y-74420306D01*
X171889546Y-74374059D01*
X172160740Y-74314005D01*
X172499043Y-74244154D01*
X172885964Y-74168519D01*
X173096770Y-74128877D01*
X173496741Y-74054108D01*
X173853419Y-73986375D01*
X174149371Y-73929076D01*
X174367163Y-73885607D01*
X174489364Y-73859367D01*
X174509476Y-73853550D01*
X174543468Y-73787964D01*
X174615324Y-73629988D01*
X174715464Y-73402191D01*
X174834312Y-73127142D01*
X174962289Y-72827411D01*
X175089816Y-72525567D01*
X175207316Y-72244177D01*
X175305212Y-72005813D01*
X175373923Y-71833042D01*
X175403874Y-71748434D01*
X175404431Y-71744736D01*
X175370478Y-71677992D01*
X175275289Y-71524399D01*
X175128868Y-71299221D01*
X174941221Y-71017724D01*
X174722352Y-70695174D01*
X174595118Y-70509902D01*
X174363273Y-70170192D01*
X174157353Y-69861772D01*
X173987403Y-69600243D01*
X173863472Y-69401206D01*
X173795606Y-69280266D01*
X173785804Y-69253154D01*
X173827938Y-69190049D01*
X173944421Y-69055310D01*
X174120372Y-68864031D01*
X174340914Y-68631308D01*
X174591165Y-68372236D01*
X174856246Y-68101909D01*
X175121278Y-67835423D01*
X175371381Y-67587873D01*
X175591676Y-67374354D01*
X175767283Y-67209961D01*
X175883322Y-67109789D01*
X175922142Y-67085882D01*
X175985349Y-67119498D01*
X176136529Y-67213938D01*
X176360981Y-67359588D01*
X176644008Y-67546834D01*
X176970910Y-67766063D01*
X177217500Y-67933081D01*
X178463394Y-68780280D01*
X179501927Y-68352163D01*
X180540461Y-67924045D01*
X180821917Y-66431066D01*
X181103373Y-64938088D01*
X184210882Y-64938088D01*
X184492338Y-66431066D01*
G36*
X184492338Y-66431066D02*
G01*
X184773794Y-67924045D01*
X185812327Y-68352163D01*
X186850861Y-68780280D01*
X188096755Y-67933081D01*
X188445670Y-67697193D01*
X188761071Y-67486575D01*
X189028239Y-67310845D01*
X189232456Y-67179617D01*
X189359004Y-67102508D01*
X189393467Y-67085882D01*
X189455552Y-67128643D01*
X189588221Y-67246859D01*
X189776601Y-67425428D01*
X190005825Y-67649250D01*
X190261019Y-67903222D01*
X190527315Y-68172245D01*
X190789842Y-68441217D01*
X191033729Y-68695037D01*
X191244105Y-68918603D01*
X191406101Y-69096814D01*
X191504845Y-69214570D01*
X191528451Y-69253979D01*
X191494478Y-69326632D01*
X191399234Y-69485801D01*
X191252735Y-69715916D01*
X191064993Y-70001408D01*
X190846022Y-70326709D01*
X190719137Y-70512252D01*
X190487863Y-70851054D01*
X190282352Y-71156789D01*
X190112575Y-71414237D01*
X189988502Y-71608181D01*
X189920102Y-71723402D01*
X189909823Y-71747616D01*
X189933124Y-71816433D01*
X189996637Y-71976819D01*
X190090779Y-72206223D01*
X190205966Y-72482096D01*
X190332617Y-72781887D01*
X190461148Y-73083046D01*
X190581975Y-73363022D01*
X190685515Y-73599266D01*
X190762186Y-73769228D01*
X190802405Y-73850357D01*
X190804779Y-73853550D01*
X190867930Y-73869041D01*
X191036115Y-73903600D01*
X191291900Y-73953830D01*
X191617853Y-74016334D01*
X191996541Y-74087714D01*
X192217485Y-74128877D01*
X192622132Y-74205921D01*
X192987624Y-74279233D01*
X193295468Y-74344802D01*
X193527174Y-74398615D01*
X193664253Y-74436661D01*
X193691809Y-74448732D01*
X193718797Y-74530435D01*
X193740573Y-74714961D01*
X193757151Y-74980730D01*
X193768546Y-75306166D01*
X193774773Y-75669690D01*
X193775845Y-76049725D01*
X193771779Y-76424692D01*
X193762589Y-76773014D01*
X193748289Y-77073113D01*
X193728895Y-77303411D01*
X193704421Y-77442329D01*
X193689742Y-77471249D01*
X193601998Y-77505913D01*
X193416072Y-77555470D01*
X193156558Y-77614098D01*
X192848049Y-77675976D01*
X192740355Y-77695994D01*
X192221119Y-77791102D01*
X191810960Y-77867697D01*
X191496325Y-77928821D01*
X191263663Y-77977521D01*
X191099419Y-78016839D01*
X190990043Y-78049820D01*
X190921981Y-78079509D01*
X190881681Y-78108950D01*
X190876043Y-78114769D01*
X190819758Y-78208499D01*
X190733895Y-78390911D01*
X190627029Y-78639667D01*
X190507731Y-78932432D01*
X190384576Y-79246869D01*
X190266138Y-79560641D01*
X190160988Y-79851412D01*
X190077702Y-80096846D01*
X190024853Y-80274606D01*
X190011013Y-80362355D01*
X190012167Y-80365429D01*
X190059060Y-80437152D01*
X190165442Y-80594962D01*
X190320133Y-80822432D01*
X190511955Y-81103137D01*
X190729728Y-81420650D01*
X190791747Y-81510881D01*
X191012882Y-81838006D01*
X191207472Y-82136477D01*
X191364915Y-82389153D01*
X191474613Y-82578896D01*
X191525964Y-82688567D01*
X191528451Y-82702041D01*
X191485306Y-82772859D01*
X191366090Y-82913151D01*
X191186127Y-83107841D01*
X190960743Y-83341850D01*
X190705264Y-83600101D01*
X190435015Y-83867515D01*
X190165322Y-84129014D01*
X189911510Y-84369522D01*
X189688906Y-84573960D01*
X189512834Y-84727250D01*
X189398620Y-84814314D01*
X189367024Y-84828529D01*
X189293479Y-84795048D01*
X189142904Y-84704748D01*
X188939825Y-84572839D01*
X188783577Y-84466667D01*
X188500463Y-84271850D01*
X188165187Y-84042460D01*
X187828888Y-83813438D01*
X187648083Y-83690865D01*
X187036097Y-83276925D01*
X186522377Y-83554688D01*
X186288340Y-83676370D01*
X186089326Y-83770951D01*
X185954669Y-83824895D01*
X185920393Y-83832402D01*
X185879176Y-83776981D01*
X185797863Y-83620373D01*
X185682522Y-83377021D01*
X185539225Y-83061373D01*
X185374041Y-82687873D01*
X185193040Y-82270968D01*
X185002292Y-81825104D01*
X184807867Y-81364726D01*
X184615835Y-80904280D01*
X184432267Y-80458211D01*
X184263232Y-80040967D01*
X184114800Y-79666992D01*
X183993042Y-79350732D01*
X183904027Y-79106633D01*
X183853825Y-78949141D01*
X183845751Y-78895052D01*
X183909742Y-78826059D01*
X184049847Y-78714063D01*
X184236779Y-78582334D01*
X184252468Y-78571911D01*
X184735613Y-78185171D01*
X185125186Y-77733976D01*
X185417812Y-77232755D01*
X185610114Y-76695934D01*
X185698717Y-76137941D01*
X185680244Y-75573202D01*
X185551319Y-75016146D01*
X185308566Y-74481198D01*
X185237146Y-74364158D01*
X184865671Y-73891545D01*
X184426818Y-73512029D01*
X183935776Y-73227585D01*
X183407734Y-73040186D01*
X182857883Y-72951805D01*
X182301410Y-72964418D01*
X181753504Y-73079996D01*
X181229356Y-73300514D01*
X180744154Y-73627946D01*
X180594067Y-73760843D01*
X180212088Y-74176847D01*
X179933744Y-74614780D01*
X179742809Y-75105664D01*
X179636468Y-75591792D01*
X179610217Y-76138353D01*
X179697752Y-76687628D01*
X179890183Y-77221050D01*
X180178618Y-77720053D01*
X180554165Y-78166072D01*
X181007933Y-78540541D01*
X181067569Y-78580013D01*
X181256504Y-78709279D01*
X181400129Y-78821280D01*
X181468794Y-78892791D01*
X181469793Y-78895052D01*
X181455051Y-78972409D01*
X181396614Y-79147977D01*
X181300554Y-79407313D01*
X181172944Y-79735973D01*
X181019856Y-80119517D01*
X180847362Y-80543501D01*
X180661535Y-80993483D01*
X180468447Y-81455019D01*
X180274171Y-81913669D01*
X180084779Y-82354988D01*
X179906344Y-82764535D01*
X179744937Y-83127868D01*
X179606632Y-83430543D01*
X179497501Y-83658117D01*
X179423616Y-83796150D01*
X179393862Y-83832402D01*
X179302944Y-83804172D01*
X179132826Y-83728461D01*
X178912842Y-83618799D01*
X178791877Y-83554688D01*
X178278158Y-83276925D01*
X177666172Y-83690865D01*
X177353767Y-83902923D01*
X177011738Y-84136288D01*
X176691222Y-84356020D01*
X176530678Y-84466667D01*
X176304879Y-84618294D01*
X176113679Y-84738451D01*
X175982020Y-84811923D01*
X175939256Y-84827455D01*
X175877014Y-84785556D01*
X175739263Y-84668590D01*
X175539358Y-84488699D01*
X175290652Y-84258030D01*
X175006502Y-83988725D01*
X174826790Y-83815813D01*
X174512379Y-83506891D01*
X174240659Y-83230584D01*
X174022613Y-82998712D01*
X173869225Y-82823093D01*
X173791479Y-82715548D01*
X173784020Y-82693724D01*
X173818633Y-82610708D01*
X173914281Y-82442855D01*
X174060355Y-82207158D01*
X174246244Y-81920611D01*
X174461339Y-81600207D01*
X174522507Y-81510881D01*
X174745387Y-81186222D01*
X174945345Y-80893921D01*
X175111202Y-80650404D01*
X175231778Y-80472097D01*
X175295894Y-80375425D01*
X175302088Y-80365429D01*
X175292825Y-80288386D01*
X175243655Y-80118997D01*
X175163151Y-79879597D01*
X175059888Y-79592522D01*
X174942438Y-79280110D01*
X174819375Y-78964697D01*
X174699272Y-78668619D01*
X174590703Y-78414212D01*
X174502242Y-78223814D01*
X174442461Y-78119760D01*
X174438212Y-78114769D01*
X174401656Y-78085031D01*
X174339913Y-78055623D01*
X174239432Y-78023502D01*
X174086659Y-77985622D01*
X173868043Y-77938940D01*
X173570031Y-77880411D01*
X173179070Y-77806991D01*
X172681608Y-77715636D01*
X172573900Y-77695994D01*
X172254677Y-77634318D01*
X171976384Y-77573982D01*
X171763614Y-77520808D01*
X171640960Y-77480619D01*
X171624513Y-77471249D01*
X171597412Y-77388183D01*
X171575383Y-77202553D01*
X171558441Y-76935938D01*
X171546600Y-76609917D01*
X171539876Y-76246066D01*
X171538284Y-75865964D01*
X171541837Y-75491189D01*
X171550551Y-75143318D01*
X171564441Y-74843930D01*
X171583521Y-74614603D01*
X171607806Y-74476913D01*
X171622446Y-74448732D01*
X171703951Y-74420306D01*
X171889546Y-74374059D01*
X172160740Y-74314005D01*
X172499043Y-74244154D01*
X172885964Y-74168519D01*
X173096770Y-74128877D01*
X173496741Y-74054108D01*
X173853419Y-73986375D01*
X174149371Y-73929076D01*
X174367163Y-73885607D01*
X174489364Y-73859367D01*
X174509476Y-73853550D01*
X174543468Y-73787964D01*
X174615324Y-73629988D01*
X174715464Y-73402191D01*
X174834312Y-73127142D01*
X174962289Y-72827411D01*
X175089816Y-72525567D01*
X175207316Y-72244177D01*
X175305212Y-72005813D01*
X175373923Y-71833042D01*
X175403874Y-71748434D01*
X175404431Y-71744736D01*
X175370478Y-71677992D01*
X175275289Y-71524399D01*
X175128868Y-71299221D01*
X174941221Y-71017724D01*
X174722352Y-70695174D01*
X174595118Y-70509902D01*
X174363273Y-70170192D01*
X174157353Y-69861772D01*
X173987403Y-69600243D01*
X173863472Y-69401206D01*
X173795606Y-69280266D01*
X173785804Y-69253154D01*
X173827938Y-69190049D01*
X173944421Y-69055310D01*
X174120372Y-68864031D01*
X174340914Y-68631308D01*
X174591165Y-68372236D01*
X174856246Y-68101909D01*
X175121278Y-67835423D01*
X175371381Y-67587873D01*
X175591676Y-67374354D01*
X175767283Y-67209961D01*
X175883322Y-67109789D01*
X175922142Y-67085882D01*
X175985349Y-67119498D01*
X176136529Y-67213938D01*
X176360981Y-67359588D01*
X176644008Y-67546834D01*
X176970910Y-67766063D01*
X177217500Y-67933081D01*
X178463394Y-68780280D01*
X179501927Y-68352163D01*
X180540461Y-67924045D01*
X180821917Y-66431066D01*
X181103373Y-64938088D01*
X184210882Y-64938088D01*
X184492338Y-66431066D01*
G37*
D14*
%TO.C,C7*%
X146296748Y-66448000D02*
X146819252Y-66448000D01*
X146296748Y-67918000D02*
X146819252Y-67918000D01*
%TO.C,C5*%
X158777000Y-69842748D02*
X158777000Y-70365252D01*
X160247000Y-69842748D02*
X160247000Y-70365252D01*
%TO.C,SW1*%
X163067000Y-45969000D02*
X163067000Y-43669000D01*
X164267000Y-45969000D02*
X163067000Y-45969000D01*
X166067000Y-45969000D02*
X166767000Y-45969000D01*
X168567000Y-45969000D02*
X169267000Y-45969000D01*
X172267000Y-43669000D02*
X172267000Y-45969000D01*
X172267000Y-45969000D02*
X171067000Y-45969000D01*
%TO.C,R3*%
X105773000Y-55807064D02*
X105773000Y-55352936D01*
X107243000Y-55807064D02*
X107243000Y-55352936D01*
%TO.C,J2*%
X115383000Y-42672000D02*
X115383000Y-45042000D01*
X115383000Y-45042000D02*
X140903000Y-45042000D01*
X115443000Y-47752000D02*
X115443000Y-46482000D01*
X116333000Y-45372000D02*
X116333000Y-45042000D01*
X116713000Y-47752000D02*
X115443000Y-47752000D01*
X117093000Y-45372000D02*
X117093000Y-45042000D01*
X117983000Y-45042000D02*
X117983000Y-42672000D01*
X118873000Y-45439071D02*
X118873000Y-45042000D01*
X119633000Y-45439071D02*
X119633000Y-45042000D01*
X120523000Y-45042000D02*
X120523000Y-42672000D01*
X121413000Y-45439071D02*
X121413000Y-45042000D01*
X122173000Y-45439071D02*
X122173000Y-45042000D01*
X123063000Y-45042000D02*
X123063000Y-42672000D01*
X123953000Y-45439071D02*
X123953000Y-45042000D01*
X124713000Y-45439071D02*
X124713000Y-45042000D01*
X125603000Y-45042000D02*
X125603000Y-42672000D01*
X126493000Y-45439071D02*
X126493000Y-45042000D01*
X127253000Y-45439071D02*
X127253000Y-45042000D01*
X128143000Y-45042000D02*
X128143000Y-42672000D01*
X129033000Y-45439071D02*
X129033000Y-45042000D01*
X129793000Y-45439071D02*
X129793000Y-45042000D01*
X130683000Y-45042000D02*
X130683000Y-42672000D01*
X131573000Y-45439071D02*
X131573000Y-45042000D01*
X132333000Y-45439071D02*
X132333000Y-45042000D01*
X133223000Y-45042000D02*
X133223000Y-42672000D01*
X134113000Y-45439071D02*
X134113000Y-45042000D01*
X134873000Y-45439071D02*
X134873000Y-45042000D01*
X135763000Y-45042000D02*
X135763000Y-42672000D01*
X136653000Y-45439071D02*
X136653000Y-45042000D01*
X137413000Y-45439071D02*
X137413000Y-45042000D01*
X138303000Y-45042000D02*
X138303000Y-42672000D01*
X139193000Y-45439071D02*
X139193000Y-45042000D01*
X139953000Y-45439071D02*
X139953000Y-45042000D01*
X140903000Y-45042000D02*
X140903000Y-42672000D01*
%TO.C,D2*%
X195255000Y-58527000D02*
X195255000Y-61387000D01*
X197175000Y-58527000D02*
X195255000Y-58527000D01*
X197175000Y-61387000D02*
X197175000Y-58527000D01*
%TO.C,R1*%
X156183064Y-55018000D02*
X155728936Y-55018000D01*
X156183064Y-56488000D02*
X155728936Y-56488000D01*
%TO.C,C8*%
X140743000Y-79890252D02*
X140743000Y-79367748D01*
X142213000Y-79890252D02*
X142213000Y-79367748D01*
%TO.C,U2*%
X156088500Y-51465000D02*
X155288500Y-51465000D01*
X156088500Y-51465000D02*
X156888500Y-51465000D01*
X156088500Y-54585000D02*
X155288500Y-54585000D01*
X156088500Y-54585000D02*
X156888500Y-54585000D01*
X154788500Y-51515000D02*
X154548500Y-51185000D01*
X155028500Y-51185000D01*
X154788500Y-51515000D01*
G36*
X154788500Y-51515000D02*
G01*
X154548500Y-51185000D01*
X155028500Y-51185000D01*
X154788500Y-51515000D01*
G37*
%TO.C,C2*%
X158396000Y-86225748D02*
X158396000Y-86748252D01*
X159866000Y-86225748D02*
X159866000Y-86748252D01*
%TO.C,J3*%
X179645000Y-42672000D02*
X179645000Y-45042000D01*
X179645000Y-45042000D02*
X187385000Y-45042000D01*
X179705000Y-47752000D02*
X179705000Y-46482000D01*
X180595000Y-45372000D02*
X180595000Y-45042000D01*
X180975000Y-47752000D02*
X179705000Y-47752000D01*
X181355000Y-45372000D02*
X181355000Y-45042000D01*
X182245000Y-45042000D02*
X182245000Y-42672000D01*
X183135000Y-45439071D02*
X183135000Y-45042000D01*
X183895000Y-45439071D02*
X183895000Y-45042000D01*
X184785000Y-45042000D02*
X184785000Y-42672000D01*
X185675000Y-45439071D02*
X185675000Y-45042000D01*
X186435000Y-45439071D02*
X186435000Y-45042000D01*
X187385000Y-45042000D02*
X187385000Y-42672000D01*
%TO.C,D1*%
X105548000Y-58465000D02*
X105548000Y-61325000D01*
X107468000Y-58465000D02*
X105548000Y-58465000D01*
X107468000Y-61325000D02*
X107468000Y-58465000D01*
%TO.C,C13*%
X152670250Y-87876748D02*
X152670250Y-88399252D01*
X154140250Y-87876748D02*
X154140250Y-88399252D01*
%TO.C,C4*%
X158777000Y-78732748D02*
X158777000Y-79255252D01*
X160247000Y-78732748D02*
X160247000Y-79255252D01*
%TD*%
M02*
